<?xml version="1.0" encoding="utf-8"?>
<!DOCTYPE svg PUBLIC "-//W3C//DTD SVG 1.1//EN" "http://www.w3.org/Graphics/SVG/1.1/DTD/svg11.dtd">
<svg version="1.1" xmlns="http://www.w3.org/2000/svg" viewBox="0 0 187 187" xml:space="preserve">
<path fill="#FFFFFF" d="M159.614,27.368C123.146-9.12,63.826-9.12,27.347,27.35c-36.462,36.469-36.462,95.822,0,132.293 c36.479,36.48,95.822,36.475,132.268-0.013C196.129,123.172,196.129,63.819,159.614,27.368z"/>
<path fill="#2A3052" d="M67.421,118.024c0,0,1.073,8.027,7.828,11.739l-1.8-3.354C73.449,126.41,76.885,117.392,67.421,118.024z" />
<path fill="#2A3052" d="M154.887,32.099C121.017-1.785,65.943-1.785,32.084,32.087c-33.858,33.867-33.858,88.957,0,122.829  c33.859,33.86,88.956,33.854,122.803-0.007C188.781,121.044,188.781,65.954,154.887,32.099z M145.904,145.928 c-0.949,0.933-1.871,1.836-2.833,2.697c-20.863,17.004-36.937,8.543-37.112,8.543c-10.896-2.176-16.296-2.211-19.352-4.256 c-0.769-0.51-3.23-1.837-3.8-1.515c-2.223,1.328-5.277,2.002-8.427-0.502c-0.281-0.229-0.539-0.481-0.785-0.709 c-3.466-3.46-2.287-7.025-1.138-8.256c0.798-0.81-0.61-3.097-0.61-3.097s-4.087-6.075-6.884-9.727 c-3.073-4.011-3.489-11.975-3.53-12.079l-0.035-0.11c-3.113-3.693-3.437-4.831-4.51-6.633c-0.627-1.06-1.589-2.063-2.409-2.92 c-0.558-0.556-1.085-1.091-1.442-1.59c-0.089-0.105-0.106-0.262-0.07-0.502c0.274-1.729,3.987-5.524,4.784-6.058 c0.985-0.64,5.207-3.206,5.207-3.206s2.381-3.73,6.421-3.73c3.642,0.018,5.87-0.205,12.156,1.848l2.621,0.826 c4.38,1.407,8.245,3.067,11.317,4.386c2.609,1.125,4.691,2.028,6.292,2.451c5.418,1.425,14.988-2.962,17.006-4.813 c3.313-3.014,4.738-5.032,4.756-6.691c0.028-0.926-0.381-1.736-1.319-2.715c-0.487-0.451-1.114-1.289-1.905-2.082 c-0.124-0.128-0.254-0.275-0.418-0.393c-9.177-9.75-7.593-15.866-7.581-15.965c0.394-4.386-2.123-7.194-4.826-10.114l-0.445-0.551 c-0.141-0.129-0.311-0.355-0.311-0.355c3.91,0.642,6.573,2.219,14.213,3.069c4.334,0.463,2.968,0.422,6.428,0.34 c4.779-0.153,8.562-0.575,8.818-1.66c-0.462-0.393-2.573,0.12-12.718-3.755c-4.691-1.803-5.43-2.067-8.421-3.057 c-3.834-1.296-7.986-3.09-7.986-3.09c16.535,4.345,21.942,6.039,29.52,6.147c2.92,0.05,4.661-0.302,5.688-0.507 c1.073-0.2,4.416-0.956,4.797-2.11c0.111-0.2-3.209,0.545-9.342-1.478c-19.304-6.379-20.952-9.569-31.653-13.731 c-3.73-1.448-4.949-2.251-16.22-5.154c-5.167-1.325-12.978-0.569-14.032,0.1c-14.643-3.441-17.968-3.06-22.266-2.14 c28.64-18.357,67.312-15.051,92.357,10.002c3.396,3.401,6.402,7.06,9.042,10.935l0.353,0.534 c8.038,12.038,12.325,26.156,12.325,40.937C167.624,113.307,159.907,131.908,145.904,145.928z M97.292,62.23 c7.266,2.591,9.6,10.337,9.6,10.337c-9.236,2.105-7.289-7.333-7.289-7.333L97.292,62.23z"/>
</svg>
