<svg xmlns="http://www.w3.org/2000/svg" viewBox="0 0 200 200"><path fill="#F3F2F2" d="M1 1h198v198h-198z"/><path fill="#CDCCCB" d="M198 2v196h-196v-196h196m2-2h-200v200h200v-200z"/><g stroke="#CDCCCB" stroke-width="2" fill="none"><path d="M0 25.961h200M0 55.578h200M0 85.192h200M0 114.808h200M0 144.423h200M0 174.039h200"/></g><text transform="translate(12.848 48.476)"><tspan x="0" y="0" fill="#2E8842" font-family="'MyriadPro-Regular'" font-size="15.385">100.00</tspan><tspan x="0" y="29.231" fill="#2E8842" font-family="'MyriadPro-Regular'" font-size="15.385">100.00</tspan><tspan x="0" y="58.461" fill="#2E8842" font-family="'MyriadPro-Regular'" font-size="15.385">100.00</tspan><tspan x="0" y="87.691" fill="#2E8842" font-family="'MyriadPro-Regular'" font-size="15.385">100.00</tspan><tspan x="0" y="116.923" fill="#2E8842" font-family="'MyriadPro-Regular'" font-size="15.385">100.00</tspan><tspan x="0" y="146.153" fill="#2E8842" font-family="'MyriadPro-Regular'" font-size="15.385">100.00</tspan></text><path fill="#E6E7E8" d="M3.032 3.12h193.942v21.198h-193.942z"/><text transform="translate(14.387 15.425)"><tspan x="0" y="0" fill="#231F20" font-family="'MyriadPro-Bold'" font-size="14.703">95%</tspan><tspan x="0" y="8.02" fill="#231F20" font-family="'MyriadPro-Bold'" font-size="9.356">87.518</tspan></text><text transform="translate(85.155 15.425)"><tspan x="0" y="0" fill="#231F20" font-family="'MyriadPro-Bold'" font-size="14.703">98%</tspan><tspan x="0" y="8.02" fill="#231F20" font-family="'MyriadPro-Bold'" font-size="9.356">90.282</tspan></text><text transform="translate(148.232 15.425)"><tspan x="0" y="0" fill="#231F20" font-family="'MyriadPro-Bold'" font-size="14.703">100%</tspan><tspan x="0" y="8.02" fill="#231F20" font-family="'MyriadPro-Bold'" font-size="9.356">92.125</tspan></text><text transform="translate(85.155 48.476)"><tspan x="0" y="0" fill="#2E8842" font-family="'MyriadPro-Regular'" font-size="15.385">96.92</tspan><tspan x="0" y="29.231" fill="#2E8842" font-family="'MyriadPro-Regular'" font-size="15.385">95.18</tspan><tspan x="0" y="58.461" fill="#2E8842" font-family="'MyriadPro-Regular'" font-size="15.385">95.18</tspan><tspan x="0" y="87.691" fill="#2E8842" font-family="'MyriadPro-Regular'" font-size="15.385">90.39</tspan><tspan x="0" y="116.923" fill="#2E8842" font-family="'MyriadPro-Regular'" font-size="15.385">90.15</tspan><tspan x="0" y="146.153" fill="#2E8842" font-family="'MyriadPro-Regular'" font-size="15.385">90.15</tspan></text><text transform="translate(148.231 48.476)"><tspan x="0" y="0" fill="#2E8842" font-family="'MyriadPro-Regular'" font-size="15.385">55.11</tspan><tspan x="0" y="29.231" fill="#2E8842" font-family="'MyriadPro-Regular'" font-size="15.385">54.85</tspan><tspan x="0" y="58.461" fill="#2E8842" font-family="'MyriadPro-Regular'" font-size="15.385">54.85</tspan><tspan x="0" y="87.691" fill="#2E8842" font-family="'MyriadPro-Regular'" font-size="15.385">53.86</tspan><tspan x="0" y="116.923" fill="#2E8842" font-family="'MyriadPro-Regular'" font-size="15.385">53.65</tspan><tspan x="0" y="146.153" fill="#2E8842" font-family="'MyriadPro-Regular'" font-size="15.385">53.65</tspan></text></svg>