<?xml version="1.0" encoding="utf-8"?>
<!-- Generator: Adobe Illustrator 14.0.0, SVG Export Plug-In . SVG Version: 6.00 Build 43363)  -->
<!DOCTYPE svg PUBLIC "-//W3C//DTD SVG 1.0//EN" "http://www.w3.org/TR/2001/REC-SVG-20010904/DTD/svg10.dtd">
<svg version="1.0" id="Layer_1" xmlns="http://www.w3.org/2000/svg" xmlns:xlink="http://www.w3.org/1999/xlink" x="0px" y="0px"
	 width="90px" height="90px" viewBox="0 0 90 90" enable-background="new 0 0 90 90" xml:space="preserve">
<g>
	<g>
		<g id="path3793-4-1-2-0-3_5_">
			<path fill="#2A3052" d="M45,5c22.1,0,40,17.9,40,40c0,22.1-17.9,40-40,40C22.9,85,5,67.1,5,45C5,22.9,22.9,5,45,5 M45,0
				C20.1,0,0,20.1,0,45s20.1,45,45,45s45-20.1,45-45S69.9,0,45,0L45,0z"/>
		</g>
	</g>
	<g>
		<path id="path3793-4-1-2-0-3_7_" fill="none" stroke="#2A3052" stroke-width="4" d="M11,44.6c0-18.8,15.2-34,34-34
			c18.8,0,34,15.2,34,34"/>
	</g>
	<g>
		<path id="path3793-4-1-2-0-3_6_" fill="none" stroke="#2A3052" stroke-width="4" d="M14.1,58.8c-2-4.4-3.2-9.2-3.2-14.4"/>
	</g>
	<g>
		<path id="path3793-4-1-2-0-3_8_" fill="none" stroke="#2A3052" stroke-width="4" d="M79,44.4c0,5.1-1.1,10-3.2,14.4"/>
	</g>
	<g>
		<g>
			<path fill="#2A3052" d="M44.9,10.7c-0.8,0-1.4,0.6-1.4,1.4v8.7c0,0.8,0.7,1.4,1.4,1.4c0.8,0,1.4-0.6,1.4-1.4v-8.7
				C46.4,11.4,45.7,10.7,44.9,10.7z"/>
		</g>
		<g>
			<path fill="#2A3052" d="M25.6,16.6c-0.7,0.4-0.8,1.3-0.4,2l4.9,7.2c0.4,0.6,1.3,0.8,2,0.4c0.7-0.4,0.8-1.3,0.4-2L27.6,17
				C27.1,16.4,26.2,16.2,25.6,16.6z"/>
		</g>
		<g>
			<path fill="#2A3052" d="M13.1,31.6c-0.3,0.7,0,1.6,0.7,1.9l8,3.5c0.7,0.3,1.6,0,1.9-0.8c0.3-0.7,0-1.6-0.7-1.9l-8-3.5
				C14.2,30.6,13.4,30.9,13.1,31.6z"/>
		</g>
		<g>
			<path fill="#2A3052" d="M10.9,52.4c0.2,0.8,0.9,1.3,1.7,1.1l8.5-1.7c0.8-0.2,1.3-0.9,1.1-1.7c-0.2-0.8-0.9-1.3-1.7-1.1L12,50.7
				C11.2,50.9,10.8,51.6,10.9,52.4z"/>
		</g>
		<g>
			<path fill="#2A3052" d="M61.9,17l-4.9,7.2c-0.4,0.7-0.3,1.5,0.4,2c0.6,0.4,1.5,0.3,2-0.4l4.9-7.2c0.4-0.7,0.3-1.5-0.4-2
				C63.3,16.2,62.4,16.4,61.9,17z"/>
		</g>
		<g>
			<path fill="#2A3052" d="M74.5,30.9l-8,3.5c-0.7,0.3-1,1.2-0.7,1.9c0.3,0.7,1.2,1.1,1.9,0.8l8-3.5c0.7-0.3,1-1.2,0.7-1.9
				C76.1,30.9,75.2,30.6,74.5,30.9z"/>
		</g>
		<g>
			<path fill="#2A3052" d="M77.5,50.7L68.9,49c-0.8-0.2-1.5,0.4-1.7,1.1c-0.2,0.8,0.3,1.5,1.1,1.7l8.5,1.7c0.8,0.2,1.5-0.4,1.7-1.1
				C78.7,51.6,78.2,50.9,77.5,50.7z"/>
		</g>
	</g>
	<circle fill="#2A3052" cx="44.9" cy="53.7" r="5.7"/>
	<polygon fill="#2A3052" points="49.3,54 54.8,26.7 41.3,50.9 	"/>
</g>
</svg>
