<?xml version="1.0" encoding="utf-8"?>
<!-- Generator: Adobe Illustrator 14.0.0, SVG Export Plug-In . SVG Version: 6.00 Build 43363)  -->
<!DOCTYPE svg PUBLIC "-//W3C//DTD SVG 1.0//EN" "http://www.w3.org/TR/2001/REC-SVG-20010904/DTD/svg10.dtd">
<svg version="1.0" id="Layer_1" xmlns="http://www.w3.org/2000/svg" xmlns:xlink="http://www.w3.org/1999/xlink" x="0px" y="0px"
	 width="90px" height="90px" viewBox="0 0 90 90" enable-background="new 0 0 90 90" xml:space="preserve">
<g>
	<g id="path3793-4-1-2-0-3_3_">
		<path fill="#3B3A58" d="M45,5c22.1,0,40,17.9,40,40c0,22.1-17.9,40-40,40C22.9,85,5,67.1,5,45C5,22.9,22.9,5,45,5 M45,0
			C20.1,0,0,20.1,0,45s20.1,45,45,45c24.9,0,45-20.1,45-45S69.9,0,45,0L45,0z"/>
	</g>
	<polyline fill="none" stroke="#3B3A58" stroke-width="5" points="6.9,64.1 18.9,40.2 30.8,54.9 46.6,25.1 61.9,43.2 71.4,26.6 
		81.4,21.2 	"/>
	<g>
		<path fill="none" stroke="#3B3A58" stroke-width="2" d="M11.8,72.4c0,0,1.7-1.7,3.9-3.8s6.9-2.2,10.7-0.3
			c3.8,1.9,9.4-0.3,12.5-4.8l1.8-2.6c3.1-4.5,9.9-6.9,15.1-5.1c5.2,1.7,11.5-0.1,14.1-4.1c2.5-4,7.7-7.4,11.5-7.6
			c3.8-0.2,6.9-0.3,6.9-0.3"/>
	</g>
	<circle fill="#3B3A58" cx="75.4" cy="46.4" r="2"/>
	<circle fill="#3B3A58" cx="20.3" cy="67.2" r="2.3"/>
	<g>
		<line fill="none" stroke="#3B3A58" stroke-width="0.5" x1="6.6" y1="21.2" x2="82.5" y2="21.2"/>
		<line fill="none" stroke="#3B3A58" stroke-width="0.5" x1="6.6" y1="37.1" x2="82.5" y2="37.1"/>
		<line fill="none" stroke="#3B3A58" stroke-width="0.5" x1="6.6" y1="52.9" x2="82.5" y2="52.9"/>
		<line fill="none" stroke="#3B3A58" stroke-width="0.5" x1="6.6" y1="68.8" x2="82.5" y2="68.8"/>
	</g>
</g>
</svg>
