<?xml version="1.0" encoding="UTF-8" standalone="no"?>
<!-- Created with Inkscape (http://www.inkscape.org/) -->

<svg
   xmlns:dc="http://purl.org/dc/elements/1.1/"
   xmlns:cc="http://creativecommons.org/ns#"
   xmlns:rdf="http://www.w3.org/1999/02/22-rdf-syntax-ns#"
   xmlns:svg="http://www.w3.org/2000/svg"
   xmlns="http://www.w3.org/2000/svg"
   version="1.1"
   width="17.15"
   height="23.302999"
   viewBox="0 0 17.15 23.303"
   id="Capa_1"
   xml:space="preserve"><metadata
     id="metadata11"><rdf:RDF><cc:Work
         rdf:about=""><dc:format>image/svg+xml</dc:format><dc:type
           rdf:resource="http://purl.org/dc/dcmitype/StillImage" /><dc:title></dc:title></cc:Work></rdf:RDF></metadata><defs
     id="defs9" /><g
     id="g3"
     style="fill:#ffffff;fill-opacity:1;stroke:none"><path
       d="M 15.637,10.246 V 7.059 C 15.638,3.166 12.469,0 8.578,0 4.684,0 1.517,3.166 1.517,7.059 v 3.188 H 0 V 23.304 H 17.15 V 10.246 H 15.637 z M 4.176,7.059 c 0,-2.425 1.974,-4.396 4.401,-4.396 2.423,0 4.396,1.972 4.396,4.396 v 3.188 H 4.176 V 7.059 z M 9.79,19.724 H 7.367 L 7.73,16.145 C 7.282,15.866 6.98,15.368 6.98,14.797 c 0,-0.879 0.714,-1.593 1.598,-1.593 0.879,0 1.591,0.714 1.591,1.593 0,0.571 -0.297,1.068 -0.749,1.348 l 0.37,3.579 z"
       id="path5"
       style="fill:#ffffff;fill-opacity:1;stroke:none" /></g></svg>