<?xml version="1.0" encoding="UTF-8" standalone="no"?>
<svg
   xmlns:dc="http://purl.org/dc/elements/1.1/"
   xmlns:cc="http://creativecommons.org/ns#"
   xmlns:rdf="http://www.w3.org/1999/02/22-rdf-syntax-ns#"
   xmlns:svg="http://www.w3.org/2000/svg"
   xmlns="http://www.w3.org/2000/svg"
   xmlns:sodipodi="http://sodipodi.sourceforge.net/DTD/sodipodi-0.dtd"
   xmlns:inkscape="http://www.inkscape.org/namespaces/inkscape"
   enable-background="new 0 0 50 50"
   height="50px"
   id="Layer_1"
   version="1.1"
   viewBox="0 0 50 50"
   width="50px"
   xml:space="preserve"
   inkscape:version="0.48.4 r9939"
   sodipodi:docname="user-icon.svg"><metadata
     id="metadata13"><rdf:RDF><cc:Work
         rdf:about=""><dc:format>image/svg+xml</dc:format><dc:type
           rdf:resource="http://purl.org/dc/dcmitype/StillImage" /></cc:Work></rdf:RDF></metadata><defs
     id="defs11" /><sodipodi:namedview
     pagecolor="#ffffff"
     bordercolor="#666666"
     borderopacity="1"
     objecttolerance="10"
     gridtolerance="10"
     guidetolerance="10"
     inkscape:pageopacity="0"
     inkscape:pageshadow="2"
     inkscape:window-width="1315"
     inkscape:window-height="744"
     id="namedview9"
     showgrid="false"
     inkscape:zoom="11.43125"
     inkscape:cx="9.516129"
     inkscape:cy="25"
     inkscape:window-x="51"
     inkscape:window-y="24"
     inkscape:window-maximized="1"
     inkscape:current-layer="Layer_1" /><circle
     cx="25"
     cy="25"
     fill="none"
     r="24"
     stroke="#000000"
     stroke-linecap="round"
     stroke-miterlimit="10"
     stroke-width="2"
     id="circle3"
     style="fill:none;fill-opacity:1;stroke:#e98024;stroke-opacity:1" /><rect
     fill="none"
     height="50"
     width="50"
     id="rect5" /><path
     d="M29.933,35.528  c-0.146-1.612-0.09-2.737-0.09-4.21c0.73-0.383,2.038-2.825,2.259-4.888c0.574-0.047,1.479-0.607,1.744-2.818  c0.143-1.187-0.425-1.855-0.771-2.065c0.934-2.809,2.874-11.499-3.588-12.397c-0.665-1.168-2.368-1.759-4.581-1.759  c-8.854,0.163-9.922,6.686-7.981,14.156c-0.345,0.21-0.913,0.878-0.771,2.065c0.266,2.211,1.17,2.771,1.744,2.818  c0.22,2.062,1.58,4.505,2.312,4.888c0,1.473,0.055,2.598-0.091,4.21c-1.261,3.39-7.737,3.655-11.473,6.924  c3.906,3.933,10.236,6.746,16.916,6.746s14.532-5.274,15.839-6.713C37.688,39.186,31.197,38.93,29.933,35.528z"
     fill="none"
     stroke="#000000"
     stroke-linecap="round"
     stroke-miterlimit="10"
     stroke-width="2"
     id="path7"
     style="fill:none;fill-opacity:1;stroke:#e98024;stroke-opacity:1" /></svg>