<?xml version="1.0" encoding="utf-8"?>
<!DOCTYPE svg PUBLIC "-//W3C//DTD SVG 1.0//EN" "http://www.w3.org/TR/2001/REC-SVG-20010904/DTD/svg10.dtd">
<svg version="1.0" id="Layer_1" xmlns="http://www.w3.org/2000/svg" xmlns:xlink="http://www.w3.org/1999/xlink" x="0px" y="0px"
	 width="140px" height="140px" viewBox="0 0 140 140" enable-background="new 0 0 140 140" xml:space="preserve">
<g>
	<g>
		<g>
			<rect x="1" y="1" fill="#F3F3F3" width="138" height="138"/>
		</g>
		<g>
			<path fill="#CDCCCC" d="M138,2v136H2V2H138 M140,0H0v140h140V0L140,0z"/>
		</g>
	</g>
	<g>
		
			<g id="g3217_1_" transform="matrix(0.5335083,0,0,0.5335083,1.4730144,-35.635589)">
			
				<g id="path3219_1_">
				<g>
					<path fill="#FFFFFF" d="M154.631,278.926c-46.048,0-83.532-37.462-83.557-83.508c-0.016-22.428,8.663-43.417,24.435-59.211
						c15.772-15.792,36.752-24.498,59.072-24.513c46.098,0,83.582,37.462,83.612,83.509c0.016,22.429-8.662,43.417-24.435,59.211
						s-36.752,24.497-59.074,24.512H154.631z"/>
				</g>
				<g>
					<path fill="#2A3052" d="M154.633,109.821v3.749l0,0c45.015,0,81.658,36.622,81.686,81.634v0.111
						c0.015,21.82-8.468,42.338-23.887,57.777c-15.418,15.438-35.926,23.948-57.8,23.961c-45.015,0-81.658-36.622-81.682-81.633
						v-0.111c-0.016-21.819,8.468-42.338,23.887-57.776c15.419-15.439,35.927-23.949,57.774-23.963L154.633,109.821
						 M154.633,109.821c-0.018,0-0.037,0-0.053,0c-47.185,0.031-85.413,38.306-85.38,85.491c0,0.035,0,0.072,0,0.108
						c0.026,47.169,38.274,85.382,85.431,85.382c0.018,0,0.038,0,0.055,0c47.187-0.029,85.415-38.304,85.382-85.49
						c0-0.036,0-0.072,0-0.108C240.038,148.035,201.792,109.821,154.633,109.821L154.633,109.821z"/>
				</g>
			</g>
			<g>
				<g id="path3225_1_">
					<path fill="#2A3052" d="M114.108,120.942
						c6.493-5.65,15.312-7.16,23.516-8.244c4.521-2.423,8.96,0.939,11.186,2.314c1.979-4.108,8.654,1.742,8.003-4.206
						c3.687-1.158,5.722,5.739,9.667,2.053c4.485,4.307-7.186,5.634-4.942,8.762c6.725-0.754,10.139,5.096,15.579,7.165
						c-2.515-4.183-0.335-4.35-1.532-6.149c-2.413-3.618-5.74-5.824,1.371-4.123c8.157,4.551,4.578-1.796,14.461,6.078
						c2.936-0.418,4.086,2.32,4.005,3.983c-0.064,1.327-0.899,2.481-4.005,0.612c-4.183,2.981-4.318,5.193-0.813,1.621
						c3.443,0.033,3.498,6.764,7.56,2.981c-0.103,1.141-0.692,2.586-1.474,2.933c-1.027,0.458-2.387-0.356-3.401,0.008
						c-1.21,0.433-1.472,1.372-1.873,3.809c-2.812,0.69-3.987,2.202-3.893,4.22c0.145,3.236,2.341,7.332-2.775,8.09
						c-5.909,2.916,5.837,13.582,0.178,13.367c-3.538-3.583-4.479-9.092-10.706-7.768c-2.733-0.479-3.322,4.166-7.164,1.314
						c-7.884-0.472-9.767,9.545-6.454,14.834c2.147,6.89,10.889,2.63,12.037-1.994c10.554-1.662-4.248,13.08,7.155,10.912
						c7.417-0.509,0.805,12.761,10.254,11.024c5.579,0.68,11.492-11.112,16.685-3.49c2.945-0.739,6.308-1.712,8.938-0.59
						c3.048,1.295,5.317,4.879,7.977,6.558c8.772-0.692,1.926,11.118,10.474,10.353c8.964-0.939,2.519,8.85,1.984,13.54
						c-2.286,6.835-5.149,13.538-9.013,19.641c-7.04,3.313-10.022,11.51-15.676,16.489c-6.932,2.025-11.543,8.182-17.657,11.57
						c-3.425,3.121-10.415,8.493-13.695,7.39c3.165-5.764,7.102-10.463,10.911-15.941c2.949-6.659,13.177-15.535,8.647-22.416
						c-7.238-3.377-7.527-13.17-12.18-19.048c3.059-2.993-0.463-8.543,5.052-11.292c2.698-2.292,2.907-13.532-2.634-10.008
						c-7.953-1.78-11.481-10.797-19.798-11.344c-5.209-4.617-12.923-2.35-19.273-6.731c-6.097-2.704-5.524-11.401-11.221-15.013
						c-1.387-1.834-4.858-9.744-5.997-5.557c0.417,3.052,8.664,14.525,2.16,7.84c-4.382-6.068-6.63-13.332-10.542-19.731
						c-3.452-5.735,3.28-10.452,2.164-15.677c3.784-0.696-3.436-6.428-2.541-10.164c-2.762-3.879-3.264,0.387-6.652-0.65
						C117.903,123.142,115.631,121.928,114.108,120.942z"/>
				</g>
				<g id="path3227_1_">
					<path fill="#2A3052" d="M86.161,204.676c0.772,0.478,1.649,1.614,1.913,2.676c0.205,0.813,0.985,1.45,1.528,1.721
						c0.571,0.286,0.999,1.377,1.336,1.721c0.721,0.721,2.111-1.15,2.297-1.34c0.747-0.747,1.104-1.572,0.189-2.482
						c-0.582-0.586-1.226-0.655-1.719-1.148c-0.763-0.76,1.739-1.104,1.913-1.148c0.831-0.209,1.21-0.606,1.913-0.956
						c0.888-0.447,1.744-0.373,2.482-0.19c0.802,0.201,0.586,1.552,0.955,2.294c0.113,0.225,1.624,0.858,1.909,1.148
						c1.111,1.109,0.664-1.362,0.573-1.721c-0.154-0.626-0.644,0.018,0.957-0.384c0.791-0.196,1.426,0.714,1.913,0.957
						c0.534,0.267,0.65,1.843,0.765,2.294c0.207,0.835,1.333,1.193,1.909,1.336c0.632,0.159,1.333,0.765,2.103,0.956
						c0.833,0.212,1.607,0.928,2.486,1.15c1.032,0.258,1.668,0.258,2.674,0.763c0.877,0.441,1.102,0.514,2.103,0.763
						c0.972,0.245,1.329,1.135,1.722,1.911c0.454,0.912-0.569,1.898-0.767,2.295c-0.308,0.617,0.419,2.248,0.573,2.866
						c0.278,1.109,0.007,1.699-0.189,2.486c-0.212,0.848,0.005,2.123,0.189,2.867c0.168,0.666,1.06,1.058,1.527,1.53
						c0.873,0.871,0.207,1.711-0.573,2.101c-0.818,0.41-1.408,0.571-2.482,0.571c-0.89,0-1.765-0.534-2.676-0.761
						c-0.776-0.194-1.671-0.194-2.674-0.194c-1.014,0-1.675,0.311-2.68-0.189c-0.675-0.339-1.609-0.547-2.482-0.767
						c-0.955-0.236-1.362,0.216-1.913,0.767c-0.556,0.556-0.551,2.057-0.763,2.484c-0.399,0.796-1.117,0.644-1.338,1.53
						c-0.262,1.038,0.179,1.86,0.383,2.672c0.209,0.842-0.115,1.574-0.573,2.486c-0.544,1.091-0.61,1.223-1.53,1.913
						c-0.469,0.353-1.999,0.192-2.674,0.192c-0.632,0-1.565-0.88-2.103-1.15c-0.701-0.351-0.976-1.728-1.719-2.101
						c-0.692-0.346-1.42-0.996-2.103-1.34c-0.913-0.454-1.362-0.985-1.913-1.719c-0.588-0.785-0.921-1.193-1.146-2.103
						c-0.205-0.82-0.763-1.907-1.15-2.676c-0.505-1.014-0.723-1.571-0.955-2.482c-0.212-0.86-0.381-1.384-0.381-2.486
						c0-0.963-0.379-1.552-0.379-2.676c0-1.02,0.331-1.717,0.569-2.676c0.19-0.756,0.734-1.014,0.957-1.911
						c0.209-0.838,0.189-1.647,0.189-2.676c0-0.073-1.312-1.871-1.525-2.292c-0.361-0.721-0.19-1.819-0.19-2.676
						c0-0.787,0.725-1.646,0.952-2.103C86.809,206.25,86.305,205.035,86.161,204.676z"/>
				</g>
				<g id="path3231_1_">
					<path fill="#2A3052" d="M106.805,154.409c-0.485,0.933-0.45,1.785-1.719,2.104c-1.23,0.306-1.247,0.38-0.765,1.337
						c0.502,1.003-0.126,0.733-0.957,1.145c-0.467,0.234-1.02,1.212-1.336,1.53c-0.534,0.535-2.363-0.319-2.486-0.383
						c-0.267-0.134-0.535-2.138-0.573-2.293c-0.242-0.97-0.459-1.495-0.765-2.104c-0.394-0.787-1.005-0.476-0.384-1.719
						c0.342-0.677,0.692-1.569,0.957-2.102c0.157-0.313-1.369-1.89-1.53-2.103c-0.564-0.756-0.763-1.536-0.954-2.292
						c-0.201-0.801,1.483-0.992,2.1-1.15c0.75-0.187,1.182-1.176,1.53-1.528c0.692-0.689,2.147,0.404,2.868,0.765
						c0.747,0.372,0.009,1.734,0.383,2.484c0.426,0.849,0.573,1.495,0.573,2.485c0,0.707-0.968,1.205-1.146,1.912
						c-0.362,1.446,0.851,1.316,1.53,1.145c0.866-0.216,0.811-0.762,2.101-0.762C106.618,152.881,106.777,154.266,106.805,154.409z"
						/>
				</g>
				<g id="path3233_1_">
					<path fill="#2A3052" d="M117.35,190.002c-0.22,0-1.01-2.413,1.082-1.892C119.136,188.285,117.804,189.436,117.35,190.002z
						 M104.919,190.813c0.524-1.15,0.47-2.432,2.433-2.432c0.789,0,2.524,1.442,2.973,1.891c1.091,1.094,2.253,1.059,0,1.623
						c-1.378,0.343-1.397,1.08-3.245,1.08C106.061,192.975,105.64,191.534,104.919,190.813z M112.082,193.787
						c-0.179,0,0.113-3.201,0.403-3.785c0.648-1.29,1.23-2.04,1.893-2.702c0.954-0.955,0.361-2.524,0-3.244
						c-0.454-0.912,2.164,1.141,2.164,2.159c0,0.696-0.811,2.004-0.811,3.516c0,1.257-0.926,2.275-1.622,2.973
						c-1.073,1.075-0.242,2.164-2.164,2.164C111.386,194.868,110.116,193.787,112.082,193.787z M121.271,190.002
						c1.7,0.426,0.41-0.01,1.484-2.162c0.708-1.412,1.065-2.18,0-3.243c-0.93-0.934-1.567-0.813-3.242-0.813
						c-0.534,0-1.481,2.144-1.624,2.703C117.533,187.923,119.62,190.002,121.271,190.002z M118.161,184.057
						c-0.379,1.53-1.62-1.901-1.62-2.975c0-1.416,2.896,0.928,2.973,1.082C120.196,183.532,119.733,183.743,118.161,184.057z
						 M111,188.651c0.745,1.484,1.816-0.937,2.026-1.351c0.179-0.359-2.451-1.767-2.702-1.893c-2.103-1.052-1.463,1.398-1.082,2.162
						C109.442,187.969,110.367,188.651,111,188.651z M112.217,184.057c0.458,0.919-0.11-2.514,0.809-2.975
						c1.684-0.841,2.524-0.721,2.971,1.082C116.158,182.799,112.746,183.844,112.217,184.057z"/>
				</g>
			</g>
		</g>
		<g>
			<g>
				<rect x="18.996" y="70.223" fill="#E6E7E8" width="84.627" height="36.937"/>
			</g>
			<g>
				<path fill="#2A3052" d="M103.623,70.223v36.937l6.312,5.542h-97.25l6.312-5.542V70.223H103.623 M104.623,69.223h-1H18.996h-1v1
					v36.483l-5.971,5.244l-1.995,1.751h2.654h97.25h2.654l-1.994-1.751l-5.972-5.244V70.223V69.223L104.623,69.223z"/>
			</g>
			<g>
				<polygon fill="#E6E7E8" points="103.623,107.159 18.996,107.159 12.685,112.701 109.935,112.701 				"/>
			</g>
			<g>
				<path fill="#BCBEC0" d="M104.164,111.451H18.455l4.257-4.125h77.195L104.164,111.451L104.164,111.451z M19.689,110.951h83.24
					l-3.226-3.125h-76.79L19.689,110.951L19.689,110.951z"/>
			</g>
			<g>
				<polygon fill="#F1F2F2" points="28.212,71.158 19.932,79.438 19.932,107.159 103.623,107.159 103.623,71.158 				"/>
			</g>
			<g>
				<polygon fill="#6D6E71" points="99.415,76.1 73.699,76.1 73.699,75.1 99.415,75.1 99.415,76.1 				"/>
			</g>
			<g>
				<g>
					<path fill="#BCBEC0" d="M99.665,105.291H24.357V78.607h75.308V105.291L99.665,105.291z M24.857,104.791h74.308V79.107H24.857
						V104.791L24.857,104.791z"/>
				</g>
				<g>
					<polygon fill="#BCBEC0" points="44.377,105.041 43.877,105.041 43.877,78.857 44.377,78.857 44.377,105.041 					"/>
				</g>
				<g>
					<polygon fill="#BCBEC0" points="66.235,105.041 65.735,105.041 65.735,78.857 66.235,78.857 66.235,105.041 					"/>
				</g>
				<g>
					<polygon fill="#BCBEC0" points="85.054,105.041 84.554,105.041 84.554,78.857 85.054,78.857 85.054,105.041 					"/>
				</g>
				<g>
					<polygon fill="#BCBEC0" points="99.415,83.9 24.607,83.9 24.607,83.4 99.415,83.4 99.415,83.9 					"/>
				</g>
			</g>
			<g>
				<polygon fill="#FFFFFF" points="28.26,71.158 28.26,79.486 19.932,79.486 				"/>
			</g>
			<g>
				<polygon fill="#58595B" points="41.088,81.695 27.997,81.695 27.997,80.695 41.088,80.695 41.088,81.695 				"/>
			</g>
			<g>
				<polygon fill="#58595B" points="61.192,81.695 48.102,81.695 48.102,80.695 61.192,80.695 61.192,81.695 				"/>
			</g>
			<g>
				<polygon fill="#58595B" points="82.35,81.695 69.258,81.695 69.258,80.695 82.35,80.695 82.35,81.695 				"/>
			</g>
			<g>
				<polygon fill="#58595B" points="97.896,81.695 87.609,81.695 87.609,80.695 97.896,80.695 97.896,81.695 				"/>
			</g>
			<g>
				<g>
					<polygon fill="#939598" points="41.05,86.004 32.79,86.004 32.79,85.504 41.05,85.504 41.05,86.004 					"/>
				</g>
				<g>
					<polygon fill="#939598" points="41.05,88.654 32.79,88.654 32.79,88.154 41.05,88.154 41.05,88.654 					"/>
				</g>
				<g>
					<polygon fill="#939598" points="41.05,91.303 32.79,91.303 32.79,90.803 41.05,90.803 41.05,91.303 					"/>
				</g>
				<g>
					<polygon fill="#939598" points="41.05,93.953 32.79,93.953 32.79,93.453 41.05,93.453 41.05,93.953 					"/>
				</g>
				<g>
					<polygon fill="#939598" points="41.05,96.603 32.79,96.603 32.79,96.103 41.05,96.103 41.05,96.603 					"/>
				</g>
			</g>
			<g>
				<g>
					<polygon fill="#939598" points="60.999,86.004 52.739,86.004 52.739,85.504 60.999,85.504 60.999,86.004 					"/>
				</g>
				<g>
					<polygon fill="#939598" points="60.999,88.654 52.739,88.654 52.739,88.154 60.999,88.154 60.999,88.654 					"/>
				</g>
				<g>
					<polygon fill="#939598" points="60.999,91.303 52.739,91.303 52.739,90.803 60.999,90.803 60.999,91.303 					"/>
				</g>
				<g>
					<polygon fill="#939598" points="60.999,93.953 52.739,93.953 52.739,93.453 60.999,93.453 60.999,93.953 					"/>
				</g>
				<g>
					<polygon fill="#939598" points="60.999,96.603 52.739,96.603 52.739,96.103 60.999,96.103 60.999,96.603 					"/>
				</g>
			</g>
			<g>
				<g>
					<polygon fill="#939598" points="82.195,86.004 73.936,86.004 73.936,85.504 82.195,85.504 82.195,86.004 					"/>
				</g>
				<g>
					<polygon fill="#939598" points="82.195,88.654 73.936,88.654 73.936,88.154 82.195,88.154 82.195,88.654 					"/>
				</g>
				<g>
					<polygon fill="#939598" points="82.195,91.303 73.936,91.303 73.936,90.803 82.195,90.803 82.195,91.303 					"/>
				</g>
				<g>
					<polygon fill="#939598" points="82.195,93.953 73.936,93.953 73.936,93.453 82.195,93.453 82.195,93.953 					"/>
				</g>
				<g>
					<polygon fill="#939598" points="82.195,96.603 73.936,96.603 73.936,96.103 82.195,96.103 82.195,96.603 					"/>
				</g>
			</g>
			<g>
				<g>
					<polygon fill="#939598" points="97.701,86.004 89.442,86.004 89.442,85.504 97.701,85.504 97.701,86.004 					"/>
				</g>
				<g>
					<polygon fill="#939598" points="97.701,88.654 89.442,88.654 89.442,88.154 97.701,88.154 97.701,88.654 					"/>
				</g>
				<g>
					<polygon fill="#939598" points="97.701,91.303 89.442,91.303 89.442,90.803 97.701,90.803 97.701,91.303 					"/>
				</g>
				<g>
					<polygon fill="#939598" points="97.701,93.953 89.442,93.953 89.442,93.453 97.701,93.453 97.701,93.953 					"/>
				</g>
				<g>
					<polygon fill="#939598" points="97.701,96.603 89.442,96.603 89.442,96.103 97.701,96.103 97.701,96.603 					"/>
				</g>
			</g>
		</g>
		<g>
			<g>
				<g>
					<g>
						<polygon fill="#B2D6F1" points="70.489,116.861 59.334,106.342 118.529,106.342 129.686,116.861 						"/>
					</g>
					<g>
						<path fill="#2A3052" d="M118.431,106.467l10.938,10.27h-58.78l-10.938-10.27H118.431 M118.529,106.217H59.02l11.47,10.77H130
							L118.529,106.217L118.529,106.217z"/>
					</g>
				</g>
				<g>
					<g>
						<polygon fill="#B2D6F1" points="70.489,115.861 59.334,105.342 118.529,105.342 129.686,115.861 						"/>
					</g>
					<g>
						<path fill="#2A3052" d="M118.431,105.467l10.938,10.27h-58.78l-10.938-10.27H118.431 M118.529,105.217H59.02l11.47,10.77H130
							L118.529,105.217L118.529,105.217z"/>
					</g>
				</g>
				<g>
					<g>
						<polygon fill="#B2D6F1" points="70.489,114.861 59.334,104.342 118.529,104.342 129.686,114.861 						"/>
					</g>
					<g>
						<path fill="#2A3052" d="M118.431,104.467l10.938,10.27h-58.78l-10.938-10.27H118.431 M118.529,104.217H59.02l11.47,10.77H130
							L118.529,104.217L118.529,104.217z"/>
					</g>
				</g>
				<g>
					<g>
						<polygon fill="#B2D6F1" points="70.489,113.861 59.334,103.342 118.529,103.342 129.686,113.861 						"/>
					</g>
					<g>
						<path fill="#2A3052" d="M118.431,103.467l10.938,10.27h-58.78l-10.938-10.27H118.431 M118.529,103.217H59.02l11.47,10.77H130
							L118.529,103.217L118.529,103.217z"/>
					</g>
				</g>
				<g>
					<g>
						<polygon fill="#B2D6F1" points="70.489,112.861 59.334,102.342 118.529,102.342 129.686,112.861 						"/>
					</g>
					<g>
						<path fill="#2A3052" d="M118.431,102.467l10.938,10.27h-58.78l-10.938-10.27H118.431 M118.529,102.217H59.02l11.47,10.77H130
							L118.529,102.217L118.529,102.217z"/>
					</g>
				</g>
				<g>
					<g>
						<polygon fill="#B2D6F1" points="70.489,111.861 59.334,101.342 118.529,101.342 129.686,111.861 						"/>
					</g>
					<g>
						<path fill="#2A3052" d="M118.431,101.467l10.938,10.27h-58.78l-10.938-10.27H118.431 M118.529,101.217H59.02l11.47,10.77H130
							L118.529,101.217L118.529,101.217z"/>
					</g>
				</g>
				<g>
					<g>
						<polygon fill="#B2D6F1" points="70.489,110.861 59.334,100.342 118.529,100.342 129.686,110.861 						"/>
					</g>
					<g>
						<path fill="#2A3052" d="M118.431,100.467l10.938,10.27h-58.78l-10.938-10.27H118.431 M118.529,100.217H59.02l11.47,10.77H130
							L118.529,100.217L118.529,100.217z"/>
					</g>
				</g>
				<g>
					<g>
						<polygon fill="#B2D6F1" points="70.489,109.861 59.334,99.342 118.529,99.342 129.686,109.861 						"/>
					</g>
					<g>
						<path fill="#2A3052" d="M118.431,99.467l10.938,10.27h-58.78l-10.938-10.27H118.431 M118.529,99.217H59.02l11.47,10.77H130
							L118.529,99.217L118.529,99.217z"/>
					</g>
				</g>
			</g>
			<g>
				<g>
					<polygon fill="#2A3052" points="111.563,109.986 93.126,109.986 81.656,99.217 100.092,99.217 					"/>
				</g>
				<g>
					<rect x="93.126" y="109.986" fill="#2A3052" width="18.437" height="7.354"/>
				</g>
			</g>
			<g>
				<path fill="#8CC6EC" d="M75.309,101.197v0.25c0.527,0,1.068,0.036,1.61,0.107c3.313,0.437,5.936,2.148,5.726,3.738
					c-0.171,1.294-2.228,2.232-4.891,2.232c-0.527,0-1.068-0.036-1.61-0.107c-3.313-0.437-5.936-2.148-5.727-3.737
					c0.171-1.295,2.229-2.233,4.892-2.233V101.197 M75.309,101.197c-2.771,0-4.944,0.975-5.14,2.45
					c-0.231,1.757,2.429,3.556,5.942,4.019c0.563,0.074,1.113,0.109,1.643,0.109c2.771,0,4.943-0.975,5.139-2.449
					c0.231-1.758-2.43-3.557-5.941-4.02C76.388,101.232,75.838,101.197,75.309,101.197L75.309,101.197z"/>
			</g>
			<g>
				<path fill="#8CC6EC" d="M113.934,101.197v0.25c0.527,0,1.068,0.036,1.61,0.107c3.313,0.437,5.936,2.148,5.726,3.738
					c-0.171,1.294-2.228,2.232-4.891,2.232c-0.527,0-1.068-0.036-1.61-0.107c-3.313-0.437-5.937-2.148-5.727-3.737
					c0.171-1.295,2.229-2.233,4.892-2.233V101.197 M113.934,101.197c-2.771,0-4.944,0.975-5.14,2.45
					c-0.231,1.757,2.429,3.556,5.942,4.019c0.563,0.074,1.113,0.109,1.643,0.109c2.771,0,4.943-0.975,5.139-2.449
					c0.231-1.758-2.43-3.557-5.941-4.02C115.013,101.232,114.463,101.197,113.934,101.197L113.934,101.197z"/>
			</g>
		</g>
	</g>
</g>
</svg>
