<?xml version="1.0" encoding="utf-8"?>
<!DOCTYPE svg PUBLIC "-//W3C//DTD SVG 1.1//EN" "http://www.w3.org/Graphics/SVG/1.1/DTD/svg11.dtd">
<svg version="1.1" xmlns="http://www.w3.org/2000/svg" viewBox="0 0 454 184" xml:space="preserve">
<g>
	<g>
		<g>
			<rect x="70.423" y="75.306" fill="#FFFEF4" stroke="#818181" stroke-width="0.5" width="115.166" height="21.5"/>
			<text transform="matrix(1 0 0 1 80.6719 91.1387)" fill="#1A1A1A" font-family="Arial" font-size="14">USD/JPY</text>
			<polygon fill="#E98025" points="170.882,84.875 175.342,89.334 179.8,84.875 			"/>
		</g>
		<text transform="matrix(1 0 0 1 70.4238 66.3252)" fill="#1A1A1A" font-family="Arial" font-size="14">Market:</text>
		<g>
			<rect x="226.26" y="75.306" fill="#FFFEF4" stroke="#818181" stroke-width="0.5" width="115.166" height="21.5"/>
			<text transform="matrix(1 0 0 1 236.5098 91.1387)" fill="#1A1A1A" font-family="Arial" font-size="14">78.355</text>
		</g>
		<text transform="matrix(1 0 0 1 226.2598 66.3252)" fill="#1A1A1A" font-family="Arial" font-size="14">Barrier:</text>
		<g>
			<g>
				<path fill="#F3F3F3" d="M45.686,35.125V6.678c0-1.954,1.599-3.553,3.553-3.553h89.894c1.954,0,3.553,1.599,3.553,3.553v28.447"
					/>
			</g>
			<g>
				<text transform="matrix(1 0 0 1 66.5361 23.8174)" fill="#1A1A1A" font-family="Arial" font-size="14">Rise/Fall</text>
			</g>
		</g>
		<g>
			<g>
				<path fill="#242C61" d="M144.771,35.125V6.678c0-1.954,1.599-3.553,3.553-3.553h122.894c1.954,0,3.553,1.599,3.553,3.553v28.447
					"/>
			</g>
			<g>
				<text transform="matrix(1 0 0 1 163.6431 24.542)" fill="#FFFFFF" font-family="Arial" font-weight="bold" font-size="14">Single barrier</text>
			</g>
		</g>
		<g>
			<g>
				<path fill="#F3F3F3" d="M276.855,35.125V6.678c0-1.954,1.599-3.553,3.553-3.553h112.895c1.954,0,3.553,1.599,3.553,3.553v28.447
					"/>
			</g>
			<g>
				<text transform="matrix(1 0 0 1 291.4932 24.542)" fill="#1A1A1A" font-family="Arial" font-size="14">Double barrier</text>
			</g>
		</g>
		<rect x="45.686" y="34.573" fill="none" stroke="#818181" stroke-width="0.5" width="361.217" height="149.427"/>
		<g>
			<rect x="70.423" y="139.306" fill="#FFFEF4" stroke="#818181" stroke-width="0.5" width="54.916" height="21.5"/>
			<text transform="matrix(1 0 0 1 81.6729 155.1387)" fill="#1A1A1A" font-family="Arial" font-size="14">7</text>
			<g>
				<rect x="130.669" y="139.306" fill="none" stroke="#818181" stroke-width="0.5" width="55.92" height="21.5"/>
				<text transform="matrix(1 0 0 1 135.9199 155.1387)" fill="#1A1A1A" font-family="Arial" font-size="14">Days</text>
				<polygon fill="#E98025" points="171.884,148.874 176.343,153.333 180.802,148.874 				"/>
			</g>
		</g>
		<text transform="matrix(1 0 0 1 70.4229 130.3252)" fill="#1A1A1A" font-family="Arial" font-size="14">Duration:</text>
		<text transform="matrix(1 0 0 1 226.2607 130.3252)" fill="#1A1A1A" font-family="Arial" font-size="14">Payout:</text>
		<g>
			<rect x="226.26" y="139.306" fill="none" stroke="#818181" stroke-width="0.5" width="63.583" height="21.5"/>
			<text transform="matrix(1 0 0 1 237.5078 155.1387)" fill="#1A1A1A" font-family="Arial" font-size="14">USD</text>
			<polygon fill="#E98025" points="276.137,148.876 280.596,153.333 285.054,148.876 			"/>
			<g>
				<rect x="295.259" y="139.306" fill="#FFFEF4" stroke="#818181" stroke-width="0.5" width="50.478" height="21.5"/>
				<text transform="matrix(1 0 0 1 306.7598 155.1387)" fill="#1A1A1A" font-family="Arial" font-size="14">100</text>
			</g>
		</g>
	</g>
	<g>
		<line fill="none" stroke="#1A1A1A" x1="32.736" y1="61.675" x2="61.736" y2="61.675"/>
		<g>
			<rect x="0.236" y="42.675" opacity="0.92" fill="#FEFDEB" stroke="#1A1A1A" stroke-width="0.25" width="33" height="38"/>
			<g>
				<text transform="matrix(1 0 0 1 11.2397 68.2305)" fill="#E98025" font-family="Arial" font-weight="bold" font-size="20">1</text>
			</g>
		</g>
	</g>
	<g>
		<line fill="none" stroke="#1A1A1A" x1="32.736" y1="126.499" x2="61.736" y2="126.499"/>
		<g>
			<rect x="0.236" y="107.499" opacity="0.92" fill="#FEFDEB" stroke="#1A1A1A" stroke-width="0.25" width="33" height="38"/>
			<g>
				<text transform="matrix(1 0 0 1 11.2397 133.0547)" fill="#E98025" font-family="Arial" font-weight="bold" font-size="20">2</text>
			</g>
		</g>
	</g>
	<g>
		<line fill="none" stroke="#1A1A1A" x1="356.736" y1="151.116" x2="421.153" y2="151.116"/>
	</g>
	<g>
		<rect x="420.764" y="132.116" opacity="0.92" fill="#FEFDEB" stroke="#1A1A1A" stroke-width="0.25" width="33" height="38"/>
		<g>
			<text transform="matrix(1 0 0 1 431.7676 157.6719)" fill="#E98025" font-family="Arial" font-weight="bold" font-size="20">4</text>
		</g>
	</g>
	<g>
		<line fill="none" stroke="#1A1A1A" x1="401.236" y1="19" x2="421.153" y2="19"/>
	</g>
	<g>
		<rect x="420.764" opacity="0.92" fill="#FEFDEB" stroke="#1A1A1A" stroke-width="0.25" width="33" height="38"/>
		<g>
			<text transform="matrix(1 0 0 1 431.7676 25.5547)" fill="#E98025" font-family="Arial" font-weight="bold" font-size="20">3</text>
		</g>
	</g>
</g>
</svg>
