<svg xmlns="http://www.w3.org/2000/svg" viewBox="0 -185.912 395 174"><path fill="#fff" d="M0-185.911h394.998v174h-394.998z"/><path fill="#818181" d="M0-185.911h395v1h-395v-1M0-12.912h395v1h-395v-1M0-185.911h1v174h-1v-174M394-185.911h1v174h-1v-174"/><text transform="translate(72.999 -156.91)" fill="#010101" font-family="Arial" font-weight="bold" font-size="18">Goes Outside</text><text transform="translate(51.499 -121.91)" fill="#010101" font-family="Arial" font-weight="bold" font-size="16">GBP</text><text transform="translate(90.499 -121.91)" fill="#010101" font-family="Arial" font-weight="bold" font-size="22">8</text><text transform="translate(102.499 -130.91)" fill="#010101" font-family="Arial" font-weight="bold" font-size="14">.16</text><path fill="#2F8942" d="M34-113.912h98c2.209 0 4 1.791 4 4v26c0 2.207-1.791 4-4 4h-98c-2.207 0-4-1.793-4-4v-26c0-2.209 1.792-4 4-4"/><text transform="translate(44.999 -91.91)" fill="#fff" font-family="Arial" font-weight="bold" font-size="14">PURCHASE</text><path fill="#E4E4E4" d="M1-34.912h393v22h-393v-22"/><text transform="translate(97.499 -18.91)" fill="#676767" font-family="Arial" font-size="13">Net profit: GBP 1.84 | Return: 23%</text><path fill="none" d="M176-140.73h209v62h-209z"/><text transform="translate(176 -130.678)" font-family="Arial" font-size="14">GBP</text><text transform="translate(209.455 -130.678)" font-family="Arial" font-weight="bold" font-size="14">10</text><text transform="translate(225.026 -130.678)" font-family="Arial" font-size="14">payout if AUD/JPY</text><text transform="translate(348.744 -130.678)" font-family="Arial" font-weight="bold" font-size="14">goes</text><text transform="translate(176 -116.678)" font-family="Arial" font-weight="bold" font-size="14">outside 91.783</text><text transform="translate(272.488 -116.678)" font-family="Arial" font-size="14">to</text><text transform="translate(291.943 -116.678)" font-family="Arial" font-weight="bold" font-size="14">94.095</text><text transform="translate(334.765 -116.678)" font-family="Arial" font-size="14">before</text><text transform="translate(176 -102.678)" font-family="Arial" font-size="14">close (23.59.59)</text><text transform="translate(176 -88.678)" font-family="Arial" font-size="14">on 31-Mar-14.</text><g fill="#29ABE2"><path d="M18.999-179.911v11.213h9.322l1.527-2.762 1.457 2.762h11.651l3.362-6.04-4.193 1.334 1.559-3.013 5.979-1.904 1.944 6.115-1.558 3.012-1.481-4.651-2.864 5.147h9.295v-11.213zM42.622-168.097h-11l5.355 10.143zM29.799-166.411l-3.994 7.226h-5.207v-2.4h3.793l3.598-6.512h-8.99v13.05h16.796zM36.92-152.917l-.809-1.531h-17.112v10.537h36v-10.537h-17.228zM38.105-155.047h16.894v-13.05h-9.629z"/></g></svg>