<?xml version="1.0" encoding="utf-8"?>
<!-- Generator: Adobe Illustrator 14.0.0, SVG Export Plug-In . SVG Version: 6.00 Build 43363)  -->
<!DOCTYPE svg PUBLIC "-//W3C//DTD SVG 1.1//EN" "http://www.w3.org/Graphics/SVG/1.1/DTD/svg11.dtd">
<svg version="1.1" id="Layer_1" xmlns="http://www.w3.org/2000/svg" xmlns:xlink="http://www.w3.org/1999/xlink" x="0px" y="0px"
	 width="139px" height="115px" viewBox="0 0 139 115" enable-background="new 0 0 139 115" xml:space="preserve">
<g>
	<g>
		<g>
			<path fill="#222F61" d="M70.373,2.124c30.535,0,55.377,24.842,55.377,55.376c0,30.536-24.842,55.377-55.377,55.377
				c-30.534,0-55.375-24.842-55.375-55.377C14.998,26.965,39.839,2.124,70.373,2.124 M70.373,0.124
				c-31.687,0-57.375,25.688-57.375,57.376c0,31.688,25.688,57.377,57.375,57.377c31.689,0,57.377-25.689,57.377-57.377
				C127.75,25.812,102.063,0.124,70.373,0.124L70.373,0.124z"/>
		</g>
		<g>
			<path fill="#222F61" d="M70.373,2.124c24.982,0,45.307,24.842,45.307,55.376c0,30.536-20.324,55.377-45.307,55.377
				c-24.981,0-45.304-24.842-45.304-55.377C25.069,26.965,45.392,2.124,70.373,2.124 M70.373,0.124
				c-26.125,0-47.304,25.688-47.304,57.376c0,31.688,21.179,57.377,47.304,57.377c26.127,0,47.307-25.689,47.307-57.377
				C117.68,25.812,96.5,0.124,70.373,0.124L70.373,0.124z"/>
		</g>
		<g>
			<path fill="#222F61" d="M70.373,2.124c19.429,0,35.234,24.842,35.234,55.376c0,30.536-15.806,55.377-35.234,55.377
				c-19.428,0-35.233-24.842-35.233-55.377C35.14,26.965,50.945,2.124,70.373,2.124 M70.373,0.124
				C49.81,0.124,33.14,25.812,33.14,57.5c0,31.688,16.67,57.377,37.233,57.377c20.564,0,37.234-25.689,37.234-57.377
				C107.607,25.812,90.938,0.124,70.373,0.124L70.373,0.124z"/>
		</g>
		<g>
			<path fill="#222F61" d="M70.373,2.124c5.333,0,10.715,5.672,14.767,15.563c4.342,10.602,6.733,24.741,6.733,39.813
				s-2.392,29.211-6.733,39.814c-4.052,9.891-9.434,15.563-14.767,15.563s-10.715-5.673-14.766-15.563
				c-4.342-10.603-6.734-24.742-6.734-39.814s2.392-29.21,6.734-39.813C59.658,7.796,65.04,2.124,70.373,2.124 M70.373,0.124
				c-12.978,0-23.5,25.688-23.5,57.376c0,31.688,10.521,57.377,23.5,57.377c12.979,0,23.5-25.689,23.5-57.377
				C93.873,25.812,83.352,0.124,70.373,0.124L70.373,0.124z"/>
		</g>
		<g>
			<path fill="#222F61" d="M70.373,2.124c1.478,0,4.729,3.214,7.549,15.261c2.503,10.692,3.881,24.938,3.881,40.115
				s-1.378,29.424-3.881,40.116c-2.819,12.048-6.071,15.262-7.549,15.262c-1.477,0-4.728-3.214-7.547-15.262
				c-2.502-10.692-3.88-24.938-3.88-40.116c0-15.177,1.378-29.423,3.88-40.115C65.645,5.338,68.896,2.124,70.373,2.124
				 M70.373,0.124c-7.416,0-13.427,25.688-13.427,57.376c0,31.688,6.012,57.377,13.427,57.377c7.418,0,13.43-25.689,13.43-57.377
				C83.803,25.812,77.791,0.124,70.373,0.124L70.373,0.124z"/>
		</g>
		<line fill="none" stroke="#222F61" stroke-width="2" x1="70.373" y1="0.124" x2="70.373" y2="114.877"/>
	</g>
	<g>
		<g>
			<path fill="#222F61" d="M70.373,2.124c30.535,0,55.377,24.842,55.377,55.376c0,30.536-24.842,55.377-55.377,55.377
				c-30.534,0-55.375-24.842-55.375-55.377C14.998,26.965,39.839,2.124,70.373,2.124 M70.373,0.124
				c-31.687,0-57.375,25.688-57.375,57.376c0,31.69,25.688,57.377,57.375,57.377c31.689,0,57.377-25.688,57.377-57.377
				C127.75,25.812,102.063,0.124,70.373,0.124L70.373,0.124z"/>
		</g>
		<g>
			<path fill="#222F61" d="M70.373,12.195c30.535,0,55.377,20.324,55.377,45.305s-24.842,45.305-55.377,45.305
				c-30.534,0-55.375-20.324-55.375-45.305S39.839,12.195,70.373,12.195 M70.373,10.195c-31.687,0-57.375,21.179-57.375,47.305
				c0,26.127,25.688,47.305,57.375,47.305c31.689,0,57.377-21.178,57.377-47.305C127.75,31.374,102.063,10.195,70.373,10.195
				L70.373,10.195z"/>
		</g>
		<g>
			<path fill="#222F61" d="M70.373,22.266c30.535,0,55.377,15.806,55.377,35.233c0,19.428-24.842,35.235-55.377,35.235
				c-30.534,0-55.375-15.807-55.375-35.235C14.998,38.072,39.839,22.266,70.373,22.266 M70.373,20.266
				c-31.687,0-57.375,16.67-57.375,37.233c0,20.565,25.688,37.235,57.375,37.235c31.689,0,57.377-16.67,57.377-37.235
				C127.75,36.937,102.063,20.266,70.373,20.266L70.373,20.266z"/>
		</g>
		<g>
			<path fill="#222F61" d="M70.373,36c15.072,0,29.212,2.392,39.814,6.734c9.89,4.051,15.563,9.433,15.563,14.766
				c0,5.333-5.673,10.715-15.563,14.767C99.585,76.608,85.445,79,70.373,79c-15.071,0-29.21-2.392-39.813-6.733
				C20.67,68.215,14.998,62.833,14.998,57.5c0-5.333,5.672-10.715,15.563-14.766C41.163,38.392,55.302,36,70.373,36 M70.373,34
				c-31.687,0-57.375,10.521-57.375,23.5c0,12.979,25.688,23.5,57.375,23.5c31.689,0,57.377-10.521,57.377-23.5
				C127.75,44.521,102.063,34,70.373,34L70.373,34z"/>
		</g>
		<g>
			<path fill="#222F61" d="M70.373,46.071c15.177,0,29.424,1.378,40.116,3.881c12.047,2.819,15.261,6.071,15.261,7.548
				s-3.214,4.729-15.261,7.549C99.797,67.552,85.55,68.93,70.373,68.93c-15.176,0-29.422-1.378-40.115-3.881
				c-12.046-2.82-15.261-6.072-15.261-7.549c0-1.477,3.214-4.729,15.261-7.548C40.951,47.449,55.197,46.071,70.373,46.071
				 M70.373,44.071c-31.687,0-57.375,6.013-57.375,13.429c0,7.417,25.688,13.43,57.375,13.43c31.689,0,57.377-6.014,57.377-13.43
				C127.75,50.083,102.063,44.071,70.373,44.071L70.373,44.071z"/>
		</g>
		<line fill="none" stroke="#222F61" stroke-width="2" x1="127.75" y1="57.5" x2="12.998" y2="57.5"/>
	</g>
	<g>
		<polygon fill="#FFFFFF" points="126.225,30.94 85.719,30.94 85.719,20.427 126.225,20.427 126.225,14.502 137.406,25.684 
			126.225,36.865 		"/>
		<path fill="#E98025" d="M127.225,16.917l8.768,8.767l-8.768,8.767V31.94v-2h-2H86.719v-8.513h38.506h2v-2V16.917 M125.225,12.088
			v7.339H84.719V31.94h40.506v7.339l13.596-13.595L125.225,12.088L125.225,12.088z"/>
	</g>
	<g>
		<polygon fill="#FFFFFF" points="1.593,82.145 12.775,70.963 12.775,76.889 53.282,76.889 53.282,87.4 12.775,87.4 12.775,93.326 
					"/>
		<path fill="#E98025" d="M11.775,73.377v2.512v2h2h38.507V86.4H13.775h-2v2v2.512l-8.767-8.768L11.775,73.377 M13.775,68.549
			L0.179,82.145L13.775,95.74V88.4h40.507V75.889H13.775V68.549L13.775,68.549z"/>
	</g>
</g>
</svg>
