<svg xmlns="http://www.w3.org/2000/svg" width="940" height="450"><defs><clipPath id="c"><path fill="none" d="M0 0h920v318H0z"/></clipPath><linearGradient x2="0" y2="1" id="a"><stop offset="0" stop-color="#EEE"/><stop offset="1" stop-color="#FFF"/></linearGradient><linearGradient x2="0" y2="1" id="b"><stop offset="0" stop-color="#FFF"/><stop offset="1" stop-color="#CCC"/></linearGradient></defs><rect rx="5" ry="5" fill="#fff" width="940" height="450"/><g class="highcharts-scrollbar" transform="translate(10 422)"><rect fill="url(#a)" y="-.5" width="920" height="14" stroke="#CCC" rx="0" ry="0"/><rect fill="url(#b)" x="178.5" y="-.5" width="589" height="14" stroke="#666" rx="2" ry="2"/><path fill="none" stroke="#666" d="M469.5 3.5v5.833m3-5.833v5.833m3-5.833v5.833"/><rect rx="2" ry="2" fill="url(#b)" x="-.5" y="-.5" width="14" height="14" stroke="#666"/><path fill="#666" d="M8 4v6L5 7"/><g transform="translate(906)"><rect rx="2" ry="2" fill="url(#b)" x="-.5" y="-.5" width="14" height="14" stroke="#666"/><path fill="#666" d="M6 4v6l3-3"/></g></g><g class="highcharts-button" stroke-linecap="round" transform="translate(906 10)" cursor="default"><title>Chart context menu</title><rect rx="2" ry="2" fill="#fff" x=".5" y=".5" width="24" height="22"/><path fill="#E0E0E0" d="M6 6.5h14m-14 5h14m-14 5h14" stroke="#666" stroke-width="3"/></g><path d="M10 305.5h920m-920 53h920m-920-106h920m-920-53h920m-920-53h920m-920-53h920m-920-54h920M272.5 381v40m202-40v40m201-40v40m202-40v40m-806-40v40" class="highcharts-grid" fill="none" stroke="#C0C0C0"/><path d="M663.5 358v5m-104-5v5m-104-5v5m-104-5v5m-104-5v5m-207-5v5m104-5v5m623-5v5m104-5v5M10 358.5h920" class="highcharts-axis" fill="none" stroke="#C0D0E0"/><path fill="none" d="M32.5 40v318" stroke="#C0C0C0" visibility="hidden"/><g class="highcharts-series-group"><g class="highcharts-series highcharts-tracker" transform="translate(10 40)" clip-path="url(#c)" stroke="#000"><path fill="#008000" d="M-.5 260.5v-23h4v23h-4m2-23V236m0 24.5v.5zm6-23h4-4m2 0V228m0 9.5v7.5zm5 0v-17h4v17h-4m2-17V214m0 23.5v8.5z"/><path fill="#f00" d="M21.5 228.5v-8h4v8h-4m2-8V217m0 11.5v7.5z"/><path fill="#008000" d="M29.5 228.5v-1h4v1h-4m2-1V222m0 6.5V244z"/><path fill="#f00" d="M36.5 240.5v-13h4v13h-4m2-13V216m0 24.5v2.5zm6 7v-7h4v7h-4m2 0V260zm5 14v-14h4v14h-4m2-14V246m0 15.5v1.5z"/><path fill="#008000" d="M58.5 261.5v-33h4v33h-4m2-33V217m0 44.5v3.5zm6-32v-17h4v17h-4m2-17V210m0 19.5v1.5z"/><path fill="#f00" d="M73.5 231.5v-19h4v19h-4m2-19V205m0 26.5v7.5zm6 10v-10h4v10h-4m2-10V221m0 20.5v.5z"/><path fill="#008000" d="M88.5 241.5v-15h4v15h-4m2-15V212m0 29.5v6.5zm6-15v-8h4v8h-4m2 0V240zm5-7v-19h4v19h-4m2-19V194m0 25.5v5.5zm5-19v-22h4v22h-4m2-22V174m0 26.5v2.5z"/><path fill="#f00" d="M118.5 180.5v-2h4v2h-4m2-2V158m0 22.5v.5zm5 17v-16h4v16h-4m2-16V173m0 24.5v2.5z"/><path fill="#008000" d="M133.5 197.5v-10h4v10h-4m2-10V186m0 11.5V213zm5-10v-8h4v8h-4m2-8V163m0 24.5V199zm5-8h4-4m2 0V164m0 15.5v9.5z"/><path fill="#f00" d="M155.5 200.5v-21h4v21h-4m2-21V178m0 22.5z"/><path fill="#008000" d="M162.5 200.5v-16h4v16h-4m2-16V169m0 31.5v-.5z"/><path fill="#f00" d="M170.5 192.5v-8h4v8h-4m2-8V170m0 22.5v3.5z"/><path fill="#008000" d="M177.5 192.5v-21h4v21h-4m2-21V170m0 22.5V213z"/><path fill="#f00" d="M185.5 174.5v-3h4v3h-4m2-3V168m0 6.5V190z"/><path fill="#008000" d="M192.5 174.5v-22h4v22h-4m2 0V185z"/><path fill="#f00" d="M199.5 167.5v-15h4v15h-4m2-15V148m0 19.5v2.5z"/><path fill="#008000" d="M207.5 167.5v-11h4v11h-4m2-11V149m0 18.5V186zm5-11v-19h4v19h-4m2 0v9.5zm6-19v-4h4v4h-4m2-4V130m0 7.5V148zm5-3v-7h4v7h-4m2-7V122m0 12.5v1.5zm5-7v-4h4v4h-4m2-4V113m0 14.5V140z"/><path fill="#f00" d="M244.5 133.5v-10h4v10h-4m2-10V119m0 14.5v8.5z"/><path fill="#008000" d="M251.5 133.5v-19h4v19h-4m2-19V112m0 21.5V157z"/><path fill="#f00" d="M259.5 128.5v-14h4v14h-4m2-14V108m0 20.5V140z"/><path fill="#008000" d="M266.5 128.5v-9h4v9h-4m2-9V111m0 17.5V140z"/><path fill="#f00" d="M274.5 127.5v-8h4v8h-4m2-8V114m0 13.5V140z"/><path fill="#008000" d="M281.5 127.5v-18h4v18h-4m2-18V101m0 26.5V141zm5-18v-34h4v34h-4m2-34V74m0 35.5v-.5zm6-34v-10h4v10h-4m2-10V60m0 15.5V89zm5-10v-13h4v13h-4m2-13V50m0 15.5V84z"/><path fill="#f00" d="M311.5 87.5v-35h4v35h-4m2-35V51m0 36.5V100z"/><path fill="#008000" d="M318.5 87.5v-11h4v11h-4m2-11V65m0 22.5V87z"/><path fill="#f00" d="M325.5 88.5v-12h4v12h-4m2-12V60m0 28.5V91z"/><path fill="#008000" d="M333.5 88.5v-4h4v4h-4m2-4V80m0 8.5V103zm5-4v-13h4v13h-4m2-13V64m0 20.5V96z"/><path fill="#f00" d="M348.5 83.5v-12h4v12h-4m2 0V100zm5 39v-39h4v39h-4m2-39V70m0 52.5v1.5zm6 0h4-4m2 0V118m0 4.5v8.5zm5 21v-21h4v21h-4m2 0V169z"/><path fill="#008000" d="M377.5 143.5v-3h4v3h-4m2-3V134m0 9.5V154zm6-4v-4h4v4h-4m2-4V122m0 17.5v5.5zm5-4v-13h4v13h-4m2-13V119m0 16.5v6.5zm6-13v-44h4v44h-4m2-44V69m0 53.5v8.5z"/><path fill="#f00" d="M407.5 84.5v-6h4v6h-4m2-6V68m0 16.5V89z"/><path fill="#008000" d="M415.5 84.5h4-4m2 0V78m0 6.5V109z"/><path fill="#f00" d="M422.5 98.5v-14h4v14h-4m2-14V76m0 22.5v2.5z"/><path fill="#008000" d="M429.5 98.5v-9h4v9h-4m2-9V76m0 22.5V111z"/><path fill="#f00" d="M437.5 142.5v-53h4v53h-4m2-53V85m0 57.5v.5zm5 9v-9h4v9h-4m2-9V141m0 10.5V172z"/><path fill="#008000" d="M452.5 150.5v-1h4v1h-4m2-1V141m0 9.5V165z"/><path fill="#f00" d="M459.5 170.5v-21h4v21h-4m2-21V133m0 37.5v5.5z"/><path fill="#008000" d="M466.5 170.5v-21h4v21h-4m2-21V136m0 34.5v-.5z"/><path fill="#f00" d="M474.5 157.5v-8h4v8h-4m2-8V143m0 14.5v6.5z"/><path fill="#008000" d="M481.5 157.5v-16h4v16h-4m2-16V139m0 18.5v3.5zm6-16v-15h4v15h-4m2-15V105m0 36.5v7.5zm5-15v-18h4v18h-4m2-18V100m0 26.5v.5zm6-18v-1h4v1h-4m2-1V89m0 19.5v4.5z"/><path fill="#f00" d="M511.5 119.5v-12h4v12h-4m2-12V99m0 20.5v2.5z"/><path fill="#008000" d="M518.5 119.5v-42h4v42h-4m2-42V76m0 43.5v5.5zm6-42v-13h4v13h-4m2-13V62m0 15.5V84z"/><path fill="#f00" d="M533.5 99.5v-36h4v36h-4m2-36V62m0 37.5v4.5zm6 22v-22h4v22h-4m2-22V98m0 23.5v1.5z"/><path fill="#008000" d="M548.5 121.5v-5h4v5h-4m2-5V107m0 14.5V133zm5-5v-36h4v36h-4m2-36V75m0 41.5V131zm6-37v-4h4v4h-4m2-4V27m0 52.5V84z"/><path fill="#f00" d="M570.5 110.5v-34h4v34h-4m2-34V68m0 42.5v.5zm6 55v-55h4v55h-4m2-55V101m0 64.5v8.5z"/><path fill="#008000" d="M585.5 165.5v-30h4v30h-4m2-30V130m0 35.5v.5zm6-30v-11h4v11h-4m2-11V109m0 26.5V148zm5-12v-19h4v19h-4m2-19V95m0 28.5v5.5zm5-20v-29h4v29h-4m2-29V53m0 50.5V114zm6-29v-21h4v21h-4m2-21V45m0 29.5V74z"/><path fill="#f00" d="M622.5 75.5v-22h4v22h-4m2-22V43m0 32.5v.5z"/><path fill="#008000" d="M630.5 75.5v-9h4v9h-4m2-9V61m0 14.5V101zm5-9v-3h4v3h-4m2-3V49m0 17.5V81zm5-3v-20h4v20h-4m2-20V35m0 28.5V63z"/><path fill="#f00" d="M652.5 69.5v-26h4v26h-4m2-26V41m0 28.5V74zm5 26v-26h4v26h-4m2-26V64m0 31.5V97zm6 37v-37h4v37h-4m2-37V92m0 40.5v9.5zm5 10v-9h4v9h-4m2-9V130m0 12.5v8.5z"/><path fill="#008000" d="M682.5 142.5v-3h4v3h-4m2-3V120m0 22.5v3.5zm5-3v-3h4v3h-4m2-3V121m0 18.5v5.5zm5-3v-11h4v11h-4m2-11V115m0 21.5v.5z"/><path fill="#f00" d="M704.5 143.5v-18h4v18h-4m2-18V120m0 23.5V156zm5 7v-7h4v7h-4m2-7V133m0 17.5v1.5zm6 3v-3h4v3h-4m2-3V142m0 11.5v4.5z"/><path fill="#008000" d="M726.5 153.5v-41h4v41h-4m2-41V111m0 42.5v2.5z"/><path fill="#f00" d="M733.5 126.5v-14h4v14h-4m2-14V105m0 21.5v7.5zm6 3v-3h4v3h-4m2-3V108m0 21.5V142zm5 9v-10h4v10h-4m2-10V109m0 29.5v-.5z"/><path fill="#008000" d="M756.5 137.5v-3h4v3h-4m2-3V119m0 18.5V152zm5-2v-4h4v4h-4m2-4V129m0 6.5V150zm6-4v-14h4v14h-4m2-14V98m0 33.5v.5z"/><path fill="#f00" d="M778.5 118.5v-1h4v1h-4m2-1V114m0 4.5V142zm5 61v-60h4v60h-4m2-60V118m0 61.5v1.5z"/><path fill="#008000" d="M793.5 179.5v-16h4v16h-4m2-16V159m0 20.5V192z"/><path fill="#f00" d="M800.5 181.5v-18h4v18h-4m2-18V137m0 44.5v7.5z"/><path fill="#008000" d="M808.5 181.5v-16h4v16h-4m2-16V163m0 18.5v3.5zm5-17v-15h4v15h-4m2-15V139m0 25.5V175z"/><path fill="#f00" d="M822.5 169.5v-20h4v20h-4m2-20V140m0 29.5v6.5z"/><path fill="#008000" d="M830.5 170.5v-10h4v10h-4m2-10V144m0 26.5v1.5z"/><path fill="#f00" d="M837.5 176.5v-16h4v16h-4m2-16V158m0 18.5v3.5z"/><path fill="#008000" d="M845.5 176.5v-15h4v15h-4m2-15V157m0 19.5v7.5z"/><path fill="#f00" d="M852.5 192.5v-31h4v31h-4m2-31V155m0 37.5v.5z"/><path fill="#008000" d="M860.5 191.5v-14h4v14h-4m2-14V173m0 18.5V203zm5-14v-27h4v27h-4m2-27V145m0 32.5v4.5zm5-26v-28h4v28h-4m2-28V119m0 32.5v9.5zm6-27v-7h4v7h-4m2-7V104m0 20.5v6.5z"/><path fill="#f00" d="M889.5 176.5v-59h4v59h-4m2-59V115m0 61.5v.5z"/><path fill="#008000" d="M897.5 176.5v-14h4v14h-4m2-14V158m0 18.5v.5z"/><path fill="#f00" d="M904.5 186.5v-25h4v25h-4m2-25V155m0 31.5V202zm5 23v-23h4v23h-4m2 0v3.5z"/></g><g class="highcharts-series"><path fill="#4572a7" d="M24 408.91s1.918.74 3.197.74c1.28 0 1.918-.332 3.197-.6 1.28-.268 1.92-.74 3.197-.74 1.28 0 1.92 1.732 3.2 2.06 1.278.33 1.918.065 3.197.33 1.28.264 1.918.677 3.197.99 1.28.316 1.918.408 3.197.58 1.28.174 1.92.068 3.198.287 1.28.22 1.918.463 3.197.813 1.28.35 1.918.94 3.197.94 1.28 0 1.92-1.484 3.198-1.484 1.28 0 1.92.537 3.198.537s1.918-1.125 3.197-1.125c1.28 0 1.918.74 3.197.74 1.28 0 1.918-.228 3.197-1.04 1.28-.81 1.917-2.172 3.196-3.016 1.28-.844 1.918-.882 3.197-1.204 1.28-.32 1.92-.055 3.198-.404 1.28-.35 1.92-.798 3.2-1.34s1.917-.97 3.196-1.37c1.28-.398 1.918-.624 3.197-.624 1.28 0 1.918 2.984 3.197 2.984 1.28 0 1.918-1.296 3.197-1.296 1.28 0 1.918 0 3.197.358 1.28.357 1.92 2.152 3.198 2.152 1.28 0 1.92-.026 3.197-.026 1.28 0 1.92 4.83 3.197 4.83s1.918-1.052 3.197-1.052c1.28 0 1.918 1.744 3.197 2.543 1.28.8 1.92 1.452 3.198 1.452 1.28 0 1.918-1.087 3.197-1.087 1.28 0 1.92 1.686 3.198 1.686 1.28 0 1.92-.685 3.197-.928 1.28-.244 1.92-.29 3.198-.29s1.918.81 3.197.893c1.278.08 1.918.08 3.197.08 1.28 0 1.918 0 3.197-.027 1.28-.028 1.917-2.323 3.196-2.323 1.28 0 1.92.777 3.198.777 1.28 0 1.918-.097 3.197-.18 1.28-.08 1.92-.23 3.198-.23 1.28 0 1.92.01 3.198.236 1.278.227 1.918.9 3.197.9 1.28 0 1.918-.662 3.197-.662 1.28 0 1.918.864 3.197.873 1.28.01 1.92.01 3.198.01 1.28 0 1.918-.19 3.197-.712 1.28-.523 1.92-.715 3.197-1.905 1.28-1.19 1.92-4.042 3.196-4.042 1.278 0 1.918 1.593 3.197 1.658 1.278.065 1.918.065 3.197.065 1.28 0 1.918 0 3.197-.62 1.28-.617 1.92-2.726 3.198-2.765 1.28-.04 1.918 0 3.197-.04 1.28-.04 1.918-.98 3.197-1.374 1.28-.393 1.92-.59 3.196-.59 1.278 0 1.918.627 3.197.91 1.278.28 1.918.5 3.197.5 1.28 0 1.918-.625 3.197-.625 1.28 0 1.92.99 3.198 1.634 1.28.644 1.918 1.59 3.197 1.59 1.28 0 1.918-.795 3.197-.795 1.28 0 1.92 1.576 3.196 1.576 1.278 0 1.918-.585 3.196-1.343 1.28-.758 1.92-1.572 3.198-2.447 1.278-.874 1.918-1.926 3.197-1.926 1.28 0 1.92 2.226 3.198 2.226 1.28 0 1.918-.016 3.197-.016 1.28 0 1.918 1.207 3.197 1.207 1.28 0 1.917-2.285 3.196-2.285 1.278 0 1.918.552 3.196.552 1.28 0 1.92-.236 3.198-.943 1.278-.705 1.918-2.59 3.197-2.59 1.28 0 1.92.436 3.198.436 1.28 0 1.918-2.266 3.197-2.686 1.28-.42 1.918-.42 3.197-.42 1.28 0 1.917.212 3.196.757 1.278.544 1.917 1.376 3.196 1.965 1.28.588 1.92.977 3.197.977 1.28 0 1.92-1.555 3.197-2.184 1.28-.63 1.92-.963 3.198-.963 1.28 0 1.918.6 3.197.6 1.28 0 1.918-.618 3.197-.618 1.28 0 1.917 2.537 3.196 2.537 1.278 0 1.917-2.45 3.196-2.45 1.28 0 1.92.178 3.197.485 1.28.307 1.92 1.05 3.197 1.05 1.28 0 1.92-.118 3.198-.62 1.28-.5 1.918-1.89 3.197-1.89 1.28 0 1.918.33 3.197.33 1.28 0 1.917-.88 3.196-1.39 1.278-.508 1.917-1.156 3.196-1.156 1.28 0 1.918 1.025 3.197 1.713 1.28.688 1.92 1.728 3.196 1.728 1.28 0 1.92-2.033 3.198-3.08s1.918-2.16 3.197-2.16c1.28 0 1.92.62 3.198.62 1.28 0 1.918-.69 3.197-1.064 1.278-.372 1.917-.378 3.196-.795 1.28-.417 1.92-1.29 3.198-1.29 1.28 0 1.92.362 3.197.775 1.28.414 1.92.845 3.198 1.293 1.278.447 1.918.948 3.197.948 1.28 0 1.918-3.283 3.197-3.283 1.28 0 1.918 1.717 3.197 1.717 1.278 0 1.917-.36 3.196-.584 1.28-.223 1.918-.53 3.197-.53 1.28 0 1.918.657 3.197.954 1.28.298 1.92.533 3.197.533 1.28 0 1.92-1.345 3.2-2.674 1.277-1.33 1.917-3.97 3.196-3.97 1.28 0 1.918.356 3.197.356 1.278 0 1.917-.95 3.196-1.576 1.28-.625 1.917-1.55 3.196-1.55 1.28 0 1.918 5.063 3.197 5.063 1.28 0 1.92-.517 3.197-.953 1.28-.436 1.92-.853 3.198-1.226s1.918-.64 3.197-.64c1.28 0 1.918 2.007 3.197 2.007 1.278 0 1.917-.02 3.196-.406 1.28-.385 1.918-1.49 3.197-1.52 1.28-.027 1.918-.027 3.197-.027 1.28 0 1.918.348 3.197 1.376 1.28 1.028 1.92 2.866 3.196 3.762 1.28.895 1.92.87 3.198.895 1.278.024 1.918 0 3.197.024 1.28.025 1.918 4.458 3.197 4.458 1.28 0 1.918-1.636 3.197-2.035 1.28-.4 1.918-.4 3.197-.4 1.28 0 1.92.234 3.198.234 1.28 0 1.92-.275 3.197-.736 1.28-.46 1.92-.564 3.198-1.567 1.278-1.003 1.918-2.398 3.197-3.446 1.277-1.05 1.917-1.796 3.196-1.796 1.28 0 1.918.293 3.197.744 1.28.45 1.918 1.51 3.197 1.51 1.28 0 1.918-1.5 3.197-1.5 1.28 0 1.918 1.678 3.197 1.678 1.28 0 1.92-1.198 3.197-1.198 1.28 0 1.92 0 3.2.132 1.278.13 1.918 4.496 3.197 6.236 1.28 1.74 1.918 2.46 3.197 2.46 1.28 0 1.918-1.36 3.197-1.474 1.28-.112 1.92-.056 3.198-.112 1.28-.056 1.918-.168 3.197-.168 1.28 0 1.92 2.63 3.197 2.63 1.28 0 1.92-2.518 3.198-2.518 1.28 0 1.92.48 3.198.684 1.278.204 1.918.336 3.197.336 1.28 0 1.918-.908 3.197-1.988 1.28-1.08 1.918-3.41 3.197-3.41 1.28 0 1.917 1.71 3.196 1.71 1.28 0 1.918-1.396 3.197-2.11 1.28-.714 1.92-1.46 3.198-1.46 1.28 0 1.92.734 3.2 1.28 1.277.55 1.917 1.457 3.196 1.457 1.28 0 1.918-1.36 3.197-2.355 1.28-.997 1.918-1.775 3.197-2.627 1.28-.85 1.918-1.634 3.197-1.634 1.28 0 1.918 2.903 3.197 3.566 1.28.663 1.92.01 3.198.663 1.28.654 1.92 2.605 3.197 2.605 1.28 0 1.92-.84 3.197-.84s1.918.27 3.197.27c1.28 0 1.918-2.678 3.197-4.36 1.28-1.683 1.92-4.055 3.198-4.055 1.28 0 1.918 2.055 3.197 3.588 1.28 1.535 1.92 2.578 3.198 4.08 1.28 1.504 1.92 2.12 3.197 3.436 1.28 1.313 1.92 3.14 3.198 3.14s1.918-3.623 3.197-3.623c1.28 0 1.918.588 3.197.588 1.28 0 1.918-1.082 3.197-1.948 1.28-.866 1.917-1.202 3.196-2.382 1.28-1.18 1.92-3.517 3.198-3.517 1.28 0 1.918.07 3.197.07 1.28 0 1.92-2.42 3.198-2.507 1.28-.087 1.92-.087 3.198-.087s1.918 2.69 3.197 2.69c1.28 0 1.918-.79 3.197-1.113 1.28-.325 1.918-.51 3.197-.51 1.28 0 1.92.208 3.198.208 1.28 0 1.918-2.382 3.197-2.382 1.28 0 1.92.56 3.197 1.17 1.28.61 1.92.873 3.197 1.877s1.918 1.618 3.197 3.142c1.28 1.524 1.918 4.477 3.197 4.477 1.28 0 1.92-.05 3.198-.05 1.28 0 1.92 1.115 3.198 1.115 1.28 0 1.918-.992 3.197-.992 1.28 0 1.918.64 3.197.64 1.28 0 1.92 0 3.197-.364 1.278-.362 1.918-1.716 3.197-1.716 1.278 0 1.918 0 3.197.373 1.28.373 1.92 1.687 3.198 2.172 1.28.484 1.92.32 3.198.484 1.28.163 1.918.19 3.197.33 1.28.14 1.918.368 3.197.368 1.28 0 1.92-1.82 3.197-2.78 1.278-.96 1.918-2.018 3.197-2.018 1.278 0 1.918 1.044 3.197 1.556 1.28.512 1.92 1.006 3.198 1.006 1.28 0 1.92-.658 3.198-.658 1.28 0 1.918 1.05 3.197 1.05 1.28 0 1.918-.648 3.197-.648 1.28 0 1.918.312 3.197.312 1.278 0 1.918 0 3.196-.45 1.28-.45 1.92-2 3.198-2s1.92.313 3.198.427c1.28.113 1.92 0 3.198.143 1.28.144 1.918 2.176 3.197 3.612 1.28 1.436 1.918 3.57 3.197 3.57 1.28 0 1.918-1.035 3.197-1.93 1.278-.895 1.918-2.545 3.196-2.545 1.28 0 1.92 4.626 3.198 4.626s1.92-1.9 3.198-1.9c1.28 0 1.92.236 3.198.236 1.28 0 1.918-2.062 3.197-2.062 1.28 0 1.918 2.423 3.197 2.423 1.28 0 1.918-2.525 3.197-2.525 1.278 0 1.917.74 3.196 1.407 1.28.668 1.92 1.933 3.197 1.933 1.28 0 1.92 0 3.198-.098 1.28-.097 1.92-1.778 3.198-1.778 1.28 0 1.918 3.38 3.197 3.662 1.28.282 1.918.282 3.197.282 1.28 0 1.918-.97 3.197-1.997 1.278-1.026 1.917-3.13 3.196-3.13 1.28 0 1.92.58 3.197.58 1.28 0 1.92-2.964 3.198-3.79 1.28-.825 1.92-.825 3.198-.825s1.918 4.13 3.197 5.536c1.28 1.406 1.918 1.49 3.197 1.49 1.28 0 1.918-1.705 3.197-1.705 1.278 0 1.917.7 3.196 1.275 1.28.574 1.918.74 3.197 1.598 1.28.86 1.92 1.68 3.197 2.698 1.28 1.02 1.92 1.764 3.198 2.4 1.278.634 1.918.31 3.197.776 1.28.467 1.918 1.56 3.197 1.56 1.28 0 1.917-.423 3.196-.957 1.278-.534 1.917-1.715 3.196-1.715 1.28 0 1.918.104 3.197.21 1.28.103 1.92.314 3.196.314 1.28 0 1.92-.978 3.197-.978 1.28 0 1.92 1.5 3.198 1.5s1.92-.912 3.198-1.093c1.28-.182 1.918-.182 3.197-.182 1.278 0 1.917 2.49 3.196 2.834 1.28.342 1.92.13 3.198.342 1.28.213 1.918.72 3.197.72 1.28 0 1.92-2.07 3.197-2.855 1.28-.784 1.92-1.07 3.198-1.07s1.918.775 3.197.775c1.28 0 1.918-.843 3.197-.843 1.278 0 1.917.77 3.196 1.05 1.28.283 1.918.36 3.197.36 1.28.003 1.918 0 3.197.003 1.28.002 1.918 1.263 3.197 1.263 1.28 0 1.92-1.142 3.198-1.142 1.28 0 1.92 1.67 3.198 2.147 1.278.48 1.918.48 3.197.48 1.278 0 1.917-.366 3.196-.366 1.28 0 1.917.442 3.196.442 1.28 0 1.918-2.896 3.197-2.896 1.28 0 1.918.42 3.197.63 1.28.208 1.92.415 3.197.415 1.28 0 1.92-.01 3.198-.01s1.918 1.173 3.197 1.173c1.278 0 1.917-2.695 3.196-2.695 1.28 0 1.918 1.035 3.197 2.018 1.28.982 1.918 1.655 3.197 2.894 1.28 1.24 1.918 2.06 3.197 3.303 1.28 1.244 1.917 2.917 3.196 2.917 1.28 0 1.92-.995 3.197-.995 1.28 0 1.92.41 3.2.41 1.277 0 1.917-2.56 3.196-2.56 1.28 0 1.917.286 3.196.89 1.28.6 3.197 2.122 3.197 2.122V421H24" fill-opacity=".4"/><path fill="none" d="M24 408.91s1.918.74 3.197.74c1.28 0 1.918-.332 3.197-.6 1.28-.268 1.92-.74 3.197-.74 1.28 0 1.92 1.732 3.2 2.06 1.278.33 1.918.065 3.197.33 1.28.264 1.918.677 3.197.99 1.28.316 1.918.408 3.197.58 1.28.174 1.92.068 3.198.287 1.28.22 1.918.463 3.197.813 1.28.35 1.918.94 3.197.94 1.28 0 1.92-1.484 3.198-1.484 1.28 0 1.92.537 3.198.537s1.918-1.125 3.197-1.125c1.28 0 1.918.74 3.197.74 1.28 0 1.918-.228 3.197-1.04 1.28-.81 1.917-2.172 3.196-3.016 1.28-.844 1.918-.882 3.197-1.204 1.28-.32 1.92-.055 3.198-.404 1.28-.35 1.92-.798 3.2-1.34s1.917-.97 3.196-1.37c1.28-.398 1.918-.624 3.197-.624 1.28 0 1.918 2.984 3.197 2.984 1.28 0 1.918-1.296 3.197-1.296 1.28 0 1.918 0 3.197.358 1.28.357 1.92 2.152 3.198 2.152 1.28 0 1.92-.026 3.197-.026 1.28 0 1.92 4.83 3.197 4.83s1.918-1.052 3.197-1.052c1.28 0 1.918 1.744 3.197 2.543 1.28.8 1.92 1.452 3.198 1.452 1.28 0 1.918-1.087 3.197-1.087 1.28 0 1.92 1.686 3.198 1.686 1.28 0 1.92-.685 3.197-.928 1.28-.244 1.92-.29 3.198-.29s1.918.81 3.197.893c1.278.08 1.918.08 3.197.08 1.28 0 1.918 0 3.197-.027 1.28-.028 1.917-2.323 3.196-2.323 1.28 0 1.92.777 3.198.777 1.28 0 1.918-.097 3.197-.18 1.28-.08 1.92-.23 3.198-.23 1.28 0 1.92.01 3.198.236 1.278.227 1.918.9 3.197.9 1.28 0 1.918-.662 3.197-.662 1.28 0 1.918.864 3.197.873 1.28.01 1.92.01 3.198.01 1.28 0 1.918-.19 3.197-.712 1.28-.523 1.92-.715 3.197-1.905 1.28-1.19 1.92-4.042 3.196-4.042 1.278 0 1.918 1.593 3.197 1.658 1.278.065 1.918.065 3.197.065 1.28 0 1.918 0 3.197-.62 1.28-.617 1.92-2.726 3.198-2.765 1.28-.04 1.918 0 3.197-.04 1.28-.04 1.918-.98 3.197-1.374 1.28-.393 1.92-.59 3.196-.59 1.278 0 1.918.627 3.197.91 1.278.28 1.918.5 3.197.5 1.28 0 1.918-.625 3.197-.625 1.28 0 1.92.99 3.198 1.634 1.28.644 1.918 1.59 3.197 1.59 1.28 0 1.918-.795 3.197-.795 1.28 0 1.92 1.576 3.196 1.576 1.278 0 1.918-.585 3.196-1.343 1.28-.758 1.92-1.572 3.198-2.447 1.278-.874 1.918-1.926 3.197-1.926 1.28 0 1.92 2.226 3.198 2.226 1.28 0 1.918-.016 3.197-.016 1.28 0 1.918 1.207 3.197 1.207 1.28 0 1.917-2.285 3.196-2.285 1.278 0 1.918.552 3.196.552 1.28 0 1.92-.236 3.198-.943 1.278-.705 1.918-2.59 3.197-2.59 1.28 0 1.92.436 3.198.436 1.28 0 1.918-2.266 3.197-2.686 1.28-.42 1.918-.42 3.197-.42 1.28 0 1.917.212 3.196.757 1.278.544 1.917 1.376 3.196 1.965 1.28.588 1.92.977 3.197.977 1.28 0 1.92-1.555 3.197-2.184 1.28-.63 1.92-.963 3.198-.963 1.28 0 1.918.6 3.197.6 1.28 0 1.918-.618 3.197-.618 1.28 0 1.917 2.537 3.196 2.537 1.278 0 1.917-2.45 3.196-2.45 1.28 0 1.92.178 3.197.485 1.28.307 1.92 1.05 3.197 1.05 1.28 0 1.92-.118 3.198-.62 1.28-.5 1.918-1.89 3.197-1.89 1.28 0 1.918.33 3.197.33 1.28 0 1.917-.88 3.196-1.39 1.278-.508 1.917-1.156 3.196-1.156 1.28 0 1.918 1.025 3.197 1.713 1.28.688 1.92 1.728 3.196 1.728 1.28 0 1.92-2.033 3.198-3.08s1.918-2.16 3.197-2.16c1.28 0 1.92.62 3.198.62 1.28 0 1.918-.69 3.197-1.064 1.278-.372 1.917-.378 3.196-.795 1.28-.417 1.92-1.29 3.198-1.29 1.28 0 1.92.362 3.197.775 1.28.414 1.92.845 3.198 1.293 1.278.447 1.918.948 3.197.948 1.28 0 1.918-3.283 3.197-3.283 1.28 0 1.918 1.717 3.197 1.717 1.278 0 1.917-.36 3.196-.584 1.28-.223 1.918-.53 3.197-.53 1.28 0 1.918.657 3.197.954 1.28.298 1.92.533 3.197.533 1.28 0 1.92-1.345 3.2-2.674 1.277-1.33 1.917-3.97 3.196-3.97 1.28 0 1.918.356 3.197.356 1.278 0 1.917-.95 3.196-1.576 1.28-.625 1.917-1.55 3.196-1.55 1.28 0 1.918 5.063 3.197 5.063 1.28 0 1.92-.517 3.197-.953 1.28-.436 1.92-.853 3.198-1.226s1.918-.64 3.197-.64c1.28 0 1.918 2.007 3.197 2.007 1.278 0 1.917-.02 3.196-.406 1.28-.385 1.918-1.49 3.197-1.52 1.28-.027 1.918-.027 3.197-.027 1.28 0 1.918.348 3.197 1.376 1.28 1.028 1.92 2.866 3.196 3.762 1.28.895 1.92.87 3.198.895 1.278.024 1.918 0 3.197.024 1.28.025 1.918 4.458 3.197 4.458 1.28 0 1.918-1.636 3.197-2.035 1.28-.4 1.918-.4 3.197-.4 1.28 0 1.92.234 3.198.234 1.28 0 1.92-.275 3.197-.736 1.28-.46 1.92-.564 3.198-1.567 1.278-1.003 1.918-2.398 3.197-3.446 1.277-1.05 1.917-1.796 3.196-1.796 1.28 0 1.918.293 3.197.744 1.28.45 1.918 1.51 3.197 1.51 1.28 0 1.918-1.5 3.197-1.5 1.28 0 1.918 1.678 3.197 1.678 1.28 0 1.92-1.198 3.197-1.198 1.28 0 1.92 0 3.2.132 1.278.13 1.918 4.496 3.197 6.236 1.28 1.74 1.918 2.46 3.197 2.46 1.28 0 1.918-1.36 3.197-1.474 1.28-.112 1.92-.056 3.198-.112 1.28-.056 1.918-.168 3.197-.168 1.28 0 1.92 2.63 3.197 2.63 1.28 0 1.92-2.518 3.198-2.518 1.28 0 1.92.48 3.198.684 1.278.204 1.918.336 3.197.336 1.28 0 1.918-.908 3.197-1.988 1.28-1.08 1.918-3.41 3.197-3.41 1.28 0 1.917 1.71 3.196 1.71 1.28 0 1.918-1.396 3.197-2.11 1.28-.714 1.92-1.46 3.198-1.46 1.28 0 1.92.734 3.2 1.28 1.277.55 1.917 1.457 3.196 1.457 1.28 0 1.918-1.36 3.197-2.355 1.28-.997 1.918-1.775 3.197-2.627 1.28-.85 1.918-1.634 3.197-1.634 1.28 0 1.918 2.903 3.197 3.566 1.28.663 1.92.01 3.198.663 1.28.654 1.92 2.605 3.197 2.605 1.28 0 1.92-.84 3.197-.84s1.918.27 3.197.27c1.28 0 1.918-2.678 3.197-4.36 1.28-1.683 1.92-4.055 3.198-4.055 1.28 0 1.918 2.055 3.197 3.588 1.28 1.535 1.92 2.578 3.198 4.08 1.28 1.504 1.92 2.12 3.197 3.436 1.28 1.313 1.92 3.14 3.198 3.14s1.918-3.623 3.197-3.623c1.28 0 1.918.588 3.197.588 1.28 0 1.918-1.082 3.197-1.948 1.28-.866 1.917-1.202 3.196-2.382 1.28-1.18 1.92-3.517 3.198-3.517 1.28 0 1.918.07 3.197.07 1.28 0 1.92-2.42 3.198-2.507 1.28-.087 1.92-.087 3.198-.087s1.918 2.69 3.197 2.69c1.28 0 1.918-.79 3.197-1.113 1.28-.325 1.918-.51 3.197-.51 1.28 0 1.92.208 3.198.208 1.28 0 1.918-2.382 3.197-2.382 1.28 0 1.92.56 3.197 1.17 1.28.61 1.92.873 3.197 1.877s1.918 1.618 3.197 3.142c1.28 1.524 1.918 4.477 3.197 4.477 1.28 0 1.92-.05 3.198-.05 1.28 0 1.92 1.115 3.198 1.115 1.28 0 1.918-.992 3.197-.992 1.28 0 1.918.64 3.197.64 1.28 0 1.92 0 3.197-.364 1.278-.362 1.918-1.716 3.197-1.716 1.278 0 1.918 0 3.197.373 1.28.373 1.92 1.687 3.198 2.172 1.28.484 1.92.32 3.198.484 1.28.163 1.918.19 3.197.33 1.28.14 1.918.368 3.197.368 1.28 0 1.92-1.82 3.197-2.78 1.278-.96 1.918-2.018 3.197-2.018 1.278 0 1.918 1.044 3.197 1.556 1.28.512 1.92 1.006 3.198 1.006 1.28 0 1.92-.658 3.198-.658 1.28 0 1.918 1.05 3.197 1.05 1.28 0 1.918-.648 3.197-.648 1.28 0 1.918.312 3.197.312 1.278 0 1.918 0 3.196-.45 1.28-.45 1.92-2 3.198-2s1.92.313 3.198.427c1.28.113 1.92 0 3.198.143 1.28.144 1.918 2.176 3.197 3.612 1.28 1.436 1.918 3.57 3.197 3.57 1.28 0 1.918-1.035 3.197-1.93 1.278-.895 1.918-2.545 3.196-2.545 1.28 0 1.92 4.626 3.198 4.626s1.92-1.9 3.198-1.9c1.28 0 1.92.236 3.198.236 1.28 0 1.918-2.062 3.197-2.062 1.28 0 1.918 2.423 3.197 2.423 1.28 0 1.918-2.525 3.197-2.525 1.278 0 1.917.74 3.196 1.407 1.28.668 1.92 1.933 3.197 1.933 1.28 0 1.92 0 3.198-.098 1.28-.097 1.92-1.778 3.198-1.778 1.28 0 1.918 3.38 3.197 3.662 1.28.282 1.918.282 3.197.282 1.28 0 1.918-.97 3.197-1.997 1.278-1.026 1.917-3.13 3.196-3.13 1.28 0 1.92.58 3.197.58 1.28 0 1.92-2.964 3.198-3.79 1.28-.825 1.92-.825 3.198-.825s1.918 4.13 3.197 5.536c1.28 1.406 1.918 1.49 3.197 1.49 1.28 0 1.918-1.705 3.197-1.705 1.278 0 1.917.7 3.196 1.275 1.28.574 1.918.74 3.197 1.598 1.28.86 1.92 1.68 3.197 2.698 1.28 1.02 1.92 1.764 3.198 2.4 1.278.634 1.918.31 3.197.776 1.28.467 1.918 1.56 3.197 1.56 1.28 0 1.917-.423 3.196-.957 1.278-.534 1.917-1.715 3.196-1.715 1.28 0 1.918.104 3.197.21 1.28.103 1.92.314 3.196.314 1.28 0 1.92-.978 3.197-.978 1.28 0 1.92 1.5 3.198 1.5s1.92-.912 3.198-1.093c1.28-.182 1.918-.182 3.197-.182 1.278 0 1.917 2.49 3.196 2.834 1.28.342 1.92.13 3.198.342 1.28.213 1.918.72 3.197.72 1.28 0 1.92-2.07 3.197-2.855 1.28-.784 1.92-1.07 3.198-1.07s1.918.775 3.197.775c1.28 0 1.918-.843 3.197-.843 1.278 0 1.917.77 3.196 1.05 1.28.283 1.918.36 3.197.36 1.28.003 1.918 0 3.197.003 1.28.002 1.918 1.263 3.197 1.263 1.28 0 1.92-1.142 3.198-1.142 1.28 0 1.92 1.67 3.198 2.147 1.278.48 1.918.48 3.197.48 1.278 0 1.917-.366 3.196-.366 1.28 0 1.917.442 3.196.442 1.28 0 1.918-2.896 3.197-2.896 1.28 0 1.918.42 3.197.63 1.28.208 1.92.415 3.197.415 1.28 0 1.92-.01 3.198-.01s1.918 1.173 3.197 1.173c1.278 0 1.917-2.695 3.196-2.695 1.28 0 1.918 1.035 3.197 2.018 1.28.982 1.918 1.655 3.197 2.894 1.28 1.24 1.918 2.06 3.197 3.303 1.28 1.244 1.917 2.917 3.196 2.917 1.28 0 1.92-.995 3.197-.995 1.28 0 1.92.41 3.2.41 1.277 0 1.917-2.56 3.196-2.56 1.28 0 1.917.286 3.196.89 1.28.6 3.197 2.122 3.197 2.122" stroke="#4572A7" stroke-linejoin="round" stroke-linecap="round"/></g></g><g class="highcharts-navigator"><path fill="#fff" fill-opacity=".75" d="M24 381h164v40H24zm754 0h138v40H778z"/><path fill="none" stroke="#444" d="M10 381.5h178.5v40m589 0v-40H930"/></g><g transform="translate(778 393)" cursor="e-resize" fill="#FFF" stroke="#666"><rect rx="3" ry="3" x="-4.5" y=".5" width="8" height="15"/><path d="M-1.5 4v8m2-8v8"/></g><text x="470" y="25" text-anchor="middle" class="highcharts-title" font-family="&quot;Lucida Grande&quot;, &quot;Lucida Sans Unicode&quot;, Verdana, Arial, Helvetica, sans-serif" font-size="16" color="#274b6d" fill="#274b6d"><tspan x="470">Random 100 Index</tspan></text><g transform="translate(188 393)" cursor="e-resize" fill="#FFF" stroke="#666"><rect rx="3" ry="3" x="-4.5" y=".5" width="8" height="15"/><path d="M-1.5 4v8m2-8v8"/></g><g class="highcharts-axis-labels" text-anchor="middle" font-family="&quot;Lucida Grande&quot;, &quot;Lucida Sans Unicode&quot;, Verdana, Arial, Helvetica, sans-serif" font-size="11" color="#666" cursor="default" fill="#666"><text x="663.871" y="372" style="line-height:14px"><tspan x="663.871">12. May</tspan></text><text x="560.022" y="372" style="line-height:14px"><tspan x="560.022">5. May</tspan></text><text x="352.326" y="372" style="line-height:14px"><tspan x="352.326">21. Apr</tspan></text><text x="456.174" y="372" style="line-height:14px"><tspan x="456.174">28. Apr</tspan></text><text x="248.477" y="372" style="line-height:14px"><tspan x="248.477">14. Apr</tspan></text><text x="40.78" y="372" style="line-height:14px"><tspan x="40.78">31. Mar</tspan></text><text x="144.629" y="372" style="line-height:14px"><tspan x="144.629">7. Apr</tspan></text><text x="767.719" y="372" style="line-height:14px"><tspan x="767.719">19. May</tspan></text><text x="871.568" y="372" style="line-height:14px"><tspan x="871.568">26. May</tspan></text></g><g class="highcharts-axis-labels" font-family="&quot;Lucida Grande&quot;, &quot;Lucida Sans Unicode&quot;, Verdana, Arial, Helvetica, sans-serif" font-size="11" color="#666" cursor="default" fill="#666"><text x="12" y="303" style="line-height:14px"><tspan x="12">20k</tspan></text><text x="12" y="356" style="line-height:14px"><tspan x="12">17.5k</tspan></text><text x="12" y="250" style="line-height:14px"><tspan x="12">22.5k</tspan></text><text x="12" y="197" style="line-height:14px"><tspan x="12">25k</tspan></text><text x="12" y="144" style="line-height:14px"><tspan x="12">27.5k</tspan></text><text x="12" y="91" style="line-height:14px"><tspan x="12">30k</tspan></text><text y="-9999" style="line-height:14px"><tspan x="0">32.5k</tspan></text></g><g class="highcharts-axis-labels" font-family="&quot;Lucida Grande&quot;, &quot;Lucida Sans Unicode&quot;, Verdana, Arial, Helvetica, sans-serif" font-size="11" color="#666" cursor="default" fill="#666"><text x="74.957" y="417" style="line-height:14px"><tspan x="74.957">17. Mar</tspan></text><text x="276.376" y="417" style="line-height:14px"><tspan x="276.376">7. Apr</tspan></text><text x="477.796" y="417" style="line-height:14px"><tspan x="477.796">28. Apr</tspan></text><text x="679.215" y="417" style="line-height:14px"><tspan x="679.215">19. May</tspan></text><text x="880.634" y="417" style="line-height:14px"><tspan x="880.634">9. Jun</tspan></text></g></svg>