<?xml version="1.0" encoding="utf-8"?>
<!-- Generator: Adobe Illustrator 14.0.0, SVG Export Plug-In . SVG Version: 6.00 Build 43363)  -->
<!DOCTYPE svg PUBLIC "-//W3C//DTD SVG 1.1//EN" "http://www.w3.org/Graphics/SVG/1.1/DTD/svg11.dtd">
<svg version="1.1" id="Layer_1" xmlns="http://www.w3.org/2000/svg" xmlns:xlink="http://www.w3.org/1999/xlink" x="0px" y="0px"
	 width="300px" height="102.166px" viewBox="-114 0 300 102.166" enable-background="new -114 0 300 102.166" xml:space="preserve">
<g>
	<path fill="#FFFFFF" d="M-114,0h300v88.723h-300V0z"/>
	<path fill="#F2F2F2" d="M-114,0h300v12.767h-300V0z"/>
	<g>
		<polygon fill="#808080" points="186,13.08 -114,13.08 -114,12.453 186,12.453 186,13.08 		"/>
	</g>
	<text transform="matrix(1 0 0 1 -110.9033 8.29)" font-family="'Arial'" font-weight="bold"  font-size="5.1064">Contract Details</text>
	<text transform="matrix(1 0 0 1 84.0166 8.29)" font-family="'Arial'" font-weight="bold"  font-size="5.1064">Purchase</text>
	<text transform="matrix(1 0 0 1 120.1123 8.29)" font-family="'Arial'" font-weight="bold"  font-size="5.1064">Latest</text>
	<path fill="none" d="M-110.901,19.987H76.12v14.044h-187.021V19.987z"/>
	<path fill="none" d="M84.019,19.987h22.237v14.044H84.019V19.987z"/>
	<text transform="matrix(1 0 0 1 84.0166 23.3975)" font-family="'Arial'" font-size="5.1064">USD</text>
	<text transform="matrix(1 0 0 1 95.4834 23.3975)" font-family="'Arial'" font-weight="bold"  font-size="5.1064">5.14</text>
	<path fill="none" d="M120.114,19.987h22.233v14.044h-22.233V19.987z"/>
	<text transform="matrix(1 0 0 1 120.1123 23.3975)" font-family="'Arial'" font-size="5.1064">USD 6.06</text>
	<path fill="#2F8942" d="M157.802,18.819h20.752c0.35,0,0.635,0.541,0.635,1.21v9.07c0,0.667-0.285,1.208-0.635,1.208h-20.76
		c-0.351,0-0.631-0.541-0.631-1.208v-9.07c-0.004-0.669,0.28-1.21,0.631-1.21"/>
	<text transform="matrix(1 0 0 1 161.9092 26.1846)" fill="#FFFFFF" font-family="'Arial'" font-weight="bold"  font-size="5.1064">VIEW</text>
	<path fill="#F1F0F0" d="M-114,37.01h300v0.956h-300V37.01z"/>
	<path fill="none" d="M-110.901,44.777H76.12v14.042h-187.021V44.777z"/>
	<path fill="none" d="M84.019,44.777h22.237v14.042H84.019V44.777z"/>
	<text transform="matrix(1 0 0 1 84.0166 48.1826)" font-family="'Arial'" font-size="5.1064">USD</text>
	<text transform="matrix(1 0 0 1 95.4834 48.1826)" font-family="'Arial'" font-weight="bold"  font-size="5.1064">5.14</text>
	<path fill="none" d="M120.114,44.777h22.233v14.042h-22.233V44.777z"/>
	<text transform="matrix(1 0 0 1 120.1123 48.1826)" font-family="'Arial'" font-size="5.1064">USD 6.68</text>
	<path fill="#2F8942" d="M157.802,43.605h20.752c0.35,0,0.635,0.541,0.635,1.211v9.071c0,0.668-0.285,1.205-0.635,1.205h-20.76
		c-0.351,0-0.631-0.537-0.631-1.205v-9.071c-0.004-0.668,0.28-1.211,0.631-1.211"/>
	<text transform="matrix(1 0 0 1 161.9092 50.9736)" fill="#FFFFFF" font-family="'Arial'" font-weight="bold"  font-size="5.1064">VIEW</text>
	<path fill="#F1F0F0" d="M-114,61.798h300v0.956h-300V61.798z"/>
	<path fill="none" d="M-110.901,69.619H76.12v14.042h-187.021V69.619z"/>
	<path fill="none" d="M84.019,69.619h22.237v14.042H84.019V69.619z"/>
	<text transform="matrix(1 0 0 1 84.0166 73.0283)" font-family="'Arial'" font-size="5.1064">USD</text>
	<text transform="matrix(1 0 0 1 95.4834 73.0283)" font-family="'Arial'" font-weight="bold"  font-size="5.1064">5.16</text>
	<path fill="none" d="M120.114,69.619h22.233v14.042h-22.233V69.619z"/>
	<text transform="matrix(1 0 0 1 120.1123 73.0283)" font-family="'Arial'" font-size="5.1064">USD 4.20</text>
	<path fill="#2F8942" d="M157.802,68.451h20.752c0.35,0,0.635,0.541,0.635,1.208v9.074c0,0.667-0.285,1.204-0.635,1.204h-20.76
		c-0.351,0-0.631-0.537-0.631-1.204v-9.074c-0.004-0.667,0.28-1.208,0.631-1.208"/>
	<text transform="matrix(1 0 0 1 161.9092 75.8174)" fill="#FFFFFF" font-family="'Arial'" font-weight="bold"  font-size="5.1064">VIEW</text>
	<path fill="#F1F0F0" d="M-114,86.644h300V87.6h-300V86.644z"/>
	<g>
		<rect x="130.177" y="75.364" fill="#CAC8BA" width="0.415" height="14.909"/>
	</g>
	<path fill="#FEFDEC" d="M101.706,88.178h59.514v11.169h-59.514V88.178z"/>
	<path fill="#CAC8BA" d="M161.061,88.336v10.853h-59.195V88.336H161.061 M161.383,88.019h-59.835V99.51h59.835V88.019z"/>
	<text transform="matrix(1 0 0 1 105.374 94.6064)" fill="#010101" font-family="'Arial'" font-size="4.4681">Current price of the trade</text>
	<text transform="matrix(1 0 0 1 -110.9023 23.4126)"><tspan x="0" y="0" font-family="'Arial'" font-size="5.125">USD </tspan><tspan x="12.245" y="0" font-family="'Arial'" font-weight="bold"  font-size="5.125">10</tspan><tspan x="17.945" y="0" font-family="'Arial'" font-size="5.125"> payout if Random 100 Index is strictly </tspan><tspan x="105.966" y="0" font-family="'Arial'" font-weight="bold"  font-size="5.125">higher</tspan><tspan x="121.626" y="0" font-family="'Arial'" font-size="5.125"> than </tspan><tspan x="134.449" y="0" font-family="'Arial'" font-weight="bold"  font-size="5.125">18102.80</tspan><tspan x="155.824" y="0" font-family="'Arial'" font-size="5.125"> at </tspan><tspan x="0" y="6.151" font-family="'Arial'" font-size="5.125">10:06:29 on 24-Mar-14</tspan></text>
	<text transform="matrix(1 0 0 1 -110.9023 48.2002)"><tspan x="0" y="0" font-family="'Arial'" font-size="5.125">USD </tspan><tspan x="12.245" y="0" font-family="'Arial'" font-weight="bold"  font-size="5.125">10</tspan><tspan x="17.945" y="0" font-family="'Arial'" font-size="5.125"> payout if Random 100 Index is strictly </tspan><tspan x="105.966" y="0" font-family="'Arial'" font-weight="bold"  font-size="5.125">higher</tspan><tspan x="121.626" y="0" font-family="'Arial'" font-size="5.125"> than </tspan><tspan x="134.449" y="0" font-family="'Arial'" font-weight="bold"  font-size="5.125">18093.35</tspan><tspan x="155.824" y="0" font-family="'Arial'" font-size="5.125"> at </tspan><tspan x="0" y="6.15" font-family="'Arial'" font-size="5.125">10:06:40 on 24-Mar-14</tspan></text>
	<text transform="matrix(1 0 0 1 -110.9023 73.043)"><tspan x="0" y="0" font-family="'Arial'" font-size="5.125">USD </tspan><tspan x="12.245" y="0" font-family="'Arial'" font-weight="bold"  font-size="5.125">10</tspan><tspan x="17.945" y="0" font-family="'Arial'" font-size="5.125"> payout if Random 100 Index is strictly </tspan><tspan x="105.966" y="0" font-family="'Arial'" font-weight="bold"  font-size="5.125">lower</tspan><tspan x="119.352" y="0" font-family="'Arial'" font-size="5.125"> than </tspan><tspan x="132.174" y="0" font-family="'Arial'" font-weight="bold"  font-size="5.125">18108.46</tspan><tspan x="153.55" y="0" font-family="'Arial'" font-size="5.125"> at </tspan><tspan x="0" y="6.15" font-family="'Arial'" font-size="5.125">10:06:22 on 24-Mar-14</tspan></text>
</g>
</svg>
