<svg xmlns="http://www.w3.org/2000/svg" width="72" height="43.833" viewBox="0 13.167 72 43.833" enable-background="new 0 13.167 72 43.833"><path fill="#fff" d="M0 25.283h72V57H0V25.283z"/><path fill="#818181" d="M0 25.283h72v.182H0v-.182m0 31.534h72V57H0v-.183m0-31.534h.182V57H0V25.283m71.818 0H72V57h-.182V25.283"/><text transform="translate(13.306 30.569)" fill="#010101" font-family="'Arial'" font-weight="bold" font-size="3.281">Goes Outside</text><text transform="translate(9.387 36.949)" enable-background="new"><tspan x="0" y="0" fill="#010101" font-family="'Arial'" font-weight="bold" font-size="2.917">GB</tspan><tspan x="4.375" y="0" fill="#010101" font-family="'Arial'" font-weight="bold" font-size="2.917">P</tspan></text><text transform="translate(16.496 36.949)" fill="#010101" font-family="'Arial'" font-weight="bold" font-size="4.01">8</text><text transform="translate(18.684 35.309)" fill="#010101" font-family="'Arial'" font-weight="bold" font-size="2.552">.16</text><path fill="#2F8942" d="M6.197 38.407H24.06c.402 0 .73.326.73.73v4.737c0 .402-.328.73-.73.73H6.197c-.402 0-.73-.328-.73-.73v-4.738c.002-.403.328-.73.73-.73"/><text transform="translate(8.202 42.417)" fill="#fff" font-family="'Arial'" font-weight="bold" font-size="2.552">PURCHASE</text><path fill="#E4E4E4" d="M.182 52.807H71.82v4.01H.18v-4.01"/><text transform="translate(17.772 55.724)" enable-background="new"><tspan x="0" y="0" fill="#676767" font-family="'Arial'" font-size="2.37">Net profit: GB</tspan><tspan x="14.354" y="0" fill="#676767" font-family="'Arial'" font-size="2.37">P</tspan><tspan x="15.892" y="0" fill="#676767" font-family="'Arial'" font-size="2.37">1.84 | Return: 23%</tspan></text><path fill="none" d="M32.08 33.52H70.18v11.3H32.08v-11.3zM32.08 33.16h35.167v16.75H32.08z"/><text transform="translate(32.081 34.951)"><tspan x="0" y="0" font-family="'Arial'" font-size="2.5">GB</tspan><tspan x="3.611" y="0" font-family="'Arial'" font-size="2.5">P</tspan><tspan x="5.929" y="0" font-family="'Arial'" font-weight="bold" font-size="2.5">10</tspan><tspan x="8.71" y="0" font-family="'Arial'" font-size="2.5">payout if</tspan><tspan x="19.412" y="0" font-family="'Arial'" font-size="2.5">AUD/JP</tspan><tspan x="28.302" y="0" font-family="'Arial'" font-size="2.5">Y</tspan><tspan x="0" y="3" font-family="'Arial'" font-weight="bold" font-size="2.5">goes outside 91.783</tspan><tspan x="23.763" y="3" font-family="'Arial'" font-size="2.5">to</tspan><tspan x="27.236" y="3" font-family="'Arial'" font-weight="bold" font-size="2.5">94.095</tspan><tspan x="0" y="6" font-family="'Arial'" font-size="2.5">before close (23.59.59) on</tspan><tspan x="0" y="9" font-family="'Arial'" font-size="2.5">31-Mar-14</tspan></text><path fill="#29ABE2" d="M3.463 26.377v2.044h1.7l.277-.503.266.504H7.83l.613-1.1-.766.243.285-.55 1.09-.346.354 1.115-.284.548-.27-.848-.522.938h1.695v-2.044H3.463zM7.77 28.53H5.763l.977 1.85 1.03-1.85zm-2.338.307l-.73 1.317h-.948v-.438h.69l.657-1.187H3.464v2.378h3.063l-1.094-2.07zm1.297 2.46l-.148-.278h-3.12v1.92h6.564v-1.92h-3.14l-.157.277zm.215-.388h3.08v-2.38H8.27l-1.325 2.38z"/><path fill="#CAC8BA" d="M17.12 26.377h-.25v-4.87h.25v4.87z"/><path fill="#FEFDEC" d="M8.063 15.037h33.99v6.38H8.064v-6.38z"/><path fill="#CAC8BA" d="M41.962 15.128v6.198H8.152v-6.198h33.81m.183-.182H7.97v6.562h34.175v-6.562z"/><text transform="translate(10.023 19.111)" fill="#010101" font-family="'Arial'" font-size="2.552">Price of the opposite trade</text></svg>