<?xml version="1.0" encoding="utf-8"?>
<!-- Generator: Adobe Illustrator 19.1.0, SVG Export Plug-In . SVG Version: 6.00 Build 0)  -->
<svg version="1.1" xmlns="http://www.w3.org/2000/svg" xmlns:xlink="http://www.w3.org/1999/xlink" x="0px" y="0px"
	 viewBox="1657.2 -239.5 940 500" style="enable-background:new 1657.2 -239.5 940 500;" xml:space="preserve">
<style type="text/css">
	.st0{fill:#FFFFFF;}
	.st1{fill:#F2F2F2;}
	.st2{font-family:'Roboto-Regular';}
	.st3{font-size:13px;}
	.st4{fill:#2A3052;}
	.st5{fill:#FFFFFF;stroke:#44484C;stroke-miterlimit:10;}
	.st6{fill:#010101;}
	.st7{font-family:'Roboto-Light';}
	.st8{fill:#E98025;}
	.st9{fill:#6F6F6F;}
	.st10{fill:#FFFFFF;stroke:#DEDEDE;stroke-miterlimit:10;}
	.st11{font-size:18px;}
	.st12{fill:#FFFFFF;stroke:#DEDEDE;stroke-width:1.0518;stroke-miterlimit:10;}
	.st13{fill:#2E8836;}
	.st14{font-family:'Roboto-Medium';}
	.st15{fill:none;stroke:#000000;stroke-miterlimit:10;}
	.st16{fill:none;stroke:#000000;stroke-miterlimit:10;stroke-dasharray:0.9744,0.9744;}
	.st17{fill:none;stroke:#CAC8BA;stroke-miterlimit:10;}
	.st18{fill:#FEFDEC;stroke:#CAC8BA;stroke-miterlimit:10;}
	.st19{font-family:'Roboto-Light';}
	.st20{font-size:16px;}
</style>
<g id="Layer_1">
</g>
<g id="jp-betform">
	<rect x="1657.2" y="-239.5" class="st0" width="940" height="500"/>
	<g>
		<path class="st1" d="M1944.9-143.4h-91v-22c0-2.2,1.8-4,4-4h83c2.2,0,4,1.8,4,4V-143.4z"/>
		<text transform="matrix(1 0 0 1 1859.4725 -151.9996)" class="st2 st3">Higher/Lower</text>
	</g>
	<g>
		<path class="st1" d="M2052.8-143.4h-105.9v-22c0-2.2,1.8-4,4-4h97.9c2.2,0,4,1.8,4,4V-143.4z"/>
		<text transform="matrix(1 0 0 1 1951.4725 -151.9996)" class="st2 st3">Touch/No Touch</text>
	</g>
	<g>
		<path class="st4" d="M2119.8-143.4h-65v-22c0-2.2,1.8-4,4-4h57c2.2,0,4,1.8,4,4V-143.4z"/>
		<text transform="matrix(1 0 0 1 2060.3528 -151.9996)" class="st0 st2 st3">Stay/End</text>
	</g>
	<rect x="1854.4" y="-143.4" class="st5" width="520" height="368"/>
	<g transform="matrix(1,0,0,1,0,0)">
		<text transform="matrix(1 0 0 1 1907.4258 -190.0639)" class="st6 st7 st3"> </text>
	</g>
	<g transform="matrix(1,0,0,1,0,0)">
		<text transform="matrix(1 0 0 1 1972.4259 -190.0639)" class="st6 st7 st3"> </text>
	</g>
	<g transform="matrix(1,0,0,1,0,0)">
		<text transform="matrix(1 0 0 1 2037.4259 -190.0639)" class="st6 st7 st3"> </text>
	</g>
	<g transform="matrix(1,0,0,1,0,0)">
		<text transform="matrix(1 0 0 1 2137.4253 -190.0639)" class="st6 st7 st3"> </text>
	</g>
	<g transform="matrix(1,0,0,1,0,0)">
		<text transform="matrix(1 0 0 1 2206.4253 -190.0639)" class="st6 st7 st3"> </text>
	</g>
	<g transform="matrix(1,0,0,1,0,0)">
		<text transform="matrix(1 0 0 1 1854.4258 -190.0639)" class="st8 st2 st3">Forex</text>
	</g>
	<g transform="matrix(1,0,0,1,0,0)">
		<text transform="matrix(1 0 0 1 1912.4258 -190.0639)" class="st9 st2 st3">Indices</text>
	</g>
	<g transform="matrix(1,0,0,1,0,0)">
		<text transform="matrix(1 0 0 1 1973.6759 -190.0639)" class="st9 st2 st3">Stocks</text>
	</g>
	<g transform="matrix(1,0,0,1,0,0)">
		<text transform="matrix(1 0 0 1 2033.6759 -190.0639)" class="st9 st2 st3">Commodities</text>
	</g>
	<g transform="matrix(1,0,0,1,0,0)">
		<text transform="matrix(1 0 0 1 2133.9253 -190.0639)" class="st9 st2 st3">Sectors</text>
	</g>
	<g transform="matrix(1,0,0,1,0,0)">
		<text transform="matrix(1 0 0 1 2203.1753 -190.0639)" class="st9 st2 st3">Randoms</text>
	</g>
	<g>
		<g>
			<path class="st10" d="M2050.5-69.2h-110.4c-3.3,0-6-2.7-6-6v-15c0-3.3,2.7-6,6-6h110.4c3.3,0,6,2.7,6,6v15
				C2056.5-71.9,2053.8-69.2,2050.5-69.2z"/>
			<text transform="matrix(1 0 0 1 1943.7871 -77.5516)" class="st2 st11">Major Pairs</text>
		</g>
		<g>
			<path class="st10" d="M2050.5-32.5h-110.4c-3.3,0-6-2.7-6-6v-15c0-3.3,2.7-6,6-6h110.4c3.3,0,6,2.7,6,6v15
				C2056.5-35.2,2053.8-32.5,2050.5-32.5z"/>
			<text transform="matrix(1 0 0 1 1943.7869 -40.8016)" class="st2 st11">End Time</text>
		</g>
		<g>
			<rect x="2077.2" y="-59.5" class="st10" width="102" height="27"/>
			<text transform="matrix(1 0 0 1 2082.8291 -40.8016)" class="st2 st11">2015-07-28</text>
		</g>
		<g>
			<rect x="2077.2" y="19.5" class="st10" width="102" height="27"/>
			<text transform="matrix(1 0 0 1 2082.8293 38.1984)" class="st2 st11">90.497</text>
		</g>
		<g>
			<rect x="2077.2" y="57.1" class="st10" width="102" height="27"/>
			<text transform="matrix(1 0 0 1 2082.8293 75.7505)" class="st2 st11">89.604</text>
		</g>
		<g>
			<g>
				<path class="st12" d="M2185.1-69.2h-103c-2.8,0-5-2.2-5-5v-17c0-2.8,2.2-5,5-5h103c2.8,0,5,2.2,5,5v17
					C2190.1-71.5,2187.9-69.2,2185.1-69.2z"/>
				<text transform="matrix(1 0 0 1 2087.4958 -77.5516)" class="st2 st11">AUD/JPY</text>
			</g>
			<g>
				<polygon points="2184.4,-82.4 2181.4,-77.6 2178.4,-82.4 				"/>
				<polygon points="2184.4,-84.1 2181.4,-89 2178.4,-84.1 				"/>
			</g>
		</g>
		<g>
			<g>
				<path class="st12" d="M2051.5,121.1h-112.3c-2.8,0-5-2.2-5-5v-17c0-2.8,2.2-5,5-5h112.3c2.8,0,5,2.2,5,5v17
					C2056.5,118.8,2054.2,121.1,2051.5,121.1z"/>
				<text transform="matrix(1 0 0 1 1943.7869 112.7505)" class="st2 st11">Payout</text>
			</g>
		</g>
		<g>
			<g>
				<path class="st12" d="M2143.9,121.1h-61.7c-2.8,0-5-2.2-5-5v-17c0-2.8,2.2-5,5-5h61.7c2.8,0,5,2.2,5,5v17
					C2148.9,118.8,2146.6,121.1,2143.9,121.1z"/>
				<text transform="matrix(1 0 0 1 2086.8289 112.7505)" class="st2 st11">JPY</text>
			</g>
		</g>
		<g>
			<g>
				<rect x="2154.9" y="94.1" class="st12" width="77.8" height="27"/>
				<text transform="matrix(1 0 0 1 2164.5398 112.7505)" class="st2 st11">1000</text>
			</g>
		</g>
		<g>
			<path class="st13" d="M2175.2,189.2h-129c-2.2,0-4-1.8-4-4v-30c0-2.2,1.8-4,4-4h129c2.2,0,4,1.8,4,4v30
				C2179.2,187.4,2177.4,189.2,2175.2,189.2z"/>
			<text transform="matrix(1 0 0 1 2069.0962 175.565)" class="st0 st14 st11">Get Prices</text>
		</g>
		<g>
			<g>
				<rect x="2205.3" y="-59.5" class="st10" width="96.2" height="27"/>
				<text transform="matrix(1 0 0 1 2210.9958 -40.8016)" class="st2 st11">23:59:59</text>
			</g>
		</g>
		<g>
			<g>
				<circle class="st15" cx="2313.5" cy="-47.3" r="6.6"/>
				<g>
					<path d="M2313.1-50.5c-0.1-0.1-0.2-0.3-0.2-0.5s0.1-0.3,0.2-0.5c0.1-0.1,0.3-0.2,0.5-0.2c0.2,0,0.3,0.1,0.5,0.2
						c0.1,0.1,0.2,0.3,0.2,0.5s-0.1,0.3-0.2,0.5c-0.1,0.1-0.3,0.2-0.5,0.2C2313.4-50.3,2313.2-50.3,2313.1-50.5z M2313-42.9v-6.4h1
						v6.4H2313z"/>
				</g>
			</g>
			<g>
				<g>
					<line class="st15" x1="2306.7" y1="-37.1" x2="2307.2" y2="-37.1"/>
					<line class="st16" x1="2308.2" y1="-37.1" x2="2319.4" y2="-37.1"/>
					<line class="st15" x1="2319.9" y1="-37.1" x2="2320.4" y2="-37.1"/>
				</g>
			</g>
		</g>
		<text transform="matrix(1 0 0 1 1956.9447 38.1984)" class="st2 st11">High barrier:</text>
		<text transform="matrix(1 0 0 1 2014.0385 -1.3016)" class="st2 st11">Spot:</text>
		<text transform="matrix(1 0 0 1 2077.1558 -1.3016)" class="st2 st11">89.934</text>
		<text transform="matrix(1 0 0 1 1961.2076 75.7505)" class="st2 st11">Low barrier:</text>
	</g>
</g>
<g id="instruction">
	<g>
		<line class="st17" x1="2124.6" y1="-154.7" x2="2255.9" y2="-154.7"/>
		<rect x="2255.9" y="-169.1" class="st18" width="192.8" height="29"/>
		<text transform="matrix(1 0 0 1 2269.5166 -148.9996)" class="st19 st20">Choose your trade type</text>
	</g>
	<g>
		<line class="st17" x1="2194.5" y1="-83.9" x2="2296.4" y2="-83.9"/>
		<rect x="2296.4" y="-98.2" class="st18" width="139.7" height="29"/>
		<text transform="matrix(1 0 0 1 2309.9563 -78.1861)" class="st19 st20">Your underlying</text>
	</g>
	<g>
		<line class="st17" x1="1943.8" y1="32.9" x2="1882.3" y2="32.9"/>
		<rect x="1742.6" y="18.5" class="st18" width="139.7" height="29"/>
		<text transform="matrix(1 0 0 1 1759.1769 38.5639)" class="st19 st20">Your underlying</text>
	</g>
	<g>
		<line class="st17" x1="1923.7" y1="107.4" x2="1862.2" y2="107.4"/>
		<rect x="1748.3" y="93.1" class="st18" width="113.9" height="29"/>
		<text transform="matrix(1 0 0 1 1763.9686 113.116)" class="st19 st20">Your payout</text>
	</g>
	<g>
		<line class="st17" x1="2304.5" y1="-46.1" x2="2403.7" y2="-46.1"/>
		<rect x="2403.7" y="-60.5" class="st18" width="122" height="29"/>
		<text transform="matrix(1 0 0 1 2417.3242 -40.4361)" class="st19 st20">Your duration</text>
	</g>
	<g>
		<line class="st17" x1="2265.7" y1="-193.3" x2="2324.9" y2="-193.3"/>
		<rect x="2324.9" y="-207.7" class="st18" width="169.4" height="29"/>
		<text transform="matrix(1 0 0 1 2338.5166 -187.6663)" class="st19 st20">Choose your market</text>
	</g>
</g>
<g id="guide">
</g>
</svg>
