<svg xmlns="http://www.w3.org/2000/svg" width="300" height="102.166" viewBox="-114 0 300 102.166" enable-background="new -114 0 300 102.166"><path fill="#fff" d="M-114 0h300v88.723h-300V0z"/><path fill="#F2F2F2" d="M-114 0h300v12.767h-300V0z"/><path fill="#808080" d="M186 13.08h-300v-.627h300v.627z"/><text transform="translate(-110.903 8.29)" font-family="'Arial'" font-weight="bold" font-size="5.106">Contract Details</text><text transform="translate(84.017 8.29)" font-family="'Arial'" font-weight="bold" font-size="5.106">Purchase</text><text transform="translate(120.112 8.29)" font-family="'Arial'" font-weight="bold" font-size="5.106">Latest</text><path fill="none" d="M-110.9 19.987H76.12V34.03H-110.9V19.988zM84.02 19.987h22.236V34.03H84.02V19.988z"/><text transform="translate(84.017 23.398)" font-family="'Arial'" font-size="5.106">USD</text><text transform="translate(95.483 23.398)" font-family="'Arial'" font-weight="bold" font-size="5.106">5.14</text><path fill="none" d="M120.114 19.987h22.233V34.03h-22.233V19.988z"/><text transform="translate(120.112 23.398)" font-family="'Arial'" font-size="5.106">USD 6.06</text><path fill="#2F8942" d="M157.802 18.82h20.752c.35 0 .635.54.635 1.21v9.07c0 .666-.286 1.207-.636 1.207h-20.76c-.35 0-.63-.54-.63-1.208v-9.07c-.005-.67.28-1.21.63-1.21"/><text transform="translate(161.909 26.185)" fill="#fff" font-family="'Arial'" font-weight="bold" font-size="5.106">VIEW</text><path fill="#F1F0F0" d="M-114 37.01h300v.956h-300v-.956z"/><path fill="none" d="M-110.9 44.777H76.12V58.82H-110.9V44.776zM84.02 44.777h22.236V58.82H84.02V44.776z"/><text transform="translate(84.017 48.183)" font-family="'Arial'" font-size="5.106">USD</text><text transform="translate(95.483 48.183)" font-family="'Arial'" font-weight="bold" font-size="5.106">5.14</text><path fill="none" d="M120.114 44.777h22.233V58.82h-22.233V44.776z"/><text transform="translate(120.112 48.183)" font-family="'Arial'" font-size="5.106">USD 6.68</text><path fill="#2F8942" d="M157.802 43.605h20.752c.35 0 .635.54.635 1.21v9.072c0 .668-.286 1.205-.636 1.205h-20.76c-.35 0-.63-.537-.63-1.205v-9.07c-.005-.67.28-1.212.63-1.212"/><text transform="translate(161.909 50.974)" fill="#fff" font-family="'Arial'" font-weight="bold" font-size="5.106">VIEW</text><path fill="#F1F0F0" d="M-114 61.798h300v.956h-300v-.956z"/><path fill="none" d="M-110.9 69.62H76.12v14.04H-110.9V69.62zM84.02 69.62h22.236v14.04H84.02V69.62z"/><text transform="translate(84.017 73.028)" font-family="'Arial'" font-size="5.106">USD</text><text transform="translate(95.483 73.028)" font-family="'Arial'" font-weight="bold" font-size="5.106">5.16</text><path fill="none" d="M120.114 69.62h22.233v14.04h-22.233V69.62z"/><text transform="translate(120.112 73.028)" font-family="'Arial'" font-size="5.106">USD 4.20</text><path fill="#2F8942" d="M157.802 68.45h20.752c.35 0 .635.542.635 1.21v9.073c0 .667-.286 1.204-.636 1.204h-20.76c-.35 0-.63-.537-.63-1.204V69.66c-.005-.668.28-1.21.63-1.21"/><text transform="translate(161.909 75.817)" fill="#fff" font-family="'Arial'" font-weight="bold" font-size="5.106">VIEW</text><path fill="#F1F0F0" d="M-114 86.644h300v.956h-300v-.956z"/><path fill="#CAC8BA" d="M130.177 75.364h.415v14.91h-.415z"/><path fill="#FEFDEC" d="M101.706 88.178h59.514v11.17h-59.514v-11.17z"/><path fill="#CAC8BA" d="M161.06 88.336V99.19h-59.194V88.335h59.195m.323-.317h-59.835v11.49h59.835V88.02z"/><text transform="translate(105.374 94.606)" fill="#010101" font-family="'Arial'" font-size="4.468">Current price of the trade</text><text transform="translate(-110.902 23.413)"><tspan x="0" y="0" font-family="'Arial'" font-size="5.125">USD</tspan><tspan x="12.245" y="0" font-family="'Arial'" font-weight="bold" font-size="5.125">10</tspan><tspan x="17.945" y="0" font-family="'Arial'" font-size="5.125">payout if Random 100 Index is strictly</tspan><tspan x="105.966" y="0" font-family="'Arial'" font-weight="bold" font-size="5.125">higher</tspan><tspan x="121.626" y="0" font-family="'Arial'" font-size="5.125">than</tspan><tspan x="134.449" y="0" font-family="'Arial'" font-weight="bold" font-size="5.125">18102.80</tspan><tspan x="155.824" y="0" font-family="'Arial'" font-size="5.125">at</tspan><tspan x="0" y="6.151" font-family="'Arial'" font-size="5.125">10:06:29 on 24-Mar-14</tspan></text><text transform="translate(-110.902 48.2)"><tspan x="0" y="0" font-family="'Arial'" font-size="5.125">USD</tspan><tspan x="12.245" y="0" font-family="'Arial'" font-weight="bold" font-size="5.125">10</tspan><tspan x="17.945" y="0" font-family="'Arial'" font-size="5.125">payout if Random 100 Index is strictly</tspan><tspan x="105.966" y="0" font-family="'Arial'" font-weight="bold" font-size="5.125">higher</tspan><tspan x="121.626" y="0" font-family="'Arial'" font-size="5.125">than</tspan><tspan x="134.449" y="0" font-family="'Arial'" font-weight="bold" font-size="5.125">18093.35</tspan><tspan x="155.824" y="0" font-family="'Arial'" font-size="5.125">at</tspan><tspan x="0" y="6.15" font-family="'Arial'" font-size="5.125">10:06:40 on 24-Mar-14</tspan></text><text transform="translate(-110.902 73.043)"><tspan x="0" y="0" font-family="'Arial'" font-size="5.125">USD</tspan><tspan x="12.245" y="0" font-family="'Arial'" font-weight="bold" font-size="5.125">10</tspan><tspan x="17.945" y="0" font-family="'Arial'" font-size="5.125">payout if Random 100 Index is strictly</tspan><tspan x="105.966" y="0" font-family="'Arial'" font-weight="bold" font-size="5.125">lower</tspan><tspan x="119.352" y="0" font-family="'Arial'" font-size="5.125">than</tspan><tspan x="132.174" y="0" font-family="'Arial'" font-weight="bold" font-size="5.125">18108.46</tspan><tspan x="153.55" y="0" font-family="'Arial'" font-size="5.125">at</tspan><tspan x="0" y="6.15" font-family="'Arial'" font-size="5.125">10:06:22 on 24-Mar-14</tspan></text></svg>