<svg xmlns="http://www.w3.org/2000/svg" viewBox="0 0 940 320">
    <path fill="#FFF" d="M0 0h940v278h-940z"/>
    <path fill="#F2F2F2" d="M0 0h940v40h-940z"/>
    <path stroke="#808080" fill="none" d="M940 40h-940"/>
    <text font-weight="bold" font-size="16" font-family="Arial" transform="translate(9.709 25.962)">
        Contract Details
    </text>
    <text font-weight="bold" font-size="16" font-family="Arial" transform="translate(838.709 25.962)">
    </text>
    <text font-size="16" font-weight="bold" transform="translate(620.459 25.962)" font-family="Arial">
        Purchase
    </text>
    <text font-size="16" font-weight="bold" transform="translate(733.557 25.962)" font-family="Arial">
        Latest
    </text>
    <path fill="none" d="M9.709 62.628h586v44h-586z"/>
    <text font-size="16" font-family="Arial" transform="translate(9.709 73.3)">
        <tspan>
            USD
        </tspan>
        <tspan font-weight="bold">
            10
        </tspan>
        <tspan>
            payout if Random 100 Index is strictly
        </tspan>
        <tspan font-weight="bold">
            higher
        </tspan>
        <tspan>
            than
        </tspan>
        <tspan font-weight="bold">
            18102.80
        </tspan>
        <tspan>
            at 10:06:29 on
        </tspan>
        <tspan y="19.2" x="0">
            24-Mar-14.
        </tspan>
    </text>
    <path fill="none" d="M620.46 62.628h69.666v44h-69.666z"/>
    <text font-size="16" font-family="Arial" transform="translate(620.459 73.3)">
        <tspan y="0" x="0">
            USD
        </tspan>
        <tspan y="0" x="35.922" font-weight="bold">
            5.14
        </tspan>
    </text>
    <path fill="none" d="M733.56 62.628h69.666v44h-69.666z"/>
    <text font-size="16" font-family="Arial" transform="translate(733.557 73.3)">
        USD 6.06
    </text>
    <path fill="#2F8942" d="M851.64 58.966h65.029c1.096 0 1.985 1.697 1.985 3.789v28.422c0 2.091-.89 3.789-1.985 3.789h-65.04c-1.096 0-1.985-1.698-1.985-3.789v-28.422c-.01-2.092.88-3.789 1.98-3.789"/>
    <text font-size="16" font-family="Arial" transform="translate(864.521 82.04)" font-weight="bold" fill="#fff">
        VIEW
    </text>
    <path fill="#F1F0F0" d="M0 115.96h940v3h-940z"/>
    <path fill="none" d="M9.709 140.3h586v44h-586z"/>
    <text font-size="16" font-family="Arial" transform="translate(9.709 150.967)">
        <tspan>
            USD
        </tspan>
        <tspan font-weight="bold">
            10
        </tspan>
        <tspan>
            payout if Random 100 Index is strictly
        </tspan>
        <tspan font-weight="bold">
            higher
        </tspan>
        <tspan>
            than
        </tspan>
        <tspan font-weight="bold">
            18093.35
        </tspan>
        <tspan>
            at 10:06:40 on
        </tspan>
        <tspan y="19.2" x="0">
            24-Mar-14.
        </tspan>
    </text>
    <path fill="none" d="M620.46 140.3h69.666v44h-69.666z"/>
    <text font-size="16" font-family="Arial" transform="translate(620.459 150.967)">
        <tspan y="0" x="0">
            USD
        </tspan>
        <tspan y="0" x="35.922" font-weight="bold">
            5.14
        </tspan>
    </text>
    <path fill="none" d="M733.56 140.3h69.666v44h-69.666z"/>
    <text font-size="16" font-family="Arial" transform="translate(733.557 150.967)">
        USD 6.68
    </text>
    <path fill="#2F8942" d="M851.64 136.63h65.029c1.096 0 1.985 1.697 1.985 3.789v28.422c0 2.092-.89 3.789-1.985 3.789h-65.04c-1.096 0-1.985-1.697-1.985-3.789v-28.422c-.01-2.09.88-3.79 1.98-3.79"/>
    <text font-size="16" font-family="Arial" transform="translate(864.521 159.707)" font-weight="bold" fill="#fff">
        VIEW
    </text>
    <path fill="#F1F0F0" d="M0 193.63h940v3h-940z"/>
    <path fill="none" d="M9.709 218.14h586v44h-586z"/>
    <text font-size="16" font-family="Arial" transform="translate(9.709 228.815)">
        <tspan>
            USD
        </tspan>
        <tspan font-weight="bold">
            10
        </tspan>
        <tspan>
            payout if Random 100 Index is strictly
        </tspan>
        <tspan font-weight="bold">
            lower
        </tspan>
        <tspan>
            than
        </tspan>
        <tspan font-weight="bold">
            18108.46
        </tspan>
        <tspan>
            at 10:06:22 on
        </tspan>
        <tspan y="19.2" x="0">
            24-Mar-14.
        </tspan>
    </text>
    <path fill="none" d="M620.46 218.14h69.666v44h-69.666z"/>
    <text font-size="16" font-family="Arial" transform="translate(620.459 228.815)">
        <tspan y="0" x="0">
            USD
        </tspan>
        <tspan y="0" x="35.922" font-weight="bold">
            5.16
        </tspan>
    </text>
    <path fill="none" d="M733.56 218.14h69.666v44h-69.666z"/>
    <text font-size="16" font-family="Arial" transform="translate(733.557 228.815)">
        USD 4.20
    </text>
    <path fill="#2F8942" d="M851.64 214.48h65.029c1.096 0 1.985 1.697 1.985 3.789v28.422c0 2.092-.89 3.789-1.985 3.789h-65.04c-1.096 0-1.985-1.697-1.985-3.789v-28.42c-.01-2.09.88-3.79 1.98-3.79"/>
    <text font-size="16" font-family="Arial" transform="translate(864.521 237.555)" font-weight="bold" fill="#fff">
        VIEW
    </text>
    <path fill="#F1F0F0" d="M0 271.48h940v3h-940z"/>
    <path stroke="#CAC8BA" fill="none" d="M765.73 236.14v46.72"/>
    <path fill="#fefdec" d="M675.88 276.29h186.48v35h-186.48z"/>
    <path fill="#cac8ba" d="M861.86 276.79v34h-185.48v-34h185.48m1-1h-187.48v36h187.48v-36h-.001z"/>
    <text font-size="14" y="296.423" x="687.377" font-family="Arial" fill="#010101">
        Current price of the trade
    </text>
</svg>
