<svg xmlns="http://www.w3.org/2000/svg" viewBox="272.5 0 395 231"><path fill="#fff" d="M272.5 56.856h394.998v174H272.5z"/><path fill="#818181" d="M272.5 56.856h395v1h-395v-1m0 173h395v1h-395v-1m0-173h1v174h-1v-174m394 0h1v174h-1v-174"/><text transform="translate(345.499 85.857)" fill="#010101" font-family="Arial" font-size="18" font-weight="bold">Goes Outside</text><text transform="translate(323.999 120.857)" fill="#010101" font-family="Arial" font-size="16" font-weight="bold">GBP</text><text transform="translate(362.999 120.857)" fill="#010101" font-family="Arial" font-size="22" font-weight="bold">8</text><text transform="translate(374.999 111.857)" fill="#010101" font-family="Arial" font-size="14" font-weight="bold">.16</text><path fill="#2F8942" d="M306.5 128.856h98c2.21 0 4 1.79 4 4v26c0 2.207-1.79 4-4 4h-98c-2.207 0-4-1.793-4-4v-26c0-2.21 1.792-4 4-4"/><text transform="translate(317.499 150.857)" fill="#fff" font-family="Arial" font-size="14" font-weight="bold">PURCHASE</text><path fill="#E4E4E4" d="M273.5 207.856h393v22h-393v-22"/><text transform="translate(369.999 223.857)" fill="#676767" font-family="Arial" font-size="13">Net profit: GBP 1.84 | Return: 23%</text><path d="M448.5 102.037h209v62h-209z" fill="none"/><text transform="translate(448.5 112.089)" font-family="Arial" font-size="14"><tspan>GBP</tspan><tspan font-weight="bold">10</tspan><tspan>payout if AUD/JPY</tspan><tspan font-weight="bold">goes</tspan><tspan x="0" y="14" font-weight="bold">outside 91.783</tspan><tspan>to</tspan><tspan font-weight="bold">94.095</tspan><tspan>before</tspan><tspan x="0" y="28">close (23.59.59) on 31-Mar-14.</tspan></text><path d="M291.5 62.856V74.07h9.32l1.528-2.763 1.457 2.762h11.65l3.364-6.04-4.196 1.332 1.56-3.013 5.978-1.905 1.945 6.115-1.56 3.013-1.48-4.65-2.864 5.146h9.295V62.854zm23.62 11.814h-11l5.355 10.143zm-12.82 1.686l-3.995 7.226h-5.207v-2.4h3.793l3.6-6.512h-8.99v13.05h16.796zm7.12 13.494l-.808-1.53H291.5v10.536h36V88.32h-17.23zm1.186-2.13H327.5V74.67h-9.63z" fill="#29ABE2"/><path stroke="#CAC8BA" d="M365.73 36.144v26.713" fill="none"/><path fill="#FEFDEC" d="M316.73.644h186.48v35H316.73z"/><path fill="#CAC8BA" d="M502.708 1.144v34H317.23v-34h185.478m1-1H316.23v36h187.48v-36h-.002z"/><text transform="translate(327.487 22.995)" fill="#010101" font-family="Arial" font-size="14">Price of the opposite trade</text></svg>