<svg xmlns="http://www.w3.org/2000/svg" width="940" height="500" viewBox="0 0 940 500"><path fill="#fff" d="M213.81 90.564h520v368h-520z"/><text transform="translate(214.811 39.565)" fill="#E98025" font-family="Arial" font-size="13">Forex</text><text transform="translate(271.811 39.565)" fill="#6F6F6F" font-family="Arial" font-size="13">Indices</text><text transform="translate(336.811 39.565)" fill="#6F6F6F" font-family="Arial" font-size="13">Stocks</text><text transform="translate(401.811 39.565)" fill="#6F6F6F" font-family="Arial" font-size="13">Commodities</text><text transform="translate(501.81 39.565)" fill="#6F6F6F" font-family="Arial" font-size="13">Sectors</text><text transform="translate(570.811 39.565)" fill="#6F6F6F" font-family="Arial" font-size="13">Randoms</text><path fill="#E2E2E2" d="M213.81 458.564h520v1h-520v-1"/><path fill="#818181" d="M213.81 457.564h520v1h-520v-1m0-261h1v262h-1v-262m519 0h1v262h-1v-262m-519-106h520v1h-520v-1m0 0h1v343h-1v-343m519 0h1v343h-1v-343m-519 0h520v1h-520v-1"/><path fill="#F3F3F3" d="M217.81 64.564h53c2.21 0 4 1.79 4 4v22h-61v-22c0-2.21 1.794-4 4-4m63 0h77c2.21 0 4 1.79 4 4v22h-85v-22c0-2.21 1.794-4 4-4m87 0h94c2.21 0 4 1.79 4 4v22h-102v-22c0-2.21 1.794-4 4-4"/><path fill="#222C62" d="M471.81 64.564h37c2.21 0 4 1.79 4 4v22h-45v-22c0-2.21 1.794-4 4-4"/><text transform="translate(218.811 83.564)" fill="#010101" font-family="Arial" font-size="13">Rise/Fall</text><text transform="translate(281.811 83.564)" fill="#010101" font-family="Arial" font-size="13">Higher/Lower</text><text transform="translate(368.811 83.564)" fill="#010101" font-family="Arial" font-size="13">Touch/No Touch</text><text transform="translate(472.81 83.564)" fill="#fff" font-family="Arial" font-size="13">In/Out</text><path fill="#fff" d="M297.81 127.564h121v28h-121v-28"/><path fill="#E4E4E4" d="M297.81 127.564h121v1h-121v-1m0 27h121v1h-121v-1m0-27h1v28h-1v-28m120 0h1v28h-1v-28"/><text transform="translate(302.811 147.565)" fill="#010101" font-family="Arial" font-size="18">All</text><text transform="translate(350.811 188.565)" fill="#010101" font-family="Arial" font-size="18">Duration:</text><text transform="translate(381.811 230.565)" fill="#676767" font-family="Arial" font-size="18">Spot:</text><text transform="translate(324.811 271.565)" fill="#010101" font-family="Arial" font-size="18">High barrier:</text><text transform="translate(328.811 309.565)" fill="#010101" font-family="Arial" font-size="18">Low barrier:</text><text transform="translate(362.811 347.565)" fill="#010101" font-family="Arial" font-size="18">Payout:</text><path fill="#fff" d="M441.81 127.564h163v28h-163v-28"/><path fill="#E4E4E4" d="M441.81 127.564h163v1h-163v-1m0 27h163v1h-163v-1m0-27h1v28h-1v-28m162 0h1v28h-1v-28"/><text transform="translate(446.811 147.565)" fill="#010101" font-family="Arial" font-size="18">AUD/JPY</text><path fill="#fff" d="M441.81 170.564h82v28h-82v-28"/><path fill="#E4E4E4" d="M441.81 170.564h82v1h-82v-1m0 27h82v1h-82v-1m0-27h1v28h-1v-28m81 0h1v28h-1v-28"/><text transform="translate(446.811 190.565)" fill="#010101" font-family="Arial" font-size="18">7</text><path fill="#fff" d="M533.81 170.564h68v28h-68v-28"/><path fill="#E4E4E4" d="M533.81 170.564h68v1h-68v-1m0 27h68v1h-68v-1m0-27h1v28h-1v-28m67 0h1v28h-1v-28"/><text transform="translate(538.811 190.565)" fill="#010101" font-family="Arial" font-size="18">days</text><path fill="#010101" d="M611.81 190.564h1v1h-1v-1m27 0h1v1h-1v-1"/><path stroke="#010101" stroke-miterlimit="2" stroke-dasharray="1,1" stroke-dashoffset="1" fill="none" d="M612.81 191.064h26"/><text transform="translate(611.811 186.565)" fill="#676767" font-family="Arial" font-size="18">min</text><text transform="translate(639.811 186.565)" fill="#676767" font-family="Arial" font-size="18">: 1</text><path fill="#2AAAE2" d="M441.81 211.564h59v23h-59v-23"/><text transform="translate(443.811 229.565)" fill="#fff" font-family="Arial" font-size="18">93.024</text><path fill="#fff" d="M441.81 248.564h114v28h-114v-28"/><path fill="#E4E4E4" d="M441.81 248.564h114v1h-114v-1m0 27h114v1h-114v-1m0-27h1v28h-1v-28m113 0h1v28h-1v-28"/><text transform="translate(446.811 268.565)" fill="#010101" font-family="Arial" font-size="18">94.095</text><path fill="#fff" d="M441.81 286.564h114v28h-114v-28"/><path fill="#E4E4E4" d="M441.81 286.564h114v1h-114v-1m0 27h114v1h-114v-1m0-27h1v28h-1v-28m113 0h1v28h-1v-28"/><text transform="translate(446.811 306.565)" fill="#010101" font-family="Arial" font-size="18">91.783</text><path fill="#fff" d="M441.81 324.564h68v28h-68v-28"/><path fill="#E4E4E4" d="M441.81 324.564h68v1h-68v-1m0 27h68v1h-68v-1m0-27h1v28h-1v-28m67 0h1v28h-1v-28"/><text transform="translate(446.811 344.565)" fill="#010101" font-family="Arial" font-size="18">GBP</text><path fill="#fff" d="M514.81 324.564h106v28h-106v-28"/><path fill="#E4E4E4" d="M514.81 324.564h106v1h-106v-1m0 27h106v1h-106v-1m0-27h1v28h-1v-28m105 0h1v28h-1v-28"/><text transform="translate(519.811 344.565)" fill="#010101" font-family="Arial" font-size="18">10</text><path fill="#2F8942" d="M407.54 380.564h131c2.21 0 4 1.79 4 4v30c0 2.207-1.79 4-4 4h-131c-2.207 0-4-1.793-4-4v-30c0-2.21 1.793-4 4-4"/><text transform="translate(423.082 406.565)" fill="#fff" font-family="Arial" font-size="18">GET PRICES</text><text transform="translate(224.811 107.564)" fill="#E98025" font-family="Arial" font-size="12">Stays Between/Goes Outside</text><text transform="translate(424.811 107.564)" fill="#6F6F6F" font-family="Arial" font-size="12">Ends Between/Outside</text><path fill="#010101" d="M411.86 139.5l-3.55 5.797-3.548-5.8zm186 0l-3.55 5.797-3.548-5.8zm-3 43.124l-3.55 5.798-3.548-5.8zm-92 153.83l-3.55 5.798-3.548-5.8z"/><path stroke="#CAC8BA" fill="none" d="M641.31 35.936h134"/><path fill="#FEFDEC" d="M774.81 18.436h143v35h-143z"/><path fill="#CAC8BA" d="M917.31 18.936v34h-142v-34h142m1-1h-144v36h144v-36z"/><text transform="translate(783.311 40.787)" fill="#010101" font-family="Arial" font-size="14">Choose your market</text><path stroke="#CAC8BA" fill="none" d="M606.81 141.564h134"/><path fill="#FEFDEC" d="M740.31 124.064h162.364v35H740.31z"/><path fill="#CAC8BA" d="M902.174 124.564v34H740.81v-34h161.364m1-1H739.81v36h163.364v-36z"/><text transform="translate(747.811 146.416)" fill="#010101" font-family="Arial" font-size="14">Choose your underlying</text><path stroke="#CAC8BA" fill="none" d="M661.112 183.564h109"/><path fill="#FEFDEC" d="M769.612 166.064h150.86v35h-150.86z"/><path fill="#CAC8BA" d="M919.975 166.564v34H770.112v-34h149.863m1-1H769.112v36h151.86l.003-36z"/><text transform="translate(778.111 188.416)" fill="#010101" font-family="Arial" font-size="14">Choose your duration</text><path stroke="#CAC8BA" fill="none" d="M170.89 307.064h136.135"/><path fill="#FEFDEC" d="M25.525 289.564h144.863v35H25.525z"/><path fill="#CAC8BA" d="M169.89 290.064v34H26.024v-34H169.89m1-1H25.024v36h145.863v-36z"/><text transform="translate(33.025 311.915)" fill="#010101" font-family="Arial" font-size="14">Choose your barriers</text><path stroke="#CAC8BA" fill="none" d="M373.004 364.213v81.85"/><path fill="#FEFDEC" d="M324.004 446.564h142v35h-142z"/><path fill="#CAC8BA" d="M465.504 447.064v34h-141v-34h141m1-1h-143v36h143v-36z"/><text transform="translate(332.762 468.915)" fill="#010101" font-family="Arial" font-size="14">Choose your payout</text><path stroke="#CAC8BA" fill="none" d="M518.112 77.564h134"/><path fill="#FEFDEC" d="M651.612 60.064h164v35h-164z"/><path fill="#CAC8BA" d="M815.112 60.564v34h-163v-34h163m1-1h-165v36h165v-36z"/><text transform="translate(661.111 82.416)" fill="#010101" font-family="Arial" font-size="14">Choose your trade type</text></svg>