<?xml version="1.0" encoding="UTF-8" standalone="no"?>
<svg xmlns="http://www.w3.org/2000/svg" version="1.1" viewBox="0 0 49.248001 49.248001" xml:space="preserve">
<path d="m 20.039,22.803 c 0.629,0 1.16,-0.248 1.57,-0.717 0.645,-0.732 0.928,-1.936 0.76,-3.215 -0.301,-2.287 -1.932,-4.186 -3.637,-4.236 h -0.068 c -0.604,0 -1.141,0.246 -1.551,0.715 -0.637,0.725 -0.903,1.871 -0.736,3.146 0.299,2.283 1.965,4.256 3.635,4.307 h 0.027 z" style="fill:#dcdcdc;fill-opacity:1"/>
<path d="m 21.9,29.69 c -0.168,-0.113 -0.342,-0.232 -0.521,-0.355 -0.525,-0.162 -1.084,-0.246 -1.654,-0.254 h -0.072 c -2.625,0 -4.929,1.592 -4.929,3.406 0,1.971 1.972,3.518 4.491,3.518 3.322,0 5.006,-1.145 5.006,-3.404 0,-0.215 -0.025,-0.436 -0.076,-0.656 -0.225,-0.88 -1.03,-1.427 -2.245,-2.255 z" style="fill:#dcdcdc;fill-opacity:1"/>
<path d="M 24.625,0 C 11.024,0 0,11.023 0,24.623 c 0,13.6 11.025,24.625 24.625,24.625 13.598,0 24.623,-11.025 24.623,-24.625 C 49.248,11.023 38.222,0 24.625,0 z m -2.241,38.022 c -0.982,0.283 -2.041,0.428 -3.154,0.428 -1.238,0 -2.43,-0.143 -3.54,-0.424 -2.15,-0.541 -3.74,-1.57 -4.48,-2.895 -0.32,-0.574 -0.482,-1.184 -0.482,-1.816 0,-0.652 0.156,-1.312 0.463,-1.967 1.18,-2.51 4.283,-4.197 7.722,-4.197 0.035,0 0.068,0 0.1,0 -0.279,-0.492 -0.416,-1.002 -0.416,-1.537 0,-0.268 0.035,-0.539 0.105,-0.814 -3.606,-0.084 -6.306,-2.725 -6.306,-6.207 0,-2.461 1.965,-4.855 4.776,-5.824 0.842,-0.291 1.699,-0.439 2.543,-0.439 h 7.713 c 0.264,0 0.494,0.17 0.576,0.42 0.084,0.252 -0.008,0.525 -0.221,0.68 l -1.725,1.248 c -0.104,0.074 -0.229,0.115 -0.357,0.115 h -0.617 c 0.799,0.955 1.266,2.316 1.266,3.848 0,1.691 -0.855,3.289 -2.41,4.506 -1.201,0.936 -1.25,1.191 -1.25,1.729 0.016,0.295 0.854,1.252 1.775,1.904 2.152,1.523 2.953,3.014 2.953,5.508 0,2.595 -1.977,4.847 -5.034,5.734 z M 39.806,24.791 c 0,0.334 -0.273,0.605 -0.607,0.605 h -4.383 v 4.385 c 0,0.336 -0.271,0.607 -0.607,0.607 h -1.248 c -0.336,0 -0.607,-0.271 -0.607,-0.607 v -4.385 h -4.386 c -0.332,0 -0.605,-0.271 -0.605,-0.605 v -1.25 c 0,-0.334 0.273,-0.607 0.605,-0.607 h 4.385 v -4.383 c 0,-0.336 0.271,-0.607 0.607,-0.607 h 1.248 c 0.336,0 0.607,0.271 0.607,0.607 v 4.383 h 4.383 c 0.334,0 0.607,0.273 0.607,0.607 v 1.25 z" style="fill:#dcdcdc;fill-opacity:1"/>
</svg>
