<?xml version="1.0" encoding="UTF-8" standalone="no"?>
<svg xmlns="http://www.w3.org/2000/svg" version="1.1" viewBox="0 0 60 60" xml:space="preserve">
<path d="M 46.837,44.137 V 32.425 c 0,-6.275 -3.35,-9.195 -7.816,-9.195 -3.604,0 -5.219,1.983 -6.119,3.374 V 23.71 h -6.79 c 0.09,1.917 0,20.427 0,20.427 h 6.79 V 32.729 c 0,-0.609 0.044,-1.219 0.224,-1.655 0.49,-1.22 1.607,-2.483 3.482,-2.483 2.458,0 3.44,1.873 3.44,4.618 v 10.929 h 6.789 z M 18.959,20.922 c 2.367,0 3.842,-1.57 3.842,-3.531 -0.044,-2.003 -1.475,-3.528 -3.797,-3.528 -2.322,0 -3.841,1.524 -3.841,3.528 0,1.961 1.474,3.531 3.753,3.531 h 0.043 z M 30,60 C 13.432,60 0,46.568 0,30 0,13.431 13.432,0 30,0 46.568,0 60,13.431 60,30 60,46.568 46.568,60 30,60 z M 22.354,44.137 V 23.71 h -6.789 v 20.427 h 6.789 z" style="fill:#dcdcdc;fill-opacity:1;fill-rule:evenodd"/>
</svg>
