<?xml version="1.0" encoding="utf-8"?>
<!DOCTYPE svg PUBLIC "-//W3C//DTD SVG 1.1//EN" "http://www.w3.org/Graphics/SVG/1.1/DTD/svg11.dtd">
<svg version="1.1" id="Layer_1" xmlns="http://www.w3.org/2000/svg" viewBox="0 24 383 270" enable-background="new 0 0 383 337" xml:space="preserve">
<g>
	<g>
		<rect x="296.385" y="209.106" fill="#FFFFFF" width="85.461" height="20.932"/>
		<rect x="296.385" y="81.111" fill="#FFFFFF" width="85.461" height="20.93"/>
		<rect x="370.443" y="115.727" fill="#FFFFFF" width="11.402" height="20.93"/>
		<rect x="296.385" y="178.516" fill="#FFFFFF" width="85.461" height="20.93"/>
		<rect x="112.846" y="50.521" fill="#FFFFFF" width="269" height="286"/>
		<polygon fill="#FFFFFF" points="381.846,261.432 355.148,261.432 355.148,260.625 355.148,239.696 355.148,238.891 
			381.846,238.891 381.846,230.842 296.385,230.842 296.385,230.038 296.385,209.106 296.385,208.301 381.846,208.301 
			381.846,200.252 296.385,200.252 296.385,199.446 296.385,178.516 296.385,177.711 381.846,177.711 381.846,137.461 
			370.443,137.461 370.443,136.656 370.443,115.727 370.443,114.921 381.846,114.921 381.846,102.846 296.385,102.846 
			296.385,102.042 296.385,81.111 296.385,80.307 381.846,80.307 381.846,51.327 112.846,51.327 112.846,336.479 381.846,336.479 		
			"/>
		<polygon fill="#828282" points="112.846,50.521 112.846,135.851 112.846,326.635 112.846,336.479 113.65,336.479 113.65,326.635
			113.65,135.851 113.65,50.521 		"/>
		<g transform="matrix(1,0,0,1,0,0)">
			<path vector-effect="non-scaling-stroke" fill="#F3F3F3" d="M116.064,29.592h42.666c1.777,0,3.219,1.442,3.219,3.22v17.709
				h-49.104V32.812C112.846,31.034,114.289,29.592,116.064,29.592"/>
		</g>
		<g transform="matrix(1,0,0,1,0,0)">
			<path vector-effect="non-scaling-stroke" fill="#F3F3F3" d="M166.781,29.592h61.982c1.779,0,3.221,1.442,3.221,3.22v17.709
				h-68.424V32.812C163.561,31.034,165.004,29.592,166.781,29.592"/>
		</g>
		<g transform="matrix(1,0,0,1,0,0)">
			<path vector-effect="non-scaling-stroke" fill="#F3F3F3" d="M236.814,29.592h75.67c1.777,0,3.219,1.442,3.219,3.22v17.709
				h-82.109V32.812C233.594,31.034,235.037,29.592,236.814,29.592"/>
		</g>
		<g transform="matrix(1,0,0,1,0,0)">
			<path vector-effect="non-scaling-stroke" fill="#232E62" d="M320.533,29.592h29.785c1.779,0,3.221,1.442,3.221,3.22v17.709
				h-36.227V32.812C317.313,31.034,318.758,29.592,320.533,29.592"/>
		</g>
		<g transform="matrix(1,0,0,1,0,0)">
			<text transform="matrix(1 0 0 1 116.8691 44.8887)" fill="#020202" font-family="Arial" font-size="9">Rise/Fall</text>
		</g>
		<g transform="matrix(1,0,0,1,0,0)">
			<text transform="matrix(1 0 0 1 167.584 44.8887)" fill="#020202" font-family="Arial" font-size="9">Higher/Lower</text>
		</g>
		<g transform="matrix(1,0,0,1,0,0)">
			<text transform="matrix(1 0 0 1 237.6191 44.8887)" fill="#020202" font-family="Arial" font-size="9">Touch/No Touch</text>
		</g>
		<g transform="matrix(1,0,0,1,0,0)">
			<text transform="matrix(1 0 0 1 321.3379 44.8887)" fill="#FFFFFF" font-family="Arial" font-size="9">In/Out</text>
		</g>
		<g transform="matrix(1,0,0,1,0,0)">
			<path vector-effect="non-scaling-stroke" fill="#FFFFFF" d="M180.465,80.307h97.404v22.54h-97.404V80.307"/>
		</g>
		<g transform="matrix(1,0,0,1,0,0)">
			<path vector-effect="non-scaling-stroke" fill="#E4E4E4" d="M180.465,80.307h97.404v0.805h-97.404V80.307"/>
		</g>
		<g transform="matrix(1,0,0,1,0,0)">
			<path vector-effect="non-scaling-stroke" fill="#E4E4E4" d="M180.465,102.042h97.404v0.805h-97.404V102.042"/>
		</g>
		<g transform="matrix(1,0,0,1,0,0)">
			<path vector-effect="non-scaling-stroke" fill="#E4E4E4" d="M180.465,80.307h0.805v22.54h-0.805V80.307"/>
		</g>
		<g transform="matrix(1,0,0,1,0,0)">
			<path vector-effect="non-scaling-stroke" fill="#E4E4E4" d="M277.064,80.307h0.805v22.54h-0.805V80.307"/>
		</g>
		<g transform="matrix(1,0,0,1,0,0)">
			<text transform="matrix(1 0 0 1 184.4902 96.4082)" fill="#020202" font-family="Arial" font-size="14.4899">All</text>
		</g>
		<g transform="matrix(1,0,0,1,0,0)">
			<text transform="matrix(1 0 0 1 223.1289 131.4126)" fill="#020202" font-family="Arial" font-size="14.4899">Duration:</text>
		</g>
		<g transform="matrix(1,0,0,1,0,0)">
			<text transform="matrix(1 0 0 1 248.084 163.2222)" fill="#676868" font-family="Arial" font-size="14.4899">Spot:</text>
		</g>
		<g transform="matrix(1,0,0,1,0,0)">
			<text transform="matrix(1 0 0 1 202.1992 196.2271)" fill="#020202" font-family="Arial" font-size="14.4899">High barrier:</text>
		</g>
		<g transform="matrix(1,0,0,1,0,0)">
			<text transform="matrix(1 0 0 1 205.4199 226.8169)" fill="#020202" font-family="Arial" font-size="14.4899">Low barrier:</text>
		</g>
		<g transform="matrix(1,0,0,1,0,0)">
			<text transform="matrix(1 0 0 1 232.7891 257.4067)" fill="#020202" font-family="Arial" font-size="14.4899">Payout:</text>
		</g>
		<g transform="matrix(1,0,0,1,0,0)">
			<path vector-effect="non-scaling-stroke" fill="#E4E4E4" d="M296.385,80.307h0.805v22.54h-0.805V80.307"/>
		</g>
		<g transform="matrix(1,0,0,1,0,0)">
			<text transform="matrix(1 0 0 1 300.4082 96.4082)" fill="#020202" font-family="Arial" font-size="14.4899">AUD/JPY</text>
		</g>
		<g transform="matrix(1,0,0,1,0,0)">
			<path vector-effect="non-scaling-stroke" fill="#FFFFFF" d="M296.385,114.921h66.01v22.541h-66.01V114.921"/>
		</g>
		<g transform="matrix(1,0,0,1,0,0)">
			<path vector-effect="non-scaling-stroke" fill="#E4E4E4" d="M296.385,114.921h66.01v0.806h-66.01V114.921"/>
		</g>
		<g transform="matrix(1,0,0,1,0,0)">
			<path vector-effect="non-scaling-stroke" fill="#E4E4E4" d="M296.385,136.656h66.01v0.805h-66.01V136.656"/>
		</g>
		<g transform="matrix(1,0,0,1,0,0)">
			<path vector-effect="non-scaling-stroke" fill="#E4E4E4" d="M296.385,114.921h0.805v22.541h-0.805V114.921"/>
		</g>
		<g transform="matrix(1,0,0,1,0,0)">
			<path vector-effect="non-scaling-stroke" fill="#E4E4E4" d="M361.588,114.921h0.807v22.541h-0.807V114.921"/>
		</g>
		<g transform="matrix(1,0,0,1,0,0)">
			<text transform="matrix(1 0 0 1 300.4082 131.0229)" fill="#020202" font-family="Arial" font-size="14.4899">7</text>
		</g>
		<g transform="matrix(1,0,0,1,0,0)">
			<text transform="matrix(1 0 0 1 366.418 127.8027)" fill="#020202" font-family="Arial" font-size="14.4899"> </text>
		</g>
		<g transform="matrix(1,0,0,1,0,0)">
			<path vector-effect="non-scaling-stroke" fill="#E4E4E4" d="M370.443,114.921h0.805v22.541h-0.805V114.921"/>
		</g>
		<g transform="matrix(1,0,0,1,0,0)">
			<text transform="matrix(1 0 0 1 374.4688 131.0229)" fill="#020202" font-family="Arial" font-size="14.4899">d</text>
		</g>
		<g transform="matrix(1,0,0,1,0,0)">
			<path vector-effect="non-scaling-stroke" fill="#2DA9E1" d="M296.385,147.926h47.494v18.515h-47.494V147.926"/>
		</g>
		<g transform="matrix(1,0,0,1,0,0)">
			<text transform="matrix(1 0 0 1 297.9941 162.4175)" fill="#FFFFFF" font-family="Arial" font-size="14.4899">93.024</text>
		</g>
		<g transform="matrix(1,0,0,1,0,0)">
			<text transform="matrix(1 0 0 1 343.8789 162.4175)" fill="#676868" font-family="Arial" font-size="14.4899">    </text>
		</g>
		<g transform="matrix(1,0,0,1,0,0)">
			<path vector-effect="none" fill="#E4E4E4" d="M296.385,177.711h0.805v22.541h-0.805V177.711"/>
		</g>
		<g transform="matrix(1,0,0,1,0,0)">
			<text transform="matrix(1 0 0 1 300.4082 193.813)" fill="#020202" font-family="Arial" font-size="14.4899">94.095</text>
		</g>
		<g transform="matrix(1,0,0,1,0,0)">
			<path vector-effect="none" fill="#E4E4E4" d="M296.385,208.301h0.805v22.541h-0.805V208.301"/>
		</g>
		<g transform="matrix(1,0,0,1,0,0)">
			<text transform="matrix(1 0 0 1 300.4082 224.4028)" fill="#020202" font-family="Arial" font-size="14.4899">91.783</text>
		</g>
		<g transform="matrix(1,0,0,1,0,0)">
			<path vector-effect="none" fill="#FFFFFF" d="M296.385,238.891h54.74v22.541h-54.74V238.891"/>
		</g>
		<g transform="matrix(1,0,0,1,0,0)">
			<path vector-effect="none" fill="#E4E4E4" d="M296.385,238.891h54.74v0.805h-54.74V238.891"/>
		</g>
		<g transform="matrix(1,0,0,1,0,0)">
			<path vector-effect="none" fill="#E4E4E4" d="M296.385,260.625h54.74v0.807h-54.74V260.625"/>
		</g>
		<g transform="matrix(1,0,0,1,0,0)">
			<path vector-effect="none" fill="#E4E4E4" d="M296.385,238.891h0.805v22.541h-0.805V238.891"/>
		</g>
		<g transform="matrix(1,0,0,1,0,0)">
			<path vector-effect="none" fill="#E4E4E4" d="M350.318,238.891h0.807v22.541h-0.807V238.891"/>
		</g>
		<g transform="matrix(1,0,0,1,0,0)">
			<text transform="matrix(1 0 0 1 300.4082 254.9917)" fill="#020202" font-family="Arial" font-size="14.4899">GBP</text>
		</g>
		<rect x="112.846" y="50.521" fill="#828282" width="269" height="0.805"/>
		<rect x="296.385" y="80.307" fill="#E4E4E4" width="85.461" height="0.805"/>
		<rect x="296.385" y="102.042" fill="#E4E4E4" width="85.461" height="0.805"/>
		<rect x="370.443" y="114.921" fill="#E4E4E4" width="11.402" height="0.806"/>
		<rect x="370.443" y="136.656" fill="#E4E4E4" width="11.402" height="0.805"/>
		<rect x="296.385" y="177.711" fill="#E4E4E4" width="85.461" height="0.805"/>
		<rect x="296.385" y="199.446" fill="#E4E4E4" width="85.461" height="0.807"/>
		<rect x="296.385" y="208.301" fill="#E4E4E4" width="85.461" height="0.805"/>
		<rect x="296.385" y="230.038" fill="#E4E4E4" width="85.461" height="0.805"/>
		<rect x="355.148" y="239.696" fill="#FFFFFF" width="26.697" height="20.93"/>
		<rect x="355.148" y="238.891" fill="#E4E4E4" width="26.697" height="0.805"/>
		<rect x="355.148" y="260.625" fill="#E4E4E4" width="26.697" height="0.807"/>
		<g transform="matrix(1,0,0,1,0,0)">
			<path vector-effect="none" fill="#E4E4E4" d="M355.148,238.891h0.805v22.541h-0.805V238.891"/>
		</g>
		<g transform="matrix(1,0,0,1,0,0)">
			<text transform="matrix(1 0 0 1 359.1738 254.9917)" fill="#020202" font-family="Arial" font-size="14.4899">10</text>
		</g>
		<g transform="matrix(1,0,0,1,0,0)">
			<text transform="matrix(1 0 0 1 121.6992 64.208)" fill="#E98026" font-family="Arial" font-size="9.6599">Stays Between/Goes Outside</text>
		</g>
		<g transform="matrix(1,0,0,1,0,0)">
			<text transform="matrix(1 0 0 1 282.6992 64.208)" fill="#6F7070" font-family="Arial" font-size="9.6599">Ends Between/Outside</text>
		</g>
		<polygon fill="#020202" points="272.273,89.914 269.416,94.582 266.559,89.914 		"/>
		<polygon fill="#020202" points="345.527,248.461 342.672,253.129 339.814,248.461 		"/>
	</g>
	<g>
		<line fill="none" stroke="#CAC8BA" x1="97.129" y1="41.967" x2="111.512" y2="41.967"/>
		<g>
			<rect x="0.973" y="24.467" fill="#FEFDEE" width="95.656" height="35"/>
			<path fill="#CAC8BA" d="M96.129,24.967v34H1.473v-34H96.129 M97.129,23.967H0.473v36h96.656V23.967L97.129,23.967z"/>
		</g>
		<g transform="matrix(1,0,0,1,0,0)">
			<text transform="matrix(1 0 0 1 9.4727 46.8184)" fill="#020202" font-family="Arial" font-size="14">1. trade type</text>
		</g>
	</g>
	<g>
		<line fill="none" stroke="#CAC8BA" x1="104.129" y1="91.248" x2="176.113" y2="91.248"/>
		<g>
			<rect x="7.973" y="73.748" fill="#FEFDEE" width="95.656" height="35"/>
			<path fill="#CAC8BA" d="M103.129,74.248v34H8.473v-34H103.129 M104.129,73.248H7.473v36h96.656V73.248L104.129,73.248z"/>
		</g>
		<g transform="matrix(1,0,0,1,0,0)">
			<text transform="matrix(1 0 0 1 16.4727 96.0986)" fill="#020202" font-family="Arial" font-size="14">2. underlying</text>
		</g>
	</g>
	<g>
		<line fill="none" stroke="#CAC8BA" x1="125.707" y1="191.903" x2="197.689" y2="191.903"/>
		<g>
			<rect x="36.551" y="174.403" fill="#FEFDEE" width="88.656" height="35"/>
			<path fill="#CAC8BA" d="M124.707,174.903v34H37.051v-34H124.707 M125.707,173.903H36.051v36h89.656V173.903L125.707,173.903z"/>
		</g>
		<g transform="matrix(1,0,0,1,0,0)">
			<text transform="matrix(1 0 0 1 45.0498 196.7534)" fill="#020202" font-family="Arial" font-size="14">4. barrier(s)</text>
		</g>
	</g>
	<g>
		<line fill="none" stroke="#CAC8BA" x1="125.707" y1="253.129" x2="227.563" y2="253.129"/>
		<g>
			<rect x="47.551" y="235.629" fill="#FEFDEE" width="77.656" height="35"/>
			<path fill="#CAC8BA" d="M124.707,236.129v34H48.051v-34H124.707 M125.707,235.129H47.051v36h78.656V235.129L125.707,235.129z"/>
		</g>
		<g transform="matrix(1,0,0,1,0,0)">
			<text transform="matrix(1 0 0 1 58.0498 257.98)" fill="#020202" font-family="Arial" font-size="14">5. payout</text>
		</g>
	</g>
	<g>
		<line fill="none" stroke="#CAC8BA" x1="175.896" y1="130.161" x2="216.512" y2="130.161"/>
		<g>
			<rect x="86.74" y="112.661" fill="#FEFDEE" width="88.656" height="35"/>
			<path fill="#CAC8BA" d="M174.896,113.161v34H87.24v-34H174.896 M175.896,112.161H86.24v36h89.656V112.161L175.896,112.161z"/>
		</g>
		<g transform="matrix(1,0,0,1,0,0)">
			<text transform="matrix(1 0 0 1 100.2402 135.0117)" fill="#020202" font-family="Arial" font-size="14">3. duration</text>
		</g>
	</g>
</g>
</svg>
