<?xml version="1.0" encoding="utf-8"?>
<!-- Generator: Adobe Illustrator 19.1.0, SVG Export Plug-In . SVG Version: 6.00 Build 0)  -->
<svg version="1.1" id="Layer_1" xmlns="http://www.w3.org/2000/svg" xmlns:xlink="http://www.w3.org/1999/xlink" x="0px" y="0px"
	 viewBox="0 0 247 162" style="enable-background:new 0 0 247 162;" xml:space="preserve">
<style type="text/css">
	.st0{fill:#F1F2F2;stroke:#C2C2C2;stroke-width:2;stroke-miterlimit:10;}
	.st1{fill:none;stroke:#DFDEDE;stroke-miterlimit:10;}
	.st2{fill:none;stroke:#2A3052;stroke-linejoin:round;stroke-miterlimit:10;}
	.st3{opacity:5.000000e-02;fill:#2A3052;}
	.st4{font-family:'Roboto-Bold';}
	.st5{font-size:12px;}
	.st6{font-family:'Roboto-Regular';}
	.st7{font-size:11px; font-weight:bold;}
	.st8{fill:none;stroke:#2A3052;stroke-width:3;stroke-linecap:round;stroke-linejoin:round;stroke-miterlimit:10;}
	.st9{fill:#2A3052;}
	.st10{fill:#E88024;}
	.st11{fill:#6D6E71;}
	.st12{font-family:'Roboto-Italic';}
	.st13{font-size:10px;}
	.st14{fill:#FFFFFF;}
	.st15{font-size:17.7229px;}
	.st16{opacity:0.6;}
	.st17{fill:none;stroke:#E88024;stroke-width:2;stroke-miterlimit:10;}
</style>
<g>
	<rect x="1" y="1" class="st0" width="245" height="160"/>
	<g>
		<line class="st1" x1="3.2" y1="45.2" x2="244.8" y2="45.2"/>
		<line class="st1" x1="3.2" y1="61.9" x2="244.8" y2="61.9"/>
		<line class="st1" x1="3.2" y1="78.6" x2="244.8" y2="78.6"/>
		<line class="st1" x1="3.2" y1="111.9" x2="244.8" y2="111.9"/>
		<line class="st1" x1="3.2" y1="128.6" x2="244.8" y2="128.6"/>
		<line class="st1" x1="3.2" y1="145.3" x2="244.8" y2="145.3"/>
		<line class="st1" x1="32.4" y1="28.5" x2="32.4" y2="160"/>
		<line class="st1" x1="63" y1="28.5" x2="63" y2="160"/>
		<line class="st1" x1="93.5" y1="28.5" x2="93.5" y2="160"/>
		<line class="st1" x1="124.1" y1="28.5" x2="124.1" y2="160"/>
		<line class="st1" x1="154.6" y1="28.5" x2="154.6" y2="160"/>
		<line class="st1" x1="185.2" y1="28.5" x2="185.2" y2="160"/>
		<line class="st1" x1="215.7" y1="28.5" x2="215.7" y2="160"/>
		<line class="st2" x1="3.2" y1="95.2" x2="244.8" y2="95.2"/>
	</g>
	<rect x="1.6" y="27.5" class="st3" width="245" height="67.8"/>
	<line class="st0" x1="1.5" y1="27.5" x2="246.5" y2="27.5"/>
	<text transform="matrix(1 0 0 1 200.9738 18.75)" class="st6 st7">Higher</text>
	<polyline class="st8" points="32.4,128.6 58.3,81 84.7,108.8 122.3,61.9 159.9,113.9 187.3,43.4 215.7,61.9 	"/>
	<text transform="matrix(1 0 0 1 20.25 148.8337)" class="st9 st6 st5">Start</text>
	<text transform="matrix(1 0 0 1 205.6835 83.5)" class="st9 st6 st5">End</text>
	<path class="st10" d="M155.9,120.6h-29.1l-4.5-6.7l-4.5,6.7H88.6c-2.2,0-3.9,1.8-3.9,3.9v20.3c0,2.2,1.8,3.9,3.9,3.9h67.3
		c2.2,0,3.9-1.8,3.9-3.9v-20.3C159.9,122.4,158.1,120.6,155.9,120.6z"/>
	<g>
		<text transform="matrix(1 0 0 1 200.7959 108.8332)" class="st11 st12 st13">Target</text>
	</g>
	<g>
		<text transform="matrix(1 0 0 1 104.5065 141.7256)" class="st14 st4 st15">Win!</text>
	</g>
	<g>
		<g class="st16">
			<ellipse class="st14" cx="215.7" cy="61.9" rx="6.8" ry="6.9"/>
		</g>
		<g>
			<ellipse class="st17" cx="215.7" cy="61.9" rx="6.8" ry="6.9"/>
		</g>
	</g>
	<g>
		<g class="st16">
			<ellipse class="st14" cx="32.4" cy="128.6" rx="6.8" ry="6.9"/>
		</g>
		<g>
			<ellipse class="st17" cx="32.4" cy="128.6" rx="6.8" ry="6.9"/>
		</g>
	</g>
</g>
</svg>
