<?xml version="1.0" encoding="utf-8"?>
<!-- Generator: Adobe Illustrator 19.1.0, SVG Export Plug-In . SVG Version: 6.00 Build 0)  -->
<svg version="1.1" id="Layer_1" xmlns="http://www.w3.org/2000/svg" xmlns:xlink="http://www.w3.org/1999/xlink" x="0px" y="0px"
	 viewBox="0 0 247 162" style="enable-background:new 0 0 247 162;" xml:space="preserve">
<style type="text/css">
	.st0{fill:#F1F2F2;}
	.st1{fill:#C2C2C1;}
	.st2{fill:none;}
	.st3{fill:#DFDEDE;}
	.st4{opacity:0.8;}
	.st5{fill:#E88024;}
	.st6{fill:#80B4E1;}
	.st7{opacity:0.6;}
	.st8{fill:#FFFFFF;}
	.st9{opacity:5.000000e-02;}
	.st10{fill:#2A3052;}
	.st11{fill:#A7A9AC;}
	.st12{opacity:0.1;}
</style>
<g>
	<g>
		<rect x="1" y="1" class="st0" width="245" height="160"/>
		<path class="st1" d="M247,162H0V0h247V162z M2,160h243V2H2V160z"/>
	</g>
	<g>
		<rect x="1" y="1" class="st2" width="245" height="26.5"/>
	</g>
	<g>
		<rect x="34.9" y="27.5" class="st3" width="1" height="133.5"/>
	</g>
	<g>
		<rect x="211.1" y="27.5" class="st3" width="1" height="133.5"/>
	</g>
	<g>
		<rect x="1.5" y="26.5" class="st1" width="245" height="2"/>
	</g>
	<g class="st4">
		<g>
			<rect x="1.5" y="93.2" class="st5" width="1.5" height="2"/>
		</g>
		<g>
			<path class="st5" d="M242,95.2h-3v-2h3V95.2z M236,95.2h-3v-2h3V95.2z M230.1,95.2h-3v-2h3V95.2z M224.1,95.2h-3v-2h3V95.2z
				 M218.1,95.2h-3v-2h3V95.2z M212.1,95.2h-3v-2h3V95.2z M206.2,95.2h-3v-2h3V95.2z M200.2,95.2h-3v-2h3V95.2z M194.2,95.2h-3v-2h3
				V95.2z M188.2,95.2h-3v-2h3V95.2z M182.3,95.2h-3v-2h3V95.2z M176.3,95.2h-3v-2h3V95.2z M170.3,95.2h-3v-2h3V95.2z M164.3,95.2
				h-3v-2h3V95.2z M158.4,95.2h-3v-2h3V95.2z M152.4,95.2h-3v-2h3V95.2z M146.4,95.2h-3v-2h3V95.2z M140.4,95.2h-3v-2h3V95.2z
				 M134.5,95.2h-3v-2h3V95.2z M128.5,95.2h-3v-2h3V95.2z M122.5,95.2h-3v-2h3V95.2z M116.5,95.2h-3v-2h3V95.2z M110.6,95.2h-3v-2h3
				V95.2z M104.6,95.2h-3v-2h3V95.2z M98.6,95.2h-3v-2h3V95.2z M92.6,95.2h-3v-2h3V95.2z M86.7,95.2h-3v-2h3V95.2z M80.7,95.2h-3v-2
				h3V95.2z M74.7,95.2h-3v-2h3V95.2z M68.7,95.2h-3v-2h3V95.2z M62.8,95.2h-3v-2h3V95.2z M56.8,95.2h-3v-2h3V95.2z M50.8,95.2h-3
				v-2h3V95.2z M44.8,95.2h-3v-2h3V95.2z M38.9,95.2h-3v-2h3V95.2z M32.9,95.2h-3v-2h3V95.2z M26.9,95.2h-3v-2h3V95.2z M20.9,95.2
				h-3v-2h3V95.2z M15,95.2h-3v-2h3V95.2z M9,95.2H6v-2h3V95.2z"/>
		</g>
		<g>
			<rect x="245" y="93.2" class="st5" width="1.5" height="2"/>
		</g>
	</g>
	<g>
		<g>
			<path d="M21.4,18.8h-1.7v-3.5h-3.5v3.5h-1.7v-8.5h1.7v3.7h3.5v-3.7h1.7V18.8z"/>
		</g>
		<g>
			<path d="M24.7,10.9H23V9.6h1.7V10.9z M24.7,18.8H23v-6.3h1.7V18.8z"/>
		</g>
		<g>
			<path d="M25.8,15.6c0-1,0.2-1.8,0.7-2.4s1-0.9,1.8-0.9c0.4,0,0.7,0.1,0.9,0.2s0.5,0.4,0.7,0.7l0.1-0.8h1.5v6.3
				c0,0.8-0.3,1.5-0.8,1.9s-1.3,0.7-2.3,0.7c-0.3,0-0.7,0-1-0.1s-0.7-0.2-1-0.4l0.3-1.3c0.3,0.1,0.5,0.2,0.8,0.3s0.6,0.1,0.9,0.1
				c0.5,0,0.8-0.1,1-0.3s0.3-0.5,0.3-0.9v-0.6c-0.2,0.2-0.4,0.4-0.7,0.5s-0.5,0.2-0.9,0.2c-0.8,0-1.4-0.3-1.8-0.9s-0.7-1.3-0.7-2.3
				V15.6z M27.6,15.8c0,0.6,0.1,1,0.3,1.3s0.5,0.5,0.9,0.5c0.3,0,0.5,0,0.7-0.1c0.2-0.1,0.3-0.2,0.4-0.4v-2.8
				c-0.1-0.2-0.3-0.3-0.4-0.4c-0.2-0.1-0.4-0.2-0.7-0.2c-0.4,0-0.7,0.2-0.9,0.6c-0.2,0.4-0.3,0.9-0.3,1.5V15.8z"/>
		</g>
		<g>
			<path d="M34.6,13.2c0.2-0.3,0.4-0.5,0.7-0.7s0.6-0.2,1-0.2c0.7,0,1.2,0.2,1.6,0.7s0.6,1.1,0.6,2v3.8h-1.7V15c0-0.5-0.1-0.8-0.3-1
				s-0.4-0.3-0.8-0.3c-0.2,0-0.4,0-0.6,0.1c-0.2,0.1-0.3,0.2-0.4,0.4v4.7h-1.7V9.6h1.7V13.2z"/>
		</g>
		<g>
			<path d="M42.5,18.9c-0.9,0-1.6-0.3-2.2-0.9s-0.8-1.3-0.8-2.2v-0.2c0-0.9,0.3-1.7,0.8-2.3s1.2-0.9,2.1-0.9c0.9,0,1.5,0.3,2,0.8
				s0.7,1.2,0.7,2.1v0.9h-3.8l0,0c0,0.4,0.2,0.8,0.4,1s0.6,0.4,1,0.4c0.4,0,0.7,0,0.9-0.1s0.5-0.2,0.8-0.4l0.5,1.1
				c-0.3,0.2-0.6,0.4-1,0.5C43.4,18.8,43,18.9,42.5,18.9z M42.3,13.6c-0.3,0-0.6,0.1-0.8,0.4s-0.3,0.6-0.3,1l0,0h2.1v-0.2
				c0-0.4-0.1-0.7-0.3-0.9S42.7,13.6,42.3,13.6z"/>
		</g>
		<g>
			<path d="M49.3,13.9l-0.6,0c-0.3,0-0.5,0.1-0.6,0.2s-0.3,0.3-0.4,0.4v4.3H46v-6.3h1.6l0.1,0.9c0.1-0.3,0.3-0.6,0.6-0.8
				s0.5-0.3,0.8-0.3c0.1,0,0.2,0,0.2,0s0.1,0,0.2,0L49.3,13.9z"/>
		</g>
		<g>
			<path d="M51.1,19.5h-1.7l3.1-9.3h1.7L51.1,19.5z"/>
		</g>
		<g>
			<path d="M56.9,17.4h3.8v1.3h-5.5v-8.5h1.7V17.4z"/>
		</g>
		<g>
			<path d="M61.3,15.5c0-0.9,0.3-1.7,0.8-2.3s1.3-0.9,2.2-0.9c0.9,0,1.7,0.3,2.2,0.9s0.8,1.4,0.8,2.3v0.1c0,1-0.3,1.7-0.8,2.3
				s-1.3,0.9-2.2,0.9c-0.9,0-1.7-0.3-2.2-0.9s-0.8-1.4-0.8-2.3V15.5z M63,15.6c0,0.6,0.1,1,0.3,1.4c0.2,0.3,0.5,0.5,1,0.5
				c0.4,0,0.8-0.2,1-0.5c0.2-0.4,0.3-0.8,0.3-1.4v-0.1c0-0.6-0.1-1-0.3-1.4c-0.2-0.4-0.5-0.5-1-0.5c-0.4,0-0.8,0.2-1,0.5
				C63.1,14.5,63,15,63,15.5V15.6z"/>
		</g>
		<g>
			<path d="M73.8,16.5L73.8,16.5l0.9-4.1h1.6l-1.6,6.3h-1.4L72.1,15h0l-1.2,3.8h-1.4l-1.6-6.3h1.6l0.8,4.1h0l1.2-4.1h1.1L73.8,16.5z
				"/>
		</g>
		<g>
			<path d="M79.9,18.9c-0.9,0-1.6-0.3-2.2-0.9s-0.8-1.3-0.8-2.2v-0.2c0-0.9,0.3-1.7,0.8-2.3s1.2-0.9,2.1-0.9c0.9,0,1.5,0.3,2,0.8
				s0.7,1.2,0.7,2.1v0.9h-3.8l0,0c0,0.4,0.2,0.8,0.4,1s0.6,0.4,1,0.4c0.4,0,0.7,0,0.9-0.1s0.5-0.2,0.8-0.4l0.5,1.1
				c-0.3,0.2-0.6,0.4-1,0.5C80.9,18.8,80.5,18.9,79.9,18.9z M79.8,13.6c-0.3,0-0.6,0.1-0.8,0.4s-0.3,0.6-0.3,1l0,0h2.1v-0.2
				c0-0.4-0.1-0.7-0.3-0.9S80.1,13.6,79.8,13.6z"/>
		</g>
		<g>
			<path d="M86.8,13.9l-0.6,0c-0.3,0-0.5,0.1-0.6,0.2s-0.3,0.3-0.4,0.4v4.3h-1.7v-6.3h1.6l0.1,0.9c0.1-0.3,0.3-0.6,0.6-0.8
				s0.5-0.3,0.8-0.3c0.1,0,0.2,0,0.2,0s0.1,0,0.2,0L86.8,13.9z"/>
		</g>
	</g>
	<g>
		<g>
			<path d="M205.6,17.9h3.7v0.8h-4.8v-7.8h1.1V17.9z"/>
		</g>
		<g>
			<path d="M210,15.8c0-0.9,0.2-1.6,0.7-2.1c0.5-0.6,1.1-0.8,1.9-0.8c0.8,0,1.4,0.3,1.9,0.8c0.5,0.6,0.7,1.3,0.7,2.1v0.1
				c0,0.9-0.2,1.6-0.7,2.1c-0.5,0.6-1.1,0.8-1.9,0.8c-0.8,0-1.4-0.3-1.9-0.8c-0.5-0.6-0.7-1.3-0.7-2.1V15.8z M211.1,15.9
				c0,0.6,0.1,1.1,0.4,1.5s0.6,0.6,1.2,0.6c0.5,0,0.9-0.2,1.1-0.6c0.3-0.4,0.4-0.9,0.4-1.5v-0.1c0-0.6-0.1-1.1-0.4-1.5
				c-0.3-0.4-0.6-0.6-1.2-0.6c-0.5,0-0.9,0.2-1.1,0.6c-0.3,0.4-0.4,0.9-0.4,1.5V15.9z"/>
		</g>
		<g>
			<path d="M218,16.6l0.1,0.7h0l0.2-0.7l1.2-3.7h0.8l1.2,3.7l0.2,0.8h0l0.2-0.8l0.9-3.7h1.1l-1.7,5.8h-0.9l-1.1-3.5l-0.2-1l0,0
				l-0.2,1l-1.1,3.5h-0.9l-1.7-5.8h1.1L218,16.6z"/>
		</g>
		<g>
			<path d="M227.3,18.9c-0.8,0-1.5-0.3-1.9-0.8c-0.5-0.5-0.7-1.2-0.7-2.1v-0.2c0-0.8,0.2-1.5,0.7-2.1c0.5-0.5,1.1-0.8,1.7-0.8
				c0.8,0,1.4,0.2,1.8,0.7c0.4,0.5,0.6,1.1,0.6,1.9v0.7h-3.8l0,0c0,0.6,0.2,1,0.4,1.4c0.3,0.4,0.7,0.5,1.1,0.5
				c0.4,0,0.7-0.1,0.9-0.2c0.3-0.1,0.5-0.2,0.7-0.4l0.4,0.7c-0.2,0.2-0.5,0.4-0.8,0.5C228.2,18.8,227.8,18.9,227.3,18.9z
				 M227.1,13.7c-0.4,0-0.7,0.1-0.9,0.4c-0.3,0.3-0.4,0.7-0.5,1.1l0,0h2.7v-0.1c0-0.4-0.1-0.8-0.3-1
				C227.9,13.8,227.6,13.7,227.1,13.7z"/>
		</g>
		<g>
			<path d="M233.4,13.9l-0.5,0c-0.3,0-0.5,0.1-0.7,0.2c-0.2,0.1-0.3,0.3-0.4,0.6v4.2h-1.1v-5.8h0.9l0.1,0.8c0.2-0.3,0.4-0.5,0.6-0.7
				c0.2-0.2,0.5-0.3,0.8-0.3c0.1,0,0.2,0,0.2,0c0.1,0,0.1,0,0.2,0L233.4,13.9z"/>
		</g>
	</g>
	<g>
		<g>
			<path class="st6" d="M211.6,113.9c-0.1,0-0.3,0-0.4-0.1l-24-11.7c-0.1,0-0.2-0.1-0.3-0.2l-32.8-32.8l-23.5,23.5
				c-0.4,0.4-1,0.4-1.4,0l-14.1-14.1l-9.8,9.8c-0.4,0.4-1,0.4-1.4,0L88.1,72.4l-22,31.1c-0.2,0.3-0.5,0.4-0.9,0.4
				c-0.3,0-0.6-0.2-0.8-0.5l-30-51.2c-0.3-0.5-0.1-1.1,0.4-1.4s1.1-0.1,1.4,0.4l29.2,49.8l21.8-30.8c0.2-0.2,0.4-0.4,0.7-0.4
				c0.3,0,0.6,0.1,0.8,0.3l16,16l9.8-9.8c0.4-0.4,1-0.4,1.4,0L130,90.5L153.5,67c0.4-0.4,1-0.4,1.4,0l33.4,33.4l23.8,11.6
				c0.5,0.2,0.7,0.8,0.5,1.3C212.4,113.7,212,113.9,211.6,113.9z"/>
		</g>
		<g>
			<g class="st7">
				<ellipse class="st8" cx="35.4" cy="51.7" rx="4.9" ry="5.1"/>
				<path class="st5" d="M35.4,57.4c-3.1,0-5.6-2.5-5.6-5.7s2.5-5.7,5.6-5.7s5.6,2.5,5.6,5.7S38.4,57.4,35.4,57.4z M35.4,47.3
					c-2.4,0-4.3,2-4.3,4.4s1.9,4.4,4.3,4.4s4.3-2,4.3-4.4S37.7,47.3,35.4,47.3z"/>
			</g>
			<g>
				<circle class="st5" cx="35.4" cy="51.7" r="2.8"/>
			</g>
		</g>
		<g class="st9">
			<circle class="st10" cx="211.6" cy="112.9" r="17"/>
		</g>
		<g class="st9">
			<circle class="st10" cx="211.6" cy="112.9" r="12.5"/>
		</g>
		<g>
			<g class="st7">
				<ellipse class="st8" cx="211.6" cy="112.9" rx="4.9" ry="5.1"/>
				<path class="st5" d="M211.6,118.6c-3.1,0-5.6-2.5-5.6-5.7s2.5-5.7,5.6-5.7s5.6,2.5,5.6,5.7S214.7,118.6,211.6,118.6z
					 M211.6,108.4c-2.4,0-4.3,2-4.3,4.4s1.9,4.4,4.3,4.4s4.3-2,4.3-4.4S214,108.4,211.6,108.4z"/>
			</g>
			<g>
				<circle class="st5" cx="211.6" cy="112.9" r="2.8"/>
			</g>
		</g>
	</g>
	<g>
		<g>
			<path class="st11" d="M28.5,41.1c0-0.3-0.1-0.6-0.4-0.8c-0.2-0.2-0.7-0.4-1.3-0.6c-0.8-0.2-1.3-0.4-1.8-0.8
				c-0.4-0.3-0.6-0.8-0.6-1.3c0-0.6,0.2-1,0.7-1.4s1-0.6,1.8-0.6c0.8,0,1.4,0.2,1.9,0.6c0.5,0.4,0.7,0.9,0.7,1.5l0,0h-0.9
				c0-0.4-0.1-0.8-0.4-1c-0.3-0.3-0.7-0.4-1.2-0.4c-0.5,0-0.8,0.1-1.1,0.3c-0.3,0.2-0.4,0.5-0.4,0.8c0,0.3,0.1,0.6,0.4,0.8
				c0.3,0.2,0.7,0.4,1.3,0.5c0.7,0.2,1.3,0.5,1.7,0.8s0.6,0.8,0.6,1.3c0,0.6-0.2,1-0.7,1.4S27.7,43,26.9,43c-0.7,0-1.3-0.2-1.9-0.6
				c-0.5-0.4-0.8-0.9-0.8-1.5l0,0h0.9c0,0.5,0.2,0.8,0.5,1c0.3,0.2,0.8,0.4,1.2,0.4c0.5,0,0.9-0.1,1.2-0.3S28.5,41.5,28.5,41.1z"/>
		</g>
		<g>
			<path class="st11" d="M32,36.4v1.3h1v0.7h-1v3.2c0,0.2,0.1,0.4,0.2,0.5s0.2,0.2,0.4,0.2c0.1,0,0.1,0,0.2,0c0.1,0,0.1,0,0.2,0
				l0.1,0.7c-0.1,0.1-0.2,0.1-0.3,0.1c-0.1,0-0.3,0.1-0.4,0.1c-0.4,0-0.7-0.1-0.9-0.4c-0.2-0.2-0.3-0.6-0.3-1.1v-3.2h-0.8v-0.7H31
				v-1.3H32z"/>
		</g>
		<g>
			<path class="st11" d="M37.4,42.9c0-0.2-0.1-0.3-0.1-0.4c0-0.1,0-0.2,0-0.4c-0.2,0.3-0.4,0.5-0.7,0.6C36.3,42.9,36,43,35.6,43
				c-0.5,0-1-0.1-1.3-0.4c-0.3-0.3-0.4-0.7-0.4-1.2c0-0.5,0.2-0.9,0.6-1.2c0.4-0.3,1-0.4,1.7-0.4h1v-0.5c0-0.3-0.1-0.6-0.3-0.7
				c-0.2-0.2-0.5-0.3-0.8-0.3c-0.3,0-0.6,0.1-0.8,0.2c-0.2,0.2-0.3,0.3-0.3,0.6h-0.9l0,0c0-0.4,0.2-0.7,0.5-1.1
				c0.4-0.3,0.9-0.5,1.5-0.5c0.6,0,1.1,0.2,1.4,0.5c0.4,0.3,0.5,0.7,0.5,1.3v2.5c0,0.2,0,0.4,0,0.5s0.1,0.3,0.1,0.5H37.4z
				 M35.8,42.2c0.3,0,0.7-0.1,0.9-0.3c0.3-0.2,0.5-0.4,0.5-0.6v-0.9h-1.1c-0.4,0-0.7,0.1-0.9,0.3c-0.2,0.2-0.3,0.4-0.3,0.7
				c0,0.2,0.1,0.4,0.2,0.6C35.3,42.2,35.5,42.2,35.8,42.2z"/>
		</g>
		<g>
			<path class="st11" d="M42.1,38.5l-0.5,0c-0.3,0-0.5,0.1-0.6,0.2c-0.2,0.1-0.3,0.3-0.4,0.5v3.8h-1v-5.3h0.9l0.1,0.8
				c0.2-0.3,0.3-0.5,0.6-0.6s0.5-0.2,0.8-0.2c0.1,0,0.1,0,0.2,0c0.1,0,0.1,0,0.2,0L42.1,38.5z"/>
		</g>
		<g>
			<path class="st11" d="M44.4,36.4v1.3h1v0.7h-1v3.2c0,0.2,0.1,0.4,0.2,0.5s0.2,0.2,0.4,0.2c0.1,0,0.1,0,0.2,0c0.1,0,0.1,0,0.2,0
				l0.1,0.7c-0.1,0.1-0.2,0.1-0.3,0.1C45,43,44.9,43,44.7,43c-0.4,0-0.7-0.1-0.9-0.4c-0.2-0.2-0.3-0.6-0.3-1.1v-3.2h-0.8v-0.7h0.8
				v-1.3H44.4z"/>
		</g>
	</g>
	<g>
		<g>
			<path class="st11" d="M208.1,135.8h-3.3v2.5h3.8v0.8h-4.7V132h4.7v0.8h-3.7v2.3h3.3V135.8z"/>
		</g>
		<g>
			<path class="st11" d="M210.4,133.8l0.1,0.8c0.2-0.3,0.4-0.5,0.7-0.7c0.3-0.2,0.6-0.2,0.9-0.2c0.6,0,1,0.2,1.3,0.5
				c0.3,0.3,0.5,0.8,0.5,1.5v3.3h-1v-3.3c0-0.5-0.1-0.8-0.3-1c-0.2-0.2-0.5-0.3-0.8-0.3c-0.3,0-0.5,0.1-0.7,0.2
				c-0.2,0.1-0.4,0.3-0.5,0.5v3.9h-1v-5.3H210.4z"/>
		</g>
		<g>
			<path class="st11" d="M215,136.5c0-0.8,0.2-1.5,0.5-2.1c0.4-0.5,0.9-0.8,1.5-0.8c0.3,0,0.6,0.1,0.8,0.2s0.4,0.3,0.6,0.5v-2.9h1
				v7.6h-0.8l-0.1-0.6c-0.2,0.2-0.4,0.4-0.6,0.6c-0.2,0.1-0.5,0.2-0.9,0.2c-0.6,0-1.1-0.2-1.5-0.7c-0.4-0.5-0.5-1.1-0.5-1.8V136.5z
				 M216,136.6c0,0.5,0.1,1,0.3,1.3c0.2,0.3,0.6,0.5,1,0.5c0.3,0,0.5-0.1,0.7-0.2s0.4-0.3,0.5-0.5v-2.5c-0.1-0.2-0.3-0.4-0.5-0.5
				c-0.2-0.1-0.4-0.2-0.7-0.2c-0.5,0-0.8,0.2-1,0.6s-0.3,0.9-0.3,1.5V136.6z"/>
		</g>
	</g>
	<g>
		<g>
			<path class="st11" d="M204.2,32.6h-2.3v6.4h-1v-6.4h-2.3v-0.8h5.5V32.6z"/>
		</g>
		<g>
			<path class="st11" d="M207.9,38.9c0-0.2-0.1-0.3-0.1-0.4c0-0.1,0-0.2,0-0.4c-0.2,0.3-0.4,0.5-0.7,0.6c-0.3,0.2-0.6,0.3-0.9,0.3
				c-0.6,0-1-0.1-1.3-0.4c-0.3-0.3-0.4-0.7-0.4-1.2c0-0.5,0.2-0.9,0.6-1.2c0.4-0.3,1-0.4,1.7-0.4h1v-0.5c0-0.3-0.1-0.6-0.3-0.7
				c-0.2-0.2-0.5-0.3-0.8-0.3c-0.3,0-0.6,0.1-0.8,0.2c-0.2,0.2-0.3,0.3-0.3,0.6h-0.9l0,0c0-0.4,0.2-0.7,0.5-1.1
				c0.4-0.3,0.9-0.5,1.5-0.5c0.6,0,1.1,0.2,1.4,0.5c0.4,0.3,0.5,0.7,0.5,1.3v2.5c0,0.2,0,0.4,0,0.5s0.1,0.3,0.1,0.5H207.9z
				 M206.3,38.2c0.3,0,0.7-0.1,0.9-0.3c0.3-0.2,0.5-0.4,0.5-0.6v-0.9h-1.1c-0.4,0-0.7,0.1-0.9,0.3c-0.2,0.2-0.3,0.4-0.3,0.7
				c0,0.2,0.1,0.4,0.2,0.6C205.8,38.1,206,38.2,206.3,38.2z"/>
		</g>
		<g>
			<path class="st11" d="M212.6,34.5l-0.5,0c-0.3,0-0.5,0.1-0.6,0.2c-0.2,0.1-0.3,0.3-0.4,0.5v3.8h-1v-5.3h0.9l0.1,0.8
				c0.1-0.3,0.3-0.5,0.6-0.6s0.5-0.2,0.8-0.2c0.1,0,0.1,0,0.2,0c0.1,0,0.1,0,0.2,0L212.6,34.5z"/>
		</g>
		<g>
			<path class="st11" d="M213.2,36.4c0-0.8,0.2-1.5,0.6-2.1s0.9-0.8,1.5-0.8c0.3,0,0.6,0.1,0.9,0.2c0.3,0.1,0.5,0.3,0.6,0.6l0.1-0.7
				h0.8v5.3c0,0.7-0.2,1.2-0.6,1.6c-0.4,0.4-1,0.5-1.7,0.5c-0.3,0-0.5,0-0.8-0.1c-0.3-0.1-0.6-0.2-0.8-0.3l0.2-0.7
				c0.2,0.1,0.4,0.2,0.6,0.2c0.2,0.1,0.5,0.1,0.7,0.1c0.5,0,0.8-0.1,1-0.3c0.2-0.2,0.3-0.5,0.3-1v-0.6c-0.2,0.2-0.4,0.4-0.6,0.5
				c-0.2,0.1-0.5,0.2-0.8,0.2c-0.6,0-1.2-0.2-1.5-0.7s-0.6-1.1-0.6-1.8V36.4z M214.2,36.5c0,0.5,0.1,1,0.3,1.3s0.6,0.5,1,0.5
				c0.3,0,0.5-0.1,0.7-0.2c0.2-0.1,0.4-0.3,0.5-0.6V35c-0.1-0.2-0.3-0.4-0.5-0.5c-0.2-0.1-0.4-0.2-0.7-0.2c-0.5,0-0.8,0.2-1,0.6
				c-0.2,0.4-0.3,0.9-0.3,1.5V36.5z"/>
		</g>
		<g>
			<path class="st11" d="M221.3,39c-0.7,0-1.3-0.2-1.8-0.7c-0.4-0.5-0.7-1.1-0.7-1.9v-0.2c0-0.8,0.2-1.4,0.7-1.9
				c0.4-0.5,1-0.8,1.6-0.8c0.7,0,1.3,0.2,1.6,0.6c0.4,0.4,0.5,1,0.5,1.7v0.6h-3.4l0,0c0,0.5,0.1,0.9,0.4,1.2c0.2,0.3,0.6,0.5,1,0.5
				c0.3,0,0.6,0,0.9-0.1c0.2-0.1,0.5-0.2,0.6-0.4l0.4,0.6c-0.2,0.2-0.4,0.3-0.7,0.5C222.1,39,221.8,39,221.3,39z M221.2,34.3
				c-0.3,0-0.6,0.1-0.8,0.4c-0.2,0.3-0.4,0.6-0.4,1l0,0h2.4v-0.1c0-0.4-0.1-0.7-0.3-0.9C221.9,34.4,221.6,34.3,221.2,34.3z"/>
		</g>
		<g>
			<path class="st11" d="M225.7,32.4v1.3h1v0.7h-1v3.2c0,0.2,0.1,0.4,0.2,0.5s0.2,0.2,0.4,0.2c0.1,0,0.1,0,0.2,0c0.1,0,0.1,0,0.2,0
				l0.1,0.7c-0.1,0.1-0.2,0.1-0.3,0.1c-0.1,0-0.3,0.1-0.4,0.1c-0.4,0-0.7-0.1-0.9-0.4c-0.2-0.2-0.3-0.6-0.3-1.1v-3.2h-0.8v-0.7h0.8
				v-1.3H225.7z"/>
		</g>
	</g>
	<g>
		<g class="st12">
			<path class="st10" d="M177,128.4h-45.2c-2.2,0-4-1.8-4-4V105c0-2.2,1.8-4,4-4H177c2.2,0,4,1.8,4,4v19.3
				C181,126.6,179.2,128.4,177,128.4z"/>
		</g>
		<g>
			<path class="st5" d="M175.8,127.2h-45.2c-2.2,0-4-1.8-4-4v-19.3c0-2.2,1.8-4,4-4h45.2c2.2,0,4,1.8,4,4v19.3
				C179.8,125.4,178,127.2,175.8,127.2z"/>
		</g>
		<g class="st12">
			<g>
				<path class="st10" d="M146.1,116.8L146.1,116.8l1.9-8.8h2.5l-3,12.8h-2.4l-2.3-8.4h-0.1l-2.3,8.4H138l-3-12.8h2.5l1.8,8.8l0.1,0
					l2.4-8.8h1.9L146.1,116.8z"/>
			</g>
			<g>
				<path class="st10" d="M154.7,120.8h-2.6V108h2.6V120.8z"/>
			</g>
			<g>
				<path class="st10" d="M167.6,120.8H165l-5.2-8.7l-0.1,0v8.7h-2.6V108h2.6l5.2,8.7l0.1,0V108h2.6V120.8z"/>
			</g>
			<g>
				<path class="st10" d="M172.5,116.4h-2.6V108h2.6V116.4z M172.5,120.8h-2.6v-2.2h2.6V120.8z"/>
			</g>
		</g>
		<g>
			<g>
				<path class="st8" d="M145.1,115.8L145.1,115.8l1.9-8.8h2.5l-3,12.8h-2.4l-2.3-8.4h-0.1l-2.3,8.4H137l-3-12.8h2.5l1.8,8.8l0.1,0
					l2.4-8.8h1.9L145.1,115.8z"/>
			</g>
			<g>
				<path class="st8" d="M153.7,119.8h-2.6V107h2.6V119.8z"/>
			</g>
			<g>
				<path class="st8" d="M166.6,119.8H164l-5.2-8.7l-0.1,0v8.7h-2.6V107h2.6l5.2,8.7l0.1,0V107h2.6V119.8z"/>
			</g>
			<g>
				<path class="st8" d="M171.5,115.4h-2.6V107h2.6V115.4z M171.5,119.8h-2.6v-2.2h2.6V119.8z"/>
			</g>
		</g>
	</g>
	<g>
		<rect x="177.2" y="111.3" class="st5" width="34.4" height="2"/>
	</g>
</g>
</svg>
