<?xml version="1.0" encoding="utf-8"?>
<!-- Generator: Adobe Illustrator 19.1.0, SVG Export Plug-In . SVG Version: 6.00 Build 0)  -->
<svg version="1.1" id="Layer_1" xmlns="http://www.w3.org/2000/svg" xmlns:xlink="http://www.w3.org/1999/xlink" x="0px" y="0px"
	 viewBox="0 0 247 162" style="enable-background:new 0 0 247 162;" xml:space="preserve">
<style type="text/css">
	.st0{fill:#F1F2F2;}
	.st1{fill:#C2C2C1;}
	.st2{fill:#A7A9AC;}
	.st3{fill:none;}
	.st4{fill:#DFDEDE;}
	.st5{opacity:0.8;}
	.st6{fill:#E88024;}
	.st7{fill:#80B4E1;}
	.st8{opacity:0.6;}
	.st9{fill:#FFFFFF;}
	.st10{opacity:5.000000e-02;}
	.st11{fill:#2A3052;}
	.st12{opacity:0.1;}
</style>
<g>
	<g>
		<rect x="1" y="1" class="st0" width="245" height="160"/>
		<path class="st1" d="M247,162H0V0h247V162z M2,160h243V2H2V160z"/>
	</g>
	<g>
		<g>
			<path class="st2" d="M20,47.3h-1v-3.1h-3.5v3.1h-1v-7.1h1v3.2H19v-3.2h1V47.3z"/>
		</g>
		<g>
			<path class="st2" d="M22.6,40.6h-1v-1h1V40.6z M22.6,47.3h-1V42h1V47.3z"/>
		</g>
		<g>
			<path class="st2" d="M23.9,44.7c0-0.8,0.2-1.5,0.6-2.1s0.9-0.8,1.5-0.8c0.3,0,0.6,0.1,0.9,0.2c0.3,0.1,0.5,0.3,0.6,0.6l0.1-0.7
				h0.8v5.3c0,0.7-0.2,1.2-0.6,1.6c-0.4,0.4-1,0.5-1.7,0.5c-0.3,0-0.5,0-0.8-0.1c-0.3-0.1-0.6-0.2-0.8-0.3l0.2-0.7
				c0.2,0.1,0.4,0.2,0.6,0.2c0.2,0.1,0.5,0.1,0.7,0.1c0.5,0,0.8-0.1,1-0.3c0.2-0.2,0.3-0.5,0.3-1v-0.6c-0.2,0.2-0.4,0.4-0.6,0.5
				c-0.2,0.1-0.5,0.2-0.8,0.2c-0.6,0-1.2-0.2-1.5-0.7s-0.6-1.1-0.6-1.8V44.7z M24.9,44.8c0,0.5,0.1,1,0.3,1.3s0.6,0.5,1,0.5
				c0.3,0,0.5-0.1,0.7-0.2c0.2-0.1,0.4-0.3,0.5-0.6v-2.4c-0.1-0.2-0.3-0.4-0.5-0.5c-0.2-0.1-0.4-0.2-0.7-0.2c-0.5,0-0.8,0.2-1,0.6
				c-0.2,0.4-0.3,0.9-0.3,1.5V44.8z"/>
		</g>
		<g>
			<path class="st2" d="M30.7,42.7c0.2-0.3,0.4-0.5,0.7-0.6c0.3-0.1,0.6-0.2,0.9-0.2c0.6,0,1,0.2,1.3,0.5c0.3,0.3,0.5,0.9,0.5,1.6
				v3.3h-1V44c0-0.4-0.1-0.8-0.3-1c-0.2-0.2-0.5-0.3-0.8-0.3c-0.3,0-0.5,0.1-0.7,0.2c-0.2,0.1-0.4,0.3-0.5,0.5v3.9h-1v-7.6h1V42.7z"
				/>
		</g>
		<g>
			<path class="st2" d="M42.9,40.9h-2.3v6.4h-1v-6.4h-2.3v-0.8h5.5V40.9z"/>
		</g>
		<g>
			<path class="st2" d="M46.7,47.3c0-0.2-0.1-0.3-0.1-0.4c0-0.1,0-0.2,0-0.4c-0.2,0.3-0.4,0.5-0.7,0.6c-0.3,0.2-0.6,0.3-0.9,0.3
				c-0.5,0-1-0.1-1.3-0.4c-0.3-0.3-0.4-0.7-0.4-1.2c0-0.5,0.2-0.9,0.6-1.2c0.4-0.3,1-0.4,1.7-0.4h1v-0.5c0-0.3-0.1-0.6-0.3-0.7
				c-0.2-0.2-0.5-0.3-0.8-0.3c-0.3,0-0.6,0.1-0.8,0.2c-0.2,0.2-0.3,0.3-0.3,0.6h-0.9l0,0c0-0.4,0.2-0.7,0.5-1.1
				c0.4-0.3,0.9-0.5,1.5-0.5c0.6,0,1.1,0.2,1.4,0.5c0.4,0.3,0.5,0.7,0.5,1.3v2.5c0,0.2,0,0.4,0,0.5s0.1,0.3,0.1,0.5H46.7z
				 M45.1,46.6c0.3,0,0.7-0.1,0.9-0.3c0.3-0.2,0.5-0.4,0.5-0.6v-0.9h-1.1c-0.4,0-0.7,0.1-0.9,0.3c-0.2,0.2-0.3,0.4-0.3,0.7
				c0,0.2,0.1,0.4,0.2,0.6C44.6,46.5,44.8,46.6,45.1,46.6z"/>
		</g>
		<g>
			<path class="st2" d="M51.4,42.8l-0.5,0c-0.3,0-0.5,0.1-0.6,0.2c-0.2,0.1-0.3,0.3-0.4,0.5v3.8h-1V42h0.9l0.1,0.8
				c0.2-0.3,0.3-0.5,0.6-0.6s0.5-0.2,0.8-0.2c0.1,0,0.1,0,0.2,0c0.1,0,0.1,0,0.2,0L51.4,42.8z"/>
		</g>
		<g>
			<path class="st2" d="M52,44.7c0-0.8,0.2-1.5,0.6-2.1s0.9-0.8,1.5-0.8c0.3,0,0.6,0.1,0.9,0.2c0.3,0.1,0.5,0.3,0.6,0.6l0.1-0.7h0.8
				v5.3c0,0.7-0.2,1.2-0.6,1.6c-0.4,0.4-1,0.5-1.7,0.5c-0.3,0-0.5,0-0.8-0.1c-0.3-0.1-0.6-0.2-0.8-0.3l0.2-0.7
				c0.2,0.1,0.4,0.2,0.6,0.2c0.2,0.1,0.5,0.1,0.7,0.1c0.5,0,0.8-0.1,1-0.3c0.2-0.2,0.3-0.5,0.3-1v-0.6c-0.2,0.2-0.4,0.4-0.6,0.5
				c-0.2,0.1-0.5,0.2-0.8,0.2c-0.6,0-1.2-0.2-1.5-0.7S52,45.6,52,44.8V44.7z M53,44.8c0,0.5,0.1,1,0.3,1.3s0.6,0.5,1,0.5
				c0.3,0,0.5-0.1,0.7-0.2c0.2-0.1,0.4-0.3,0.5-0.6v-2.4c-0.1-0.2-0.3-0.4-0.5-0.5c-0.2-0.1-0.4-0.2-0.7-0.2c-0.5,0-0.8,0.2-1,0.6
				c-0.2,0.4-0.3,0.9-0.3,1.5V44.8z"/>
		</g>
		<g>
			<path class="st2" d="M60.1,47.4c-0.7,0-1.3-0.2-1.8-0.7c-0.4-0.5-0.7-1.1-0.7-1.9v-0.2c0-0.8,0.2-1.4,0.7-1.9
				c0.4-0.5,1-0.8,1.6-0.8c0.7,0,1.3,0.2,1.6,0.6c0.4,0.4,0.5,1,0.5,1.7v0.6h-3.4l0,0c0,0.5,0.1,0.9,0.4,1.2c0.2,0.3,0.6,0.5,1,0.5
				c0.3,0,0.6,0,0.9-0.1c0.2-0.1,0.5-0.2,0.6-0.4l0.4,0.6c-0.2,0.2-0.4,0.3-0.7,0.5C60.9,47.3,60.6,47.4,60.1,47.4z M60,42.6
				c-0.3,0-0.6,0.1-0.8,0.4c-0.2,0.3-0.4,0.6-0.4,1l0,0h2.4V44c0-0.4-0.1-0.7-0.3-0.9C60.7,42.8,60.4,42.6,60,42.6z"/>
		</g>
		<g>
			<path class="st2" d="M64.5,40.7V42h1v0.7h-1v3.2c0,0.2,0.1,0.4,0.2,0.5s0.2,0.2,0.4,0.2c0.1,0,0.1,0,0.2,0c0.1,0,0.1,0,0.2,0
				l0.1,0.7c-0.1,0.1-0.2,0.1-0.3,0.1c-0.1,0-0.3,0.1-0.4,0.1c-0.4,0-0.7-0.1-0.9-0.4c-0.2-0.2-0.3-0.6-0.3-1.1v-3.2h-0.8V42h0.8
				v-1.3H64.5z"/>
		</g>
	</g>
	<g>
		<g>
			<path class="st2" d="M15.6,147.3H19v0.8h-4.3V141h1V147.3z"/>
		</g>
		<g>
			<path class="st2" d="M19.6,145.4c0-0.8,0.2-1.4,0.6-1.9c0.4-0.5,1-0.8,1.7-0.8c0.7,0,1.3,0.3,1.7,0.8s0.6,1.1,0.6,1.9v0.1
				c0,0.8-0.2,1.4-0.6,1.9c-0.4,0.5-1,0.8-1.7,0.8c-0.7,0-1.3-0.3-1.7-0.8c-0.4-0.5-0.6-1.1-0.6-1.9V145.4z M20.6,145.5
				c0,0.6,0.1,1,0.4,1.4c0.2,0.4,0.6,0.5,1.1,0.5c0.5,0,0.8-0.2,1-0.5c0.2-0.4,0.4-0.8,0.4-1.4v-0.1c0-0.6-0.1-1-0.4-1.4
				c-0.2-0.4-0.6-0.6-1.1-0.6c-0.5,0-0.8,0.2-1,0.6c-0.2,0.4-0.4,0.8-0.4,1.4V145.5z"/>
		</g>
		<g>
			<path class="st2" d="M26.9,146.1l0.1,0.6h0l0.1-0.6l1.1-3.4H29l1.1,3.4l0.2,0.7h0l0.1-0.7l0.8-3.4h1l-1.5,5.3h-0.8l-1-3.2
				l-0.2-0.9l0,0l-0.2,0.9l-1,3.2h-0.8l-1.5-5.3h1L26.9,146.1z"/>
		</g>
		<g>
			<path class="st2" d="M40.6,141.7h-2.3v6.4h-1v-6.4h-2.3V141h5.5V141.7z"/>
		</g>
		<g>
			<path class="st2" d="M44.3,148.1c0-0.2-0.1-0.3-0.1-0.4c0-0.1,0-0.2,0-0.4c-0.2,0.3-0.4,0.5-0.7,0.6c-0.3,0.2-0.6,0.3-0.9,0.3
				c-0.5,0-1-0.1-1.3-0.4c-0.3-0.3-0.4-0.7-0.4-1.2c0-0.5,0.2-0.9,0.6-1.2c0.4-0.3,1-0.4,1.7-0.4h1v-0.5c0-0.3-0.1-0.6-0.3-0.7
				c-0.2-0.2-0.5-0.3-0.8-0.3c-0.3,0-0.6,0.1-0.8,0.2c-0.2,0.2-0.3,0.3-0.3,0.6h-0.9l0,0c0-0.4,0.2-0.7,0.5-1.1
				c0.4-0.3,0.9-0.5,1.5-0.5c0.6,0,1.1,0.2,1.4,0.5c0.4,0.3,0.5,0.7,0.5,1.3v2.5c0,0.2,0,0.4,0,0.5s0.1,0.3,0.1,0.5H44.3z
				 M42.7,147.4c0.3,0,0.7-0.1,0.9-0.3c0.3-0.2,0.5-0.4,0.5-0.6v-0.9h-1.1c-0.4,0-0.7,0.1-0.9,0.3c-0.2,0.2-0.3,0.4-0.3,0.7
				c0,0.2,0.1,0.4,0.2,0.6C42.2,147.3,42.4,147.4,42.7,147.4z"/>
		</g>
		<g>
			<path class="st2" d="M49,143.6l-0.5,0c-0.3,0-0.5,0.1-0.6,0.2c-0.2,0.1-0.3,0.3-0.4,0.5v3.8h-1v-5.3h0.9l0.1,0.8
				c0.2-0.3,0.3-0.5,0.6-0.6s0.5-0.2,0.8-0.2c0.1,0,0.1,0,0.2,0c0.1,0,0.1,0,0.2,0L49,143.6z"/>
		</g>
		<g>
			<path class="st2" d="M49.7,145.5c0-0.8,0.2-1.5,0.6-2.1s0.9-0.8,1.5-0.8c0.3,0,0.6,0.1,0.9,0.2c0.3,0.1,0.5,0.3,0.6,0.6l0.1-0.7
				h0.8v5.3c0,0.7-0.2,1.2-0.6,1.6c-0.4,0.4-1,0.5-1.7,0.5c-0.3,0-0.5,0-0.8-0.1c-0.3-0.1-0.6-0.2-0.8-0.3l0.2-0.7
				c0.2,0.1,0.4,0.2,0.6,0.2c0.2,0.1,0.5,0.1,0.7,0.1c0.5,0,0.8-0.1,1-0.3c0.2-0.2,0.3-0.5,0.3-1v-0.6c-0.2,0.2-0.4,0.4-0.6,0.5
				c-0.2,0.1-0.5,0.2-0.8,0.2c-0.6,0-1.2-0.2-1.5-0.7s-0.6-1.1-0.6-1.8V145.5z M50.6,145.6c0,0.5,0.1,1,0.3,1.3s0.6,0.5,1,0.5
				c0.3,0,0.5-0.1,0.7-0.2c0.2-0.1,0.4-0.3,0.5-0.6v-2.4c-0.1-0.2-0.3-0.4-0.5-0.5c-0.2-0.1-0.4-0.2-0.7-0.2c-0.5,0-0.8,0.2-1,0.6
				c-0.2,0.4-0.3,0.9-0.3,1.5V145.6z"/>
		</g>
		<g>
			<path class="st2" d="M57.7,148.2c-0.7,0-1.3-0.2-1.8-0.7c-0.4-0.5-0.7-1.1-0.7-1.9v-0.2c0-0.8,0.2-1.4,0.7-1.9
				c0.4-0.5,1-0.8,1.6-0.8c0.7,0,1.3,0.2,1.6,0.6c0.4,0.4,0.5,1,0.5,1.7v0.6h-3.4l0,0c0,0.5,0.1,0.9,0.4,1.2c0.2,0.3,0.6,0.5,1,0.5
				c0.3,0,0.6,0,0.9-0.1c0.2-0.1,0.5-0.2,0.6-0.4l0.4,0.6c-0.2,0.2-0.4,0.3-0.7,0.5C58.6,148.1,58.2,148.2,57.7,148.2z M57.6,143.4
				c-0.3,0-0.6,0.1-0.8,0.4c-0.2,0.3-0.4,0.6-0.4,1l0,0h2.4v-0.1c0-0.4-0.1-0.7-0.3-0.9C58.3,143.6,58,143.4,57.6,143.4z"/>
		</g>
		<g>
			<path class="st2" d="M62.1,141.5v1.3h1v0.7h-1v3.2c0,0.2,0.1,0.4,0.2,0.5s0.2,0.2,0.4,0.2c0.1,0,0.1,0,0.2,0c0.1,0,0.1,0,0.2,0
				l0.1,0.7c-0.1,0.1-0.2,0.1-0.3,0.1c-0.1,0-0.3,0.1-0.4,0.1c-0.4,0-0.7-0.1-0.9-0.4c-0.2-0.2-0.3-0.6-0.3-1.1v-3.2h-0.8v-0.7h0.8
				v-1.3H62.1z"/>
		</g>
	</g>
	<g>
		<rect x="1" y="1" class="st3" width="245" height="26.5"/>
	</g>
	<g>
		<rect x="34.9" y="27.5" class="st4" width="1" height="132.3"/>
	</g>
	<g>
		<rect x="211.1" y="27.5" class="st4" width="1" height="132.3"/>
	</g>
	<g>
		<rect x="1.5" y="26.5" class="st1" width="245" height="2"/>
	</g>
	<g class="st5">
		<g>
			<rect x="2.3" y="59.2" class="st6" width="1.4" height="1.8"/>
		</g>
		<g>
			<path class="st6" d="M240.7,61.1h-2.8v-1.8h2.8V61.1z M235.2,61.1h-2.8v-1.8h2.8V61.1z M229.7,61.1h-2.8v-1.8h2.8V61.1z
				 M224.2,61.1h-2.8v-1.8h2.8V61.1z M218.7,61.1h-2.8v-1.8h2.8V61.1z M213.1,61.1h-2.8v-1.8h2.8V61.1z M207.6,61.1h-2.8v-1.8h2.8
				V61.1z M202.1,61.1h-2.8v-1.8h2.8V61.1z M196.6,61.1h-2.8v-1.8h2.8V61.1z M191.1,61.1h-2.8v-1.8h2.8V61.1z M185.6,61.1h-2.8v-1.8
				h2.8V61.1z M180.1,61.1h-2.8v-1.8h2.8V61.1z M174.6,61.1h-2.8v-1.8h2.8V61.1z M169.1,61.1h-2.8v-1.8h2.8V61.1z M163.5,61.1h-2.8
				v-1.8h2.8V61.1z M158,61.1h-2.8v-1.8h2.8V61.1z M152.5,61.1h-2.8v-1.8h2.8V61.1z M147,61.1h-2.8v-1.8h2.8V61.1z M141.5,61.1h-2.8
				v-1.8h2.8V61.1z M136,61.1h-2.8v-1.8h2.8V61.1z M130.5,61.1h-2.8v-1.8h2.8V61.1z M125,61.1h-2.8v-1.8h2.8V61.1z M119.5,61.1h-2.8
				v-1.8h2.8V61.1z M113.9,61.1h-2.8v-1.8h2.8V61.1z M108.4,61.1h-2.8v-1.8h2.8V61.1z M102.9,61.1h-2.8v-1.8h2.8V61.1z M97.4,61.1
				h-2.8v-1.8h2.8V61.1z M91.9,61.1h-2.8v-1.8h2.8V61.1z M86.4,61.1h-2.8v-1.8h2.8V61.1z M80.9,61.1h-2.8v-1.8h2.8V61.1z M75.4,61.1
				h-2.8v-1.8h2.8V61.1z M69.8,61.1h-2.8v-1.8h2.8V61.1z M64.3,61.1h-2.8v-1.8h2.8V61.1z M58.8,61.1h-2.8v-1.8h2.8V61.1z M53.3,61.1
				h-2.8v-1.8h2.8V61.1z M47.8,61.1H45v-1.8h2.8V61.1z M42.3,61.1h-2.8v-1.8h2.8V61.1z M36.8,61.1H34v-1.8h2.8V61.1z M31.3,61.1
				h-2.8v-1.8h2.8V61.1z M25.8,61.1H23v-1.8h2.8V61.1z M20.2,61.1h-2.8v-1.8h2.8V61.1z M14.7,61.1H12v-1.8h2.8V61.1z M9.2,61.1H6.5
				v-1.8h2.8V61.1z"/>
		</g>
		<g>
			<rect x="243.5" y="59.2" class="st6" width="1.4" height="1.8"/>
		</g>
	</g>
	<g class="st5">
		<g>
			<rect x="2.3" y="127.4" class="st6" width="1.4" height="1.8"/>
		</g>
		<g>
			<path class="st6" d="M240.7,129.3h-2.8v-1.8h2.8V129.3z M235.2,129.3h-2.8v-1.8h2.8V129.3z M229.7,129.3h-2.8v-1.8h2.8V129.3z
				 M224.2,129.3h-2.8v-1.8h2.8V129.3z M218.7,129.3h-2.8v-1.8h2.8V129.3z M213.1,129.3h-2.8v-1.8h2.8V129.3z M207.6,129.3h-2.8
				v-1.8h2.8V129.3z M202.1,129.3h-2.8v-1.8h2.8V129.3z M196.6,129.3h-2.8v-1.8h2.8V129.3z M191.1,129.3h-2.8v-1.8h2.8V129.3z
				 M185.6,129.3h-2.8v-1.8h2.8V129.3z M180.1,129.3h-2.8v-1.8h2.8V129.3z M174.6,129.3h-2.8v-1.8h2.8V129.3z M169.1,129.3h-2.8
				v-1.8h2.8V129.3z M163.5,129.3h-2.8v-1.8h2.8V129.3z M158,129.3h-2.8v-1.8h2.8V129.3z M152.5,129.3h-2.8v-1.8h2.8V129.3z
				 M147,129.3h-2.8v-1.8h2.8V129.3z M141.5,129.3h-2.8v-1.8h2.8V129.3z M136,129.3h-2.8v-1.8h2.8V129.3z M130.5,129.3h-2.8v-1.8
				h2.8V129.3z M125,129.3h-2.8v-1.8h2.8V129.3z M119.5,129.3h-2.8v-1.8h2.8V129.3z M113.9,129.3h-2.8v-1.8h2.8V129.3z M108.4,129.3
				h-2.8v-1.8h2.8V129.3z M102.9,129.3h-2.8v-1.8h2.8V129.3z M97.4,129.3h-2.8v-1.8h2.8V129.3z M91.9,129.3h-2.8v-1.8h2.8V129.3z
				 M86.4,129.3h-2.8v-1.8h2.8V129.3z M80.9,129.3h-2.8v-1.8h2.8V129.3z M75.4,129.3h-2.8v-1.8h2.8V129.3z M69.8,129.3h-2.8v-1.8
				h2.8V129.3z M64.3,129.3h-2.8v-1.8h2.8V129.3z M58.8,129.3h-2.8v-1.8h2.8V129.3z M53.3,129.3h-2.8v-1.8h2.8V129.3z M47.8,129.3
				H45v-1.8h2.8V129.3z M42.3,129.3h-2.8v-1.8h2.8V129.3z M36.8,129.3H34v-1.8h2.8V129.3z M31.3,129.3h-2.8v-1.8h2.8V129.3z
				 M25.8,129.3H23v-1.8h2.8V129.3z M20.2,129.3h-2.8v-1.8h2.8V129.3z M14.7,129.3H12v-1.8h2.8V129.3z M9.2,129.3H6.5v-1.8h2.8
				V129.3z"/>
		</g>
		<g>
			<rect x="243.5" y="127.4" class="st6" width="1.4" height="1.8"/>
		</g>
	</g>
	<g>
		<g>
			<path d="M16.4,18.8h-1.7v-8.5h1.7V18.8z"/>
		</g>
		<g>
			<path d="M19.5,12.4l0.1,0.9c0.2-0.3,0.5-0.6,0.8-0.8s0.7-0.3,1-0.3c0.6,0,1.1,0.2,1.5,0.6s0.5,1,0.5,1.9v4h-1.7v-4
				c0-0.4-0.1-0.7-0.3-0.9c-0.2-0.2-0.4-0.3-0.8-0.3c-0.2,0-0.4,0-0.6,0.1c-0.2,0.1-0.3,0.2-0.5,0.4v4.6h-1.7v-6.3H19.5z"/>
		</g>
		<g>
			<path d="M25.6,19.5H24l3.1-9.3h1.7L25.6,19.5z"/>
		</g>
		<g>
			<path d="M36.5,15.3c0,1-0.3,1.9-1,2.6s-1.5,1-2.6,1c-1.1,0-1.9-0.3-2.6-1s-1-1.5-1-2.6v-1.5c0-1,0.3-1.9,1-2.6s1.5-1,2.6-1
				c1.1,0,1.9,0.3,2.6,1s1,1.5,1,2.6V15.3z M34.8,13.7c0-0.7-0.2-1.2-0.5-1.6c-0.3-0.4-0.8-0.6-1.4-0.6s-1,0.2-1.4,0.6
				c-0.3,0.4-0.5,1-0.5,1.6v1.5c0,0.7,0.2,1.2,0.5,1.7s0.8,0.6,1.4,0.6c0.6,0,1-0.2,1.4-0.6s0.5-1,0.5-1.7V13.7z"/>
		</g>
		<g>
			<path d="M41.6,17.8c-0.2,0.3-0.4,0.6-0.7,0.8s-0.6,0.3-1,0.3c-0.7,0-1.2-0.2-1.6-0.6s-0.6-1.1-0.6-2v-3.8h1.7v3.8
				c0,0.5,0.1,0.8,0.2,1c0.2,0.2,0.4,0.3,0.7,0.3c0.3,0,0.5,0,0.7-0.1s0.4-0.2,0.5-0.4v-4.6h1.7v6.3h-1.5L41.6,17.8z"/>
		</g>
		<g>
			<path d="M46.5,10.9v1.6h1.1v1.2h-1.1v3.2c0,0.2,0.1,0.4,0.2,0.5s0.2,0.2,0.4,0.2c0.1,0,0.2,0,0.2,0s0.1,0,0.2,0l0.1,1.2
				c-0.2,0.1-0.3,0.1-0.5,0.1s-0.3,0-0.5,0c-0.6,0-1-0.2-1.4-0.5s-0.5-0.8-0.5-1.5v-3.2h-0.9v-1.2h0.9v-1.6H46.5z"/>
		</g>
	</g>
	<g>
		<g>
			<path d="M100.5,16.8c0-0.4-0.1-0.7-0.4-0.9s-0.7-0.4-1.4-0.6c-0.8-0.2-1.5-0.5-1.9-0.9C96.3,14,96,13.5,96,13
				c0-0.6,0.2-1.1,0.7-1.5c0.5-0.4,1.1-0.6,1.9-0.6c0.9,0,1.5,0.2,2,0.7c0.5,0.5,0.8,1,0.7,1.6l0,0h-1c0-0.5-0.2-0.8-0.5-1.1
				c-0.3-0.3-0.7-0.4-1.3-0.4c-0.5,0-0.9,0.1-1.2,0.4c-0.3,0.2-0.4,0.5-0.4,0.9c0,0.3,0.2,0.6,0.5,0.9c0.3,0.2,0.8,0.4,1.5,0.6
				c0.8,0.2,1.5,0.5,1.9,0.9s0.6,0.9,0.6,1.5c0,0.6-0.3,1.1-0.8,1.5c-0.5,0.4-1.2,0.6-2,0.6c-0.8,0-1.5-0.2-2.1-0.6
				c-0.6-0.4-0.9-1-0.9-1.7l0,0h1c0,0.5,0.2,0.9,0.6,1.1c0.4,0.3,0.8,0.4,1.4,0.4c0.5,0,1-0.1,1.3-0.3
				C100.4,17.5,100.5,17.2,100.5,16.8z"/>
		</g>
		<g>
			<path d="M104.3,11.5v1.4h1.1v0.8h-1.1v3.5c0,0.3,0.1,0.5,0.2,0.6c0.1,0.1,0.3,0.2,0.4,0.2c0.1,0,0.1,0,0.2,0c0.1,0,0.1,0,0.2-0.1
				l0.1,0.7c-0.1,0.1-0.2,0.1-0.3,0.2c-0.2,0-0.3,0.1-0.5,0.1c-0.4,0-0.8-0.1-1-0.4c-0.3-0.3-0.4-0.7-0.4-1.2v-3.5h-0.9v-0.8h0.9
				v-1.4H104.3z"/>
		</g>
		<g>
			<path d="M110.3,18.8c0-0.2-0.1-0.3-0.1-0.5c0-0.1,0-0.3,0-0.4c-0.2,0.3-0.5,0.5-0.8,0.7c-0.3,0.2-0.7,0.3-1,0.3
				c-0.6,0-1.1-0.2-1.4-0.5c-0.3-0.3-0.5-0.7-0.5-1.3c0-0.6,0.2-1,0.7-1.3c0.4-0.3,1.1-0.5,1.8-0.5h1.1v-0.6c0-0.3-0.1-0.6-0.3-0.8
				c-0.2-0.2-0.5-0.3-0.9-0.3c-0.3,0-0.6,0.1-0.8,0.3c-0.2,0.2-0.3,0.4-0.3,0.6h-1l0,0c0-0.4,0.2-0.8,0.6-1.2c0.4-0.4,1-0.5,1.6-0.5
				c0.7,0,1.2,0.2,1.6,0.5c0.4,0.3,0.6,0.8,0.6,1.4v2.8c0,0.2,0,0.4,0,0.6s0.1,0.4,0.1,0.6H110.3z M108.5,18c0.4,0,0.7-0.1,1-0.3
				c0.3-0.2,0.5-0.4,0.6-0.7v-0.9H109c-0.4,0-0.8,0.1-1,0.3c-0.3,0.2-0.4,0.5-0.4,0.8c0,0.3,0.1,0.5,0.2,0.6
				C108,17.9,108.2,18,108.5,18z"/>
		</g>
		<g>
			<path d="M114.5,16.6l0.2,0.7h0l1.4-4.4h1.2l-2.4,6.7c-0.1,0.4-0.4,0.7-0.6,1c-0.3,0.3-0.6,0.4-1.1,0.4c-0.1,0-0.2,0-0.3,0
				c-0.1,0-0.2,0-0.3-0.1l0.1-0.8c0,0,0,0,0.2,0s0.2,0,0.3,0c0.2,0,0.4-0.1,0.6-0.3c0.1-0.2,0.3-0.4,0.4-0.7l0.3-0.6l-2.2-5.7h1.2
				L114.5,16.6z"/>
		</g>
		<g>
			<path d="M121.6,17.2c0-0.2-0.1-0.4-0.3-0.6c-0.2-0.2-0.5-0.3-1-0.4c-0.7-0.2-1.2-0.4-1.6-0.6c-0.4-0.3-0.5-0.6-0.5-1.1
				c0-0.5,0.2-0.9,0.6-1.2c0.4-0.3,0.9-0.5,1.6-0.5c0.7,0,1.2,0.2,1.6,0.5c0.4,0.3,0.6,0.8,0.6,1.3l0,0h-1c0-0.3-0.1-0.5-0.3-0.7
				c-0.2-0.2-0.5-0.3-0.8-0.3c-0.4,0-0.7,0.1-0.8,0.2c-0.2,0.2-0.3,0.4-0.3,0.6c0,0.2,0.1,0.4,0.2,0.5c0.2,0.1,0.5,0.2,1,0.4
				c0.7,0.2,1.3,0.4,1.6,0.6c0.4,0.3,0.5,0.6,0.5,1.1c0,0.5-0.2,0.9-0.6,1.3c-0.4,0.3-1,0.5-1.6,0.5c-0.7,0-1.3-0.2-1.8-0.6
				c-0.4-0.4-0.6-0.8-0.6-1.3l0,0h1c0,0.4,0.2,0.6,0.4,0.8c0.3,0.2,0.6,0.3,0.9,0.3c0.4,0,0.7-0.1,0.9-0.2
				C121.5,17.7,121.6,17.5,121.6,17.2z"/>
		</g>
		<g>
			<path d="M128,18.8H127v-7.8h1.1V18.8z"/>
		</g>
		<g>
			<path d="M130.8,12.9l0.1,0.9c0.2-0.3,0.4-0.5,0.7-0.7c0.3-0.2,0.6-0.3,1-0.3c0.6,0,1.1,0.2,1.5,0.6s0.5,0.9,0.5,1.7v3.7h-1.1
				v-3.6c0-0.5-0.1-0.9-0.3-1.1s-0.5-0.3-0.9-0.3c-0.3,0-0.6,0.1-0.8,0.2c-0.2,0.1-0.4,0.3-0.6,0.6v4.2h-1.1v-5.8H130.8z"/>
		</g>
		<g>
			<path d="M136.3,19.4h-0.9l3.3-8.5h0.9L136.3,19.4z"/>
		</g>
		<g>
			<path d="M146.7,15.5c0,1-0.3,1.7-0.9,2.4c-0.6,0.6-1.4,0.9-2.3,0.9c-0.9,0-1.7-0.3-2.2-0.9c-0.6-0.6-0.9-1.4-0.9-2.4v-1.4
				c0-1,0.3-1.7,0.9-2.4c0.6-0.6,1.3-1,2.2-1c0.9,0,1.7,0.3,2.3,0.9c0.6,0.6,0.9,1.4,0.9,2.4V15.5z M145.7,14.1
				c0-0.7-0.2-1.3-0.6-1.8c-0.4-0.5-0.9-0.7-1.6-0.7c-0.6,0-1.1,0.2-1.5,0.7c-0.4,0.5-0.6,1-0.6,1.8v1.4c0,0.7,0.2,1.3,0.6,1.8
				c0.4,0.5,0.9,0.7,1.5,0.7c0.7,0,1.2-0.2,1.6-0.7c0.4-0.5,0.6-1,0.6-1.8V14.1z"/>
		</g>
		<g>
			<path d="M151.8,17.9c-0.2,0.3-0.4,0.6-0.7,0.7c-0.3,0.2-0.6,0.3-1,0.3c-0.6,0-1.1-0.2-1.5-0.6c-0.4-0.4-0.5-1-0.5-1.9v-3.4h1.1
				v3.4c0,0.6,0.1,1,0.3,1.3c0.2,0.2,0.5,0.3,0.9,0.3c0.4,0,0.7-0.1,0.9-0.2s0.4-0.4,0.6-0.6v-4.2h1.1v5.8h-1L151.8,17.9z"/>
		</g>
		<g>
			<path d="M155.8,11.5v1.4h1.1v0.8h-1.1v3.5c0,0.3,0.1,0.5,0.2,0.6c0.1,0.1,0.3,0.2,0.4,0.2c0.1,0,0.1,0,0.2,0c0.1,0,0.1,0,0.2-0.1
				l0.1,0.7c-0.1,0.1-0.2,0.1-0.3,0.2c-0.2,0-0.3,0.1-0.5,0.1c-0.4,0-0.8-0.1-1-0.4c-0.3-0.3-0.4-0.7-0.4-1.2v-3.5h-0.9v-0.8h0.9
				v-1.4H155.8z"/>
		</g>
		<g>
			<path d="M160.9,15.6c0-1.4,0.3-2.6,0.9-3.6s1.2-1.7,1.8-2l0,0l0.2,0.6c-0.5,0.4-0.9,1-1.3,1.8c-0.4,0.8-0.5,1.9-0.5,3.1v0.1
				c0,1.2,0.2,2.3,0.5,3.1c0.4,0.8,0.8,1.5,1.3,1.9l-0.2,0.6h0c-0.6-0.3-1.2-1-1.8-2C161.1,18.2,160.9,17,160.9,15.6L160.9,15.6z"/>
		</g>
		<g>
			<path d="M170.4,17.7c-0.2,0.3-0.5,0.5-1,0.8c-0.5,0.2-1.1,0.4-1.8,0.4c-0.9,0-1.7-0.3-2.3-0.9c-0.6-0.6-0.9-1.4-0.9-2.3V14
				c0-0.9,0.3-1.7,0.9-2.3c0.6-0.6,1.3-0.9,2.2-0.9c0.9,0,1.6,0.2,2.1,0.7c0.5,0.4,0.8,1,0.8,1.7l0,0h-1c0-0.5-0.2-0.8-0.5-1.1
				c-0.3-0.3-0.8-0.4-1.4-0.4c-0.6,0-1.1,0.2-1.4,0.7s-0.5,1-0.5,1.7v1.6c0,0.7,0.2,1.3,0.6,1.7c0.4,0.4,0.9,0.7,1.6,0.7
				c0.4,0,0.8-0.1,1.1-0.2c0.3-0.1,0.5-0.3,0.6-0.4v-1.8h-1.7v-0.8h2.8V17.7z"/>
		</g>
		<g>
			<path d="M171.8,15.8c0-0.9,0.2-1.6,0.7-2.1c0.5-0.6,1.1-0.8,1.9-0.8c0.8,0,1.4,0.3,1.9,0.8c0.5,0.6,0.7,1.3,0.7,2.1v0.1
				c0,0.9-0.2,1.6-0.7,2.1c-0.5,0.6-1.1,0.8-1.9,0.8c-0.8,0-1.4-0.3-1.9-0.8c-0.5-0.6-0.7-1.3-0.7-2.1V15.8z M172.9,15.9
				c0,0.6,0.1,1.1,0.4,1.5c0.3,0.4,0.6,0.6,1.2,0.6c0.5,0,0.9-0.2,1.1-0.6c0.3-0.4,0.4-0.9,0.4-1.5v-0.1c0-0.6-0.1-1.1-0.4-1.5
				c-0.3-0.4-0.6-0.6-1.2-0.6c-0.5,0-0.9,0.2-1.1,0.6c-0.3,0.4-0.4,0.9-0.4,1.5V15.9z"/>
		</g>
		<g>
			<path d="M180.7,18.9c-0.8,0-1.5-0.3-1.9-0.8c-0.5-0.5-0.7-1.2-0.7-2.1v-0.2c0-0.8,0.2-1.5,0.7-2.1c0.5-0.5,1.1-0.8,1.7-0.8
				c0.8,0,1.4,0.2,1.8,0.7c0.4,0.5,0.6,1.1,0.6,1.9v0.7h-3.8l0,0c0,0.6,0.2,1,0.4,1.4c0.3,0.4,0.7,0.5,1.1,0.5
				c0.4,0,0.7-0.1,0.9-0.2c0.3-0.1,0.5-0.2,0.7-0.4l0.4,0.7c-0.2,0.2-0.5,0.4-0.8,0.5C181.6,18.8,181.2,18.9,180.7,18.9z
				 M180.6,13.7c-0.4,0-0.7,0.1-0.9,0.4c-0.2,0.3-0.4,0.7-0.5,1.1l0,0h2.7v-0.1c0-0.4-0.1-0.8-0.3-1C181.3,13.8,181,13.7,180.6,13.7
				z"/>
		</g>
		<g>
			<path d="M187.5,17.2c0-0.2-0.1-0.4-0.3-0.6c-0.2-0.2-0.5-0.3-1-0.4c-0.7-0.2-1.2-0.4-1.6-0.6c-0.4-0.3-0.5-0.6-0.5-1.1
				c0-0.5,0.2-0.9,0.6-1.2c0.4-0.3,0.9-0.5,1.6-0.5c0.7,0,1.2,0.2,1.6,0.5c0.4,0.3,0.6,0.8,0.6,1.3l0,0h-1c0-0.3-0.1-0.5-0.3-0.7
				c-0.2-0.2-0.5-0.3-0.8-0.3c-0.4,0-0.7,0.1-0.8,0.2c-0.2,0.2-0.3,0.4-0.3,0.6c0,0.2,0.1,0.4,0.2,0.5c0.2,0.1,0.5,0.2,1,0.4
				c0.7,0.2,1.3,0.4,1.6,0.6c0.4,0.3,0.5,0.6,0.5,1.1c0,0.5-0.2,0.9-0.6,1.3c-0.4,0.3-1,0.5-1.6,0.5c-0.7,0-1.3-0.2-1.8-0.6
				c-0.4-0.4-0.6-0.8-0.6-1.3l0,0h1c0,0.4,0.2,0.6,0.4,0.8c0.3,0.2,0.6,0.3,0.9,0.3c0.4,0,0.7-0.1,0.9-0.2
				C187.4,17.7,187.5,17.5,187.5,17.2z"/>
		</g>
		<g>
			<path d="M198.7,15.5c0,1-0.3,1.7-0.9,2.4c-0.6,0.6-1.4,0.9-2.3,0.9c-0.9,0-1.7-0.3-2.2-0.9c-0.6-0.6-0.9-1.4-0.9-2.4v-1.4
				c0-1,0.3-1.7,0.9-2.4s1.3-1,2.2-1c0.9,0,1.7,0.3,2.3,0.9c0.6,0.6,0.9,1.4,0.9,2.4V15.5z M197.7,14.1c0-0.7-0.2-1.3-0.6-1.8
				c-0.4-0.5-0.9-0.7-1.6-0.7c-0.6,0-1.1,0.2-1.5,0.7c-0.4,0.5-0.6,1-0.6,1.8v1.4c0,0.7,0.2,1.3,0.6,1.8c0.4,0.5,0.9,0.7,1.5,0.7
				c0.7,0,1.2-0.2,1.6-0.7c0.4-0.5,0.6-1,0.6-1.8V14.1z"/>
		</g>
		<g>
			<path d="M203.8,17.9c-0.2,0.3-0.4,0.6-0.7,0.7c-0.3,0.2-0.6,0.3-1,0.3c-0.6,0-1.1-0.2-1.5-0.6c-0.4-0.4-0.5-1-0.5-1.9v-3.4h1.1
				v3.4c0,0.6,0.1,1,0.3,1.3c0.2,0.2,0.5,0.3,0.9,0.3c0.4,0,0.7-0.1,0.9-0.2c0.2-0.2,0.4-0.4,0.6-0.6v-4.2h1.1v5.8h-1L203.8,17.9z"
				/>
		</g>
		<g>
			<path d="M207.8,11.5v1.4h1.1v0.8h-1.1v3.5c0,0.3,0.1,0.5,0.2,0.6c0.1,0.1,0.3,0.2,0.4,0.2c0.1,0,0.1,0,0.2,0c0.1,0,0.1,0,0.2-0.1
				l0.1,0.7c-0.1,0.1-0.2,0.1-0.3,0.2c-0.2,0-0.3,0.1-0.5,0.1c-0.4,0-0.8-0.1-1-0.4c-0.3-0.3-0.4-0.7-0.4-1.2v-3.5h-0.9v-0.8h0.9
				v-1.4H207.8z"/>
		</g>
		<g>
			<path d="M213.5,17.2c0-0.2-0.1-0.4-0.3-0.6c-0.2-0.2-0.5-0.3-1-0.4c-0.7-0.2-1.2-0.4-1.6-0.6c-0.4-0.3-0.5-0.6-0.5-1.1
				c0-0.5,0.2-0.9,0.6-1.2c0.4-0.3,0.9-0.5,1.6-0.5c0.7,0,1.2,0.2,1.6,0.5c0.4,0.3,0.6,0.8,0.6,1.3l0,0h-1c0-0.3-0.1-0.5-0.3-0.7
				c-0.2-0.2-0.5-0.3-0.8-0.3c-0.4,0-0.7,0.1-0.8,0.2c-0.2,0.2-0.3,0.4-0.3,0.6c0,0.2,0.1,0.4,0.2,0.5c0.2,0.1,0.5,0.2,1,0.4
				c0.7,0.2,1.3,0.4,1.6,0.6c0.4,0.3,0.5,0.6,0.5,1.1c0,0.5-0.2,0.9-0.6,1.3c-0.4,0.3-1,0.5-1.6,0.5c-0.7,0-1.3-0.2-1.8-0.6
				c-0.4-0.4-0.6-0.8-0.6-1.3l0,0h1c0,0.4,0.2,0.6,0.4,0.8c0.3,0.2,0.6,0.3,0.9,0.3c0.4,0,0.7-0.1,0.9-0.2
				C213.4,17.7,213.5,17.5,213.5,17.2z"/>
		</g>
		<g>
			<path d="M217.1,11.5H216v-1.1h1.1V11.5z M217.1,18.8H216v-5.8h1.1V18.8z"/>
		</g>
		<g>
			<path d="M218.5,16c0-0.9,0.2-1.7,0.6-2.3c0.4-0.6,1-0.9,1.7-0.9c0.3,0,0.6,0.1,0.9,0.2c0.3,0.1,0.5,0.3,0.7,0.5v-3.2h1.1v8.4
				h-0.9l-0.1-0.7c-0.2,0.3-0.4,0.5-0.7,0.6c-0.3,0.1-0.6,0.2-1,0.2c-0.7,0-1.3-0.3-1.7-0.8c-0.4-0.5-0.6-1.2-0.6-2V16z M219.5,16.1
				c0,0.6,0.1,1.1,0.4,1.4c0.2,0.4,0.6,0.5,1.1,0.5c0.3,0,0.6-0.1,0.8-0.2c0.2-0.1,0.4-0.3,0.5-0.6v-2.7c-0.1-0.2-0.3-0.4-0.5-0.6
				c-0.2-0.1-0.5-0.2-0.8-0.2c-0.5,0-0.9,0.2-1.1,0.6c-0.2,0.4-0.4,1-0.4,1.6V16.1z"/>
		</g>
		<g>
			<path d="M227.4,18.9c-0.8,0-1.5-0.3-1.9-0.8c-0.5-0.5-0.7-1.2-0.7-2.1v-0.2c0-0.8,0.2-1.5,0.7-2.1c0.5-0.5,1.1-0.8,1.7-0.8
				c0.8,0,1.4,0.2,1.8,0.7c0.4,0.5,0.6,1.1,0.6,1.9v0.7h-3.8l0,0c0,0.6,0.2,1,0.4,1.4c0.3,0.4,0.7,0.5,1.1,0.5
				c0.4,0,0.7-0.1,0.9-0.2c0.3-0.1,0.5-0.2,0.7-0.4l0.4,0.7c-0.2,0.2-0.5,0.4-0.8,0.5C228.3,18.8,227.8,18.9,227.4,18.9z
				 M227.2,13.7c-0.4,0-0.7,0.1-0.9,0.4c-0.2,0.3-0.4,0.7-0.5,1.1l0,0h2.7v-0.1c0-0.4-0.1-0.8-0.3-1C228,13.8,227.6,13.7,227.2,13.7
				z"/>
		</g>
		<g>
			<path d="M232.9,15.6c0,1.4-0.3,2.6-0.9,3.6c-0.6,1-1.2,1.7-1.8,2h0l-0.2-0.6c0.5-0.4,0.9-1,1.3-1.9c0.4-0.9,0.6-1.9,0.6-3.2v-0.1
				c0-1.2-0.2-2.3-0.6-3.1c-0.4-0.9-0.8-1.5-1.3-1.9l0.2-0.6h0c0.6,0.3,1.2,1,1.8,2C232.6,13,232.9,14.2,232.9,15.6L232.9,15.6z"/>
		</g>
	</g>
	<g>
		<g>
			<path class="st7" d="M197.1,129.2c-0.3,0-0.7-0.2-0.8-0.5l-9.1-14.5l-25.6-4.4c-0.2,0-0.5-0.2-0.6-0.4l-26.4-34.3l-18.5,25
				c-0.2,0.2-0.4,0.4-0.7,0.4c-0.3,0-0.6-0.1-0.8-0.3l-9.8-9.8l-16,16c-0.4,0.4-1,0.4-1.4,0l-22-21.7L36,107.4
				c-0.4,0.3-1.1,0.3-1.4-0.2c-0.3-0.4-0.3-1.1,0.2-1.4l30-23.3c0.4-0.3,1-0.3,1.3,0.1l22,21.6l16-16c0.4-0.4,1-0.4,1.4,0l9.7,9.7
				l18.6-25.1c0.2-0.3,0.5-0.4,0.8-0.4c0,0,0,0,0,0c0.3,0,0.6,0.1,0.8,0.4l26.9,35l25.6,4.4c0.3,0,0.5,0.2,0.7,0.5l9.4,14.9
				c0.3,0.5,0.2,1.1-0.3,1.4C197.4,129.2,197.2,129.2,197.1,129.2z"/>
		</g>
		<g>
			<g class="st8">
				<ellipse class="st9" cx="35.4" cy="107.2" rx="4.9" ry="5.1"/>
				<path class="st6" d="M35.4,112.8c-3.1,0-5.6-2.5-5.6-5.7s2.5-5.7,5.6-5.7s5.6,2.5,5.6,5.7S38.4,112.8,35.4,112.8z M35.4,102.7
					c-2.4,0-4.3,2-4.3,4.4s1.9,4.4,4.3,4.4s4.3-2,4.3-4.4S37.7,102.7,35.4,102.7z"/>
			</g>
			<g>
				<circle class="st6" cx="35.4" cy="107.2" r="2.8"/>
			</g>
		</g>
		<g>
			<g class="st10">
				<circle class="st11" cx="197.1" cy="128.2" r="17"/>
			</g>
			<g class="st10">
				<circle class="st11" cx="197.1" cy="128.2" r="12.5"/>
			</g>
			<g>
				<g class="st8">
					<ellipse class="st9" cx="197.1" cy="128.2" rx="4.9" ry="5.1"/>
					<path class="st6" d="M197.1,133.9c-3.1,0-5.6-2.5-5.6-5.7s2.5-5.7,5.6-5.7s5.6,2.5,5.6,5.7S200.1,133.9,197.1,133.9z
						 M197.1,123.8c-2.4,0-4.3,2-4.3,4.4s1.9,4.4,4.3,4.4s4.3-2,4.3-4.4S199.4,123.8,197.1,123.8z"/>
				</g>
				<g>
					<circle class="st6" cx="197.1" cy="128.2" r="2.8"/>
				</g>
			</g>
		</g>
	</g>
	<g>
		<g>
			<path class="st2" d="M28.5,120.1c0-0.3-0.1-0.6-0.4-0.8c-0.2-0.2-0.7-0.4-1.3-0.6c-0.8-0.2-1.3-0.4-1.8-0.8
				c-0.4-0.3-0.6-0.8-0.6-1.3c0-0.6,0.2-1,0.7-1.4s1-0.6,1.8-0.6c0.8,0,1.4,0.2,1.9,0.6c0.5,0.4,0.7,0.9,0.7,1.5l0,0h-0.9
				c0-0.4-0.1-0.8-0.4-1c-0.3-0.3-0.7-0.4-1.2-0.4c-0.5,0-0.8,0.1-1.1,0.3c-0.3,0.2-0.4,0.5-0.4,0.8c0,0.3,0.1,0.6,0.4,0.8
				c0.3,0.2,0.7,0.4,1.3,0.5c0.7,0.2,1.3,0.5,1.7,0.8s0.6,0.8,0.6,1.3c0,0.6-0.2,1-0.7,1.4s-1.1,0.5-1.8,0.5c-0.7,0-1.3-0.2-1.9-0.6
				c-0.5-0.4-0.8-0.9-0.8-1.5l0,0h0.9c0,0.5,0.2,0.8,0.5,1c0.3,0.2,0.8,0.4,1.2,0.4c0.5,0,0.9-0.1,1.2-0.3S28.5,120.5,28.5,120.1z"
				/>
		</g>
		<g>
			<path class="st2" d="M32,115.4v1.3h1v0.7h-1v3.2c0,0.2,0.1,0.4,0.2,0.5s0.2,0.2,0.4,0.2c0.1,0,0.1,0,0.2,0c0.1,0,0.1,0,0.2,0
				l0.1,0.7c-0.1,0.1-0.2,0.1-0.3,0.1c-0.1,0-0.3,0.1-0.4,0.1c-0.4,0-0.7-0.1-0.9-0.4c-0.2-0.2-0.3-0.6-0.3-1.1v-3.2h-0.8v-0.7H31
				v-1.3H32z"/>
		</g>
		<g>
			<path class="st2" d="M37.4,121.9c0-0.2-0.1-0.3-0.1-0.4c0-0.1,0-0.2,0-0.4c-0.2,0.3-0.4,0.5-0.7,0.6c-0.3,0.2-0.6,0.3-0.9,0.3
				c-0.5,0-1-0.1-1.3-0.4c-0.3-0.3-0.4-0.7-0.4-1.2c0-0.5,0.2-0.9,0.6-1.2c0.4-0.3,1-0.4,1.7-0.4h1v-0.5c0-0.3-0.1-0.6-0.3-0.7
				c-0.2-0.2-0.5-0.3-0.8-0.3c-0.3,0-0.6,0.1-0.8,0.2c-0.2,0.2-0.3,0.3-0.3,0.6h-0.9l0,0c0-0.4,0.2-0.7,0.5-1.1
				c0.4-0.3,0.9-0.5,1.5-0.5c0.6,0,1.1,0.2,1.4,0.5c0.4,0.3,0.5,0.7,0.5,1.3v2.5c0,0.2,0,0.4,0,0.5s0.1,0.3,0.1,0.5H37.4z
				 M35.8,121.2c0.3,0,0.7-0.1,0.9-0.3c0.3-0.2,0.5-0.4,0.5-0.6v-0.9h-1.1c-0.4,0-0.7,0.1-0.9,0.3c-0.2,0.2-0.3,0.4-0.3,0.7
				c0,0.2,0.1,0.4,0.2,0.6C35.3,121.1,35.5,121.2,35.8,121.2z"/>
		</g>
		<g>
			<path class="st2" d="M42.1,117.5l-0.5,0c-0.3,0-0.5,0.1-0.6,0.2c-0.2,0.1-0.3,0.3-0.4,0.5v3.8h-1v-5.3h0.9l0.1,0.8
				c0.2-0.3,0.3-0.5,0.6-0.6s0.5-0.2,0.8-0.2c0.1,0,0.1,0,0.2,0c0.1,0,0.1,0,0.2,0L42.1,117.5z"/>
		</g>
		<g>
			<path class="st2" d="M44.4,115.4v1.3h1v0.7h-1v3.2c0,0.2,0.1,0.4,0.2,0.5s0.2,0.2,0.4,0.2c0.1,0,0.1,0,0.2,0c0.1,0,0.1,0,0.2,0
				l0.1,0.7c-0.1,0.1-0.2,0.1-0.3,0.1c-0.1,0-0.3,0.1-0.4,0.1c-0.4,0-0.7-0.1-0.9-0.4c-0.2-0.2-0.3-0.6-0.3-1.1v-3.2h-0.8v-0.7h0.8
				v-1.3H44.4z"/>
		</g>
	</g>
	<g>
		<g>
			<path class="st2" d="M193.3,150H190v2.5h3.8v0.8h-4.7v-7.1h4.7v0.8H190v2.3h3.3V150z"/>
		</g>
		<g>
			<path class="st2" d="M195.6,148l0.1,0.8c0.2-0.3,0.4-0.5,0.7-0.7c0.3-0.2,0.6-0.2,0.9-0.2c0.6,0,1,0.2,1.3,0.5
				c0.3,0.3,0.5,0.8,0.5,1.5v3.3h-1v-3.3c0-0.5-0.1-0.8-0.3-1c-0.2-0.2-0.5-0.3-0.8-0.3c-0.3,0-0.5,0.1-0.7,0.2
				c-0.2,0.1-0.4,0.3-0.5,0.5v3.9h-1V148H195.6z"/>
		</g>
		<g>
			<path class="st2" d="M200.2,150.7c0-0.8,0.2-1.5,0.5-2.1c0.4-0.5,0.9-0.8,1.5-0.8c0.3,0,0.6,0.1,0.8,0.2c0.2,0.1,0.4,0.3,0.6,0.5
				v-2.9h1v7.6h-0.8l-0.1-0.6c-0.2,0.2-0.4,0.4-0.6,0.6c-0.3,0.1-0.5,0.2-0.9,0.2c-0.6,0-1.1-0.2-1.5-0.7c-0.4-0.5-0.5-1.1-0.5-1.8
				V150.7z M201.2,150.8c0,0.5,0.1,1,0.3,1.3c0.2,0.3,0.6,0.5,1,0.5c0.3,0,0.5-0.1,0.7-0.2c0.2-0.1,0.4-0.3,0.5-0.5v-2.5
				c-0.1-0.2-0.3-0.4-0.5-0.5c-0.2-0.1-0.4-0.2-0.7-0.2c-0.5,0-0.8,0.2-1,0.6s-0.3,0.9-0.3,1.5V150.8z"/>
		</g>
	</g>
	<g>
		<g class="st12">
			<path class="st11" d="M166.3,144.6h-45.2c-2.2,0-4-1.8-4-4v-19.3c0-2.2,1.8-4,4-4h45.2c2.2,0,4,1.8,4,4v19.3
				C170.3,142.8,168.5,144.6,166.3,144.6z"/>
		</g>
		<g>
			<path class="st6" d="M165.1,143.4h-45.2c-2.2,0-4-1.8-4-4v-19.3c0-2.2,1.8-4,4-4h45.2c2.2,0,4,1.8,4,4v19.3
				C169.1,141.6,167.3,143.4,165.1,143.4z"/>
		</g>
		<g class="st12">
			<g>
				<path class="st11" d="M135.4,133L135.4,133l1.9-8.8h2.5l-3,12.8h-2.4l-2.3-8.4H132l-2.3,8.4h-2.4l-3-12.8h2.5l1.8,8.8l0.1,0
					l2.4-8.8h1.9L135.4,133z"/>
			</g>
			<g>
				<path class="st11" d="M144,137h-2.6v-12.8h2.6V137z"/>
			</g>
			<g>
				<path class="st11" d="M156.9,137h-2.6l-5.2-8.7l-0.1,0v8.7h-2.6v-12.8h2.6l5.2,8.7l0.1,0v-8.7h2.6V137z"/>
			</g>
			<g>
				<path class="st11" d="M161.8,132.6h-2.6v-8.4h2.6V132.6z M161.8,137h-2.6v-2.2h2.6V137z"/>
			</g>
		</g>
		<g>
			<g>
				<path class="st9" d="M134.4,132L134.4,132l1.9-8.8h2.5l-3,12.8h-2.4l-2.3-8.4H131l-2.3,8.4h-2.4l-3-12.8h2.5l1.8,8.8l0.1,0
					l2.4-8.8h1.9L134.4,132z"/>
			</g>
			<g>
				<path class="st9" d="M143,136h-2.6v-12.8h2.6V136z"/>
			</g>
			<g>
				<path class="st9" d="M155.9,136h-2.6l-5.2-8.7l-0.1,0v8.7h-2.6v-12.8h2.6l5.2,8.7l0.1,0v-8.7h2.6V136z"/>
			</g>
			<g>
				<path class="st9" d="M160.8,131.6h-2.6v-8.4h2.6V131.6z M160.8,136h-2.6v-2.2h2.6V136z"/>
			</g>
		</g>
	</g>
	<g>
		
			<rect x="182.1" y="117.1" transform="matrix(0.2285 0.9735 -0.9735 0.2285 269.2605 -76.7661)" class="st6" width="2" height="28.7"/>
	</g>
</g>
</svg>
