<?xml version="1.0" encoding="utf-8"?>
<!-- Generator: Adobe Illustrator 19.1.0, SVG Export Plug-In . SVG Version: 6.00 Build 0)  -->
<svg version="1.1" id="Layer_1" xmlns="http://www.w3.org/2000/svg" xmlns:xlink="http://www.w3.org/1999/xlink" x="0px" y="0px"
	 viewBox="0 0 103.39 52.65" style="enable-background:new 0 0 103.39 52.65;" xml:space="preserve">
<style type="text/css">
	.st0{fill:#F1F2F2;stroke:#C2C2C2;stroke-width:0.6458;stroke-miterlimit:10;}
	.st1{fill:none;stroke:#DFDEDE;stroke-width:0.3229;stroke-miterlimit:10;}
	.st2{fill:none;stroke:#2A3052;stroke-width:0.3229;stroke-linejoin:round;stroke-miterlimit:10;}
	.st3{fill:#2A3052;}
	.st4{fill:#6D6E71;}
	.st5{fill:none;stroke:#2A3052;stroke-width:0.9687;stroke-linecap:round;stroke-linejoin:round;stroke-miterlimit:10;}
	.st6{opacity:0.6;}
	.st7{fill:#FFFFFF;}
	.st8{fill:none;stroke:#E88024;stroke-width:0.6458;stroke-miterlimit:10;}
	.st9{fill:#E88024;}
</style>
<g>
	<rect x="78.92" y="0.32" class="st0" width="24.15" height="52"/>
	<g>
		<g>
			<rect x="0.32" y="0.32" class="st0" width="78.59" height="52"/>
			<g>
				<line class="st1" x1="1.04" y1="14.68" x2="78.51" y2="14.68"/>
				<line class="st1" x1="1.04" y1="25.53" x2="78.51" y2="25.53"/>
				<line class="st1" x1="1.04" y1="36.38" x2="78.51" y2="36.38"/>
				<line class="st1" x1="1.04" y1="47.22" x2="78.51" y2="47.22"/>
				<line class="st1" x1="10.4" y1="9.26" x2="10.4" y2="52"/>
				<line class="st1" x1="20.2" y1="9.26" x2="20.2" y2="52"/>
				<line class="st1" x1="30" y1="9.26" x2="30" y2="52"/>
				<line class="st1" x1="39.8" y1="9.26" x2="39.8" y2="52"/>
				<line class="st1" x1="49.61" y1="9.26" x2="49.61" y2="52"/>
				<line class="st1" x1="59.41" y1="9.26" x2="59.41" y2="52"/>
				<line class="st1" x1="1.04" y1="30.95" x2="78.51" y2="30.95"/>
				<line class="st1" x1="69.21" y1="9.26" x2="69.21" y2="52"/>
				<line class="st2" x1="1.04" y1="20.11" x2="78.51" y2="20.11"/>
				<line class="st2" x1="1.04" y1="41.8" x2="78.51" y2="41.8"/>
			</g>
			<line class="st0" x1="0.48" y1="8.94" x2="103.07" y2="8.94"/>
			<g>
				<path d="M5.22,5.66h1.22v0.43H4.67V3.32h0.55V5.66z"/>
				<path d="M6.62,5.04c0-0.31,0.08-0.56,0.25-0.76c0.17-0.2,0.4-0.29,0.7-0.29c0.3,0,0.54,0.1,0.71,0.29
					c0.17,0.2,0.26,0.45,0.26,0.76v0.04c0,0.31-0.08,0.56-0.25,0.76c-0.17,0.19-0.4,0.29-0.7,0.29c-0.3,0-0.54-0.1-0.71-0.29
					c-0.17-0.2-0.25-0.45-0.25-0.76V5.04z M7.17,5.08c0,0.19,0.03,0.34,0.1,0.45C7.33,5.65,7.44,5.7,7.58,5.7
					c0.14,0,0.25-0.06,0.31-0.17s0.1-0.26,0.1-0.45V5.04c0-0.18-0.03-0.33-0.1-0.45S7.72,4.42,7.58,4.42
					c-0.14,0-0.25,0.06-0.31,0.17s-0.1,0.26-0.1,0.45V5.08z"/>
				<path d="M9.38,4.03L9.4,4.33c0.07-0.11,0.15-0.19,0.25-0.25s0.21-0.09,0.33-0.09c0.21,0,0.37,0.07,0.48,0.2s0.17,0.34,0.17,0.62
					v1.29h-0.55V4.8c0-0.14-0.03-0.24-0.08-0.29C9.95,4.45,9.87,4.42,9.76,4.42c-0.07,0-0.14,0.01-0.2,0.04
					C9.5,4.5,9.46,4.54,9.42,4.59v1.5H8.87V4.03H9.38z"/>
				<path d="M10.97,5.08c0-0.33,0.07-0.59,0.21-0.79s0.34-0.3,0.59-0.3c0.11,0,0.21,0.03,0.3,0.08s0.16,0.13,0.22,0.22l0.04-0.26
					h0.47v2.05c0,0.27-0.09,0.48-0.26,0.62c-0.17,0.15-0.42,0.22-0.72,0.22c-0.1,0-0.21-0.01-0.33-0.04
					c-0.12-0.03-0.22-0.07-0.32-0.12l0.1-0.42c0.08,0.04,0.17,0.07,0.26,0.09c0.09,0.02,0.18,0.03,0.28,0.03
					c0.15,0,0.26-0.03,0.33-0.1s0.11-0.16,0.11-0.3V5.89c-0.06,0.08-0.13,0.14-0.21,0.18c-0.08,0.04-0.17,0.06-0.28,0.06
					c-0.25,0-0.44-0.09-0.58-0.28c-0.14-0.19-0.21-0.43-0.21-0.73V5.08z M11.52,5.12c0,0.18,0.03,0.32,0.09,0.43
					c0.06,0.1,0.16,0.16,0.29,0.16c0.08,0,0.16-0.02,0.21-0.05s0.1-0.08,0.14-0.14v-0.9c-0.04-0.06-0.08-0.11-0.14-0.15
					s-0.13-0.05-0.21-0.05c-0.13,0-0.23,0.06-0.29,0.18c-0.06,0.12-0.09,0.28-0.09,0.48V5.12z"/>
				<path d="M15.38,6.09c-0.02-0.05-0.04-0.1-0.05-0.15c-0.01-0.05-0.02-0.11-0.03-0.16c-0.06,0.1-0.13,0.18-0.22,0.25
					c-0.09,0.07-0.2,0.1-0.33,0.1c-0.21,0-0.38-0.06-0.49-0.17c-0.12-0.11-0.17-0.26-0.17-0.45c0-0.2,0.08-0.36,0.23-0.47
					c0.15-0.11,0.38-0.17,0.67-0.17h0.31V4.71c0-0.1-0.03-0.18-0.08-0.23S15.08,4.4,14.98,4.4c-0.09,0-0.16,0.02-0.21,0.07
					s-0.07,0.1-0.07,0.18l-0.53,0l0-0.01c-0.01-0.17,0.07-0.32,0.22-0.45c0.16-0.13,0.37-0.19,0.62-0.19c0.24,0,0.44,0.06,0.59,0.19
					c0.15,0.12,0.23,0.3,0.23,0.53v0.85c0,0.1,0.01,0.19,0.02,0.27c0.01,0.08,0.04,0.17,0.07,0.25H15.38z M14.87,5.72
					c0.1,0,0.18-0.02,0.26-0.07c0.08-0.05,0.13-0.1,0.15-0.17V5.19h-0.31c-0.12,0-0.2,0.03-0.26,0.09
					c-0.06,0.06-0.09,0.13-0.09,0.21c0,0.07,0.02,0.12,0.07,0.17C14.74,5.7,14.8,5.72,14.87,5.72z"/>
				<path d="M16.9,3.53v0.5h0.34v0.39H16.9v1.05c0,0.08,0.02,0.14,0.05,0.17s0.08,0.05,0.13,0.05c0.03,0,0.05,0,0.07,0
					c0.02,0,0.04-0.01,0.07-0.02l0.05,0.4c-0.06,0.02-0.11,0.03-0.16,0.04C17.06,6.13,17,6.13,16.94,6.13
					c-0.19,0-0.33-0.05-0.44-0.16c-0.1-0.11-0.15-0.27-0.15-0.5V4.42h-0.3V4.03h0.3v-0.5H16.9z"/>
				<path d="M19.08,4.47h0.31c0.13,0,0.23-0.04,0.29-0.1c0.06-0.07,0.09-0.17,0.09-0.29c0-0.11-0.03-0.2-0.09-0.27
					c-0.06-0.07-0.15-0.1-0.27-0.1c-0.1,0-0.19,0.03-0.26,0.09c-0.07,0.06-0.1,0.14-0.1,0.24h-0.53l0-0.01
					c-0.01-0.22,0.07-0.4,0.25-0.54c0.17-0.14,0.38-0.21,0.64-0.21c0.28,0,0.51,0.07,0.68,0.21c0.17,0.14,0.25,0.33,0.25,0.59
					c0,0.12-0.04,0.24-0.11,0.34s-0.18,0.19-0.31,0.25c0.15,0.05,0.27,0.14,0.35,0.25c0.08,0.11,0.12,0.24,0.12,0.39
					c0,0.25-0.09,0.45-0.27,0.6c-0.18,0.15-0.42,0.22-0.7,0.22c-0.25,0-0.47-0.07-0.66-0.21c-0.18-0.14-0.27-0.33-0.26-0.58l0-0.01
					h0.53c0,0.11,0.04,0.19,0.11,0.26c0.07,0.07,0.17,0.1,0.29,0.1c0.13,0,0.23-0.04,0.3-0.11c0.07-0.07,0.11-0.17,0.11-0.29
					c0-0.15-0.04-0.25-0.11-0.32c-0.07-0.07-0.18-0.1-0.32-0.1h-0.31V4.47z"/>
				<path d="M23.93,3.32v1.84c0,0.31-0.1,0.55-0.3,0.72c-0.2,0.17-0.47,0.25-0.8,0.25c-0.33,0-0.59-0.08-0.79-0.25
					s-0.3-0.41-0.3-0.72V3.32h0.55v1.84c0,0.18,0.05,0.32,0.14,0.41c0.1,0.09,0.23,0.14,0.4,0.14c0.17,0,0.31-0.04,0.4-0.13
					s0.15-0.23,0.15-0.41V3.32H23.93z"/>
				<path d="M25.89,5.37c0-0.11-0.04-0.19-0.11-0.26c-0.07-0.07-0.21-0.13-0.39-0.18c-0.33-0.1-0.57-0.21-0.74-0.34
					c-0.17-0.13-0.25-0.31-0.25-0.54c0-0.23,0.1-0.41,0.29-0.56c0.19-0.14,0.44-0.22,0.73-0.22c0.3,0,0.55,0.08,0.73,0.24
					c0.19,0.16,0.28,0.36,0.27,0.6l0,0.01h-0.53c0-0.13-0.04-0.23-0.13-0.31c-0.08-0.08-0.2-0.12-0.36-0.12
					c-0.15,0-0.26,0.03-0.34,0.1c-0.08,0.07-0.12,0.15-0.12,0.25c0,0.09,0.04,0.17,0.13,0.23c0.09,0.06,0.23,0.12,0.44,0.19
					c0.3,0.09,0.53,0.2,0.69,0.34s0.23,0.32,0.23,0.55c0,0.24-0.09,0.42-0.28,0.56c-0.18,0.14-0.43,0.21-0.73,0.21
					c-0.3,0-0.56-0.08-0.78-0.23c-0.22-0.16-0.33-0.37-0.32-0.65l0-0.01h0.53c0,0.17,0.05,0.29,0.15,0.36s0.24,0.12,0.42,0.12
					c0.15,0,0.26-0.03,0.34-0.09C25.85,5.56,25.89,5.47,25.89,5.37z"/>
				<path d="M26.85,6.09V3.32h0.94c0.33,0,0.61,0.11,0.83,0.32c0.22,0.22,0.33,0.49,0.33,0.83v0.46c0,0.34-0.11,0.62-0.33,0.83
					c-0.22,0.22-0.49,0.32-0.83,0.32H26.85z M27.4,3.75v1.92h0.36c0.2,0,0.35-0.07,0.46-0.2c0.11-0.13,0.17-0.31,0.17-0.53V4.47
					c0-0.21-0.06-0.39-0.17-0.52c-0.11-0.13-0.27-0.2-0.46-0.2H27.4z"/>
				<path d="M32.12,5.12c0,0.3-0.07,0.55-0.21,0.73s-0.33,0.28-0.58,0.28c-0.11,0-0.2-0.02-0.28-0.06c-0.08-0.04-0.15-0.1-0.21-0.18
					v0.99h-0.55V4.03h0.49l0.03,0.24c0.06-0.09,0.13-0.16,0.22-0.21c0.08-0.05,0.18-0.07,0.3-0.07c0.25,0,0.45,0.1,0.59,0.3
					s0.21,0.46,0.21,0.79V5.12z M31.57,5.08c0-0.19-0.03-0.35-0.1-0.47c-0.06-0.12-0.16-0.18-0.29-0.18c-0.08,0-0.15,0.02-0.21,0.05
					c-0.06,0.03-0.1,0.08-0.14,0.15v0.9c0.03,0.06,0.08,0.1,0.14,0.13c0.06,0.03,0.13,0.05,0.22,0.05c0.13,0,0.23-0.05,0.29-0.16
					s0.09-0.25,0.09-0.43V5.08z"/>
				<path d="M33.36,6.13c-0.29,0-0.53-0.1-0.7-0.29c-0.18-0.19-0.26-0.43-0.26-0.72V5.05c0-0.31,0.08-0.56,0.25-0.76
					c0.17-0.2,0.39-0.3,0.67-0.29c0.27,0,0.49,0.08,0.64,0.25c0.15,0.17,0.23,0.39,0.23,0.68v0.3h-1.21l0,0.01
					c0.01,0.14,0.05,0.25,0.13,0.33c0.08,0.09,0.19,0.13,0.32,0.13c0.12,0,0.22-0.01,0.3-0.04c0.08-0.02,0.17-0.06,0.26-0.12
					l0.15,0.34c-0.08,0.07-0.19,0.13-0.33,0.17C33.67,6.11,33.52,6.13,33.36,6.13z M33.31,4.42c-0.1,0-0.18,0.04-0.24,0.12
					c-0.06,0.08-0.1,0.18-0.11,0.31l0.01,0.01h0.67V4.81c0-0.12-0.03-0.21-0.08-0.28S33.42,4.42,33.31,4.42z"/>
				<path d="M35.57,4.51l-0.2-0.01c-0.08,0-0.15,0.02-0.2,0.05c-0.05,0.03-0.09,0.08-0.12,0.15v1.39H34.5V4.03h0.51l0.02,0.3
					c0.05-0.11,0.11-0.19,0.19-0.25c0.08-0.06,0.16-0.09,0.26-0.09c0.03,0,0.05,0,0.08,0.01c0.02,0,0.05,0.01,0.07,0.02L35.57,4.51z
					"/>
				<path d="M38.64,5.12c0,0.3-0.07,0.55-0.21,0.73s-0.33,0.28-0.58,0.28c-0.11,0-0.2-0.02-0.28-0.06c-0.08-0.04-0.15-0.1-0.21-0.18
					v0.99H36.8V4.03h0.49l0.03,0.24c0.06-0.09,0.13-0.16,0.22-0.21c0.08-0.05,0.18-0.07,0.3-0.07c0.25,0,0.45,0.1,0.59,0.3
					s0.21,0.46,0.21,0.79V5.12z M38.09,5.08c0-0.19-0.03-0.35-0.1-0.47c-0.06-0.12-0.16-0.18-0.29-0.18c-0.08,0-0.15,0.02-0.21,0.05
					c-0.06,0.03-0.1,0.08-0.14,0.15v0.9c0.03,0.06,0.08,0.1,0.14,0.13c0.06,0.03,0.13,0.05,0.22,0.05c0.13,0,0.23-0.05,0.29-0.16
					s0.09-0.25,0.09-0.43V5.08z"/>
				<path d="M38.89,5.04c0-0.31,0.08-0.56,0.25-0.76c0.17-0.2,0.4-0.29,0.7-0.29c0.3,0,0.54,0.1,0.71,0.29
					c0.17,0.2,0.26,0.45,0.26,0.76v0.04c0,0.31-0.08,0.56-0.25,0.76c-0.17,0.19-0.4,0.29-0.7,0.29c-0.3,0-0.54-0.1-0.71-0.29
					c-0.17-0.2-0.25-0.45-0.25-0.76V5.04z M39.44,5.08c0,0.19,0.03,0.34,0.1,0.45c0.07,0.11,0.17,0.17,0.32,0.17
					c0.14,0,0.25-0.06,0.31-0.17s0.1-0.26,0.1-0.45V5.04c0-0.18-0.03-0.33-0.1-0.45s-0.17-0.17-0.31-0.17
					c-0.14,0-0.25,0.06-0.31,0.17s-0.1,0.26-0.1,0.45V5.08z"/>
				<path d="M41.73,3.54h-0.55V3.12h0.55V3.54z M41.73,6.09h-0.55V4.03h0.55V6.09z"/>
				<path d="M42.68,4.03l0.02,0.29c0.07-0.11,0.15-0.19,0.25-0.25s0.21-0.09,0.33-0.09c0.21,0,0.37,0.07,0.48,0.2
					s0.17,0.34,0.17,0.62v1.29h-0.55V4.8c0-0.14-0.03-0.24-0.08-0.29c-0.06-0.06-0.14-0.09-0.25-0.09c-0.07,0-0.14,0.01-0.2,0.04
					c-0.06,0.03-0.11,0.07-0.14,0.13v1.5h-0.55V4.03H42.68z"/>
				<path d="M45,3.53v0.5h0.34v0.39H45v1.05c0,0.08,0.02,0.14,0.05,0.17s0.08,0.05,0.13,0.05c0.03,0,0.05,0,0.07,0
					c0.02,0,0.04-0.01,0.07-0.02l0.05,0.4c-0.06,0.02-0.11,0.03-0.16,0.04c-0.05,0.01-0.11,0.01-0.17,0.01
					c-0.19,0-0.33-0.05-0.44-0.16c-0.1-0.11-0.15-0.27-0.15-0.5V4.42h-0.3V4.03h0.3v-0.5H45z"/>
			</g>
		</g>
		<g>
			<path class="st3" d="M61.58,25.22h-0.84v0.66h0.96v0.2H60.5v-1.85h1.2v0.2h-0.95v0.6h0.84V25.22z"/>
			<path class="st3" d="M62.42,25.21l0.29-0.51h0.29l-0.44,0.68L63,26.07h-0.28l-0.3-0.52l-0.3,0.52h-0.29l0.45-0.69l-0.44-0.68
				h0.28L62.42,25.21z"/>
			<path class="st3" d="M63.51,24.35h-0.25v-0.25h0.25V24.35z M63.51,26.07h-0.25V24.7h0.25V26.07z"/>
			<path class="st3" d="M64.22,24.37v0.33h0.26v0.19h-0.26v0.83c0,0.06,0.01,0.11,0.04,0.14c0.03,0.03,0.06,0.04,0.1,0.04
				c0.01,0,0.03,0,0.05,0c0.02,0,0.03-0.01,0.05-0.01l0.03,0.17c-0.02,0.02-0.05,0.03-0.08,0.04c-0.04,0.01-0.07,0.01-0.11,0.01
				c-0.1,0-0.18-0.03-0.24-0.09c-0.06-0.06-0.09-0.16-0.09-0.29v-0.83h-0.22V24.7h0.22v-0.33H64.22z"/>
			<path class="st3" d="M65.68,26.07h-0.25v-1.98h0.25V26.07z"/>
			<path class="st3" d="M66.63,26.1c-0.19,0-0.34-0.06-0.45-0.19c-0.11-0.13-0.17-0.29-0.17-0.5v-0.06c0-0.2,0.06-0.36,0.17-0.49
				s0.25-0.2,0.41-0.2c0.18,0,0.32,0.06,0.42,0.17c0.09,0.11,0.14,0.26,0.14,0.45v0.16h-0.88l0,0.01c0,0.13,0.04,0.24,0.1,0.33
				c0.06,0.08,0.15,0.13,0.27,0.13c0.08,0,0.16-0.01,0.22-0.04c0.06-0.02,0.12-0.06,0.16-0.1l0.1,0.16
				c-0.05,0.05-0.11,0.09-0.19,0.12C66.84,26.08,66.74,26.1,66.63,26.1z M66.59,24.87c-0.08,0-0.15,0.04-0.21,0.11
				c-0.06,0.07-0.09,0.16-0.11,0.27l0,0.01h0.63v-0.03c0-0.1-0.03-0.18-0.08-0.25C66.77,24.9,66.69,24.87,66.59,24.87z"/>
			<path class="st3" d="M67.86,25.67l0.02,0.1h0.01l0.02-0.1l0.31-0.97h0.25l-0.5,1.37h-0.19l-0.5-1.37h0.25L67.86,25.67z"/>
			<path class="st3" d="M69.24,26.1c-0.19,0-0.34-0.06-0.45-0.19c-0.11-0.13-0.17-0.29-0.17-0.5v-0.06c0-0.2,0.06-0.36,0.17-0.49
				s0.25-0.2,0.41-0.2c0.18,0,0.32,0.06,0.42,0.17c0.09,0.11,0.14,0.26,0.14,0.45v0.16h-0.88l0,0.01c0,0.13,0.04,0.24,0.1,0.33
				c0.06,0.08,0.15,0.13,0.27,0.13c0.08,0,0.16-0.01,0.22-0.04c0.06-0.02,0.12-0.06,0.16-0.1l0.1,0.16
				c-0.05,0.05-0.11,0.09-0.19,0.12C69.45,26.08,69.35,26.1,69.24,26.1z M69.2,24.87c-0.08,0-0.15,0.04-0.21,0.11
				c-0.06,0.07-0.09,0.16-0.11,0.27l0,0.01h0.63v-0.03c0-0.1-0.03-0.18-0.08-0.25C69.38,24.9,69.31,24.87,69.2,24.87z"/>
			<path class="st3" d="M70.3,26.07h-0.25v-1.98h0.25V26.07z"/>
			<path class="st3" d="M61.94,30.3H61.3v-2.66h-0.65v-0.46l1.29-0.12V30.3z"/>
			<path class="st3" d="M65.22,29.04c0,0.43-0.1,0.75-0.29,0.97c-0.19,0.22-0.46,0.33-0.79,0.33c-0.33,0-0.6-0.11-0.79-0.33
				c-0.19-0.22-0.29-0.55-0.29-0.97v-0.71c0-0.43,0.1-0.75,0.29-0.97c0.19-0.22,0.46-0.33,0.79-0.33c0.33,0,0.59,0.11,0.79,0.33
				c0.19,0.22,0.29,0.55,0.29,0.97V29.04z M64.58,28.26c0-0.26-0.04-0.44-0.11-0.56s-0.19-0.18-0.33-0.18
				c-0.14,0-0.25,0.06-0.33,0.18c-0.07,0.12-0.11,0.31-0.11,0.56v0.84c0,0.26,0.04,0.45,0.11,0.57s0.19,0.18,0.33,0.18
				c0.14,0,0.25-0.06,0.33-0.18c0.07-0.12,0.11-0.31,0.11-0.57V28.26z"/>
			<path class="st3" d="M66.57,29.84c0.17,0,0.31-0.06,0.41-0.19s0.16-0.31,0.16-0.54v-0.16c-0.07,0.09-0.16,0.16-0.26,0.21
				c-0.1,0.05-0.21,0.07-0.32,0.07c-0.3,0-0.53-0.1-0.7-0.29c-0.17-0.2-0.26-0.46-0.26-0.8c0-0.32,0.1-0.59,0.3-0.8
				c0.2-0.22,0.46-0.32,0.77-0.32c0.33,0,0.59,0.11,0.79,0.34c0.2,0.23,0.3,0.55,0.3,0.96v0.76c0,0.39-0.11,0.7-0.34,0.93
				s-0.52,0.34-0.87,0.34c-0.11,0-0.23-0.01-0.34-0.04c-0.12-0.02-0.23-0.06-0.33-0.1l0.07-0.47c0.09,0.04,0.19,0.06,0.28,0.08
				C66.35,29.84,66.45,29.84,66.57,29.84z M66.67,28.76c0.11,0,0.2-0.02,0.28-0.06c0.08-0.04,0.14-0.09,0.19-0.16v-0.3
				c0-0.24-0.04-0.42-0.12-0.54c-0.08-0.12-0.19-0.18-0.33-0.18c-0.13,0-0.23,0.06-0.31,0.18c-0.08,0.12-0.12,0.27-0.12,0.44
				c0,0.18,0.04,0.33,0.11,0.45S66.54,28.76,66.67,28.76z"/>
			<path class="st3" d="M69.15,29.84c0.17,0,0.31-0.06,0.41-0.19s0.16-0.31,0.16-0.54v-0.16c-0.07,0.09-0.16,0.16-0.26,0.21
				c-0.1,0.05-0.21,0.07-0.32,0.07c-0.3,0-0.53-0.1-0.7-0.29c-0.17-0.2-0.26-0.46-0.26-0.8c0-0.32,0.1-0.59,0.3-0.8
				c0.2-0.22,0.46-0.32,0.77-0.32c0.33,0,0.59,0.11,0.79,0.34c0.2,0.23,0.3,0.55,0.3,0.96v0.76c0,0.39-0.11,0.7-0.34,0.93
				s-0.52,0.34-0.87,0.34c-0.11,0-0.23-0.01-0.34-0.04c-0.12-0.02-0.23-0.06-0.33-0.1l0.07-0.47c0.09,0.04,0.19,0.06,0.28,0.08
				C68.92,29.84,69.03,29.84,69.15,29.84z M69.25,28.76c0.11,0,0.2-0.02,0.28-0.06c0.08-0.04,0.14-0.09,0.19-0.16v-0.3
				c0-0.24-0.04-0.42-0.12-0.54c-0.08-0.12-0.19-0.18-0.33-0.18c-0.13,0-0.23,0.06-0.31,0.18c-0.08,0.12-0.12,0.27-0.12,0.44
				c0,0.18,0.04,0.33,0.11,0.45S69.11,28.76,69.25,28.76z"/>
		</g>
		<g>
			<path class="st4" d="M46.59,13.83h-0.84v0.66h0.96v0.2H45.5v-1.85h1.2v0.2h-0.95v0.6h0.84V13.83z"/>
			<path class="st4" d="M47.42,13.82l0.29-0.51h0.29l-0.44,0.68l0.45,0.69h-0.28l-0.3-0.52l-0.3,0.52h-0.29l0.45-0.69l-0.44-0.68
				h0.28L47.42,13.82z"/>
			<path class="st4" d="M48.52,12.96h-0.25V12.7h0.25V12.96z M48.52,14.68h-0.25v-1.37h0.25V14.68z"/>
			<path class="st4" d="M49.22,12.98v0.33h0.26v0.19h-0.26v0.83c0,0.06,0.01,0.11,0.04,0.14c0.03,0.03,0.06,0.04,0.1,0.04
				c0.01,0,0.03,0,0.05,0c0.02,0,0.03-0.01,0.05-0.01l0.03,0.17c-0.02,0.02-0.05,0.03-0.08,0.04c-0.04,0.01-0.07,0.01-0.11,0.01
				c-0.1,0-0.18-0.03-0.24-0.09c-0.06-0.06-0.09-0.16-0.09-0.29V13.5h-0.22v-0.19h0.22v-0.33H49.22z"/>
			<path class="st4" d="M51.21,14.32c0-0.06-0.02-0.1-0.06-0.14c-0.04-0.04-0.12-0.07-0.23-0.09c-0.16-0.04-0.29-0.09-0.37-0.15
				c-0.08-0.06-0.12-0.15-0.12-0.25c0-0.11,0.05-0.21,0.14-0.29c0.09-0.08,0.22-0.12,0.37-0.12c0.16,0,0.28,0.04,0.38,0.12
				c0.09,0.08,0.14,0.18,0.13,0.3l0,0.01h-0.24c0-0.06-0.02-0.11-0.07-0.16c-0.05-0.05-0.12-0.07-0.2-0.07
				c-0.09,0-0.15,0.02-0.2,0.06s-0.06,0.09-0.06,0.14c0,0.05,0.02,0.1,0.06,0.13s0.11,0.06,0.23,0.08c0.17,0.04,0.3,0.09,0.38,0.15
				c0.08,0.06,0.13,0.15,0.13,0.26c0,0.12-0.05,0.22-0.15,0.3c-0.1,0.08-0.22,0.11-0.38,0.11c-0.17,0-0.31-0.04-0.41-0.13
				c-0.1-0.09-0.15-0.19-0.14-0.31l0-0.01h0.24c0,0.09,0.04,0.15,0.1,0.19c0.06,0.04,0.13,0.06,0.21,0.06
				c0.09,0,0.16-0.02,0.21-0.05C51.18,14.42,51.21,14.38,51.21,14.32z"/>
			<path class="st4" d="M52.92,14.05c0,0.2-0.05,0.36-0.14,0.48c-0.09,0.12-0.22,0.18-0.39,0.18c-0.08,0-0.16-0.01-0.22-0.04
				s-0.12-0.07-0.16-0.13v0.67h-0.25v-1.9h0.19l0.04,0.18c0.04-0.07,0.1-0.12,0.17-0.15c0.07-0.04,0.14-0.05,0.23-0.05
				c0.17,0,0.3,0.07,0.39,0.2s0.14,0.31,0.14,0.54V14.05z M52.67,14.02c0-0.16-0.03-0.28-0.09-0.38c-0.06-0.1-0.15-0.15-0.27-0.15
				c-0.07,0-0.13,0.02-0.18,0.05c-0.05,0.03-0.09,0.08-0.12,0.13v0.66c0.03,0.06,0.07,0.1,0.12,0.13c0.05,0.03,0.11,0.05,0.18,0.05
				c0.12,0,0.21-0.04,0.27-0.13c0.06-0.09,0.09-0.2,0.09-0.34V14.02z"/>
			<path class="st4" d="M53.16,13.98c0-0.2,0.05-0.37,0.16-0.5c0.11-0.13,0.26-0.2,0.44-0.2c0.19,0,0.34,0.07,0.45,0.2
				c0.11,0.13,0.16,0.3,0.16,0.5v0.03c0,0.21-0.05,0.37-0.16,0.5c-0.11,0.13-0.26,0.2-0.44,0.2c-0.19,0-0.34-0.07-0.44-0.2
				c-0.11-0.13-0.16-0.3-0.16-0.5V13.98z M53.41,14.01c0,0.15,0.03,0.26,0.09,0.36c0.06,0.09,0.15,0.14,0.27,0.14
				c0.12,0,0.21-0.05,0.27-0.14s0.09-0.21,0.09-0.36v-0.03c0-0.14-0.03-0.26-0.09-0.36c-0.06-0.1-0.15-0.14-0.27-0.14
				c-0.12,0-0.21,0.05-0.27,0.14c-0.06,0.09-0.09,0.21-0.09,0.36V14.01z"/>
			<path class="st4" d="M55.01,12.98v0.33h0.26v0.19h-0.26v0.83c0,0.06,0.01,0.11,0.04,0.14c0.03,0.03,0.06,0.04,0.1,0.04
				c0.01,0,0.03,0,0.05,0c0.02,0,0.03-0.01,0.05-0.01l0.03,0.17c-0.02,0.02-0.05,0.03-0.08,0.04c-0.04,0.01-0.07,0.01-0.11,0.01
				c-0.1,0-0.18-0.03-0.24-0.09c-0.06-0.06-0.09-0.16-0.09-0.29V13.5h-0.22v-0.19h0.22v-0.33H55.01z"/>
			<path class="st4" d="M46.94,18.91H46.3v-2.66h-0.65v-0.46l1.29-0.12V18.91z"/>
			<path class="st4" d="M49.52,18.91h-0.64v-2.66h-0.65v-0.46l1.29-0.12V18.91z"/>
			<path class="st4" d="M52.8,17.65c0,0.43-0.1,0.75-0.29,0.97c-0.19,0.22-0.46,0.33-0.79,0.33c-0.33,0-0.6-0.11-0.79-0.33
				c-0.19-0.22-0.29-0.55-0.29-0.97v-0.71c0-0.43,0.1-0.75,0.29-0.97c0.19-0.22,0.46-0.33,0.79-0.33c0.33,0,0.59,0.11,0.79,0.33
				c0.19,0.22,0.29,0.55,0.29,0.97V17.65z M52.16,16.87c0-0.26-0.04-0.44-0.11-0.56s-0.19-0.18-0.33-0.18
				c-0.14,0-0.25,0.06-0.33,0.18c-0.07,0.12-0.11,0.31-0.11,0.56v0.84c0,0.26,0.04,0.45,0.11,0.57s0.19,0.18,0.33,0.18
				c0.14,0,0.25-0.06,0.33-0.18c0.07-0.12,0.11-0.31,0.11-0.57V16.87z"/>
			<path class="st4" d="M55.38,17.65c0,0.43-0.1,0.75-0.29,0.97c-0.19,0.22-0.46,0.33-0.79,0.33c-0.33,0-0.6-0.11-0.79-0.33
				c-0.19-0.22-0.29-0.55-0.29-0.97v-0.71c0-0.43,0.1-0.75,0.29-0.97c0.19-0.22,0.46-0.33,0.79-0.33c0.33,0,0.59,0.11,0.79,0.33
				c0.19,0.22,0.29,0.55,0.29,0.97V17.65z M54.74,16.87c0-0.26-0.04-0.44-0.11-0.56s-0.19-0.18-0.33-0.18
				c-0.14,0-0.25,0.06-0.33,0.18c-0.07,0.12-0.11,0.31-0.11,0.56v0.84c0,0.26,0.04,0.45,0.11,0.57s0.19,0.18,0.33,0.18
				c0.14,0,0.25-0.06,0.33-0.18c0.07-0.12,0.11-0.31,0.11-0.57V16.87z"/>
		</g>
		<g>
			<path class="st4" d="M26.3,43.89h-0.84v0.66h0.96v0.2h-1.21V42.9h1.2v0.2h-0.95v0.6h0.84V43.89z"/>
			<path class="st4" d="M27.13,43.88l0.29-0.51h0.29l-0.44,0.68l0.45,0.69h-0.28l-0.3-0.52l-0.3,0.52h-0.29L27,44.05l-0.44-0.68
				h0.28L27.13,43.88z"/>
			<path class="st4" d="M28.23,43.02h-0.25v-0.25h0.25V43.02z M28.23,44.75h-0.25v-1.37h0.25V44.75z"/>
			<path class="st4" d="M28.93,43.04v0.33h0.26v0.19h-0.26v0.83c0,0.06,0.01,0.11,0.04,0.14c0.03,0.03,0.06,0.04,0.1,0.04
				c0.01,0,0.03,0,0.05,0c0.02,0,0.03-0.01,0.05-0.01l0.03,0.17c-0.02,0.02-0.05,0.03-0.08,0.04c-0.04,0.01-0.07,0.01-0.11,0.01
				c-0.1,0-0.18-0.03-0.24-0.09c-0.06-0.06-0.09-0.16-0.09-0.29v-0.83h-0.22v-0.19h0.22v-0.33H28.93z"/>
			<path class="st4" d="M30.92,44.38c0-0.06-0.02-0.1-0.06-0.14c-0.04-0.04-0.12-0.07-0.23-0.09c-0.16-0.04-0.29-0.09-0.37-0.15
				c-0.08-0.06-0.12-0.15-0.12-0.25c0-0.11,0.05-0.21,0.14-0.29c0.09-0.08,0.22-0.12,0.37-0.12c0.16,0,0.28,0.04,0.38,0.12
				c0.09,0.08,0.14,0.18,0.13,0.3l0,0.01H30.9c0-0.06-0.02-0.11-0.07-0.16c-0.05-0.05-0.12-0.07-0.2-0.07
				c-0.09,0-0.15,0.02-0.2,0.06s-0.06,0.09-0.06,0.14c0,0.05,0.02,0.1,0.06,0.13s0.11,0.06,0.23,0.08c0.17,0.04,0.3,0.09,0.38,0.15
				c0.08,0.06,0.13,0.15,0.13,0.26c0,0.12-0.05,0.22-0.15,0.3c-0.1,0.08-0.22,0.11-0.38,0.11c-0.17,0-0.31-0.04-0.41-0.13
				c-0.1-0.09-0.15-0.19-0.14-0.31l0-0.01h0.24c0,0.09,0.04,0.15,0.1,0.19c0.06,0.04,0.13,0.06,0.21,0.06
				c0.09,0,0.16-0.02,0.21-0.05C30.89,44.49,30.92,44.44,30.92,44.38z"/>
			<path class="st4" d="M32.63,44.11c0,0.2-0.05,0.36-0.14,0.48c-0.09,0.12-0.22,0.18-0.39,0.18c-0.08,0-0.16-0.01-0.22-0.04
				s-0.12-0.07-0.16-0.13v0.67h-0.25v-1.9h0.19l0.04,0.18c0.04-0.07,0.1-0.12,0.17-0.15c0.07-0.04,0.14-0.05,0.23-0.05
				c0.17,0,0.3,0.07,0.39,0.2s0.14,0.31,0.14,0.54V44.11z M32.38,44.08c0-0.16-0.03-0.28-0.09-0.38c-0.06-0.1-0.15-0.15-0.27-0.15
				c-0.07,0-0.13,0.02-0.18,0.05c-0.05,0.03-0.09,0.08-0.12,0.13v0.66c0.03,0.06,0.07,0.1,0.12,0.13c0.05,0.03,0.11,0.05,0.18,0.05
				c0.12,0,0.21-0.04,0.27-0.13c0.06-0.09,0.09-0.2,0.09-0.34V44.08z"/>
			<path class="st4" d="M32.87,44.05c0-0.2,0.05-0.37,0.16-0.5c0.11-0.13,0.26-0.2,0.44-0.2c0.19,0,0.34,0.07,0.45,0.2
				c0.11,0.13,0.16,0.3,0.16,0.5v0.03c0,0.21-0.05,0.37-0.16,0.5c-0.11,0.13-0.26,0.2-0.44,0.2c-0.19,0-0.34-0.07-0.44-0.2
				c-0.11-0.13-0.16-0.3-0.16-0.5V44.05z M33.12,44.07c0,0.15,0.03,0.26,0.09,0.36c0.06,0.09,0.15,0.14,0.27,0.14
				c0.12,0,0.21-0.05,0.27-0.14s0.09-0.21,0.09-0.36v-0.03c0-0.14-0.03-0.26-0.09-0.36c-0.06-0.1-0.15-0.14-0.27-0.14
				c-0.12,0-0.21,0.05-0.27,0.14c-0.06,0.09-0.09,0.21-0.09,0.36V44.07z"/>
			<path class="st4" d="M34.72,43.04v0.33h0.26v0.19h-0.26v0.83c0,0.06,0.01,0.11,0.04,0.14c0.03,0.03,0.06,0.04,0.1,0.04
				c0.01,0,0.03,0,0.05,0c0.02,0,0.03-0.01,0.05-0.01l0.03,0.17c-0.02,0.02-0.05,0.03-0.08,0.04c-0.04,0.01-0.07,0.01-0.11,0.01
				c-0.1,0-0.18-0.03-0.24-0.09c-0.06-0.06-0.09-0.16-0.09-0.29v-0.83h-0.22v-0.19h0.22v-0.33H34.72z"/>
			<path class="st4" d="M26.65,48.97h-0.64v-2.66h-0.65v-0.46l1.29-0.12V48.97z"/>
			<path class="st4" d="M29.93,47.71c0,0.43-0.1,0.75-0.29,0.97c-0.19,0.22-0.46,0.33-0.79,0.33c-0.33,0-0.6-0.11-0.79-0.33
				c-0.19-0.22-0.29-0.55-0.29-0.97V47c0-0.43,0.1-0.75,0.29-0.97c0.19-0.22,0.46-0.33,0.79-0.33c0.33,0,0.59,0.11,0.79,0.33
				c0.19,0.22,0.29,0.55,0.29,0.97V47.71z M29.3,46.93c0-0.26-0.04-0.44-0.11-0.56s-0.19-0.18-0.33-0.18
				c-0.14,0-0.25,0.06-0.33,0.18c-0.07,0.12-0.11,0.31-0.11,0.56v0.84c0,0.26,0.04,0.45,0.11,0.57s0.19,0.18,0.33,0.18
				c0.14,0,0.25-0.06,0.33-0.18c0.07-0.12,0.11-0.31,0.11-0.57V46.93z"/>
			<path class="st4" d="M32.51,47.71c0,0.43-0.1,0.75-0.29,0.97c-0.19,0.22-0.46,0.33-0.79,0.33c-0.33,0-0.6-0.11-0.79-0.33
				c-0.19-0.22-0.29-0.55-0.29-0.97V47c0-0.43,0.1-0.75,0.29-0.97c0.19-0.22,0.46-0.33,0.79-0.33c0.33,0,0.59,0.11,0.79,0.33
				c0.19,0.22,0.29,0.55,0.29,0.97V47.71z M31.87,46.93c0-0.26-0.04-0.44-0.11-0.56s-0.19-0.18-0.33-0.18
				c-0.14,0-0.25,0.06-0.33,0.18c-0.07,0.12-0.11,0.31-0.11,0.56v0.84c0,0.26,0.04,0.45,0.11,0.57s0.19,0.18,0.33,0.18
				c0.14,0,0.25-0.06,0.33-0.18c0.07-0.12,0.11-0.31,0.11-0.57V46.93z"/>
			<path class="st4" d="M35.09,47.71c0,0.43-0.1,0.75-0.29,0.97c-0.19,0.22-0.46,0.33-0.79,0.33c-0.33,0-0.6-0.11-0.79-0.33
				c-0.19-0.22-0.29-0.55-0.29-0.97V47c0-0.43,0.1-0.75,0.29-0.97c0.19-0.22,0.46-0.33,0.79-0.33c0.33,0,0.59,0.11,0.79,0.33
				c0.19,0.22,0.29,0.55,0.29,0.97V47.71z M34.45,46.93c0-0.26-0.04-0.44-0.11-0.56s-0.19-0.18-0.33-0.18
				c-0.14,0-0.25,0.06-0.33,0.18c-0.07,0.12-0.11,0.31-0.11,0.56v0.84c0,0.26,0.04,0.45,0.11,0.57s0.19,0.18,0.33,0.18
				c0.14,0,0.25-0.06,0.33-0.18c0.07-0.12,0.11-0.31,0.11-0.57V46.93z"/>
		</g>
		<g>
			<path class="st3" d="M11.52,32.24h-0.84v0.66h0.96v0.2h-1.21v-1.85h1.2v0.2h-0.95v0.6h0.84V32.24z"/>
			<path class="st3" d="M12.35,32.23l0.29-0.51h0.29l-0.44,0.68l0.45,0.69h-0.28l-0.3-0.52l-0.3,0.52h-0.29l0.45-0.69l-0.44-0.68
				h0.28L12.35,32.23z"/>
			<path class="st3" d="M13.44,31.38H13.2v-0.25h0.25V31.38z M13.44,33.1H13.2v-1.37h0.25V33.1z"/>
			<path class="st3" d="M14.15,31.4v0.33h0.26v0.19h-0.26v0.83c0,0.06,0.01,0.11,0.04,0.14c0.03,0.03,0.06,0.04,0.1,0.04
				c0.01,0,0.03,0,0.05,0c0.02,0,0.03-0.01,0.05-0.01l0.03,0.17c-0.02,0.02-0.05,0.03-0.08,0.04c-0.04,0.01-0.07,0.01-0.11,0.01
				c-0.1,0-0.18-0.03-0.24-0.09c-0.06-0.06-0.09-0.16-0.09-0.29v-0.83h-0.22v-0.19h0.22V31.4H14.15z"/>
			<path class="st3" d="M15.62,33.1h-0.25v-1.98h0.25V33.1z"/>
			<path class="st3" d="M16.56,33.13c-0.19,0-0.34-0.06-0.45-0.19c-0.11-0.13-0.17-0.29-0.17-0.5v-0.06c0-0.2,0.06-0.36,0.17-0.49
				c0.11-0.13,0.25-0.2,0.41-0.2c0.18,0,0.32,0.06,0.42,0.17c0.09,0.11,0.14,0.26,0.14,0.45v0.16H16.2l0,0.01
				c0,0.13,0.04,0.24,0.1,0.33c0.06,0.08,0.15,0.13,0.27,0.13c0.08,0,0.16-0.01,0.22-0.04c0.06-0.02,0.12-0.06,0.16-0.1l0.1,0.16
				c-0.05,0.05-0.11,0.09-0.19,0.12C16.77,33.11,16.67,33.13,16.56,33.13z M16.52,31.9c-0.08,0-0.15,0.04-0.21,0.11
				c-0.06,0.07-0.09,0.16-0.11,0.27l0,0.01h0.63v-0.03c0-0.1-0.03-0.18-0.08-0.25C16.7,31.93,16.62,31.9,16.52,31.9z"/>
			<path class="st3" d="M17.79,32.7l0.02,0.1h0.01l0.02-0.1l0.31-0.97h0.25l-0.5,1.37h-0.19l-0.5-1.37h0.25L17.79,32.7z"/>
			<path class="st3" d="M19.17,33.13c-0.19,0-0.34-0.06-0.45-0.19c-0.11-0.13-0.17-0.29-0.17-0.5v-0.06c0-0.2,0.06-0.36,0.17-0.49
				c0.11-0.13,0.25-0.2,0.41-0.2c0.18,0,0.32,0.06,0.42,0.17c0.09,0.11,0.14,0.26,0.14,0.45v0.16h-0.88l0,0.01
				c0,0.13,0.04,0.24,0.1,0.33c0.06,0.08,0.15,0.13,0.27,0.13c0.08,0,0.16-0.01,0.22-0.04c0.06-0.02,0.12-0.06,0.16-0.1l0.1,0.16
				c-0.05,0.05-0.11,0.09-0.19,0.12C19.38,33.11,19.29,33.13,19.17,33.13z M19.13,31.9c-0.08,0-0.15,0.04-0.21,0.11
				c-0.06,0.07-0.09,0.16-0.11,0.27l0,0.01h0.63v-0.03c0-0.1-0.03-0.18-0.08-0.25C19.31,31.93,19.24,31.9,19.13,31.9z"/>
			<path class="st3" d="M20.23,33.1h-0.25v-1.98h0.25V33.1z"/>
			<path class="st3" d="M11.99,37.33H11.3v-2.85h-0.7v-0.49l1.38-0.12V37.33z"/>
			<path class="st3" d="M15.51,35.98c0,0.46-0.1,0.81-0.31,1.04s-0.49,0.36-0.84,0.36c-0.36,0-0.64-0.12-0.85-0.36
				s-0.31-0.58-0.31-1.04v-0.76c0-0.46,0.1-0.81,0.31-1.04c0.21-0.24,0.49-0.36,0.84-0.36c0.35,0,0.64,0.12,0.84,0.36
				c0.21,0.24,0.31,0.59,0.31,1.04V35.98z M14.82,35.14c0-0.27-0.04-0.48-0.12-0.6c-0.08-0.13-0.2-0.19-0.35-0.19
				c-0.16,0-0.27,0.06-0.35,0.19c-0.08,0.13-0.12,0.33-0.12,0.6v0.9c0,0.28,0.04,0.48,0.12,0.61s0.2,0.19,0.36,0.19
				c0.15,0,0.27-0.06,0.35-0.19s0.12-0.33,0.12-0.61V35.14z"/>
			<path class="st3" d="M18.27,35.98c0,0.46-0.1,0.81-0.31,1.04s-0.49,0.36-0.84,0.36c-0.36,0-0.64-0.12-0.85-0.36
				s-0.31-0.58-0.31-1.04v-0.76c0-0.46,0.1-0.81,0.31-1.04c0.21-0.24,0.49-0.36,0.84-0.36c0.35,0,0.64,0.12,0.84,0.36
				c0.21,0.24,0.31,0.59,0.31,1.04V35.98z M17.58,35.14c0-0.27-0.04-0.48-0.12-0.6c-0.08-0.13-0.2-0.19-0.35-0.19
				c-0.16,0-0.27,0.06-0.35,0.19c-0.08,0.13-0.12,0.33-0.12,0.6v0.9c0,0.28,0.04,0.48,0.12,0.61s0.2,0.19,0.36,0.19
				c0.15,0,0.27-0.06,0.35-0.19s0.12-0.33,0.12-0.61V35.14z"/>
			<path class="st3" d="M20.27,37.33h-0.69v-2.85h-0.7v-0.49l1.38-0.12V37.33z"/>
		</g>
		<polyline class="st5" points="9.11,46.95 10.88,44.37 15.77,45.51 22.45,40.14 23.81,40.47 26.97,35.35 30,33.48 34.06,26.32 
			37.74,29.26 39.62,24.3 40.63,25.44 41.27,23.32 41.91,24.06 43.92,23.32 45.04,24.46 47.29,22.43 50.98,22.43 53.54,24.87 
			55.15,21.62 55.69,22.43 57.39,19.59 58.84,20.81 61.96,15.12 63.49,17.31 65.01,16.26 67.42,16.34 69.9,14.68 72.23,13.98 		"/>
		<g>
			<g class="st6">
				<ellipse class="st7" cx="65" cy="16.1" rx="2.17" ry="2.26"/>
			</g>
			<g>
				<ellipse class="st8" cx="65" cy="16.1" rx="2.17" ry="2.26"/>
			</g>
		</g>
		<g>
			<g class="st6">
				<ellipse class="st7" cx="15.7" cy="45.58" rx="2.17" ry="2.26"/>
			</g>
			<g>
				<ellipse class="st8" cx="15.7" cy="45.58" rx="2.17" ry="2.26"/>
			</g>
		</g>
		<line class="st8" x1="62.83" y1="16.1" x2="56.55" y2="16.1"/>
		<line class="st8" x1="24.15" y1="45.58" x2="17.87" y2="45.58"/>
		<g>
			<polygon class="st9" points="16.52,40.63 15.7,41.8 14.89,40.63 			"/>
			<line class="st8" x1="15.7" y1="40.99" x2="15.7" y2="38.52"/>
		</g>
		<g>
			<polygon class="st9" points="64.52,21.27 65.33,20.11 66.15,21.27 			"/>
			<line class="st8" x1="65.33" y1="20.92" x2="65.33" y2="23.39"/>
		</g>
	</g>
	<g>
		<path d="M64.84,5.51c0-0.1-0.04-0.19-0.12-0.26c-0.08-0.07-0.22-0.13-0.42-0.18c-0.24-0.06-0.43-0.14-0.56-0.26
			c-0.14-0.11-0.2-0.26-0.2-0.43c0-0.18,0.07-0.33,0.22-0.45c0.15-0.12,0.33-0.18,0.57-0.18c0.25,0,0.45,0.07,0.6,0.21
			c0.15,0.14,0.22,0.3,0.21,0.48l0,0.01h-0.29c0-0.14-0.04-0.25-0.13-0.33c-0.09-0.08-0.21-0.12-0.38-0.12
			c-0.15,0-0.27,0.04-0.35,0.11s-0.12,0.16-0.12,0.28c0,0.1,0.04,0.18,0.13,0.25c0.09,0.07,0.23,0.13,0.43,0.18
			c0.24,0.06,0.42,0.15,0.55,0.27c0.13,0.12,0.19,0.26,0.19,0.44c0,0.19-0.08,0.34-0.23,0.45s-0.35,0.17-0.59,0.17
			c-0.23,0-0.43-0.06-0.6-0.19c-0.17-0.13-0.26-0.29-0.25-0.5l0-0.01h0.29c0,0.15,0.05,0.26,0.16,0.34s0.24,0.12,0.4,0.12
			c0.16,0,0.28-0.03,0.37-0.1C64.8,5.71,64.84,5.62,64.84,5.51z"/>
		<path d="M66.98,5.3c0,0.25-0.06,0.45-0.18,0.6c-0.12,0.15-0.28,0.23-0.48,0.23c-0.1,0-0.2-0.02-0.27-0.05
			c-0.08-0.04-0.15-0.09-0.2-0.16v0.84h-0.31V4.38h0.24l0.05,0.22c0.06-0.08,0.12-0.15,0.21-0.19c0.08-0.04,0.18-0.07,0.29-0.07
			c0.21,0,0.37,0.08,0.49,0.25c0.12,0.17,0.17,0.39,0.17,0.67V5.3z M66.68,5.27c0-0.2-0.04-0.35-0.11-0.48
			c-0.08-0.13-0.19-0.19-0.33-0.19c-0.09,0-0.16,0.02-0.23,0.06c-0.06,0.04-0.11,0.1-0.15,0.17v0.83c0.04,0.07,0.09,0.13,0.15,0.17
			c0.06,0.04,0.14,0.06,0.23,0.06c0.15,0,0.26-0.05,0.33-0.16s0.11-0.25,0.11-0.42V5.27z"/>
		<path d="M68.17,4.65l-0.16-0.01c-0.08,0-0.15,0.02-0.21,0.06c-0.06,0.04-0.1,0.09-0.13,0.17v1.23h-0.31V4.38h0.28l0.03,0.25
			c0.05-0.09,0.11-0.16,0.18-0.21c0.07-0.05,0.15-0.08,0.24-0.08c0.02,0,0.04,0,0.07,0.01s0.04,0.01,0.05,0.01L68.17,4.65z"/>
		<path d="M69.14,6.13c-0.24,0-0.42-0.08-0.56-0.24c-0.14-0.16-0.21-0.37-0.21-0.62V5.2c0-0.25,0.07-0.45,0.22-0.61
			c0.14-0.16,0.31-0.24,0.51-0.24c0.23,0,0.4,0.07,0.52,0.21c0.12,0.14,0.18,0.33,0.18,0.56v0.2h-1.1l0,0.01
			c0,0.16,0.04,0.3,0.12,0.41c0.08,0.11,0.19,0.16,0.33,0.16c0.1,0,0.2-0.01,0.27-0.04s0.15-0.07,0.2-0.12l0.12,0.2
			c-0.06,0.06-0.14,0.11-0.24,0.15S69.28,6.13,69.14,6.13z M69.09,4.59c-0.1,0-0.19,0.04-0.26,0.13c-0.07,0.09-0.12,0.2-0.13,0.33
			l0,0.01h0.78V5.02c0-0.12-0.03-0.22-0.1-0.31C69.31,4.63,69.22,4.59,69.09,4.59z"/>
		<path d="M71.17,6.09c-0.01-0.05-0.02-0.1-0.02-0.14c-0.01-0.04-0.01-0.08-0.01-0.12C71.08,5.92,71,5.99,70.91,6.04
			s-0.19,0.08-0.3,0.08c-0.18,0-0.31-0.05-0.4-0.14c-0.09-0.09-0.14-0.22-0.14-0.38c0-0.16,0.07-0.29,0.2-0.38
			c0.13-0.09,0.31-0.14,0.53-0.14h0.33V4.92c0-0.1-0.03-0.18-0.09-0.24s-0.15-0.09-0.26-0.09c-0.1,0-0.18,0.03-0.24,0.08
			c-0.06,0.05-0.09,0.11-0.09,0.18h-0.29l0-0.01c-0.01-0.12,0.05-0.24,0.17-0.34c0.12-0.1,0.28-0.16,0.48-0.16
			c0.19,0,0.35,0.05,0.46,0.15c0.12,0.1,0.18,0.24,0.18,0.43v0.83c0,0.06,0,0.12,0.01,0.18c0.01,0.06,0.02,0.11,0.03,0.17H71.17z
			 M70.66,5.86c0.11,0,0.21-0.03,0.3-0.09c0.09-0.06,0.15-0.12,0.18-0.2V5.3h-0.35c-0.12,0-0.22,0.03-0.3,0.09s-0.11,0.14-0.11,0.22
			c0,0.08,0.02,0.14,0.07,0.18C70.5,5.84,70.57,5.86,70.66,5.86z"/>
		<path d="M71.82,5.27c0-0.28,0.06-0.5,0.17-0.67c0.12-0.17,0.28-0.25,0.49-0.25c0.1,0,0.19,0.02,0.26,0.06s0.14,0.09,0.2,0.16V3.62
			h0.31v2.48H73l-0.04-0.21c-0.06,0.08-0.12,0.14-0.2,0.18c-0.08,0.04-0.17,0.06-0.28,0.06c-0.21,0-0.37-0.08-0.49-0.23
			c-0.12-0.15-0.18-0.35-0.18-0.6V5.27z M72.13,5.3c0,0.17,0.04,0.31,0.1,0.42s0.18,0.16,0.33,0.16c0.09,0,0.17-0.02,0.23-0.06
			c0.06-0.04,0.11-0.1,0.15-0.18v-0.8c-0.04-0.07-0.09-0.13-0.15-0.17c-0.06-0.04-0.14-0.06-0.23-0.06c-0.15,0-0.26,0.06-0.33,0.19
			c-0.07,0.12-0.11,0.29-0.11,0.48V5.3z"/>
		<path d="M75.95,6.09h-1.48V5.88l0.75-0.84c0.13-0.15,0.22-0.27,0.27-0.36c0.05-0.09,0.07-0.18,0.07-0.27
			c0-0.12-0.03-0.21-0.1-0.29c-0.07-0.08-0.15-0.12-0.26-0.12c-0.16,0-0.27,0.04-0.35,0.12s-0.11,0.2-0.11,0.34h-0.3l0-0.01
			c-0.01-0.2,0.06-0.37,0.2-0.5c0.14-0.14,0.32-0.2,0.56-0.2c0.2,0,0.37,0.06,0.49,0.18c0.12,0.12,0.18,0.28,0.18,0.46
			c0,0.13-0.04,0.25-0.11,0.38c-0.07,0.13-0.18,0.26-0.31,0.41l-0.6,0.66l0,0.01h1.1V6.09z"/>
	</g>
	<g>
		<path class="st3" d="M86.57,5v1.09h-0.59v-3h1.18c0.34,0,0.61,0.09,0.8,0.26c0.2,0.18,0.29,0.41,0.29,0.7
			c0,0.29-0.1,0.52-0.29,0.69S87.5,5,87.16,5H86.57z M86.57,4.54h0.59c0.17,0,0.29-0.05,0.38-0.14c0.09-0.09,0.13-0.21,0.13-0.35
			c0-0.14-0.04-0.26-0.13-0.36c-0.08-0.09-0.21-0.14-0.38-0.14h-0.59V4.54z"/>
		<path class="st3" d="M89.8,4.38l-0.22-0.01c-0.09,0-0.16,0.02-0.22,0.06c-0.06,0.04-0.1,0.09-0.13,0.16v1.51h-0.59V3.86h0.55
			l0.03,0.33c0.05-0.12,0.12-0.21,0.2-0.27s0.18-0.1,0.28-0.1c0.03,0,0.06,0,0.08,0.01c0.02,0,0.05,0.01,0.08,0.02L89.8,4.38z"/>
		<path class="st3" d="M90.01,4.96c0-0.33,0.09-0.61,0.27-0.82c0.18-0.21,0.44-0.32,0.76-0.32c0.33,0,0.58,0.11,0.77,0.32
			c0.18,0.21,0.28,0.49,0.28,0.82V5c0,0.34-0.09,0.61-0.28,0.82s-0.44,0.32-0.76,0.32c-0.33,0-0.58-0.11-0.76-0.32
			C90.1,5.61,90.01,5.33,90.01,5V4.96z M90.6,5c0,0.2,0.04,0.37,0.11,0.49c0.07,0.12,0.18,0.18,0.34,0.18
			c0.15,0,0.27-0.06,0.34-0.19C91.46,5.36,91.49,5.2,91.49,5V4.95c0-0.2-0.04-0.36-0.11-0.48c-0.07-0.12-0.19-0.19-0.34-0.19
			c-0.15,0-0.27,0.06-0.34,0.19C90.64,4.6,90.6,4.76,90.6,4.95V5z"/>
		<path class="st3" d="M92.61,6.09V4.28h-0.33V3.86h0.33V3.61c0-0.25,0.07-0.44,0.21-0.58c0.14-0.13,0.34-0.2,0.6-0.2
			c0.05,0,0.1,0,0.15,0.01s0.11,0.02,0.17,0.03L93.7,3.32c-0.03-0.01-0.06-0.01-0.09-0.01c-0.03,0-0.07-0.01-0.11-0.01
			c-0.1,0-0.17,0.03-0.22,0.08c-0.05,0.05-0.07,0.13-0.07,0.23v0.25h0.44v0.42h-0.44v1.81H92.61z"/>
		<path class="st3" d="M94.57,3.33h-0.59V2.87h0.59V3.33z M94.57,6.09h-0.59V3.86h0.59V6.09z"/>
		<path class="st3" d="M95.77,3.31v0.55h0.37v0.42h-0.37v1.14c0,0.09,0.02,0.15,0.05,0.19c0.04,0.04,0.08,0.06,0.14,0.06
			c0.03,0,0.06,0,0.08,0c0.02,0,0.05-0.01,0.08-0.02l0.05,0.44C96.11,6.09,96.05,6.11,96,6.12c-0.06,0.01-0.12,0.01-0.19,0.01
			c-0.21,0-0.36-0.06-0.47-0.17c-0.11-0.11-0.17-0.29-0.17-0.54V4.28h-0.32V3.86h0.32V3.31H95.77z"/>
	</g>
	<g>
		<path class="st3" d="M82.82,19.74h-0.34v-2.21l-0.51,0.01v-0.25l0.85-0.09V19.74z"/>
		<path class="st3" d="M85.43,18.77c0,0.32-0.07,0.57-0.21,0.75s-0.34,0.26-0.58,0.26c-0.25,0-0.44-0.09-0.59-0.26
			c-0.14-0.17-0.22-0.42-0.22-0.75v-0.6c0-0.32,0.07-0.57,0.21-0.75s0.34-0.26,0.58-0.26c0.25,0,0.44,0.09,0.58,0.26
			c0.14,0.17,0.21,0.42,0.21,0.75V18.77z M85.09,18.1c0-0.22-0.04-0.39-0.12-0.5c-0.08-0.11-0.19-0.17-0.34-0.17
			c-0.15,0-0.26,0.06-0.34,0.17c-0.08,0.11-0.12,0.28-0.12,0.5v0.74c0,0.22,0.04,0.39,0.12,0.5c0.08,0.11,0.19,0.17,0.34,0.17
			c0.15,0,0.26-0.06,0.34-0.17c0.08-0.11,0.12-0.28,0.12-0.5V18.1z"/>
		<path class="st3" d="M86.5,19.51c0.17,0,0.3-0.06,0.4-0.19c0.1-0.13,0.15-0.31,0.15-0.56v-0.12c-0.06,0.08-0.13,0.15-0.21,0.19
			c-0.08,0.04-0.18,0.06-0.28,0.06c-0.24,0-0.44-0.08-0.58-0.23c-0.14-0.15-0.21-0.36-0.21-0.63c0-0.25,0.08-0.46,0.23-0.63
			s0.33-0.24,0.55-0.24c0.26,0,0.47,0.08,0.62,0.25c0.15,0.17,0.23,0.41,0.23,0.73v0.61c0,0.33-0.08,0.59-0.25,0.76
			s-0.38,0.27-0.64,0.27c-0.09,0-0.18-0.01-0.27-0.03c-0.09-0.02-0.17-0.04-0.25-0.08l0.05-0.26c0.07,0.04,0.14,0.06,0.21,0.08
			C86.32,19.5,86.41,19.51,86.5,19.51z M86.56,18.62c0.12,0,0.23-0.03,0.31-0.08s0.14-0.12,0.18-0.21v-0.22
			c0-0.22-0.04-0.39-0.13-0.5c-0.08-0.11-0.21-0.17-0.37-0.17c-0.12,0-0.23,0.06-0.32,0.17s-0.13,0.26-0.13,0.43
			c0,0.17,0.04,0.32,0.12,0.42C86.31,18.56,86.42,18.62,86.56,18.62z"/>
		<path class="st3" d="M88.49,19.51c0.17,0,0.3-0.06,0.4-0.19c0.1-0.13,0.15-0.31,0.15-0.56v-0.12c-0.06,0.08-0.13,0.15-0.21,0.19
			c-0.08,0.04-0.18,0.06-0.28,0.06c-0.24,0-0.44-0.08-0.58-0.23c-0.14-0.15-0.21-0.36-0.21-0.63c0-0.25,0.08-0.46,0.23-0.63
			s0.33-0.24,0.55-0.24c0.26,0,0.47,0.08,0.62,0.25c0.15,0.17,0.23,0.41,0.23,0.73v0.61c0,0.33-0.08,0.59-0.25,0.76
			s-0.38,0.27-0.64,0.27c-0.09,0-0.18-0.01-0.27-0.03c-0.09-0.02-0.17-0.04-0.25-0.08l0.05-0.26c0.07,0.04,0.14,0.06,0.21,0.08
			C88.31,19.5,88.39,19.51,88.49,19.51z M88.54,18.62c0.12,0,0.23-0.03,0.31-0.08s0.14-0.12,0.18-0.21v-0.22
			c0-0.22-0.04-0.39-0.13-0.5c-0.08-0.11-0.21-0.17-0.37-0.17c-0.12,0-0.23,0.06-0.32,0.17s-0.13,0.26-0.13,0.43
			c0,0.17,0.04,0.32,0.12,0.42C88.29,18.56,88.4,18.62,88.54,18.62z"/>
		<path class="st3" d="M91.38,18.8h-0.84v-0.27h0.84V18.8z"/>
		<path class="st3" d="M93.49,19.74h-0.34v-2.21l-0.51,0.01v-0.25l0.85-0.09V19.74z"/>
		<path class="st3" d="M96.09,18.77c0,0.32-0.07,0.57-0.21,0.75s-0.34,0.26-0.58,0.26c-0.25,0-0.44-0.09-0.59-0.26
			c-0.14-0.17-0.22-0.42-0.22-0.75v-0.6c0-0.32,0.07-0.57,0.21-0.75s0.34-0.26,0.58-0.26c0.25,0,0.44,0.09,0.58,0.26
			c0.14,0.17,0.21,0.42,0.21,0.75V18.77z M95.75,18.1c0-0.22-0.04-0.39-0.12-0.5c-0.08-0.11-0.19-0.17-0.34-0.17
			c-0.15,0-0.26,0.06-0.34,0.17c-0.08,0.11-0.12,0.28-0.12,0.5v0.74c0,0.22,0.04,0.39,0.12,0.5c0.08,0.11,0.19,0.17,0.34,0.17
			c0.15,0,0.26-0.06,0.34-0.17c0.08-0.11,0.12-0.28,0.12-0.5V18.1z"/>
		<path class="st3" d="M98.08,18.77c0,0.32-0.07,0.57-0.21,0.75s-0.34,0.26-0.58,0.26c-0.25,0-0.44-0.09-0.59-0.26
			c-0.14-0.17-0.22-0.42-0.22-0.75v-0.6c0-0.32,0.07-0.57,0.21-0.75s0.34-0.26,0.58-0.26c0.25,0,0.44,0.09,0.58,0.26
			c0.14,0.17,0.21,0.42,0.21,0.75V18.77z M97.74,18.1c0-0.22-0.04-0.39-0.12-0.5c-0.08-0.11-0.19-0.17-0.34-0.17
			c-0.15,0-0.26,0.06-0.34,0.17c-0.08,0.11-0.12,0.28-0.12,0.5v0.74c0,0.22,0.04,0.39,0.12,0.5c0.08,0.11,0.19,0.17,0.34,0.17
			c0.15,0,0.26-0.06,0.34-0.17c0.08-0.11,0.12-0.28,0.12-0.5V18.1z"/>
		<path class="st3" d="M100.85,18.3h-1.44v-0.29h1.44V18.3z M100.85,19.03h-1.44v-0.29h1.44V19.03z"/>
		<path class="st9" d="M86.56,24.39c0.16,0,0.28-0.06,0.38-0.18c0.1-0.12,0.15-0.29,0.15-0.5v-0.15c-0.07,0.08-0.15,0.15-0.24,0.19
			c-0.09,0.04-0.19,0.07-0.3,0.07c-0.28,0-0.49-0.09-0.65-0.27c-0.16-0.18-0.24-0.43-0.24-0.74c0-0.3,0.09-0.55,0.28-0.75
			c0.19-0.2,0.43-0.3,0.71-0.3c0.3,0,0.55,0.11,0.74,0.32c0.19,0.21,0.28,0.51,0.28,0.89v0.71c0,0.37-0.11,0.65-0.32,0.86
			s-0.48,0.31-0.81,0.31c-0.1,0-0.21-0.01-0.32-0.03c-0.11-0.02-0.21-0.05-0.3-0.09l0.07-0.44c0.09,0.03,0.18,0.06,0.26,0.08
			C86.36,24.38,86.45,24.39,86.56,24.39z M86.66,23.38c0.1,0,0.18-0.02,0.26-0.06s0.13-0.09,0.18-0.15V22.9
			c0-0.22-0.04-0.39-0.11-0.5c-0.08-0.11-0.18-0.17-0.31-0.17c-0.12,0-0.22,0.06-0.29,0.17c-0.08,0.11-0.11,0.25-0.11,0.41
			c0,0.17,0.03,0.31,0.1,0.41C86.43,23.33,86.53,23.38,86.66,23.38z"/>
		<path class="st9" d="M90.03,22.6c0,0.15-0.04,0.28-0.12,0.4c-0.08,0.12-0.19,0.21-0.32,0.27c0.16,0.07,0.28,0.16,0.37,0.29
			s0.14,0.27,0.14,0.43c0,0.28-0.09,0.49-0.28,0.64s-0.43,0.22-0.73,0.22c-0.3,0-0.55-0.07-0.73-0.22s-0.28-0.36-0.28-0.64
			c0-0.16,0.05-0.31,0.14-0.43c0.09-0.12,0.21-0.22,0.37-0.29c-0.14-0.06-0.25-0.15-0.32-0.27c-0.08-0.11-0.12-0.25-0.12-0.4
			c0-0.27,0.09-0.47,0.26-0.62s0.4-0.22,0.68-0.22c0.28,0,0.51,0.07,0.68,0.22S90.03,22.34,90.03,22.6z M89.51,23.95
			c0-0.13-0.04-0.24-0.12-0.32c-0.08-0.08-0.18-0.12-0.3-0.12c-0.12,0-0.23,0.04-0.3,0.12s-0.11,0.19-0.11,0.32
			c0,0.14,0.04,0.25,0.11,0.32s0.18,0.12,0.3,0.12c0.12,0,0.22-0.04,0.3-0.12C89.47,24.19,89.51,24.08,89.51,23.95z M89.44,22.63
			c0-0.12-0.03-0.22-0.09-0.29c-0.06-0.07-0.15-0.11-0.26-0.11c-0.11,0-0.19,0.04-0.25,0.11s-0.09,0.17-0.09,0.29
			c0,0.12,0.03,0.22,0.09,0.3c0.06,0.07,0.15,0.11,0.26,0.11c0.11,0,0.19-0.04,0.25-0.11C89.41,22.86,89.44,22.76,89.44,22.63z"/>
		<path class="st9" d="M93.54,23.76c0,0.33-0.08,0.59-0.23,0.8c-0.15,0.2-0.36,0.3-0.63,0.3c-0.12,0-0.22-0.02-0.31-0.06
			c-0.09-0.04-0.17-0.11-0.23-0.19v1.07h-0.59v-3.09h0.54l0.03,0.26c0.06-0.1,0.14-0.17,0.23-0.23c0.09-0.05,0.2-0.08,0.32-0.08
			c0.27,0,0.48,0.11,0.64,0.32c0.15,0.22,0.23,0.5,0.23,0.85V23.76z M92.95,23.71c0-0.21-0.03-0.38-0.1-0.51S92.67,23,92.53,23
			c-0.09,0-0.17,0.02-0.23,0.06c-0.06,0.04-0.11,0.09-0.15,0.16v0.98c0.04,0.06,0.09,0.11,0.15,0.14s0.14,0.05,0.23,0.05
			c0.14,0,0.25-0.06,0.32-0.17c0.07-0.11,0.1-0.27,0.1-0.46V23.71z"/>
		<path class="st9" d="M94.61,22.03v0.55h0.37V23h-0.37v1.14c0,0.09,0.02,0.15,0.05,0.19c0.04,0.04,0.08,0.06,0.14,0.06
			c0.03,0,0.06,0,0.08,0c0.02,0,0.05-0.01,0.08-0.02l0.05,0.44c-0.06,0.02-0.12,0.04-0.18,0.05c-0.06,0.01-0.12,0.01-0.19,0.01
			c-0.21,0-0.36-0.06-0.47-0.17c-0.11-0.11-0.17-0.29-0.17-0.54V23H93.7v-0.42h0.32v-0.55H94.61z"/>
		<path class="st9" d="M96.56,24.2c0-0.07-0.03-0.12-0.09-0.17c-0.06-0.05-0.18-0.09-0.35-0.13c-0.26-0.05-0.46-0.13-0.59-0.24
			s-0.2-0.25-0.2-0.43c0-0.19,0.08-0.36,0.24-0.49c0.16-0.13,0.37-0.2,0.64-0.2c0.28,0,0.5,0.07,0.67,0.2
			c0.17,0.13,0.25,0.3,0.24,0.51l0,0.01h-0.57c0-0.09-0.03-0.16-0.08-0.22c-0.06-0.06-0.14-0.08-0.25-0.08
			c-0.1,0-0.17,0.02-0.23,0.07c-0.06,0.05-0.08,0.11-0.08,0.18c0,0.07,0.03,0.12,0.09,0.17c0.06,0.04,0.17,0.08,0.35,0.12
			c0.27,0.05,0.47,0.14,0.6,0.24c0.13,0.11,0.2,0.25,0.2,0.44c0,0.2-0.08,0.37-0.25,0.49c-0.17,0.13-0.39,0.19-0.67,0.19
			c-0.29,0-0.52-0.08-0.7-0.23s-0.25-0.32-0.24-0.51l0-0.01h0.54c0,0.12,0.04,0.21,0.12,0.26c0.07,0.05,0.17,0.08,0.29,0.08
			c0.11,0,0.19-0.02,0.25-0.07C96.53,24.33,96.56,24.27,96.56,24.2z"/>
	</g>
	<g>
		<path class="st3" d="M87.3,36.14c0.17,0,0.3-0.06,0.4-0.19c0.1-0.13,0.15-0.31,0.15-0.56v-0.12c-0.06,0.08-0.13,0.15-0.21,0.19
			c-0.08,0.04-0.18,0.06-0.28,0.06c-0.24,0-0.44-0.08-0.58-0.23c-0.14-0.15-0.21-0.36-0.21-0.63c0-0.25,0.08-0.46,0.23-0.63
			s0.33-0.24,0.55-0.24c0.26,0,0.47,0.08,0.62,0.25c0.15,0.17,0.23,0.41,0.23,0.73v0.61c0,0.33-0.08,0.59-0.25,0.76
			s-0.38,0.27-0.64,0.27c-0.09,0-0.18-0.01-0.27-0.03c-0.09-0.02-0.17-0.04-0.25-0.08l0.05-0.26c0.07,0.04,0.14,0.06,0.21,0.08
			C87.12,36.14,87.21,36.14,87.3,36.14z M87.36,35.26c0.12,0,0.23-0.03,0.31-0.08s0.14-0.12,0.18-0.21v-0.22
			c0-0.22-0.04-0.39-0.13-0.5c-0.08-0.11-0.21-0.17-0.37-0.17c-0.12,0-0.23,0.06-0.32,0.17s-0.13,0.26-0.13,0.43
			c0,0.17,0.04,0.32,0.12,0.42C87.11,35.2,87.22,35.26,87.36,35.26z"/>
		<path class="st3" d="M90.15,34.5c0,0.13-0.04,0.25-0.11,0.35c-0.07,0.1-0.17,0.17-0.3,0.22c0.14,0.05,0.26,0.13,0.35,0.24
			c0.09,0.11,0.13,0.24,0.13,0.38c0,0.23-0.08,0.41-0.23,0.54s-0.35,0.19-0.59,0.19c-0.25,0-0.44-0.06-0.59-0.19
			s-0.22-0.3-0.22-0.54c0-0.14,0.04-0.27,0.13-0.38s0.2-0.19,0.34-0.24c-0.13-0.05-0.22-0.12-0.29-0.22s-0.11-0.21-0.11-0.35
			c0-0.22,0.07-0.4,0.2-0.52c0.14-0.12,0.32-0.18,0.54-0.18c0.22,0,0.4,0.06,0.54,0.18C90.08,34.1,90.15,34.28,90.15,34.5z
			 M89.88,35.68c0-0.14-0.05-0.25-0.14-0.34c-0.09-0.09-0.21-0.13-0.34-0.13c-0.14,0-0.26,0.04-0.34,0.13
			c-0.09,0.09-0.13,0.2-0.13,0.34c0,0.14,0.04,0.26,0.13,0.34s0.2,0.12,0.35,0.12c0.14,0,0.26-0.04,0.34-0.12
			C89.84,35.94,89.88,35.82,89.88,35.68z M89.81,34.51c0-0.13-0.04-0.23-0.12-0.31c-0.08-0.08-0.18-0.12-0.29-0.12
			c-0.12,0-0.22,0.04-0.29,0.12c-0.07,0.08-0.11,0.19-0.11,0.32c0,0.13,0.04,0.23,0.11,0.31s0.17,0.12,0.3,0.12
			c0.12,0,0.22-0.04,0.29-0.12S89.81,34.64,89.81,34.51z"/>
		<path class="st3" d="M92.39,34.83l0.59-0.99h0.41l-0.8,1.26l0.81,1.28H93l-0.6-1.01l-0.6,1.01h-0.41l0.81-1.28l-0.8-1.26h0.41
			L92.39,34.83z"/>
		<path class="st3" d="M95.05,34.95h0.3c0.15,0,0.26-0.04,0.32-0.11c0.06-0.08,0.09-0.18,0.09-0.32c0-0.15-0.04-0.26-0.11-0.33
			c-0.07-0.08-0.18-0.11-0.32-0.11c-0.13,0-0.24,0.04-0.32,0.12c-0.08,0.08-0.12,0.18-0.12,0.31h-0.33l0-0.01
			c-0.01-0.19,0.06-0.36,0.21-0.49c0.14-0.13,0.33-0.2,0.56-0.2c0.23,0,0.42,0.06,0.56,0.19c0.14,0.12,0.21,0.3,0.21,0.54
			c0,0.1-0.03,0.21-0.09,0.31c-0.06,0.1-0.16,0.18-0.28,0.24c0.15,0.05,0.26,0.13,0.32,0.24c0.06,0.11,0.09,0.23,0.09,0.36
			c0,0.23-0.08,0.41-0.23,0.55s-0.34,0.2-0.57,0.2c-0.23,0-0.42-0.06-0.57-0.19s-0.22-0.29-0.22-0.51l0-0.01h0.32
			c0,0.13,0.04,0.24,0.12,0.32c0.08,0.08,0.19,0.12,0.33,0.12c0.14,0,0.26-0.04,0.34-0.12c0.08-0.08,0.12-0.2,0.12-0.35
			c0-0.16-0.04-0.27-0.11-0.35s-0.19-0.11-0.34-0.11h-0.3V34.95z"/>
		<path class="st3" d="M85.38,38.13v1.72c0,0.28-0.09,0.49-0.27,0.63c-0.18,0.15-0.41,0.22-0.69,0.22c-0.28,0-0.5-0.07-0.67-0.22
			c-0.17-0.15-0.26-0.36-0.26-0.63v-1.72h0.34v1.72c0,0.19,0.05,0.34,0.16,0.44c0.11,0.1,0.25,0.15,0.43,0.15
			c0.19,0,0.34-0.05,0.45-0.15s0.17-0.25,0.17-0.44v-1.72H85.38z"/>
		<path class="st3" d="M87.3,40.03c0-0.12-0.04-0.21-0.13-0.29c-0.09-0.08-0.24-0.14-0.46-0.2c-0.27-0.06-0.47-0.16-0.62-0.28
			s-0.22-0.28-0.22-0.47c0-0.2,0.08-0.36,0.24-0.5s0.37-0.2,0.62-0.2c0.27,0,0.49,0.08,0.66,0.23c0.16,0.15,0.24,0.33,0.23,0.53
			l0,0.01H87.3c0-0.15-0.05-0.27-0.15-0.36c-0.1-0.09-0.24-0.14-0.42-0.14c-0.17,0-0.3,0.04-0.39,0.12
			c-0.09,0.08-0.14,0.18-0.14,0.3c0,0.11,0.05,0.2,0.15,0.28c0.1,0.07,0.26,0.14,0.48,0.2c0.26,0.07,0.47,0.16,0.6,0.29
			s0.21,0.29,0.21,0.48c0,0.21-0.08,0.37-0.25,0.49c-0.17,0.12-0.38,0.19-0.65,0.19c-0.25,0-0.47-0.07-0.66-0.21
			s-0.29-0.32-0.28-0.55l0-0.01h0.32c0,0.16,0.06,0.29,0.18,0.37c0.12,0.08,0.26,0.13,0.44,0.13c0.17,0,0.31-0.04,0.41-0.11
			C87.25,40.25,87.3,40.15,87.3,40.03z"/>
		<path class="st3" d="M88.14,40.67v-2.54h0.77c0.33,0,0.59,0.1,0.79,0.31S90,38.9,90,39.22v0.35c0,0.33-0.1,0.59-0.3,0.79
			s-0.46,0.3-0.79,0.3H88.14z M88.48,38.4v2h0.43c0.23,0,0.42-0.08,0.55-0.23c0.13-0.15,0.2-0.35,0.2-0.59v-0.35
			c0-0.24-0.07-0.44-0.2-0.59s-0.32-0.23-0.55-0.23H88.48z"/>
		<path class="st3" d="M90.47,40.89h-0.29l1.05-2.76h0.29L90.47,40.89z"/>
		<path class="st3" d="M93.45,39.79c0,0.27-0.06,0.49-0.19,0.66c-0.13,0.17-0.31,0.25-0.53,0.25c-0.11,0-0.22-0.02-0.3-0.06
			c-0.09-0.04-0.16-0.1-0.22-0.18v0.92h-0.34v-2.62h0.26l0.05,0.24c0.06-0.09,0.14-0.16,0.23-0.21c0.09-0.05,0.2-0.07,0.32-0.07
			c0.23,0,0.41,0.09,0.54,0.28c0.13,0.19,0.19,0.43,0.19,0.74V39.79z M93.11,39.76c0-0.21-0.04-0.39-0.12-0.53s-0.21-0.21-0.37-0.21
			c-0.1,0-0.18,0.02-0.25,0.07s-0.12,0.11-0.17,0.18v0.91c0.04,0.08,0.1,0.14,0.17,0.18c0.07,0.04,0.15,0.06,0.25,0.06
			c0.16,0,0.28-0.06,0.37-0.18c0.08-0.12,0.12-0.27,0.12-0.46V39.76z"/>
		<path class="st3" d="M94.32,38.32v0.46h0.35v0.25h-0.35v1.15c0,0.09,0.02,0.15,0.05,0.19s0.08,0.05,0.14,0.05
			c0.02,0,0.04,0,0.06-0.01s0.04-0.01,0.06-0.02l0.04,0.24c-0.03,0.02-0.06,0.04-0.11,0.05s-0.1,0.02-0.15,0.02
			c-0.14,0-0.25-0.04-0.33-0.13s-0.12-0.22-0.12-0.4v-1.15h-0.3v-0.25h0.3v-0.46H94.32z"/>
		<path class="st3" d="M96.17,40.16c0-0.08-0.03-0.14-0.09-0.19c-0.06-0.05-0.16-0.09-0.32-0.13c-0.23-0.05-0.4-0.12-0.51-0.2
			c-0.11-0.09-0.17-0.2-0.17-0.35c0-0.15,0.06-0.28,0.19-0.39c0.13-0.11,0.3-0.16,0.5-0.16c0.22,0,0.39,0.06,0.52,0.17
			c0.13,0.11,0.19,0.25,0.18,0.41l0,0.01h-0.32c0-0.08-0.03-0.16-0.1-0.22c-0.07-0.07-0.16-0.1-0.27-0.1
			c-0.12,0-0.21,0.03-0.27,0.08c-0.06,0.05-0.09,0.12-0.09,0.19c0,0.07,0.03,0.13,0.08,0.18c0.05,0.04,0.16,0.08,0.32,0.12
			c0.24,0.05,0.41,0.12,0.53,0.21c0.12,0.09,0.17,0.21,0.17,0.35c0,0.17-0.07,0.3-0.2,0.41c-0.13,0.1-0.31,0.16-0.52,0.16
			c-0.24,0-0.43-0.06-0.56-0.18s-0.2-0.26-0.19-0.43l0-0.01h0.32c0.01,0.12,0.05,0.21,0.13,0.27c0.08,0.06,0.18,0.08,0.29,0.08
			c0.12,0,0.21-0.02,0.28-0.07C96.14,40.31,96.17,40.24,96.17,40.16z"/>
		<path class="st3" d="M99.26,39.23h-1.44v-0.29h1.44V39.23z M99.26,39.96h-1.44v-0.29h1.44V39.96z"/>
		<path class="st9" d="M85.39,45.74h-2.02v-0.39l0.96-1.04c0.14-0.16,0.24-0.3,0.3-0.41c0.06-0.11,0.09-0.21,0.09-0.31
			c0-0.13-0.03-0.23-0.1-0.31c-0.07-0.08-0.16-0.12-0.29-0.12c-0.14,0-0.24,0.05-0.31,0.14c-0.07,0.09-0.11,0.22-0.11,0.38h-0.58
			l0-0.01c-0.01-0.27,0.08-0.5,0.26-0.69s0.43-0.28,0.74-0.28c0.31,0,0.55,0.08,0.72,0.24s0.26,0.38,0.26,0.64
			c0,0.18-0.05,0.35-0.15,0.5c-0.1,0.15-0.26,0.36-0.49,0.6l-0.53,0.58l0,0.01h1.25V45.74z"/>
		<path class="st9" d="M86.62,45.32c0.16,0,0.28-0.06,0.38-0.18c0.1-0.12,0.15-0.29,0.15-0.5v-0.15c-0.07,0.08-0.15,0.15-0.24,0.19
			c-0.09,0.04-0.19,0.07-0.3,0.07c-0.28,0-0.49-0.09-0.65-0.27c-0.16-0.18-0.24-0.43-0.24-0.74c0-0.3,0.09-0.55,0.28-0.75
			c0.19-0.2,0.43-0.3,0.71-0.3c0.3,0,0.55,0.11,0.74,0.32c0.19,0.21,0.28,0.51,0.28,0.89v0.71c0,0.37-0.11,0.65-0.32,0.86
			s-0.48,0.31-0.81,0.31c-0.1,0-0.21-0.01-0.32-0.03c-0.11-0.02-0.21-0.05-0.3-0.09l0.07-0.44c0.09,0.03,0.18,0.06,0.26,0.08
			C86.41,45.31,86.51,45.32,86.62,45.32z M86.71,44.31c0.1,0,0.18-0.02,0.26-0.06s0.13-0.09,0.18-0.15v-0.28
			c0-0.22-0.04-0.39-0.11-0.5c-0.08-0.11-0.18-0.17-0.31-0.17c-0.12,0-0.22,0.06-0.29,0.17c-0.08,0.11-0.11,0.25-0.11,0.41
			c0,0.17,0.03,0.31,0.1,0.41C86.49,44.26,86.59,44.31,86.71,44.31z"/>
		<path class="st9" d="M89.89,44.62h0.34v0.46h-0.34v0.65H89.3v-0.65h-1.21l-0.03-0.36l1.23-1.99h0.6V44.62z M88.62,44.62h0.68
			v-1.08l-0.01,0l-0.05,0.08L88.62,44.62z"/>
		<path class="st9" d="M94,42.73v1.99c0,0.34-0.11,0.6-0.33,0.78c-0.22,0.18-0.51,0.27-0.86,0.27c-0.35,0-0.64-0.09-0.86-0.27
			c-0.22-0.18-0.33-0.44-0.33-0.78v-1.99h0.6v1.99c0,0.2,0.05,0.35,0.16,0.44c0.1,0.1,0.25,0.15,0.43,0.15
			c0.19,0,0.33-0.05,0.44-0.15s0.16-0.25,0.16-0.45v-1.99H94z"/>
		<path class="st9" d="M96.12,44.95c0-0.12-0.04-0.21-0.12-0.28c-0.08-0.07-0.22-0.14-0.42-0.2c-0.35-0.1-0.62-0.23-0.8-0.37
			c-0.18-0.14-0.27-0.33-0.27-0.58c0-0.25,0.1-0.45,0.31-0.6c0.21-0.16,0.47-0.23,0.79-0.23c0.33,0,0.59,0.09,0.8,0.26
			c0.2,0.18,0.3,0.39,0.3,0.65l0,0.01h-0.58c0-0.14-0.05-0.25-0.14-0.34c-0.09-0.09-0.22-0.13-0.39-0.13
			c-0.16,0-0.28,0.04-0.37,0.11c-0.09,0.07-0.13,0.16-0.13,0.27c0,0.1,0.05,0.18,0.14,0.25c0.09,0.07,0.25,0.13,0.48,0.21
			c0.33,0.09,0.58,0.21,0.74,0.37c0.17,0.15,0.25,0.35,0.25,0.6c0,0.26-0.1,0.46-0.3,0.61c-0.2,0.15-0.46,0.22-0.79,0.22
			c-0.32,0-0.6-0.08-0.84-0.25c-0.24-0.17-0.36-0.41-0.35-0.71l0-0.01h0.58c0,0.18,0.05,0.31,0.16,0.39s0.26,0.12,0.45,0.12
			c0.16,0,0.29-0.03,0.37-0.1S96.12,45.07,96.12,44.95z"/>
		<path class="st9" d="M97.17,45.74v-3h1.02c0.36,0,0.66,0.12,0.9,0.35c0.23,0.24,0.35,0.54,0.35,0.9v0.5c0,0.37-0.12,0.67-0.35,0.9
			s-0.53,0.35-0.9,0.35H97.17z M97.76,43.2v2.08h0.39c0.21,0,0.38-0.07,0.5-0.22c0.12-0.15,0.18-0.34,0.18-0.57v-0.5
			c0-0.23-0.06-0.42-0.18-0.57c-0.12-0.15-0.29-0.22-0.5-0.22H97.76z"/>
	</g>
	<line class="st0" x1="84.25" y1="29.5" x2="98.4" y2="29.5"/>
</g>
</svg>
