<?xml version="1.0" encoding="utf-8"?>
<!-- Generator: Adobe Illustrator 19.1.0, SVG Export Plug-In . SVG Version: 6.00 Build 0)  -->
<svg version="1.1" id="Layer_1" xmlns="http://www.w3.org/2000/svg" xmlns:xlink="http://www.w3.org/1999/xlink" x="0px" y="0px"
	 viewBox="0 0 247 162" style="enable-background:new 0 0 247 162;" xml:space="preserve">
<style type="text/css">
	.st0{fill:#F1F2F2;}
	.st1{fill:#C2C2C1;}
	.st2{fill:#A7A9AC;}
	.st3{fill:none;}
	.st4{fill:#DFDEDE;}
	.st5{opacity:0.8;}
	.st6{fill:#E88024;}
	.st7{fill:#80B4E1;}
	.st8{opacity:0.6;}
	.st9{fill:#FFFFFF;}
	.st10{opacity:5.000000e-02;}
	.st11{fill:#2A3052;}
	.st12{opacity:0.1;}
</style>
<g>
	<g>
		<rect x="1" y="1" class="st0" width="245" height="160"/>
		<path class="st1" d="M247,162H0V0h247V162z M2,160h243V2H2V160z"/>
	</g>
	<g>
		<g>
			<path class="st2" d="M46,141.7h-2.3v6.4h-1v-6.4h-2.3V141H46V141.7z"/>
		</g>
		<g>
			<path class="st2" d="M49.7,148.1c0-0.2-0.1-0.3-0.1-0.4c0-0.1,0-0.2,0-0.4c-0.2,0.3-0.4,0.5-0.7,0.6c-0.3,0.2-0.6,0.3-0.9,0.3
				c-0.6,0-1-0.1-1.3-0.4c-0.3-0.3-0.4-0.7-0.4-1.2c0-0.5,0.2-0.9,0.6-1.2c0.4-0.3,1-0.4,1.7-0.4h1v-0.5c0-0.3-0.1-0.6-0.3-0.7
				c-0.2-0.2-0.5-0.3-0.8-0.3c-0.3,0-0.6,0.1-0.8,0.2c-0.2,0.2-0.3,0.3-0.3,0.6h-0.9l0,0c0-0.4,0.2-0.7,0.5-1.1s0.9-0.5,1.5-0.5
				c0.6,0,1.1,0.2,1.4,0.5c0.4,0.3,0.5,0.7,0.5,1.3v2.5c0,0.2,0,0.4,0,0.5s0.1,0.3,0.1,0.5H49.7z M48.1,147.4c0.3,0,0.7-0.1,0.9-0.3
				s0.5-0.4,0.5-0.6v-0.9h-1.1c-0.4,0-0.7,0.1-0.9,0.3c-0.2,0.2-0.3,0.4-0.3,0.7c0,0.2,0.1,0.4,0.2,0.6
				C47.6,147.3,47.8,147.4,48.1,147.4z"/>
		</g>
		<g>
			<path class="st2" d="M54.4,143.6l-0.5,0c-0.3,0-0.5,0.1-0.6,0.2s-0.3,0.3-0.4,0.5v3.8h-1v-5.3h0.9l0.1,0.8
				c0.1-0.3,0.3-0.5,0.6-0.6s0.5-0.2,0.8-0.2c0.1,0,0.1,0,0.2,0c0.1,0,0.1,0,0.2,0L54.4,143.6z"/>
		</g>
		<g>
			<path class="st2" d="M55.1,145.5c0-0.8,0.2-1.5,0.6-2.1s0.9-0.8,1.5-0.8c0.3,0,0.6,0.1,0.9,0.2c0.3,0.1,0.5,0.3,0.6,0.6l0.1-0.7
				h0.8v5.3c0,0.7-0.2,1.2-0.6,1.6c-0.4,0.4-1,0.5-1.7,0.5c-0.3,0-0.5,0-0.8-0.1c-0.3-0.1-0.6-0.2-0.8-0.3l0.2-0.7
				c0.2,0.1,0.4,0.2,0.6,0.2c0.2,0.1,0.5,0.1,0.7,0.1c0.5,0,0.8-0.1,1-0.3c0.2-0.2,0.3-0.5,0.3-1v-0.6c-0.2,0.2-0.4,0.4-0.6,0.5
				c-0.2,0.1-0.5,0.2-0.8,0.2c-0.6,0-1.2-0.2-1.5-0.7s-0.6-1.1-0.6-1.8V145.5z M56,145.6c0,0.5,0.1,1,0.3,1.3s0.6,0.5,1,0.5
				c0.3,0,0.5-0.1,0.7-0.2c0.2-0.1,0.4-0.3,0.5-0.6v-2.4c-0.1-0.2-0.3-0.4-0.5-0.5c-0.2-0.1-0.4-0.2-0.7-0.2c-0.5,0-0.8,0.2-1,0.6
				s-0.3,0.9-0.3,1.5V145.6z"/>
		</g>
		<g>
			<path class="st2" d="M63.1,148.2c-0.7,0-1.3-0.2-1.8-0.7c-0.4-0.5-0.7-1.1-0.7-1.9v-0.2c0-0.8,0.2-1.4,0.7-1.9
				c0.4-0.5,1-0.8,1.6-0.8c0.7,0,1.3,0.2,1.6,0.6s0.5,1,0.5,1.7v0.6h-3.4l0,0c0,0.5,0.1,0.9,0.4,1.2s0.6,0.5,1,0.5
				c0.3,0,0.6,0,0.9-0.1c0.2-0.1,0.5-0.2,0.6-0.4l0.4,0.6c-0.2,0.2-0.4,0.3-0.7,0.5C64,148.1,63.6,148.2,63.1,148.2z M63,143.4
				c-0.3,0-0.6,0.1-0.8,0.4c-0.2,0.3-0.4,0.6-0.4,1l0,0h2.4v-0.1c0-0.4-0.1-0.7-0.3-0.9S63.4,143.4,63,143.4z"/>
		</g>
		<g>
			<path class="st2" d="M67.5,141.5v1.3h1v0.7h-1v3.2c0,0.2,0.1,0.4,0.2,0.5s0.2,0.2,0.4,0.2c0.1,0,0.1,0,0.2,0s0.1,0,0.2,0l0.1,0.7
				c-0.1,0.1-0.2,0.1-0.3,0.1c-0.1,0-0.3,0.1-0.4,0.1c-0.4,0-0.7-0.1-0.9-0.4c-0.2-0.2-0.3-0.6-0.3-1.1v-3.2h-0.8v-0.7h0.8v-1.3
				H67.5z"/>
		</g>
	</g>
	<g>
		<rect x="1" y="1" class="st3" width="245" height="26.5"/>
	</g>
	<g>
		<rect x="211.1" y="27.5" class="st4" width="1" height="132.3"/>
	</g>
	<g>
		<rect x="1.5" y="26.5" class="st1" width="245" height="2"/>
	</g>
	<g class="st5">
		<g>
			<rect x="2.3" y="127.4" class="st6" width="1.4" height="1.8"/>
		</g>
		<g>
			<path class="st6" d="M240.7,129.3h-2.8v-1.8h2.8V129.3z M235.2,129.3h-2.8v-1.8h2.8V129.3z M229.7,129.3h-2.8v-1.8h2.8V129.3z
				 M224.2,129.3h-2.8v-1.8h2.8V129.3z M218.7,129.3h-2.8v-1.8h2.8V129.3z M213.1,129.3h-2.8v-1.8h2.8V129.3z M207.6,129.3h-2.8
				v-1.8h2.8V129.3z M202.1,129.3h-2.8v-1.8h2.8V129.3z M196.6,129.3h-2.8v-1.8h2.8V129.3z M191.1,129.3h-2.8v-1.8h2.8V129.3z
				 M185.6,129.3h-2.8v-1.8h2.8V129.3z M180.1,129.3h-2.8v-1.8h2.8V129.3z M174.6,129.3h-2.8v-1.8h2.8V129.3z M169.1,129.3h-2.8
				v-1.8h2.8V129.3z M163.5,129.3h-2.8v-1.8h2.8V129.3z M158,129.3h-2.8v-1.8h2.8V129.3z M152.5,129.3h-2.8v-1.8h2.8V129.3z
				 M147,129.3h-2.8v-1.8h2.8V129.3z M141.5,129.3h-2.8v-1.8h2.8V129.3z M136,129.3h-2.8v-1.8h2.8V129.3z M130.5,129.3h-2.8v-1.8
				h2.8V129.3z M125,129.3h-2.8v-1.8h2.8V129.3z M119.4,129.3h-2.8v-1.8h2.8V129.3z M113.9,129.3h-2.8v-1.8h2.8V129.3z M108.4,129.3
				h-2.8v-1.8h2.8V129.3z M102.9,129.3h-2.8v-1.8h2.8V129.3z M97.4,129.3h-2.8v-1.8h2.8V129.3z M91.9,129.3h-2.8v-1.8h2.8V129.3z
				 M86.4,129.3h-2.8v-1.8h2.8V129.3z M80.9,129.3h-2.8v-1.8h2.8V129.3z M75.4,129.3h-2.8v-1.8h2.8V129.3z M69.8,129.3h-2.8v-1.8
				h2.8V129.3z M64.3,129.3h-2.8v-1.8h2.8V129.3z M58.8,129.3h-2.8v-1.8h2.8V129.3z M53.3,129.3h-2.8v-1.8h2.8V129.3z M47.8,129.3
				H45v-1.8h2.8V129.3z M42.3,129.3h-2.8v-1.8h2.8V129.3z M36.8,129.3H34v-1.8h2.8V129.3z M31.3,129.3h-2.8v-1.8h2.8V129.3z
				 M25.8,129.3H23v-1.8h2.8V129.3z M20.2,129.3h-2.8v-1.8h2.8V129.3z M14.7,129.3H12v-1.8h2.8V129.3z M9.2,129.3H6.5v-1.8h2.8
				V129.3z"/>
		</g>
		<g>
			<rect x="243.5" y="127.4" class="st6" width="1.4" height="1.8"/>
		</g>
	</g>
	<g>
		<g>
			<path d="M20.4,11.5H18v7.2h-1.7v-7.2h-2.4v-1.3h6.5V11.5z"/>
		</g>
		<g>
			<path d="M20.4,15.5c0-0.9,0.3-1.7,0.8-2.3s1.3-0.9,2.2-0.9c0.9,0,1.7,0.3,2.2,0.9s0.8,1.4,0.8,2.3v0.1c0,1-0.3,1.7-0.8,2.3
				s-1.3,0.9-2.2,0.9c-0.9,0-1.7-0.3-2.2-0.9s-0.8-1.4-0.8-2.3V15.5z M22.2,15.6c0,0.6,0.1,1,0.3,1.4c0.2,0.3,0.5,0.5,1,0.5
				c0.4,0,0.8-0.2,1-0.5c0.2-0.4,0.3-0.8,0.3-1.4v-0.1c0-0.6-0.1-1-0.3-1.4c-0.2-0.4-0.5-0.5-1-0.5c-0.4,0-0.8,0.2-1,0.5
				c-0.2,0.4-0.3,0.8-0.3,1.4V15.6z"/>
		</g>
		<g>
			<path d="M31.4,17.8c-0.2,0.3-0.4,0.6-0.7,0.8s-0.6,0.3-1,0.3c-0.7,0-1.2-0.2-1.6-0.6s-0.6-1.1-0.6-2v-3.8h1.7v3.8
				c0,0.5,0.1,0.8,0.2,1c0.2,0.2,0.4,0.3,0.7,0.3c0.3,0,0.5,0,0.7-0.1s0.4-0.2,0.5-0.4v-4.6H33v6.3h-1.5L31.4,17.8z"/>
		</g>
		<g>
			<path d="M36.9,17.6c0.3,0,0.5-0.1,0.7-0.3s0.3-0.4,0.3-0.7h1.6l0,0c0,0.6-0.2,1.2-0.7,1.6s-1.1,0.6-1.9,0.6
				c-0.9,0-1.7-0.3-2.2-0.9S34,16.6,34,15.7v-0.2c0-0.9,0.3-1.7,0.8-2.3s1.2-0.9,2.2-0.9c0.8,0,1.4,0.2,1.9,0.7s0.7,1,0.7,1.8l0,0
				h-1.6c0-0.3-0.1-0.6-0.3-0.8s-0.4-0.3-0.7-0.3c-0.5,0-0.8,0.2-1,0.5c-0.2,0.4-0.3,0.8-0.3,1.4v0.2c0,0.6,0.1,1,0.3,1.4
				C36.1,17.4,36.5,17.6,36.9,17.6z"/>
		</g>
		<g>
			<path d="M42.1,13.2c0.2-0.3,0.4-0.5,0.7-0.7s0.6-0.2,1-0.2c0.7,0,1.2,0.2,1.6,0.7s0.6,1.1,0.6,2v3.8h-1.7V15c0-0.5-0.1-0.8-0.3-1
				s-0.4-0.3-0.8-0.3c-0.2,0-0.4,0-0.6,0.1c-0.2,0.1-0.3,0.2-0.4,0.4v4.7h-1.7V9.6h1.7V13.2z"/>
		</g>
		<g>
			<path d="M48.2,19.5h-1.7l3.1-9.3h1.7L48.2,19.5z"/>
		</g>
		<g>
			<path d="M59.1,18.8h-1.7L54,12.9l0,0v5.8h-1.7v-8.5h1.7l3.4,5.8l0,0v-5.8h1.7V18.8z"/>
		</g>
		<g>
			<path d="M60.3,15.5c0-0.9,0.3-1.7,0.8-2.3s1.3-0.9,2.2-0.9c0.9,0,1.7,0.3,2.2,0.9s0.8,1.4,0.8,2.3v0.1c0,1-0.3,1.7-0.8,2.3
				s-1.3,0.9-2.2,0.9c-0.9,0-1.7-0.3-2.2-0.9s-0.8-1.4-0.8-2.3V15.5z M62,15.6c0,0.6,0.1,1,0.3,1.4c0.2,0.3,0.5,0.5,1,0.5
				c0.4,0,0.8-0.2,1-0.5c0.2-0.4,0.3-0.8,0.3-1.4v-0.1c0-0.6-0.1-1-0.3-1.4c-0.2-0.4-0.5-0.5-1-0.5c-0.4,0-0.8,0.2-1,0.5
				C62.1,14.5,62,15,62,15.5V15.6z"/>
		</g>
		<g>
			<path d="M76.4,11.5H74v7.2h-1.7v-7.2h-2.4v-1.3h6.5V11.5z"/>
		</g>
		<g>
			<path d="M76.4,15.5c0-0.9,0.3-1.7,0.8-2.3s1.3-0.9,2.2-0.9c0.9,0,1.7,0.3,2.2,0.9s0.8,1.4,0.8,2.3v0.1c0,1-0.3,1.7-0.8,2.3
				s-1.3,0.9-2.2,0.9c-0.9,0-1.7-0.3-2.2-0.9s-0.8-1.4-0.8-2.3V15.5z M78.1,15.6c0,0.6,0.1,1,0.3,1.4c0.2,0.3,0.5,0.5,1,0.5
				c0.4,0,0.8-0.2,1-0.5c0.2-0.4,0.3-0.8,0.3-1.4v-0.1c0-0.6-0.1-1-0.3-1.4c-0.2-0.4-0.5-0.5-1-0.5c-0.4,0-0.8,0.2-1,0.5
				c-0.2,0.4-0.3,0.8-0.3,1.4V15.6z"/>
		</g>
		<g>
			<path d="M87.3,17.8c-0.2,0.3-0.4,0.6-0.7,0.8s-0.6,0.3-1,0.3c-0.7,0-1.2-0.2-1.6-0.6s-0.6-1.1-0.6-2v-3.8h1.7v3.8
				c0,0.5,0.1,0.8,0.2,1c0.2,0.2,0.4,0.3,0.7,0.3c0.3,0,0.5,0,0.7-0.1s0.4-0.2,0.5-0.4v-4.6h1.7v6.3h-1.5L87.3,17.8z"/>
		</g>
		<g>
			<path d="M92.8,17.6c0.3,0,0.5-0.1,0.7-0.3s0.3-0.4,0.3-0.7h1.6l0,0c0,0.6-0.2,1.2-0.7,1.6s-1.1,0.6-1.9,0.6
				c-0.9,0-1.7-0.3-2.2-0.9s-0.8-1.4-0.8-2.3v-0.2c0-0.9,0.3-1.7,0.8-2.3s1.2-0.9,2.2-0.9c0.8,0,1.4,0.2,1.9,0.7s0.7,1,0.7,1.8l0,0
				h-1.6c0-0.3-0.1-0.6-0.3-0.8s-0.4-0.3-0.7-0.3c-0.5,0-0.8,0.2-1,0.5c-0.2,0.4-0.3,0.8-0.3,1.4v0.2c0,0.6,0.1,1,0.3,1.4
				C92.1,17.4,92.4,17.6,92.8,17.6z"/>
		</g>
		<g>
			<path d="M98.1,13.2c0.2-0.3,0.4-0.5,0.7-0.7s0.6-0.2,1-0.2c0.7,0,1.2,0.2,1.6,0.7s0.6,1.1,0.6,2v3.8h-1.7V15c0-0.5-0.1-0.8-0.3-1
				s-0.4-0.3-0.8-0.3c-0.2,0-0.4,0-0.6,0.1c-0.2,0.1-0.3,0.2-0.4,0.4v4.7h-1.7V9.6h1.7V13.2z"/>
		</g>
	</g>
	<g>
		<g>
			<path d="M193.1,18.8h-1.1l-3.8-6l0,0v6h-1.1v-7.8h1.1l3.8,6l0,0v-6h1.1V18.8z"/>
		</g>
		<g>
			<path d="M194.6,15.8c0-0.9,0.2-1.6,0.7-2.1c0.5-0.6,1.1-0.8,1.9-0.8c0.8,0,1.4,0.3,1.9,0.8c0.5,0.6,0.7,1.3,0.7,2.1v0.1
				c0,0.9-0.2,1.6-0.7,2.1c-0.5,0.6-1.1,0.8-1.9,0.8c-0.8,0-1.4-0.3-1.9-0.8c-0.5-0.6-0.7-1.3-0.7-2.1V15.8z M195.7,15.9
				c0,0.6,0.1,1.1,0.4,1.5s0.6,0.6,1.2,0.6c0.5,0,0.9-0.2,1.1-0.6c0.3-0.4,0.4-0.9,0.4-1.5v-0.1c0-0.6-0.1-1.1-0.4-1.5
				c-0.3-0.4-0.6-0.6-1.2-0.6c-0.5,0-0.9,0.2-1.1,0.6c-0.3,0.4-0.4,0.9-0.4,1.5V15.9z"/>
		</g>
		<g>
			<path d="M209.3,11.8h-2.5v7h-1.1v-7h-2.5v-0.8h6.1V11.8z"/>
		</g>
		<g>
			<path d="M209.6,15.8c0-0.9,0.2-1.6,0.7-2.1c0.5-0.6,1.1-0.8,1.9-0.8c0.8,0,1.4,0.3,1.9,0.8c0.5,0.6,0.7,1.3,0.7,2.1v0.1
				c0,0.9-0.2,1.6-0.7,2.1c-0.5,0.6-1.1,0.8-1.9,0.8c-0.8,0-1.4-0.3-1.9-0.8c-0.5-0.6-0.7-1.3-0.7-2.1V15.8z M210.7,15.9
				c0,0.6,0.1,1.1,0.4,1.5s0.6,0.6,1.2,0.6c0.5,0,0.9-0.2,1.1-0.6c0.3-0.4,0.4-0.9,0.4-1.5v-0.1c0-0.6-0.1-1.1-0.4-1.5
				c-0.3-0.4-0.6-0.6-1.2-0.6c-0.5,0-0.9,0.2-1.1,0.6c-0.3,0.4-0.4,0.9-0.4,1.5V15.9z"/>
		</g>
		<g>
			<path d="M219.8,17.9c-0.2,0.3-0.4,0.6-0.7,0.7c-0.3,0.2-0.6,0.3-1,0.3c-0.6,0-1.1-0.2-1.5-0.6c-0.4-0.4-0.5-1-0.5-1.9v-3.4h1.1
				v3.4c0,0.6,0.1,1,0.3,1.3c0.2,0.2,0.5,0.3,0.9,0.3c0.4,0,0.7-0.1,0.9-0.2c0.2-0.2,0.4-0.4,0.6-0.6v-4.2h1.1v5.8h-1L219.8,17.9z"
				/>
		</g>
		<g>
			<path d="M224.7,18c0.4,0,0.7-0.1,0.9-0.3c0.3-0.2,0.4-0.5,0.4-0.8h1l0,0c0,0.5-0.2,0.9-0.7,1.3c-0.5,0.4-1,0.6-1.6,0.6
				c-0.8,0-1.5-0.3-1.9-0.8c-0.4-0.6-0.7-1.2-0.7-2.1v-0.2c0-0.8,0.2-1.5,0.7-2.1c0.4-0.6,1.1-0.8,1.9-0.8c0.7,0,1.2,0.2,1.7,0.6
				c0.4,0.4,0.6,0.9,0.6,1.5l0,0h-1c0-0.4-0.1-0.7-0.4-0.9c-0.2-0.2-0.6-0.4-1-0.4c-0.6,0-1,0.2-1.2,0.6c-0.2,0.4-0.4,0.9-0.4,1.5
				V16c0,0.6,0.1,1.1,0.4,1.5C223.8,17.8,224.2,18,224.7,18z"/>
		</g>
		<g>
			<path d="M229.3,13.7c0.2-0.3,0.4-0.5,0.7-0.7c0.3-0.2,0.6-0.2,1-0.2c0.6,0,1.1,0.2,1.4,0.6c0.3,0.4,0.5,0.9,0.5,1.7v3.6h-1.1
				v-3.7c0-0.5-0.1-0.8-0.3-1.1c-0.2-0.2-0.5-0.3-0.9-0.3c-0.3,0-0.6,0.1-0.8,0.2s-0.4,0.3-0.6,0.6v4.3h-1.1v-8.4h1.1V13.7z"/>
		</g>
	</g>
	<g>
		<g>
			<path class="st7" d="M161.7,109.8C161.7,109.8,161.7,109.8,161.7,109.8c-0.3,0-0.6-0.1-0.8-0.4l-26.4-34.3l-18.5,25
				c-0.2,0.2-0.4,0.4-0.7,0.4c-0.3,0-0.6-0.1-0.8-0.3l-9.8-9.8l-16,16c-0.4,0.4-1,0.4-1.4,0l-22-21.7L36,107.4
				c-0.4,0.3-1.1,0.3-1.4-0.2c-0.3-0.4-0.3-1.1,0.2-1.4l30-23.3c0.4-0.3,1-0.3,1.3,0.1l22,21.6l16-16c0.4-0.4,1-0.4,1.4,0l9.7,9.7
				l18.6-25.1c0.2-0.3,0.5-0.4,0.8-0.4c0,0,0,0,0,0c0.3,0,0.6,0.1,0.8,0.4l26.4,34.3l25.2-32.5c0.2-0.3,0.6-0.4,1-0.4l24,5.3
				c0.5,0.1,0.9,0.7,0.8,1.2c-0.1,0.5-0.7,0.9-1.2,0.8l-23.4-5.2l-25.6,33C162.3,109.7,162,109.8,161.7,109.8z"/>
		</g>
		<g>
			<g class="st8">
				<ellipse class="st9" cx="35.4" cy="107.2" rx="4.9" ry="5.1"/>
				<path class="st6" d="M35.4,112.8c-3.1,0-5.6-2.5-5.6-5.7s2.5-5.7,5.6-5.7s5.6,2.5,5.6,5.7S38.4,112.8,35.4,112.8z M35.4,102.7
					c-2.4,0-4.3,2-4.3,4.4s1.9,4.4,4.3,4.4s4.3-2,4.3-4.4S37.7,102.7,35.4,102.7z"/>
			</g>
			<g>
				<circle class="st6" cx="35.4" cy="107.2" r="2.8"/>
			</g>
		</g>
		<g class="st10">
			<circle class="st11" cx="211.6" cy="80.7" r="17"/>
		</g>
		<g class="st10">
			<circle class="st11" cx="211.6" cy="80.7" r="12.5"/>
		</g>
		<g>
			<g class="st8">
				<ellipse class="st9" cx="211.6" cy="80.7" rx="4.9" ry="5.1"/>
				<path class="st6" d="M211.6,86.3c-3.1,0-5.6-2.5-5.6-5.7s2.5-5.7,5.6-5.7s5.6,2.5,5.6,5.7S214.7,86.3,211.6,86.3z M211.6,76.2
					c-2.4,0-4.3,2-4.3,4.4s1.9,4.4,4.3,4.4s4.3-2,4.3-4.4S214,76.2,211.6,76.2z"/>
			</g>
			<g>
				<circle class="st6" cx="211.6" cy="80.7" r="2.8"/>
			</g>
		</g>
	</g>
	<g>
		<g>
			<path class="st2" d="M28.5,120.1c0-0.3-0.1-0.6-0.4-0.8c-0.2-0.2-0.7-0.4-1.3-0.6c-0.8-0.2-1.3-0.4-1.8-0.8
				c-0.4-0.3-0.6-0.8-0.6-1.3c0-0.6,0.2-1,0.7-1.4s1-0.6,1.8-0.6c0.8,0,1.4,0.2,1.9,0.6s0.7,0.9,0.7,1.5l0,0h-0.9
				c0-0.4-0.1-0.8-0.4-1s-0.7-0.4-1.2-0.4c-0.5,0-0.8,0.1-1.1,0.3c-0.3,0.2-0.4,0.5-0.4,0.8c0,0.3,0.1,0.6,0.4,0.8
				c0.3,0.2,0.7,0.4,1.3,0.5c0.7,0.2,1.3,0.5,1.7,0.8s0.6,0.8,0.6,1.3c0,0.6-0.2,1-0.7,1.4s-1.1,0.5-1.8,0.5c-0.7,0-1.3-0.2-1.9-0.6
				c-0.5-0.4-0.8-0.9-0.8-1.5l0,0h0.9c0,0.5,0.2,0.8,0.5,1s0.8,0.4,1.2,0.4c0.5,0,0.9-0.1,1.2-0.3S28.5,120.5,28.5,120.1z"/>
		</g>
		<g>
			<path class="st2" d="M32,115.4v1.3h1v0.7h-1v3.2c0,0.2,0.1,0.4,0.2,0.5s0.2,0.2,0.4,0.2c0.1,0,0.1,0,0.2,0s0.1,0,0.2,0l0.1,0.7
				c-0.1,0.1-0.2,0.1-0.3,0.1c-0.1,0-0.3,0.1-0.4,0.1c-0.4,0-0.7-0.1-0.9-0.4c-0.2-0.2-0.3-0.6-0.3-1.1v-3.2h-0.8v-0.7H31v-1.3H32z"
				/>
		</g>
		<g>
			<path class="st2" d="M37.4,121.9c0-0.2-0.1-0.3-0.1-0.4c0-0.1,0-0.2,0-0.4c-0.2,0.3-0.4,0.5-0.7,0.6c-0.3,0.2-0.6,0.3-0.9,0.3
				c-0.6,0-1-0.1-1.3-0.4c-0.3-0.3-0.4-0.7-0.4-1.2c0-0.5,0.2-0.9,0.6-1.2c0.4-0.3,1-0.4,1.7-0.4h1v-0.5c0-0.3-0.1-0.6-0.3-0.7
				c-0.2-0.2-0.5-0.3-0.8-0.3c-0.3,0-0.6,0.1-0.8,0.2c-0.2,0.2-0.3,0.3-0.3,0.6h-0.9l0,0c0-0.4,0.2-0.7,0.5-1.1s0.9-0.5,1.5-0.5
				c0.6,0,1.1,0.2,1.4,0.5c0.4,0.3,0.5,0.7,0.5,1.3v2.5c0,0.2,0,0.4,0,0.5s0.1,0.3,0.1,0.5H37.4z M35.8,121.2c0.3,0,0.7-0.1,0.9-0.3
				s0.5-0.4,0.5-0.6v-0.9h-1.1c-0.4,0-0.7,0.1-0.9,0.3c-0.2,0.2-0.3,0.4-0.3,0.7c0,0.2,0.1,0.4,0.2,0.6
				C35.3,121.1,35.5,121.2,35.8,121.2z"/>
		</g>
		<g>
			<path class="st2" d="M42.1,117.5l-0.5,0c-0.3,0-0.5,0.1-0.6,0.2s-0.3,0.3-0.4,0.5v3.8h-1v-5.3h0.9l0.1,0.8
				c0.1-0.3,0.3-0.5,0.6-0.6s0.5-0.2,0.8-0.2c0.1,0,0.1,0,0.2,0c0.1,0,0.1,0,0.2,0L42.1,117.5z"/>
		</g>
		<g>
			<path class="st2" d="M44.4,115.4v1.3h1v0.7h-1v3.2c0,0.2,0.1,0.4,0.2,0.5s0.2,0.2,0.4,0.2c0.1,0,0.1,0,0.2,0s0.1,0,0.2,0l0.1,0.7
				c-0.1,0.1-0.2,0.1-0.3,0.1c-0.1,0-0.3,0.1-0.4,0.1c-0.4,0-0.7-0.1-0.9-0.4c-0.2-0.2-0.3-0.6-0.3-1.1v-3.2h-0.8v-0.7h0.8v-1.3
				H44.4z"/>
		</g>
	</g>
	<g>
		<g>
			<path class="st2" d="M208.1,105.5h-3.3v2.5h3.8v0.8h-4.7v-7.1h4.7v0.8h-3.7v2.3h3.3V105.5z"/>
		</g>
		<g>
			<path class="st2" d="M210.4,103.6l0.1,0.8c0.2-0.3,0.4-0.5,0.7-0.7c0.3-0.2,0.6-0.2,0.9-0.2c0.6,0,1,0.2,1.3,0.5s0.5,0.8,0.5,1.5
				v3.3h-1v-3.3c0-0.5-0.1-0.8-0.3-1c-0.2-0.2-0.5-0.3-0.8-0.3c-0.3,0-0.5,0.1-0.7,0.2c-0.2,0.1-0.4,0.3-0.5,0.5v3.9h-1v-5.3H210.4z
				"/>
		</g>
		<g>
			<path class="st2" d="M215,106.3c0-0.8,0.2-1.5,0.5-2.1c0.4-0.5,0.9-0.8,1.5-0.8c0.3,0,0.6,0.1,0.8,0.2c0.2,0.1,0.4,0.3,0.6,0.5
				v-2.9h1v7.6h-0.8l-0.1-0.7c-0.2,0.2-0.4,0.4-0.6,0.6c-0.2,0.1-0.5,0.2-0.9,0.2c-0.6,0-1.1-0.2-1.5-0.7c-0.4-0.5-0.5-1.1-0.5-1.8
				V106.3z M216,106.4c0,0.5,0.1,1,0.3,1.3c0.2,0.3,0.6,0.5,1,0.5c0.3,0,0.5-0.1,0.7-0.2c0.2-0.1,0.4-0.3,0.5-0.5v-2.5
				c-0.1-0.2-0.3-0.4-0.5-0.5c-0.2-0.1-0.4-0.2-0.7-0.2c-0.5,0-0.8,0.2-1,0.6s-0.3,0.9-0.3,1.5V106.4z"/>
		</g>
	</g>
	<g>
		<g class="st12">
			<path class="st11" d="M188,67.4h-45.2c-2.2,0-4-1.8-4-4V44.1c0-2.2,1.8-4,4-4H188c2.2,0,4,1.8,4,4v19.3
				C192,65.6,190.2,67.4,188,67.4z"/>
		</g>
		<g>
			<path class="st6" d="M186.9,66.3h-45.2c-2.2,0-4-1.8-4-4V42.9c0-2.2,1.8-4,4-4h45.2c2.2,0,4,1.8,4,4v19.3
				C190.9,64.5,189.1,66.3,186.9,66.3z"/>
		</g>
		<g class="st12">
			<g>
				<path class="st11" d="M157.2,55.9L157.2,55.9l1.9-8.8h2.5l-3,12.8h-2.4l-2.3-8.4h-0.1l-2.3,8.4h-2.4l-3-12.8h2.5l1.8,8.8l0.1,0
					l2.4-8.8h1.9L157.2,55.9z"/>
			</g>
			<g>
				<path class="st11" d="M165.7,59.9h-2.6V47.1h2.6V59.9z"/>
			</g>
			<g>
				<path class="st11" d="M178.6,59.9h-2.6l-5.2-8.7l-0.1,0v8.7h-2.6V47.1h2.6l5.2,8.7l0.1,0v-8.7h2.6V59.9z"/>
			</g>
			<g>
				<path class="st11" d="M183.6,55.5H181v-8.4h2.6V55.5z M183.6,59.9H181v-2.2h2.6V59.9z"/>
			</g>
		</g>
		<g>
			<g>
				<path class="st9" d="M156.2,54.9L156.2,54.9l1.9-8.8h2.5l-3,12.8h-2.4l-2.3-8.4h-0.1l-2.3,8.4h-2.4l-3-12.8h2.5l1.8,8.8l0.1,0
					l2.4-8.8h1.9L156.2,54.9z"/>
			</g>
			<g>
				<path class="st9" d="M164.7,58.9h-2.6V46.1h2.6V58.9z"/>
			</g>
			<g>
				<path class="st9" d="M177.6,58.9h-2.6l-5.2-8.7l-0.1,0v8.7h-2.6V46.1h2.6l5.2,8.7l0.1,0v-8.7h2.6V58.9z"/>
			</g>
			<g>
				<path class="st9" d="M182.6,54.5H180v-8.4h2.6V54.5z M182.6,58.9H180v-2.2h2.6V58.9z"/>
			</g>
		</g>
	</g>
	<g>
		
			<rect x="186" y="71.5" transform="matrix(0.8164 0.5774 -0.5774 0.8164 78.6156 -102.2529)" class="st6" width="28.2" height="2"/>
	</g>
</g>
</svg>
