<?xml version="1.0" encoding="utf-8"?>
<!-- Generator: Adobe Illustrator 19.1.0, SVG Export Plug-In . SVG Version: 6.00 Build 0)  -->
<svg version="1.1" id="Layer_1" xmlns="http://www.w3.org/2000/svg" xmlns:xlink="http://www.w3.org/1999/xlink" x="0px" y="0px"
	 viewBox="0 0 247 162" style="enable-background:new 0 0 247 162;" xml:space="preserve">
<style type="text/css">
	.st0{fill:#F1F2F2;stroke:#C2C2C2;stroke-width:2;stroke-miterlimit:10;}
	.st1{font-family:'Roboto-Bold';}
	.st2{font-size:12px;}
	.st3{font-family:'Roboto-Regular';}
	.st4{font-size:11px;font-weight:bold;}
	.st5{fill:none;stroke:#DFDEDE;stroke-miterlimit:10;}
	.st6{fill:none;stroke:#2A3052;stroke-linejoin:round;stroke-miterlimit:10;}
	.st7{opacity:5.000000e-02;fill:#2A3052;}
	.st8{fill:#2A3052;}
	.st9{fill:none;stroke:#2A3052;stroke-width:3;stroke-linecap:round;stroke-linejoin:round;stroke-miterlimit:10;}
	.st10{fill:#6D6E71;}
	.st11{font-family:'Roboto-Italic';}
	.st12{font-size:10px;}
	.st13{fill:#E88024;}
	.st14{fill:#FFFFFF;}
	.st15{font-size:17.7229px;}
	.st16{opacity:0.6;}
	.st17{fill:none;stroke:#E88024;stroke-width:2;stroke-miterlimit:10;}
</style>
<g>
	<rect x="1" y="1" class="st0" width="245" height="160"/>
	<line class="st0" x1="0.9" y1="27.5" x2="245.9" y2="27.5"/>
	<text transform="matrix(1 0 0 1 205.0309 18.75)" class="st3 st4">Down</text>
	<g>
		<line class="st5" x1="2.7" y1="45.2" x2="244.2" y2="45.2"/>
		<line class="st5" x1="2.7" y1="61.9" x2="244.2" y2="61.9"/>
		<line class="st5" x1="2.7" y1="78.6" x2="244.2" y2="78.6"/>
		<line class="st5" x1="2.7" y1="111.9" x2="244.2" y2="111.9"/>
		<line class="st5" x1="2.7" y1="128.6" x2="244.2" y2="128.6"/>
		<line class="st5" x1="2.7" y1="145.3" x2="244.2" y2="145.3"/>
		<line class="st5" x1="31.8" y1="28.5" x2="31.8" y2="160"/>
		<line class="st5" x1="62.4" y1="28.5" x2="62.4" y2="160"/>
		<line class="st5" x1="92.9" y1="28.5" x2="92.9" y2="160"/>
		<line class="st5" x1="123.5" y1="28.5" x2="123.5" y2="160"/>
		<line class="st5" x1="154.1" y1="28.5" x2="154.1" y2="160"/>
		<line class="st5" x1="184.6" y1="28.5" x2="184.6" y2="160"/>
		<line class="st5" x1="215.2" y1="28.5" x2="215.2" y2="160"/>
		<line class="st6" x1="2.7" y1="95.2" x2="244.2" y2="95.2"/>
	</g>
	<rect x="1" y="95.2" class="st7" width="245" height="65.8"/>
	<text transform="matrix(1 0 0 1 205.1053 151.75)" class="st8 st3 st2">End</text>
	<polyline class="st9" points="32,95.2 44.1,71.2 58.4,99.2 84.1,59.2 116.4,104.7 143.8,71.8 186.4,137.5 215.2,128.1 	"/>
	<g>
		<text transform="matrix(1 0 0 1 201.5511 111.1252)" class="st10 st11 st12">Target</text>
	</g>
	<text transform="matrix(1 0 0 1 18.6719 119)" class="st8 st3 st2">Start</text>
	<g>
		<path class="st13" d="M155.3,120.6h-29.1l-4.5-6.7l-4.5,6.7H88.1c-2.2,0-3.9,1.8-3.9,3.9v20.3c0,2.2,1.8,3.9,3.9,3.9h67.3
			c2.2,0,3.9-1.8,3.9-3.9v-20.3C159.3,122.4,157.5,120.6,155.3,120.6z"/>
		<g>
			<text transform="matrix(1 0 0 1 103.9283 141.7256)" class="st14 st1 st15">Win!</text>
		</g>
	</g>
	<g>
		<g class="st16">
			<ellipse class="st14" cx="32" cy="95.2" rx="6.8" ry="6.9"/>
		</g>
		<g>
			<ellipse class="st17" cx="32" cy="95.2" rx="6.8" ry="6.9"/>
		</g>
	</g>
	<g>
		<g class="st16">
			<ellipse class="st14" cx="215.2" cy="128.1" rx="6.8" ry="6.9"/>
		</g>
		<g>
			<ellipse class="st17" cx="215.2" cy="128.1" rx="6.8" ry="6.9"/>
		</g>
	</g>
</g>
</svg>
