<?xml version="1.0" encoding="utf-8"?>
<!-- Generator: Adobe Illustrator 19.1.0, SVG Export Plug-In . SVG Version: 6.00 Build 0)  -->
<svg version="1.1" id="Layer_1" xmlns="http://www.w3.org/2000/svg" xmlns:xlink="http://www.w3.org/1999/xlink" x="0px" y="0px"
	 viewBox="0 0 247 162" style="enable-background:new 0 0 247 162;" xml:space="preserve">
<style type="text/css">
	.st0{fill:#F1F2F2;}
	.st1{fill:#C2C2C1;}
	.st2{fill:none;}
	.st3{fill:#DFDEDE;}
	.st4{opacity:0.8;}
	.st5{fill:#E88024;}
	.st6{fill:#80B4E1;}
	.st7{opacity:0.6;}
	.st8{fill:#FFFFFF;}
	.st9{opacity:5.000000e-02;}
	.st10{fill:#2A3052;}
	.st11{fill:#A7A9AC;}
	.st12{opacity:0.1;}
</style>
<g>
	<g>
		<rect x="1" y="1" class="st0" width="245" height="160"/>
		<path class="st1" d="M247,162H0V0h247V162z M2,160h243V2H2V160z"/>
	</g>
	<g>
		<rect x="1" y="1" class="st2" width="245" height="26.5"/>
	</g>
	<g>
		<rect x="211.1" y="27.5" class="st3" width="1" height="132.5"/>
	</g>
	<g>
		<rect x="1.5" y="26.5" class="st1" width="245" height="2"/>
	</g>
	<g class="st4">
		<g>
			<rect x="1.5" y="93.2" class="st5" width="1.5" height="2"/>
		</g>
		<g>
			<path class="st5" d="M242,95.2h-3v-2h3V95.2z M236,95.2h-3v-2h3V95.2z M230.1,95.2h-3v-2h3V95.2z M224.1,95.2h-3v-2h3V95.2z
				 M218.1,95.2h-3v-2h3V95.2z M212.1,95.2h-3v-2h3V95.2z M206.2,95.2h-3v-2h3V95.2z M200.2,95.2h-3v-2h3V95.2z M194.2,95.2h-3v-2h3
				V95.2z M188.2,95.2h-3v-2h3V95.2z M182.3,95.2h-3v-2h3V95.2z M176.3,95.2h-3v-2h3V95.2z M170.3,95.2h-3v-2h3V95.2z M164.3,95.2
				h-3v-2h3V95.2z M158.4,95.2h-3v-2h3V95.2z M152.4,95.2h-3v-2h3V95.2z M146.4,95.2h-3v-2h3V95.2z M140.4,95.2h-3v-2h3V95.2z
				 M134.5,95.2h-3v-2h3V95.2z M128.5,95.2h-3v-2h3V95.2z M122.5,95.2h-3v-2h3V95.2z M116.5,95.2h-3v-2h3V95.2z M110.6,95.2h-3v-2h3
				V95.2z M104.6,95.2h-3v-2h3V95.2z M98.6,95.2h-3v-2h3V95.2z M92.6,95.2h-3v-2h3V95.2z M86.7,95.2h-3v-2h3V95.2z M80.7,95.2h-3v-2
				h3V95.2z M74.7,95.2h-3v-2h3V95.2z M68.7,95.2h-3v-2h3V95.2z M62.8,95.2h-3v-2h3V95.2z M56.8,95.2h-3v-2h3V95.2z M50.8,95.2h-3
				v-2h3V95.2z M44.8,95.2h-3v-2h3V95.2z M38.9,95.2h-3v-2h3V95.2z M32.9,95.2h-3v-2h3V95.2z M26.9,95.2h-3v-2h3V95.2z M20.9,95.2
				h-3v-2h3V95.2z M15,95.2h-3v-2h3V95.2z M9,95.2H6v-2h3V95.2z"/>
		</g>
		<g>
			<rect x="245" y="93.2" class="st5" width="1.5" height="2"/>
		</g>
	</g>
	<g>
		<g>
			<path d="M21.3,10.2v5.7c0,1-0.3,1.7-0.9,2.2s-1.5,0.8-2.5,0.8c-1,0-1.8-0.3-2.5-0.8s-0.9-1.3-0.9-2.2v-5.7h1.7v5.7
				c0,0.6,0.2,1,0.5,1.3c0.3,0.3,0.7,0.4,1.2,0.4c0.5,0,1-0.1,1.3-0.4c0.3-0.3,0.5-0.7,0.5-1.3v-5.7H21.3z"/>
		</g>
		<g>
			<path d="M28.4,15.8c0,0.9-0.2,1.7-0.7,2.3s-1,0.9-1.8,0.9c-0.3,0-0.6-0.1-0.9-0.2s-0.5-0.3-0.7-0.5v3h-1.7v-8.8h1.5l0.1,0.8
				c0.2-0.3,0.4-0.5,0.7-0.6s0.6-0.2,0.9-0.2c0.8,0,1.4,0.3,1.8,0.9s0.7,1.4,0.7,2.4V15.8z M26.7,15.6c0-0.6-0.1-1.1-0.3-1.5
				s-0.5-0.6-0.9-0.6c-0.3,0-0.5,0.1-0.7,0.2c-0.2,0.1-0.3,0.3-0.4,0.5V17c0.1,0.2,0.2,0.3,0.4,0.4c0.2,0.1,0.4,0.1,0.7,0.1
				c0.4,0,0.7-0.2,0.9-0.5c0.2-0.3,0.3-0.8,0.3-1.3V15.6z"/>
		</g>
		<g>
			<path d="M30.3,19.5h-1.7l3.1-9.3h1.7L30.3,19.5z"/>
		</g>
		<g>
			<path d="M34.4,18.8v-8.5h2.9c1,0,1.9,0.3,2.6,1s1,1.5,1,2.6v1.4c0,1-0.3,1.9-1,2.6s-1.5,1-2.6,1H34.4z M36.1,11.5v5.9h1.1
				c0.6,0,1.1-0.2,1.4-0.6s0.5-1,0.5-1.6v-1.4c0-0.7-0.2-1.2-0.5-1.6s-0.8-0.6-1.4-0.6H36.1z"/>
		</g>
		<g>
			<path d="M41.9,15.5c0-0.9,0.3-1.7,0.8-2.3s1.3-0.9,2.2-0.9c0.9,0,1.7,0.3,2.2,0.9s0.8,1.4,0.8,2.3v0.1c0,1-0.3,1.7-0.8,2.3
				s-1.3,0.9-2.2,0.9c-0.9,0-1.7-0.3-2.2-0.9s-0.8-1.4-0.8-2.3V15.5z M43.6,15.6c0,0.6,0.1,1,0.3,1.4s0.5,0.5,1,0.5
				c0.4,0,0.8-0.2,1-0.5s0.3-0.8,0.3-1.4v-0.1c0-0.6-0.1-1-0.3-1.4c-0.2-0.4-0.5-0.5-1-0.5c-0.4,0-0.8,0.2-1,0.5
				c-0.2,0.4-0.3,0.8-0.3,1.4V15.6z"/>
		</g>
		<g>
			<path d="M54.4,16.5L54.4,16.5l0.9-4.1h1.6l-1.6,6.3h-1.4L52.7,15h0l-1.2,3.8H50l-1.6-6.3H50l0.8,4.1h0l1.2-4.1h1.1L54.4,16.5z"/>
		</g>
		<g>
			<path d="M59.3,12.4l0.1,0.9c0.2-0.3,0.5-0.6,0.8-0.8s0.7-0.3,1-0.3c0.6,0,1.1,0.2,1.5,0.6s0.5,1,0.5,1.9v4h-1.7v-4
				c0-0.4-0.1-0.7-0.3-0.9s-0.4-0.3-0.8-0.3c-0.2,0-0.4,0-0.6,0.1c-0.2,0.1-0.3,0.2-0.5,0.4v4.6h-1.7v-6.3H59.3z"/>
		</g>
	</g>
	<g>
		<g>
			<path d="M226.7,10.9v5.3c0,0.9-0.3,1.5-0.8,2c-0.6,0.5-1.3,0.7-2.2,0.7c-0.9,0-1.6-0.2-2.1-0.7c-0.5-0.5-0.8-1.1-0.8-2v-5.3h1.1
				v5.3c0,0.6,0.2,1,0.5,1.3c0.3,0.3,0.8,0.5,1.3,0.5c0.6,0,1-0.2,1.4-0.5c0.4-0.3,0.5-0.8,0.5-1.3v-5.3H226.7z"/>
		</g>
		<g>
			<path d="M233.2,16.1c0,0.8-0.2,1.5-0.6,2c-0.4,0.5-1,0.8-1.7,0.8c-0.4,0-0.7-0.1-0.9-0.2c-0.3-0.1-0.5-0.3-0.7-0.5V21h-1.1v-8
				h0.8l0.2,0.8c0.2-0.3,0.4-0.5,0.7-0.6c0.3-0.1,0.6-0.2,1-0.2c0.7,0,1.3,0.3,1.7,0.9c0.4,0.6,0.6,1.3,0.6,2.3V16.1z M232.1,15.9
				c0-0.7-0.1-1.2-0.4-1.6c-0.3-0.4-0.6-0.6-1.1-0.6c-0.3,0-0.6,0.1-0.8,0.2s-0.4,0.3-0.5,0.6v2.8c0.1,0.2,0.3,0.4,0.5,0.6
				s0.5,0.2,0.8,0.2c0.5,0,0.9-0.2,1.1-0.5s0.4-0.8,0.4-1.4V15.9z"/>
		</g>
	</g>
	<g>
		<path class="st6" d="M154.2,109.8c-0.3,0-0.5-0.1-0.7-0.3L130,86.1l-14.1,14.1c-0.4,0.4-1,0.4-1.4,0l-9.8-9.8l-16,16
			c-0.4,0.4-1,0.4-1.4,0L56,75L36.1,95c-0.4,0.4-1,0.4-1.4,0s-0.4-1,0-1.4l20.6-20.6c0.4-0.4,1-0.4,1.4,0L88,104.3l16-16
			c0.4-0.4,1-0.4,1.4,0l9.8,9.8L129.3,84c0.4-0.4,1-0.4,1.4,0l23.5,23.5l26.5-26.5c0.1-0.1,0.1-0.1,0.2-0.2l30.3-18
			c0.5-0.3,1.1-0.1,1.4,0.3c0.3,0.5,0.1,1.1-0.3,1.4L182,82.4l-27.1,27.1C154.7,109.7,154.4,109.8,154.2,109.8z"/>
	</g>
	<g>
		<g class="st7">
			<ellipse class="st8" cx="35.4" cy="94.2" rx="4.9" ry="5.1"/>
			<path class="st5" d="M35.4,99.9c-3.1,0-5.6-2.5-5.6-5.7s2.5-5.7,5.6-5.7s5.6,2.5,5.6,5.7S38.4,99.9,35.4,99.9z M35.4,89.8
				c-2.4,0-4.3,2-4.3,4.4s1.9,4.4,4.3,4.4s4.3-2,4.3-4.4S37.7,89.8,35.4,89.8z"/>
		</g>
		<g>
			<circle class="st5" cx="35.4" cy="94.2" r="2.8"/>
		</g>
	</g>
	<g class="st9">
		<circle class="st10" cx="211.6" cy="63.7" r="17"/>
	</g>
	<g class="st9">
		<circle class="st10" cx="211.6" cy="63.7" r="12.5"/>
	</g>
	<g>
		<g class="st7">
			<ellipse class="st8" cx="211.6" cy="63.7" rx="4.9" ry="5.1"/>
			<path class="st5" d="M211.6,69.3c-3.1,0-5.6-2.5-5.6-5.7c0-3.1,2.5-5.7,5.6-5.7s5.6,2.5,5.6,5.7
				C217.2,66.8,214.7,69.3,211.6,69.3z M211.6,59.2c-2.4,0-4.3,2-4.3,4.4c0,2.4,1.9,4.4,4.3,4.4s4.3-2,4.3-4.4
				C216,61.2,214,59.2,211.6,59.2z"/>
		</g>
		<g>
			<circle class="st5" cx="211.6" cy="63.7" r="2.8"/>
		</g>
	</g>
	<g>
		<g>
			<path class="st11" d="M28.5,111.5c0-0.3-0.1-0.6-0.4-0.8c-0.2-0.2-0.7-0.4-1.3-0.6c-0.8-0.2-1.3-0.4-1.8-0.8
				c-0.4-0.3-0.6-0.8-0.6-1.3c0-0.6,0.2-1,0.7-1.4s1-0.6,1.8-0.6c0.8,0,1.4,0.2,1.9,0.6s0.7,0.9,0.7,1.5l0,0h-0.9
				c0-0.4-0.1-0.8-0.4-1s-0.7-0.4-1.2-0.4c-0.5,0-0.8,0.1-1.1,0.3c-0.3,0.2-0.4,0.5-0.4,0.8c0,0.3,0.1,0.6,0.4,0.8
				c0.3,0.2,0.7,0.4,1.3,0.5c0.7,0.2,1.3,0.5,1.7,0.8s0.6,0.8,0.6,1.3c0,0.6-0.2,1-0.7,1.4s-1.1,0.5-1.8,0.5c-0.7,0-1.3-0.2-1.9-0.6
				c-0.5-0.4-0.8-0.9-0.8-1.5l0,0h0.9c0,0.5,0.2,0.8,0.5,1s0.8,0.4,1.2,0.4c0.5,0,0.9-0.1,1.2-0.3S28.5,111.8,28.5,111.5z"/>
		</g>
		<g>
			<path class="st11" d="M32,106.7v1.3h1v0.7h-1v3.2c0,0.2,0.1,0.4,0.2,0.5s0.2,0.2,0.4,0.2c0.1,0,0.1,0,0.2,0s0.1,0,0.2,0l0.1,0.7
				c-0.1,0.1-0.2,0.1-0.3,0.1c-0.1,0-0.3,0.1-0.4,0.1c-0.4,0-0.7-0.1-0.9-0.4c-0.2-0.2-0.3-0.6-0.3-1.1v-3.2h-0.8V108H31v-1.3H32z"
				/>
		</g>
		<g>
			<path class="st11" d="M37.4,113.2c0-0.2-0.1-0.3-0.1-0.4c0-0.1,0-0.2,0-0.4c-0.2,0.3-0.4,0.5-0.7,0.6c-0.3,0.2-0.6,0.3-0.9,0.3
				c-0.6,0-1-0.1-1.3-0.4c-0.3-0.3-0.4-0.7-0.4-1.2c0-0.5,0.2-0.9,0.6-1.2c0.4-0.3,1-0.4,1.7-0.4h1v-0.5c0-0.3-0.1-0.6-0.3-0.7
				c-0.2-0.2-0.5-0.3-0.8-0.3c-0.3,0-0.6,0.1-0.8,0.2c-0.2,0.2-0.3,0.3-0.3,0.6h-0.9l0,0c0-0.4,0.2-0.7,0.5-1.1s0.9-0.5,1.5-0.5
				c0.6,0,1.1,0.2,1.4,0.5c0.4,0.3,0.5,0.7,0.5,1.3v2.5c0,0.2,0,0.4,0,0.5s0.1,0.3,0.1,0.5H37.4z M35.8,112.5c0.3,0,0.7-0.1,0.9-0.3
				s0.5-0.4,0.5-0.6v-0.9h-1.1c-0.4,0-0.7,0.1-0.9,0.3c-0.2,0.2-0.3,0.4-0.3,0.7c0,0.2,0.1,0.4,0.2,0.6
				C35.3,112.5,35.5,112.5,35.8,112.5z"/>
		</g>
		<g>
			<path class="st11" d="M42.1,108.8l-0.5,0c-0.3,0-0.5,0.1-0.6,0.2s-0.3,0.3-0.4,0.5v3.8h-1V108h0.9l0.1,0.8
				c0.1-0.3,0.3-0.5,0.6-0.6s0.5-0.2,0.8-0.2c0.1,0,0.1,0,0.2,0c0.1,0,0.1,0,0.2,0L42.1,108.8z"/>
		</g>
		<g>
			<path class="st11" d="M44.4,106.7v1.3h1v0.7h-1v3.2c0,0.2,0.1,0.4,0.2,0.5s0.2,0.2,0.4,0.2c0.1,0,0.1,0,0.2,0s0.1,0,0.2,0
				l0.1,0.7c-0.1,0.1-0.2,0.1-0.3,0.1c-0.1,0-0.3,0.1-0.4,0.1c-0.4,0-0.7-0.1-0.9-0.4c-0.2-0.2-0.3-0.6-0.3-1.1v-3.2h-0.8V108h0.8
				v-1.3H44.4z"/>
		</g>
	</g>
	<g>
		<g>
			<path class="st11" d="M208.1,86.2h-3.3v2.5h3.8v0.8h-4.7v-7.1h4.7v0.8h-3.7v2.3h3.3V86.2z"/>
		</g>
		<g>
			<path class="st11" d="M210.4,84.2l0.1,0.8c0.2-0.3,0.4-0.5,0.7-0.7c0.3-0.2,0.6-0.2,0.9-0.2c0.6,0,1,0.2,1.3,0.5
				c0.3,0.3,0.5,0.8,0.5,1.5v3.3h-1v-3.3c0-0.5-0.1-0.8-0.3-1c-0.2-0.2-0.5-0.3-0.8-0.3c-0.3,0-0.5,0.1-0.7,0.2
				c-0.2,0.1-0.4,0.3-0.5,0.5v3.9h-1v-5.3H210.4z"/>
		</g>
		<g>
			<path class="st11" d="M215,87c0-0.8,0.2-1.5,0.5-2.1c0.4-0.5,0.9-0.8,1.5-0.8c0.3,0,0.6,0.1,0.8,0.2s0.4,0.3,0.6,0.5v-2.9h1v7.6
				h-0.8l-0.1-0.6c-0.2,0.2-0.4,0.4-0.6,0.6c-0.2,0.1-0.5,0.2-0.9,0.2c-0.6,0-1.1-0.2-1.5-0.7c-0.4-0.5-0.5-1.1-0.5-1.8V87z
				 M216,87.1c0,0.5,0.1,1,0.3,1.3c0.2,0.3,0.6,0.5,1,0.5c0.3,0,0.5-0.1,0.7-0.2s0.4-0.3,0.5-0.5v-2.5c-0.1-0.2-0.3-0.4-0.5-0.5
				c-0.2-0.1-0.4-0.2-0.7-0.2c-0.5,0-0.8,0.2-1,0.6S216,86.3,216,87V87.1z"/>
		</g>
	</g>
	<g>
		<g>
			<path class="st11" d="M204.2,32.6h-2.3v6.4h-1v-6.4h-2.3v-0.8h5.5V32.6z"/>
		</g>
		<g>
			<path class="st11" d="M207.9,38.9c0-0.2-0.1-0.3-0.1-0.4c0-0.1,0-0.2,0-0.4c-0.2,0.3-0.4,0.5-0.7,0.6c-0.3,0.2-0.6,0.3-0.9,0.3
				c-0.6,0-1-0.1-1.3-0.4c-0.3-0.3-0.4-0.7-0.4-1.2c0-0.5,0.2-0.9,0.6-1.2c0.4-0.3,1-0.4,1.7-0.4h1v-0.5c0-0.3-0.1-0.6-0.3-0.7
				c-0.2-0.2-0.5-0.3-0.8-0.3c-0.3,0-0.6,0.1-0.8,0.2c-0.2,0.2-0.3,0.3-0.3,0.6h-0.9l0,0c0-0.4,0.2-0.7,0.5-1.1
				c0.4-0.3,0.9-0.5,1.5-0.5c0.6,0,1.1,0.2,1.4,0.5c0.4,0.3,0.5,0.7,0.5,1.3v2.5c0,0.2,0,0.4,0,0.5s0.1,0.3,0.1,0.5H207.9z
				 M206.3,38.2c0.3,0,0.7-0.1,0.9-0.3c0.3-0.2,0.5-0.4,0.5-0.6v-0.9h-1.1c-0.4,0-0.7,0.1-0.9,0.3c-0.2,0.2-0.3,0.4-0.3,0.7
				c0,0.2,0.1,0.4,0.2,0.6C205.8,38.1,206,38.2,206.3,38.2z"/>
		</g>
		<g>
			<path class="st11" d="M212.6,34.5l-0.5,0c-0.3,0-0.5,0.1-0.6,0.2c-0.2,0.1-0.3,0.3-0.4,0.5v3.8h-1v-5.3h0.9l0.1,0.8
				c0.1-0.3,0.3-0.5,0.6-0.6s0.5-0.2,0.8-0.2c0.1,0,0.1,0,0.2,0c0.1,0,0.1,0,0.2,0L212.6,34.5z"/>
		</g>
		<g>
			<path class="st11" d="M213.2,36.4c0-0.8,0.2-1.5,0.6-2.1s0.9-0.8,1.5-0.8c0.3,0,0.6,0.1,0.9,0.2c0.3,0.1,0.5,0.3,0.6,0.6l0.1-0.7
				h0.8v5.3c0,0.7-0.2,1.2-0.6,1.6c-0.4,0.4-1,0.5-1.7,0.5c-0.3,0-0.5,0-0.8-0.1c-0.3-0.1-0.6-0.2-0.8-0.3l0.2-0.7
				c0.2,0.1,0.4,0.2,0.6,0.2c0.2,0.1,0.5,0.1,0.7,0.1c0.5,0,0.8-0.1,1-0.3c0.2-0.2,0.3-0.5,0.3-1v-0.6c-0.2,0.2-0.4,0.4-0.6,0.5
				c-0.2,0.1-0.5,0.2-0.8,0.2c-0.6,0-1.2-0.2-1.5-0.7s-0.6-1.1-0.6-1.8V36.4z M214.2,36.5c0,0.5,0.1,1,0.3,1.3s0.6,0.5,1,0.5
				c0.3,0,0.5-0.1,0.7-0.2c0.2-0.1,0.4-0.3,0.5-0.6V35c-0.1-0.2-0.3-0.4-0.5-0.5c-0.2-0.1-0.4-0.2-0.7-0.2c-0.5,0-0.8,0.2-1,0.6
				c-0.2,0.4-0.3,0.9-0.3,1.5V36.5z"/>
		</g>
		<g>
			<path class="st11" d="M221.3,39c-0.7,0-1.3-0.2-1.8-0.7c-0.4-0.5-0.7-1.1-0.7-1.9v-0.2c0-0.8,0.2-1.4,0.7-1.9
				c0.4-0.5,1-0.8,1.6-0.8c0.7,0,1.3,0.2,1.6,0.6c0.4,0.4,0.5,1,0.5,1.7v0.6h-3.4l0,0c0,0.5,0.1,0.9,0.4,1.2c0.2,0.3,0.6,0.5,1,0.5
				c0.3,0,0.6,0,0.9-0.1c0.2-0.1,0.5-0.2,0.6-0.4l0.4,0.6c-0.2,0.2-0.4,0.3-0.7,0.5C222.1,39,221.8,39,221.3,39z M221.2,34.3
				c-0.3,0-0.6,0.1-0.8,0.4c-0.2,0.3-0.4,0.6-0.4,1l0,0h2.4v-0.1c0-0.4-0.1-0.7-0.3-0.9C221.9,34.4,221.6,34.3,221.2,34.3z"/>
		</g>
		<g>
			<path class="st11" d="M225.7,32.4v1.3h1v0.7h-1v3.2c0,0.2,0.1,0.4,0.2,0.5s0.2,0.2,0.4,0.2c0.1,0,0.1,0,0.2,0c0.1,0,0.1,0,0.2,0
				l0.1,0.7c-0.1,0.1-0.2,0.1-0.3,0.1c-0.1,0-0.3,0.1-0.4,0.1c-0.4,0-0.7-0.1-0.9-0.4c-0.2-0.2-0.3-0.6-0.3-1.1v-3.2h-0.8v-0.7h0.8
				v-1.3H225.7z"/>
		</g>
	</g>
	<g>
		<g class="st12">
			<path class="st10" d="M177,77.3h-45.2c-2.2,0-4-1.8-4-4V53.9c0-2.2,1.8-4,4-4H177c2.2,0,4,1.8,4,4v19.3
				C181,75.5,179.2,77.3,177,77.3z"/>
		</g>
		<g>
			<path class="st5" d="M175.8,76.1h-45.2c-2.2,0-4-1.8-4-4V52.7c0-2.2,1.8-4,4-4h45.2c2.2,0,4,1.8,4,4v19.3
				C179.8,74.3,178,76.1,175.8,76.1z"/>
		</g>
		<g class="st12">
			<g>
				<path class="st10" d="M146.1,65.7L146.1,65.7l1.9-8.8h2.5l-3,12.8h-2.4l-2.3-8.4h-0.1l-2.3,8.4H138l-3-12.8h2.5l1.8,8.8l0.1,0
					l2.4-8.8h1.9L146.1,65.7z"/>
			</g>
			<g>
				<path class="st10" d="M154.7,69.7h-2.6V56.9h2.6V69.7z"/>
			</g>
			<g>
				<path class="st10" d="M167.6,69.7H165l-5.2-8.7l-0.1,0v8.7h-2.6V56.9h2.6l5.2,8.7l0.1,0v-8.7h2.6V69.7z"/>
			</g>
			<g>
				<path class="st10" d="M172.5,65.3h-2.6v-8.4h2.6V65.3z M172.5,69.7h-2.6v-2.2h2.6V69.7z"/>
			</g>
		</g>
		<g>
			<g>
				<path class="st8" d="M145.1,64.7L145.1,64.7l1.9-8.8h2.5l-3,12.8h-2.4l-2.3-8.4h-0.1l-2.3,8.4H137l-3-12.8h2.5l1.8,8.8l0.1,0
					l2.4-8.8h1.9L145.1,64.7z"/>
			</g>
			<g>
				<path class="st8" d="M153.7,68.7h-2.6V55.9h2.6V68.7z"/>
			</g>
			<g>
				<path class="st8" d="M166.6,68.7H164l-5.2-8.7l-0.1,0v8.7h-2.6V55.9h2.6l5.2,8.7l0.1,0v-8.7h2.6V68.7z"/>
			</g>
			<g>
				<path class="st8" d="M171.5,64.3h-2.6v-8.4h2.6V64.3z M171.5,68.7h-2.6v-2.2h2.6V68.7z"/>
			</g>
		</g>
	</g>
	<g>
		<rect x="177.2" y="62.7" class="st5" width="34.4" height="2"/>
	</g>
</g>
</svg>
