<?xml version="1.0" encoding="utf-8"?>
<!-- Generator: Adobe Illustrator 14.0.0, SVG Export Plug-In . SVG Version: 6.00 Build 43363)  -->
<!DOCTYPE svg PUBLIC "-//W3C//DTD SVG 1.1//EN" "http://www.w3.org/Graphics/SVG/1.1/DTD/svg11.dtd">
<svg version="1.1" id="Layer_1" xmlns="http://www.w3.org/2000/svg" xmlns:xlink="http://www.w3.org/1999/xlink" x="0px" y="0px"
	 width="36px" height="36px" viewBox="0 0 36 36" enable-background="new 0 0 36 36" xml:space="preserve">
<g>
	<polygon fill="#2BA8E0" points="0,0 0,10 23.725,10 28.854,3.778 25.175,3.778 27.934,1.018 31.184,1.019 31.184,1.018 
		33.941,1.019 33.941,3.777 33.941,7.026 31.183,9.786 31.184,5.669 27.613,10 36,10 36,0 	"/>
	<polygon fill="#2BA8E0" points="16.334,19.5 14.763,18.417 13.876,19.5 	"/>
	<polygon fill="#2BA8E0" points="19.782,19.5 36,19.5 36,12 25.965,12 	"/>
	<polygon fill="#2BA8E0" points="14.19,14.378 17.968,16.983 22.076,12 0,12 0,19.5 9.998,19.5 	"/>
	<polygon fill="#2BA8E0" points="9.18,20.5 0,20.5 0,27.75 3.245,27.75 	"/>
	<polygon fill="#2BA8E0" points="18.532,21.016 17.784,20.5 13.058,20.5 7.123,27.75 36,27.75 36,20.5 18.958,20.5 	"/>
	<polygon fill="#2BA8E0" points="4.077,31.471 1.755,29.57 2.836,28.25 0,28.25 0,36 36,36 36,28.25 6.714,28.25 	"/>
</g>
</svg>
