<svg xmlns="http://www.w3.org/2000/svg" width="239" height="239" viewBox="0 0 239 239"><path fill="#D1D2D3" d="M114.461 238.243l-.184.004c-1.767 0-3.343-1.434-3.512-3.196l-1.989-21.018-.402-.047c-4.694-.545-9.551-1.51-14.436-2.868l-.389-.108-9.826 18.711c-.594 1.14-1.833 1.875-3.157 1.875-.508 0-.994-.106-1.446-.315l-9.339-3.833c-1.769-.636-2.752-2.583-2.213-4.35l6.122-20.177-.353-.196c-4.328-2.403-8.626-5.285-12.775-8.566l-.317-.251-16.281 13.476c-.614.508-1.407.787-2.232.787-1.008 0-1.961-.412-2.613-1.132l-7.14-7.14c-1.388-1.261-1.543-3.435-.363-4.863l13.471-16.278-.251-.317c-2.998-3.791-5.724-7.835-8.104-12.019l-.2-.351-20.141 6.326c-.329.104-.671.156-1.018.156-1.473 0-2.844-.947-3.334-2.303l-3.926-9.307c-.808-1.692-.13-3.766 1.502-4.642l18.596-9.99-.112-.388c-1.458-5.054-2.499-10.201-3.094-15.298l-.047-.402-21.016-1.989c-1.844-.178-3.274-1.824-3.187-3.672v-10.1c-.087-1.872 1.342-3.518 3.186-3.694l21.016-1.992.047-.402c.547-4.698 1.514-9.555 2.872-14.434l.108-.389-18.712-9.826c-1.636-.855-2.333-2.923-1.554-4.609l3.836-9.339c.495-1.395 1.871-2.352 3.354-2.352.338 0 .672.049.994.147l20.169 6.126.196-.353c2.404-4.334 5.287-8.637 8.567-12.788l.251-.317-13.468-16.276c-1.181-1.428-1.026-3.601.345-4.843l7.142-7.154c.667-.732 1.619-1.143 2.626-1.143.826 0 1.62.28 2.236.788l16.287 13.471.317-.251c3.806-3.007 7.847-5.732 12.01-8.099l.351-.199-6.331-20.141c-.555-1.769.409-3.728 2.147-4.368l9.31-3.914c.483-.229.982-.34 1.503-.34 1.309 0 2.541.721 3.139 1.838l9.988 18.602.388-.112c5.053-1.458 10.2-2.498 15.3-3.091l.402-.047 1.989-21.019c.17-1.759 1.747-3.191 3.516-3.191l.157.004h10.1l.18-.004c1.771 0 3.347 1.432 3.515 3.191l1.99 21.019.402.047c4.707.548 9.563 1.513 14.432 2.868l.389.108 9.825-18.714c.597-1.135 1.834-1.869 3.151-1.869.51 0 .998.107 1.451.32l9.351 3.826c1.763.635 2.743 2.586 2.205 4.356l-6.127 20.169.354.196c4.323 2.397 8.622 5.279 12.777 8.563l.317.251 16.284-13.472c.616-.507 1.411-.787 2.236-.787 1.008 0 1.961.411 2.614 1.126l7.137 7.152c1.394 1.254 1.55 3.427.366 4.861l-13.47 16.288.25.317c3.019 3.816 5.741 7.855 8.095 12.005l.199.352 20.145-6.326c.328-.103.67-.154 1.017-.154 1.476 0 2.854.947 3.351 2.303l3.916 9.308c.804 1.694.124 3.767-1.505 4.642l-18.597 9.985.112.388c1.454 5.036 2.494 10.185 3.092 15.304l.048.401 21.017 1.992c1.846.176 3.276 1.822 3.188 3.67l-.001 10.101c.089 1.87-1.342 3.518-3.188 3.695l-21.017 1.989-.047.402c-.547 4.71-1.513 9.564-2.868 14.431l-.108.389 18.714 9.827c1.637.854 2.331 2.921 1.55 4.607l-3.833 9.339c-.497 1.397-1.876 2.358-3.36 2.358h-.001c-.336 0-.669-.05-.989-.146l-20.165-6.133-.195.353c-2.411 4.334-5.293 8.635-8.567 12.782l-.25.317 13.47 16.285c1.183 1.434 1.027 3.607-.348 4.846l-7.14 7.14c-.671.737-1.624 1.149-2.633 1.149-.824 0-1.618-.279-2.233-.788l-16.28-13.475-.317.252c-3.802 3.01-7.847 5.736-12.021 8.104l-.353.199 6.341 20.144c.549 1.764-.416 3.72-2.151 4.357l-9.306 3.924c-.481.229-.979.34-1.499.34-1.309 0-2.543-.723-3.145-1.841l-9.991-18.602-.388.112c-5.04 1.455-10.187 2.494-15.299 3.09l-.402.047-1.99 21.019c-.168 1.762-1.742 3.195-3.511 3.195l-10.264-.002zm5.038-183.219c-35.553 0-64.477 28.924-64.477 64.477 0 35.55 28.924 64.472 64.477 64.472s64.477-28.922 64.477-64.472c0-35.553-28.924-64.477-64.477-64.477z"/><path fill="#B4B4B4" d="M114.281 1.252l.18.004 10.123-.001.133-.003c1.52 0 2.873 1.229 3.018 2.738l1.952 20.617.076.806.804.093c4.681.545 9.511 1.505 14.354 2.854l.778.217.376-.715 9.637-18.356c.512-.973 1.575-1.602 2.709-1.602.437 0 .853.092 1.284.292l9.368 3.832c1.496.539 2.338 2.213 1.876 3.733l-6.01 19.782-.234.773.706.392c4.3 2.384 8.577 5.25 12.711 8.519l.635.501.623-.516 15.971-13.212c.527-.435 1.209-.674 1.919-.674.868 0 1.686.351 2.275.996l7.121 7.136.02.019.02.018c1.158 1.041 1.294 2.943.297 4.151l-13.213 15.976-.516.623.502.634c3.002 3.796 5.711 7.814 8.051 11.941l.398.703.771-.242 19.759-6.204c.279-.087.571-.132.867-.132 1.27 0 2.455.812 2.898 2.018l3.926 9.327c.682 1.437.099 3.216-1.299 3.967l-18.24 9.794-.712.382.224.776c1.446 5.009 2.481 10.131 3.076 15.224l.094.803.805.076 20.614 1.954c1.584.151 2.812 1.563 2.735 3.196l.001 10.125c.074 1.558-1.179 3-2.735 3.15l-20.614 1.951-.806.076-.094.804c-.545 4.684-1.505 9.513-2.854 14.354l-.218.778.716.376 18.358 9.641c1.379.72 1.986 2.53 1.31 3.993l-3.842 9.363c-.419 1.18-1.604 2.004-2.882 2.004-.287 0-.571-.042-.843-.125l-19.779-6.016-.772-.234-.393.705c-2.397 4.311-5.265 8.589-8.522 12.716l-.5.634.515.623 13.212 15.974c1.015 1.23.882 3.095-.296 4.155l-.02.018-.019.019-7.154 7.156c-.56.616-1.378.969-2.246.969-.709 0-1.389-.239-1.914-.673l-15.969-13.217-.624-.516-.635.502c-3.781 2.995-7.805 5.707-11.958 8.061l-.703.399.242.771 6.218 19.755c.472 1.516-.356 3.194-1.889 3.759l-9.325 3.935c-.394.187-.818.281-1.264.281-1.127 0-2.188-.619-2.704-1.577l-9.8-18.246-.382-.711-.776.224c-5.013 1.447-10.133 2.481-15.219 3.074l-.803.094-.076.805-1.952 20.615c-.145 1.513-1.496 2.743-3.014 2.743l-.184-.004-10.124.001-.136.003c-1.517 0-2.869-1.23-3.014-2.742l-1.951-20.615-.076-.807-.804-.093c-4.668-.542-9.5-1.502-14.359-2.854l-.778-.216-.375.715-9.639 18.356c-.508.975-1.573 1.604-2.713 1.604-.435 0-.85-.091-1.277-.287l-9.36-3.84c-1.475-.529-2.337-2.235-1.882-3.728l6.004-19.789.234-.772-.706-.392c-4.304-2.391-8.58-5.258-12.708-8.521l-.635-.502-.623.516-15.969 13.217c-.525.434-1.205.673-1.913.673-.868 0-1.686-.353-2.277-1.003l-7.158-7.155c-1.156-1.049-1.292-2.953-.296-4.157l13.213-15.967.516-.623-.501-.635c-2.982-3.771-5.694-7.794-8.062-11.956l-.399-.702-.77.242-19.757 6.206c-.279.088-.571.133-.867.133-1.266 0-2.444-.812-2.864-1.973l-.009-.024-.01-.024-3.935-9.324c-.673-1.41-.08-3.226 1.296-3.965l18.24-9.799.711-.382-.224-.776c-1.45-5.027-2.485-10.147-3.078-15.218l-.094-.803-.805-.076-20.611-1.951c-1.557-.15-2.81-1.593-2.735-3.198l-.001-10.124c-.075-1.586 1.152-2.999 2.734-3.149l20.613-1.954.806-.076.093-.804c.544-4.673 1.506-9.503 2.857-14.358l.217-.778-.715-.375-18.357-9.64c-1.379-.721-1.988-2.533-1.314-3.995l3.846-9.365c.417-1.175 1.599-1.996 2.875-1.996.289 0 .575.042.849.125l19.783 6.009.773.235.392-.707c2.391-4.311 5.258-8.59 8.522-12.72l.501-.635-.516-.623-13.211-15.966c-.996-1.205-.86-3.107.295-4.154l.019-.017.018-.018 7.155-7.17c.557-.612 1.374-.962 2.24-.962.71 0 1.392.239 1.917.672l15.976 13.214.623.515.634-.501c3.786-2.992 7.806-5.702 11.947-8.057l.702-.399-.242-.769-6.21-19.755c-.476-1.518.351-3.2 1.885-3.766l9.331-3.924c.395-.188.821-.283 1.268-.283 1.126 0 2.186.618 2.699 1.575l9.797 18.246.382.711.776-.224c5.026-1.451 10.146-2.485 15.219-3.075l.804-.093.076-.806 1.951-20.615c.145-1.51 1.499-2.739 3.017-2.739m5.218 183.221c35.828 0 64.977-29.146 64.977-64.972 0-35.828-29.148-64.977-64.977-64.977s-64.977 29.148-64.977 64.977c0 35.825 29.149 64.972 64.977 64.972m5.218-184.221l-.18.004h-10.076l-.18-.004c-2.029 0-3.817 1.608-4.013 3.644l-1.951 20.617c-5.272.613-10.401 1.67-15.381 3.107l-9.797-18.246c-.713-1.33-2.132-2.102-3.579-2.102-.576 0-1.156.122-1.697.379l-9.289 3.906c-1.982.73-3.082 2.975-2.451 4.987l6.21 19.755c-4.237 2.409-8.271 5.137-12.073 8.142l-15.977-13.214c-.734-.605-1.645-.902-2.554-.902-1.104 0-2.204.438-2.98 1.29l-7.123 7.136c-1.561 1.414-1.739 3.906-.395 5.532l13.213 15.964c-3.196 4.044-6.098 8.321-8.612 12.855l-19.783-6.009c-.376-.114-.76-.168-1.139-.168-1.66 0-3.242 1.041-3.817 2.662l-3.828 9.319c-.885 1.915-.091 4.285 1.775 5.261l18.355 9.639c-1.311 4.708-2.308 9.54-2.887 14.511l-20.613 1.954c-2.098.2-3.738 2.078-3.639 4.191v10.077c-.1 2.102 1.541 3.991 3.639 4.193l20.613 1.951c.616 5.271 1.675 10.4 3.11 15.379l-18.24 9.799c-1.854.996-2.636 3.371-1.726 5.276l3.916 9.282c.579 1.6 2.158 2.633 3.805 2.633.39 0 .783-.058 1.168-.18l19.756-6.205c2.41 4.237 5.137 8.275 8.146 12.082l-13.213 15.967c-1.345 1.627-1.166 4.119.395 5.535l7.123 7.122c.776.856 1.878 1.296 2.984 1.296.907 0 1.817-.297 2.55-.902l15.97-13.217c4.043 3.196 8.315 6.097 12.843 8.611l-6.004 19.789c-.614 2.012.51 4.244 2.501 4.959l9.318 3.823c.53.246 1.095.362 1.656.362 1.461 0 2.894-.789 3.6-2.143l9.638-18.354c4.708 1.31 9.541 2.307 14.512 2.884l1.951 20.615c.196 2.041 1.982 3.648 4.01 3.648l.184-.004h10.076l.184.004c2.028 0 3.814-1.607 4.009-3.648l1.952-20.615c5.271-.614 10.403-1.67 15.38-3.106l9.8 18.246c.714 1.327 2.136 2.104 3.585 2.104.574 0 1.152-.121 1.693-.379l9.284-3.915c1.983-.729 3.082-2.962 2.455-4.978l-6.219-19.758c4.245-2.406 8.282-5.135 12.086-8.146l15.969 13.217c.734.605 1.644.902 2.552.902 1.105 0 2.208-.439 2.986-1.296l7.121-7.122c1.572-1.416 1.74-3.908.398-5.535l-13.213-15.975c3.191-4.043 6.094-8.322 8.611-12.849l19.779 6.016c.375.113.757.168 1.134.168 1.663 0 3.247-1.047 3.824-2.669l3.824-9.318c.888-1.916.093-4.286-1.771-5.26l-18.356-9.64c1.311-4.702 2.307-9.542 2.884-14.507l20.614-1.951c2.096-.202 3.741-2.092 3.641-4.193v-10.077c.101-2.114-1.545-3.992-3.641-4.191l-20.614-1.954c-.616-5.276-1.671-10.406-3.108-15.385l18.24-9.794c1.864-1.001 2.634-3.372 1.729-5.276l-3.907-9.286c-.589-1.604-2.172-2.63-3.82-2.63-.389 0-.781.057-1.166.177l-19.76 6.205c-2.403-4.238-5.133-8.27-8.137-12.068l13.213-15.976c1.342-1.626 1.174-4.119-.398-5.532l-7.121-7.136c-.777-.852-1.879-1.29-2.983-1.29-.908 0-1.819.296-2.555.902l-15.973 13.214c-4.037-3.191-8.311-6.094-12.846-8.608l6.01-19.782c.615-2.024-.511-4.25-2.494-4.965l-9.328-3.816c-.532-.249-1.1-.367-1.663-.367-1.458 0-2.887.79-3.594 2.137l-9.638 18.357c-4.702-1.309-9.54-2.305-14.508-2.883l-1.952-20.617c-.194-2.036-1.982-3.644-4.012-3.644zm-5.218 183.221c-35.275 0-63.977-28.701-63.977-63.972 0-35.278 28.701-63.977 63.977-63.977 35.277 0 63.977 28.699 63.977 63.977 0 35.27-28.7 63.972-63.977 63.972z"/><path fill="#fff" d="M172.865 66.12c-29.433-29.455-77.319-29.455-106.764-.01-29.433 29.43-29.433 77.339 0 106.78 29.444 29.448 77.347 29.444 106.764-.007 29.476-29.434 29.476-77.343 0-106.763z"/><g fill="#293152"><path d="M98.447 139.297s.87 6.479 6.322 9.477l-1.454-2.706c0-.001 2.773-7.286-4.868-6.771zM169.052 69.935c-27.339-27.346-71.794-27.346-99.125-.007-27.332 27.336-27.332 71.806 0 99.148 27.331 27.334 71.803 27.326 99.125-.004 27.36-27.338 27.36-71.807 0-99.137zm-7.25 91.882c-.767.752-1.514 1.48-2.289 2.181-16.842 13.723-29.813 6.895-29.957 6.895-8.789-1.753-13.154-1.784-15.618-3.434-.625-.414-2.61-1.481-3.066-1.225-1.794 1.07-4.261 1.617-6.803-.402-.229-.189-.438-.391-.635-.578-2.797-2.791-1.845-5.668-.918-6.662.646-.655-.491-2.498-.491-2.498s-3.3-4.902-5.56-7.855c-2.481-3.237-2.819-9.662-2.85-9.745l-.029-.093c-2.51-2.98-2.771-3.897-3.64-5.351-.505-.858-1.284-1.663-1.943-2.355-.451-.453-.872-.884-1.167-1.284-.069-.087-.085-.214-.058-.407.227-1.395 3.225-4.462 3.863-4.89.795-.515 4.201-2.588 4.201-2.588s1.924-3.009 5.188-3.009c2.942.01 4.739-.164 9.813 1.489l2.112.668c3.54 1.136 6.658 2.475 9.136 3.541 2.108.91 3.788 1.639 5.077 1.975 4.378 1.154 12.103-2.387 13.73-3.883 2.672-2.433 3.827-4.063 3.838-5.398.026-.75-.305-1.404-1.066-2.195l-1.532-1.681c-.102-.104-.208-.221-.339-.313-7.411-7.872-6.13-12.809-6.122-12.887.316-3.542-1.716-5.809-3.895-8.166l-.362-.444c-.113-.104-.25-.286-.25-.286 3.156.519 5.306 1.79 11.47 2.475 3.504.377 2.399.345 5.196.276 3.852-.126 6.907-.463 7.113-1.341-.372-.316-2.077.098-10.264-3.032-3.787-1.454-4.384-1.667-6.796-2.469-3.098-1.041-6.453-2.49-6.453-2.49 13.354 3.505 17.719 4.874 23.83 4.959 2.357.043 3.765-.241 4.591-.41.868-.158 3.564-.767 3.871-1.7.094-.161-2.586.438-7.54-1.194-15.579-5.149-16.907-7.729-25.55-11.085-3.009-1.171-3.994-1.813-13.09-4.162-4.174-1.066-10.474-.455-11.33.08-11.817-2.775-14.499-2.466-17.968-1.726 23.112-14.819 54.327-12.148 74.55 8.074 2.74 2.744 5.17 5.7 7.297 8.828l.283.432c6.488 9.712 9.954 21.11 9.954 33.043.002 15.993-6.228 31.009-17.532 42.322zm-39.242-67.558c5.868 2.094 7.748 8.345 7.748 8.345-7.458 1.693-5.882-5.92-5.882-5.92l-1.866-2.425z"/></g></svg>