<svg xmlns="http://www.w3.org/2000/svg" width="144" height="142" viewBox="0 0 144 142"><path d="M102.88 105.725c-1.073.406-2.177.797-3.32 1.166-11.52 3.736-26.33 5.645-41.06 5.645-14.73 0-29.538-1.908-41.062-5.643-1.14-.368-2.245-.76-3.32-1.165-1.04-.393-2.056-.8-3.03-1.227-4.43-1.95-8.093-4.248-10.72-6.887v23.635c0 .607.09 1.21.24 1.803.154.61.39 1.21.693 1.804 4.88 9.48 28.624 16.675 57.2 16.675 28.577 0 52.32-7.196 57.2-16.675.303-.593.537-1.192.69-1.802.15-.594.243-1.195.243-1.803V97.613c-2.63 2.638-6.29 4.937-10.723 6.886-.972.425-1.988.833-3.03 1.226zM17.438 35.108c1.23.427 2.515.834 3.846 1.222 1.426.415 2.908.807 4.445 1.173 9.33 2.227 20.61 3.53 32.77 3.53 12.157 0 23.44-1.304 32.77-3.53 1.536-.366 3.02-.758 4.444-1.172 1.334-.386 2.62-.793 3.846-1.22 10.548-3.67 17.073-8.747 17.073-14.354 0-.762-.133-1.513-.367-2.253-.193-.61-.455-1.21-.8-1.802-.354-.61-.798-1.21-1.31-1.802C106.95 6.553 84.764.475 58.5.475c-26.265 0-48.45 6.078-55.658 14.42-.51.59-.95 1.19-1.308 1.803-.346.592-.608 1.194-.802 1.802-.233.74-.364 1.492-.364 2.253 0 5.608 6.525 10.684 17.07 14.355zm85.442 3.622c-1.073.406-2.177.797-3.32 1.167C88.04 43.63 73.23 45.54 58.5 45.54c-14.73 0-29.538-1.91-41.062-5.643-1.14-.37-2.245-.76-3.32-1.166-1.04-.392-2.056-.8-3.03-1.227-4.43-1.948-8.093-4.248-10.72-6.886V54.25c0 5.608 6.525 10.683 17.07 14.354 1.23.427 2.515.834 3.848 1.222 1.425.415 2.908.806 4.444 1.173 9.332 2.225 20.612 3.527 32.77 3.527s23.44-1.3 32.77-3.528c1.535-.368 3.02-.76 4.445-1.174 1.332-.388 2.617-.794 3.844-1.222 10.545-3.67 17.072-8.747 17.072-14.354V30.617c-2.63 2.638-6.29 4.938-10.723 6.886-.973.427-1.99.834-3.03 1.228zm0 33.5c-1.075.405-2.18.794-3.32 1.165-11.52 3.732-26.33 5.64-41.06 5.64-14.73 0-29.538-1.907-41.06-5.64-1.143-.37-2.246-.76-3.32-1.166-1.043-.396-2.058-.803-3.03-1.23-4.433-1.95-8.095-4.25-10.722-6.887v23.635c0 5.607 6.525 10.684 17.07 14.354 1.227.428 2.515.836 3.846 1.223 1.426.414 2.908.807 4.445 1.174 9.33 2.223 20.61 3.527 32.77 3.527 12.157 0 23.44-1.305 32.77-3.53 1.536-.366 3.02-.76 4.444-1.173 1.334-.387 2.62-.795 3.846-1.223 10.548-3.67 17.073-8.745 17.073-14.353V64.114c-2.63 2.638-6.29 4.937-10.725 6.886-.97.428-1.986.834-3.03 1.23z" fill="#222F61"/><path fill="#E98025" d="M110.09 138.73c-2.164 0-4.332-.215-6.44-.64l-.968-.192.916-4.56c-1.264-.302-2.504-.69-3.71-1.163l-1.853 4.264-.906-.395c-2.094-.908-4.09-2.04-5.947-3.367l-.805-.577 2.65-3.71-.944-.61h.318c-.78-.64-1.523-1.32-2.23-2.036l-3.432 3.14-.668-.73c-1.54-1.685-2.904-3.532-4.055-5.49l-.503-.853 4.008-2.356c-.615-1.14-1.154-2.324-1.607-3.54L79.5 117.38l-.313-.938c-.717-2.164-1.207-4.41-1.455-6.68l-.107-.982 4.627-.508c-.057-.71-.084-1.41-.084-2.094 0-.596.02-1.193.058-1.79l-4.627-.458.1-.984c.223-2.266.687-4.518 1.38-6.693l.3-.943 4.434 1.418c.436-1.213.96-2.402 1.572-3.555l-4.04-2.316.493-.86c1.132-1.977 2.48-3.838 3.995-5.535l.662-.736 3.47 3.106c.897-.934 1.858-1.805 2.876-2.605l-2.748-3.76.8-.583c1.847-1.35 3.835-2.504 5.907-3.432l.902-.402 1.902 4.246c1.203-.49 2.44-.894 3.695-1.208l-.97-4.55.97-.204c2.22-.473 4.505-.71 6.788-.71h.99v4.647c1.087.04 2.177.144 3.26.31l.868-4.572.97.184c2.24.426 4.444 1.09 6.548 1.977l.912.384-1.81 4.287c1.173.544 2.31 1.173 3.403 1.88l2.662-3.816.813.566c1.867 1.303 3.604 2.807 5.158 4.47l.676.724-3.397 3.176c.85.977 1.63 2.014 2.342 3.1l3.984-2.402.51.846c1.18 1.957 2.153 4.04 2.896 6.193l.322.937-4.4 1.516c.376 1.238.67 2.506.87 3.787l4.617-.56.12.983c.155 1.297.235 2.623.235 3.94 0 .954-.04 1.923-.127 2.876l-.086.985-4.64-.407c-.158 1.297-.404 2.572-.738 3.816l4.444 1.366-.29.945c-.67 2.175-1.573 4.288-2.69 6.286l-.482.863-4.063-2.27c-.673 1.107-1.423 2.17-2.24 3.172l3.5 3.066-.653.744c-1.498 1.71-3.184 3.27-5.008 4.635l-.794.595-2.786-3.727c-1.066.74-2.182 1.404-3.34 1.988l1.947 4.225-.897.415c-2.07.957-4.25 1.693-6.48 2.19l-.964.218-1.02-4.544c-1.274.24-2.563.39-3.854.45l.05 4.65-1.346.012zm.078-50.173c-9.72 0-17.623 7.904-17.623 17.623 0 9.715 7.904 17.62 17.623 17.62 9.717 0 17.62-7.905 17.62-17.62 0-9.72-7.903-17.623-17.62-17.623zm-.26 26.066c-.547 0-.99-.443-.99-.99 0-.545.443-.988.99-.988s.988.443.988.988c0 .547-.44.99-.988.99z"/><path fill="#fff" d="M110.09 74.617v4.63h-.274c-.012 0-.02.003-.033.003h-.108c-.008.002-.014.002-.02.002h-.113l-.006.002h-.072l-.01.002h-.072l-.002.002h-.062l-.006.002h-.054c-.004 0-.004.002-.006.002h-.077c-.016.002-.03.002-.045.002h-.012c-.004.002-.008.002-.012.002h-.038l-.006.002h-.056c-.002.002-.004.002-.006.002h-.042s0 .002-.002.002h-.054l-.008.002h-.016l-.055.004h-.048c-.004.002-.008.002-.01.002h-.027s-.003.002-.007.002h-.047s-.002 0-.002.002h-.034c-.003.002-.005.002-.01.002h-.02l-.01.002h-.024c-.004 0-.006 0-.01.002h-.012l-.067.004h-.022v.002h-.02s0 .002-.002.002h-.035l-.008.002h-.023s0 .002-.003.002h-.032l-.012.002h-.024c-.003.002-.003.002-.01.002h-.01l-.013.002h-.013l-.086.006h-.002l-.033.002-.01.002h-.026c0 .002-.007.002-.01.002h-.013l-.008.002h-.025l-.012.002h-.01c-.004 0-.01 0-.012.002H108v.002c-.06.004-.12.008-.18.014l-.065.006c-.066.004-.13.016-.19.02.66-.06 1.33-.1 2.01-.114h.067c.003 0 .003-.002.005-.002h.138l.004-.002h.275c1.78 0 3.518.178 5.2.506-.054-.01-.103-.025-.155-.033l.86-4.553c2.173.412 4.308 1.057 6.347 1.916l-1.8 4.268c-.02-.01-.044-.018-.067-.025 1.926.803 3.734 1.83 5.404 3.04-.13-.097-.258-.194-.39-.286l2.65-3.797c1.812 1.262 3.493 2.72 5.003 4.334l-3.383 3.163-.21-.22c-.003-.003-.003-.005-.007-.007l-.006-.008c-.004-.003-.004-.005-.01-.007-.012-.014-.025-.03-.04-.043-.003-.002-.005-.004-.005-.008h-.002l-.006-.007-.002-.002-.006-.005v-.002c-.005-.002-.005-.004-.007-.006h-.002c0-.002-.003-.004-.007-.006l-.006-.007c0-.002 0-.002-.002-.002l-.004-.005v-.002l-.01-.006c-.003-.006-.007-.008-.01-.012v-.002l-.005-.006-.004-.002c0-.002 0-.004-.005-.004l-.002-.003c-.002-.002-.004-.002-.004-.004l-.003-.004-.006-.005-.003-.004h-.002l-.006-.007s0-.002-.003-.002c-.002 0-.002-.003-.006-.005 0-.002 0-.002-.003-.004l-.002-.003-.004-.002c0-.002 0-.004-.003-.006l-.002-.003c-.004-.002-.006-.006-.008-.008-.004-.005-.01-.013-.016-.017v-.002l-.007-.005v-.002l-.008-.006s0-.002-.002-.002c0-.002-.004-.004-.004-.006 0 0-.005 0-.005-.003s-.002-.004-.004-.006h-.003c0-.003-.004-.005-.004-.007-.002 0-.002 0-.002-.002-.003 0-.003-.003-.007-.005v-.002l-.006-.006s-.002 0-.002-.002c-.002 0-.006-.004-.008-.006-.008-.013-.02-.02-.03-.034-.003 0-.007-.004-.007-.006l-.01-.007v-.002c-.003 0-.005-.002-.01-.004 0-.004-.003-.006-.007-.008v-.002l-.03-.03c-.003 0-.007-.005-.01-.007l.01.007.274.28c1.443 1.493 2.713 3.153 3.78 4.946-.02-.04-.04-.08-.063-.117l3.967-2.393c1.145 1.896 2.09 3.916 2.81 6.004l-4.38 1.508c-.025-.072-.057-.145-.08-.215l-.01-.03.01.03c.687 1.94 1.16 3.985 1.387 6.103v.023c.004.023.008.05.01.072v.006l.008.088v.003c.002.008.004.018.004.027V103.536h.003c0 .02.004.043.004.064v.004c0 .002 0 .004.002.004 0 .035.005.07.01.105v.017c0 .01 0 .02.003.03l.006.052V103.84l.01.106v.028c.003.004.003.006.003.01v.002c0 .008 0 .014.002.02v.003c0 .012.002.02.004.03V104.1h.003c0 .03.004.057.006.08v.046l.003.012v.015l.002.01c0 .01 0 .02.002.03v.02c.002.003.002.005.002.007v.054l.003.02v.014l.004.045v.006l.002.023v.034l.005.045v.002c0 .01 0 .02.002.03v.042h.002v.066s0 .006.003.01v.016l.002.022v.016l.002.02v.017c0 .008 0 .016.002.025v.038l.003.02v.024l.002.018v.004c0 .012 0 .025.002.04s0 0 0 .003v.017-.034c-.002-.003-.002-.007-.002-.01v-.03s0-.005-.002-.007v-.04s-.002 0-.002-.003c0-.025-.003-.05-.003-.078v-.012c0-.002 0-.006-.002-.008v-.032c0-.002 0-.006-.002-.01v-.016l-.002-.016v-.064l-.003-.04v-.01l-.002-.01v-.017l-.002-.025v-.016s0-.003-.002-.003v-.035c0-.01 0-.02-.003-.03v-.005c0-.004 0-.006-.002-.01v-.016l-.002-.012v-.027l-.002-.006v-.061h-.003v-.02l-.002-.028-.002-.012v-.022l-.002-.004v-.052c-.003-.004-.003-.006-.003-.01v-.012c-.002-.01-.002-.02-.004-.026v-.024c-.002-.002-.002-.006-.002-.01V104.03l-.003-.01c0-.005 0-.007-.002-.01v-.005c0-.008 0-.014-.002-.02v-.005l-.002-.008v-.03c0-.008 0-.016-.003-.023v-.018l-.002-.008v-.015l-.002-.01v-.006l-.002-.01v-.055c0-.003 0-.007-.003-.01v-.017c0-.004 0-.006-.002-.008v-.004c0-.002 0-.004-.002-.006v-.017l-.002-.008v-.016s0-.004 0-.004v-.01l-.003-.005v-.02c-.002 0-.002-.003-.002-.005v-.012l-.002-.01v-.01s0-.005-.002-.007v-.035c-.003 0-.003-.003-.003-.007v-.028l-.002-.007v-.006l-.002-.006v-.017l-.002-.004v-.04c-.003 0-.003-.003-.003-.005l-.002-.004v-.01c0-.005 0-.01-.002-.013v-.01s0-.005-.002-.007v-.038l-.003-.014v-.016c0-.004 0-.006-.002-.008v-.016c-.002 0-.002-.005-.002-.007-.002-.01-.002-.02-.006-.03v-.033c-.002-.014-.004-.027-.004-.04-.004-.005-.004-.01-.004-.01v-.015l-.007-.05c-.01-.087-.018-.173-.03-.257l4.6-.557c.15 1.257.23 2.544.23 3.82 0 .93-.044 1.868-.124 2.79l-4.614-.406c.002-.04.006-.08.01-.12v-.012c.002-.003.002-.005.002-.007v-.015c0-.003 0-.005.002-.007v-.032c.003-.003.003-.005.003-.01v-.02h.002c.008-.114.01-.23.016-.345-.14 2.133-.523 4.2-1.135 6.166v.01-.01h.002l.002-.01.003-.01.004-.01s0-.004.002-.004v-.011c.003-.004.003-.006.003-.01l4.428 1.36c-.647 2.114-1.53 4.163-2.606 6.095l-4.043-2.262.08-.15c-.99 1.797-2.177 3.465-3.534 4.98.064-.072.133-.143.195-.213l3.485 3.05c-1.455 1.663-3.09 3.175-4.857 4.495l-2.773-3.707c.008-.008.016-.014.023-.018.002-.002.006-.004.006-.006.03-.02.057-.045.084-.066-1.695 1.28-3.547 2.367-5.523 3.225.186-.083.373-.16.557-.245l1.94 4.205c-2.01.927-4.122 1.642-6.28 2.126l-1.012-4.52c.13-.03.254-.066.383-.098h.005-.004c-1.942.467-3.966.727-6.05.746h-.534c-.004 0-.008 0-.014-.002h-.133c0-.002-.003-.002-.007-.002h-.112l-.06-.002c-.013 0-.026 0-.038-.002h-.048l-.038-.002h-.052l-.012-.002h-.036l-.024-.002h-.04c-.006 0-.014 0-.02-.002h-.038c-.007 0-.01 0-.017-.002h-.036c-.014 0-.027 0-.04-.002h-.037l-.307-.016v.002c.1.004.202.008.304.014h.042s0 .002.002.002h.076c.002 0 .002.002.002.002h.05l.002.002h.06l.006.002h.056l.002.002h.076c.004 0 .006 0 .01.002h.062c.005.002.01.002.017.002h.023l.06.002h.085c.01 0 .02 0 .03.002h.14v.002h.598l.05 4.63c-.116 0-.23.003-.347.003-2.098 0-4.2-.21-6.244-.62l.915-4.54c.04.008.082.014.12.02-1.93-.376-3.786-.96-5.544-1.728l-.015-.008.016.006.034.015-1.848 4.248c-2.023-.88-3.963-1.98-5.762-3.263l2.69-3.77.448.314.008.005.01.008c.006.004.012.006.016.01.023.018.047.03.068.047l.008.006h.004s.002.003.004.003c.004 0 .006.003.008.005-.004-.005-.008-.007-.012-.01h-.004c-.03-.022-.06-.044-.092-.064-.002 0-.006-.005-.01-.007-1.727-1.18-3.31-2.557-4.713-4.098l-.005-.006.007.005c.01.01.02.02.03.033l-3.42 3.127c-1.49-1.63-2.815-3.42-3.933-5.322l3.99-2.348s.003.002.003.004h.002c0 .003.002.005.004.007v.002l.003.007.002.002.004.007v.002s0 .003.005.005l.006.01.03.05v.003c0 .002.004.006.006.008v.003c.005 0 .005.003.007.005.018.032.04.064.06.095.003.006.005.01.01.014-.005-.005-.007-.01-.01-.015-1.058-1.76-1.917-3.647-2.554-5.636.03.092.056.184.085.277l-4.396 1.46c-.698-2.096-1.173-4.273-1.413-6.475l4.604-.505c.02.178.05.352.073.527-.15-1.146-.234-2.313-.234-3.498 0-.905.044-1.8.13-2.68 0-.005 0-.007.002-.01 0-.005 0-.013.002-.02v-.017c0-.01 0-.018.003-.025-.002.002-.002.004-.002.006v.044c-.003.006-.003.014-.003.02-.002.002-.002.004-.002.008l-4.61-.455c.22-2.204.67-4.386 1.343-6.49l4.41 1.413c-.01.033-.02.068-.027.102.612-1.95 1.448-3.8 2.468-5.53 0-.003.002-.005.002-.005l-.002.003c-.053.088-.107.172-.158.26l-4.018-2.305c1.098-1.914 2.402-3.72 3.877-5.365l3.45 3.09c-.092.102-.176.207-.264.31 0 .003-.003.003-.005.005l.006-.004c1.43-1.648 3.06-3.12 4.85-4.377-.13.092-.27.178-.397.273l-2.734-3.738c1.786-1.307 3.712-2.426 5.73-3.326l1.89 4.227c-.134.06-.263.125-.394.188 1.847-.86 3.806-1.525 5.85-1.95-.026.005-.054.007-.083.013l-.963-4.53c2.174-.434 4.39-.665 6.606-.665m7.46 5.686h.003-.005c-.1-.027-.192-.063-.288-.09-.004-.002-.008-.002-.01-.004h-.002c-.004 0-.008-.003-.01-.003h-.002c-.002-.002-.006-.002-.01-.004h-.002l-.007-.002h-.01s-.002 0-.002-.002l-.01-.002c-.003-.002-.007-.002-.01-.002s0 0 0-.002h-.01c-.017-.005-.03-.01-.046-.013l-.01-.005h-.003l-.007-.002h-.005c-.002 0-.004 0-.006-.003h-.005l-.008-.002h-.005c-.002-.002-.004-.002-.006-.002 0 0-.003 0-.003-.002h-.014l-.003-.003h-.012c0-.003-.002-.003-.004-.003s-.003 0-.003-.002h-.016s-.002-.003-.004-.003h-.005c-.002-.002-.004-.002-.006-.002l-.008-.002H117c-.003-.002-.005-.002-.007-.002h-.006c-.002-.003-.006-.003-.006-.003l-.004-.002h-.01c-.002 0-.004 0-.006-.003h-.01l-.006-.003c-.002 0-.004 0-.006-.002h-.005l-.008-.002h-.002l-.008-.002h-.002c-.004 0-.006-.003-.008-.003h-.004c0-.002-.003-.002-.005-.002h-.004l-.007-.002h-.012c0-.004-.005-.004-.01-.004l-.007-.002-.002-.002-.01-.002h-.01c.247.062.482.134.72.203m-19.3 1.673l-.025.014c-.06.027-.12.055-.178.084-.005 0-.007.002-.01.004s-.007.004-.01.004c-.03.016-.06.03-.09.047-.005 0-.007 0-.01.002v.002l-.01.002v.002c-.003 0-.007 0-.01.003 0 .003-.005.005-.01.005v.002l-.062.03-.008.004-.008.007h-.003l-.008.004c-.005.003-.007.005-.01.005v.002l-.01.004-.01.005c-.02.01-.034.02-.052.03-.003 0-.007 0-.01.003s-.005.003-.01.005c0 .002-.005.004-.01.004 0 .003-.005.003-.007.005v.002s-.004.002-.008.002h-.002c0 .003-.003.003-.007.005l-.008.007-.045.022c-.002 0-.004.003-.008.003l-.004.002-.006.004s-.002 0-.002 0c-.002 0-.004 0-.006.003l-.004.002-.008.004-.008.003-.002.002-.008.004h-.002l-.006.003-.004.002c0 .002-.004.002-.006.004h-.006l-.004.003-.002.002-.023.012v.002h-.01v.003l-.01.004v.002h-.004l-.004.003-.007.004s0 .002-.002.002h-.005l-.004.003c0 .002 0 .004-.005.004l-.005.002h-.003l-.006.005s0 .002-.003.002l-.004.002c.004-.003.002-.003 0-.003 0 .002-.004.002-.004.002-.002.003-.008.005-.012.007h-.002l-.006.004-.004.003-.006.004-.004.002h-.006l-.004.003-.004.004-.004.002h-.006l-.006.003c0 .002-.002.002-.004.004-.002 0-.004 0-.004.002h-.006c-.002.003-.004.003-.006.003l-.002.004c-.004 0-.004.002-.006.002s-.002 0-.004.003l-.008.002c0 .002 0 .002-.002.002l-.008.004s0 .003-.002.003-.008.002-.008.004l-.004.002c-.002 0-.006 0-.006.003h-.004c-.002.002-.006.004-.006.006h-.002l-.008.003-.004.002-.006.004h-.002l-.006.003-.004.002.012-.006c.314-.173.633-.333.957-.49l.03-.017m-1.104.57c-.004 0-.006 0-.008.003h-.002l-.006.003c-.002 0-.004 0-.004.003-.002 0-.004 0-.006.002h-.004l-.004.005-.006.002v.002h-.008c-.002.003-.008.005-.01.007l-.01.007h-.002v.002h-.008l-.002.003c-.002 0-.004 0-.006.003l-.004.002-.006.004h-.004c-.002.003-.002.003-.006.005l-.004.002h-.01l-.004.006c-.002 0-.004 0-.006.002l-.004.002h-.006c0 .003-.002.003-.002.005h.002l-.004.002c-.002.002-.002.002-.006.002-.002 0-.004 0-.006.002l-.004.002-.004.004c-.006 0-.012.005-.02.01l-.008.003-.004.003-.006.004h-.004c-.002.003-.004.003-.004.005-.004 0-.004 0-.006.002 0 0 0 .002-.004.002h-.006l-.004.005-.004.003c-.002.002-.004.002-.004.004-.004 0-.004.003-.006.003l-.004.002-.006.004h-.004c-.002 0-.002.003-.004.003s-.006 0-.006.003l-.004.002h-.004c-.002.003-.004.003-.006.005l-.01.004h-.002c-.002 0-.004.003-.006.005h-.004l-.006.003h-.004c-.004.003-.004.005-.006.007h-.002l-.008.004c-.002 0-.002.003-.004.003l-.004.004-.004.003h-.006c0 .003-.004.003-.006.005l-.004.002-.004.002c-.002 0-.004 0-.006.003-.002 0-.002.002-.002.002l-.008.004h-.002c-.002 0-.004.004-.008.004 0 .002-.002.002-.002.002-.008.004-.012.008-.018.012-.002 0-.004 0-.004.002h-.006c0 .003-.002.003-.006.005l-.004.002-.004.002c-.002 0-.004 0-.006.002l-.002.002-.006.004h-.006l-.006.003-.002.005-.006.002h-.004c-.002.003-.004.003-.006.005-.002 0-.002.002-.002.002-.002.002-.004.002-.006.002h-.004c-.002.003-.004.005-.008.005l-.002.005h-.006c-.002 0-.004.003-.006.005l-.008.004h-.002c-.002 0-.004.003-.008.003 0 .002-.002.002-.004.004l-.004.003c-.002 0-.002 0-.004.003l-.006.002-.004.002-.004.002c-.004 0-.004 0-.006.003s-.002.002-.004.002l-.006.004h-.002c-.004 0-.006.004-.008.004l-.002.004-.008.002-.008.005c0 .002-.002.002-.002.002l-.008.004c-.002 0-.002.004-.004.004l-.004.002c-.002.002-.004.002-.004.004-.006 0-.006.003-.01.005l-.004.002-.006.002h-.002c-.002.002-.006.002-.006.004l-.006.002c0 .002-.002.002-.006.004 0 0 0 .003-.002.003l-.006.004-.004.002h-.006c0 .002-.002.002-.002.002l-.006.004-.004.002c-.002 0-.004 0-.006.003h-.004c0 .005-.002.005-.004.005l-.006.004-.004.002c-.002 0-.004.002-.006.004l-.002.002c-.002 0-.006 0-.006.003-.004 0-.008.003-.01.005l-.004.002c-.002 0-.002 0-.004.003-.004 0-.004 0-.006.002l-.002.002c-.002.002-.006.002-.006.004-.002 0-.004.003-.004.003l-.006.005-.004.002h-.004c-.002.003-.004.003-.006.005l-.004.002c-.002.002-.004.002-.004.004l-.006.003-.004.003-.006.004h-.004c-.002 0-.002.003-.004.003l-.006.004c0 .002-.002.002-.004.002l-.006.003h-.004l-.004.003-.01.006s-.004 0-.004.003l-.004.002h-.004c-.002.003-.004.003-.006.005l-.004.002-.004.002c-.004 0-.004 0-.006.003l-.004.002-.006.003h-.004s-.002.003-.006.003l-.002.004-.006.002h-.002l-.008.005c0 .002-.002.002-.004.004h-.004l-.004.004c-.002.002-.006.002-.006.004l-.004.002h-.004c-.002.003-.006.005-.006.005l-.006.004-.008.002-.004.002s-.004.002-.004.004h-.006s-.002.003-.004.003c0 .003-.004.003-.004.005l-.006.002s-.002 0-.004.003l-.004.002c0 .002-.004.002-.004.002-.002.002-.004.002-.004.004-.004 0-.004.003-.006.003l-.006.005-.002.002h-.006l-.004.005-.006.004h-.004s-.002.003-.006.003c0 0-.002 0-.004.003l-.004.002c-.002 0-.004 0-.006.003l-.002.002-.01.006-.006.003s-.002 0-.004.003l-.004.002h-.006l-.004.005-.004.002-.004.004-.006.003h-.004s-.004.005-.006.005h-.002c-.002.003-.004.003-.006.005-.002 0-.004 0-.004.002-.002.002-.004.002-.004.004-.004 0-.004 0-.006.003h-.004l-.006.003c0 .002-.002.004-.004.004s-.002.003-.002.003c-.008.004-.014.01-.02.014h-.003l-.007.006-.01.006c-.004 0-.006 0-.008.003h-.005l-.004.005h-.003c-.002.003-.002.003-.006.005l-.007.006c-.002 0-.002 0-.004.003h-.007l-.003.003c-.003.002-.003.004-.005.004l-.004.003c0 .002-.005.004-.005.004-.016.008-.027.018-.04.025h-.003c-.004.003-.006.003-.006.005-.002 0-.002.002-.006.002l-.004.002s-.002 0-.004.003l-.004.002c-.004.002-.004.002-.004.004h-.006l-.004.003c0 .002-.002.004-.006.004l-.002.002-.008.003-.002.002-.006.004h-.002c-.012.007-.02.015-.03.02-.003.002-.007.004-.01.004l-.003.002s-.004 0-.006.003h-.003c-.002 0-.004.003-.006.005-.003 0-.007.003-.01.005v.002c-.003 0-.005.002-.007.004h-.01c-.003.003-.005.005-.007.005 0 .003-.002.003-.002.003 0 .002-.004.004-.004.004l-.002.003-.008.004-.008.006-.043.027-.008.004v.003c-.004.002-.008.002-.008.004l-.003.002-.008.003-.003.002-.006.004-.01.005v.002l-.007.002h-.002l-.005.007c-.016.008-.03.018-.043.025v.002c-.003 0-.005.002-.01.004v.003c-.003 0-.005.003-.005.005h-.002l-.008.006h-.002c-.002.003-.006.005-.006.007h-.003c-.002 0-.004.003-.008.003l-.003.002-.008.004c-.02.015-.046.03-.07.044l-.01.006c0 .002-.004.004-.006.006h-.002c-.034.023-.073.047-.108.072-.045.03-.088.063-.133.092.555-.37 1.123-.723 1.707-1.053l.133-.074.01-.007.017-.01h.002c.012-.008.027-.018.04-.023v-.002l.028-.014.02-.012.02-.01.03-.02.102-.056h-.002l-.002.002-.008.004-.002.002-.008.002s0 .002-.002.002l-.006.004-.004.002-.006.002-.004.002c0 .002-.002.002-.004.004l-.012.006c-.002 0-.002 0-.002.002l-.004.002-.006.002c0 .002-.004.002-.004.002-.002.002-.006.002-.006.004l-.004.002c-.002.002-.004.002-.006.002 0 .002-.002.002-.002.002l-.008.004m13.018 42.237c10.28 0 18.61-8.333 18.61-18.61 0-10.28-8.33-18.613-18.61-18.613s-18.61 8.376-18.61 18.656c0 10.277 8.333 18.61 18.612 18.61m25.062-28.27c-.047-.124-.09-.25-.14-.374 0-.004-.003-.006-.005-.01v-.002c-.002-.002-.002-.006-.002-.01-.01-.02-.02-.04-.025-.06l-.002-.003-.002-.006-.002-.002c-.002 0-.002-.005-.002-.007l-.002-.004c-.002-.002-.002-.004-.002-.006l-.002-.004-.002-.01h-.002l-.004-.01h-.002l-.002-.01-.004-.01h-.002c0-.005 0-.007-.002-.01 0 0 0-.003-.002-.003l-.002-.008s-.002 0-.002-.004l-.008-.02v-.004c-.002 0-.002-.006-.004-.006l-.002-.004c0-.002 0-.004-.002-.006l-.002-.004-.004-.006c0-.002 0-.004-.002-.004v-.006s-.004-.004-.004-.006v-.003c-.002-.002-.002-.004-.002-.006-.002 0-.002 0-.002-.002-.002-.002-.002-.004-.002-.006l-.002-.003-.004-.007-.002-.003-.002-.006v-.003c-.004 0-.004-.003-.004-.005v-.003c-.002-.002-.004-.004-.004-.006l-.002-.003-.014-.03v-.003l-.002-.008-.002-.004-.004-.006v-.002l-.004-.008-.002-.004-.002-.006-.002-.004-.002-.006s0-.002-.002-.002l-.002-.008-.002-.002c0-.004 0-.006-.004-.01 0-.002 0-.006-.004-.008v-.002c-.008-.018-.014-.035-.02-.055h-.003c0-.005-.002-.007-.004-.01 0-.005-.004-.007-.006-.01l-.002-.01h-.002c0-.005 0-.007-.003-.01 0-.003-.004-.007-.004-.01l-.004-.01c-.02-.042-.04-.08-.06-.124.15.35.287.693.42 1.036m-51.69 5.158c.074-.44.16-.877.254-1.31-.023.11-.055.22-.078.33v.01l-.004.003v.01h-.002v.024c-.003.003-.003.005-.003.01v.004c-.002.002-.002.004-.002.006v.003c-.002.004-.002.006-.002.01v.002l-.002.008v.002l-.002.008v.012l-.002.002v.008l-.002.002v.008l-.002.002v.01l-.01.037v.022l-.005.004v.01l-.002.006-.002.006v.02l-.003.006v.006c-.002.002-.002.004-.002.006v.004l-.002.006c-.002.002-.002.004-.002.006V101c0 .004 0 .004-.003.008v.016l-.003.006-.002.004v.022c0 .006-.005.016-.007.02 0 .005 0 .01-.002.013v.01c-.003.002-.003.006-.003.01s0 .006-.002.01v.015l-.003.008v.022l-.003.002v.008l-.002.004-.002.006-.002.002v.01l-.003.01v.006l-.004.01c-.003.033-.01.066-.017.098 0 .005 0 .01-.002.013v.022c0 .004 0 .008-.004.012 0 .003 0 .007-.002.01v.01h-.002c-.015.088-.026.19-.042.29m-.227 1.624v.002l-.002.004v.025l-.002.002v.015l-.002.006v.003l-.002.02c-.002 0-.002 0-.002.004v.032-.028l.003-.006s0-.002.002-.002v-.018l.004-.027v-.023s0-.003.004-.005v-.002c.025-.238.063-.475.092-.71-.016.12-.04.24-.053.36l-.002.01v.024l-.003.01c-.002.004-.002.006-.002.01v.01l-.002.01v.004c-.004.027-.006.05-.008.078l-.002.01s0 .003-.002.003V103.16c-.003 0-.003.004-.003.006v.01l-.002.005v.008c-.002.002-.002.004-.002.006v.02c-.002.003-.002.005-.002.01v.025s0 .002-.003.004v.017l-.002.008v.012l-.002.01v.005-.002M137 105.07v.05c.002 0 .002.003.002.003v.05l.002.005v.028l.002.025v.05l.002.024v.053c.002.004.002.01.002.012v.055l.002.008.002.026v.093c.002.01.002.018.002.027v.015c.002.01.002.02.002.03v.295l.004.006v.414c0 .04-.002.078-.004.117-.004.227-.012.453-.02.678.004-.115.016-.23.018-.344v-.01l.002-.01v-.312c0-.002.004-.004.004-.006v-.54l-.004-.132v-.188s0-.006-.002-.008v-.042s0-.002-.002-.002v-.115l-.002-.004-.006-.196v-.018c0-.004 0-.006-.002-.008 0-.02 0-.037-.002-.057 0-.015 0-.032-.002-.05v-.023.004c-.002-.02-.002-.044-.002-.067v.068H137m-52.996 7.82c-.21-.814-.38-1.646-.512-2.49.006.04.01.078.014.115v.002c.002.004.002.006.002.01l.004.012c.006.042.012.087.02.13h.002v.012l.004.01v.014l.004.008v.014l.002.008v.002l.002.01v.002l.002.01c.002.003.002.007.002.01.002.01.004.015.004.022.002.014.004.03.008.045v.01l.004.01v.002l.002.01c0 .004 0 .006.002.01v.002l.002.008v.016c.004.002.004.004.004.008v.01l.002.004v.008l.002.002v.01s.002 0 .002.002l.002.007v.01s0 .005.002.005l.002.01v.003l.002.006v.004c0 .004 0 .006.002.008v.003c0 .004 0 .006.002.01v.014s.002 0 .002 0v.01h.002l.002.01.002.01v.004c0 .004.002.004.002.006v.01l.002.006c0 .004.002.004.002.006l.002.007v.005l.002.006v.004s0 .004.002.006v.008s0 .003.002.005v.006s0 .002.002.004v.008l.002.004.002.004v.017s0 .004.004.008v.012l.004.008v.004l.006.033v.004c.002.002.002.006.002.008v.002c.002.002.002.006.002.008v.002c.002.004.002.006.002.01v.002l.002.007v.002c0 .003 0 .005.002.007v.004c.002.003.002.005.002.01l.002.01c.004.003.004.007.004.01 0 .005 0 .007.002.01v.013l.004.008v.003c0 .004 0 .006.002.01l.014.082v.002l.004.008v.012c.004.002.004.006.004.008v.002l.002.01v.002l.002.007v.002l.002.01h.002v.01h.002v.01h.002c0 .005 0 .007.002.01 0 .005 0 .007.002.01 0 .005 0 .01.002.01v.01c.006.03.012.056.016.083l.004.002v.01l.002.01.002.01v.002l.004.008v.002c0 .002 0 .006.002.01l.002.01.002.01c0 .004 0 .008.002.012.076.366.162.733.254 1.097v.002c.002 0 .002.005.002.007v.002l.004.007v.002l.002.01h.002v.01c.002.003.004.005.004.01-.004-.02-.004-.016-.002-.012m.023.09v.01l.002.002v.01l.002.008v.002l.002.01v.002c.002.002.002.004.002.008l.002.002v.002s0 .004.003.006c0 .004 0 .008.003.012l.002.008v.004c.002.002.002.004.002.006v.01h.003v.012l.002.002c.002.004.002.006.002.01l.004.008v.004c.005.012.007.025.01.037.005.006.005.014.005.02l.002.002c.002.002.002.004.002.008v.01c.003 0 .003.002.003.002l.002.008v.002l.002.008v.004l.002.006s0 .004.003.004v.006s0 .004 0 .006v.002l.003.006s0 .003.002.005v.004s0 .003.003.005v.004l.002.005s0 .005.002.005v.013c.002.003.002.005.002.007v.004s0 .004.003.006c0 .002.002.002.002.006v.004s0 .004 0 .004l.007.024.002.004v.01l.003.006v.01l.003.006.002.004v.006l.002.004c0 .004.002.006.002.006v.006s0 .004.003.006l.002.004v.01c.002.002.002.006.002.008v.014l.006.006v.004c0 .002 0 .004.002.006v.004l.004.01v.002c.003.002.003.004.005.008v.002c0 .002 0 .006.002.01.007.03.017.057.022.084.002.004.002.008.004.01v.002c0 .004 0 .006.004.01 0 .004 0 .008.002.012.03.105.064.21.098.313l.008.03-.008-.028c-.072-.243-.146-.49-.215-.737l-.02-.068v-.004l-.008-.03h-.002l-.006-.027v-.002c-.003 0-.003-.005-.003-.007v-.002c-.002 0-.002-.003-.004-.005v-.002c0-.008-.003-.018-.005-.023 0-.004 0-.006-.002-.008v-.002l-.002-.006-.003-.025-.017-.063c.006.022.01.044.017.063m51.786 1.204l.004-.01c-.003.003-.004.007-.004.01m-.002.003v.008-.007m-.007.025c-.004.008-.004.018-.008.025v.002c0 .004-.003.006-.005.01v.01c-.003 0-.003.002-.003.002v.002l-.002.003v.002c-.002 0-.002.002-.002.004l-.002.01v.005l-.003.006c-.002 0-.002.005-.002.005v.004l-.007.024h-.002l-.005.02v.003c-.08.238-.163.473-.245.71l-.01.03.01-.03c.043-.122.09-.24.13-.362.003-.005.005-.013.01-.02v-.01l.003-.01.027-.077v-.002s0-.003.004-.007v-.016l.003-.002v-.007l.002-.002V114.544l.005-.007v-.002c.003 0 .003-.005.005-.007v-.002c0-.003 0-.005.002-.007v-.003l.002-.007v-.002l.015-.038.003-.018v-.002c0-.002 0-.006.003-.008l.002-.002c0-.002 0-.006.002-.008v-.004c.002-.002.002-.004.002-.006v-.004l.003-.006v-.004s.004-.004.004-.006v-.016l.004-.006v-.002l.002-.008v-.002c.002-.004.006-.008.006-.012v-.002c0-.002 0-.002.003-.004l.002-.004v-.006c.002-.002.002-.004.002-.006v-.01l.004-.006.002-.004.002-.008c0-.004.004-.01.004-.016 0-.002.003-.004.003-.004 0-.002 0-.004.002-.004v-.006c.002-.002.002-.004.002-.006s0-.002 0-.002v-.008l.004-.004.01-.035m-47.348 8.007h.002c0 .003.002.005.004.007 0 .002 0 .002.003.002 0 0 .004.003.004.005v.003l.004.006.002.003c.004.002.004.004.004.006.003 0 .003.003.003.003l.008.01.014.016.002.003s.002 0 .002.002h.002-.003c0-.003-.002-.003-.002-.003l-.014-.02v-.004c-.002 0-.002-.002-.002-.002s-.002 0-.004-.003c-.004-.006-.01-.012-.014-.02v-.002l-.013-.013h-.002c-.15-.206-.297-.42-.443-.628.098.14.19.284.295.423l.006.008.004.01.014.015.05.066.005.01.008.007v.002l.004.007c.002.002.006.004.006.008h.002l.006.008.028.04h.002c0 .003 0 .005.003.007 0 .002.002.002.002.002l.006.008c.004.002.006.006.006.008m.123.163v.005l.005.002.004.005v.004s.003.003.005.003l.002.003.002.004.005.007c0 .002.002.002.002.002 0 .003.004.005.004.007l.005.002.004.005v.002l.005.006.002.004c.002.002.002.004.006.006v.002c0 .002.004.004.006.006v.007c.003.002.005.002.007.006h.002c0 .003 0 .005.003.007 0 .003 0 .003.002.003 0 .002.004.006.006.008v.003l.007.007h.002l.003.007c0 .002.002.002.002.002l.004.007.003.002.004.007h.002l.003.008.002.002.006.008.028.035.006.008h.002l.006.01h.003l.004.008s0 .003 0 .003l.004.006h.002l.006.01.01.007c.017.025.034.05.052.072.004 0 .006.005.008.007.088.11.18.22.268.33l.037.045-.037-.045c-.178-.222-.352-.438-.52-.66l-.064-.085c0 .002 0 .004.004.004l.002.007.004.002s.004.003.004.005v.004c.004 0 .004.003.006.003l.002.006h.004l.004.007.002.004.004.005.004.003.002.003.002.004c.002.002.006.004.006.006.002.002.004.004.004.006.002 0 .002.003.004.005l.002.004s.002 0 .004.004m40.693 2.693c.04-.037.08-.07.114-.107v-.003l.008-.006h.002l.004-.006.003-.002c.002 0 .006-.003.008-.005v-.002c.017-.014.03-.03.046-.047.002 0 .002 0 .002-.002l.008-.006c0-.002.004-.006.006-.008v-.002s.003-.004.007-.006v-.002s.004-.002.004-.006h.002c.002-.004.006-.006.008-.008v-.002c.004-.002.004-.004.006-.006 0 0 0-.002.003-.002 0-.002.002-.002.004-.006l.002-.002c.002-.004.01-.01.012-.016h.002l.006-.008c.003 0 .005 0 .005-.002s.002-.002.004-.004l.002-.004c0-.002.002-.002.004-.004l.002-.004c0-.002.003-.002.005-.004l.002-.004c.002 0 .004-.004.006-.004l.003-.004c.002 0 .002-.004.004-.004 0-.002 0-.002.003-.004l.004-.004c.002 0 .002-.002.002-.004 0 0 .003-.004.005-.004l.003-.004c.002 0 .004-.004.006-.004 0-.002 0-.002.003-.004l.006-.006.003-.006.002-.002c0-.002.003-.004.005-.006l.004-.002c0-.002 0-.004.003-.006l.002-.002.003-.006c.003-.004.007-.006.007-.008h.004l.003-.006s.004-.002.004-.004.003-.002.005-.006h.003l.006-.006v-.002c.075-.078.146-.16.218-.238-.2.218-.4.427-.607.634m-1.883 1.742l-.01.008.01-.008c.035-.03.076-.06.113-.092l.008-.006c.002-.004.006-.004.008-.006v-.002c.005 0 .005-.004.01-.006l.007-.006.06-.053h.003c0-.003.002-.005.006-.007h.003c0-.003.003-.003.005-.007l.007-.006v-.002l.008-.006.053-.046h.002l.006-.006s0-.002.003-.002c.004-.002.004-.004.006-.006v-.002l.007-.004.004-.002c0-.002.003-.002.005-.004 0-.002.004-.002.004-.004v-.004s.003 0 .003-.002c.004-.002.006-.002.01-.006.008-.008.02-.016.027-.025l.006-.007h.007c0-.003.002-.003.004-.005l.003-.002c.002-.002.002-.004.004-.004l.004-.005c.003 0 .005-.002.005-.004h.004c0-.003.003-.005.003-.005l.004-.004.006-.003h.002l.006-.007.003-.003c.003 0 .003-.002.007-.004v-.002c.007-.003.013-.01.02-.015 0-.003 0-.003.003-.003.002-.002.004-.004.004-.006h.004c0-.003.005-.005.005-.005.002 0 .002 0 .002-.003.002 0 .006-.002.006-.004l.005-.002.006-.003.003-.004c0-.003 0-.005.004-.005 0-.003 0-.003.003-.003l.004-.004.004-.004.007-.005v-.005h.006l.005-.007c.002 0 .004 0 .004-.002l.006-.003.002-.004.007-.007c.002 0 .002-.002.004-.004.002 0 .004-.003.006-.005v-.003l.008-.006h.002c.002 0 .004-.003.006-.005h.002c0-.003.002-.005.006-.007 0 0 .003 0 .003-.002.002 0 .004-.003.006-.005.002-.005.004-.005.006-.007l.002-.002.005-.005h.004c0-.003 0-.003.005-.005 0 0 0-.003.002-.003 0-.002.004-.006.006-.008l.018-.017.01-.006.007-.007h.002c0-.005.003-.005.005-.01h.002c.002-.003.006-.003.006-.005.002 0 .002-.002.002-.002.002-.002.002-.004.006-.006.003 0 .003-.002.005-.002.002-.002.004-.004.006-.004.004-.005.006-.005.006-.01h.002c.01-.01.022-.02.034-.028l.006-.008h.004c0-.002.004-.006.004-.006l.002-.002.008-.006v-.002l.008-.006v-.002l.008-.006h.002c0-.002.004-.004.006-.008h.002l.064-.06c.025-.022.05-.048.074-.07-.308.28-.61.545-.915.802M95.03 128.51c0-.002-.003-.004-.005-.004l.006.004m.014.008l.06.04.02.015h.003v.002h.002l.005.004h.002c.002 0 .004.002.006.004l.004.002h.002l.003.004h.002c0 .003.002.003.004.005l.044.03h.002l.006.005v.002c.003 0 .007.002.01.004l.01.006v.002c.003 0 .003.002.005.002l.004.002.004.002.002.002v.002c.004.002.008.002.01.006h.004c0 .002 0 .002.003.004l.002.002.004.002v.002s.004 0 .004.002c.002 0 .006.002.006.004.003 0 .003.002.005.002.002.004.008.006.012.008h.002l.002.004.004.002c0 .002.002.002.006.004 0 .002.002.004.004.004h.002c0 .002.003.004.003.004h.003c.002.004.004.004.008.006 0 0 0 .002.003.002l.004.002.003.002.004.002s0 .002.002.002v.002c.003.002.005.004.01.004v.002h.003v.004h.003c0 .002.002.002.002.002 0 .002.005.004.007.004l.002.002c0 .002.005.002.005.004.007.006.017.01.022.016.002 0 .002.002.002.002h.004c0 .002 0 .002.004.004 0 0 0 .002.002.002h.002l.004.004.004.002.004.002.004.002.002.002c0 .002.002.002.004.002 0 .002 0 .002.002.002v.002l.004.002c.004 0 .004.002.006.002l.002.002c.002 0 .004.002.006.004h.002c.002.002.002.004.004.004l.002.002h.002l.004.002.004.002c0 .002 0 .002.002.002 0 .002.002.002.002.002l.004.002c0 .002.002.002.004.002 0 .002.002.002.004.004l.006.004.004.002.006.004.002.002.004.002c.002 0 .004.002.006.004v.002c.004 0 .006.002.008.004l.004.002.006.004.002.002.006.002.002.002s0 .002.002.002l.006.002c.002.002.004.002.004.004l.004.004h.004v.002l.008.002.002.004.006.002c0 .002.002.002.002.002l.008.006h.004l.002.004.004.002h.002l.016.012.006.004.004.002c.004 0 .004.002.004.002l.006.004.004.002c.002.002.004.002.004.004l.004.002c.002 0 .006.004.006.004l.002.002.008.004.004.002.004.004c.002 0 .004 0 .004.002l.008.004s0 .002.002.002h.002c0 .002.002.002.004.004l.004.002s.004.004.008.004c.01.008.018.012.027.02h.002l.007.006h.002c0 .002.003.004.007.004l.002.004.005.004h.005c0 .002.004.004.004.004l.005.002c0 .002 0 .004.003.004v.002l.007.004c.004 0 .004.002.004.002.005.002.007.002.007.004l.003.002.01.006.036.023c.003.002.007.002.01.006 0 .002.007.004.01.004v.002c.003 0 .005.002.01.004 0 .002.003.004.01.004l.007.005h.002v.002l.007.006.012.007.044.028.007.002.005.002c.003 0 .007.003.01.005l.02.012v.002l.075.044.014.008.015.01-.017-.01-.015-.008c-.035-.02-.07-.043-.104-.064 0 0 0-.002-.003-.002l-.07-.044-.01-.006c-.03-.02-.062-.037-.093-.057l-.025-.017c-.025-.016-.05-.03-.074-.047h-.002c-.03-.02-.06-.04-.09-.057 0 0-.002 0-.002-.004-.01-.004-.016-.008-.02-.014-.005 0-.007-.002-.01-.004-.007-.005-.013-.01-.02-.013v-.002l-.038-.023-.006-.004-.004-.002-.014-.01h-.018s0-.002-.002-.002l-.002-.002c-.002 0-.002 0-.002-.002h-.002l-.002-.002-.004-.002h-.002l-.002-.002c-.002-.002-.004-.004-.006-.004 0-.002-.002-.002-.002-.002l-.004-.002-.012-.006v-.002c-.002 0-.002-.002-.006-.004l-.002-.002c-.006-.002-.01-.006-.016-.01h-.002l-.002-.002c-.004-.002-.004-.002-.004-.004h-.004c-.014-.012-.03-.02-.045-.03v-.003l-.013-.005s0-.002-.002-.002v-.002H95.326c-.007-.008-.01-.01-.02-.016l-.005-.004s-.003 0-.005-.003c-.01-.004-.017-.01-.022-.014-.002 0-.002-.002-.002-.002l-.01-.004s0-.002-.003-.002l-.006-.004s0-.003-.003-.005h-.004v-.002c-.002-.002-.006-.002-.006-.004h-.004c0-.004 0-.006-.002-.006l-.003-.002-.008-.004v-.003h-.003v-.002c-.002 0-.006-.002-.006-.004-.005 0-.01-.004-.01-.006s-.005-.004-.007-.004h-.002l-.04-.028h.005l-.004-.002c0-.002-.003-.004-.005-.004 0-.002-.002-.002-.004-.004l-.005-.002c0-.002-.004-.004-.004-.004l-.003-.002v-.002c-.002 0-.004 0-.006-.002v-.002h-.003c0-.002-.002-.002-.004-.004l-.004-.002c0-.002-.005-.002-.007-.004l-.002-.002-.003-.002-.002-.002-.002-.002c-.016-.01-.033-.02-.05-.033 0-.006-.003-.01-.005-.01l-.01-.005.01.006m2.666 1.576c.16.086.323.174.487.254h.003c0 .004.005.006.01.006l.007.006h.002c.007.002.01.006.02.008v.002c.02.01.038.02.058.027v.002c.004 0 .008 0 .012.002l.008.004c0 .002.002.002.002.002.004 0 .006 0 .008.003h.004c.002.003.004.005.006.005s.002.002.002.002h.002c.002 0 .006 0 .008.003l.057.027c0 .002 0 .002.003.002l.007.003c.002 0 .004 0 .006.002s.006.002.01.004h.002l.004.003c.003 0 .005.002.01.004v.002c.003 0 .005 0 .007.003l.01.004v.002s.006 0 .008 0h.002c.01.007.02.013.032.017v.002h.004c.002 0 .004 0 .004.003h.004l.002.002h.002l.008.004h.004l.006.005.004.002h.004s0 .002.002.002h.006l.004.003.002.002h.002l.008.004h.004c0 .003.004.003.004.003h.004c.002.004.004.004.006.006.016.005.03.013.047.02l.008.003v.002c.006 0 .008.002.01.004h.006s.004 0 .006.003c.005.002.007.004.01.004v.002c.147.067.29.132.437.196l.075.032c-.025-.012-.05-.023-.076-.033-.15-.07-.304-.138-.45-.208h-.006c-.023-.012-.047-.02-.07-.035-.004 0-.006 0-.008-.002l-.002-.002h-.002l-.008-.004h-.002c0-.003 0-.003-.002-.003h-.004c-.002 0-.002 0-.002-.003-.004 0-.004 0-.006-.002h-.004l-.014-.007-.004-.002h-.006l-.002-.003-.008-.004h-.002l-.002-.003c-.002 0-.004 0-.006-.003h-.006c-.002-.002-.004-.004-.008-.004l-.002-.002c-.002 0-.006 0-.008-.003l-.004-.002h-.002c-.002 0-.002-.002-.002-.002h-.01l-.004-.004h-.004c-.002-.002-.002-.004-.004-.004h-.004v-.002h-.004c-.002-.003-.004-.003-.006-.003l-.004-.002h-.002v-.002l-.002-.002h-.008c0-.002-.002-.002-.002-.002h-.004c-.002-.002-.004-.002-.004-.004h-.002l-.004-.002h-.004l-.002-.003-.04-.02v-.002l-.01-.004-.01-.004c-.01-.007-.02-.01-.03-.017l-.012-.006c-.2-.098-.398-.202-.59-.303-.032-.016-.064-.03-.093-.047l.09.047m22.79.927c-.173.076-.347.148-.522.217-.16.064-.322.127-.484.186-.018.008-.037.016-.055.02h-.003c0 .003 0 .003-.002.003l-.006.002c-.003 0-.007.002-.007.004h-.004c-.003 0-.005.003-.005.003-.004 0-.004 0-.006.002l-.01.002h-.01v.004l-.01.002-.007.004h-.004c-.005 0-.01.003-.015.005l.014-.006h.003c.004-.004.01-.006.016-.008 0-.002.005-.004.01-.004v-.003l.01-.002s0-.002.005-.002h.007c.002 0 .004 0 .006-.004l.005-.002s.002 0 .002-.002l.057-.02c.164-.06.324-.122.484-.187.175-.068.35-.14.523-.215m-1.15.457l-.036.014h-.002c0 .004-.003.004-.005.004h-.002v.002c-.004 0-.008 0-.008.002s-.004.002-.004.002c0 .003-.004.003-.006.005h-.002l-.006.002h-.003l-.004.002h-.007v.002h-.002l-.003.002h-.003c0 .002-.002.002-.002.002l-.005.002h-.006s-.003 0-.003.003c-.005 0-.01.003-.015.005-.003.002-.005.002-.007.002h-.002l-.022.01c-.006 0-.012.005-.02.007-.256.09-.514.172-.77.256l-.005.002.003-.002c.088-.027.178-.05.266-.08.003-.002.005-.004.01-.004l.01-.005c.003 0 .007 0 .01-.003h.013l.082-.03v-.002l.01-.002.01-.002h.003l.006-.003.003-.002.008-.002h.005c0-.002.004-.004.006-.004h.005c0-.003.005-.005.01-.005.003-.002.007-.002.01-.002v-.002h.01v-.003l.01-.002.003-.002.03-.01.01-.004.01-.005h.005c.002-.002.004-.002.006-.002 0-.002.002-.002.002-.002h.008c0-.003.002-.003.004-.003.004 0 .004-.002.006-.002l.004-.002.008-.002h.004l.004-.003h.006c0-.002.002-.002.004-.004H119c.002-.002.004-.002.004-.004h.006s.004 0 .006-.003.002-.002.006-.002c0-.002.002-.002.004-.002l.004-.002h.01l.02-.01h.003l.008-.003s.005 0 .007-.002c.003 0 .003-.002.005-.002h.006c0-.002.003-.004.005-.004h.006c.002-.003.004-.003.004-.005h.006l.005-.002c.002-.002.004-.002.008-.002h.002c.002-.003.004-.003.008-.003 0-.002.002-.002.004-.002l.006-.002h.004c0-.002.004-.002.006-.004h.002l.008-.003c0-.002.004-.002.004-.002.002-.002.004-.002.006-.002l.004-.002h.008s0-.003.002-.003l.008-.002.002-.002.025-.008v-.002c.002 0 .006 0 .006-.002h.006s.004 0 .006-.003h.006c0-.002.002-.002.002-.002.002 0 .002-.002.002-.002h.004l.006-.002s.002 0 .002 0h.004l.004-.003h.002l.014-.006h.006l.03-.01v-.003c.003 0 .005 0 .007-.002.005-.004.015-.008.027-.01m-10.686 1.594h.03-.03c-.402-.02-.805-.054-1.205-.093.396.04.795.073 1.197.092m3.408-60.436h-1.98c-2.352 0-4.705.246-6.992.73l-1.938.412.412 1.937.566 2.664c-.678.194-1.348.413-2.012.657l-1.113-2.486-.81-1.806-1.806.81c-2.14.954-4.186 2.144-6.088 3.534l-1.6 1.168 1.17 1.598 1.607 2.2c-.537.454-1.06.927-1.563 1.42l-2.033-1.82-1.472-1.32-1.32 1.472c-1.567 1.748-2.954 3.666-4.122 5.703l-.986 1.716 1.72.984 2.362 1.355c-.31.637-.596 1.283-.855 1.936l-2.595-.83-1.887-.603-.604 1.887c-.714 2.24-1.192 4.563-1.423 6.896l-.193 1.97 1.97.194 2.704.27c-.007.297-.013.598-.013.896 0 .398.01.803.027 1.21l-2.705.298-1.966.217.214 1.967c.256 2.338.762 4.654 1.502 6.883l.622 1.88 1.88-.624 2.585-.86c.268.655.56 1.298.875 1.93l-2.348 1.38-1.705 1.004 1 1.703c1.19 2.02 2.593 3.922 4.183 5.656l1.336 1.46 1.458-1.337 2.008-1.836c.51.487 1.04.954 1.58 1.4l-1.58 2.216-1.15 1.61 1.61 1.15c1.91 1.364 3.97 2.532 6.124 3.468l1.816.79.787-1.815 1.088-2.5c.665.24 1.34.447 2.02.635l-.536 2.668-.39 1.94 1.94.39c2.17.438 4.4.658 6.632.658h.37l1.976-.026-.02-1.977-.028-2.72c.7-.056 1.4-.138 2.096-.245l.597 2.66.434 1.932 1.933-.432c2.293-.516 4.54-1.273 6.674-2.258l1.797-.828-.827-1.8-1.14-2.474c.618-.338 1.226-.7 1.817-1.08l1.63 2.18 1.187 1.586 1.586-1.187c1.88-1.405 3.613-3.013 5.158-4.774l1.306-1.488-1.49-1.305-2.048-1.795c.426-.56.832-1.137 1.22-1.727l2.376 1.33 1.73.968.964-1.73c1.152-2.058 2.084-4.235 2.773-6.476l.58-1.893-1.89-.58-2.604-.8c.16-.687.293-1.38.402-2.08l2.715.24 1.973.173.172-1.973c.088-.98.13-1.978.13-2.962 0-1.357-.08-2.723-.243-4.06l-.24-1.964-1.964.238-2.702.326c-.133-.693-.29-1.38-.473-2.063l2.576-.887 1.87-.645-.644-1.87c-.76-2.22-1.765-4.366-2.98-6.382l-1.022-1.693-1.695 1.023-2.333 1.405c-.4-.578-.83-1.14-1.27-1.686l1.986-1.86 1.443-1.355-1.35-1.445c-1.605-1.712-3.392-3.26-5.315-4.604l-1.622-1.13-1.133 1.622-1.562 2.234c-.605-.365-1.22-.707-1.85-1.023l1.06-2.51.77-1.826-1.825-.77c-2.168-.912-4.438-1.598-6.746-2.035l-1.945-.37-.37 1.945-.507 2.676c-.49-.06-.98-.104-1.473-.14v-4.694h-.002zm12.826 13.078l.053-.072 2.277 1.6v.793l-2.332-2.32zm-14.728 37.096c-9.172 0-16.635-7.46-16.635-16.63 0-9.172 7.463-16.633 16.635-16.633 9.17 0 16.633 7.46 16.633 16.633 0 9.17-7.46 16.63-16.63 16.63z"/></svg>