<svg xmlns="http://www.w3.org/2000/svg" width="239" height="239" viewBox="0 0 239 239"><path fill="#D1D2D3" d="M114.46 238.243l-.183.004c-1.767 0-3.343-1.434-3.512-3.196l-1.99-21.017-.4-.047c-4.695-.545-9.552-1.51-14.437-2.868l-.39-.108-9.825 18.71c-.594 1.14-1.833 1.876-3.157 1.876-.508 0-.994-.106-1.446-.315l-9.34-3.832c-1.768-.636-2.75-2.583-2.212-4.35l6.122-20.177-.353-.195c-4.328-2.403-8.626-5.285-12.775-8.566l-.317-.252-16.28 13.476c-.615.508-1.408.787-2.233.787-1.008 0-1.96-.41-2.613-1.13l-7.14-7.14c-1.39-1.262-1.544-3.436-.364-4.864l13.47-16.278-.25-.317c-2.998-3.79-5.724-7.834-8.104-12.018l-.2-.35-20.14 6.325c-.33.104-.672.156-1.02.156-1.472 0-2.843-.947-3.333-2.303l-3.927-9.307c-.808-1.692-.13-3.766 1.502-4.642l18.596-9.99-.11-.387c-1.46-5.054-2.5-10.2-3.095-15.298l-.047-.402-21.016-1.99c-1.844-.177-3.274-1.823-3.187-3.67v-10.1c-.087-1.873 1.342-3.52 3.186-3.695l21.017-1.992.047-.402c.547-4.698 1.514-9.555 2.872-14.434l.108-.39-18.712-9.825c-1.636-.855-2.333-2.923-1.554-4.61l3.836-9.338c.495-1.395 1.87-2.352 3.354-2.352.338 0 .672.05.994.147l20.17 6.126.195-.353c2.404-4.334 5.287-8.637 8.567-12.788l.25-.317-13.467-16.276c-1.18-1.428-1.026-3.6.345-4.843l7.142-7.153c.667-.732 1.62-1.143 2.626-1.143.826 0 1.62.28 2.236.788l16.287 13.47.317-.25c3.806-3.007 7.847-5.732 12.01-8.1l.35-.198-6.33-20.14c-.555-1.77.41-3.73 2.147-4.37l9.31-3.913c.483-.228.982-.34 1.503-.34 1.31 0 2.54.722 3.14 1.84l9.987 18.6.388-.11c5.053-1.46 10.2-2.5 15.3-3.092l.402-.047 1.99-21.018c.17-1.76 1.746-3.19 3.515-3.19l.157.003h10.1l.18-.004c1.77 0 3.346 1.433 3.514 3.192l1.99 21.02.402.046c4.707.548 9.563 1.513 14.432 2.868l.39.108L155.27 9.27c.597-1.135 1.834-1.87 3.15-1.87.51 0 1 .108 1.452.32l9.35 3.827c1.764.635 2.744 2.586 2.206 4.356l-6.127 20.17.354.195c4.323 2.397 8.622 5.28 12.777 8.563l.317.252 16.285-13.472c.616-.507 1.41-.787 2.236-.787 1.01 0 1.962.41 2.615 1.126l7.137 7.15c1.394 1.255 1.55 3.428.366 4.862l-13.47 16.288.25.317c3.02 3.816 5.74 7.855 8.095 12.005l.2.352 20.144-6.326c.328-.103.67-.154 1.017-.154 1.476 0 2.854.947 3.35 2.303l3.917 9.308c.805 1.694.125 3.767-1.504 4.642l-18.597 9.985.11.388c1.455 5.036 2.495 10.185 3.093 15.304l.048.4 21.018 1.993c1.846.176 3.276 1.822 3.188 3.67v10.1c.088 1.87-1.343 3.52-3.19 3.696l-21.016 1.99-.047.4c-.547 4.71-1.513 9.565-2.868 14.432l-.108.39 18.714 9.826c1.638.855 2.332 2.922 1.55 4.608l-3.832 9.34c-.497 1.396-1.876 2.357-3.36 2.357-.337 0-.67-.05-.99-.146l-20.165-6.134-.195.353c-2.41 4.333-5.293 8.634-8.567 12.78l-.25.318 13.47 16.285c1.184 1.434 1.028 3.607-.347 4.846l-7.14 7.14c-.67.736-1.624 1.148-2.633 1.148-.824 0-1.618-.28-2.233-.788l-16.28-13.475-.317.252c-3.802 3.01-7.847 5.736-12.02 8.104l-.354.2 6.34 20.144c.55 1.764-.415 3.72-2.15 4.357l-9.306 3.925c-.48.23-.98.34-1.5.34-1.308 0-2.542-.723-3.144-1.84l-9.99-18.603-.39.112c-5.04 1.455-10.186 2.494-15.298 3.09l-.402.047-1.99 21.02c-.168 1.762-1.742 3.195-3.51 3.195l-10.265-.002zm5.04-183.22c-35.554 0-64.478 28.925-64.478 64.478 0 35.55 28.924 64.473 64.477 64.473s64.476-28.922 64.476-64.472c0-35.552-28.924-64.476-64.477-64.476z"/><path fill="#B4B4B4" d="M114.28 1.252l.18.004h10.124l.133-.004c1.52 0 2.873 1.23 3.018 2.738l1.952 20.617.076.806.804.093c4.68.545 9.51 1.505 14.354 2.854l.78.217.375-.715 9.637-18.356c.512-.973 1.575-1.602 2.71-1.602.436 0 .852.092 1.283.292l9.368 3.832c1.496.54 2.338 2.213 1.876 3.733l-6.01 19.783-.235.773.706.392c4.3 2.384 8.578 5.25 12.712 8.52l.635.5.623-.516L195.35 32c.528-.435 1.21-.674 1.92-.674.868 0 1.686.35 2.275.996l7.12 7.136.02.02.02.017c1.16 1.04 1.295 2.943.298 4.15L193.79 59.623l-.516.623.502.634c3.002 3.795 5.71 7.813 8.05 11.94l.4.703.77-.242 19.76-6.203c.278-.087.57-.132.866-.132 1.27 0 2.455.812 2.898 2.018l3.926 9.327c.682 1.437.1 3.216-1.3 3.967l-18.24 9.794-.71.383.223.776c1.445 5.008 2.48 10.13 3.075 15.223l.094.803.804.076 20.614 1.954c1.584.15 2.812 1.563 2.735 3.196v10.125c.075 1.558-1.178 3-2.734 3.15l-20.615 1.95-.806.077-.095.804c-.545 4.684-1.505 9.513-2.854 14.354l-.217.778.716.376 18.357 9.64c1.38.72 1.986 2.53 1.31 3.994l-3.842 9.363c-.42 1.18-1.604 2.004-2.882 2.004-.287 0-.57-.042-.843-.125l-19.78-6.016-.77-.234-.394.705c-2.397 4.31-5.265 8.59-8.522 12.716l-.5.634.515.623L207 195.354c1.016 1.23.883 3.095-.295 4.155l-.02.017-.02.02-7.153 7.155c-.56.616-1.378.97-2.246.97-.71 0-1.39-.24-1.914-.674l-15.97-13.217-.623-.515-.636.502c-3.78 2.995-7.805 5.707-11.958 8.06l-.703.4.242.77 6.218 19.756c.472 1.516-.356 3.194-1.89 3.76l-9.324 3.934c-.395.187-.82.28-1.265.28-1.127 0-2.188-.618-2.704-1.576l-9.8-18.245-.38-.71-.777.223c-5.013 1.447-10.133 2.48-15.22 3.074l-.802.094-.075.805-1.952 20.616c-.145 1.513-1.496 2.743-3.014 2.743l-.185-.005H114.41l-.135.004c-1.517 0-2.87-1.23-3.014-2.743l-1.95-20.615-.076-.807-.804-.093c-4.668-.542-9.5-1.502-14.36-2.854l-.777-.216-.375.715-9.64 18.356c-.507.975-1.572 1.604-2.712 1.604-.435 0-.85-.09-1.277-.287l-9.36-3.84c-1.476-.53-2.338-2.235-1.883-3.728l6.004-19.79.235-.77-.706-.393c-4.305-2.392-8.58-5.26-12.71-8.522l-.634-.502-.623.516L43.643 207c-.524.433-1.204.672-1.912.672-.867 0-1.685-.353-2.276-1.003l-7.158-7.156c-1.156-1.05-1.292-2.953-.296-4.157l13.213-15.967.516-.623-.502-.635c-2.982-3.77-5.694-7.794-8.062-11.956l-.4-.702-.77.242-19.756 6.206c-.28.088-.57.133-.867.133-1.266 0-2.444-.812-2.864-1.973l-.01-.024-.01-.024-3.935-9.324c-.673-1.41-.08-3.226 1.296-3.965l18.24-9.8.712-.38-.224-.777c-1.45-5.027-2.485-10.147-3.078-15.218l-.094-.803-.805-.076-20.61-1.95c-1.557-.15-2.81-1.593-2.735-3.198v-10.124c-.076-1.586 1.15-3 2.733-3.15l20.613-1.953.807-.076.093-.805c.544-4.673 1.506-9.503 2.857-14.358l.217-.778-.715-.376L9.5 83.284c-1.38-.72-1.988-2.533-1.314-3.995l3.846-9.366c.417-1.175 1.6-1.996 2.875-1.996.288 0 .574.042.848.125l19.783 6.01.774.234.392-.707c2.39-4.31 5.258-8.59 8.522-12.72l.5-.635-.515-.623-13.21-15.966c-.997-1.205-.86-3.107.294-4.154l.02-.017.017-.018 7.155-7.17c.556-.612 1.373-.962 2.24-.962.71 0 1.39.24 1.916.672L59.622 45.21l.623.516.634-.5c3.785-2.993 7.805-5.703 11.946-8.058l.702-.4-.242-.768-6.21-19.755c-.476-1.518.35-3.2 1.885-3.766l9.332-3.925c.395-.188.82-.283 1.268-.283 1.126 0 2.186.618 2.7 1.575l9.796 18.246.382.71.776-.223c5.026-1.45 10.146-2.485 15.22-3.075l.803-.093.076-.806 1.95-20.615c.146-1.51 1.5-2.738 3.018-2.738m5.22 183.22c35.827 0 64.976-29.145 64.976-64.97 0-35.83-29.148-64.978-64.977-64.978S54.52 83.672 54.52 119.5c0 35.826 29.15 64.973 64.977 64.973M124.716.253l-.18.003H114.46l-.18-.004c-2.028 0-3.816 1.608-4.012 3.644l-1.95 20.617c-5.273.613-10.402 1.67-15.382 3.107L83.14 9.374c-.714-1.33-2.133-2.102-3.58-2.102-.576 0-1.156.122-1.697.38l-9.29 3.905c-1.98.73-3.08 2.975-2.45 4.987l6.21 19.755c-4.237 2.408-8.27 5.136-12.073 8.14L44.283 31.228c-.734-.605-1.645-.902-2.554-.902-1.105 0-2.205.438-2.98 1.29l-7.124 7.136c-1.56 1.415-1.74 3.907-.395 5.533l13.214 15.964c-3.196 4.044-6.098 8.32-8.612 12.855l-19.783-6.01c-.377-.113-.76-.167-1.14-.167-1.66 0-3.242 1.04-3.817 2.662l-3.828 9.32c-.885 1.914-.09 4.284 1.775 5.26l18.355 9.64c-1.31 4.707-2.308 9.54-2.887 14.51L3.895 110.27c-2.098.2-3.738 2.08-3.64 4.192v10.077c-.1 2.1 1.542 3.99 3.64 4.192l20.613 1.95c.616 5.272 1.675 10.4 3.11 15.38l-18.24 9.8c-1.854.995-2.636 3.37-1.726 5.275l3.916 9.282c.58 1.6 2.158 2.632 3.805 2.632.39 0 .783-.058 1.168-.18l19.757-6.205c2.41 4.237 5.137 8.275 8.146 12.082L31.23 194.715c-1.345 1.627-1.166 4.12.395 5.535l7.123 7.123c.776.856 1.878 1.296 2.984 1.296.907 0 1.817-.298 2.55-.903l15.97-13.217c4.043 3.196 8.315 6.097 12.843 8.61l-6.004 19.79c-.613 2.012.51 4.244 2.502 4.96l9.318 3.822c.53.246 1.095.362 1.656.362 1.46 0 2.894-.79 3.6-2.143l9.638-18.353c4.708 1.31 9.54 2.307 14.512 2.884l1.95 20.616c.197 2.04 1.983 3.648 4.01 3.648l.185-.004h10.077l.184.004c2.03 0 3.815-1.607 4.01-3.648l1.952-20.615c5.27-.613 10.403-1.67 15.38-3.105l9.8 18.246c.714 1.328 2.136 2.105 3.585 2.105.574 0 1.152-.12 1.693-.38l9.284-3.914c1.983-.728 3.082-2.96 2.455-4.977l-6.22-19.758c4.245-2.406 8.282-5.135 12.086-8.146l15.97 13.216c.733.605 1.643.902 2.55.902 1.106 0 2.21-.44 2.987-1.296l7.12-7.122c1.573-1.416 1.74-3.908.4-5.535l-13.214-15.975c3.19-4.043 6.093-8.322 8.61-12.85l19.78 6.017c.374.113.756.168 1.133.168 1.663 0 3.247-1.047 3.824-2.67l3.824-9.317c.89-1.916.094-4.286-1.77-5.26l-18.356-9.64c1.31-4.702 2.307-9.542 2.884-14.507l20.614-1.95c2.096-.202 3.74-2.092 3.64-4.193V114.46c.102-2.114-1.544-3.992-3.64-4.19l-20.614-1.955c-.616-5.276-1.67-10.406-3.108-15.385l18.24-9.794c1.864-1 2.634-3.372 1.73-5.276l-3.908-9.286c-.59-1.604-2.172-2.63-3.82-2.63-.39 0-.78.057-1.166.177l-19.76 6.206c-2.403-4.238-5.133-8.27-8.137-12.068l13.212-15.976c1.342-1.626 1.174-4.12-.398-5.532l-7.12-7.136c-.778-.852-1.88-1.29-2.984-1.29-.908 0-1.82.296-2.555.902L178.742 44.44c-4.037-3.19-8.31-6.094-12.846-8.608l6.01-19.782c.615-2.024-.51-4.25-2.494-4.965l-9.328-3.816c-.532-.25-1.1-.368-1.663-.368-1.457 0-2.886.79-3.593 2.137l-9.638 18.356c-4.703-1.31-9.54-2.305-14.51-2.883l-1.95-20.617c-.195-2.036-1.983-3.644-4.013-3.644zm-5.218 183.22c-35.276 0-63.978-28.7-63.978-63.972 0-35.277 28.7-63.976 63.977-63.976 35.276 0 63.976 28.7 63.976 63.977 0 35.27-28.7 63.973-63.977 63.973z"/><path fill="#fff" d="M172.865 66.12c-29.433-29.455-77.32-29.455-106.764-.01-29.432 29.43-29.432 77.34 0 106.78 29.445 29.448 77.348 29.444 106.765-.007 29.476-29.434 29.476-77.343 0-106.763z"/><path d="M98.447 139.297s.87 6.48 6.322 9.477l-1.455-2.706s2.773-7.286-4.868-6.77zm70.605-69.362c-27.34-27.346-71.794-27.346-99.125-.007-27.332 27.336-27.332 71.806 0 99.148 27.33 27.334 71.803 27.326 99.125-.004 27.36-27.338 27.36-71.807 0-99.137zm-7.25 91.882c-.767.752-1.514 1.48-2.29 2.18-16.84 13.724-29.812 6.896-29.956 6.896-8.79-1.753-13.154-1.784-15.618-3.434-.625-.415-2.61-1.482-3.066-1.226-1.794 1.07-4.26 1.617-6.803-.402-.23-.19-.44-.39-.636-.578-2.797-2.79-1.845-5.668-.918-6.662.646-.655-.49-2.498-.49-2.498s-3.3-4.902-5.56-7.855c-2.482-3.238-2.82-9.663-2.85-9.746l-.03-.093c-2.51-2.98-2.77-3.896-3.64-5.35-.505-.858-1.284-1.663-1.943-2.355-.45-.453-.872-.884-1.167-1.284-.07-.086-.085-.213-.058-.406.227-1.395 3.225-4.462 3.863-4.89.796-.515 4.202-2.588 4.202-2.588s1.924-3.01 5.188-3.01c2.942.01 4.74-.163 9.813 1.49l2.112.668c3.54 1.136 6.658 2.475 9.136 3.54 2.11.91 3.79 1.64 5.078 1.976 4.378 1.154 12.103-2.387 13.73-3.883 2.672-2.433 3.827-4.063 3.838-5.398.026-.75-.305-1.405-1.066-2.196l-1.532-1.68c-.102-.105-.208-.222-.34-.314-7.41-7.872-6.13-12.81-6.12-12.887.315-3.542-1.717-5.81-3.896-8.166l-.362-.444c-.113-.104-.25-.286-.25-.286 3.156.52 5.306 1.79 11.47 2.475 3.504.377 2.4.345 5.196.276 3.852-.126 6.907-.463 7.113-1.34-.373-.317-2.078.097-10.265-3.033-3.787-1.454-4.384-1.667-6.796-2.47-3.1-1.04-6.454-2.49-6.454-2.49 13.354 3.506 17.72 4.875 23.83 4.96 2.357.043 3.765-.24 4.59-.41.87-.158 3.565-.767 3.872-1.7.094-.16-2.586.438-7.54-1.194-15.58-5.148-16.907-7.728-25.55-11.084-3.01-1.17-3.994-1.813-13.09-4.162-4.174-1.066-10.474-.455-11.33.08-11.817-2.775-14.5-2.466-17.968-1.726 23.112-14.82 54.327-12.148 74.55 8.074 2.74 2.744 5.17 5.7 7.297 8.828l.283.432c6.488 9.712 9.954 21.11 9.954 33.043.002 15.993-6.228 31.01-17.532 42.322zM122.56 94.26c5.868 2.093 7.748 8.344 7.748 8.344-7.458 1.693-5.882-5.92-5.882-5.92l-1.866-2.425z" fill="#293152"/></svg>