<svg xmlns="http://www.w3.org/2000/svg" width="139" height="115" viewBox="0 0 139 115"><path fill="#222F61" d="M70.373 2.124c30.535 0 55.377 24.842 55.377 55.376 0 30.536-24.842 55.377-55.377 55.377-30.534 0-55.375-24.842-55.375-55.377 0-30.535 24.84-55.376 55.375-55.376m0-2C38.686.124 12.998 25.812 12.998 57.5s25.688 57.377 57.375 57.377c31.69 0 57.377-25.69 57.377-57.377 0-31.688-25.687-57.376-57.377-57.376zm0 2c24.982 0 45.307 24.842 45.307 55.376 0 30.536-20.324 55.377-45.307 55.377-24.98 0-45.304-24.842-45.304-55.377 0-30.535 20.32-55.376 45.302-55.376m0-2C44.248.124 23.07 25.812 23.07 57.5s21.178 57.377 47.303 57.377c26.127 0 47.307-25.69 47.307-57.377C117.68 25.812 96.5.124 70.373.124zm0 2c19.43 0 35.235 24.842 35.235 55.376 0 30.536-15.806 55.377-35.234 55.377-19.428 0-35.233-24.842-35.233-55.377 0-30.535 15.805-55.376 35.233-55.376m0-2C49.81.124 33.14 25.812 33.14 57.5s16.67 57.377 37.233 57.377c20.564 0 37.234-25.69 37.234-57.377 0-31.688-16.67-57.376-37.234-57.376zm0 2c5.333 0 10.715 5.672 14.767 15.563 4.342 10.602 6.733 24.74 6.733 39.813S89.48 86.71 85.14 97.314c-4.052 9.89-9.434 15.563-14.767 15.563s-10.715-5.673-14.766-15.563C51.265 86.71 48.873 72.572 48.873 57.5s2.392-29.21 6.734-39.813c4.05-9.89 9.433-15.563 14.766-15.563m0-2c-12.978 0-23.5 25.688-23.5 57.376s10.52 57.377 23.5 57.377 23.5-25.69 23.5-57.377c0-31.688-10.52-57.376-23.5-57.376zm0 2c1.478 0 4.73 3.214 7.55 15.26 2.502 10.693 3.88 24.94 3.88 40.116s-1.378 29.424-3.88 40.116c-2.82 12.048-6.072 15.262-7.55 15.262-1.477 0-4.728-3.214-7.547-15.262-2.502-10.692-3.88-24.938-3.88-40.116 0-15.177 1.378-29.423 3.88-40.115 2.82-12.047 6.07-15.26 7.547-15.26m0-2C62.957.125 56.946 25.81 56.946 57.5s6.012 57.377 13.427 57.377c7.418 0 13.43-25.69 13.43-57.377 0-31.688-6.012-57.376-13.43-57.376z"/><path fill="none" stroke="#222F61" stroke-width="2" d="M70.373.124v114.753"/><path fill="#222F61" d="M70.373 2.124c30.535 0 55.377 24.842 55.377 55.376 0 30.536-24.842 55.377-55.377 55.377-30.534 0-55.375-24.842-55.375-55.377 0-30.535 24.84-55.376 55.375-55.376m0-2C38.686.124 12.998 25.812 12.998 57.5c0 31.69 25.688 57.377 57.375 57.377 31.69 0 57.377-25.688 57.377-57.377 0-31.688-25.687-57.376-57.377-57.376zm0 12.07c30.535 0 55.377 20.325 55.377 45.306s-24.842 45.305-55.377 45.305c-30.534 0-55.375-20.324-55.375-45.305s24.84-45.305 55.375-45.305m0-2c-31.687 0-57.375 21.18-57.375 47.305 0 26.127 25.688 47.305 57.375 47.305 31.69 0 57.377-21.178 57.377-47.305 0-26.126-25.687-47.305-57.377-47.305zm0 12.07c30.535 0 55.377 15.807 55.377 35.234s-24.842 35.233-55.377 35.233c-30.534 0-55.375-15.807-55.375-35.235 0-19.428 24.84-35.234 55.375-35.234m0-2c-31.687 0-57.375 16.67-57.375 37.233 0 20.564 25.688 37.234 57.375 37.234 31.69 0 57.377-16.67 57.377-37.234 0-20.563-25.687-37.234-57.377-37.234zm0 15.736c15.072 0 29.212 2.392 39.814 6.734 9.89 4.05 15.563 9.433 15.563 14.766s-5.673 10.715-15.563 14.767C99.585 76.607 85.445 79 70.373 79c-15.07 0-29.21-2.392-39.813-6.733-9.89-4.052-15.562-9.434-15.562-14.767S20.67 46.785 30.56 42.734C41.164 38.392 55.303 36 70.374 36m0-2C38.687 34 13 44.52 13 57.5S38.685 81 70.372 81c31.69 0 57.377-10.52 57.377-23.5S102.063 34 70.373 34zm0 12.07c15.176 0 29.423 1.38 40.115 3.882 12.045 2.82 15.26 6.07 15.26 7.548s-3.215 4.73-15.26 7.55c-10.694 2.502-24.94 3.88-40.118 3.88-15.176 0-29.422-1.378-40.115-3.88-12.046-2.82-15.26-6.073-15.26-7.55 0-1.477 3.213-4.73 15.26-7.548 10.693-2.503 24.94-3.88 40.115-3.88m0-2c-31.687 0-57.375 6.012-57.375 13.428 0 7.417 25.688 13.43 57.375 13.43 31.69 0 57.377-6.014 57.377-13.43 0-7.417-25.688-13.43-57.378-13.43z"/><path fill="none" stroke="#222F61" stroke-width="2" d="M127.75 57.5H12.998"/><path fill="#fff" d="M126.225 30.94H85.72V20.427h40.505v-5.925l11.18 11.182-11.18 11.18z"/><path fill="#E98025" d="M127.225 16.917l8.768 8.767-8.768 8.767v-4.51H86.72V21.43h40.505v-4.51m-2-4.83v7.34H84.72V31.94h40.505v7.34l13.596-13.596-13.594-13.596z"/><path fill="#fff" d="M1.593 82.145l11.182-11.182v5.926h40.507V87.4H12.775v5.926z"/><path fill="#E98025" d="M11.775 73.377v4.513h40.507v8.51H11.775v4.512l-8.767-8.768 8.767-8.767m2-4.828L.18 82.143 13.774 95.74V88.4H54.28V75.89H13.776v-7.34z"/></svg>