<svg xmlns="http://www.w3.org/2000/svg" width="241" height="241" viewBox="0 0 241 241"><circle fill="#E6E6E5" cx="120.5" cy="120.5" r="120.256"/><circle fill="#222F61" cx="120.5" cy="120.5" r="114.192"/><circle fill="#E6E6E5" cx="120.5" cy="120.5" r="84.887"/><circle fill="#222F61" cx="120.5" cy="120.5" r="80.003"/><g opacity=".75"><path fill="none" d="M35.845 121.48c0-47.86 38.797-86.656 86.655-86.656s86.654 38.797 86.654 86.655"/><text transform="matrix(.809 -.588 .588 .809 63.991 56.869)"><tspan x="0" y="0" fill="#010101" font-family="Arial" font-weight="bold" font-size="24.253">O</tspan><tspan x="29.024" y="1.787" fill="#010101" font-family="Arial" font-weight="bold" font-size="24.253" rotate="18.831">A</tspan><tspan x="54.715" y="12.308" fill="#010101" font-family="Arial" font-weight="bold" font-size="24.253" rotate="37.131">U</tspan><tspan x="75.8" y="30.502" fill="#010101" font-family="Arial" font-weight="bold" font-size="24.253" rotate="54.671">T</tspan><tspan x="89.181" y="51.777" fill="#010101" font-family="Arial" font-weight="bold" font-size="24.253" rotate="72.21">H</tspan></text></g><path fill="none" d="M33.845 118.48c0-47.86 38.797-86.656 86.655-86.656s86.654 38.797 86.654 86.655"/><text transform="matrix(.809 -.588 .588 .809 61.991 53.869)"><tspan x="0" y="0" fill="#fff" font-family="Arial" font-weight="bold" font-size="24.253">O</tspan><tspan x="29.024" y="1.787" fill="#fff" font-family="Arial" font-weight="bold" font-size="24.253" rotate="18.831">A</tspan><tspan x="54.715" y="12.308" fill="#fff" font-family="Arial" font-weight="bold" font-size="24.253" rotate="37.131">U</tspan><tspan x="75.8" y="30.502" fill="#fff" font-family="Arial" font-weight="bold" font-size="24.253" rotate="54.671">T</tspan><tspan x="89.181" y="51.777" fill="#fff" font-family="Arial" font-weight="bold" font-size="24.253" rotate="72.21">H</tspan></text><g opacity=".75"><path fill="none" d="M205.154 120.774c0 47.858-38.796 86.655-86.654 86.655s-86.655-38.798-86.655-86.656"/><text transform="matrix(-.809 .588 -.588 -.809 177.008 185.385)"><tspan x="0" y="0" fill="#010101" font-family="Arial" font-weight="bold" font-size="24.253">O</tspan><tspan x="29.024" y="1.786" fill="#010101" font-family="Arial" font-weight="bold" font-size="24.253" rotate="18.831">A</tspan><tspan x="54.714" y="12.308" fill="#010101" font-family="Arial" font-weight="bold" font-size="24.253" rotate="37.131">U</tspan><tspan x="75.798" y="30.502" fill="#010101" font-family="Arial" font-weight="bold" font-size="24.253" rotate="54.671">T</tspan><tspan x="89.179" y="51.777" fill="#010101" font-family="Arial" font-weight="bold" font-size="24.253" rotate="72.21">H</tspan></text></g><path fill="none" d="M207.154 122.774c0 47.858-38.796 86.655-86.654 86.655s-86.655-38.798-86.655-86.656"/><text transform="matrix(-.809 .588 -.588 -.809 179.008 187.385)"><tspan x="0" y="0" fill="#fff" font-family="Arial" font-weight="bold" font-size="24.253">O</tspan><tspan x="29.024" y="1.786" fill="#fff" font-family="Arial" font-weight="bold" font-size="24.253" rotate="18.831">A</tspan><tspan x="54.714" y="12.308" fill="#fff" font-family="Arial" font-weight="bold" font-size="24.253" rotate="37.131">U</tspan><tspan x="75.798" y="30.502" fill="#fff" font-family="Arial" font-weight="bold" font-size="24.253" rotate="54.671">T</tspan><tspan x="89.179" y="51.777" fill="#fff" font-family="Arial" font-weight="bold" font-size="24.253" rotate="72.21">H</tspan></text><g fill="none" stroke="#fff" stroke-width=".5"><path d="M50.097 106.2l55.58-55.58M47.233 128.264l79.497-79.498M50.94 147.127l95.328-95.33M57.676 162.622l103.92-103.92M67.108 174.074L172.71 68.472M81.592 183.507l100.55-100.55M96.75 189.57l93.14-93.14M117.972 195.297l78.318-78.318M149.637 188.56l44.295-44.296M137.594 50.366l55.58 55.58M115.53 47.503L195.025 127M96.666 51.208l95.33 95.33M81.17 57.945l103.92 103.918M69.718 67.377L175.32 172.98M60.286 81.86l100.55 100.552M54.223 97.02l93.14 93.14M48.497 118.24l78.317 78.32M55.233 149.906L99.53 194.2"/></g><g opacity=".75" fill="#010101"><path d="M86.87 176.088l.298-2.77c.747-6.914 3.017-13.553 6.748-19.73 3.712-6.15 10.75-13.994 21.516-23.984 8.27-7.707 13.378-12.95 15.175-15.583 2.272-3.41 3.433-6.802 3.433-10.06 0-3.522-.862-6.097-2.636-7.872-1.773-1.773-4.24-2.635-7.536-2.635-3.243 0-5.713.91-7.552 2.786-1.87 1.906-2.978 5.32-3.292 10.15l-.168 2.582-23.756-2.376.27-2.504c1.182-10.973 5.03-19.023 11.438-23.927 6.29-4.812 14.205-7.25 23.528-7.25 10.262 0 18.49 2.854 24.46 8.484 6.007 5.668 9.053 12.81 9.053 21.226 0 4.7-.856 9.238-2.544 13.493-1.66 4.183-4.305 8.6-7.86 13.127-2.37 3.02-6.476 7.2-12.55 12.77-5.827 5.348-9.548 8.92-11.058 10.622-.31.348-.607.696-.893 1.042h34.903v22.407h-70.98zM124.334 75.413c9.648 0 17.23 2.602 22.743 7.804 5.513 5.202 8.27 11.67 8.27 19.408 0 4.4-.79 8.593-2.367 12.57-1.58 3.98-4.08 8.15-7.503 12.507-2.268 2.89-6.36 7.048-12.272 12.472-5.913 5.426-9.66 9.026-11.237 10.804-1.58 1.78-2.857 3.514-3.835 5.203h37.215v17.408H89.653c.71-6.58 2.845-12.816 6.402-18.708 3.557-5.892 10.582-13.706 21.076-23.443 8.447-7.87 13.628-13.205 15.54-16.007 2.578-3.868 3.868-7.69 3.868-11.47 0-4.18-1.123-7.393-3.367-9.64-2.245-2.244-5.347-3.367-9.304-3.367-3.913 0-7.025 1.18-9.337 3.535-2.314 2.357-3.647 6.27-4.003 11.738l-18.674-1.868c1.11-10.314 4.602-17.718 10.47-22.21 5.87-4.49 13.207-6.735 22.01-6.735m0-5c-9.884 0-18.31 2.613-25.046 7.765-6.973 5.336-11.146 13.964-12.404 25.645l-.54 5.01 5.014.5 18.674 1.868 5.152.517.335-5.167c.34-5.248 1.592-7.552 2.582-8.56.856-.876 2.388-2.038 5.767-2.038 2.6 0 4.488.623 5.77 1.904 1.28 1.28 1.902 3.277 1.902 6.102 0 2.75-1.015 5.667-3.014 8.674-1.178 1.716-4.706 5.737-14.803 15.146-10.932 10.144-18.113 18.165-21.948 24.518-3.92 6.49-6.307 13.475-7.093 20.755l-.598 5.538h76.262V151.18H128.77c1.7-1.647 4.184-3.99 7.814-7.322 6.174-5.663 10.37-9.938 12.825-13.07 3.702-4.713 6.467-9.34 8.216-13.747 1.805-4.548 2.72-9.398 2.72-14.414 0-9.13-3.31-16.884-9.838-23.045-6.446-6.083-15.253-9.167-26.174-9.167z"/></g><path fill="#fff" d="M84.87 172.088l.298-2.77c.747-6.914 3.017-13.553 6.748-19.73 3.712-6.15 10.75-13.994 21.516-23.984 8.27-7.707 13.378-12.95 15.175-15.583 2.272-3.41 3.433-6.802 3.433-10.06 0-3.522-.862-6.097-2.636-7.872-1.773-1.773-4.24-2.635-7.536-2.635-3.243 0-5.713.91-7.552 2.786-1.87 1.906-2.978 5.32-3.292 10.15l-.168 2.582-23.756-2.376.27-2.504C88.552 89.12 92.4 81.07 98.808 76.165c6.29-4.812 14.205-7.25 23.528-7.25 10.262 0 18.49 2.854 24.46 8.484 6.007 5.668 9.053 12.81 9.053 21.226 0 4.7-.856 9.238-2.544 13.493-1.66 4.183-4.305 8.6-7.86 13.127-2.37 3.02-6.476 7.2-12.55 12.77-5.827 5.348-9.548 8.92-11.058 10.622-.31.348-.607.696-.893 1.042h34.904v22.407H84.87z"/><path fill="#E98025" d="M122.334 71.413c9.648 0 17.23 2.602 22.743 7.804 5.513 5.202 8.27 11.67 8.27 19.408 0 4.4-.79 8.593-2.367 12.57-1.58 3.98-4.08 8.15-7.503 12.507-2.268 2.89-6.36 7.048-12.272 12.472-5.913 5.426-9.66 9.026-11.237 10.804-1.58 1.78-2.857 3.514-3.835 5.203h37.215v17.408H87.653c.71-6.58 2.845-12.816 6.402-18.708 3.557-5.892 10.582-13.706 21.076-23.443 8.447-7.87 13.628-13.205 15.54-16.007 2.578-3.868 3.868-7.69 3.868-11.47 0-4.18-1.123-7.393-3.367-9.64-2.245-2.244-5.347-3.367-9.304-3.367-3.913 0-7.025 1.18-9.337 3.535-2.314 2.357-3.647 6.27-4.003 11.738l-18.674-1.868c1.11-10.314 4.602-17.718 10.47-22.21 5.87-4.49 13.207-6.735 22.01-6.735m0-5c-9.884 0-18.31 2.613-25.046 7.765-6.973 5.336-11.146 13.964-12.404 25.645l-.54 5.01 5.014.5 18.674 1.868 5.152.517.335-5.167c.34-5.248 1.592-7.552 2.582-8.56.856-.876 2.388-2.038 5.767-2.038 2.6 0 4.488.623 5.77 1.904 1.28 1.28 1.902 3.277 1.902 6.102 0 2.75-1.015 5.667-3.014 8.674-1.178 1.716-4.706 5.737-14.803 15.146-10.932 10.144-18.113 18.165-21.948 24.518-3.92 6.49-6.307 13.475-7.093 20.755l-.598 5.538h76.262V147.18H126.77c1.7-1.647 4.184-3.99 7.814-7.322 6.174-5.663 10.37-9.938 12.825-13.07 3.702-4.713 6.467-9.34 8.216-13.747 1.805-4.548 2.72-9.398 2.72-14.414 0-9.13-3.31-16.884-9.838-23.045-6.446-6.083-15.253-9.167-26.174-9.167z"/></svg>