<svg xmlns="http://www.w3.org/2000/svg" viewBox="0 0 157 157"><path fill="#fff" d="M133.705 23.278c-30.453-30.477-79.984-30.477-110.437-.021-30.453 30.457-30.453 80.02 0 110.477 30.453 30.467 80.005 30.467 110.438-.004 30.487-30.454 30.487-80.016-.001-110.452z"/><path fill="#2A3052" d="M56.727 98.986s.898 6.698 6.529 9.802l-1.496-2.798s2.865-7.538-5.033-7.004zM129.758 27.228c-28.283-28.293-74.268-28.293-102.537-.01-28.276 28.283-28.276 74.289 0 102.572 28.27 28.283 74.269 28.266 102.537-.007 28.298-28.276 28.298-74.282 0-102.555zm-7.498 95.052c-.801.776-1.566 1.538-2.367 2.258-17.428 14.197-30.839 7.135-30.993 7.135-9.093-1.826-13.608-1.854-16.157-3.554-.639-.429-2.696-1.538-3.166-1.271-1.861 1.109-4.41 1.671-7.037-.422-.238-.189-.455-.39-.666-.59-2.887-2.886-1.903-5.859-.941-6.892.668-.681-.506-2.581-.506-2.581s-3.419-5.068-5.758-8.131c-2.563-3.353-2.914-9.991-2.941-10.09l-.028-.084c-2.604-3.086-2.872-4.031-3.771-5.54-.52-.882-1.327-1.721-2.008-2.437-.471-.471-.906-.91-1.208-1.32-.07-.098-.085-.232-.056-.428.23-1.447 3.328-4.617 3.988-5.057.828-.537 4.354-2.686 4.354-2.686s1.986-3.111 5.363-3.111c3.041.012 4.895-.164 10.154 1.542l2.184.688c3.658 1.176 6.881 2.563 9.451 3.672 2.177.934 3.918 1.692 5.252 2.043 4.529 1.188 12.513-2.475 14.205-4.023 2.76-2.514 3.946-4.201 3.967-5.578.021-.79-.322-1.453-1.109-2.275-.393-.371-.927-1.07-1.586-1.737-.1-.105-.211-.231-.345-.327-7.667-8.141-6.348-13.242-6.333-13.338.322-3.65-1.77-6-4.031-8.436l-.372-.467c-.119-.105-.253-.289-.253-.289 3.258.527 5.477 1.844 11.859 2.561 3.623.383 2.479.354 5.372.277 3.988-.127 7.147-.479 7.366-1.377-.394-.334-2.156.099-10.624-3.143-3.911-1.498-4.536-1.72-7.028-2.552-3.209-1.085-6.672-2.581-6.672-2.581 13.805 3.635 18.32 5.046 24.646 5.133 2.438.043 3.891-.248 4.747-.432.899-.161 3.687-.793 4.009-1.748.092-.172-2.682.449-7.801-1.242-16.115-5.323-17.49-7.988-26.43-11.467-3.117-1.201-4.135-1.871-13.552-4.297-4.312-1.109-10.827-.479-11.712.07-12.225-2.865-14.991-2.546-18.586-1.784 23.916-15.329 56.201-12.562 77.119 8.355 2.829 2.845 5.344 5.892 7.541 9.143l.295.438c6.713 10.052 10.293 21.842 10.293 34.189.001 16.543-6.438 32.078-18.128 43.783zm-40.593-69.893c6.066 2.167 8.012 8.637 8.012 8.637-7.71 1.759-6.088-6.126-6.088-6.126l-1.924-2.511z"/></svg>