<svg xmlns="http://www.w3.org/2000/svg" viewBox="0 0 169 152"><path fill="#E98025" d="M155.261 81.789l13.573-5.789-14.786-6.307 13.196-9.199-14.51-2.871 10.361-10.559-16.083-.146 8.655-13.545-14.479 2.877 5.508-13.695-14.912 5.998 2.832-15.832-12.295 8.224-.134-14.789-11.483 11.264-3.461-15.697-8.202 12.267-5.79-13.574-6.307 14.785-9.197-13.195-2.873 14.51-10.558-10.36-.147 16.082-13.545-8.656 2.877 14.481-13.695-5.51 5.997 14.914-15.831-2.832 8.224 12.293-14.789.136 11.264 11.481-15.697 3.461 12.267 8.203-13.574 5.791 14.785 6.307-13.195 9.195 14.509 2.873-10.361 10.559 16.084.148-8.655 13.545 14.479-2.879-5.508 13.697 14.913-5.998-2.833 15.832 12.295-8.226.135 14.791 11.482-11.266 3.462 15.697 8.201-12.265 5.791 13.572 6.307-14.785 9.197 13.195 2.871-14.508 10.56 10.36.147-16.084 13.545 8.654-2.877-14.478 13.695 5.509-5.998-14.912 15.832 2.832-8.225-12.295 14.79-.134-11.266-11.483 15.698-3.461z"/><path fill="#2A3052" d="M70.228 144.561c-37.804 0-68.561-30.756-68.561-68.561s30.757-68.561 68.561-68.561c37.805 0 68.561 30.756 68.561 68.561s-30.757 68.561-68.561 68.561z"/><path fill="#fff" d="M70.228 8.939c36.978 0 67.061 30.083 67.061 67.061s-30.083 67.061-67.061 67.061-67.061-30.083-67.061-67.061 30.083-67.061 67.061-67.061m0-3c-38.694 0-70.061 31.368-70.061 70.061s31.367 70.061 70.061 70.061 70.06-31.368 70.06-70.061-31.367-70.061-70.06-70.061z"/></svg>
