<svg xmlns="http://www.w3.org/2000/svg" viewBox="0 0 140 140"><path fill="#fff" d="M0 0h140v140h-140z"/><path fill="#EF4136" d="M61.307 87.626l-15.916 15.917h-45.391v-33.543h140v33.543h-62.777zM69.584 103.543h-16.555l8.278-8.277zM0 140v-33.54h43.689l3.213 3.211 3.211-3.211h22.387l15.115 15.113h-8.534l5.399 5.403h12.295v-12.416l-5.402-5.399v8.531l-11.232-11.232h59.859v33.54z"/><path fill="#2AAAE2" d="M61.307 52.373l-15.916-15.914h-45.391v33.541h140v-33.541h-62.777zM69.584 36.459h-16.555l8.278 8.277zM0 0v33.542h43.689l3.213-3.21 3.211 3.21h22.387l15.115-15.114h-8.535l5.4-5.402h12.295v12.413l-5.402 5.401v-8.532l-11.232 11.234h59.859v-33.542z"/><path fill="#CDCCCC" d="M138 2v136h-136v-136h136m2-2h-140v140h140v-140z"/><path stroke="#CDCCCC" stroke-width="2" fill="none" d="M0 70h140"/></svg>