<svg xmlns="http://www.w3.org/2000/svg" width="140" height="140" viewBox="0 0 140 140"><path fill="#D1D3D4" d="M11.185 1h127.815v116.578h-127.815z"/><path fill="#CDCCCC" d="M138 2v114.578h-125.815v-114.578h125.815m2-2h-129.815v118.578h129.815v-118.578z"/><path fill="#F3F3F3" d="M1 13.119h138v125.881h-138z"/><path fill="#CDCCCC" d="M138 14.119v123.881h-136v-123.881h136m2-2h-140v127.881h140v-127.881z"/><path stroke="#CDCCCC" stroke-width="2" fill="none" d="M140 32.433h-140M140 55.497h-140"/><path d="M13.049 24.101v-4.082h.83v4.058c0 .619.161 1.105.484 1.46s.788.532 1.396.532 1.076-.176 1.403-.53c.328-.353.491-.841.491-1.462v-4.058h.83v4.072c0 .846-.233 1.511-.699 1.995s-1.141.725-2.023.725c-.876 0-1.548-.242-2.014-.725s-.698-1.145-.698-1.985zM19.646 25.751l.498-.646c.549.642 1.24.963 2.073.963.541 0 .939-.116 1.193-.349s.381-.503.381-.812c0-.312-.131-.561-.394-.746-.263-.185-.587-.332-.975-.439l-1.164-.324c-.389-.108-.718-.297-.988-.567-.27-.27-.405-.628-.405-1.073 0-.544.214-.989.642-1.334.428-.346.972-.518 1.631-.518.971 0 1.75.311 2.337.933l-.481.611c-.471-.535-1.112-.802-1.924-.802-.401 0-.73.099-.988.298-.257.198-.386.455-.386.77 0 .236.103.432.309.585.207.154.453.273.74.356l.95.276s.659.211.938.333.514.318.704.591c.189.272.285.602.285.987 0 .541-.2 1.004-.599 1.389-.399.384-1.011.577-1.835.577-1.069.001-1.917-.352-2.542-1.059zM25.916 26.689v-6.67h2.269c1.014 0 1.833.317 2.46.95.626.633.94 1.43.94 2.39 0 .967-.312 1.764-.935 2.39-.624.627-1.445.94-2.465.94h-2.269zm.83-.742h1.45c.788 0 1.411-.247 1.87-.74s.688-1.109.688-1.848c0-.746-.227-1.365-.681-1.858s-1.08-.74-1.877-.74h-1.45v5.186zM35.378 25.737l.513-.557c.459.592 1.071.889 1.836.889.453 0 .823-.137 1.111-.41s.432-.614.432-1.021c0-.433-.142-.781-.425-1.045s-.653-.396-1.108-.396c-.592 0-1.105.207-1.538.62l-.61-.21v-3.589h4.082v.742h-3.252v2.315c.414-.414.934-.621 1.563-.621.59 0 1.09.194 1.502.581s.617.912.617 1.572-.225 1.193-.675 1.597-1.017.605-1.703.605c-1.023-.001-1.805-.359-2.345-1.072zM41.277 25.737l.513-.557c.459.592 1.071.889 1.836.889.453 0 .823-.137 1.111-.41s.432-.614.432-1.021c0-.433-.142-.781-.425-1.045s-.653-.396-1.108-.396c-.592 0-1.105.207-1.538.62l-.61-.21v-3.589h4.082v.742h-3.252v2.315c.414-.414.934-.621 1.563-.621.59 0 1.09.194 1.502.581s.617.912.617 1.572-.225 1.193-.675 1.597-1.017.605-1.703.605c-1.024-.001-1.805-.359-2.345-1.072zM47.275 26.628c-.106-.105-.159-.235-.159-.388s.053-.283.159-.391.236-.161.391-.161.285.054.391.161.159.238.159.391-.053.283-.159.388-.236.159-.391.159-.285-.054-.391-.159zM49.026 23.359c0-.973.231-1.79.694-2.449.463-.659 1.137-.989 2.024-.989.773 0 1.384.267 1.832.8l-.415.61c-.388-.445-.86-.668-1.417-.668-.606 0-1.073.256-1.399.768-.326.512-.489 1.128-.489 1.85v.258c.166-.273.425-.519.777-.737.352-.219.726-.328 1.12-.328.632 0 1.152.187 1.559.561.407.374.611.905.611 1.593 0 .599-.212 1.113-.638 1.541-.425.428-.986.642-1.684.642-.451 0-.846-.094-1.186-.281s-.607-.444-.803-.771c-.197-.327-.344-.691-.441-1.091s-.145-.837-.145-1.309zm.864.849c.039.495.195.929.469 1.301.274.373.675.559 1.203.559.479 0 .854-.146 1.125-.439s.406-.617.406-.972c0-.465-.144-.822-.43-1.069-.287-.248-.654-.371-1.101-.371-.326 0-.64.092-.941.276-.301.184-.545.423-.731.715zM54.734 20.761v-.742h4.551v.571l-2.729 6.099h-.918l2.69-5.928h-3.594zM83.716 24.101v-4.082h.83v4.058c0 .619.161 1.105.483 1.46.323.355.789.532 1.396.532s1.076-.176 1.403-.53c.327-.353.491-.841.491-1.462v-4.058h.83v4.072c0 .846-.232 1.511-.699 1.995-.465.483-1.141.725-2.023.725-.876 0-1.547-.242-2.014-.725-.464-.483-.697-1.145-.697-1.985zM90.313 25.751l.498-.646c.549.642 1.24.963 2.072.963.541 0 .939-.116 1.193-.349.255-.232.382-.503.382-.812 0-.312-.132-.561-.394-.746-.263-.185-.588-.332-.975-.439l-1.164-.324c-.389-.108-.719-.297-.988-.567-.27-.27-.405-.628-.405-1.073 0-.544.214-.989.642-1.334.428-.346.972-.518 1.631-.518.971 0 1.75.311 2.338.933l-.482.611c-.471-.535-1.111-.802-1.924-.802-.4 0-.73.099-.988.298-.257.198-.386.455-.386.77 0 .236.103.432.31.585.206.154.453.273.739.356l.95.276c.346.101.658.211.938.333s.515.318.705.591c.189.272.284.602.284.987 0 .541-.2 1.004-.599 1.389-.399.384-1.012.577-1.836.577-1.069.001-1.916-.352-2.541-1.059zM96.582 26.689v-6.67h2.269c1.014 0 1.833.317 2.46.95s.94 1.43.94 2.39c0 .967-.312 1.764-.935 2.39-.624.627-1.445.94-2.466.94h-2.268zm.83-.742h1.45c.788 0 1.411-.247 1.87-.74s.688-1.109.688-1.848c0-.746-.228-1.365-.681-1.858-.455-.493-1.08-.74-1.878-.74h-1.45v5.186zM105.908 25c0-.419.15-.783.451-1.09.301-.307.678-.528 1.127-.661-.424-.12-.775-.314-1.053-.583-.279-.268-.418-.605-.418-1.012 0-.561.226-.99.677-1.287s.983-.445 1.597-.445c.612 0 1.146.148 1.601.445s.682.726.682 1.287c0 .407-.141.745-.423 1.015-.281.27-.634.463-1.058.581.45.133.825.354 1.126.661.302.308.452.671.452 1.09 0 .546-.227.985-.679 1.315-.453.331-1.021.496-1.701.496-.682 0-1.249-.164-1.701-.491-.453-.327-.68-.767-.68-1.321zm.83-.092c0 .345.15.625.449.839.301.214.668.322 1.102.322.427 0 .791-.106 1.095-.32.304-.213.455-.493.455-.841 0-.267-.104-.5-.315-.703-.211-.201-.424-.345-.641-.429-.217-.085-.415-.137-.594-.156-.18.02-.378.071-.595.156-.217.084-.431.228-.641.429-.209.202-.315.436-.315.703zm.108-3.147c0 .186.054.354.161.505.108.151.248.268.421.351l.46.195s.267.081.401.1c.133-.02.269-.053.405-.1.138-.047.292-.112.465-.195s.313-.199.421-.349.161-.319.161-.507c0-.332-.139-.598-.415-.797-.277-.2-.623-.3-1.037-.3s-.759.098-1.033.295c-.274.196-.41.464-.41.802zM111.411 21.738l1.67-1.719h.732v6.67h-.83v-5.581l-1.074 1.143-.498-.513zM115.35 26.628c-.106-.105-.159-.235-.159-.388s.053-.283.159-.391c.105-.107.235-.161.391-.161.154 0 .284.054.391.161.105.107.158.238.158.391s-.053.283-.158.388c-.106.105-.236.159-.391.159-.156 0-.286-.054-.391-.159zM117.388 22.089c0-.599.212-1.112.638-1.541.425-.428.991-.642 1.699-.642.443 0 .836.094 1.176.281.339.188.607.444.808.771s.348.691.443 1.091.144.836.144 1.309c0 .628-.094 1.194-.28 1.697s-.489.92-.908 1.25c-.419.331-.927.496-1.524.496-.757 0-1.373-.267-1.847-.8l.415-.611c.388.446.865.669 1.432.669.428 0 .787-.133 1.08-.4.294-.267.501-.59.621-.969.121-.379.182-.797.182-1.252l-.01-.259c-.166.273-.423.519-.77.737-.348.218-.719.327-1.113.327-.633 0-1.154-.187-1.566-.561s-.62-.905-.62-1.593zm.83-.029c0 .465.144.822.433 1.069s.66.371 1.113.371c.325 0 .641-.092.943-.276.303-.184.546-.426.729-.725-.02-.221-.064-.435-.135-.642-.07-.207-.168-.403-.295-.588-.128-.186-.3-.335-.517-.449s-.462-.171-.735-.171c-.473 0-.848.145-1.123.435s-.413.615-.413.976zM123.018 21.738l1.67-1.719h.732v6.67h-.83v-5.581l-1.074 1.143-.498-.513zM13.049 45.101v-4.082h.83v4.058c0 .619.161 1.105.484 1.46.323.355.788.532 1.396.532s1.076-.177 1.403-.53.491-.84.491-1.462v-4.058h.83v4.072c0 .847-.233 1.511-.699 1.995s-1.141.725-2.023.725c-.876 0-1.548-.242-2.014-.725s-.698-1.146-.698-1.985zM19.646 46.75l.498-.646c.549.643 1.24.964 2.073.964.541 0 .939-.116 1.193-.349s.381-.503.381-.812c0-.313-.131-.561-.394-.746-.263-.186-.587-.332-.975-.439l-1.164-.324c-.389-.108-.718-.297-.988-.567-.27-.27-.405-.627-.405-1.072 0-.544.214-.989.642-1.335.428-.345.972-.518 1.631-.518.971 0 1.75.311 2.337.933l-.481.611c-.471-.535-1.112-.802-1.924-.802-.401 0-.73.099-.988.298-.257.198-.386.455-.386.77 0 .236.103.431.309.585.207.154.453.273.74.356l.95.275c.346.101.659.212.938.333s.514.319.704.591c.189.272.285.601.285.987 0 .541-.2 1.003-.599 1.388-.399.384-1.011.577-1.835.577-1.069.003-1.917-.351-2.542-1.058zM25.916 47.688v-6.67h2.269c1.014 0 1.833.316 2.46.95.626.633.94 1.43.94 2.39 0 .967-.312 1.764-.935 2.39s-1.445.94-2.465.94h-2.269zm.83-.742h1.45c.788 0 1.411-.247 1.87-.74s.688-1.109.688-1.848c0-.745-.227-1.365-.681-1.858s-1.08-.74-1.877-.74h-1.45v5.186zM35.042 46.009v-.698l2.856-4.292h1.143v4.248h.938v.742h-.938v1.68h-.83v-1.68h-3.169zm.83-.742h2.339v-3.477l-2.339 3.477zM40.828 41.976c.254-.334.585-.593.994-.777.409-.185.851-.277 1.326-.277.605 0 1.128.169 1.567.509s.659.823.659 1.453c0 .618-.266 1.235-.798 1.851-.532.617-1.345 1.354-2.439 2.212h3.271v.742h-4.58v-.669c1.371-1.067 2.333-1.89 2.886-2.468.553-.579.83-1.135.83-1.668 0-.4-.138-.704-.415-.91-.277-.206-.604-.31-.981-.31-.768 0-1.372.28-1.812.839l-.508-.527zM46.934 47.627c-.106-.106-.159-.235-.159-.388 0-.153.053-.283.159-.391s.236-.161.391-.161.285.054.391.161.159.238.159.391c0 .153-.053.282-.159.388s-.236.159-.391.159-.285-.053-.391-.159zM49.006 46c0-.419.15-.783.452-1.09.301-.307.677-.528 1.126-.661-.424-.12-.775-.314-1.053-.583-.278-.269-.417-.606-.417-1.013 0-.561.226-.99.677-1.287s.983-.445 1.596-.445 1.146.148 1.601.445.682.726.682 1.287c0 .407-.141.745-.422 1.015-.282.27-.634.464-1.058.581.45.133.825.354 1.126.661s.452.671.452 1.09c0 .547-.227.985-.679 1.315s-1.02.495-1.701.495c-.682 0-1.249-.164-1.701-.49-.455-.327-.681-.767-.681-1.32zm.83-.093c0 .345.15.625.45.839.3.215.667.322 1.101.322.427 0 .792-.106 1.095-.319.303-.213.455-.494.455-.842 0-.267-.105-.501-.315-.702-.21-.202-.424-.345-.641-.43-.217-.084-.415-.137-.594-.156-.179.02-.377.072-.594.156-.217.085-.43.228-.641.43-.211.201-.316.436-.316.702zm.108-3.146c0 .186.054.354.161.505.108.151.248.269.421.352.173.083.326.147.46.195.133.047.267.081.401.1.134-.02.269-.053.406-.1.137-.047.292-.112.465-.195.173-.083.313-.199.42-.349.108-.15.162-.319.162-.507 0-.332-.139-.598-.416-.798-.277-.2-.623-.3-1.037-.3s-.758.099-1.032.295c-.274.196-.411.463-.411.802zM54.952 45.59c-.097-.394-.145-.803-.145-1.229s.048-.836.145-1.23c.097-.394.243-.76.438-1.097.195-.337.459-.607.793-.809.334-.202.719-.303 1.155-.303.43 0 .814.101 1.152.303.338.202.604.472.8.809.196.337.341.703.437 1.097s.143.804.143 1.23-.048.836-.143 1.229-.241.76-.437 1.1c-.196.34-.462.612-.8.815-.338.203-.722.305-1.152.305-.436 0-.82-.102-1.155-.305-.334-.204-.599-.475-.793-.815-.195-.339-.341-.706-.438-1.1zm.834-2.527c-.099.387-.149.819-.149 1.297s.05.911.149 1.298c.1.387.283.719.55.995.268.276.602.415 1.002.415s.734-.138 1-.415.449-.608.55-.995c.101-.387.151-.82.151-1.298s-.051-.911-.151-1.297c-.102-.387-.285-.717-.55-.991-.266-.273-.599-.41-1-.41s-.735.137-1.002.41c-.267.274-.45.604-.55.991zM83.716 45.101v-4.082h.83v4.058c0 .619.161 1.105.483 1.46.323.355.789.532 1.396.532s1.076-.177 1.403-.53.491-.84.491-1.462v-4.058h.83v4.072c0 .847-.232 1.511-.699 1.995-.465.483-1.141.725-2.023.725-.876 0-1.547-.242-2.014-.725-.464-.484-.697-1.146-.697-1.985zM90.313 46.75l.498-.646c.549.643 1.24.964 2.072.964.541 0 .939-.116 1.193-.349.255-.232.382-.503.382-.812 0-.313-.132-.561-.394-.746-.263-.186-.588-.332-.975-.439l-1.164-.324c-.389-.108-.719-.297-.988-.567-.27-.27-.405-.627-.405-1.072 0-.544.214-.989.642-1.335.428-.345.972-.518 1.631-.518.971 0 1.75.311 2.338.933l-.482.611c-.471-.535-1.111-.802-1.924-.802-.4 0-.73.099-.988.298-.257.198-.386.455-.386.77 0 .236.103.431.31.585.206.154.453.273.739.356l.95.275c.346.101.658.212.938.333s.515.319.705.591c.189.272.284.601.284.987 0 .541-.2 1.003-.599 1.388-.399.384-1.012.577-1.836.577-1.069.003-1.916-.351-2.541-1.058zM96.582 47.688v-6.67h2.269c1.014 0 1.833.316 2.46.95s.94 1.43.94 2.39c0 .967-.312 1.764-.935 2.39-.624.626-1.445.94-2.466.94h-2.268zm.83-.742h1.45c.788 0 1.411-.247 1.87-.74s.688-1.109.688-1.848c0-.745-.228-1.365-.681-1.858-.455-.493-1.08-.74-1.878-.74h-1.45v5.186zM105.908 46c0-.419.15-.783.451-1.09s.678-.528 1.127-.661c-.424-.12-.775-.314-1.053-.583-.279-.269-.418-.606-.418-1.013 0-.561.226-.99.677-1.287s.983-.445 1.597-.445c.612 0 1.146.148 1.601.445s.682.726.682 1.287c0 .407-.141.745-.423 1.015-.281.27-.634.464-1.058.581.45.133.825.354 1.126.661.302.307.452.671.452 1.09 0 .547-.227.985-.679 1.315-.453.33-1.021.495-1.701.495-.682 0-1.249-.164-1.701-.49-.453-.327-.68-.767-.68-1.32zm.83-.093c0 .345.15.625.449.839.301.215.668.322 1.102.322.427 0 .791-.106 1.095-.319s.455-.494.455-.842c0-.267-.104-.501-.315-.702-.211-.202-.424-.345-.641-.43-.217-.084-.415-.137-.594-.156-.18.02-.378.072-.595.156-.217.085-.431.228-.641.43-.209.201-.315.436-.315.702zm.108-3.146c0 .186.054.354.161.505.108.151.248.269.421.352.173.083.326.147.46.195s.267.081.401.1c.133-.02.269-.053.405-.1.138-.047.292-.112.465-.195.173-.083.313-.199.421-.349s.161-.319.161-.507c0-.332-.139-.598-.415-.798-.277-.2-.623-.3-1.037-.3s-.759.099-1.033.295c-.274.196-.41.463-.41.802zM111.411 42.737l1.67-1.719h.732v6.67h-.83v-5.581l-1.074 1.143-.498-.513zM115.35 47.627c-.106-.106-.159-.235-.159-.388 0-.153.053-.283.159-.391.105-.107.235-.161.391-.161.154 0 .284.054.391.161.105.107.158.238.158.391 0 .153-.053.282-.158.388-.106.106-.236.159-.391.159-.156 0-.286-.053-.391-.159zM117.388 43.089c0-.599.212-1.112.638-1.541.425-.428.991-.642 1.699-.642.443 0 .836.094 1.176.281.339.187.607.444.808.771s.348.691.443 1.091.144.837.144 1.309c0 .628-.094 1.194-.28 1.697s-.489.919-.908 1.25-.927.496-1.524.496c-.757 0-1.373-.267-1.847-.8l.415-.612c.388.447.865.67 1.432.67.428 0 .787-.133 1.08-.4.294-.267.501-.59.621-.969.121-.379.182-.796.182-1.252l-.01-.259c-.166.273-.423.519-.77.737-.348.218-.719.327-1.113.327-.633 0-1.154-.187-1.566-.561s-.62-.905-.62-1.593zm.83-.029c0 .466.144.822.433 1.069.289.248.66.371 1.113.371.325 0 .641-.092.943-.276s.546-.425.729-.725c-.02-.221-.064-.436-.135-.642s-.168-.403-.295-.588c-.128-.186-.3-.335-.517-.449-.217-.114-.462-.171-.735-.171-.473 0-.848.145-1.123.435-.276.289-.413.614-.413.976zM123.018 42.737l1.67-1.719h.732v6.67h-.83v-5.581l-1.074 1.143-.498-.513z"/><path fill="#E6E7E8" d="M10.185 12.119h129.815v-2.519l-129.815 1.259z"/><path fill="#2A3052" d="M140 140h-140v-84.503h73.518l9.416-11.667h57.066z"/><path fill="#D1D3D4" d="M0 55.497h73.518l9.416-11.667-10.457 9.852z"/></svg>