<svg xmlns="http://www.w3.org/2000/svg" width="140" height="140" viewBox="0 0 140 140"><path fill="#F3F3F3" d="M1 1h138v138h-138z"/><path fill="#CDCCCC" d="M138 2v136h-136v-136h136m2-2h-140v140h140v-140z"/><path stroke="#CDCCCC" stroke-width="2" fill="none" d="M140 39.204h-140M140 19.063h-140M140 59.344h-140M140 79.485h-140M140 99.626h-140M140 119.767h-140"/><path d="M14.8 27.857c.254-.334.585-.593.994-.777.409-.185.851-.277 1.326-.277.605 0 1.128.169 1.567.509s.659.823.659 1.453c0 .618-.266 1.235-.798 1.851-.532.617-1.345 1.354-2.439 2.212h3.271v.742h-4.58v-.669c1.371-1.067 2.333-1.89 2.886-2.468.553-.579.83-1.135.83-1.668 0-.4-.138-.704-.415-.91-.277-.206-.604-.31-.981-.31-.768 0-1.372.28-1.812.839l-.508-.527zM20.806 32.618l.513-.557c.459.593 1.071.889 1.836.889.453 0 .823-.137 1.111-.41s.432-.613.432-1.021c0-.433-.142-.781-.425-1.045s-.653-.396-1.108-.396c-.592 0-1.105.207-1.538.62l-.61-.21v-3.588h4.082v.742h-3.252v2.315c.414-.414.934-.621 1.563-.621.59 0 1.09.194 1.502.581.412.388.617.912.617 1.572 0 .661-.225 1.193-.675 1.597-.45.404-1.017.605-1.703.605-1.024-.002-1.805-.36-2.345-1.073zM26.804 33.509c-.106-.106-.159-.235-.159-.388 0-.153.053-.283.159-.391s.236-.161.391-.161.285.054.391.161.159.238.159.391c0 .153-.053.282-.159.388s-.236.159-.391.159-.285-.053-.391-.159zM28.7 31.472c-.097-.394-.145-.803-.145-1.229s.048-.836.145-1.23c.097-.394.243-.76.438-1.097.195-.337.459-.607.793-.809.334-.202.719-.303 1.155-.303.43 0 .814.101 1.152.303.338.202.604.472.8.809.196.337.341.703.437 1.097s.143.804.143 1.23-.048.836-.143 1.229-.241.76-.437 1.1c-.196.34-.462.612-.8.815-.338.203-.722.305-1.152.305-.436 0-.82-.102-1.155-.305-.334-.204-.599-.475-.793-.815-.195-.34-.341-.706-.438-1.1zm.834-2.527c-.099.387-.149.819-.149 1.297s.05.911.149 1.298c.1.387.283.719.55.995.268.276.602.415 1.002.415s.734-.138 1-.415.449-.608.55-.995c.101-.387.151-.82.151-1.298s-.051-.911-.151-1.297c-.102-.387-.285-.717-.55-.991-.266-.273-.599-.41-1-.41s-.735.137-1.002.41c-.267.274-.451.604-.55.991zM34.818 31.472c-.097-.394-.145-.803-.145-1.229s.048-.836.145-1.23c.097-.394.243-.76.438-1.097.195-.337.459-.607.793-.809.334-.202.719-.303 1.155-.303.43 0 .814.101 1.152.303.338.202.604.472.8.809.196.337.341.703.437 1.097s.143.804.143 1.23-.048.836-.143 1.229-.241.76-.437 1.1c-.196.34-.462.612-.8.815-.338.203-.722.305-1.152.305-.436 0-.82-.102-1.155-.305-.334-.204-.599-.475-.793-.815-.195-.34-.341-.706-.438-1.1zm.834-2.527c-.099.387-.149.819-.149 1.297s.05.911.149 1.298c.1.387.283.719.55.995.268.276.602.415 1.002.415s.734-.138 1-.415.449-.608.55-.995c.101-.387.151-.82.151-1.298s-.051-.911-.151-1.297c-.102-.387-.285-.717-.55-.991-.266-.273-.599-.41-1-.41s-.735.137-1.002.41c-.267.274-.451.604-.55.991z"/><g fill="#2F8942"><path d="M101.467 27.857c.254-.334.584-.593.993-.777.409-.185.851-.277 1.325-.277.605 0 1.129.169 1.568.509s.658.823.658 1.453c0 .618-.266 1.235-.798 1.851-.532.617-1.345 1.354-2.438 2.212h3.271v.742h-4.58v-.669c1.37-1.067 2.332-1.89 2.885-2.468.554-.579.83-1.135.83-1.668 0-.4-.138-.704-.414-.91-.277-.206-.604-.31-.982-.31-.768 0-1.371.28-1.811.839l-.507-.527zM107.135 31.891v-.698l2.857-4.292h1.143v4.248h.938v.742h-.938v1.68h-.83v-1.68h-3.17zm.83-.743h2.34v-3.477l-2.34 3.477zM113.148 33.509c-.105-.106-.158-.235-.158-.388 0-.153.053-.283.158-.391s.236-.161.391-.161.285.054.391.161.158.238.158.391c0 .153-.053.282-.158.388s-.236.159-.391.159-.285-.053-.391-.159zM115.23 27.857c.254-.334.586-.593.994-.777.408-.185.851-.277 1.326-.277.605 0 1.127.169 1.566.509s.66.823.66 1.453c0 .618-.267 1.235-.799 1.851-.532.617-1.346 1.354-2.439 2.212h3.271v.742h-4.58v-.669c1.371-1.067 2.334-1.89 2.887-2.468.553-.579.83-1.135.83-1.668 0-.4-.139-.704-.416-.91-.276-.206-.604-.31-.98-.31-.769 0-1.373.28-1.813.839l-.507-.527zM121.236 32.618l.514-.557c.459.593 1.07.889 1.836.889.452 0 .822-.137 1.11-.41s.433-.613.433-1.021c0-.433-.143-.781-.426-1.045s-.652-.396-1.107-.396c-.593 0-1.105.207-1.539.62l-.609-.21v-3.588h4.082v.742h-3.252v2.315c.413-.414.934-.621 1.563-.621.59 0 1.09.194 1.502.581.411.388.617.912.617 1.572 0 .661-.226 1.193-.676 1.597-.449.404-1.017.605-1.702.605-1.023-.002-1.805-.36-2.346-1.073z"/></g><path d="M14.478 9.094l1.67-1.719h.732v6.67h-.83v-5.581l-1.074 1.143-.498-.513zM18.416 13.984c-.106-.106-.159-.235-.159-.388 0-.153.053-.283.159-.391s.236-.161.391-.161.285.054.391.161.159.238.159.391c0 .153-.053.282-.159.388s-.236.159-.391.159-.286-.053-.391-.159zM20.166 10.715c0-.973.231-1.79.694-2.449.463-.659 1.137-.989 2.024-.989.773 0 1.384.267 1.832.8l-.415.61c-.388-.445-.86-.668-1.417-.668-.606 0-1.073.256-1.399.768-.326.512-.489 1.129-.489 1.85v.258c.166-.273.425-.519.777-.737.352-.218.726-.327 1.12-.327.632 0 1.152.187 1.559.561.407.374.611.905.611 1.593 0 .599-.212 1.112-.638 1.541-.425.428-.986.642-1.684.642-.451 0-.846-.094-1.186-.281s-.607-.444-.803-.771c-.197-.327-.344-.691-.441-1.091s-.145-.838-.145-1.31zm.864.849c.039.495.195.929.469 1.301s.675.559 1.203.559c.479 0 .854-.146 1.125-.439s.406-.617.406-.972c0-.465-.144-.822-.43-1.069-.287-.247-.654-.371-1.101-.371-.326 0-.64.092-.941.276-.301.184-.545.422-.731.715zM25.889 12.365v-.698l2.856-4.292h1.143v4.248h.938v.742h-.938v1.68h-.83v-1.68h-3.169zm.83-.742h2.339v-3.477l-2.339 3.477z"/><g fill="#2F8942"><path d="M101.145 9.094l1.67-1.719h.732v6.67h-.83v-5.581l-1.074 1.143-.498-.513zM105.082 13.984c-.105-.106-.158-.235-.158-.388 0-.153.053-.283.158-.391s.236-.161.391-.161.285.054.391.161.158.238.158.391c0 .153-.053.282-.158.388s-.236.159-.391.159-.285-.053-.391-.159zM106.92 13.063l.494-.518c.198.267.461.48.788.64.327.16.685.239 1.071.239.479 0 .858-.113 1.139-.339.279-.226.42-.53.42-.911 0-.4-.148-.697-.445-.891-.296-.194-.701-.291-1.215-.291-.395 0-.624.003-.689.01v-.762c.075.007.305.01.689.01.452 0 .824-.092 1.115-.275s.438-.457.438-.821c0-.354-.143-.632-.426-.835s-.639-.305-1.068-.305c-.674 0-1.26.27-1.758.809l-.459-.521c.56-.687 1.322-1.03 2.289-1.03.661 0 1.201.159 1.621.476s.631.749.631 1.295c0 .439-.148.792-.442 1.059s-.624.429-.989.488c.368.04.717.203 1.045.492.329.289.494.676.494 1.162 0 .566-.215 1.029-.645 1.387-.43.358-1.005.537-1.725.537-.533 0-1.007-.104-1.42-.313-.414-.209-.731-.472-.953-.792zM112.707 10.715c0-.973.23-1.79.693-2.449s1.137-.989 2.023-.989c.773 0 1.385.267 1.832.8l-.414.61c-.389-.445-.86-.668-1.418-.668-.605 0-1.072.256-1.398.768s-.488 1.129-.488 1.85v.258c.166-.273.425-.519.777-.737.352-.218.725-.327 1.119-.327.633 0 1.152.187 1.56.561.407.374.61.905.61 1.593 0 .599-.212 1.112-.637 1.541-.426.428-.986.642-1.685.642-.451 0-.847-.094-1.186-.281s-.606-.444-.804-.771c-.196-.327-.344-.691-.44-1.091s-.144-.838-.144-1.31zm.863.849c.039.495.195.929.47 1.301s.675.559 1.203.559c.479 0 .854-.146 1.125-.439s.405-.617.405-.972c0-.465-.143-.822-.43-1.069-.287-.247-.654-.371-1.101-.371-.325 0-.64.092-.941.276s-.544.422-.731.715z"/></g><path d="M14.478 49.619l1.67-1.719h.732v6.67h-.83v-5.581l-1.074 1.143-.498-.513zM18.416 54.509c-.106-.106-.159-.235-.159-.388 0-.153.053-.283.159-.391s.236-.161.391-.161.285.054.391.161.159.238.159.391c0 .153-.053.282-.159.388s-.236.159-.391.159-.286-.053-.391-.159zM20.625 53.618l.513-.557c.459.593 1.071.889 1.836.889.453 0 .823-.137 1.111-.41s.432-.613.432-1.021c0-.433-.142-.781-.425-1.045s-.653-.396-1.108-.396c-.592 0-1.105.207-1.538.62l-.61-.21v-3.588h4.082v.742h-3.252v2.315c.414-.414.934-.621 1.563-.621.59 0 1.09.194 1.502.581.412.388.617.912.617 1.572 0 .661-.225 1.193-.675 1.597-.45.404-1.017.605-1.703.605-1.024-.002-1.805-.36-2.345-1.073zM26.396 48.857c.254-.334.585-.593.994-.777.409-.185.851-.277 1.326-.277.605 0 1.128.169 1.567.509s.659.823.659 1.453c0 .618-.266 1.235-.798 1.851-.532.617-1.345 1.354-2.439 2.212h3.271v.742h-4.58v-.669c1.371-1.067 2.333-1.89 2.886-2.468.553-.579.83-1.135.83-1.668 0-.4-.138-.704-.415-.91-.277-.206-.604-.31-.981-.31-.768 0-1.372.28-1.812.839l-.508-.527z"/><g fill="#2F8942"><path d="M101.145 49.619l1.67-1.719h.732v6.67h-.83v-5.581l-1.074 1.143-.498-.513zM105.082 54.509c-.105-.106-.158-.235-.158-.388 0-.153.053-.283.158-.391s.236-.161.391-.161.285.054.391.161.158.238.158.391c0 .153-.053.282-.158.388s-.236.159-.391.159-.285-.053-.391-.159zM106.955 52.891v-.698l2.855-4.292h1.143v4.248h.938v.742h-.938v1.68h-.83v-1.68h-3.168zm.83-.743h2.338v-3.477l-2.338 3.477zM112.73 52.882c0-.419.15-.783.452-1.09.301-.307.677-.528 1.126-.661-.424-.12-.774-.314-1.053-.583-.278-.269-.418-.606-.418-1.013 0-.561.227-.99.678-1.287s.982-.445 1.596-.445 1.146.148 1.602.445c.454.297.682.726.682 1.287 0 .407-.141.745-.423 1.015-.282.27-.634.464-1.058.581.449.133.824.354 1.126.661s.452.671.452 1.09c0 .547-.227.985-.68 1.315s-1.02.495-1.701.495-1.248-.164-1.701-.49c-.453-.327-.68-.767-.68-1.32zm.831-.093c0 .345.15.625.45.839.3.215.667.322 1.101.322.428 0 .793-.106 1.096-.319s.455-.494.455-.842c0-.267-.105-.501-.316-.702-.21-.202-.424-.345-.641-.43-.217-.084-.414-.137-.594-.156-.18.02-.377.072-.594.156-.217.085-.431.228-.641.43-.211.201-.316.435-.316.702zm.107-3.146c0 .186.055.354.162.505s.248.269.42.352c.174.083.326.147.461.195.133.047.267.081.4.1.134-.02.27-.053.406-.1l.465-.195c.172-.083.313-.199.42-.349s.162-.319.162-.507c0-.332-.139-.598-.416-.798-.277-.2-.623-.3-1.037-.3s-.758.099-1.032.295c-.274.196-.411.463-.411.802z"/></g><path d="M14.927 73.618l.513-.557c.459.593 1.071.889 1.836.889.453 0 .823-.137 1.111-.41s.432-.613.432-1.021c0-.433-.142-.781-.425-1.045s-.653-.396-1.108-.396c-.592 0-1.105.207-1.538.62l-.61-.21v-3.588h4.082v.742h-3.252v2.315c.414-.414.934-.621 1.563-.621.59 0 1.09.194 1.502.581.412.388.617.911.617 1.572s-.225 1.193-.675 1.597-1.017.605-1.703.605c-1.024-.002-1.805-.36-2.345-1.073zM20.925 74.51c-.106-.106-.159-.235-.159-.389s.053-.283.159-.391.236-.161.391-.161.285.054.391.161.159.237.159.391-.053.282-.159.389c-.106.105-.236.158-.391.158s-.285-.053-.391-.158zM22.798 72.891v-.697l2.856-4.293h1.143v4.248h.938v.742h-.938v1.68h-.83v-1.68h-3.169zm.83-.743h2.339v-3.477l-2.339 3.477zM28.705 72.473c-.097-.395-.145-.804-.145-1.23 0-.426.048-.836.145-1.23.097-.394.243-.76.438-1.097.195-.337.459-.607.793-.809.334-.202.719-.303 1.155-.303.43 0 .814.101 1.152.303.338.202.604.472.8.809.196.337.341.703.437 1.097s.143.804.143 1.23c0 .427-.048.836-.143 1.23-.095.394-.241.76-.437 1.1s-.462.611-.8.815c-.338.203-.722.305-1.152.305-.436 0-.82-.102-1.155-.305-.334-.204-.599-.476-.793-.815-.195-.341-.341-.707-.438-1.1zm.834-2.528c-.099.387-.149.819-.149 1.298 0 .478.05.91.149 1.297.1.388.283.719.55.995.268.277.602.415 1.002.415s.734-.138 1-.415c.266-.276.449-.607.55-.995.101-.387.151-.819.151-1.297 0-.479-.051-.911-.151-1.298-.102-.387-.285-.717-.55-.991-.266-.273-.599-.41-1-.41s-.735.137-1.002.41c-.267.274-.451.604-.55.991z"/><g fill="#2F8942"><path d="M101.256 72.891v-.697l2.857-4.293h1.143v4.248h.938v.742h-.938v1.68h-.83v-1.68h-3.17zm.83-.743h2.34v-3.477l-2.34 3.477zM107.27 74.51c-.105-.106-.158-.235-.158-.389s.053-.283.158-.391.236-.161.391-.161.285.054.391.161.158.237.158.391-.053.282-.158.389c-.105.105-.236.158-.391.158s-.286-.053-.391-.158zM109.02 71.24c0-.973.232-1.79.694-2.449.463-.659 1.138-.989 2.024-.989.772 0 1.383.267 1.832.8l-.416.61c-.387-.445-.859-.668-1.416-.668-.607 0-1.073.256-1.399.768-.325.512-.489 1.129-.489 1.85v.259c.166-.273.426-.519.777-.737.353-.218.727-.327 1.121-.327.632 0 1.152.187 1.559.561.407.374.611.904.611 1.593 0 .599-.213 1.112-.639 1.541-.424.428-.986.642-1.684.642-.451 0-.846-.094-1.186-.28-.34-.188-.607-.445-.803-.771-.197-.328-.344-.691-.441-1.092s-.145-.839-.145-1.311zm.865.85c.039.495.195.929.469 1.301.273.373.676.56 1.203.56.479 0 .854-.146 1.125-.439s.406-.617.406-.972c0-.466-.145-.822-.431-1.069-.287-.247-.653-.371-1.101-.371-.326 0-.64.092-.941.276-.301.183-.545.421-.73.714zM115.073 72.473c-.097-.395-.146-.804-.146-1.23 0-.426.049-.836.146-1.23s.243-.76.438-1.097c.195-.337.459-.607.793-.809.335-.202.72-.303 1.155-.303.431 0 .813.101 1.151.303.338.202.605.472.801.809.195.337.342.703.437 1.097s.144.804.144 1.23c0 .427-.049.836-.144 1.23-.095.394-.241.76-.437 1.1s-.463.611-.801.815c-.338.203-.721.305-1.151.305-.436 0-.82-.102-1.155-.305-.334-.204-.598-.476-.793-.815s-.341-.707-.438-1.1zm.834-2.528c-.099.387-.149.819-.149 1.298 0 .478.051.91.149 1.297.1.388.283.719.55.995.268.277.602.415 1.003.415s.734-.138 1-.415c.266-.276.448-.607.55-.995.102-.387.152-.819.152-1.297 0-.479-.051-.911-.152-1.298-.102-.387-.284-.717-.55-.991-.266-.273-.599-.41-1-.41s-.735.137-1.003.41c-.267.274-.45.604-.55.991z"/></g><path d="M14.478 88.369l1.67-1.719h.732v6.67h-.83v-5.581l-1.074 1.143-.498-.513zM18.416 93.26c-.106-.106-.159-.235-.159-.389s.053-.283.159-.391.236-.161.391-.161.285.054.391.161.159.237.159.391-.053.282-.159.389c-.106.105-.236.158-.391.158s-.286-.053-.391-.158zM20.166 89.99c0-.974.231-1.789.694-2.449.463-.658 1.137-.988 2.024-.988.773 0 1.384.267 1.832.8l-.415.61c-.388-.445-.86-.668-1.417-.668-.606 0-1.073.256-1.399.768-.326.512-.489 1.129-.489 1.85v.259c.166-.273.425-.519.777-.737.352-.218.726-.327 1.12-.327.632 0 1.152.187 1.559.561.407.374.611.904.611 1.593 0 .599-.212 1.112-.638 1.541-.425.428-.986.642-1.684.642-.451 0-.846-.094-1.186-.28-.339-.188-.607-.445-.803-.771-.197-.328-.344-.691-.441-1.092s-.145-.84-.145-1.312zm.864.85c.039.495.195.929.469 1.301.274.373.675.56 1.203.56.479 0 .854-.146 1.125-.439s.406-.617.406-.972c0-.466-.144-.822-.43-1.069-.287-.247-.654-.371-1.101-.371-.326 0-.64.092-.941.276-.301.183-.545.421-.731.714zM26.089 91.632c0-.42.15-.783.452-1.091.301-.307.677-.527 1.126-.66-.424-.121-.775-.314-1.053-.583s-.417-.606-.417-1.013c0-.561.226-.99.677-1.287s.983-.445 1.596-.445 1.146.148 1.601.445.682.727.682 1.287c0 .406-.141.745-.422 1.015-.282.271-.634.464-1.058.581.45.133.825.354 1.126.66.301.308.452.671.452 1.091 0 .547-.227.985-.679 1.315s-1.02.495-1.701.495c-.682 0-1.249-.163-1.701-.49-.455-.327-.681-.767-.681-1.32zm.83-.093c0 .345.15.625.45.839.3.215.667.322 1.101.322.427 0 .792-.106 1.095-.319.303-.213.455-.494.455-.842 0-.267-.105-.501-.315-.702-.21-.202-.424-.345-.641-.43-.217-.084-.415-.137-.594-.156-.179.02-.377.072-.594.156-.217.085-.43.228-.641.43-.211.201-.316.435-.316.702zm.107-3.146c0 .186.054.354.161.505.108.151.248.269.421.352l.46.194c.133.048.267.081.401.101.134-.02.269-.053.406-.101.137-.047.292-.111.465-.194s.313-.199.42-.349c.108-.15.162-.319.162-.508 0-.332-.139-.598-.416-.798-.277-.2-.623-.3-1.037-.3s-.758.099-1.032.295c-.274.197-.411.465-.411.803z"/><g fill="#EF4136"><path d="M101.232 91.23v-.688h2.402v.688h-2.402zM104.143 88.369l1.67-1.719h.732v6.67h-.83v-5.581l-1.074 1.143-.498-.513zM108.08 93.26c-.105-.106-.158-.235-.158-.389s.053-.283.158-.391.236-.161.391-.161.285.054.391.161.158.237.158.391-.053.282-.158.389c-.105.105-.236.158-.391.158s-.285-.053-.391-.158zM109.83 89.99c0-.974.232-1.789.694-2.449.463-.658 1.138-.988 2.024-.988.772 0 1.383.267 1.832.8l-.416.61c-.387-.445-.859-.668-1.416-.668-.607 0-1.073.256-1.399.768-.325.512-.489 1.129-.489 1.85v.259c.166-.273.426-.519.777-.737.353-.218.727-.327 1.121-.327.632 0 1.152.187 1.559.561.407.374.611.904.611 1.593 0 .599-.213 1.112-.639 1.541-.424.428-.986.642-1.684.642-.451 0-.846-.094-1.186-.28-.34-.188-.607-.445-.803-.771-.197-.328-.344-.691-.441-1.092s-.145-.84-.145-1.312zm.865.85c.039.495.195.929.469 1.301.273.373.676.56 1.203.56.479 0 .854-.146 1.125-.439s.406-.617.406-.972c0-.466-.145-.822-.431-1.069-.287-.247-.653-.371-1.101-.371-.326 0-.64.092-.941.276-.3.183-.544.421-.73.714zM115.754 91.632c0-.42.15-.783.451-1.091.301-.307.677-.527 1.127-.66-.424-.121-.775-.314-1.054-.583s-.417-.606-.417-1.013c0-.561.225-.99.676-1.287s.984-.445 1.597-.445 1.146.148 1.601.445c.455.297.682.727.682 1.287 0 .406-.141.745-.422 1.015-.281.271-.635.464-1.059.581.45.133.826.354 1.127.66.301.308.451.671.451 1.091 0 .547-.227.985-.679 1.315s-1.021.495-1.701.495c-.682 0-1.249-.163-1.701-.49-.454-.327-.679-.767-.679-1.32zm.83-.093c0 .345.149.625.449.839.301.215.667.322 1.101.322.427 0 .792-.106 1.095-.319.304-.213.455-.494.455-.842 0-.267-.104-.501-.314-.702-.211-.202-.424-.345-.641-.43-.217-.084-.416-.137-.595-.156-.179.02-.378.072-.595.156-.217.085-.43.228-.641.43-.21.201-.314.435-.314.702zm.107-3.146c0 .186.053.354.16.505.108.151.248.269.422.352.172.083.326.147.459.194.134.048.268.081.401.101.134-.02.269-.053.405-.101.138-.047.293-.111.465-.194.174-.083.313-.199.421-.349.108-.15.161-.319.161-.508 0-.332-.139-.598-.415-.798-.277-.2-.623-.3-1.037-.3s-.759.099-1.032.295c-.273.197-.41.465-.41.803z"/></g><path d="M14.478 108.119l1.67-1.719h.732v6.67h-.83v-5.581l-1.074 1.143-.498-.513zM18.416 113.01c-.106-.106-.159-.235-.159-.389s.053-.283.159-.391.236-.161.391-.161.285.054.391.161.159.237.159.391-.053.282-.159.389c-.106.105-.236.158-.391.158s-.286-.053-.391-.158zM20.166 109.74c0-.974.231-1.789.694-2.449.463-.658 1.137-.988 2.024-.988.773 0 1.384.267 1.832.8l-.415.61c-.388-.445-.86-.668-1.417-.668-.606 0-1.073.256-1.399.768-.326.512-.489 1.129-.489 1.85v.259c.166-.273.425-.519.777-.737.352-.218.726-.327 1.12-.327.632 0 1.152.187 1.559.561.407.374.611.904.611 1.593 0 .599-.212 1.112-.638 1.541-.425.428-.986.642-1.684.642-.451 0-.846-.094-1.186-.28-.339-.188-.607-.445-.803-.771-.197-.328-.344-.691-.441-1.092s-.145-.84-.145-1.312zm.864.85c.039.495.195.929.469 1.301.274.373.675.56 1.203.56.479 0 .854-.146 1.125-.439s.406-.617.406-.972c0-.466-.144-.822-.43-1.069-.287-.247-.654-.371-1.101-.371-.326 0-.64.092-.941.276-.301.183-.545.421-.731.714zM26.074 109.74c0-.974.231-1.789.694-2.449.463-.658 1.137-.988 2.024-.988.773 0 1.384.267 1.832.8l-.415.61c-.388-.445-.86-.668-1.417-.668-.606 0-1.073.256-1.399.768-.326.512-.489 1.129-.489 1.85v.259c.166-.273.425-.519.777-.737.352-.218.726-.327 1.12-.327.632 0 1.152.187 1.559.561.407.374.611.904.611 1.593 0 .599-.212 1.112-.638 1.541-.425.428-.986.642-1.684.642-.451 0-.846-.094-1.186-.28-.339-.188-.607-.445-.803-.771-.197-.328-.344-.691-.441-1.092s-.145-.84-.145-1.312zm.864.85c.039.495.195.929.469 1.301.274.373.675.56 1.203.56.479 0 .854-.146 1.125-.439s.406-.617.406-.972c0-.466-.144-.822-.43-1.069-.287-.247-.654-.371-1.101-.371-.326 0-.64.092-.941.276-.301.183-.544.421-.731.714z"/><g fill="#EF4136"><path d="M101.232 110.98v-.688h2.402v.688h-2.402zM104.143 108.119l1.67-1.719h.732v6.67h-.83v-5.581l-1.074 1.143-.498-.513zM108.08 113.01c-.105-.106-.158-.235-.158-.389s.053-.283.158-.391.236-.161.391-.161.285.054.391.161.158.237.158.391-.053.282-.158.389c-.105.105-.236.158-.391.158s-.285-.053-.391-.158zM109.83 109.74c0-.974.232-1.789.694-2.449.463-.658 1.138-.988 2.024-.988.772 0 1.383.267 1.832.8l-.416.61c-.387-.445-.859-.668-1.416-.668-.607 0-1.073.256-1.399.768-.325.512-.489 1.129-.489 1.85v.259c.166-.273.426-.519.777-.737.353-.218.727-.327 1.121-.327.632 0 1.152.187 1.559.561.407.374.611.904.611 1.593 0 .599-.213 1.112-.639 1.541-.424.428-.986.642-1.684.642-.451 0-.846-.094-1.186-.28-.34-.188-.607-.445-.803-.771-.197-.328-.344-.691-.441-1.092s-.145-.84-.145-1.312zm.865.85c.039.495.195.929.469 1.301.273.373.676.56 1.203.56.479 0 .854-.146 1.125-.439s.406-.617.406-.972c0-.466-.145-.822-.431-1.069-.287-.247-.653-.371-1.101-.371-.326 0-.64.092-.941.276-.3.183-.544.421-.73.714zM115.738 109.74c0-.974.232-1.789.694-2.449.463-.658 1.138-.988 2.024-.988.772 0 1.383.267 1.832.8l-.416.61c-.387-.445-.859-.668-1.416-.668-.607 0-1.073.256-1.399.768-.325.512-.489 1.129-.489 1.85v.259c.166-.273.426-.519.777-.737.353-.218.727-.327 1.121-.327.632 0 1.152.187 1.559.561.407.374.611.904.611 1.593 0 .599-.213 1.112-.639 1.541-.424.428-.986.642-1.684.642-.451 0-.846-.094-1.186-.28-.34-.188-.607-.445-.803-.771-.197-.328-.344-.691-.441-1.092s-.145-.84-.145-1.312zm.866.85c.039.495.195.929.469 1.301.273.373.676.56 1.203.56.479 0 .854-.146 1.125-.439s.406-.617.406-.972c0-.466-.145-.822-.431-1.069-.287-.247-.653-.371-1.101-.371-.326 0-.64.092-.941.276-.301.183-.545.421-.73.714z"/></g><path d="M14.8 126.857c.254-.334.585-.593.994-.777s.851-.277 1.326-.277c.605 0 1.128.17 1.567.509s.659.823.659 1.453c0 .618-.266 1.235-.798 1.852s-1.345 1.354-2.439 2.212h3.271v.742h-4.58v-.669c1.371-1.066 2.333-1.89 2.886-2.469.553-.579.83-1.135.83-1.668 0-.4-.138-.703-.415-.91-.277-.206-.604-.31-.981-.31-.768 0-1.372.279-1.812.839l-.508-.527zM20.906 132.51c-.106-.106-.159-.235-.159-.389s.053-.283.159-.391.236-.161.391-.161.285.054.391.161.159.237.159.391-.053.282-.159.389c-.106.105-.236.158-.391.158s-.285-.053-.391-.158zM22.656 129.24c0-.974.231-1.789.694-2.449.463-.658 1.137-.988 2.024-.988.773 0 1.384.267 1.832.8l-.415.61c-.388-.445-.86-.668-1.417-.668-.606 0-1.073.256-1.399.768-.326.512-.489 1.129-.489 1.85v.259c.166-.273.425-.519.777-.737.352-.218.726-.327 1.12-.327.632 0 1.152.187 1.559.561.407.374.611.904.611 1.593 0 .599-.212 1.112-.638 1.541-.425.428-.986.642-1.684.642-.451 0-.846-.094-1.186-.28-.339-.188-.607-.445-.803-.771-.197-.328-.344-.691-.441-1.092s-.145-.84-.145-1.312zm.865.85c.039.495.195.929.469 1.301.274.373.675.56 1.203.56.479 0 .854-.146 1.125-.439s.406-.617.406-.972c0-.466-.144-.822-.43-1.069-.287-.247-.654-.371-1.101-.371-.326 0-.64.092-.941.276-.302.183-.545.421-.731.714zM28.545 127.971c0-.599.212-1.112.638-1.541.425-.428.991-.642 1.699-.642.444 0 .836.094 1.176.28.339.188.608.445.808.771.2.328.348.691.443 1.092s.144.837.144 1.309c0 .628-.093 1.193-.28 1.697-.187.502-.489.919-.908 1.25-.419.33-.927.495-1.524.495-.757 0-1.373-.267-1.847-.8l.415-.612c.388.446.865.67 1.432.67.427 0 .788-.134 1.081-.4.293-.267.5-.59.621-.97.121-.379.181-.796.181-1.252l-.01-.259c-.167.273-.423.519-.77.737-.347.218-.718.327-1.113.327-.632 0-1.155-.187-1.567-.561-.413-.373-.619-.903-.619-1.591zm.83-.03c0 .466.144.822.433 1.069s.66.371 1.113.371c.326 0 .641-.092.944-.276.303-.184.546-.425.729-.725-.02-.222-.064-.436-.134-.643-.07-.206-.169-.402-.296-.588-.127-.186-.299-.335-.516-.449s-.462-.171-.736-.171c-.473 0-.847.145-1.123.435s-.414.616-.414.977zM59.256 31.891v-.698l2.856-4.292h1.143v4.248h.938v.742h-.938v1.68h-.83v-1.68h-3.169zm.83-.743h2.339v-3.477l-2.339 3.477zM64.999 28.971c0-.599.212-1.112.638-1.541.425-.428.991-.642 1.699-.642.444 0 .836.094 1.176.281s.608.444.808.771.348.691.443 1.091.144.837.144 1.309c0 .628-.093 1.194-.28 1.697-.187.503-.489.919-.908 1.25s-.927.496-1.524.496c-.757 0-1.373-.267-1.847-.8l.415-.612c.388.447.865.67 1.432.67.427 0 .788-.133 1.081-.4.293-.267.5-.59.621-.969s.181-.796.181-1.252l-.01-.259c-.167.273-.423.519-.77.737-.347.218-.718.327-1.113.327-.632 0-1.155-.187-1.567-.561-.413-.374-.619-.905-.619-1.593zm.83-.03c0 .466.144.822.433 1.069.289.248.66.371 1.113.371.326 0 .641-.092.944-.276s.546-.425.729-.725c-.02-.221-.064-.436-.134-.642-.07-.207-.169-.403-.296-.588-.127-.186-.299-.335-.516-.449-.217-.114-.462-.171-.736-.171-.473 0-.847.145-1.123.435-.277.29-.414.615-.414.976zM70.87 33.509c-.106-.106-.159-.235-.159-.388 0-.153.053-.283.159-.391s.235-.161.391-.161.284.054.391.161.159.238.159.391c0 .153-.053.282-.159.388s-.235.159-.391.159-.285-.053-.391-.159zM72.953 27.857c.254-.334.584-.593.993-.777.409-.185.851-.277 1.325-.277.605 0 1.129.169 1.568.509s.658.823.658 1.453c0 .618-.266 1.235-.798 1.851-.532.617-1.345 1.354-2.438 2.212h3.271v.742h-4.58v-.669c1.37-1.067 2.332-1.89 2.885-2.468.554-.579.83-1.135.83-1.668 0-.4-.138-.704-.414-.91-.277-.206-.604-.31-.982-.31-.768 0-1.371.28-1.811.839l-.507-.527zM78.959 32.618l.512-.557c.459.593 1.071.889 1.836.889.453 0 .823-.137 1.111-.41s.432-.613.432-1.021c0-.433-.141-.781-.424-1.045s-.653-.396-1.109-.396c-.592 0-1.104.207-1.537.62l-.611-.21v-3.588h4.082v.742h-3.252v2.315c.414-.414.935-.621 1.563-.621.59 0 1.091.194 1.502.581.412.388.617.912.617 1.572 0 .661-.225 1.193-.674 1.597-.45.404-1.018.605-1.703.605-1.025-.002-1.806-.36-2.345-1.073zM59.222 13.063l.493-.518c.199.267.461.48.789.64.327.16.685.239 1.072.239.479 0 .858-.113 1.138-.339s.42-.53.42-.911c0-.4-.148-.697-.444-.891s-.702-.291-1.216-.291c-.394 0-.624.003-.688.01v-.762c.075.007.304.01.688.01.453 0 .824-.092 1.116-.275s.437-.457.437-.821c0-.354-.142-.632-.425-.835s-.64-.305-1.069-.305c-.674 0-1.26.27-1.758.809l-.459-.521c.56-.687 1.323-1.03 2.29-1.03.661 0 1.201.159 1.621.476s.63.749.63 1.295c0 .439-.147.792-.442 1.059s-.624.429-.989.488c.368.04.716.203 1.045.492s.493.676.493 1.162c0 .566-.215 1.029-.645 1.387-.43.358-1.004.537-1.724.537-.534 0-1.007-.104-1.421-.313s-.731-.472-.952-.792zM65.26 13.984c-.106-.106-.159-.235-.159-.388 0-.153.053-.283.159-.391s.236-.161.391-.161.285.054.391.161.159.238.159.391c0 .153-.053.282-.159.388s-.236.159-.391.159-.285-.053-.391-.159zM67.155 11.947c-.097-.394-.145-.803-.145-1.229s.048-.836.145-1.23c.097-.394.243-.76.438-1.097.195-.337.459-.607.793-.809.334-.202.719-.303 1.155-.303.43 0 .814.101 1.152.303.337.202.605.472.8.809.195.337.342.703.437 1.097s.144.804.144 1.23-.049.836-.144 1.229-.241.76-.437 1.1c-.195.34-.463.612-.8.815-.338.203-.722.305-1.152.305-.436 0-.82-.102-1.155-.305-.334-.204-.599-.475-.793-.815-.195-.34-.341-.707-.438-1.1zm.834-2.527c-.099.387-.149.819-.149 1.297s.05.911.149 1.298c.1.387.283.719.55.995.268.276.602.415 1.002.415s.734-.138 1-.415.449-.608.55-.995c.102-.387.152-.82.152-1.298s-.051-.911-.152-1.297c-.101-.387-.284-.717-.55-.991-.266-.273-.599-.41-1-.41s-.735.137-1.002.41c-.267.274-.45.604-.55.991zM73.273 11.947c-.097-.394-.145-.803-.145-1.229s.048-.836.145-1.23c.098-.394.243-.76.438-1.097.194-.337.46-.607.794-.809.334-.202.719-.303 1.154-.303.43 0 .814.101 1.152.303.338.202.604.472.8.809.196.337.341.703.437 1.097s.143.804.143 1.23-.047.836-.143 1.229-.24.76-.437 1.1c-.196.34-.462.612-.8.815-.338.203-.723.305-1.152.305-.436 0-.82-.102-1.154-.305-.334-.204-.6-.475-.794-.815-.194-.34-.34-.707-.438-1.1zm.834-2.527c-.1.387-.148.819-.148 1.297s.049.911.148 1.298c.1.387.283.719.551.995s.602.415 1.002.415.734-.138 1-.415.449-.608.551-.995c.1-.387.15-.82.15-1.298s-.051-.911-.15-1.297c-.102-.387-.285-.717-.551-.991-.266-.273-.6-.41-1-.41s-.734.137-1.002.41c-.267.274-.451.604-.551.991zM59.222 53.589l.493-.518c.199.267.461.48.789.64.327.16.685.239 1.072.239.479 0 .858-.113 1.138-.339s.42-.53.42-.911c0-.4-.148-.697-.444-.891s-.702-.291-1.216-.291c-.394 0-.624.003-.688.01v-.762c.075.007.304.01.688.01.453 0 .824-.092 1.116-.275s.437-.457.437-.821c0-.354-.142-.632-.425-.835s-.64-.305-1.069-.305c-.674 0-1.26.27-1.758.809l-.459-.521c.56-.687 1.323-1.03 2.29-1.03.661 0 1.201.159 1.621.476s.63.749.63 1.295c0 .439-.147.792-.442 1.059s-.624.429-.989.488c.368.04.716.203 1.045.492s.493.676.493 1.162c0 .566-.215 1.029-.645 1.387-.43.358-1.004.537-1.724.537-.534 0-1.007-.104-1.421-.313s-.731-.473-.952-.792zM65.26 54.509c-.106-.106-.159-.235-.159-.388 0-.153.053-.283.159-.391s.236-.161.391-.161.285.054.391.161.159.238.159.391c0 .153-.053.282-.159.388s-.236.159-.391.159-.285-.053-.391-.159zM67.155 52.472c-.097-.394-.145-.803-.145-1.229s.048-.836.145-1.23c.097-.394.243-.76.438-1.097.195-.337.459-.607.793-.809.334-.202.719-.303 1.155-.303.43 0 .814.101 1.152.303.337.202.605.472.8.809.195.337.342.703.437 1.097s.144.804.144 1.23-.049.836-.144 1.229-.241.76-.437 1.1c-.195.34-.463.612-.8.815-.338.203-.722.305-1.152.305-.436 0-.82-.102-1.155-.305-.334-.204-.599-.475-.793-.815-.195-.34-.341-.706-.438-1.1zm.834-2.527c-.099.387-.149.819-.149 1.297s.05.911.149 1.298c.1.387.283.719.55.995.268.276.602.415 1.002.415s.734-.138 1-.415.449-.608.55-.995c.102-.387.152-.82.152-1.298s-.051-.911-.152-1.297c-.101-.387-.284-.717-.55-.991-.266-.273-.599-.41-1-.41s-.735.137-1.002.41c-.267.274-.45.604-.55.991zM73.273 52.472c-.097-.394-.145-.803-.145-1.229s.048-.836.145-1.23c.098-.394.243-.76.438-1.097.194-.337.46-.607.794-.809.334-.202.719-.303 1.154-.303.43 0 .814.101 1.152.303.338.202.604.472.8.809.196.337.341.703.437 1.097s.143.804.143 1.23-.047.836-.143 1.229-.24.76-.437 1.1c-.196.34-.462.612-.8.815-.338.203-.723.305-1.152.305-.436 0-.82-.102-1.154-.305-.334-.204-.6-.475-.794-.815-.194-.34-.34-.706-.438-1.1zm.834-2.527c-.1.387-.148.819-.148 1.297s.049.911.148 1.298c.1.387.283.719.551.995s.602.415 1.002.415.734-.138 1-.415.449-.608.551-.995c.1-.387.15-.82.15-1.298s-.051-.911-.15-1.297c-.102-.387-.285-.717-.551-.991-.266-.273-.6-.41-1-.41s-.734.137-1.002.41c-.267.274-.451.604-.551.991zM59.144 69.619l1.67-1.719h.732v6.67h-.83v-5.581l-1.074 1.143-.498-.513zM62.976 72.473c-.097-.395-.145-.804-.145-1.23 0-.426.048-.836.145-1.23.097-.394.243-.76.438-1.097.195-.337.459-.607.793-.809.334-.202.719-.303 1.155-.303.43 0 .814.101 1.152.303.338.202.604.472.8.809.196.337.341.703.437 1.097s.143.804.143 1.23c0 .427-.048.836-.143 1.23-.095.394-.241.76-.437 1.1s-.462.611-.8.815c-.338.203-.722.305-1.152.305-.436 0-.82-.102-1.155-.305-.334-.204-.599-.476-.793-.815-.195-.341-.341-.707-.438-1.1zm.834-2.528c-.099.387-.149.819-.149 1.298 0 .478.05.91.149 1.297.1.388.283.719.55.995.268.277.602.415 1.002.415s.734-.138 1-.415c.266-.276.449-.607.55-.995.101-.387.151-.819.151-1.297 0-.479-.051-.911-.151-1.298-.102-.387-.285-.717-.55-.991-.266-.273-.599-.41-1-.41s-.735.137-1.002.41c-.267.274-.451.604-.55.991zM68.893 74.51c-.106-.106-.159-.235-.159-.389s.053-.283.159-.391.236-.161.391-.161.285.054.391.161.159.237.159.391-.053.282-.159.389c-.106.105-.236.158-.391.158s-.285-.053-.391-.158zM70.788 72.473c-.097-.395-.145-.804-.145-1.23 0-.426.048-.836.145-1.23.097-.394.243-.76.438-1.097.195-.337.459-.607.793-.809.335-.202.72-.303 1.155-.303.431 0 .813.101 1.151.303.338.202.605.472.801.809.195.337.342.703.437 1.097s.144.804.144 1.23c0 .427-.049.836-.144 1.23-.095.394-.241.76-.437 1.1s-.463.611-.801.815c-.338.203-.721.305-1.151.305-.436 0-.82-.102-1.155-.305-.334-.204-.598-.476-.793-.815s-.341-.707-.438-1.1zm.834-2.528c-.099.387-.149.819-.149 1.298 0 .478.051.91.149 1.297.1.388.283.719.55.995.268.277.602.415 1.003.415s.734-.138 1-.415c.266-.276.448-.607.55-.995.102-.387.152-.819.152-1.297 0-.479-.051-.911-.152-1.298-.102-.387-.284-.717-.55-.991-.266-.273-.599-.41-1-.41s-.735.137-1.003.41c-.267.274-.45.604-.55.991zM76.906 72.473c-.097-.395-.145-.804-.145-1.23 0-.426.048-.836.145-1.23.098-.394.243-.76.438-1.097.194-.337.46-.607.794-.809.334-.202.719-.303 1.154-.303.43 0 .814.101 1.152.303.338.202.604.472.8.809.196.337.341.703.437 1.097s.143.804.143 1.23c0 .427-.047.836-.143 1.23-.096.394-.24.76-.437 1.1s-.462.611-.8.815c-.338.203-.723.305-1.152.305-.436 0-.82-.102-1.154-.305-.334-.204-.6-.476-.794-.815-.195-.341-.34-.707-.438-1.1zm.834-2.528c-.1.387-.148.819-.148 1.298 0 .478.049.91.148 1.297.1.388.283.719.551.995.268.277.602.415 1.002.415s.734-.138 1-.415c.266-.276.449-.607.551-.995.1-.387.15-.819.15-1.297 0-.479-.051-.911-.15-1.298-.102-.387-.285-.717-.551-.991-.266-.273-.6-.41-1-.41s-.734.137-1.002.41c-.268.274-.451.604-.551.991zM59.587 91.223c-.097-.395-.145-.804-.145-1.23 0-.426.048-.836.145-1.23.097-.394.243-.76.438-1.097.195-.337.459-.607.793-.81.334-.201.719-.303 1.155-.303.43 0 .814.102 1.152.303.338.202.604.473.8.81s.341.703.437 1.097c.095.395.143.805.143 1.23 0 .427-.048.836-.143 1.23-.095.394-.241.76-.437 1.1s-.462.611-.8.815c-.338.203-.722.305-1.152.305-.436 0-.82-.102-1.155-.305-.334-.204-.599-.476-.793-.815-.195-.341-.341-.707-.438-1.1zm.834-2.528c-.099.387-.149.819-.149 1.298 0 .478.05.91.149 1.297.1.388.283.719.55.995.268.277.602.415 1.002.415s.734-.138 1-.415c.266-.276.449-.607.55-.995.101-.387.151-.819.151-1.297 0-.479-.051-.911-.151-1.298-.102-.388-.285-.718-.55-.99-.266-.273-.599-.41-1-.41s-.735.137-1.002.41c-.267.273-.45.603-.55.99zM65.504 93.26c-.106-.106-.159-.235-.159-.389s.053-.283.159-.391.236-.161.391-.161.285.054.391.161.159.237.159.391-.053.282-.159.389c-.106.105-.236.158-.391.158s-.285-.053-.391-.158zM67.399 91.223c-.097-.395-.145-.804-.145-1.23 0-.426.048-.836.145-1.23.097-.394.243-.76.438-1.097.195-.337.459-.607.793-.81.334-.201.719-.303 1.155-.303.43 0 .814.102 1.152.303.337.202.605.473.8.81s.342.703.437 1.097c.095.395.144.805.144 1.23 0 .427-.049.836-.144 1.23-.095.394-.241.76-.437 1.1s-.463.611-.8.815c-.338.203-.722.305-1.152.305-.436 0-.82-.102-1.155-.305-.334-.204-.599-.476-.793-.815-.194-.341-.34-.707-.438-1.1zm.834-2.528c-.099.387-.149.819-.149 1.298 0 .478.05.91.149 1.297.1.388.283.719.55.995.268.277.602.415 1.002.415s.734-.138 1-.415c.266-.276.448-.607.55-.995.102-.387.152-.819.152-1.297 0-.479-.051-.911-.152-1.298-.102-.388-.284-.718-.55-.99-.266-.273-.599-.41-1-.41s-.735.137-1.002.41c-.266.273-.45.603-.55.99zM73.518 91.223c-.097-.395-.145-.804-.145-1.23 0-.426.048-.836.145-1.23.098-.394.243-.76.438-1.097.194-.337.46-.607.794-.81.334-.201.719-.303 1.154-.303.43 0 .814.102 1.152.303.338.202.604.473.8.81s.341.703.437 1.097c.096.395.143.805.143 1.23 0 .427-.047.836-.143 1.23-.096.394-.24.76-.437 1.1s-.462.611-.8.815c-.338.203-.723.305-1.152.305-.436 0-.82-.102-1.154-.305-.334-.204-.6-.476-.794-.815-.195-.341-.341-.707-.438-1.1zm.834-2.528c-.1.387-.148.819-.148 1.298 0 .478.049.91.148 1.297.1.388.283.719.551.995.268.277.602.415 1.002.415s.734-.138 1-.415c.266-.276.449-.607.551-.995.1-.387.15-.819.15-1.297 0-.479-.051-.911-.15-1.298-.102-.388-.285-.718-.551-.99-.266-.273-.6-.41-1-.41s-.734.137-1.002.41c-.268.273-.452.603-.551.99zM59.587 110.973c-.097-.395-.145-.804-.145-1.23 0-.426.048-.836.145-1.23.097-.394.243-.76.438-1.097.195-.337.459-.607.793-.81.334-.201.719-.303 1.155-.303.43 0 .814.102 1.152.303.338.202.604.473.8.81s.341.703.437 1.097c.095.395.143.805.143 1.23 0 .427-.048.836-.143 1.23-.095.394-.241.76-.437 1.1s-.462.611-.8.815c-.338.203-.722.305-1.152.305-.436 0-.82-.102-1.155-.305-.334-.204-.599-.476-.793-.815-.195-.341-.341-.707-.438-1.1zm.834-2.528c-.099.387-.149.819-.149 1.298 0 .478.05.91.149 1.297.1.388.283.719.55.995.268.277.602.415 1.002.415s.734-.138 1-.415c.266-.276.449-.607.55-.995.101-.387.151-.819.151-1.297 0-.479-.051-.911-.151-1.298-.102-.388-.285-.718-.55-.99-.266-.273-.599-.41-1-.41s-.735.137-1.002.41c-.267.273-.45.603-.55.99zM65.504 113.01c-.106-.106-.159-.235-.159-.389s.053-.283.159-.391.236-.161.391-.161.285.054.391.161.159.237.159.391-.053.282-.159.389c-.106.105-.236.158-.391.158s-.285-.053-.391-.158zM67.399 110.973c-.097-.395-.145-.804-.145-1.23 0-.426.048-.836.145-1.23.097-.394.243-.76.438-1.097.195-.337.459-.607.793-.81.334-.201.719-.303 1.155-.303.43 0 .814.102 1.152.303.337.202.605.473.8.81s.342.703.437 1.097c.095.395.144.805.144 1.23 0 .427-.049.836-.144 1.23-.095.394-.241.76-.437 1.1s-.463.611-.8.815c-.338.203-.722.305-1.152.305-.436 0-.82-.102-1.155-.305-.334-.204-.599-.476-.793-.815-.194-.341-.34-.707-.438-1.1zm.834-2.528c-.099.387-.149.819-.149 1.298 0 .478.05.91.149 1.297.1.388.283.719.55.995.268.277.602.415 1.002.415s.734-.138 1-.415c.266-.276.448-.607.55-.995.102-.387.152-.819.152-1.297 0-.479-.051-.911-.152-1.298-.102-.388-.284-.718-.55-.99-.266-.273-.599-.41-1-.41s-.735.137-1.002.41c-.266.273-.45.603-.55.99zM73.518 110.973c-.097-.395-.145-.804-.145-1.23 0-.426.048-.836.145-1.23.098-.394.243-.76.438-1.097.194-.337.46-.607.794-.81.334-.201.719-.303 1.154-.303.43 0 .814.102 1.152.303.338.202.604.473.8.81s.341.703.437 1.097c.096.395.143.805.143 1.23 0 .427-.047.836-.143 1.23-.096.394-.24.76-.437 1.1s-.462.611-.8.815c-.338.203-.723.305-1.152.305-.436 0-.82-.102-1.154-.305-.334-.204-.6-.476-.794-.815-.195-.341-.341-.707-.438-1.1zm.834-2.528c-.1.387-.148.819-.148 1.298 0 .478.049.91.148 1.297.1.388.283.719.551.995.268.277.602.415 1.002.415s.734-.138 1-.415c.266-.276.449-.607.551-.995.1-.387.15-.819.15-1.297 0-.479-.051-.911-.15-1.298-.102-.388-.285-.718-.551-.99-.266-.273-.6-.41-1-.41s-.734.137-1.002.41c-.268.273-.452.603-.551.99zM59.587 130.473c-.097-.395-.145-.804-.145-1.23 0-.426.048-.836.145-1.23.097-.394.243-.76.438-1.097.195-.337.459-.607.793-.81.334-.201.719-.303 1.155-.303.43 0 .814.102 1.152.303.338.202.604.473.8.81s.341.703.437 1.097c.095.395.143.805.143 1.23 0 .427-.048.836-.143 1.23-.095.394-.241.76-.437 1.1s-.462.611-.8.815c-.338.203-.722.305-1.152.305-.436 0-.82-.102-1.155-.305-.334-.204-.599-.476-.793-.815-.195-.341-.341-.707-.438-1.1zm.834-2.528c-.099.387-.149.819-.149 1.298 0 .478.05.91.149 1.297.1.388.283.719.55.995.268.277.602.415 1.002.415s.734-.138 1-.415c.266-.276.449-.607.55-.995.101-.387.151-.819.151-1.297 0-.479-.051-.911-.151-1.298-.102-.388-.285-.718-.55-.99-.266-.273-.599-.41-1-.41s-.735.137-1.002.41c-.267.273-.45.603-.55.99zM65.504 132.51c-.106-.106-.159-.235-.159-.389s.053-.283.159-.391.236-.161.391-.161.285.054.391.161.159.237.159.391-.053.282-.159.389c-.106.105-.236.158-.391.158s-.285-.053-.391-.158zM67.399 130.473c-.097-.395-.145-.804-.145-1.23 0-.426.048-.836.145-1.23.097-.394.243-.76.438-1.097.195-.337.459-.607.793-.81.334-.201.719-.303 1.155-.303.43 0 .814.102 1.152.303.337.202.605.473.8.81s.342.703.437 1.097c.095.395.144.805.144 1.23 0 .427-.049.836-.144 1.23-.095.394-.241.76-.437 1.1s-.463.611-.8.815c-.338.203-.722.305-1.152.305-.436 0-.82-.102-1.155-.305-.334-.204-.599-.476-.793-.815-.194-.341-.34-.707-.438-1.1zm.834-2.528c-.099.387-.149.819-.149 1.298 0 .478.05.91.149 1.297.1.388.283.719.55.995.268.277.602.415 1.002.415s.734-.138 1-.415c.266-.276.448-.607.55-.995.102-.387.152-.819.152-1.297 0-.479-.051-.911-.152-1.298-.102-.388-.284-.718-.55-.99-.266-.273-.599-.41-1-.41s-.735.137-1.002.41c-.266.273-.45.603-.55.99zM73.518 130.473c-.097-.395-.145-.804-.145-1.23 0-.426.048-.836.145-1.23.098-.394.243-.76.438-1.097.194-.337.46-.607.794-.81.334-.201.719-.303 1.154-.303.43 0 .814.102 1.152.303.338.202.604.473.8.81s.341.703.437 1.097c.096.395.143.805.143 1.23 0 .427-.047.836-.143 1.23-.096.394-.24.76-.437 1.1s-.462.611-.8.815c-.338.203-.723.305-1.152.305-.436 0-.82-.102-1.154-.305-.334-.204-.6-.476-.794-.815-.195-.341-.341-.707-.438-1.1zm.834-2.528c-.1.387-.148.819-.148 1.298 0 .478.049.91.148 1.297.1.388.283.719.551.995.268.277.602.415 1.002.415s.734-.138 1-.415c.266-.276.449-.607.551-.995.1-.387.15-.819.15-1.297 0-.479-.051-.911-.15-1.298-.102-.388-.285-.718-.551-.99-.266-.273-.6-.41-1-.41s-.734.137-1.002.41c-.268.273-.452.603-.551.99z"/><g fill="#EF4136"><path d="M101.232 130.48v-.688h2.402v.688h-2.402zM104.465 126.857c.254-.334.584-.593.993-.777s.851-.277 1.325-.277c.605 0 1.129.17 1.568.509s.658.823.658 1.453c0 .618-.266 1.235-.798 1.852s-1.345 1.354-2.438 2.212h3.271v.742h-4.58v-.669c1.37-1.066 2.332-1.89 2.885-2.469.554-.579.83-1.135.83-1.668 0-.4-.138-.703-.414-.91-.277-.206-.604-.31-.982-.31-.768 0-1.371.279-1.811.839l-.507-.527zM110.57 132.51c-.105-.106-.158-.235-.158-.389s.053-.283.158-.391.236-.161.391-.161.285.054.391.161.158.237.158.391-.053.282-.158.389c-.105.105-.236.158-.391.158s-.285-.053-.391-.158zM112.32 129.24c0-.974.232-1.789.694-2.449.463-.658 1.138-.988 2.024-.988.772 0 1.383.267 1.832.8l-.416.61c-.387-.445-.859-.668-1.416-.668-.607 0-1.073.256-1.399.768-.325.512-.489 1.129-.489 1.85v.259c.166-.273.426-.519.777-.737.353-.218.727-.327 1.121-.327.632 0 1.152.187 1.559.561.407.374.611.904.611 1.593 0 .599-.213 1.112-.639 1.541-.424.428-.986.642-1.684.642-.451 0-.846-.094-1.186-.28-.34-.188-.607-.445-.803-.771-.197-.328-.344-.691-.441-1.092s-.145-.84-.145-1.312zm.866.85c.039.495.195.929.469 1.301.273.373.676.56 1.203.56.479 0 .854-.146 1.125-.439s.406-.617.406-.972c0-.466-.145-.822-.431-1.069-.287-.247-.653-.371-1.101-.371-.326 0-.64.092-.941.276-.301.183-.545.421-.73.714zM118.209 127.971c0-.599.213-1.112.639-1.541.424-.428.99-.642 1.698-.642.444 0 .837.094 1.176.28.339.188.608.445.808.771.2.328.348.691.443 1.092s.145.837.145 1.309c0 .628-.094 1.193-.281 1.697-.186.502-.488.919-.908 1.25-.418.33-.926.495-1.523.495-.758 0-1.373-.267-1.848-.8l.416-.612c.387.446.864.67 1.432.67.427 0 .787-.134 1.08-.4s.5-.59.621-.97c.121-.379.182-.796.182-1.252l-.01-.259c-.167.273-.424.519-.771.737-.347.218-.718.327-1.112.327-.633 0-1.155-.187-1.567-.561-.413-.373-.62-.903-.62-1.591zm.83-.03c0 .466.145.822.434 1.069.288.247.659.371 1.112.371.325 0 .641-.092.944-.276.303-.184.545-.425.729-.725-.02-.222-.064-.436-.135-.643-.07-.206-.169-.402-.296-.588-.128-.186-.3-.335-.517-.449s-.461-.171-.735-.171c-.473 0-.847.145-1.122.435s-.414.616-.414.977z"/></g></svg>