<?xml version="1.0" encoding="utf-8"?>
<!DOCTYPE svg PUBLIC "-//W3C//DTD SVG 1.1//EN" "http://www.w3.org/Graphics/SVG/1.1/DTD/svg11.dtd">
<svg version="1.1" id="Layer_1" xmlns="http://www.w3.org/2000/svg" viewBox="0 0 160 177">
    <path fill="#2A3152" d="M159.498,80.166c0.119-9.514-5.054-14.746-5.054-14.746s-4.013-1.694-8.74-15.163 c-4.728-13.468-7.938-16.055-7.938-16.055c-1.16-1.07-3.033-0.356-3.211-3.211c-0.179-2.854-5.352-12.309-5.352-12.309 c0.535-14.092-16.232-16.946-16.232-16.946c-7.314-3.3-10.793,0.804-10.882,2.318c-0.09,1.517-1.517,1.249-1.517,1.249 C88.621-2.277,76.758,22.964,75.6,24.124c-1.16,1.159-2.766-0.268-4.728,2.497c-1.963,2.765-4.966,4.192-4.966,4.192 c-14.39,5.827-17.125,25.568-17.125,25.568c-7.254,2.854-6.303-3.33-6.303-3.33c4.519-10.465,6.184-20.693,6.184-20.693 c3.807-9.037-2.854-13.795-2.854-13.795c3.568-5.946-10.479-14.553-10.479-14.553c-4.906-2.676-10.793,4.727-10.793,4.727 C19.453,11.905,8.705,11.28,8.705,11.28c-3.568-0.357-3.256,1.338-3.256,1.338l-3.389,3.924c-3.746,4.371,0.134,5.174,0.134,5.174 c-2.187,2.453,2.229,2.408,2.229,2.408c1.025,2.363,5.589,0.387,5.589,0.387c0.358,1.309,5.59,3.211,5.59,3.211 c1.07,1.664-1.547,5.113-1.547,5.113c-11.772,18.434,2.261,44.002,2.261,44.002C28.565,98.479,49.14,91.226,49.14,91.226 l1.901,5.232c-2.854,9.871,0.238,31.871,0.238,31.871c-2.021,2.498-0.595,8.443-0.595,8.443c2.616,10.228-5.47,24.617-5.47,24.617 l-1.31,3.688c-1.546,3.806-3.686,4.043-3.686,4.043c-10.821,1.665-6.542,5.946-6.542,5.946l1.666-0.237l0.356,1.664h11.179 c5.945,0.477,4.162-7.254,4.162-7.254l2.379-3.568l0.119-8.682l2.021-6.421l0.594-6.065c3.211-4.639,4.281-12.248,4.281-12.248 c-0.594-8.207,1.428-13.201,1.428-13.201c2.617-3.805,6.897-22.477,6.897-22.477L80,98.242c-3.982,5.589-3.391,9.157-3.391,9.157 c0.476,4.994-4.639,10.584-4.639,10.584l0.239,5.709c-3.448,4.043,2.378,9.633,2.378,9.633c7.373,5.471,15.103,15.459,15.103,15.459 l0.833,1.784l-5.708,8.8c-9.871-0.09-7.136,5.59-7.136,5.59l4.281-0.238l0.832,1.07c10.228,0.952,11.893-2.497,11.893-2.497 l-0.236-2.974l0.95-3.448l2.497,2.735c0,7.254,5.709,7.373,5.709,7.373l0.713-0.951l1.666,0.594 c1.664-0.118,1.545-9.037,1.545-9.037c0.477-2.854-2.616-5.59-2.616-5.59l-4.162-4.4l12.962-18.551 c2.973-2.855,2.26-7.256,2.26-7.256c-2.379-22.951,10.584-36.746,10.584-36.746c0.237,8.086,2.736,15.222,2.736,15.222l7.968,21.406 c1.309,2.141,0.714,3.806,0.714,3.806c-2.498,4.281-0.357,12.011-0.357,12.011l-1.785,18.79c-3.211,3.211-2.854,10.703-2.854,10.703 l-2.615,2.26c-2.022,5.113,2.14,5.827,2.14,5.827l2.141-1.903l0.714,1.903h5.946c4.519-1.784,1.189-7.492,1.189-7.492 c1.784-4.399-1.189-8.562-1.189-8.562l-0.356-3.807l1.427-14.271c4.638-7.968,1.664-14.985,1.664-14.985 c-1.783-1.902-0.595-4.756-0.595-4.756c2.498-6.064-0.832-19.146-0.832-19.146c1.664-3.568,1.783-17.363,1.783-17.363 c4.162-11.654,4.995-17.6,4.995-17.6s3.568,3.566,2.021,7.016c-1.545,3.449,0.952,16.649,0.952,16.649s1.546,2.378-1.903,7.729 s-0.594,12.012-0.594,12.012C161.045,97.647,159.498,80.166,159.498,80.166z M25.11,16.097c0,0-1.744-0.293-2.25-0.709l0.645-0.037 c0,0,1.262,0.35,2.398-0.029c0,0-0.584,1.713,2.687,2.963C28.59,18.284,25.069,17.888,25.11,16.097z M102.594,133.503l-7.075,11 c-14.747-11.535-13.261-18.73-13.261-18.73c4.936-2.379,11.417-15.757,11.417-15.757l7.194-14.39c1.902-2.022,2.914,0,2.914,0 s0.595,18.908,0.951,25.747C105.091,128.211,102.594,133.503,102.594,133.503z"/>
</svg>
