<?xml version="1.0" encoding="utf-8"?>
<svg version="1.1" xmlns="http://www.w3.org/2000/svg" viewBox="0 0 400 115">
<g>
	<g>
		<g>
			<path fill="#FFFFFF" d="M8.904,89.365c-3.314,0-6.223-2.724-6.223-5.824L1.151,30.344c0-3.247,2.61-5.858,5.823-5.858
				l0.085,0.003l31.564,2.281c3.196,0.023,5.782,2.627,5.782,5.823l0.863,48.358c0,3.225-2.246,5.51-5.715,5.84L8.95,89.365H8.904z
				 M11.267,37.778c-1.411,0.017-2.551,1.17-2.551,2.584l0.475,31.29c0,1.424,1.135,2.575,2.54,2.598l21.779-1.812
				c1.696-0.162,2.678-1.101,2.678-2.585l-0.191-28.149c0-1.43-1.158-2.589-2.586-2.589l-0.063-0.001L11.267,37.778z"/>
			<path fill="#414142" d="M6.974,25.633l31.607,2.285c2.579,0,4.675,2.096,4.675,4.674l0.865,48.379
				c0,2.577-1.756,4.397-4.675,4.673L8.904,88.217c-2.579,0-5.076-2.098-5.076-4.676l-1.531-53.23
				C2.298,27.733,4.396,25.633,6.974,25.633 M11.772,75.398l21.833-1.814c2.331-0.223,3.729-1.67,3.729-3.73l-0.192-28.154
				c0-2.06-1.67-3.733-3.733-3.733l-22.112-1.337c-2.058,0-3.729,1.674-3.729,3.733l0.474,31.307
				C8.043,73.727,9.715,75.398,11.772,75.398 M7.06,23.336H6.974C3.128,23.336,0,26.468,0,30.311v0.033l0.003,0.034l1.531,53.201
				c0.021,3.766,3.386,6.938,7.37,6.938H9l0.1-0.011l30.537-2.567c4.066-0.387,6.779-3.186,6.779-6.966v-0.021v-0.021l-0.863-48.36
				c-0.007-3.805-3.081-6.899-6.878-6.952L7.136,23.343L7.06,23.336L7.06,23.336z M9.863,40.346
				c0.007-0.765,0.621-1.389,1.383-1.419l22.03,1.334l0.072,0.001h0.063c0.793,0,1.438,0.645,1.438,1.437l0.192,28.168
				c0,0.337,0,1.272-1.651,1.43L11.699,73.1c-0.755-0.039-1.36-0.664-1.36-1.431v-0.017v-0.018L9.863,40.346L9.863,40.346z"/>
		</g>
		<g>
			<path fill="#FFFFFF" d="M28.608,103.357c-4.244,0-7.694-3.452-7.694-7.696l-1.649-76.345c0-4.27,3.449-7.722,7.692-7.722h0.056
				l34.746,3.646c4.202,0.034,7.616,3.454,7.637,7.656L74.042,91.4v0.039c0,4.232-2.975,7.25-7.586,7.691l-37.785,4.227H28.608z
				 M31.864,29.69c-2.229,0.027-4.028,1.846-4.028,4.075l0.79,44.028c0,2.253,1.803,4.071,4.033,4.094l28.598-2.362
				c2.606-0.249,4.172-1.774,4.172-4.081l-1.94-39.036c0-2.306-1.828-4.134-4.077-4.134h-0.054L31.864,29.69z"/>
			<path fill="#414142" d="M26.957,12.744L61.7,16.391c3.609,0,6.545,2.938,6.545,6.547l4.65,68.502
				c0,3.611-2.453,6.157-6.545,6.549l-37.741,4.222c-3.609,0-6.545-2.939-6.545-6.549l-1.655-76.368
				C20.408,15.68,23.345,12.744,26.957,12.744 M32.702,83.039l28.647-2.373c3.266-0.307,5.228-2.342,5.228-5.223l-1.941-39.092
				c0-2.879-2.341-5.227-5.224-5.227l-27.5-2.585c-2.88,0-5.224,2.347-5.224,5.226l0.79,44.047
				C27.479,80.695,29.818,83.039,32.702,83.039 M27.078,10.448h-0.121c-4.876,0-8.847,3.965-8.847,8.845v0.023v0.024l1.653,76.345
				c0.014,4.869,3.979,8.822,8.845,8.822h0.127l0.127-0.016l37.721-4.219c5.232-0.506,8.611-3.973,8.611-8.834v-0.078l-0.003-0.078
				l-4.648-68.428c-0.042-4.797-3.923-8.692-8.716-8.762l-34.629-3.635L27.078,10.448L27.078,10.448z M28.983,33.747
				c0.01-1.575,1.271-2.858,2.833-2.909l27.383,2.573l0.106,0.009h0.106c1.615,0,2.929,1.316,2.929,2.931v0.057v0.055l1.94,39.032
				c-0.028,2.141-1.721,2.75-3.145,2.887l-28.516,2.361c-1.576-0.045-2.844-1.342-2.844-2.93v-0.02v-0.021L28.983,33.747
				L28.983,33.747z"/>
		</g>
		<g>
			<path fill="#FFFFFF" d="M52.699,113.697c-5.072,0-9.194-4.123-9.194-9.189l-2.486-93.982c-0.003-5.099,4.122-9.221,9.187-9.221
				h0.075l39.828,5.169c5.021,0.041,9.095,4.125,9.117,9.149l5.553,81.856v0.041c0,5.041-3.55,8.642-9.045,9.179l-42.942,6.999
				H52.699z M56.583,23.451c-2.884,0.024-5.229,2.376-5.229,5.268l1.987,54.591c0.004,2.925,2.335,5.275,5.21,5.31l31.744-3.44
				c3.363-0.324,5.372-2.28,5.389-5.243l-2.776-48.73v-0.032c0-2.902-2.366-5.267-5.271-5.267h-0.045L56.583,23.451z"/>
			<path fill="#414142" d="M50.206,2.453l39.825,5.168c4.434,0,8.043,3.607,8.043,8.042l5.555,81.857
				c0,4.433-3.015,7.563-8.044,8.041l-42.885,6.99c-4.434,0-8.046-3.609-8.046-8.043l-2.486-94.015
				C42.167,6.059,45.772,2.453,50.206,2.453 M58.608,89.766l31.805-3.445c4.01-0.381,6.418-2.878,6.418-6.42l-2.776-48.728
				c0-3.539-2.88-6.417-6.418-6.417l-31.013-2.453c-3.538,0-6.418,2.878-6.418,6.415l1.991,54.631
				C52.197,86.886,55.072,89.766,58.608,89.766 M50.354,0.154h-0.148c-5.702,0-10.336,4.639-10.336,10.339v0.032v0.03l2.486,93.985
				c0.016,5.686,4.648,10.305,10.343,10.305h0.185l0.185-0.029l42.813-6.977c6.106-0.611,10.045-4.655,10.045-10.32v-0.078
				l-0.007-0.078l-5.546-81.784c-0.044-5.61-4.581-10.172-10.185-10.253L50.504,0.173L50.354,0.154L50.354,0.154z M52.504,28.683
				c0.02-2.227,1.819-4.04,4.038-4.083l30.91,2.446l0.092,0.007h0.093c2.273,0,4.118,1.847,4.118,4.12v0.065l0.003,0.066
				l2.778,48.658c-0.035,3.185-2.73,3.918-4.342,4.069l-0.016,0.002l-0.014,0.002l-31.663,3.431c-2.225-0.059-4.01-1.882-4.01-4.116
				v-0.04v-0.047L52.504,28.683L52.504,28.683z"/>
		</g>
	</g>
	<g>
		<path fill="#231F20" d="M129.941,36.84h18.325c8.313,0,12.822,4.625,12.822,12.353c0,7.729-4.509,12.412-12.822,12.355h-12.765
			v17.096h-5.56V36.84z M135.501,56.863h10.892c6.265,0.059,9.135-2.694,9.135-7.67c0-4.978-2.87-7.672-9.135-7.672h-10.892V56.863z
			"/>
		<path fill="#231F20" d="M166.781,36.84h4.976v15.984h0.117c1.639-3.631,5.914-5.153,9.544-5.153
			c7.963,0,10.421,4.566,10.421,11.067v19.906h-4.976V58.152c0-3.69-2.342-6.089-6.146-6.089c-6.031,0-8.96,4.039-8.96,9.485v17.096
			h-4.976V36.84z"/>
		<path fill="#231F20" d="M212.108,47.671c9.602,0,14.701,6.966,14.701,15.868c0,8.84-5.1,15.809-14.701,15.809
			s-14.694-6.969-14.694-15.809C197.414,54.638,202.507,47.671,212.108,47.671z M212.108,74.955c5.215,0,9.43-4.1,9.43-11.416
			c0-7.378-4.215-11.476-9.43-11.476c-5.209,0-9.424,4.097-9.424,11.476C202.685,70.855,206.899,74.955,212.108,74.955z"/>
		<path fill="#231F20" d="M232.38,48.372h4.686v4.803h0.117c2.107-3.748,5.504-5.503,9.836-5.503
			c7.961,0,10.424,4.566,10.424,11.067v19.906h-4.98V58.152c0-3.69-2.342-6.089-6.146-6.089c-6.031,0-8.959,4.039-8.959,9.485
			v17.096h-4.977V48.372z"/>
		<path fill="#231F20" d="M290.474,69.042c-1.346,6.675-6.15,10.306-12.939,10.306c-9.66,0-14.227-6.676-14.521-15.927
			c0-9.075,5.971-15.75,14.229-15.75c10.719,0,13.994,10.012,13.699,17.329h-22.658c-0.176,5.271,2.811,9.955,9.426,9.955
			c4.102,0,6.971-1.99,7.85-5.913H290.474z M285.673,60.611c-0.232-4.745-3.805-8.548-8.723-8.548c-5.213,0-8.316,3.922-8.668,8.548
			H285.673z"/>
		<path fill="#231F20" d="M327.897,73.434c-3.221,4.391-8.488,6.206-13.406,6.206c-12.471,0-19.91-10.188-19.91-21.078
			c0-12.181,6.678-22.717,19.91-22.717c9.135,0,16.395,4.097,17.975,13.875h-5.561c-1.115-6.324-6.209-9.193-12.414-9.193
			c-10.131,0-14.344,8.783-14.344,17.742c0,8.724,5.031,16.687,14.344,16.687c8.605,0,13.76-6.029,13.406-13.641h-13.35v-4.687
			h18.33v22.017h-3.514L327.897,73.434z"/>
		<path fill="#231F20" d="M366.79,78.527c-0.877,0.528-1.99,0.82-3.568,0.82c-2.576,0-4.217-1.406-4.217-4.684
			c-2.752,3.219-6.443,4.684-10.656,4.684c-5.506,0-10.014-2.459-10.014-8.492c0-6.85,5.092-8.313,10.246-9.307
			c5.506-1.057,10.188-0.704,10.188-4.452c0-4.333-3.57-5.034-6.729-5.034c-4.221,0-7.322,1.287-7.557,5.737h-4.975
			c0.289-7.495,6.086-10.129,12.82-10.129c5.447,0,11.359,1.229,11.359,8.314v15.575c0,2.341,0,3.395,1.582,3.395
			c0.408,0,0.879-0.059,1.52-0.291V78.527z M358.712,63.012c-1.934,1.404-5.682,1.464-9.018,2.05
			c-3.279,0.584-6.088,1.757-6.088,5.443c0,3.28,2.809,4.45,5.854,4.45c6.561,0,9.252-4.1,9.252-6.85V63.012z"/>
		<path fill="#231F20" d="M371.31,48.372h4.977v4.099h0.117c1.639-3.337,5.504-4.8,9.662-4.8c9.309,0,13.934,7.377,13.934,15.926
			c0,8.548-4.566,15.75-13.816,15.75c-3.104,0-7.557-1.171-9.779-4.744h-0.117v15.633h-4.977V48.372z M385.36,52.063
			c-6.672,0-9.252,5.737-9.252,11.417c0,5.971,2.697,11.475,9.547,11.475c6.793,0,9.076-5.796,9.076-11.711
			C394.731,57.567,391.804,52.063,385.36,52.063z"/>
	</g>
</g>
</svg>
