<?xml version="1.0" encoding="utf-8"?>
<svg version="1.1" id="Layer_1" xmlns="http://www.w3.org/2000/svg" viewBox="0 0 300 278.001">
    <path fill="#989898" d="M42.406,266.763c-37.708-7.202-38.144-39.166-38.144-40.525V43.861C8.729,9.403,40.908,4.883,44.229,4.507 l180.678,4.605c44.554,6.94,44.128,47.574,44.09,49.305v173.861c-1.236,36.318-37.391,40.854-40.984,41.213L42.406,266.763z"/>
    <path fill="#4E4E4E" d="M44.439,8.78l180.079,4.588c40.279,6.441,40.236,43.411,40.213,44.949v0.1v0.1V232.13 c-1.174,31.947-32.647,36.609-36.87,37.09l-184.97-6.709c-33.572-6.595-34.347-35.111-34.363-36.273V44.141 C12.6,13.975,40.435,9.297,44.439,8.78 M44.063,0.238c0,0-39.091,3.556-44.063,43.353v182.646c0,0,0,36.957,41.931,44.773 l186.2,6.752c0,0,43.711-3.551,45.132-45.484V58.517c0,0,1.064-46.196-47.972-53.659L44.063,0.238L44.063,0.238z"/>
    <path fill="#FFFFFF" d="M175.823,247.509c-9.327,0-26.54-2.234-36.975-17.209c-14.478-20.785-8.355-44.81-8.289-45.049 c0.24-1.289,5.756-28.853,37.542-32.402c0.005,0,1.061-0.115,2.826-0.115c8.796,0,30.379,2.586,40.832,26.529 c0.028,0.066,3.769,9.297,3.816,25.654h-58.288l-0.08,1.516c-0.005,0.177-0.72,17.545,15.315,21.359 c0.18,0.033,0.852,0.119,1.94,0.119c3.561,0,14.875-1.05,16.097-14.075l24.627,3.269c-1.718,6.176-9.321,27.179-33.953,30.11 C181.182,247.224,179.094,247.509,175.823,247.509L175.823,247.509z M172.314,170.627c-14.24,1.965-13.989,16.423-13.984,16.567 l0.042,1.555h30.692l-0.185-1.767c-1.667-15.899-14.842-16.358-16.338-16.358h-0.033L172.314,170.627z"/>
    <path fill="#231F20" d="M170.928,154.334L170.928,154.334c8.479,0,29.29,2.491,39.346,25.518c0.043,0.087,3.423,8.38,3.684,23.466 h-55.149h-3.039l-0.156,3.033c-0.336,6.513,2.689,19.699,16.541,22.998l0.176,0.041l0.175,0.021 c0.133,0.018,0.853,0.099,1.96,0.099c7.594,0,15.741-3.722,17.47-13.88l21.143,2.809c-2.5,7.362-10.6,24.639-32.098,27.197 c-0.02,0.002-2.021,0.275-5.155,0.275c-9.02,0-25.641-2.148-35.658-16.525c-14.033-20.142-8.124-43.493-8.063-43.723l0.028-0.121 l0.023-0.113c0.213-1.125,5.577-27.578,36.112-30.988C168.281,154.438,169.271,154.334,170.928,154.334 M156.814,190.347h3.11 h27.359h3.556l-0.369-3.531c-1.473-14.044-11.964-17.791-17.929-17.791c-0.189,0-0.289,0.004-0.289,0.004l-0.17,0.008 l-0.143,0.021c-12.394,1.717-15.367,12.645-15.211,18.184L156.814,190.347 M170.928,151.136c-1.894,0-3.007,0.123-3.007,0.123 c-33.404,3.733-38.91,33.582-38.91,33.582s-6.57,24.695,8.526,46.372c10.97,15.741,29.148,17.896,38.286,17.896 c3.441,0,5.6-0.305,5.6-0.305c29.85-3.554,35.744-33.048,35.744-33.048l-28.103-3.73c-0.284,13.019-10.6,14.286-14.601,14.286 c-0.971,0-1.566-0.074-1.566-0.074c-14.928-3.553-14.09-19.721-14.09-19.721h58.359c0.208-17.945-3.939-27.895-3.939-27.895 C202.249,153.487,179.175,151.136,170.928,151.136L170.928,151.136z M159.925,187.149c0,0-0.378-13.148,12.456-14.925 c0,0,0.057-0.003,0.161-0.003c1.506,0,13.228,0.467,14.742,14.928H159.925L159.925,187.149z"/>
    <path fill="#FFFFFF" d="M72.093,244.088c-9.674,0-27.234-1.313-36.135-10.105l-0.144-0.142l-0.176-0.1 c-0.092-0.057-9.702-5.963-16.318-25.66l27.484-5.593c1.842,4.347,8.772,17.849,24.161,18.947 c0.67-0.015,12.392-0.51,17.664-6.415c1.893-2.124,2.742-4.668,2.521-7.562c-0.003-0.319-0.442-9.976-21.749-13.712 c-0.469-0.043-31.8-2.768-41.784-28.322c0.007-0.006-4.438-17.119,4.128-30.726c0.125-0.211,11.104-17.976,37.432-17.976 c3.818,0,7.83,0.371,11.925,1.11c0.244,0.051,28.481,6.26,36.306,29.886l-24.92,7.777c-1.744-4.305-7.868-16.163-22.321-16.163 c-0.364,0-0.731,0.009-1.108,0.023l-0.146-0.005c-1.832,0-11.123,0.395-14.072,8.14c-0.095,0.313-1.059,4.065,1.354,7.931 c2.223,3.561,6.47,5.975,12.627,7.178c0.404,0.063,34.32,5.41,43.938,19.414c0.23,0.287,14.096,17.461,5.166,39.355 c-0.057,0.107-10.447,20.594-38.776,22.459C79.078,243.837,76.28,244.088,72.093,244.088L72.093,244.088z"/>
    <path fill="#231F20" d="M69.177,118.323L69.177,118.323c3.726,0,7.641,0.363,11.547,1.064c0.276,0.058,26.4,5.834,34.618,27.303 l-21.903,6.836c-3.018-6.698-10.389-15.789-23.275-15.791c-0.353,0-0.707,0.006-1.064,0.02c-0.051,0-0.111-0.001-0.188-0.001 c-2.014,0-12.242,0.441-15.568,9.169l-0.059,0.154l-0.041,0.156c-0.125,0.466-1.137,4.665,1.594,9.035 c2.464,3.953,7.065,6.611,13.674,7.9l0.064,0.012l0.064,0.013c9.305,1.425,35.135,7.565,42.801,18.726l0.081,0.12l0.087,0.106 c0.55,0.668,13.331,16.601,4.884,37.504c-0.7,1.348-10.825,19.831-37.53,21.592c-0.028,0.002-2.768,0.246-6.869,0.246 c-9.431,0-26.517-1.252-35.013-9.643l-0.293-0.276l-0.319-0.195c-0.093-0.058-8.694-5.45-15.036-23.09l24.412-4.968 c2.53,5.508,9.788,17.631,25.009,18.717l0.17,0.012l0.176-0.007c1.311-0.048,13-0.653,18.621-6.952 c2.156-2.414,3.17-5.421,2.932-8.697c-0.091-1.643-1.535-11.436-23.072-15.215l-0.156-0.026l-0.154-0.013 c-0.303-0.023-30.475-2.607-40.191-27.112c-0.414-1.687-3.875-17.088,3.963-29.536C33.238,135.312,43.654,118.323,69.177,118.323 M69.177,115.126c-27.632,0-38.783,18.721-38.783,18.721c-9.062,14.393-4.266,32.16-4.266,32.16 c10.481,26.828,42.996,29.316,42.996,29.316c20.254,3.553,20.434,12.259,20.434,12.259c0.887,11.547-18.479,12.259-18.479,12.259 c-17.412-1.244-23.278-19.188-23.278-19.188l-30.557,6.219c6.929,22.029,17.588,28.249,17.588,28.249 c9.298,9.18,27.26,10.564,37.261,10.564c4.322,0,7.158-0.259,7.158-0.259c29.669-1.955,40.158-23.453,40.158-23.453 c9.412-23.098-5.334-40.865-5.334-40.865c-10.126-14.744-44.951-20.078-44.951-20.078c-15.457-3.02-12.791-12.969-12.791-12.969 c2.596-6.813,11.115-7.111,12.578-7.111c0.137,0,0.213,0.005,0.213,0.005c0.354-0.015,0.701-0.021,1.042-0.021 c16.569,0,21.344,16.545,21.344,16.545l27.899-8.708c-7.467-26.117-38.025-32.515-38.025-32.515 			C77.002,115.472,72.938,115.126,69.177,115.126L69.177,115.126z"/>
    <path opacity="0.2" fill="#E7E7E7" d="M53.056,16.45c0,0-31.767,2.415-35.812,29.447l-1.222,119.295c0,0,0,25.104,34.079,30.412l171.908,4.184 c0,0,35.525-2.412,36.681-30.895l-0.346-109.896c0,0,3.551-33.444-36.307-38.513L53.056,16.45z"/>
    <polygon fill="#3DB54A" points="290.741,31.128 279.55,9.989 182.862,93.633 179.629,96.428 176.841,93.189 145.604,56.909 130.743,76.164 130.247,76.812 177.253,137.525 294.623,38.462"/>
    <path fill="#4E4E4E" d="M294.154,28.461L280.809,3.259L180.069,90.406l-34.645-40.241l-17.839,23.11l-2.731,3.54l51.749,66.838 L300.001,39.504L294.154,28.461z M130.743,76.164l14.861-19.255l31.236,36.28l2.788,3.238l3.233-2.795L279.55,9.989l11.191,21.139 l3.882,7.334l-117.37,99.063l-47.006-60.714L130.743,76.164z"/>
    <polygon opacity="0.1" fill="#FFFFFF" points="280.809,3.259 180.069,90.406 145.425,50.165 127.586,73.275 129.162,74.719 130.743,76.164 177.854,119.28 290.741,31.128 292.445,29.796 294.154,28.461"/>
</svg>
