<svg id="Layer_1" data-name="Layer 1" xmlns="http://www.w3.org/2000/svg" viewBox="0 0 140 140"><defs><style>.cls-1{fill:#f3f2f2;}.cls-2{fill:#cdcccb;}.cls-3,.cls-4,.cls-6{fill:none;}.cls-3{stroke:#cdcccb;stroke-width:2px;}.cls-4{stroke:#555975;stroke-linejoin:round;stroke-width:5px;}.cls-5{fill:#2a3052;}.cls-6{stroke:#e98024;stroke-width:3px;stroke-dasharray:4 3;}</style></defs><title>icon</title><rect class="cls-1" x="1" y="1" width="138" height="138"/><path class="cls-2" d="M138,2V138H2V2H138m2-2H0V140H140V0h0Z"/><line class="cls-3" x1="18.17" y1="140" x2="18.17"/><line class="cls-3" x1="38.9" y1="140" x2="38.9"/><line class="cls-3" x1="59.63" y1="140" x2="59.63"/><line class="cls-3" x1="80.37" y1="140" x2="80.37"/><line class="cls-3" x1="101.1" y1="140" x2="101.1"/><line class="cls-3" x1="121.83" y1="140" x2="121.83"/><line class="cls-3" y1="18.17" x2="140" y2="18.17"/><line class="cls-3" y1="38.9" x2="140" y2="38.9"/><line class="cls-3" y1="59.63" x2="140" y2="59.63"/><line class="cls-3" y1="80.37" x2="140" y2="80.37"/><line class="cls-3" y1="101.1" x2="140" y2="101.1"/><line class="cls-3" y1="121.83" x2="140" y2="121.83"/><polyline class="cls-4" points="6.16 80.9 18.17 92.53 35.2 61.99 43.33 65.72 49.38 86.28 59.63 74 74.88 80.66 80.36 84.82 97.65 70.67 104.65 53.46 121.83 55.92 133.08 38.9"/><circle class="cls-5" cx="133.08" cy="38.9" r="4.17"/><circle class="cls-5" cx="6.16" cy="80.9" r="4.17"/><path class="cls-6" d="M1.08,38.9H138.92"/></svg>