<svg id="Layer_1" data-name="Layer 1" xmlns="http://www.w3.org/2000/svg" viewBox="0 0 140 140"><defs><style>.cls-1{fill:#f3f2f2;}.cls-2{fill:#cdcccb;}.cls-3{fill:#26a6d1;}.cls-4{fill:#3db39e;}.cls-5{fill:#efc75e;}.cls-6{fill:#e2574c;}.cls-10,.cls-7,.cls-8{fill:none;}.cls-7{stroke:#cdcccb;stroke-width:1.27px;}.cls-8{stroke:#555975;stroke-linejoin:round;stroke-width:3.18px;}.cls-9{fill:#2a3052;}.cls-10{stroke:#e98024;stroke-width:1.91px;stroke-dasharray:2.54 1.91;}</style></defs><title>icon</title><rect class="cls-1" x="0.63" y="0.63" width="87.39" height="87.39"/><path class="cls-2" d="M87.39,1.27V87.39H1.27V1.27H87.39M88.65,0H0V88.65H88.65V0h0Z"/><path class="cls-3" d="M44.33,33.8a10.5,10.5,0,1,1-10.5,10.5A10.5,10.5,0,0,1,44.33,33.8Z"/><path class="cls-4" d="M44.33,58.31a14,14,0,0,1-13.86-12.1L20.82,29.47v0L19.73,31c-0.27.49-.53,1-0.76,1.49L18.45,33.7c-0.17.42-.34,0.84-0.49,1.27s-0.32,1-.46,1.45l-0.31,1.11c-0.13.52-.24,1-0.34,1.56l-0.19,1.1c-0.08.51-.14,1-0.18,1.53L16.38,43c0,0.47,0,.93,0,1.39s0,0.93,0,1.39L16.47,47c0,0.51.11,1,.18,1.53l0.19,1.1c0.1,0.52.21,1,.34,1.56l0.31,1.11c0.14,0.48.29,1,.46,1.45s0.32,0.85.49,1.27,0.33,0.81.52,1.21,0.5,1,.76,1.49l0.35,0.68,0.16,0.25c0.31,0.53.65,1,1,1.53L21.78,61c0.33,0.45.69,0.88,1.06,1.32l0.72,0.87c0.32,0.34.65,0.67,1,1s0.66,0.68,1,1l0.87,0.73c0.43,0.36.86,0.72,1.32,1.05l0.81,0.55c0.5,0.34,1,.68,1.53,1l0.25,0.16L31,69c0.49,0.27,1,.53,1.49.77l0.15,0.08,0.71,0.29a28.19,28.19,0,0,0,5.89,1.75l8-13.85A14.78,14.78,0,0,1,44.33,58.31Z"/><path class="cls-5" d="M72.24,42.4l0-.46a37.81,37.81,0,0,0-2-8H53.72A14,14,0,0,1,53,55.26L43.19,72.33a34,34,0,0,0,11.48-2l0.11,0L55,70.26a25.68,25.68,0,0,0,6.17-3.5l0.05,0a28.52,28.52,0,0,0,2.43-2.07l0.12-.1,0.39-.39a27.93,27.93,0,0,0,4.34-5.59l0.13-.2,0.24-.49q0.57-1,1.06-2.12l0.41-1c0.27-.68.51-1.38,0.73-2.08l0.29-.9a28.5,28.5,0,0,0,.65-3L72,48.27c0.12-.85.21-1.71,0.25-2.58l0-.69C72.31,44.13,72.3,43.26,72.24,42.4Z"/><path class="cls-6" d="M68.57,30.3a28.13,28.13,0,0,0-1.93-2.88l-0.23-.28a27,27,0,0,0-2-2.27L64,24.39a28.38,28.38,0,0,0-2.38-2.11l-0.18-.15a27.64,27.64,0,0,0-2.88-1.93l-0.2-.13-0.76-.39c-0.44-.24-0.87-0.47-1.32-0.68s-0.87-.38-1.3-0.56L53.85,18c-0.53-.19-1.07-0.35-1.6-0.52l-0.89-.26c-0.58-.15-1.17-0.27-1.76-0.38l-0.83-.16c-0.57-.09-1.15-0.15-1.72-0.2l-0.94-.1c-0.49,0-1,0-1.48,0H43.39l-0.95.07a28,28,0,0,0-6.23,1.13l-0.43.12c-0.52.17-1,.37-1.55,0.57l-1,.39c-0.42.18-.84,0.39-1.26,0.6s-0.81.4-1.21,0.62l-0.46.23-0.67.43c-0.4.25-.79,0.5-1.18,0.76s-0.75.53-1.11,0.81l-1,.77c-0.4.33-.78,0.67-1.16,1l-0.71.7c-0.41.42-.82,0.84-1.2,1.28l-0.26.32L31,40A14,14,0,0,1,44.33,30.3H68.57Z"/><rect class="cls-1" x="51.64" y="51.64" width="87.73" height="87.73"/><path class="cls-2" d="M138.73,52.27v86.46H52.27V52.27h86.46M140,51H51v89h89V51h0Z"/><line class="cls-7" x1="62.55" y1="140" x2="62.55" y2="51"/><line class="cls-7" x1="75.73" y1="140" x2="75.73" y2="51"/><line class="cls-7" x1="88.91" y1="140" x2="88.91" y2="51"/><line class="cls-7" x1="102.09" y1="140" x2="102.09" y2="51"/><line class="cls-7" x1="115.27" y1="140" x2="115.27" y2="51"/><line class="cls-7" x1="128.45" y1="140" x2="128.45" y2="51"/><line class="cls-7" x1="51" y1="62.55" x2="140" y2="62.55"/><line class="cls-7" x1="51" y1="75.73" x2="140" y2="75.73"/><line class="cls-7" x1="51" y1="88.91" x2="140" y2="88.91"/><line class="cls-7" x1="51" y1="102.09" x2="140" y2="102.09"/><line class="cls-7" x1="51" y1="115.27" x2="140" y2="115.27"/><line class="cls-7" x1="51" y1="128.45" x2="140" y2="128.45"/><polyline class="cls-8" points="54.92 102.43 62.55 109.82 73.38 90.41 78.54 92.78 82.39 105.85 88.91 98.05 98.6 102.28 102.09 104.92 113.08 95.93 117.53 84.99 128.45 86.55 135.6 75.73"/><circle class="cls-9" cx="135.6" cy="75.73" r="2.65"/><circle class="cls-9" cx="54.92" cy="102.43" r="2.65"/><path class="cls-10" d="M51.69,75.73h87.62"/></svg>