<?xml version="1.0" encoding="utf-8"?>
<!-- Generator: Adobe Illustrator 19.2.1, SVG Export Plug-In . SVG Version: 6.00 Build 0)  -->
<svg version="1.1" id="Layer_1" xmlns="http://www.w3.org/2000/svg" xmlns:xlink="http://www.w3.org/1999/xlink" x="0px" y="0px"
	 viewBox="0 0 50 41" style="enable-background:new 0 0 50 41;" xml:space="preserve">
<style type="text/css">
	.st0{fill:none;stroke:#293052;stroke-width:0.96;stroke-miterlimit:10;}
	.st1{fill:#293052;}
	.st2{fill:none;stroke:#293052;}
	.st3{fill:none;stroke:#293052;stroke-width:1.2;stroke-miterlimit:10;}
	.st4{fill:#FCF0E5;}
	.st5{fill:#E0DEE3;}
	.st6{fill:#FFFFFF;stroke:#293052;stroke-width:0.96;}
	.st7{fill:#EE3E35;}
	.st8{fill:#FBD800;}
	.st9{fill:#61BB5B;}
	.st10{fill:#5BB055;}
	.st11{fill:#FFFFFF;}
	.st12{fill:url(#SVGID_1_);}
	.st13{fill:#EACA05;}
	.st14{fill:#DE3A32;}
	.st15{fill:none;stroke:#293052;stroke-width:0.48;stroke-miterlimit:10;}
	.st16{fill:#F1F0F2;}
	.st17{fill:none;stroke:#293052;stroke-width:0.9585;stroke-miterlimit:10;}
	.st18{fill:#FFFFFF;stroke:#293052;stroke-width:0.9585;}
	.st19{fill:none;stroke:#293052;stroke-width:0.4792;stroke-miterlimit:10;}
	.st20{fill:url(#SVGID_2_);}
	.st21{fill:url(#SVGID_3_);}
	.st22{fill:url(#SVGID_4_);}
	.st23{fill:url(#SVGID_5_);}
	.st24{fill:url(#SVGID_6_);}
	.st25{fill:url(#SVGID_7_);}
	.st26{fill:url(#SVGID_8_);}
	.st27{fill:url(#SVGID_9_);}
	.st28{fill:url(#SVGID_10_);}
	.st29{fill:url(#SVGID_11_);}
	.st30{opacity:0.5;fill:url(#SVGID_12_);}
	.st31{opacity:0.4;fill:url(#SVGID_13_);enable-background:new    ;}
	.st32{fill:url(#SVGID_14_);}
	.st33{clip-path:url(#SVGID_18_);fill:url(#SVGID_19_);}
	.st34{opacity:0.6;clip-path:url(#SVGID_18_);fill:url(#SVGID_20_);}
	.st35{fill:#8DD7F7;}
	.st36{fill:url(#SVGID_21_);}
	.st37{fill:url(#SVGID_22_);}
	.st38{fill:url(#SVGID_23_);}
	.st39{fill:url(#SVGID_24_);}
	.st40{fill:url(#SVGID_25_);}
	.st41{fill:url(#SVGID_26_);}
	.st42{fill:url(#SVGID_27_);}
	.st43{fill:url(#SVGID_28_);}
	.st44{fill:url(#SVGID_29_);}
	.st45{fill:url(#SVGID_30_);}
	.st46{fill:url(#SVGID_31_);}
	.st47{fill:url(#SVGID_32_);}
	.st48{fill:url(#SVGID_33_);}
	.st49{fill:url(#SVGID_34_);}
	.st50{fill:url(#SVGID_35_);}
	.st51{fill:url(#SVGID_36_);}
	.st52{fill:url(#SVGID_37_);}
	.st53{fill:url(#SVGID_38_);}
	.st54{opacity:0.1;fill:url(#SVGID_39_);}
	.st55{opacity:0.5;fill:url(#SVGID_40_);}
	.st56{opacity:0.5;fill:url(#SVGID_41_);}
	.st57{opacity:0.5;fill:url(#SVGID_42_);}
	.st58{fill:url(#SVGID_43_);}
	.st59{opacity:0.1;fill:url(#SVGID_44_);}
	.st60{fill:url(#SVGID_45_);}
	.st61{fill:none;stroke:#293052;stroke-width:1.6;}
	.st62{fill:none;stroke:#293052;stroke-width:0.9544;stroke-miterlimit:10;}
	.st63{fill:#FFFFFF;stroke:#293052;stroke-width:0.9544;}
	.st64{fill:url(#SVGID_46_);}
	.st65{fill:none;stroke:#293052;stroke-width:0.5433;}
	.st66{fill:none;stroke:#293052;stroke-width:0.9564;stroke-miterlimit:10;}
	.st67{fill:#FFFFFF;stroke:#293052;stroke-width:0.9564;}
	.st68{fill:url(#SVGID_47_);}
	.st69{fill:url(#SVGID_48_);}
	.st70{fill:url(#SVGID_49_);}
	.st71{fill:url(#SVGID_50_);}
	.st72{fill:url(#SVGID_51_);}
	.st73{fill:url(#SVGID_52_);}
	.st74{fill:url(#SVGID_53_);}
	.st75{fill:url(#SVGID_54_);}
	.st76{fill:url(#SVGID_55_);}
	.st77{fill:url(#SVGID_56_);}
	.st78{opacity:0.5;fill:url(#SVGID_57_);}
	.st79{opacity:0.4;fill:url(#SVGID_58_);enable-background:new    ;}
	.st80{fill:url(#SVGID_59_);}
	.st81{clip-path:url(#SVGID_63_);fill:url(#SVGID_64_);}
	.st82{opacity:0.6;clip-path:url(#SVGID_63_);fill:url(#SVGID_65_);}
	.st83{fill:url(#SVGID_66_);}
	.st84{fill:url(#SVGID_67_);}
	.st85{fill:url(#SVGID_68_);}
	.st86{fill:url(#SVGID_69_);}
	.st87{fill:url(#SVGID_70_);}
	.st88{fill:url(#SVGID_71_);}
	.st89{fill:url(#SVGID_72_);}
	.st90{fill:url(#SVGID_73_);}
	.st91{fill:url(#SVGID_74_);}
	.st92{fill:url(#SVGID_75_);}
	.st93{fill:url(#SVGID_76_);}
	.st94{fill:url(#SVGID_77_);}
	.st95{fill:url(#SVGID_78_);}
	.st96{fill:url(#SVGID_79_);}
	.st97{fill:url(#SVGID_80_);}
	.st98{fill:url(#SVGID_81_);}
	.st99{fill:url(#SVGID_82_);}
	.st100{fill:url(#SVGID_83_);}
	.st101{opacity:0.1;fill:url(#SVGID_84_);}
	.st102{opacity:0.5;fill:url(#SVGID_85_);}
	.st103{opacity:0.5;fill:url(#SVGID_86_);}
	.st104{opacity:0.5;fill:url(#SVGID_87_);}
	.st105{fill:url(#SVGID_88_);}
	.st106{opacity:0.1;fill:url(#SVGID_89_);}
	.st107{fill:url(#SVGID_90_);}
	.st108{fill:none;stroke:#293052;stroke-width:0.5445;}
</style>
<g>
	<rect x="1" y="0.6" class="st4" width="47.7" height="9.3"/>
	<rect x="6.4" y="14.7" class="st5" width="37.8" height="20.2"/>
	<g>
		<g>
			<rect x="1.3" y="0.7" class="st62" width="47.7" height="39.8"/>
			<line class="st62" x1="1.3" y1="9.9" x2="49" y2="9.9"/>
			<circle class="st1" cx="44.2" cy="5.2" r="1.5"/>
			<circle class="st1" cx="39.2" cy="5.2" r="1.5"/>
		</g>
		<g>
			<path class="st63" d="M38.9,30.9h-8.7c-0.8,0-1.5-0.7-1.5-1.5v-8.7c0-0.8,0.7-1.5,1.5-1.5h8.7c0.8,0,1.5,0.7,1.5,1.5v8.7
				C40.5,30.2,39.8,30.9,38.9,30.9z"/>
			<path class="st63" d="M20,30.9h-8.7c-0.8,0-1.5-0.7-1.5-1.5v-8.7c0-0.8,0.7-1.5,1.5-1.5H20c0.8,0,1.5,0.7,1.5,1.5v8.7
				C21.5,30.2,20.8,30.9,20,30.9z"/>
			<g>
				<path class="st7" d="M15.8,21.7c0,0,2.1-0.1,3.3,2c-0.6,0-3.4,0-3.4,0s-0.7,0-1.2,0.8c-0.2,0.3-0.3,0.7-0.1,1.3
					c-0.3-0.5-1.5-2.5-1.5-2.5S13.6,21.7,15.8,21.7z"/>
				<path class="st8" d="M18.9,27.1c0,0-1,1.9-3.4,1.8c0.3-0.5,1.7-3,1.7-3s0.3-0.6-0.1-1.4c-0.2-0.3-0.4-0.6-1.1-0.8
					c0.5,0,2.9,0,2.9,0S19.9,25.2,18.9,27.1z"/>
				<path class="st9" d="M12.6,27.1c0,0-1.1-1.8,0.1-3.8c0.3,0.5,1.7,3,1.7,3s0.3,0.6,1.3,0.7c0.4,0,0.7,0,1.2-0.6
					c-0.3,0.5-1.5,2.5-1.5,2.5S13.8,28.9,12.6,27.1z"/>
				<path class="st10" d="M15.5,28.9l0.5-2c0,0,0.5,0,1-0.5C16.7,26.9,15.5,28.9,15.5,28.9z"/>
				<circle class="st11" cx="15.8" cy="25.3" r="1.6"/>
				<linearGradient id="SVGID_1_" gradientUnits="userSpaceOnUse" x1="15.768" y1="23.9835" x2="15.768" y2="26.5715">
					<stop  offset="0" style="stop-color:#86BBE5"/>
					<stop  offset="1" style="stop-color:#0D72B9"/>
				</linearGradient>
				<circle class="st12" cx="15.8" cy="25.3" r="1.3"/>
				<path class="st13" d="M19,23.7l-2,0.6c0,0-0.3-0.4-0.9-0.6C16.7,23.7,19,23.7,19,23.7z"/>
				<path class="st14" d="M14.2,25.7c-0.3-0.5-1.4-2.5-1.4-2.5l1.5,1.5c0,0-0.2,0.3-0.1,0.8L14.2,25.7z"/>
			</g>
			<g>
				<g>
					<line class="st65" x1="31.3" y1="26.7" x2="31.3" y2="28.1"/>
					<line class="st65" x1="31.3" y1="22.6" x2="31.3" y2="23.5"/>
					<g>
						<polygon class="st65" points="31.8,26.7 30.7,26.7 30.7,23.5 31.8,23.5 31.8,26.7 						"/>
					</g>
				</g>
				<g>
					<line class="st65" x1="37.8" y1="25.6" x2="37.8" y2="26.6"/>
					<line class="st65" x1="37.8" y1="23" x2="37.8" y2="23.8"/>
					<g>
						<polygon class="st65" points="38.4,25.6 37.3,25.6 37.3,23.8 38.4,23.8 38.4,25.6 						"/>
					</g>
				</g>
				<g>
					<line class="st65" x1="33.4" y1="24.7" x2="33.4" y2="25.5"/>
					<g>
						<polygon class="st65" points="33.9,27.3 32.8,27.3 32.8,25.4 33.9,25.4 33.9,27.3 						"/>
					</g>
				</g>
				<g>
					<line class="st65" x1="35.6" y1="24.3" x2="35.6" y2="25.3"/>
					<g>
						<polygon class="st65" points="36.1,24.3 35,24.3 35,22.5 36.1,22.5 36.1,24.3 						"/>
					</g>
				</g>
			</g>
		</g>
	</g>
</g>
</svg>
