<svg id="Layer_1" data-name="Layer 1" xmlns="http://www.w3.org/2000/svg" viewBox="0 0 140 140"><defs><style>.cls-1{fill:#f3f2f2;}.cls-2{fill:#cdcccb;}.cls-3,.cls-4,.cls-5,.cls-6{fill:none;}.cls-3{stroke:#cdcccb;}.cls-3,.cls-4{stroke-width:2px;}.cls-4{stroke:#676767;}.cls-5{stroke:#2e8642;}.cls-5,.cls-6{stroke-width:9px;}.cls-6{stroke:#ec2227;}</style></defs><title>icon</title><rect class="cls-1" x="1" y="1" width="138" height="138"/><path class="cls-2" d="M138,2V138H2V2H138m2-2H0V140H140V0h0Z"/><line class="cls-3" x1="18.85" y1="140" x2="18.85"/><line class="cls-3" x1="39.58" y1="140" x2="39.58"/><line class="cls-3" x1="60.31" y1="140" x2="60.31"/><line class="cls-3" x1="81.04" y1="140" x2="81.04"/><line class="cls-3" x1="101.77" y1="140" x2="101.77"/><line class="cls-3" x1="122.5" y1="140" x2="122.5"/><line class="cls-3" y1="18.17" x2="140" y2="18.17"/><line class="cls-3" y1="38.9" x2="140" y2="38.9"/><line class="cls-3" y1="59.63" x2="140" y2="59.63"/><line class="cls-3" y1="80.37" x2="140" y2="80.37"/><line class="cls-3" y1="101.1" x2="140" y2="101.1"/><line class="cls-3" y1="121.83" x2="140" y2="121.83"/><line class="cls-4" x1="19.19" y1="16.5" x2="19.19" y2="64.49"/><line class="cls-5" x1="19.19" y1="29.13" x2="19.19" y2="71.13"/><line class="cls-4" x1="122.04" y1="24.28" x2="122.04" y2="57.69"/><line class="cls-5" x1="122.04" y1="13.16" x2="122.04" y2="44.39"/><line class="cls-4" x1="39.29" y1="106.13" x2="39.29" y2="82.62"/><line class="cls-6" x1="39.29" y1="61.08" x2="39.29" y2="85.13"/><line class="cls-4" x1="60.48" y1="41.88" x2="60.48" y2="91.44"/><line class="cls-6" x1="60.48" y1="54.08" x2="60.48" y2="78.13"/><line class="cls-4" x1="80.58" y1="20.7" x2="80.58" y2="54.08"/><line class="cls-5" x1="80.58" y1="32.9" x2="80.58" y2="56.95"/><line class="cls-4" x1="101.04" y1="52.04" x2="101.04" y2="125.54"/><line class="cls-6" x1="101.04" y1="68.8" x2="101.04" y2="106.67"/></svg>