<svg id="Layer_1" data-name="Layer 1" xmlns="http://www.w3.org/2000/svg" viewBox="0 0 140 140"><defs><style>.cls-1{fill:#f3f2f2;}.cls-2{fill:#cdcccb;}.cls-3{fill:#26a6d1;}.cls-4{fill:#3db39e;}.cls-5{fill:#efc75e;}.cls-6{fill:#e2574c;}.cls-10,.cls-7,.cls-8,.cls-9{fill:none;}.cls-7{stroke:#cdcccb;}.cls-7,.cls-8{stroke-width:1.27px;}.cls-8{stroke:#676767;}.cls-9{stroke:#2e8642;}.cls-10,.cls-9{stroke-width:5.72px;}.cls-10{stroke:#ec2227;}</style></defs><title>icon</title><rect class="cls-1" x="0.63" y="0.63" width="87.46" height="87.46"/><path class="cls-2" d="M87.46,1.27V87.46H1.27V1.27H87.46M88.73,0H0V88.73H88.73V0h0Z"/><path class="cls-3" d="M44.36,33.83A10.51,10.51,0,1,1,33.85,44.34,10.51,10.51,0,0,1,44.36,33.83Z"/><path class="cls-4" d="M44.36,58.35A14,14,0,0,1,30.5,46.25L20.84,29.5v0L19.74,31c-0.27.49-.53,1-0.76,1.49l-0.52,1.21c-0.17.42-.34,0.84-0.49,1.27s-0.32,1-.46,1.45L17.2,37.56c-0.13.52-.24,1-0.34,1.56l-0.19,1.11c-0.08.51-.14,1-0.18,1.53L16.39,43c0,0.47,0,.93,0,1.4s0,0.93,0,1.4L16.49,47c0,0.51.11,1,.18,1.53l0.19,1.11c0.1,0.52.21,1,.34,1.56l0.31,1.12c0.14,0.48.29,1,.46,1.45s0.32,0.85.49,1.27,0.33,0.81.52,1.21,0.5,1,.77,1.49l0.35,0.68,0.16,0.25c0.31,0.53.65,1,1,1.53L21.8,61c0.33,0.45.69,0.88,1.06,1.32l0.73,0.87c0.32,0.35.65,0.67,1,1s0.66,0.68,1,1l0.87,0.73c0.43,0.36.87,0.72,1.32,1.05l0.81,0.55c0.5,0.35,1,.68,1.53,1l0.25,0.16L31,69c0.49,0.27,1,.53,1.49.77l0.15,0.08,0.71,0.29a28.21,28.21,0,0,0,5.89,1.76l8-13.87A14.79,14.79,0,0,1,44.36,58.35Z"/><path class="cls-5" d="M72.29,42.43l0-.46a37.85,37.85,0,0,0-2-8H53.76a14,14,0,0,1-.68,21.34L43.22,72.39a34,34,0,0,0,11.48-2l0.11,0L55,70.31a25.7,25.7,0,0,0,6.18-3.5l0.05,0a28.54,28.54,0,0,0,2.43-2.07l0.12-.1,0.39-.39a28,28,0,0,0,4.34-5.59l0.13-.2,0.24-.49q0.57-1,1.06-2.12l0.41-1c0.27-.68.51-1.38,0.73-2.08l0.29-.9a28.53,28.53,0,0,0,.65-3l0.07-.57c0.12-.85.21-1.71,0.25-2.58l0-.7C72.37,44.17,72.35,43.3,72.29,42.43Z"/><path class="cls-6" d="M68.62,30.33a28.16,28.16,0,0,0-1.93-2.88l-0.23-.28a27,27,0,0,0-2-2.28L64,24.41a28.4,28.4,0,0,0-2.38-2.11l-0.18-.15a27.66,27.66,0,0,0-2.89-1.94l-0.2-.13-0.76-.39c-0.44-.24-0.87-0.47-1.32-0.68s-0.87-.38-1.3-0.56L53.89,18c-0.53-.19-1.07-0.35-1.6-0.52l-0.89-.26c-0.59-.15-1.18-0.27-1.76-0.38l-0.83-.16c-0.57-.09-1.15-0.15-1.73-0.2l-0.94-.1c-0.49,0-1,0-1.48,0H43.43l-0.95.07a28,28,0,0,0-6.24,1.14l-0.43.12c-0.52.17-1,.37-1.55,0.57l-1,.39c-0.42.18-.84,0.39-1.26,0.6s-0.81.4-1.21,0.62l-0.46.23-0.67.43c-0.4.25-.79,0.5-1.18,0.76s-0.75.53-1.12,0.81l-1,.77c-0.4.33-.78,0.67-1.16,1l-0.71.7c-0.42.42-.82,0.84-1.21,1.28l-0.26.32L31,40a14,14,0,0,1,13.32-9.67H68.62Z"/><rect class="cls-1" x="51.64" y="51.64" width="87.73" height="87.73"/><path class="cls-2" d="M138.73,52.27v86.46H52.27V52.27h86.46M140,51H51v89h89V51h0Z"/><line class="cls-7" x1="62.98" y1="140" x2="62.98" y2="51"/><line class="cls-7" x1="76.16" y1="140" x2="76.16" y2="51"/><line class="cls-7" x1="89.34" y1="140" x2="89.34" y2="51"/><line class="cls-7" x1="102.52" y1="140" x2="102.52" y2="51"/><line class="cls-7" x1="115.7" y1="140" x2="115.7" y2="51"/><line class="cls-7" x1="128.88" y1="140" x2="128.88" y2="51"/><line class="cls-7" x1="51" y1="62.55" x2="140" y2="62.55"/><line class="cls-7" x1="51" y1="75.73" x2="140" y2="75.73"/><line class="cls-7" x1="51" y1="88.91" x2="140" y2="88.91"/><line class="cls-7" x1="51" y1="102.09" x2="140" y2="102.09"/><line class="cls-7" x1="51" y1="115.27" x2="140" y2="115.27"/><line class="cls-7" x1="51" y1="128.45" x2="140" y2="128.45"/><line class="cls-8" x1="63.2" y1="61.49" x2="63.2" y2="92"/><line class="cls-9" x1="63.2" y1="69.52" x2="63.2" y2="96.22"/><line class="cls-8" x1="128.58" y1="66.44" x2="128.58" y2="87.68"/><line class="cls-9" x1="128.58" y1="59.36" x2="128.58" y2="79.22"/><line class="cls-8" x1="75.98" y1="118.47" x2="75.98" y2="103.52"/><line class="cls-10" x1="75.98" y1="89.83" x2="75.98" y2="105.12"/><line class="cls-8" x1="89.45" y1="77.62" x2="89.45" y2="109.13"/><line class="cls-10" x1="89.45" y1="85.38" x2="89.45" y2="100.67"/><line class="cls-8" x1="102.22" y1="64.16" x2="102.22" y2="85.38"/><line class="cls-9" x1="102.22" y1="71.91" x2="102.22" y2="87.21"/><line class="cls-8" x1="115.23" y1="84.08" x2="115.23" y2="130.81"/><line class="cls-10" x1="115.23" y1="94.74" x2="115.23" y2="118.81"/></svg>