<svg xmlns="http://www.w3.org/2000/svg" viewBox="0 0 128 156"><path fill="#E98025" d="M108.697 48.25l-.436-.457c-9.271-9.27-21.213-14.234-33.349-14.906-14.03-.775-28.317 4.188-39.036 14.906-5.202 5.203-9.045 11.246-11.538 17.693-.38 9.879 3.186 19.885 10.712 27.409.6.601 1.221 1.166 1.851 1.715-3.766-12.544-.709-26.717 9.183-36.61 13.728-13.727 35.699-14.293 50.118-1.715.63.551 1.25 1.115 1.851 1.715 7.525 7.525 11.092 17.529 10.713 27.408 2.306-5.965 3.453-12.275 3.442-18.583.011 6.309-1.137 12.619-3.442 18.583-.345 8.93-3.912 17.758-10.713 24.559-10.758 10.758-26.58 13.438-39.862 8.041-12.135-.672-24.077-5.635-33.348-14.904l-.437-.459c1.658 4.238 3.902 8.301 6.731 12.063l-5.11 5.108-11.358-11.356-10.208 10.208 11.358 11.357-15.766 15.766 10.208 10.209 15.767-15.768 11.358 11.358 10.207-10.207-11.358-11.358 5.111-5.111c20.051 15.088 48.659 13.518 66.916-4.738 19.838-19.838 19.976-51.902.435-71.926z"/><path fill="#2A3052" d="M113.509 0h-18.7v14.436h8.492l-11.544 11.544c-20.051-15.088-48.66-13.516-66.914 4.738-19.838 19.839-19.977 51.901-.439 71.924l.001.003.437.459c9.271 9.27 21.214 14.232 33.348 14.904l-.019-.008h.001l.018.008.122.004.11.009.003-.006c13.955.707 28.141-4.254 38.8-14.911 5.203-5.203 9.045-11.248 11.539-17.694.379-9.879-3.188-19.883-10.713-27.408-.601-.6-1.221-1.164-1.851-1.715 3.767 12.544.708 26.718-9.183 36.608-13.729 13.729-35.7 14.293-50.118 1.715l-.016-.014c-.625-.545-1.241-1.105-1.836-1.701-7.524-7.522-11.091-17.527-10.712-27.406l.001-.003c.343-8.93 3.91-17.756 10.712-24.559 10.757-10.758 26.58-13.438 39.862-8.041 12.136.672 24.077 5.637 33.349 14.906l.436.457c-1.657-4.238-3.901-8.301-6.731-12.061l11.544-11.545v8.492h14.438v-33.135000000000005h-14.437z"/></svg>