<?xml version="1.0" encoding="utf-8"?>
<!DOCTYPE svg PUBLIC "-//W3C//DTD SVG 1.1//EN" "http://www.w3.org/Graphics/SVG/1.1/DTD/svg11.dtd">
<svg version="1.1" xmlns="http://www.w3.org/2000/svg" viewBox="0 0 302 38" xml:space="preserve">
<path fill="#FFFFFF" d="M32.685,5.562C25.275-1.854,13.22-1.854,5.808,5.558c-7.409,7.411-7.409,19.472,0,26.884 c7.412,7.412,19.473,7.412,26.877-0.003C40.106,25.029,40.106,12.969,32.685,5.562z"/>
<path fill="#2A3052" d="M13.951,23.983c0,0,0.218,1.632,1.591,2.386l-0.366-0.682C15.176,25.688,15.874,23.855,13.951,23.983z"/>
<path fill="#2A3052" d="M31.725,6.523C24.842-0.362,13.651-0.362,6.771,6.521c-6.881,6.882-6.881,18.077,0,24.96 c6.881,6.881,18.076,6.879,24.954-0.002C38.612,24.598,38.612,13.402,31.725,6.523z M29.899,29.654 c-0.193,0.189-0.381,0.373-0.576,0.548c-4.239,3.456-7.505,1.735-7.541,1.735c-2.213-0.441-3.311-0.449-3.933-0.864 c-0.155-0.104-0.656-0.374-0.772-0.308c-0.452,0.27-1.072,0.406-1.712-0.103c-0.057-0.046-0.109-0.097-0.159-0.144 c-0.705-0.703-0.465-1.428-0.231-1.678c0.162-0.164-0.124-0.629-0.124-0.629s-0.83-1.234-1.398-1.977 c-0.625-0.815-0.709-2.434-0.718-2.455l-0.007-0.022c-0.633-0.75-0.699-0.981-0.916-1.348c-0.128-0.215-0.323-0.419-0.49-0.593 c-0.113-0.113-0.221-0.223-0.294-0.324c-0.019-0.021-0.021-0.053-0.014-0.102c0.056-0.352,0.811-1.123,0.973-1.23 c0.2-0.13,1.058-0.652,1.058-0.652s0.484-0.758,1.306-0.758c0.739,0.004,1.192-0.041,2.469,0.376l0.532,0.167 c0.891,0.286,1.676,0.624,2.301,0.893c0.53,0.228,0.953,0.412,1.279,0.498c1.101,0.289,3.045-0.603,3.455-0.979 c0.674-0.612,0.963-1.021,0.966-1.359c0.006-0.188-0.076-0.353-0.268-0.552c-0.099-0.092-0.228-0.262-0.388-0.423 c-0.024-0.026-0.051-0.056-0.084-0.08c-1.865-1.981-1.543-3.224-1.541-3.244c0.08-0.891-0.431-1.461-0.98-2.055L22,11.881 c-0.028-0.025-0.063-0.072-0.063-0.072c0.794,0.131,1.335,0.451,2.888,0.624c0.88,0.094,0.604,0.086,1.307,0.069 c0.971-0.031,1.739-0.117,1.792-0.338c-0.095-0.08-0.523,0.024-2.585-0.763c-0.953-0.366-1.103-0.42-1.712-0.621 c-0.777-0.264-1.622-0.628-1.622-0.628c3.36,0.883,4.459,1.228,5.999,1.249c0.593,0.01,0.947-0.062,1.155-0.103 c0.218-0.041,0.897-0.194,0.975-0.43c0.022-0.041-0.652,0.111-1.898-0.3c-3.923-1.297-4.256-1.944-6.432-2.791 c-0.758-0.294-1.006-0.457-3.297-1.047c-1.049-0.27-2.637-0.115-2.85,0.021c-2.977-0.699-3.652-0.622-4.524-0.436 C16.951,2.587,24.81,3.258,29.899,8.35c0.689,0.69,1.301,1.435,1.838,2.222l0.07,0.108c1.634,2.446,2.505,5.315,2.505,8.318 C34.313,23.025,32.744,26.805,29.899,29.654z M20.021,12.646c1.477,0.526,1.951,2.102,1.951,2.102 c-1.877,0.427-1.481-1.49-1.481-1.49L20.021,12.646z"/>
<path fill="#2A3052" d="M43.572,8.184h8.32c2.305,0,4.072,0.616,5.304,1.847c1.04,1.04,1.56,2.427,1.56,4.16v0.052 c0,1.474-0.359,2.674-1.078,3.601c-0.721,0.927-1.66,1.608-2.822,2.041l4.447,6.5h-4.681l-3.899-5.824H50.67h-3.094v5.824h-4.004 V8.184z M51.633,17.024c0.987,0,1.746-0.234,2.274-0.702S54.7,15.23,54.7,14.45v-0.052c0-0.867-0.277-1.517-0.832-1.95 s-1.326-0.65-2.313-0.65h-3.979v5.227H51.633z"/>
<path fill="#2A3052" d="M66.686,26.695c-1.039,0-2.006-0.173-2.898-0.52s-1.664-0.84-2.314-1.482 c-0.65-0.641-1.156-1.398-1.521-2.274c-0.364-0.875-0.546-1.851-0.546-2.925v-0.053c0-0.988,0.169-1.924,0.507-2.808 s0.81-1.655,1.417-2.313c0.606-0.659,1.33-1.179,2.171-1.561c0.841-0.381,1.772-0.571,2.795-0.571 c1.161,0,2.167,0.208,3.017,0.624c0.849,0.416,1.555,0.975,2.119,1.677c0.563,0.702,0.979,1.508,1.248,2.418 c0.268,0.909,0.402,1.858,0.402,2.847c0,0.156-0.005,0.32-0.013,0.494c-0.01,0.174-0.022,0.355-0.04,0.546h-9.697 c0.19,0.901,0.585,1.581,1.184,2.041c0.598,0.46,1.338,0.688,2.223,0.688c0.658,0,1.248-0.112,1.768-0.338 c0.52-0.225,1.057-0.589,1.612-1.092l2.262,2.002c-0.659,0.814-1.456,1.452-2.392,1.911 C69.052,26.466,67.951,26.695,66.686,26.695z M69.234,18.324c-0.122-0.884-0.434-1.6-0.937-2.146s-1.17-0.818-2.002-0.818 s-1.504,0.269-2.015,0.806c-0.512,0.537-0.846,1.257-1.002,2.158H69.234z"/>
<path fill="#2A3052" d="M80.388,30.596c-1.144,0-2.235-0.126-3.275-0.377c-1.04-0.252-2.002-0.611-2.887-1.079l1.353-2.964 c0.728,0.398,1.46,0.711,2.196,0.936c0.737,0.226,1.573,0.338,2.51,0.338c1.352,0,2.353-0.32,3.003-0.961 c0.649-0.642,0.975-1.586,0.975-2.834v-0.676c-0.589,0.711-1.23,1.265-1.924,1.663c-0.693,0.399-1.569,0.599-2.626,0.599 c-0.815,0-1.595-0.144-2.34-0.43c-0.746-0.285-1.404-0.706-1.977-1.261c-0.571-0.555-1.026-1.235-1.364-2.041 s-0.508-1.729-0.508-2.769v-0.053c0-1.039,0.174-1.963,0.521-2.769s0.806-1.486,1.378-2.041s1.23-0.975,1.976-1.261 s1.517-0.429,2.314-0.429c1.074,0,1.959,0.199,2.652,0.598c0.692,0.398,1.309,0.893,1.846,1.481v-1.819h3.952v10.79 c0,2.479-0.59,4.307-1.769,5.485c-0.658,0.659-1.486,1.136-2.482,1.431C82.914,30.448,81.74,30.596,80.388,30.596z M80.855,21.964 c0.485,0,0.937-0.078,1.353-0.233c0.416-0.156,0.775-0.377,1.079-0.664c0.303-0.285,0.541-0.627,0.715-1.027 c0.173-0.398,0.26-0.831,0.26-1.299v-0.053c0-0.468-0.087-0.9-0.26-1.3c-0.174-0.398-0.412-0.74-0.715-1.026 c-0.304-0.286-0.663-0.507-1.079-0.663s-0.867-0.234-1.353-0.234s-0.932,0.078-1.339,0.234s-0.763,0.377-1.065,0.663 c-0.304,0.286-0.542,0.628-0.715,1.026c-0.174,0.399-0.261,0.832-0.261,1.3v0.053c0,0.971,0.321,1.75,0.962,2.34 C79.079,21.67,79.885,21.964,80.855,21.964z"/>
<path fill="#2A3052" d="M96.43,26.695c-1.04,0-2.007-0.173-2.899-0.52s-1.664-0.84-2.313-1.482 c-0.65-0.641-1.157-1.398-1.521-2.274c-0.363-0.875-0.546-1.851-0.546-2.925v-0.053c0-0.988,0.169-1.924,0.507-2.808 s0.811-1.655,1.417-2.313c0.606-0.659,1.33-1.179,2.171-1.561c0.841-0.381,1.772-0.571,2.796-0.571 c1.16,0,2.166,0.208,3.016,0.624c0.849,0.416,1.556,0.975,2.119,1.677c0.563,0.702,0.979,1.508,1.248,2.418 c0.269,0.909,0.402,1.858,0.402,2.847c0,0.156-0.004,0.32-0.013,0.494s-0.021,0.355-0.039,0.546h-9.698 c0.191,0.901,0.585,1.581,1.184,2.041c0.598,0.46,1.339,0.688,2.223,0.688c0.659,0,1.248-0.112,1.769-0.338 c0.52-0.225,1.057-0.589,1.611-1.092l2.263,2.002c-0.659,0.814-1.456,1.452-2.393,1.911C98.796,26.466,97.694,26.695,96.43,26.695 z M98.978,18.324c-0.121-0.884-0.434-1.6-0.936-2.146c-0.503-0.546-1.17-0.818-2.002-0.818s-1.504,0.269-2.016,0.806 s-0.845,1.257-1.001,2.158H98.978z"/>
<path fill="#2A3052" d="M103.891,12.448h3.952v1.992c0.226-0.297,0.473-0.581,0.741-0.852s0.567-0.51,0.897-0.72 c0.329-0.209,0.692-0.375,1.092-0.497c0.398-0.123,0.849-0.184,1.352-0.184c1.508,0,2.674,0.459,3.497,1.378 s1.235,2.184,1.235,3.796v9.021h-3.952v-7.755c0-0.934-0.208-1.639-0.624-2.113c-0.416-0.476-1.006-0.714-1.768-0.714 c-0.764,0-1.365,0.238-1.808,0.714c-0.441,0.475-0.663,1.18-0.663,2.113v7.755h-3.952V12.448z"/>
<path fill="#2A3052" d="M122.923,26.617c-0.606,0-1.156-0.064-1.65-0.194s-0.919-0.359-1.274-0.688 c-0.355-0.33-0.633-0.759-0.832-1.287c-0.199-0.529-0.299-1.201-0.299-2.016v-6.604h-1.664v-3.38h1.664V8.886h3.952v3.563h3.276 v3.38h-3.276v5.975c0,0.904,0.425,1.357,1.273,1.357c0.693,0,1.344-0.174,1.95-0.521v3.173c-0.416,0.242-0.875,0.438-1.378,0.584 C124.162,26.544,123.582,26.617,122.923,26.617z"/>
<path fill="#2A3052" d="M133.478,8.184h4.316l4.784,7.696l4.784-7.696h4.315v18.2h-3.952V14.502l-5.122,7.773H142.5l-5.07-7.695 v11.804h-3.952V8.184z"/>
<path fill="#2A3052" d="M157.71,26.644c-0.658,0-1.278-0.091-1.858-0.272c-0.581-0.182-1.088-0.455-1.521-0.819 s-0.775-0.81-1.026-1.339c-0.252-0.529-0.378-1.14-0.378-1.833v-0.052c0-0.763,0.139-1.422,0.416-1.977s0.663-1.014,1.157-1.378 s1.083-0.637,1.769-0.819c0.685-0.182,1.442-0.272,2.274-0.272c0.711,0,1.33,0.052,1.859,0.155 c0.528,0.104,1.044,0.244,1.547,0.416V18.22c0-0.832-0.252-1.464-0.754-1.897c-0.503-0.434-1.248-0.65-2.236-0.65 c-0.763,0-1.435,0.065-2.015,0.195c-0.581,0.13-1.192,0.316-1.833,0.559l-0.988-3.016c0.763-0.329,1.561-0.598,2.393-0.806 s1.837-0.313,3.016-0.313c1.092,0,2.023,0.135,2.795,0.403s1.408,0.654,1.911,1.156c0.52,0.521,0.901,1.157,1.144,1.911 c0.243,0.754,0.364,1.6,0.364,2.535v8.086h-3.822v-1.508c-0.485,0.537-1.065,0.966-1.741,1.286 C159.504,26.483,158.681,26.644,157.71,26.644z M158.906,23.914c0.936,0,1.686-0.225,2.249-0.676S162,22.197,162,21.47v-0.702 c-0.347-0.156-0.732-0.281-1.157-0.377c-0.425-0.095-0.88-0.143-1.364-0.143c-0.85,0-1.518,0.164-2.002,0.494 c-0.485,0.329-0.729,0.806-0.729,1.43v0.052c0,0.538,0.199,0.954,0.599,1.248C157.745,23.767,158.265,23.914,158.906,23.914z"/>
<path fill="#2A3052" d="M167.277,12.448h3.952v2.808c0.398-0.953,0.944-1.716,1.639-2.288c0.692-0.571,1.629-0.832,2.808-0.779 v4.134h-0.208c-1.317,0-2.353,0.398-3.107,1.195c-0.754,0.798-1.131,2.037-1.131,3.719v5.147h-3.952V12.448z"/>
<path fill="#2A3052" d="M176.273,7.404h3.952v10.113l4.628-5.069h4.732l-5.304,5.485l5.485,8.45h-4.523l-3.641-5.694l-1.378,1.457 v4.237h-3.952V7.404z"/>
<path fill="#2A3052" d="M196.398,26.695c-1.04,0-2.007-0.173-2.899-0.52s-1.664-0.84-2.313-1.482 c-0.65-0.641-1.157-1.398-1.521-2.274c-0.363-0.875-0.546-1.851-0.546-2.925v-0.053c0-0.988,0.169-1.924,0.507-2.808 s0.811-1.655,1.417-2.313c0.606-0.659,1.33-1.179,2.171-1.561c0.841-0.381,1.772-0.571,2.796-0.571 c1.16,0,2.166,0.208,3.016,0.624c0.849,0.416,1.556,0.975,2.119,1.677c0.563,0.702,0.979,1.508,1.248,2.418 c0.269,0.909,0.402,1.858,0.402,2.847c0,0.156-0.004,0.32-0.013,0.494s-0.021,0.355-0.039,0.546h-9.698 c0.191,0.901,0.585,1.581,1.184,2.041c0.598,0.46,1.339,0.688,2.223,0.688c0.659,0,1.248-0.112,1.769-0.338 c0.52-0.225,1.057-0.589,1.611-1.092l2.263,2.002c-0.659,0.814-1.456,1.452-2.393,1.911 C198.765,26.466,197.663,26.695,196.398,26.695z M198.946,18.324c-0.121-0.884-0.434-1.6-0.936-2.146 c-0.503-0.546-1.17-0.818-2.002-0.818s-1.504,0.269-2.016,0.806s-0.845,1.257-1.001,2.158H198.946z"/>
<path fill="#2A3052" d="M208.565,26.617c-0.606,0-1.156-0.064-1.65-0.194s-0.919-0.359-1.274-0.688 c-0.355-0.33-0.633-0.759-0.832-1.287c-0.199-0.529-0.299-1.201-0.299-2.016v-6.604h-1.664v-3.38h1.664V8.886h3.952v3.563h3.276 v3.38h-3.276v5.975c0,0.904,0.425,1.357,1.273,1.357c0.693,0,1.344-0.174,1.95-0.521v3.173c-0.416,0.242-0.875,0.438-1.378,0.584 C209.805,26.544,209.225,26.617,208.565,26.617z"/>
<path fill="#2A3052" d="M217.666,26.644c-0.988,0-1.998-0.169-3.029-0.507s-2.015-0.871-2.951-1.6l1.69-2.6 c0.763,0.555,1.521,0.971,2.274,1.248s1.46,0.416,2.119,0.416c0.572,0,0.992-0.095,1.262-0.285 c0.268-0.191,0.402-0.442,0.402-0.754V22.51c0-0.208-0.078-0.391-0.233-0.546c-0.156-0.156-0.369-0.29-0.638-0.403 c-0.269-0.112-0.576-0.221-0.923-0.324c-0.347-0.104-0.711-0.217-1.092-0.338c-0.485-0.139-0.975-0.309-1.469-0.508 s-0.94-0.459-1.339-0.779c-0.399-0.321-0.725-0.715-0.976-1.184c-0.251-0.468-0.377-1.04-0.377-1.716V16.66 c0-0.711,0.134-1.339,0.403-1.885c0.269-0.546,0.632-1.01,1.092-1.392c0.459-0.381,0.996-0.667,1.612-0.857 c0.614-0.19,1.277-0.286,1.988-0.286c0.885,0,1.781,0.143,2.691,0.429s1.746,0.681,2.509,1.183l-1.508,2.73 c-0.693-0.398-1.369-0.715-2.028-0.949c-0.658-0.233-1.239-0.351-1.741-0.351c-0.486,0-0.85,0.091-1.093,0.272 c-0.242,0.183-0.363,0.412-0.363,0.689v0.052c0,0.191,0.077,0.36,0.233,0.507c0.156,0.147,0.364,0.286,0.624,0.416 s0.56,0.256,0.897,0.377s0.697,0.243,1.079,0.364c0.484,0.155,0.979,0.343,1.481,0.559c0.503,0.218,0.953,0.481,1.353,0.794 c0.398,0.312,0.728,0.693,0.987,1.143c0.261,0.451,0.391,0.998,0.391,1.639v0.053c0,0.779-0.135,1.451-0.403,2.014 c-0.269,0.564-0.646,1.027-1.131,1.392s-1.053,0.638-1.703,0.819S218.411,26.644,217.666,26.644z"/>
<path fill="#2A3052" d="M239.063,26.695c-1.422,0-2.718-0.233-3.888-0.701c-1.17-0.469-2.175-1.118-3.016-1.95 s-1.495-1.82-1.963-2.964c-0.468-1.145-0.702-2.393-0.702-3.744v-0.052c0-1.3,0.238-2.518,0.715-3.653 c0.477-1.135,1.14-2.132,1.989-2.99c0.849-0.857,1.854-1.533,3.016-2.027s2.436-0.741,3.822-0.741 c0.814,0,1.556,0.057,2.223,0.169c0.668,0.113,1.287,0.273,1.859,0.481s1.109,0.468,1.612,0.779 c0.502,0.313,0.987,0.668,1.456,1.066l-2.522,3.042c-0.347-0.295-0.693-0.555-1.04-0.78c-0.347-0.225-0.706-0.416-1.079-0.572 c-0.373-0.155-0.775-0.276-1.209-0.363s-0.91-0.13-1.43-0.13c-0.729,0-1.408,0.152-2.041,0.456s-1.188,0.712-1.664,1.225 s-0.85,1.112-1.118,1.798c-0.269,0.687-0.402,1.421-0.402,2.202v0.052c0,0.834,0.134,1.603,0.402,2.307 c0.269,0.703,0.65,1.316,1.145,1.836c0.494,0.521,1.074,0.926,1.741,1.213c0.668,0.287,1.408,0.43,2.224,0.43 c1.49,0,2.747-0.367,3.77-1.1v-2.619h-4.029v-3.457h7.903v7.903c-0.936,0.798-2.05,1.478-3.341,2.041 S240.728,26.695,239.063,26.695z"/>
<path fill="#2A3052" d="M248.396,12.448h3.952v2.808c0.398-0.953,0.944-1.716,1.639-2.288c0.692-0.571,1.629-0.832,2.808-0.779 v4.134h-0.208c-1.317,0-2.353,0.398-3.107,1.195c-0.754,0.798-1.131,2.037-1.131,3.719v5.147h-3.952V12.448z"/>
<path fill="#2A3052" d="M264.231,26.695c-1.075,0-2.072-0.186-2.99-0.559c-0.919-0.373-1.712-0.884-2.379-1.533 c-0.668-0.65-1.192-1.413-1.573-2.289c-0.382-0.875-0.572-1.815-0.572-2.82v-0.053c0-1.005,0.19-1.945,0.572-2.82 c0.381-0.875,0.91-1.643,1.586-2.301c0.676-0.659,1.473-1.179,2.392-1.561c0.919-0.381,1.925-0.571,3.017-0.571 c1.074,0,2.071,0.186,2.99,0.559c0.918,0.373,1.711,0.884,2.379,1.534c0.667,0.649,1.191,1.413,1.572,2.288 c0.382,0.875,0.572,1.815,0.572,2.82v0.052c0,1.006-0.19,1.946-0.572,2.821c-0.381,0.876-0.909,1.643-1.586,2.302 c-0.676,0.658-1.473,1.178-2.392,1.56C266.328,26.505,265.323,26.695,264.231,26.695z M264.283,23.289 c0.572,0,1.079-0.099,1.521-0.299c0.442-0.199,0.819-0.472,1.131-0.818c0.313-0.347,0.551-0.75,0.716-1.209 c0.164-0.459,0.247-0.949,0.247-1.469v-0.053c0-0.52-0.087-1.01-0.261-1.469c-0.173-0.459-0.425-0.866-0.754-1.222 s-0.72-0.637-1.17-0.845c-0.451-0.208-0.945-0.313-1.481-0.313c-0.572,0-1.079,0.101-1.521,0.299 c-0.442,0.2-0.819,0.473-1.131,0.819c-0.313,0.347-0.551,0.75-0.715,1.209c-0.165,0.46-0.247,0.948-0.247,1.469v0.052 c0,0.521,0.086,1.01,0.26,1.469c0.173,0.46,0.425,0.867,0.754,1.223s0.715,0.637,1.157,0.846 C263.23,23.186,263.729,23.289,264.283,23.289z"/>
<path fill="#2A3052" d="M277.413,26.644c-1.509,0-2.675-0.459-3.497-1.378c-0.824-0.918-1.235-2.184-1.235-3.796v-9.021h3.952 v7.755c0,0.934,0.208,1.639,0.624,2.113c0.416,0.476,1.005,0.713,1.768,0.713s1.365-0.237,1.808-0.713 c0.441-0.475,0.662-1.18,0.662-2.113v-7.755h3.952v13.936h-3.952v-1.992c-0.225,0.297-0.472,0.581-0.74,0.851 c-0.27,0.271-0.568,0.512-0.897,0.721s-0.693,0.375-1.092,0.498C278.365,26.582,277.915,26.644,277.413,26.644z"/>
<path fill="#2A3052" d="M287.11,12.448h3.952v2.002c0.485-0.659,1.07-1.2,1.755-1.625s1.548-0.637,2.587-0.637 c0.815,0,1.604,0.155,2.366,0.468c0.763,0.312,1.438,0.775,2.028,1.391c0.589,0.615,1.062,1.369,1.417,2.262 c0.355,0.894,0.533,1.92,0.533,3.081v0.052c0,1.162-0.178,2.189-0.533,3.082s-0.823,1.646-1.404,2.262s-1.252,1.078-2.015,1.391 s-1.561,0.468-2.393,0.468c-1.057,0-1.928-0.208-2.612-0.624c-0.686-0.416-1.261-0.9-1.729-1.455v5.979h-3.952V12.448z M294.391,23.289c0.468,0,0.905-0.09,1.313-0.272c0.406-0.182,0.767-0.442,1.079-0.78c0.312-0.338,0.559-0.74,0.74-1.209 c0.183-0.468,0.273-0.996,0.273-1.586V19.39c0-0.571-0.091-1.096-0.273-1.573c-0.182-0.476-0.429-0.884-0.74-1.222 c-0.313-0.338-0.673-0.598-1.079-0.779c-0.408-0.183-0.846-0.273-1.313-0.273s-0.906,0.091-1.313,0.273 c-0.408,0.182-0.764,0.441-1.066,0.779c-0.304,0.338-0.546,0.746-0.728,1.222c-0.183,0.478-0.273,1.002-0.273,1.573v0.052 c0,0.572,0.091,1.097,0.273,1.573c0.182,0.478,0.424,0.884,0.728,1.222c0.303,0.338,0.658,0.599,1.066,0.78 C293.484,23.199,293.923,23.289,294.391,23.289z"/>
</svg>
