<?xml version="1.0" encoding="UTF-8" standalone="no"?>
<svg xmlns="http://www.w3.org/2000/svg" version="1.1" viewBox="0 0 50 50">
<path d="M 25,0 C 14.62784,-0.21405 4.55064,6.81075 1.34513,16.71378 c -3.48701,9.98254 -0.0958,22.06653 8.53457,28.34323 9.08799,6.8884 22.89019,6.55347 31.48796,-1.00784 7.48467,-6.34116 10.51,-17.24043 7.53017,-26.56177 C 46.36866,9.04802 39.05888,2.26845 30.39189,0.56214 28.62106,0.18563 26.81037,-0.00254 25,0 z m 6.5,25 c -1.43333,0 -2.86667,0 -4.3,0 0,5 0,10 0,15 -2.1,0 -4.2,0 -6.3,0 0,-5 0,-10 0,-15 -1,0 -2,0 -3,0 0,-1.8 0,-3.6 0,-5.4 1,0 2,0 3,0 0.004,-2.98799 -0.41513,-6.70687 2.32327,-8.71322 2.47604,-1.76948 5.63546,-1.02463 8.46076,-1.16999 0.73729,0.97475 0.12963,2.56941 0.31597,3.81966 0.72945,2.9076 -3.60629,0.16274 -4.50081,2.12565 -0.46875,1.85766 -0.75015,4.93149 2.06355,3.9559 1.77149,-0.32224 3.08706,0.13764 2.3167,2.12956 C 31.77447,22.83395 31.67462,23.92203 31.5,25 z" style="fill:#dcdcdc" />
</svg>
