<?xml version="1.0" encoding="utf-8"?>
<!-- Generator: Adobe Illustrator 19.0.1, SVG Export Plug-In . SVG Version: 6.00 Build 0)  -->
<svg version="1.1" id="Layer_1" xmlns="http://www.w3.org/2000/svg" xmlns:xlink="http://www.w3.org/1999/xlink" x="0px" y="0px"
	 viewBox="0 0 110.1 60.9" style="enable-background:new 0 0 110.1 60.9;" xml:space="preserve">
<style type="text/css">
	.st0{fill:none;stroke:#E88024;stroke-width:2;stroke-miterlimit:10;}
	.st1{fill:none;stroke:#E88025;stroke-width:2;stroke-miterlimit:10;}
	.st2{fill:none;stroke:#E88025;stroke-miterlimit:10;}
</style>
<g>
	<g>
		<g id="XMLID_1118_">
			<g>
				<path id="XMLID_19_" class="st0" d="M11.3,25.3c2,0,3.6-1.3,4.2-3h0c0.2-0.5,0.4-1.1,0.7-1.5c1.5-2.6,4.4-4.4,7.6-4.4h11.7h9
					c1.3,0,2.3,1,2.3,2.3c0,1.3-1.1,2.3-2.3,2.3h-1.7h-4.8c-0.5,0-0.8,0.4-0.8,0.8c0,0.5,0.4,0.8,0.8,0.8h0.3h4.5h7.5h6h9
					c1.3,0,2.3,1,2.3,2.3c0,1.3-1.1,2.3-2.3,2.3h-9h-6c-1.3,0-2.3,1-2.3,2.3c0,1.3,1,2.3,2.3,2.3h6h9c1.3,0,2.3,1,2.3,2.3
					c0,1.3-1.1,2.3-2.3,2.3h-9h-6c-1.3,0-2.3,1-2.3,2.3c0,1.3,1,2.3,2.3,2.3h6h9c1.3,0,2.3,1,2.3,2.3c0,1.3-1.1,2.3-2.3,2.3h-9h-6
					c-1.3,0-2.3,1-2.3,2.3c0,1.3,1,2.3,2.3,2.3h6h9c1.3,0,2.3,1,2.3,2.3c0,1.3-1.1,2.3-2.3,2.3h-9H33.5h2.1H28h-3.3h-1.5
					c-3-0.2-5.5-1.8-7-4.2h0c-0.8-1.3-2.2-2.2-3.8-2.2H1V25.3H11.3z"/>
				<path id="XMLID_17_" class="st1" d="M109.3,30v23.8h-5.8c-1.6,0-3.1,0.9-3.8,2.2h0c-1.5,2.3-4.1,3.9-7,4.2h-1.5h-3.3h-7.6h2.1
					H59.4h-9c-1.3,0-2.3-1-2.3-2.3c0-1.3,1.1-2.3,2.3-2.3h9h6c1.3,0,2.3-1,2.3-2.3c0-1.3-1-2.3-2.3-2.3h-6h-9c-1.3,0-2.3-1-2.3-2.3
					c0-1.3,1.1-2.3,2.3-2.3h9h6c1.3,0,2.3-1,2.3-2.3c0-1.3-1-2.3-2.3-2.3h-6h-9c-1.3,0-2.3-1-2.3-2.3c0-1.3,1.1-2.3,2.3-2.3h9h6
					c1.3,0,2.3-1,2.3-2.3c0-1.3-1-2.3-2.3-2.3h-6h-9c-1.3,0-2.3-1-2.3-2.3c0-1.3,1.1-2.3,2.3-2.3h9h6h7.5h4.5h0.3
					c0.5,0,0.8-0.4,0.8-0.8c0-0.5-0.4-0.8-0.8-0.8h-4.8h-1.7c-1.3,0-2.3-1-2.3-2.3c0-1.3,1.1-2.3,2.3-2.3h9h11.7
					c3.3,0,6.1,1.8,7.6,4.4c0.3,0.5,0.5,1,0.7,1.5h0c0.6,1.8,2.3,3,4.2,3H109.3z"/>
			</g>
			<g>
				<path id="XMLID_16_" class="st0" d="M11.3,25.3c2,0,3.6-1.3,4.2-3h0c0.2-0.5,0.4-1.1,0.7-1.5c1.5-2.6,4.4-4.4,7.6-4.4h11.7h9
					c1.3,0,2.3,1,2.3,2.3c0,1.3-1.1,2.3-2.3,2.3h-1.7h-4.8c-0.5,0-0.8,0.4-0.8,0.8c0,0.5,0.4,0.8,0.8,0.8h0.3h4.5h7.5h6h9
					c1.3,0,2.3,1,2.3,2.3c0,1.3-1.1,2.3-2.3,2.3h-9h-6c-1.3,0-2.3,1-2.3,2.3c0,1.3,1,2.3,2.3,2.3h6h9c1.3,0,2.3,1,2.3,2.3
					c0,1.3-1.1,2.3-2.3,2.3h-9h-6c-1.3,0-2.3,1-2.3,2.3c0,1.3,1,2.3,2.3,2.3h6h9c1.3,0,2.3,1,2.3,2.3c0,1.3-1.1,2.3-2.3,2.3h-9h-6
					c-1.3,0-2.3,1-2.3,2.3c0,1.3,1,2.3,2.3,2.3h6h9c1.3,0,2.3,1,2.3,2.3c0,1.3-1.1,2.3-2.3,2.3h-9H33.5h2.1H28h-3.3h-1.5
					c-3-0.2-5.5-1.8-7-4.2h0c-0.8-1.3-2.2-2.2-3.8-2.2H1V25.3H11.3z"/>
				<path id="XMLID_14_" class="st0" d="M109.3,30v23.8h-5.8c-1.6,0-3.1,0.9-3.8,2.2h0c-1.5,2.3-4.1,3.9-7,4.2h-1.5h-3.3h-7.6h2.1
					H59.4h-9c-1.3,0-2.3-1-2.3-2.3c0-1.3,1.1-2.3,2.3-2.3h9h6c1.3,0,2.3-1,2.3-2.3c0-1.3-1-2.3-2.3-2.3h-6h-9c-1.3,0-2.3-1-2.3-2.3
					c0-1.3,1.1-2.3,2.3-2.3h9h6c1.3,0,2.3-1,2.3-2.3c0-1.3-1-2.3-2.3-2.3h-6h-9c-1.3,0-2.3-1-2.3-2.3c0-1.3,1.1-2.3,2.3-2.3h9h6
					c1.3,0,2.3-1,2.3-2.3c0-1.3-1-2.3-2.3-2.3h-6h-9c-1.3,0-2.3-1-2.3-2.3c0-1.3,1.1-2.3,2.3-2.3h9h6h7.5h4.5h0.3
					c0.5,0,0.8-0.4,0.8-0.8c0-0.5-0.4-0.8-0.8-0.8h-4.8h-1.7c-1.3,0-2.3-1-2.3-2.3c0-1.3,1.1-2.3,2.3-2.3h9h11.7
					c3.3,0,6.1,1.8,7.6,4.4c0.3,0.5,0.5,1,0.7,1.5h0c0.6,1.8,2.3,3,4.2,3H109.3z"/>
			</g>
		</g>
	</g>
	<g>
		<g>
			<line class="st2" x1="59.8" y1="0" x2="59.8" y2="4.6"/>
		</g>
		<line class="st2" x1="82.1" y1="8.2" x2="77.6" y2="9.1"/>
		<line class="st2" x1="41.1" y1="9.1" x2="36.7" y2="8.2"/>
		<g>
			<line class="st2" x1="49.5" y1="5.9" x2="46.2" y2="2.6"/>
		</g>
		<g>
			<line class="st2" x1="70.1" y1="5.9" x2="73.3" y2="2.6"/>
		</g>
	</g>
</g>
</svg>
