<?xml version="1.0" encoding="utf-8"?>
<!-- Generator: Adobe Illustrator 14.0.0, SVG Export Plug-In . SVG Version: 6.00 Build 43363)  -->
<!DOCTYPE svg PUBLIC "-//W3C//DTD SVG 1.1//EN" "http://www.w3.org/Graphics/SVG/1.1/DTD/svg11.dtd">
<svg version="1.1" id="Layer_1" xmlns="http://www.w3.org/2000/svg" xmlns:xlink="http://www.w3.org/1999/xlink" x="0px" y="0px"
	 width="36px" height="36px" viewBox="0 0 36 36" enable-background="new 0 0 36 36" xml:space="preserve">
<g>
	<polygon fill="#2BA8E0" points="0,36 17.251,36 17.251,13.752 15.872,15.132 15.872,15.133 15.871,15.133 15.301,15.703 
		15.301,15.703 13.003,18 9.101,18 11.969,15.132 3.872,15.131 3.872,12.372 11.97,12.372 9.101,9.503 13.003,9.504 15.3,11.801 
		15.871,12.373 15.872,12.373 15.872,12.374 17.251,13.752 17.251,0 0,0 	"/>
	<polygon fill="#2BA8E0" points="18.749,0 18.749,22.248 22.997,18 26.899,18.001 24.031,20.869 32.128,20.869 32.128,23.629 
		24.029,23.628 26.899,26.496 22.997,26.496 20.7,24.199 18.749,22.248 18.749,36 36,36 36,0 	"/>
</g>
</svg>
