<?xml version="1.0" encoding="utf-8"?>
<!-- Generator: Adobe Illustrator 14.0.0, SVG Export Plug-In . SVG Version: 6.00 Build 43363)  -->
<!DOCTYPE svg PUBLIC "-//W3C//DTD SVG 1.1//EN" "http://www.w3.org/Graphics/SVG/1.1/DTD/svg11.dtd">
<svg version="1.1" id="Layer_1" xmlns="http://www.w3.org/2000/svg" xmlns:xlink="http://www.w3.org/1999/xlink" x="0px" y="0px"
	 width="36px" height="36px" viewBox="0 0 36 36" enable-background="new 0 0 36 36" xml:space="preserve">
<g>
	<polygon fill="#2BA8E0" points="0,36 17.251,36 17.251,18 15.872,19.38 15.872,19.381 15.871,19.381 15.301,19.951 13.003,22.248 
		9.101,22.248 11.969,19.38 3.872,19.379 3.872,16.619 11.97,16.62 9.101,13.752 13.003,13.752 15.3,16.049 17.251,18 17.251,0 0,0 
			"/>
	<polygon fill="#2BA8E0" points="18.749,0 18.749,18 20.128,16.62 20.128,16.619 20.129,16.619 20.699,16.049 22.997,13.752 
		26.899,13.752 24.031,16.62 32.128,16.621 32.128,19.381 24.03,19.38 26.899,22.248 22.997,22.248 20.7,19.951 18.749,18 
		18.749,36 36,36 36,0 	"/>
</g>
</svg>
