<svg xmlns="http://www.w3.org/2000/svg" viewBox="0 0 240 180"><path fill="#2BA9E0" d="M40.332 110.806h-3.328l5.989 8.695 5.988-8.695h-3.623c.195-9.012 7.582-16.284 16.645-16.284v-5.027c-11.834.005-21.503 9.505-21.703 21.305M185.328 92.825v-3.33l-8.692 5.988 8.692 5.987v-3.622c9.013.2 16.3 7.6 16.3 16.646h5.027c-.014-11.794-9.555-21.494-21.355-21.694M58.319 170.302v3.326l8.69-5.986-8.69-5.992v3.625c-9.016-.195-16.288-7.584-16.288-16.643h-5.028c.001 11.868 9.497 21.468 21.297 21.668M203.313 152.314h3.327l-5.987-8.691-5.99 8.691h3.623c-.194 9.016-7.584 16.285-16.64 16.285v5.029c11.829-.028 21.454-9.528 21.654-21.328"/><text transform="translate(88 93.929)" font-style="italic" font-weight="bold" font-family="Arial" font-size="18">Market</text><g font-style="italic" font-weight="bold" font-family="Arial" font-size="18"><text transform="translate(.1 138)">Duration</text><text transform="translate(88 173.629)">Payout</text><text transform="translate(168 138)">Barrier</text></g><circle fill="#222" cx="124" cy="22" r="22"/><text transform="translate(117 30)" fill="#fff" font-family="Arial" font-weight="bold" font-size="22">1</text></svg>
