<svg xmlns="http://www.w3.org/2000/svg" width="231.316" height="97" viewBox="0 0 231.316 97"><path fill="#F69321" d="M9.846 50.824c1.576 0 3.511-.658 5.74-1.958 3.935-2.291 8.58-8.602 13.071-14.71 4.837-6.573 9.833-13.374 13.901-15.116l-.076-.37c-4.613 0-12.078 7.41-18.667 13.955-6.049 6.001-11.725 11.584-13.063 9.312-.235-.406-.358-1.055-.358-1.924 0-5.291 1.802-6.824 1.816-6.838l.421-.346h-5.213l-.045.139c-.021.07-2.273 7.248-2.273 11.387.001 4.053 1.774 6.469 4.746 6.469M18.896 33.11c.4 0 .785-.078 1.138-.233 1.127-.504 1.836-1.739 1.996-3.481.157-1.707-.229-3.698-1.08-5.62-1.756-3.934-5.112-6.412-7.376-5.403-2.284 1.019-2.699 5.099-.917 9.1 1.479 3.321 4.043 5.637 6.239 5.637M17.374 53.975c-16.232.189-17.359 30.101-17.369 30.402l-.005.266 6.796-2 .014-.121c.027-.225 2.929-22.115 13.209-22.115 10.389 0 59.797 36.227 60.294 36.594l.246-.295c-1.906-1.747-46.853-42.731-63.185-42.731M26.949 41.945l-.115-.119-3.883 2.861.118.158c.073.098 7.716 10.088 16.394 10.088 7.229 0 10.535-9.105 10.568-9.198l-.354-.157c-.022.05-2.849 5.001-8.515 5.001-5.704.003-14.127-8.544-14.213-8.634"/><path fill="#EB1A5B" d="M115.67 3.979c-.104-.04-10.812-3.979-24.52-3.979-18.095 0-42.28 6.813-54.745 39.286l.354.155c13.873-27.385 34.986-33.131 50.253-33.131 14.399 0 25.69 5.029 25.804 5.082l.186.08 2.854-7.426-.186-.067z"/><path fill="#00A89C" d="M121.349 19.917c-.16-.101-16.288-9.836-35.863-9.836-20.132 0-36.509 9.882-48.677 29.361l.316.227c12.396-15.946 27.4-24.029 44.596-24.029 19.662 0 35.264 10.896 35.415 11.006l.168.118 4.215-6.748-.17-.099z"/><path fill="#90298D" d="M123.888 36.646c-.188-.173-19.446-17.552-43.974-17.552-15.631 0-30.011 6.929-42.739 20.592l.269.274c12.18-10.642 25.141-16.033 38.525-16.033 24.536 0 42.321 18.343 42.497 18.525l.146.149 5.422-5.82-.146-.135z"/><path fill="#fff" d="M57.673 60.73v-12.467h2.43v10.298h5.657v2.169zM74.846 59.469c-.876.877-1.944 1.363-3.361 1.363-1.418 0-2.505-.486-3.381-1.363-1.257-1.262-1.224-2.816-1.224-4.971 0-2.156-.033-3.713 1.224-4.975.876-.877 1.963-1.368 3.381-1.368 1.417 0 2.485.49 3.361 1.368 1.259 1.262 1.24 2.816 1.24 4.975.001 2.152.018 3.709-1.24 4.971m-1.804-8.475c-.352-.402-.895-.664-1.559-.664s-1.229.262-1.578.664c-.471.525-.593 1.102-.593 3.504 0 2.396.122 2.975.593 3.502.35.4.914.662 1.578.662s1.208-.262 1.559-.662c.472-.527.613-1.105.613-3.502.001-2.402-.142-2.977-.613-3.504"/><path fill="#fff" d="M82.983 50.434v10.296h-2.43v-10.296h-3.261v-2.171h8.948v2.171zM92.974 50.434v10.296h-2.429v-10.296h-3.259v-2.171h8.949v2.171zM98.208 60.73v-12.467h8.214v2.171h-5.782v2.923h4.921v2.172h-4.921v3.032h5.782v2.169zM115.415 60.73l-2.433-4.975h-1.751v4.975h-2.434v-12.467h4.884c2.538 0 4.044 1.733 4.044 3.817 0 1.752-1.065 2.836-2.274 3.275l2.781 5.375h-2.817zm-1.893-10.296h-2.29v3.291h2.29c1.069 0 1.771-.682 1.771-1.645s-.7-1.646-1.771-1.646"/><path fill="#fff" d="M120.242 48.263h2.436v12.469h-2.436zM125.584 60.73v-12.467h8.211v2.171h-5.78v2.923h4.922v2.172h-4.922v3.032h5.78v2.169zM139.601 60.832c-1.893 0-3.325-.402-4.551-1.643l1.578-1.576c.785.789 1.852 1.049 3.006 1.049 1.438 0 2.209-.543 2.209-1.539 0-.438-.123-.805-.385-1.051-.246-.227-.527-.35-1.104-.439l-1.506-.209c-1.067-.156-1.854-.486-2.416-1.031-.596-.598-.893-1.404-.893-2.453 0-2.225 1.645-3.782 4.34-3.782 1.719 0 2.959.423 4.027 1.454l-1.541 1.525c-.785-.754-1.732-.859-2.56-.859-1.295 0-1.924.719-1.924 1.576 0 .314.105.646.367.895.248.229.647.418 1.154.486l1.473.215c1.139.154 1.854.473 2.379.963.668.629.963 1.537.963 2.645.005 2.411-2.004 3.774-4.616 3.774M158.646 60.73l-.909-1.086c-.578.453-1.438 1.188-3.224 1.188-2.752 0-4.11-1.438-4.11-3.783 0-1.592 1.153-2.625 2.237-3.344-.508-.576-1.237-1.453-1.237-2.643 0-1.699 1.237-2.905 3.319-2.905 1.965 0 3.187 1.241 3.187 2.94 0 .961-.504 1.607-1.273 2.17 0 0-.58.438-.893.648l2.1 2.486c.404-.543.601-1.295.631-2.189h2.154c-.09 1.611-.455 2.891-1.334 3.867l2.24 2.646h-2.888v.005zm-4.777-5.619c-.758.52-1.262 1.014-1.262 1.906 0 1.031.838 1.752 1.893 1.752.734 0 1.275-.23 1.854-.736l-2.485-2.922zm.853-5.007c-.682 0-1.035.438-1.035 1.016 0 .457.39.895.826 1.4.174-.105.521-.352.521-.352.406-.277.721-.613.721-1.051.003-.576-.38-1.013-1.033-1.013M175.399 59.418c-.968.98-2.119 1.414-3.521 1.414-1.328 0-2.449-.453-3.359-1.363-.545-.543-.877-1.172-1.014-1.871-.143-.703-.213-1.732-.213-3.1 0-1.369.07-2.4.213-3.104.137-.713.469-1.33 1.014-1.871.91-.908 2.031-1.368 3.359-1.368 2.838 0 4.361 1.825 4.695 3.995h-2.453c-.297-1.209-1.035-1.822-2.242-1.822-.646 0-1.174.23-1.559.666-.453.58-.597 1.031-.597 3.504 0 2.451.105 2.939.597 3.518.368.439.895.646 1.559.646.717 0 1.297-.229 1.736-.699.36-.422.561-.979.561-1.664v-.473h-2.297v-2.031h4.709v1.822c-.001 1.821-.329 2.887-1.188 3.801"/><path fill="#fff" d="M185.793 60.729l-.734-2.207h-4.43l-.752 2.207h-2.541l4.535-12.465h1.908l4.555 12.465h-2.541zm-2.905-8.79l-1.578 4.537h3.103l-1.525-4.537zM198.73 60.73v-7.269l-2.384 4.728h-1.645l-2.398-4.728v7.269h-2.434v-12.467h2.398l3.261 6.739 3.234-6.739h2.398v12.467zM204.065 48.263h2.436v12.469h-2.436zM216.776 60.73l-4.938-7.652v7.652h-2.433v-12.467h2.169l4.938 7.635v-7.635h2.434v12.467zM229.533 59.418c-.965.98-2.119 1.414-3.521 1.414-1.33 0-2.451-.453-3.358-1.363-.539-.543-.875-1.172-1.017-1.871-.139-.703-.211-1.732-.211-3.1 0-1.369.072-2.4.211-3.104.142-.713.478-1.33 1.017-1.871.907-.908 2.028-1.368 3.358-1.368 2.838 0 4.361 1.825 4.695 3.995h-2.453c-.297-1.209-1.029-1.822-2.242-1.822-.645 0-1.172.23-1.555.666-.457.58-.596 1.031-.596 3.504 0 2.451.102 2.939.596 3.518.365.439.889.646 1.555.646.72 0 1.301-.229 1.736-.699.369-.422.559-.979.559-1.664v-.473h-2.295v-2.031h4.711v1.822c-.001 1.821-.333 2.887-1.19 3.801"/><path fill="#fff" d="M90.736 82.117l-.734-2.207h-4.429l-.75 2.207h-2.541l4.531-12.463h1.911l4.552 12.463h-2.54zm-2.905-8.791l-1.577 4.537h3.101l-1.524-4.537zM99.208 82.221c-2.559 0-4.589-1.73-4.589-4.375v-8.191h2.434v8.104c0 1.438.839 2.299 2.155 2.299 1.309 0 2.169-.861 2.169-2.299v-8.104h2.417v8.191c.001 2.644-2.031 4.375-4.586 4.375"/><path fill="#fff" d="M111.268 71.822v10.295h-2.437v-10.295h-3.254v-2.168h8.945v2.168zM123.151 82.117v-5.217h-4.222v5.217h-2.431v-12.463h2.431v5.092h4.222v-5.092h2.435v12.463zM136.033 80.857c-.877.875-1.943 1.363-3.363 1.363-1.416 0-2.504-.488-3.377-1.363-1.26-1.26-1.227-2.818-1.227-4.977 0-2.148-.033-3.709 1.227-4.971.873-.877 1.961-1.367 3.377-1.367 1.42 0 2.486.49 3.363 1.367 1.258 1.262 1.244 2.818 1.244 4.971.001 2.159.014 3.718-1.244 4.977m-1.803-8.472c-.352-.404-.896-.664-1.561-.664-.666 0-1.225.26-1.578.664-.471.523-.592 1.102-.592 3.498 0 2.4.121 2.979.592 3.506.354.4.912.666 1.578.666.664 0 1.209-.266 1.561-.666.472-.527.611-1.105.611-3.506.003-2.397-.14-2.975-.611-3.498M146.379 82.117l-2.436-4.971h-1.75v4.971h-2.438v-12.463h4.887c2.541 0 4.045 1.729 4.045 3.813 0 1.748-1.067 2.838-2.272 3.271l2.783 5.377h-2.818v.002zm-1.892-10.295h-2.293v3.293h2.293c1.065 0 1.771-.684 1.771-1.646s-.705-1.647-1.771-1.647"/><path fill="#fff" d="M151.207 69.652h2.434v12.465h-2.434zM161.304 71.822v10.295h-2.435v-10.295h-3.254v-2.168h8.947v2.168zM171.301 77.006v5.111h-2.418v-5.111l-3.745-7.352h2.645l2.327 5.024 2.296-5.024h2.643zM190.605 71.84l-3.777 8.527h-.945l-3.852-8.527v10.277h-.947v-12.463h.947l4.34 9.608 4.234-9.608h.948v12.463h-.948zM201.653 79.09h-5.814l-1.082 3.027h-1.02l4.59-12.465h.838l4.59 12.465h-1.02l-1.082-3.027zm-5.516-.842h5.217l-2.606-7.334-2.611 7.334zM205.937 69.652h.948v11.625h6.613v.84h-7.561zM217.824 82.117h-.947v-11.625h-3.711v-.838h8.388v.838h-3.73zM229.217 79.09h-5.811l-1.086 3.027h-1.017l4.584-12.465h.849l4.58 12.465h-1.013l-1.086-3.027zm-5.516-.842h5.219l-2.609-7.334-2.61 7.334z"/></svg>
