<?xml version="1.0" encoding="UTF-8" standalone="no"?>
<svg xmlns="http://www.w3.org/2000/svg" version="1.1" viewBox="0 0 49.250001 49.250001" xml:space="preserve">
<polygon points="23.12,31.853 23.12,30.345 17.833,30.345 17.833,31.853 19.616,31.853 19.616,40.71 21.339,40.71 21.339,31.853 " transform="translate(-3.722,-5.155)" style="fill:#dcdcdc;fill-opacity:1"/>
<path d="m 24.691,19.338 c 0.234,0 0.42,-0.062 0.557,-0.189 0.137,-0.131 0.207,-0.309 0.207,-0.533 v -4.59 c 0,-0.184 -0.07,-0.334 -0.211,-0.445 -0.141,-0.115 -0.324,-0.172 -0.553,-0.172 -0.209,0 -0.379,0.057 -0.512,0.172 -0.131,0.111 -0.195,0.262 -0.195,0.445 v 4.59 c 0,0.23 0.061,0.408 0.184,0.533 0.121,0.127 0.297,0.189 0.523,0.189 z" style="fill:#dcdcdc;fill-opacity:1"/>
<path d="m 28.49,27.815 c -0.238,0 -0.473,0.061 -0.705,0.182 -0.229,0.121 -0.449,0.301 -0.654,0.533 v -3.34 h -1.545 v 10.365 h 1.545 v -0.586 c 0.199,0.236 0.418,0.408 0.652,0.52 0.232,0.111 0.5,0.166 0.801,0.166 0.451,0 0.801,-0.143 1.037,-0.432 0.24,-0.291 0.361,-0.705 0.361,-1.246 v -4.244 c 0,-0.627 -0.127,-1.104 -0.385,-1.428 -0.254,-0.326 -0.623,-0.49 -1.107,-0.49 z m -0.084,5.951 c 0,0.246 -0.045,0.42 -0.133,0.527 -0.088,0.109 -0.225,0.162 -0.412,0.162 -0.129,0 -0.25,-0.029 -0.369,-0.082 -0.117,-0.053 -0.24,-0.146 -0.361,-0.27 v -4.764 c 0.104,-0.107 0.209,-0.186 0.314,-0.234 0.105,-0.053 0.215,-0.076 0.324,-0.076 0.205,0 0.365,0.066 0.477,0.197 0.107,0.135 0.16,0.33 0.16,0.59 v 3.95 z" style="fill:#dcdcdc;fill-opacity:1" />
<path d="m 22.906,33.719 c -0.143,0.164 -0.301,0.299 -0.473,0.408 -0.172,0.107 -0.316,0.16 -0.426,0.16 -0.145,0 -0.248,-0.039 -0.314,-0.121 -0.062,-0.08 -0.096,-0.211 -0.096,-0.391 V 27.908 H 20.07 v 6.395 c 0,0.457 0.09,0.793 0.268,1.025 0.182,0.227 0.445,0.34 0.799,0.34 0.287,0 0.584,-0.078 0.889,-0.242 0.305,-0.166 0.598,-0.4 0.881,-0.709 v 0.838 h 1.529 v -7.646 h -1.529 v 5.81 z" style="fill:#dcdcdc;fill-opacity:1"/>
<path d="M 24.625,0 C 11.025,0 0,11.025 0,24.625 0,38.227 11.025,49.25 24.625,49.25 38.225,49.25 49.25,38.227 49.25,24.625 49.25,11.025 38.224,0 24.625,0 z m 3.978,12.162 h 1.719 v 6.459 c 0,0.201 0.039,0.344 0.111,0.432 0.07,0.09 0.188,0.137 0.35,0.137 0.125,0 0.285,-0.061 0.48,-0.178 0.191,-0.121 0.369,-0.271 0.529,-0.457 v -6.393 h 1.723 v 8.424 h -1.723 v -0.93 c -0.314,0.342 -0.645,0.605 -0.99,0.783 -0.342,0.178 -0.674,0.27 -0.998,0.27 -0.398,0 -0.697,-0.127 -0.9,-0.379 -0.199,-0.248 -0.301,-0.623 -0.301,-1.129 v -7.039 z m -6.39,1.926 c 0,-0.65 0.23,-1.17 0.693,-1.561 0.465,-0.383 1.088,-0.578 1.869,-0.578 0.713,0 1.295,0.205 1.752,0.611 0.453,0.406 0.68,0.934 0.68,1.578 v 4.35 c 0,0.723 -0.223,1.287 -0.666,1.695 -0.449,0.408 -1.062,0.613 -1.844,0.613 -0.752,0 -1.355,-0.211 -1.807,-0.631 -0.451,-0.426 -0.678,-0.996 -0.678,-1.711 v -4.366 z m -4.688,-4.92 1.258,4.562 h 0.123 l 1.197,-4.562 h 1.969 l -2.254,6.682 v 4.737 H 17.88 V 16.061 L 15.573,9.168 h 1.952 z m 22.539,24.033 c 0,3.047 -2.471,5.52 -5.518,5.52 H 15.37 c -3.049,0 -5.52,-2.473 -5.52,-5.52 v -4.438 c 0,-3.049 2.471,-5.52 5.52,-5.52 h 19.176 c 3.047,0 5.518,2.471 5.518,5.52 v 4.438 z" style="fill:#dcdcdc;fill-opacity:1"/>
<path d="m 33.105,27.719 c -0.686,0 -1.24,0.207 -1.674,0.627 -0.432,0.416 -0.65,0.959 -0.65,1.617 v 3.438 c 0,0.738 0.199,1.316 0.592,1.734 0.393,0.42 0.932,0.631 1.617,0.631 0.762,0 1.334,-0.197 1.715,-0.592 0.387,-0.398 0.576,-0.988 0.576,-1.773 v -0.393 h -1.572 v 0.348 c 0,0.451 -0.053,0.742 -0.152,0.873 -0.099,0.131 -0.277,0.197 -0.531,0.197 -0.244,0 -0.416,-0.076 -0.518,-0.23 -0.1,-0.158 -0.148,-0.436 -0.148,-0.84 v -1.439 h 2.922 v -1.953 c 0,-0.723 -0.186,-1.277 -0.562,-1.666 -0.377,-0.386 -0.916,-0.579 -1.615,-0.579 z m 0.604,3.008 h -1.35 v -0.773 c 0,-0.32 0.049,-0.553 0.156,-0.686 0.107,-0.143 0.281,-0.211 0.525,-0.211 0.23,0 0.404,0.068 0.508,0.211 0.105,0.133 0.16,0.365 0.16,0.686 v 0.773 z" style="fill:#dcdcdc;fill-opacity:1"/>
</svg>
