<svg xmlns:xlink="http://www.w3.org/1999/xlink" version="1.1" style="font-family:signika, serif;font-size:12px;" xmlns="http://www.w3.org/2000/svg" preserveAspectRatio="xMinYMin meet" viewBox="0 0 300 307"><rect x="0" y="0" width="300" height="307" style="stroke: #000000; fill: none; stroke-width: 2" /><desc>Created with Highstock 2.1.5</desc><defs><clipPath id="highcharts-19"><rect x="0" y="0" width="261" height="177"></rect></clipPath><clipPath id="highcharts-21"><rect x="0" y="0" width="233" height="40"></rect></clipPath></defs><g class="highcharts-scrollbar" transform="translate(48,309)"><rect x="0" y="-0.5" fill="#eeeeee" stroke="#C0C0C8" stroke-width="1" rx="0" ry="0" height="14" width="261"></rect><rect y="-0.5" height="14" fill="#bfc8d1" stroke="#bfc8d1" stroke-width="1" rx="0" ry="0" x="240.5" width="6"></rect><path fill="none" stroke="#666" stroke-width="1" visibility="hidden" d="M 240 3.5 L 240 9.333333333333334 M 243 3.5 L 243 9.333333333333334 M 246 3.5 L 246 9.333333333333334"></path><g><rect x="-0.5" y="-0.5" width="14" height="14" strokeWidth="1" stroke="#bbb" stroke-width="1" fill="#ebe7e8"></rect><path fill="#666" d="M 8 4 L 8 10 5 7"></path></g><g transform="translate(247,0)"><rect x="-0.5" y="-0.5" width="14" height="14" strokeWidth="1" stroke="#bbb" stroke-width="1" fill="#ebe7e8"></rect><path fill="#666" d="M 6 4 L 6 10 9 7"></path></g></g><g class="highcharts-grid" ></g><g class="highcharts-grid" ><path fill="none" d="M 183.5 268 L 183.5 308" stroke="#D0D0D8" stroke-width="1"  opacity="1"></path></g><g class="highcharts-grid" ><path fill="none" d="M 48 222.5 L 309 222.5" stroke="#D8D8D8" stroke-width="1"  opacity="1"></path><path fill="none" d="M 48 163.5 L 309 163.5" stroke="#D8D8D8" stroke-width="1"  opacity="1"></path><path fill="none" d="M 48 104.5 L 309 104.5" stroke="#D8D8D8" stroke-width="1"  opacity="1"></path><path fill="none" d="M 48 44.5 L 309 44.5" stroke="#D8D8D8" stroke-width="1"  opacity="1"></path></g><g class="highcharts-grid" ></g><g class="highcharts-axis" ><path fill="none" d="M 88.5 222 L 88.5 232" stroke="#C0D0E0" stroke-width="1" opacity="1"></path><path fill="none" d="M 156.5 222 L 156.5 232" stroke="#C0D0E0" stroke-width="1" opacity="1"></path><path fill="none" d="M 225.5 222 L 225.5 232" stroke="#C0D0E0" stroke-width="1" opacity="1"></path><path fill="none" d="M 293.5 222 L 293.5 232" stroke="#C0D0E0" stroke-width="1" opacity="1"></path><path fill="none" d="M 48 222.5 L 309 222.5" stroke="#C0D0E0" stroke-width="1"  visibility="visible"></path></g><g class="highcharts-axis" ></g><g class="highcharts-axis" ></g><g class="highcharts-axis" ></g><path fill="none" d="M 48 125.5 L 309 125.5" stroke="red" stroke-width="1" stroke-dasharray="4,3" ></path><text x="8" text-anchor="undefined"  transform="translate(0,0)" style="" y="130" visibility="visible"><tspan style="background-color: #2ecc71; border-radius: 2px;">1332.346</tspan></text><g class="highcharts-series-group" ><g class="highcharts-series" visibility="visible"  transform="translate(48,45) scale(1 1)" clip-path="url(#highcharts-19)"><path fill="none" d="M 7.5 105.5 L 7.5 75.5 L 13.5 75.5 L 13.5 105.5 Z M 10.5 75.5 L 10.5 63 M 10.5 105.5 L 10.5 107" stroke="black" stroke-width="5"  stroke-opacity="0.049999999999999996" transform="translate(1, 1)"></path><path fill="none" d="M 7.5 105.5 L 7.5 75.5 L 13.5 75.5 L 13.5 105.5 Z M 10.5 75.5 L 10.5 63 M 10.5 105.5 L 10.5 107" stroke="black" stroke-width="3"  stroke-opacity="0.09999999999999999" transform="translate(1, 1)"></path><path fill="none" d="M 7.5 105.5 L 7.5 75.5 L 13.5 75.5 L 13.5 105.5 Z M 10.5 75.5 L 10.5 63 M 10.5 105.5 L 10.5 107" stroke="black" stroke-width="1"  stroke-opacity="0.15" transform="translate(1, 1)"></path><path fill="red" d="M 7.5 105.5 L 7.5 75.5 L 13.5 75.5 L 13.5 105.5 Z M 10.5 75.5 L 10.5 63 M 10.5 105.5 L 10.5 107" stroke="black" stroke-width="1"></path><path fill="none" d="M 17.5 104.5 L 17.5 94.5 L 23.5 94.5 L 23.5 104.5 Z M 20.5 94.5 L 20.5 90 M 20.5 104.5 L 20.5 115" stroke="black" stroke-width="5"  stroke-opacity="0.049999999999999996" transform="translate(1, 1)"></path><path fill="none" d="M 17.5 104.5 L 17.5 94.5 L 23.5 94.5 L 23.5 104.5 Z M 20.5 94.5 L 20.5 90 M 20.5 104.5 L 20.5 115" stroke="black" stroke-width="3"  stroke-opacity="0.09999999999999999" transform="translate(1, 1)"></path><path fill="none" d="M 17.5 104.5 L 17.5 94.5 L 23.5 94.5 L 23.5 104.5 Z M 20.5 94.5 L 20.5 90 M 20.5 104.5 L 20.5 115" stroke="black" stroke-width="1"  stroke-opacity="0.15" transform="translate(1, 1)"></path><path fill="green" d="M 17.5 104.5 L 17.5 94.5 L 23.5 94.5 L 23.5 104.5 Z M 20.5 94.5 L 20.5 90 M 20.5 104.5 L 20.5 115" stroke="black" stroke-width="1"></path><path fill="none" d="M 27.5 94.5 L 27.5 75.5 L 33.5 75.5 L 33.5 94.5 Z M 30.5 75.5 L 30.5 68 M 30.5 94.5 L 30.5 100" stroke="black" stroke-width="5"  stroke-opacity="0.049999999999999996" transform="translate(1, 1)"></path><path fill="none" d="M 27.5 94.5 L 27.5 75.5 L 33.5 75.5 L 33.5 94.5 Z M 30.5 75.5 L 30.5 68 M 30.5 94.5 L 30.5 100" stroke="black" stroke-width="3"  stroke-opacity="0.09999999999999999" transform="translate(1, 1)"></path><path fill="none" d="M 27.5 94.5 L 27.5 75.5 L 33.5 75.5 L 33.5 94.5 Z M 30.5 75.5 L 30.5 68 M 30.5 94.5 L 30.5 100" stroke="black" stroke-width="1"  stroke-opacity="0.15" transform="translate(1, 1)"></path><path fill="green" d="M 27.5 94.5 L 27.5 75.5 L 33.5 75.5 L 33.5 94.5 Z M 30.5 75.5 L 30.5 68 M 30.5 94.5 L 30.5 100" stroke="black" stroke-width="1"></path><path fill="none" d="M 37.5 82.5 L 37.5 75.5 L 43.5 75.5 L 43.5 82.5 Z M 40.5 75.5 L 40.5 66 M 40.5 82.5 L 40.5 83" stroke="black" stroke-width="5"  stroke-opacity="0.049999999999999996" transform="translate(1, 1)"></path><path fill="none" d="M 37.5 82.5 L 37.5 75.5 L 43.5 75.5 L 43.5 82.5 Z M 40.5 75.5 L 40.5 66 M 40.5 82.5 L 40.5 83" stroke="black" stroke-width="3"  stroke-opacity="0.09999999999999999" transform="translate(1, 1)"></path><path fill="none" d="M 37.5 82.5 L 37.5 75.5 L 43.5 75.5 L 43.5 82.5 Z M 40.5 75.5 L 40.5 66 M 40.5 82.5 L 40.5 83" stroke="black" stroke-width="1"  stroke-opacity="0.15" transform="translate(1, 1)"></path><path fill="red" d="M 37.5 82.5 L 37.5 75.5 L 43.5 75.5 L 43.5 82.5 Z M 40.5 75.5 L 40.5 66 M 40.5 82.5 L 40.5 83" stroke="black" stroke-width="1"></path><path fill="none" d="M 46.5 82.5 L 46.5 72.5 L 52.5 72.5 L 52.5 82.5 Z M 49.5 72.5 L 49.5 65 M 49.5 82.5 L 49.5 85" stroke="black" stroke-width="5"  stroke-opacity="0.049999999999999996" transform="translate(1, 1)"></path><path fill="none" d="M 46.5 82.5 L 46.5 72.5 L 52.5 72.5 L 52.5 82.5 Z M 49.5 72.5 L 49.5 65 M 49.5 82.5 L 49.5 85" stroke="black" stroke-width="3"  stroke-opacity="0.09999999999999999" transform="translate(1, 1)"></path><path fill="none" d="M 46.5 82.5 L 46.5 72.5 L 52.5 72.5 L 52.5 82.5 Z M 49.5 72.5 L 49.5 65 M 49.5 82.5 L 49.5 85" stroke="black" stroke-width="1"  stroke-opacity="0.15" transform="translate(1, 1)"></path><path fill="green" d="M 46.5 82.5 L 46.5 72.5 L 52.5 72.5 L 52.5 82.5 Z M 49.5 72.5 L 49.5 65 M 49.5 82.5 L 49.5 85" stroke="black" stroke-width="1"></path><path fill="none" d="M 56.5 72.5 L 56.5 38.5 L 62.5 38.5 L 62.5 72.5 Z M 59.5 38.5 L 59.5 37 M 59.5 72.5 L 59.5 73" stroke="black" stroke-width="5"  stroke-opacity="0.049999999999999996" transform="translate(1, 1)"></path><path fill="none" d="M 56.5 72.5 L 56.5 38.5 L 62.5 38.5 L 62.5 72.5 Z M 59.5 38.5 L 59.5 37 M 59.5 72.5 L 59.5 73" stroke="black" stroke-width="3"  stroke-opacity="0.09999999999999999" transform="translate(1, 1)"></path><path fill="none" d="M 56.5 72.5 L 56.5 38.5 L 62.5 38.5 L 62.5 72.5 Z M 59.5 38.5 L 59.5 37 M 59.5 72.5 L 59.5 73" stroke="black" stroke-width="1"  stroke-opacity="0.15" transform="translate(1, 1)"></path><path fill="green" d="M 56.5 72.5 L 56.5 38.5 L 62.5 38.5 L 62.5 72.5 Z M 59.5 38.5 L 59.5 37 M 59.5 72.5 L 59.5 73" stroke="black" stroke-width="1"></path><path fill="none" d="M 66.5 56.5 L 66.5 38.5 L 72.5 38.5 L 72.5 56.5 Z M 69.5 38.5 L 69.5 25 M 69.5 56.5 L 69.5 57" stroke="black" stroke-width="5"  stroke-opacity="0.049999999999999996" transform="translate(1, 1)"></path><path fill="none" d="M 66.5 56.5 L 66.5 38.5 L 72.5 38.5 L 72.5 56.5 Z M 69.5 38.5 L 69.5 25 M 69.5 56.5 L 69.5 57" stroke="black" stroke-width="3"  stroke-opacity="0.09999999999999999" transform="translate(1, 1)"></path><path fill="none" d="M 66.5 56.5 L 66.5 38.5 L 72.5 38.5 L 72.5 56.5 Z M 69.5 38.5 L 69.5 25 M 69.5 56.5 L 69.5 57" stroke="black" stroke-width="1"  stroke-opacity="0.15" transform="translate(1, 1)"></path><path fill="red" d="M 66.5 56.5 L 66.5 38.5 L 72.5 38.5 L 72.5 56.5 Z M 69.5 38.5 L 69.5 25 M 69.5 56.5 L 69.5 57" stroke="black" stroke-width="1"></path><path fill="none" d="M 76.5 72.5 L 76.5 56.5 L 82.5 56.5 L 82.5 72.5 Z M 79.5 56.5 L 79.5 39 M 79.5 72.5 L 79.5 72" stroke="black" stroke-width="5"  stroke-opacity="0.049999999999999996" transform="translate(1, 1)"></path><path fill="none" d="M 76.5 72.5 L 76.5 56.5 L 82.5 56.5 L 82.5 72.5 Z M 79.5 56.5 L 79.5 39 M 79.5 72.5 L 79.5 72" stroke="black" stroke-width="3"  stroke-opacity="0.09999999999999999" transform="translate(1, 1)"></path><path fill="none" d="M 76.5 72.5 L 76.5 56.5 L 82.5 56.5 L 82.5 72.5 Z M 79.5 56.5 L 79.5 39 M 79.5 72.5 L 79.5 72" stroke="black" stroke-width="1"  stroke-opacity="0.15" transform="translate(1, 1)"></path><path fill="red" d="M 76.5 72.5 L 76.5 56.5 L 82.5 56.5 L 82.5 72.5 Z M 79.5 56.5 L 79.5 39 M 79.5 72.5 L 79.5 72" stroke="black" stroke-width="1"></path><path fill="none" d="M 86.5 72.5 L 86.5 66.5 L 92.5 66.5 L 92.5 72.5 Z M 89.5 66.5 L 89.5 53 M 89.5 72.5 L 89.5 76" stroke="black" stroke-width="5"  stroke-opacity="0.049999999999999996" transform="translate(1, 1)"></path><path fill="none" d="M 86.5 72.5 L 86.5 66.5 L 92.5 66.5 L 92.5 72.5 Z M 89.5 66.5 L 89.5 53 M 89.5 72.5 L 89.5 76" stroke="black" stroke-width="3"  stroke-opacity="0.09999999999999999" transform="translate(1, 1)"></path><path fill="none" d="M 86.5 72.5 L 86.5 66.5 L 92.5 66.5 L 92.5 72.5 Z M 89.5 66.5 L 89.5 53 M 89.5 72.5 L 89.5 76" stroke="black" stroke-width="1"  stroke-opacity="0.15" transform="translate(1, 1)"></path><path fill="green" d="M 86.5 72.5 L 86.5 66.5 L 92.5 66.5 L 92.5 72.5 Z M 89.5 66.5 L 89.5 53 M 89.5 72.5 L 89.5 76" stroke="black" stroke-width="1"></path><path fill="none" d="M 95.5 86.5 L 95.5 66.5 L 101.5 66.5 L 101.5 86.5 Z M 98.5 66.5 L 98.5 57 M 98.5 86.5 L 98.5 90" stroke="black" stroke-width="5"  stroke-opacity="0.049999999999999996" transform="translate(1, 1)"></path><path fill="none" d="M 95.5 86.5 L 95.5 66.5 L 101.5 66.5 L 101.5 86.5 Z M 98.5 66.5 L 98.5 57 M 98.5 86.5 L 98.5 90" stroke="black" stroke-width="3"  stroke-opacity="0.09999999999999999" transform="translate(1, 1)"></path><path fill="none" d="M 95.5 86.5 L 95.5 66.5 L 101.5 66.5 L 101.5 86.5 Z M 98.5 66.5 L 98.5 57 M 98.5 86.5 L 98.5 90" stroke="black" stroke-width="1"  stroke-opacity="0.15" transform="translate(1, 1)"></path><path fill="red" d="M 95.5 86.5 L 95.5 66.5 L 101.5 66.5 L 101.5 86.5 Z M 98.5 66.5 L 98.5 57 M 98.5 86.5 L 98.5 90" stroke="black" stroke-width="1"></path><path fill="none" d="M 105.5 86.5 L 105.5 59.5 L 111.5 59.5 L 111.5 86.5 Z M 108.5 59.5 L 108.5 59.5 M 108.5 86.5 L 108.5 91" stroke="black" stroke-width="5"  stroke-opacity="0.049999999999999996" transform="translate(1, 1)"></path><path fill="none" d="M 105.5 86.5 L 105.5 59.5 L 111.5 59.5 L 111.5 86.5 Z M 108.5 59.5 L 108.5 59.5 M 108.5 86.5 L 108.5 91" stroke="black" stroke-width="3"  stroke-opacity="0.09999999999999999" transform="translate(1, 1)"></path><path fill="none" d="M 105.5 86.5 L 105.5 59.5 L 111.5 59.5 L 111.5 86.5 Z M 108.5 59.5 L 108.5 59.5 M 108.5 86.5 L 108.5 91" stroke="black" stroke-width="1"  stroke-opacity="0.15" transform="translate(1, 1)"></path><path fill="green" d="M 105.5 86.5 L 105.5 59.5 L 111.5 59.5 L 111.5 86.5 Z M 108.5 59.5 L 108.5 59.5 M 108.5 86.5 L 108.5 91" stroke="black" stroke-width="1"></path><path fill="none" d="M 115.5 59.5 L 115.5 35.5 L 121.5 35.5 L 121.5 59.5 Z M 118.5 35.5 L 118.5 34 M 118.5 59.5 L 118.5 80" stroke="black" stroke-width="5"  stroke-opacity="0.049999999999999996" transform="translate(1, 1)"></path><path fill="none" d="M 115.5 59.5 L 115.5 35.5 L 121.5 35.5 L 121.5 59.5 Z M 118.5 35.5 L 118.5 34 M 118.5 59.5 L 118.5 80" stroke="black" stroke-width="3"  stroke-opacity="0.09999999999999999" transform="translate(1, 1)"></path><path fill="none" d="M 115.5 59.5 L 115.5 35.5 L 121.5 35.5 L 121.5 59.5 Z M 118.5 35.5 L 118.5 34 M 118.5 59.5 L 118.5 80" stroke="black" stroke-width="1"  stroke-opacity="0.15" transform="translate(1, 1)"></path><path fill="green" d="M 115.5 59.5 L 115.5 35.5 L 121.5 35.5 L 121.5 59.5 Z M 118.5 35.5 L 118.5 34 M 118.5 59.5 L 118.5 80" stroke="black" stroke-width="1"></path><path fill="none" d="M 125.5 44.5 L 125.5 35.5 L 131.5 35.5 L 131.5 44.5 Z M 128.5 35.5 L 128.5 25 M 128.5 44.5 L 128.5 59" stroke="black" stroke-width="5"  stroke-opacity="0.049999999999999996" transform="translate(1, 1)"></path><path fill="none" d="M 125.5 44.5 L 125.5 35.5 L 131.5 35.5 L 131.5 44.5 Z M 128.5 35.5 L 128.5 25 M 128.5 44.5 L 128.5 59" stroke="black" stroke-width="3"  stroke-opacity="0.09999999999999999" transform="translate(1, 1)"></path><path fill="none" d="M 125.5 44.5 L 125.5 35.5 L 131.5 35.5 L 131.5 44.5 Z M 128.5 35.5 L 128.5 25 M 128.5 44.5 L 128.5 59" stroke="black" stroke-width="1"  stroke-opacity="0.15" transform="translate(1, 1)"></path><path fill="red" d="M 125.5 44.5 L 125.5 35.5 L 131.5 35.5 L 131.5 44.5 Z M 128.5 35.5 L 128.5 25 M 128.5 44.5 L 128.5 59" stroke="black" stroke-width="1"></path><path fill="none" d="M 135.5 44.5 L 135.5 32.5 L 141.5 32.5 L 141.5 44.5 Z M 138.5 32.5 L 138.5 19 M 138.5 44.5 L 138.5 45" stroke="black" stroke-width="5"  stroke-opacity="0.049999999999999996" transform="translate(1, 1)"></path><path fill="none" d="M 135.5 44.5 L 135.5 32.5 L 141.5 32.5 L 141.5 44.5 Z M 138.5 32.5 L 138.5 19 M 138.5 44.5 L 138.5 45" stroke="black" stroke-width="3"  stroke-opacity="0.09999999999999999" transform="translate(1, 1)"></path><path fill="none" d="M 135.5 44.5 L 135.5 32.5 L 141.5 32.5 L 141.5 44.5 Z M 138.5 32.5 L 138.5 19 M 138.5 44.5 L 138.5 45" stroke="black" stroke-width="1"  stroke-opacity="0.15" transform="translate(1, 1)"></path><path fill="green" d="M 135.5 44.5 L 135.5 32.5 L 141.5 32.5 L 141.5 44.5 Z M 138.5 32.5 L 138.5 19 M 138.5 44.5 L 138.5 45" stroke="black" stroke-width="1"></path><path fill="none" d="M 144.5 34.5 L 144.5 32.5 L 150.5 32.5 L 150.5 34.5 Z M 147.5 32.5 L 147.5 16 M 147.5 34.5 L 147.5 44" stroke="black" stroke-width="5"  stroke-opacity="0.049999999999999996" transform="translate(1, 1)"></path><path fill="none" d="M 144.5 34.5 L 144.5 32.5 L 150.5 32.5 L 150.5 34.5 Z M 147.5 32.5 L 147.5 16 M 147.5 34.5 L 147.5 44" stroke="black" stroke-width="3"  stroke-opacity="0.09999999999999999" transform="translate(1, 1)"></path><path fill="none" d="M 144.5 34.5 L 144.5 32.5 L 150.5 32.5 L 150.5 34.5 Z M 147.5 32.5 L 147.5 16 M 147.5 34.5 L 147.5 44" stroke="black" stroke-width="1"  stroke-opacity="0.15" transform="translate(1, 1)"></path><path fill="red" d="M 144.5 34.5 L 144.5 32.5 L 150.5 32.5 L 150.5 34.5 Z M 147.5 32.5 L 147.5 16 M 147.5 34.5 L 147.5 44" stroke="black" stroke-width="1"></path><path fill="none" d="M 154.5 63.5 L 154.5 34.5 L 160.5 34.5 L 160.5 63.5 Z M 157.5 34.5 L 157.5 33 M 157.5 63.5 L 157.5 69" stroke="black" stroke-width="5"  stroke-opacity="0.049999999999999996" transform="translate(1, 1)"></path><path fill="none" d="M 154.5 63.5 L 154.5 34.5 L 160.5 34.5 L 160.5 63.5 Z M 157.5 34.5 L 157.5 33 M 157.5 63.5 L 157.5 69" stroke="black" stroke-width="3"  stroke-opacity="0.09999999999999999" transform="translate(1, 1)"></path><path fill="none" d="M 154.5 63.5 L 154.5 34.5 L 160.5 34.5 L 160.5 63.5 Z M 157.5 34.5 L 157.5 33 M 157.5 63.5 L 157.5 69" stroke="black" stroke-width="1"  stroke-opacity="0.15" transform="translate(1, 1)"></path><path fill="red" d="M 154.5 63.5 L 154.5 34.5 L 160.5 34.5 L 160.5 63.5 Z M 157.5 34.5 L 157.5 33 M 157.5 63.5 L 157.5 69" stroke="black" stroke-width="1"></path><path fill="none" d="M 164.5 63.5 L 164.5 43.5 L 170.5 43.5 L 170.5 63.5 Z M 167.5 43.5 L 167.5 28 M 167.5 63.5 L 167.5 63" stroke="black" stroke-width="5"  stroke-opacity="0.049999999999999996" transform="translate(1, 1)"></path><path fill="none" d="M 164.5 63.5 L 164.5 43.5 L 170.5 43.5 L 170.5 63.5 Z M 167.5 43.5 L 167.5 28 M 167.5 63.5 L 167.5 63" stroke="black" stroke-width="3"  stroke-opacity="0.09999999999999999" transform="translate(1, 1)"></path><path fill="none" d="M 164.5 63.5 L 164.5 43.5 L 170.5 43.5 L 170.5 63.5 Z M 167.5 43.5 L 167.5 28 M 167.5 63.5 L 167.5 63" stroke="black" stroke-width="1"  stroke-opacity="0.15" transform="translate(1, 1)"></path><path fill="green" d="M 164.5 63.5 L 164.5 43.5 L 170.5 43.5 L 170.5 63.5 Z M 167.5 43.5 L 167.5 28 M 167.5 63.5 L 167.5 63" stroke="black" stroke-width="1"></path><path fill="none" d="M 174.5 45.5 L 174.5 43.5 L 180.5 43.5 L 180.5 45.5 Z M 177.5 43.5 L 177.5 28 M 177.5 45.5 L 177.5 48" stroke="black" stroke-width="5"  stroke-opacity="0.049999999999999996" transform="translate(1, 1)"></path><path fill="none" d="M 174.5 45.5 L 174.5 43.5 L 180.5 43.5 L 180.5 45.5 Z M 177.5 43.5 L 177.5 28 M 177.5 45.5 L 177.5 48" stroke="black" stroke-width="3"  stroke-opacity="0.09999999999999999" transform="translate(1, 1)"></path><path fill="none" d="M 174.5 45.5 L 174.5 43.5 L 180.5 43.5 L 180.5 45.5 Z M 177.5 43.5 L 177.5 28 M 177.5 45.5 L 177.5 48" stroke="black" stroke-width="1"  stroke-opacity="0.15" transform="translate(1, 1)"></path><path fill="red" d="M 174.5 45.5 L 174.5 43.5 L 180.5 43.5 L 180.5 45.5 Z M 177.5 43.5 L 177.5 28 M 177.5 45.5 L 177.5 48" stroke="black" stroke-width="1"></path><path fill="none" d="M 184.5 74.5 L 184.5 45.5 L 190.5 45.5 L 190.5 74.5 Z M 187.5 45.5 L 187.5 37 M 187.5 74.5 L 187.5 81" stroke="black" stroke-width="5"  stroke-opacity="0.049999999999999996" transform="translate(1, 1)"></path><path fill="none" d="M 184.5 74.5 L 184.5 45.5 L 190.5 45.5 L 190.5 74.5 Z M 187.5 45.5 L 187.5 37 M 187.5 74.5 L 187.5 81" stroke="black" stroke-width="3"  stroke-opacity="0.09999999999999999" transform="translate(1, 1)"></path><path fill="none" d="M 184.5 74.5 L 184.5 45.5 L 190.5 45.5 L 190.5 74.5 Z M 187.5 45.5 L 187.5 37 M 187.5 74.5 L 187.5 81" stroke="black" stroke-width="1"  stroke-opacity="0.15" transform="translate(1, 1)"></path><path fill="red" d="M 184.5 74.5 L 184.5 45.5 L 190.5 45.5 L 190.5 74.5 Z M 187.5 45.5 L 187.5 37 M 187.5 74.5 L 187.5 81" stroke="black" stroke-width="1"></path><path fill="none" d="M 193.5 85.5 L 193.5 74.5 L 199.5 74.5 L 199.5 85.5 Z M 196.5 74.5 L 196.5 68 M 196.5 85.5 L 196.5 88" stroke="black" stroke-width="5"  stroke-opacity="0.049999999999999996" transform="translate(1, 1)"></path><path fill="none" d="M 193.5 85.5 L 193.5 74.5 L 199.5 74.5 L 199.5 85.5 Z M 196.5 74.5 L 196.5 68 M 196.5 85.5 L 196.5 88" stroke="black" stroke-width="3"  stroke-opacity="0.09999999999999999" transform="translate(1, 1)"></path><path fill="none" d="M 193.5 85.5 L 193.5 74.5 L 199.5 74.5 L 199.5 85.5 Z M 196.5 74.5 L 196.5 68 M 196.5 85.5 L 196.5 88" stroke="black" stroke-width="1"  stroke-opacity="0.15" transform="translate(1, 1)"></path><path fill="red" d="M 193.5 85.5 L 193.5 74.5 L 199.5 74.5 L 199.5 85.5 Z M 196.5 74.5 L 196.5 68 M 196.5 85.5 L 196.5 88" stroke="black" stroke-width="1"></path><path fill="none" d="M 203.5 97.5 L 203.5 85.5 L 209.5 85.5 L 209.5 97.5 Z M 206.5 85.5 L 206.5 66 M 206.5 97.5 L 206.5 107" stroke="black" stroke-width="5"  stroke-opacity="0.049999999999999996" transform="translate(1, 1)"></path><path fill="none" d="M 203.5 97.5 L 203.5 85.5 L 209.5 85.5 L 209.5 97.5 Z M 206.5 85.5 L 206.5 66 M 206.5 97.5 L 206.5 107" stroke="black" stroke-width="3"  stroke-opacity="0.09999999999999999" transform="translate(1, 1)"></path><path fill="none" d="M 203.5 97.5 L 203.5 85.5 L 209.5 85.5 L 209.5 97.5 Z M 206.5 85.5 L 206.5 66 M 206.5 97.5 L 206.5 107" stroke="black" stroke-width="1"  stroke-opacity="0.15" transform="translate(1, 1)"></path><path fill="red" d="M 203.5 97.5 L 203.5 85.5 L 209.5 85.5 L 209.5 97.5 Z M 206.5 85.5 L 206.5 66 M 206.5 97.5 L 206.5 107" stroke="black" stroke-width="1"></path><path fill="none" d="M 213.5 97.5 L 213.5 73.5 L 219.5 73.5 L 219.5 97.5 Z M 216.5 73.5 L 216.5 65 M 216.5 97.5 L 216.5 105" stroke="black" stroke-width="5"  stroke-opacity="0.049999999999999996" transform="translate(1, 1)"></path><path fill="none" d="M 213.5 97.5 L 213.5 73.5 L 219.5 73.5 L 219.5 97.5 Z M 216.5 73.5 L 216.5 65 M 216.5 97.5 L 216.5 105" stroke="black" stroke-width="3"  stroke-opacity="0.09999999999999999" transform="translate(1, 1)"></path><path fill="none" d="M 213.5 97.5 L 213.5 73.5 L 219.5 73.5 L 219.5 97.5 Z M 216.5 73.5 L 216.5 65 M 216.5 97.5 L 216.5 105" stroke="black" stroke-width="1"  stroke-opacity="0.15" transform="translate(1, 1)"></path><path fill="green" d="M 213.5 97.5 L 213.5 73.5 L 219.5 73.5 L 219.5 97.5 Z M 216.5 73.5 L 216.5 65 M 216.5 97.5 L 216.5 105" stroke="black" stroke-width="1"></path><path fill="none" d="M 223.5 73.5 L 223.5 32.5 L 229.5 32.5 L 229.5 73.5 Z M 226.5 32.5 L 226.5 29 M 226.5 73.5 L 226.5 77" stroke="black" stroke-width="5"  stroke-opacity="0.049999999999999996" transform="translate(1, 1)"></path><path fill="none" d="M 223.5 73.5 L 223.5 32.5 L 229.5 32.5 L 229.5 73.5 Z M 226.5 32.5 L 226.5 29 M 226.5 73.5 L 226.5 77" stroke="black" stroke-width="3"  stroke-opacity="0.09999999999999999" transform="translate(1, 1)"></path><path fill="none" d="M 223.5 73.5 L 223.5 32.5 L 229.5 32.5 L 229.5 73.5 Z M 226.5 32.5 L 226.5 29 M 226.5 73.5 L 226.5 77" stroke="black" stroke-width="1"  stroke-opacity="0.15" transform="translate(1, 1)"></path><path fill="green" d="M 223.5 73.5 L 223.5 32.5 L 229.5 32.5 L 229.5 73.5 Z M 226.5 32.5 L 226.5 29 M 226.5 73.5 L 226.5 77" stroke="black" stroke-width="1"></path><path fill="none" d="M 233.5 47.5 L 233.5 32.5 L 239.5 32.5 L 239.5 47.5 Z M 236.5 32.5 L 236.5 15 M 236.5 47.5 L 236.5 58" stroke="black" stroke-width="5"  stroke-opacity="0.049999999999999996" transform="translate(1, 1)"></path><path fill="none" d="M 233.5 47.5 L 233.5 32.5 L 239.5 32.5 L 239.5 47.5 Z M 236.5 32.5 L 236.5 15 M 236.5 47.5 L 236.5 58" stroke="black" stroke-width="3"  stroke-opacity="0.09999999999999999" transform="translate(1, 1)"></path><path fill="none" d="M 233.5 47.5 L 233.5 32.5 L 239.5 32.5 L 239.5 47.5 Z M 236.5 32.5 L 236.5 15 M 236.5 47.5 L 236.5 58" stroke="black" stroke-width="1"  stroke-opacity="0.15" transform="translate(1, 1)"></path><path fill="red" d="M 233.5 47.5 L 233.5 32.5 L 239.5 32.5 L 239.5 47.5 Z M 236.5 32.5 L 236.5 15 M 236.5 47.5 L 236.5 58" stroke="black" stroke-width="1"></path><path fill="none" d="M 242.5 70.5 L 242.5 47.5 L 248.5 47.5 L 248.5 70.5 Z M 245.5 47.5 L 245.5 42 M 245.5 70.5 L 245.5 74" stroke="black" stroke-width="5"  stroke-opacity="0.049999999999999996" transform="translate(1, 1)"></path><path fill="none" d="M 242.5 70.5 L 242.5 47.5 L 248.5 47.5 L 248.5 70.5 Z M 245.5 47.5 L 245.5 42 M 245.5 70.5 L 245.5 74" stroke="black" stroke-width="3"  stroke-opacity="0.09999999999999999" transform="translate(1, 1)"></path><path fill="none" d="M 242.5 70.5 L 242.5 47.5 L 248.5 47.5 L 248.5 70.5 Z M 245.5 47.5 L 245.5 42 M 245.5 70.5 L 245.5 74" stroke="black" stroke-width="1"  stroke-opacity="0.15" transform="translate(1, 1)"></path><path fill="red" d="M 242.5 70.5 L 242.5 47.5 L 248.5 47.5 L 248.5 70.5 Z M 245.5 47.5 L 245.5 42 M 245.5 70.5 L 245.5 74" stroke="black" stroke-width="1"></path><path fill="none" d="M 252.5 80.5 L 252.5 70.5 L 258.5 70.5 L 258.5 80.5 Z M 255.5 70.5 L 255.5 69 M 255.5 80.5 L 255.5 88" stroke="black" stroke-width="5"  stroke-opacity="0.049999999999999996" transform="translate(1, 1)"></path><path fill="none" d="M 252.5 80.5 L 252.5 70.5 L 258.5 70.5 L 258.5 80.5 Z M 255.5 70.5 L 255.5 69 M 255.5 80.5 L 255.5 88" stroke="black" stroke-width="3"  stroke-opacity="0.09999999999999999" transform="translate(1, 1)"></path><path fill="none" d="M 252.5 80.5 L 252.5 70.5 L 258.5 70.5 L 258.5 80.5 Z M 255.5 70.5 L 255.5 69 M 255.5 80.5 L 255.5 88" stroke="black" stroke-width="1"  stroke-opacity="0.15" transform="translate(1, 1)"></path><path fill="red" d="M 252.5 80.5 L 252.5 70.5 L 258.5 70.5 L 258.5 80.5 Z M 255.5 70.5 L 255.5 69 M 255.5 80.5 L 255.5 88" stroke="black" stroke-width="1"></path></g><g class="highcharts-markers" visibility="visible"  transform="translate(48,45) scale(1 1)" clip-path="none"></g><g class="highcharts-series" visibility="visible"  transform="translate(62,268) scale(1 1)" clip-path="url(#highcharts-21)"><path fill="rgb(69,114,167)" fill-opacity="0.05" d="M 0 23.731108709445216 C 0 23.731108709445216 0.9776223776224633 22.202225129543265 1.6293706293707721 22.202225129543265 C 2.281118881119081 22.202225129543265 2.6069930069932354 22.451654224316496 3.2587412587415443 22.451654224316496 C 3.9104895104895894 22.451654224316496 4.2363636363636115 22.20085539209746 4.888111888111657 21.31503555549363 C 5.539860139859966 20.42921571888944 5.865734265734121 18.022555041296453 6.51748251748243 18.022555041296453 C 7.169230769230739 18.022555041296453 7.495104895104893 20.32493340198485 8.146853146853202 20.32493340198485 C 8.79860139860151 20.32493340198485 9.124475524475665 20.32493340198485 9.776223776223974 19.852539791090344 C 10.42797202797202 19.380146180195837 10.753846153846041 16.65445921094634 11.405594405594087 16.65445921094634 C 12.057342657342396 16.65445921094634 12.38321678321655 18.742609129932763 13.03496503496486 19.136391006417778 C 13.686713286713168 19.530172882902793 14.012587412587322 19.136391006417778 14.664335664335631 19.530172882902793 C 15.31608391608394 19.923954759387808 15.641958041958095 20.828711733592176 16.293706293706403 21.409828254233286 C 16.945454545454712 21.9909447748744 17.271328671328867 22.435755486108345 17.923076923077176 22.435755486108345 C 18.57482517482522 22.435755486108345 18.900699300699245 21.04891984125487 19.55244755244729 21.04891984125487 C 20.2041958041956 21.04891984125487 20.530069930069754 23.356247742558526 21.181818181818063 24.598224950564877 C 21.83356643356637 25.84020215857123 22.159440559440526 27.258805881286637 22.811188811188835 27.258805881286637 C 23.462937062937144 27.258805881286637 23.788811188811295 27.186087969059084 24.440559440559603 27.13644909796122 C 25.092307692307912 27.086810226863356 25.418181818182067 27.093616580173194 26.069930069930376 27.010611525797316 C 26.72167832167842 26.927606471421473 27.04755244755244 26.940585345208667 27.69930069930049 26.72142382608192 C 28.351048951048803 26.50226230695509 28.676923076922954 26.570158856264523 29.328671328671263 25.91480393016338 C 29.98041958041957 25.259449004062233 30.30629370629373 24.275046642276457 30.958041958042035 23.44464919557619 C 31.609790209790344 22.614251748875915 31.935664335664494 22.42307765351807 32.58741258741281 21.762816696662018 C 33.23916083916085 21.102555739806235 33.565034965034876 20.634430799007347 34.21678321678292 20.143344411296606 C 34.86853146853123 19.65225802358567 35.19440559440538 19.63697077530868 35.84615384615369 19.30738475810782 C 36.497902097902 18.97779874090696 36.82377622377616 18.91810086044278 37.475524475524466 18.49541432529231 C 38.12727272727277 18.07272779014184 38.453146853146926 17.19395208235547 39.104895104895235 17.19395208235547 C 39.75664335664354 17.19395208235547 40.0825174825177 19.09586215935088 40.73426573426601 19.09586215935088 C 41.38601398601405 19.09586215935088 41.711888111888086 15.6971717238354 42.363636363636125 15.6971717238354 C 43.015384615384434 15.6971717238354 43.341258741258585 15.76376885704126 43.993006993006894 15.927291848092516 C 44.6447552447552 16.090814839143775 44.97062937062937 16.51478667909169 45.62237762237767 16.51478667909169 C 46.27412587412598 16.51478667909169 46.60000000000013 12.642032794792986 47.25174825174844 12.642032794792986 C 47.90349650349675 12.642032794792986 48.2293706293709 13.693735503205188 48.88111888111921 14.617850837497215 C 49.53286713286725 15.54196617178887 49.858741258741276 17.262609466252197 50.51048951048932 17.262609466252197 C 51.16223776223764 17.262609466252197 51.48811188811178 16.9251434605356 52.1398601398601 16.9251434605356 C 52.791608391608406 16.9251434605356 53.117482517482564 20.19202841734823 53.769230769230866 20.19202841734823 C 54.420979020979175 20.19202841734823 54.74685314685333 19.41410151050359 55.39860139860164 19.372143893693885 C 56.05034965034969 19.33018627688418 56.37622377622371 19.33018627688418 57.02797202797176 19.33018627688418 C 57.67972027972006 19.33018627688418 58.005594405594216 19.4204457185386 58.657342657342525 20.256893387730067 C 59.309090909090834 21.09334105692154 59.63496503496499 22.87952078474853 60.2867132867133 23.512424622841532 C 60.9384615384616 24.145328460934536 61.26433566433576 24.145328460934536 61.91608391608407 24.145328460934536 C 62.56783216783238 24.145328460934536 62.89370629370653 23.213782348037856 63.545454545454845 23.213782348037856 C 64.19720279720289 23.213782348037856 64.52307692307691 24.53954543602437 65.17482517482496 24.53954543602437 C 65.82657342657328 24.53954543602437 66.15244755244741 23.567588070278315 66.80419580419573 22.855778512232074 C 67.45594405594404 22.143968954185837 67.78181818181818 20.98049764579317 68.4335664335665 20.98049764579317 C 69.0853146853148 20.98049764579317 69.41118881118896 21.105089895193533 70.06293706293727 21.243644106039635 C 70.71468531468531 21.382198316885685 71.04055944055933 21.243644106039635 71.69230769230738 21.673268700023556 C 72.34405594405568 22.102893294007476 72.66993006992985 23.521085436961588 73.32167832167816 24.80764849253916 C 73.97342657342647 26.0942115481167 74.29930069930063 28.106083977911346 74.95104895104893 28.106083977911346 C 75.60279720279723 28.106083977911346 75.9286713286714 26.732501201371946 76.5804195804197 26.445700664272106 C 77.23216783216802 26.158900127172267 77.55804195804217 26.445700664272106 78.20979020979047 26.158900127172267 C 78.86153846153852 25.872099590072427 79.18741258741254 25.278701529353743 79.83916083916058 24.236799123029364 C 80.4909090909089 23.194896716704555 80.81678321678305 21.436181118378627 81.46853146853135 20.9493880955493 C 82.12027972027967 20.46259507271997 82.44615384615382 20.46259507271997 83.09790209790214 20.46259507271997 C 83.74965034965044 20.46259507271997 84.07552447552459 20.81246726838453 84.7272727272729 20.81246726838453 C 85.3790209790212 20.81246726838453 85.70489510489537 20.271144630950914 86.35664335664367 19.90947303150074 C 87.00839160839173 19.547801432050704 87.33426573426574 19.004109271134006 87.98601398601379 19.004109271134006 C 88.63776223776209 19.004109271134006 88.96363636363625 19.67737732438936 89.61538461538456 19.67737732438936 C 90.26713286713287 19.67737732438936 90.59300699300704 19.612506474296648 91.24475524475534 18.921140670965567 C 91.89650349650364 18.229774867634486 92.2223776223778 16.220548307733957 92.87412587412611 16.220548307733957 C 93.52587412587415 16.220548307733957 93.85174825174818 16.59503885283549 94.50349650349622 16.59503885283549 C 95.15524475524452 16.59503885283549 95.48111888111869 14.911142575403925 96.13286713286699 14.911142575403925 C 96.78461538461531 14.911142575403925 97.11048951048944 17.103004714528595 97.76223776223776 17.58978009822529 C 98.41398601398608 18.076555481921986 98.73986013986021 18.076555481921986 99.39160839160853 18.076555481921986 C 100.04335664335683 18.076555481921986 100.369230769231 17.06306971826014 101.02097902097931 17.06306971826014 C 101.67272727272736 17.06306971826014 101.99860139860138 17.385296689328975 102.65034965034943 18.088938153026408 C 103.30209790209774 18.792579616724133 103.62797202797188 19.837844041727372 104.2797202797202 20.58127703674803 C 104.9314685314685 21.324710031768674 105.25734265734266 21.806103128129667 105.90909090909096 21.806103128129667 C 106.56083916083927 21.806103128129667 106.88671328671344 20.506514161078098 107.53846153846173 19.15139014886194 C 108.19020979020979 17.796266136646253 108.51608391608379 15.03048306705006 109.16783216783185 15.03048306705006 C 109.81958041958015 15.03048306705006 110.14545454545433 15.15480367380801 110.79720279720262 15.524766841535158 C 111.44895104895093 15.894730009262322 111.77482517482508 16.880298905685848 112.4265734265734 16.880298905685848 C 113.07832167832171 16.880298905685848 113.40419580419587 16.527778488242845 114.05594405594417 16.127842906355202 C 114.70769230769247 15.727907324467559 115.03356643356662 15.774124203835889 115.68531468531494 14.880620996247632 C 116.33706293706298 13.987117788659747 116.662937062937 11.660326868414845 117.31468531468505 11.660326868414845 C 117.96643356643335 11.660326868414845 118.2923076923075 12.170471750958507 118.94405594405582 12.595624236850288 C 119.59580419580413 13.02077672274207 119.92167832167829 13.299834856560647 120.5734265734266 13.786089297873751 C 121.22517482517492 14.272343739186853 121.55104895104907 15.026896443415808 122.20279720279737 15.026896443415808 C 122.85454545454567 15.026896443415808 123.18041958041984 13.999240576543531 123.83216783216814 12.810310120058421 C 124.48391608391618 11.621379663573778 124.80979020979021 9.082244160991426 125.46153846153825 9.082244160991426 C 126.11328671328656 9.082244160991426 126.43916083916072 9.129692251816978 127.09090909090902 9.910818897320215 C 127.74265734265732 10.691945542823452 128.0685314685315 12.987877388507606 128.7202797202798 12.987877388507606 C 129.3720279720281 12.987877388507606 129.69790209790227 12.987877388507606 130.34965034965057 12.953986735019498 C 131.00139860139862 12.92009608153139 131.32727272727263 12.953986735019498 131.97902097902067 12.072212374686462 C 132.63076923076898 11.190438014353425 132.95664335664316 7.366152938688315 133.60839160839146 5.772566668424702 C 134.26013986013976 4.178980398161088 134.58601398601394 4.104281023368394 135.23776223776224 4.104281023368394 C 135.88951048951054 4.104281023368394 136.2153846153847 4.915839876422592 136.867132867133 5.311903080727433 C 137.5188811188813 5.707966285032273 137.84475524475548 6.084597044892597 138.49650349650378 6.084597044892597 C 139.14825174825182 6.084597044892597 139.47412587412583 5.374651355193892 140.12587412587388 4.824398612882149 C 140.77762237762218 4.27414587057019 141.10349650349636 3.333333333333343 141.75524475524466 3.333333333333343 C 142.40699300699296 3.333333333333343 142.7328671328671 4.87145393902121 143.38461538461542 6.36190772863889 C 144.03636363636375 7.852361518256635 144.36223776223787 9.222122482726402 145.0139860139862 10.785602281421905 C 145.66573426573424 12.349082080116727 145.99160839160828 13.161687521707368 146.64335664335633 14.1793067221147 C 147.29510489510463 15.19692592252243 147.62097902097878 14.867425749100148 148.27272727272708 15.87369828345956 C 148.92447552447538 16.879970817818972 149.25034965034956 18.089134535369663 149.90209790209786 19.21066939391176 C 150.55384615384617 20.332204252453856 150.87972027972032 21.481372576170042 151.53146853146862 21.481372576170042 C 152.18321678321695 21.481372576170042 152.50909090909107 20.595655281723815 153.1608391608394 20.079872932392323 C 153.81258741258745 19.564090583061056 154.13846153846148 20.035258862208657 154.7902097902095 18.90246082951315 C 155.44195804195783 17.769662796817098 155.76783216783195 14.422644436420594 156.41958041958029 14.415882768913427 C 157.0713286713286 14.40912110140626 157.39720279720277 14.40912110140626 158.04895104895107 14.40912110140626 C 158.70069930069937 14.40912110140626 159.02657342657352 15.306359101342657 159.67832167832182 15.438523242408909 C 160.33006993007012 15.57068738347516 160.6559440559443 15.57068738347516 161.3076923076926 15.57068738347516 C 161.95944055944065 15.57068738347516 162.28531468531466 12.672560253660137 162.9370629370627 12.672560253660137 C 163.588811188811 12.672560253660137 163.9146853146852 13.051305357551408 164.5664335664335 13.442243805856904 C 165.2181818181818 13.833182254162399 165.54405594405597 14.627252495187612 166.19580419580427 14.627252495187612 C 166.84755244755257 14.627252495187612 167.17342657342672 13.65467775979959 167.82517482517503 13.65467775979959 C 168.47692307692307 13.65467775979959 168.80279720279708 13.745837973160222 169.45454545454515 13.947016984544423 C 170.10629370629346 14.148195995928694 170.4321678321676 13.947016984544423 171.0839160839159 14.660572816720766 C 171.7356643356642 15.37412864889711 172.0615384615384 19.251650978716096 172.7132867132867 19.251650978716096 C 173.36503496503502 19.251650978716096 173.69090909090914 17.89176792851731 174.34265734265747 17.89176792851731 C 174.99440559440578 17.89176792851731 175.32027972027996 20.083253766145933 175.97202797202823 20.37168298315835 C 176.6237762237763 20.66011220017077 176.9496503496503 20.66011220017077 177.60139860139836 20.66011220017077 C 178.25314685314666 20.66011220017077 178.57902097902084 19.368798338205554 179.2307692307691 19.368798338205554 C 179.88251748251744 19.368798338205554 180.20839160839157 19.447320701009705 180.8601398601399 19.595090770682518 C 181.5118881118882 19.742860840355327 181.83776223776238 20.107648686569615 182.48951048951068 20.107648686569615 C 183.14125874125872 20.107648686569615 183.46713286713273 19.828156630088394 184.11888111888078 19.828156630088394 C 184.77062937062908 19.828156630088394 185.09650349650326 19.828156630088394 185.74825174825156 19.86065379209897 C 186.39999999999986 19.893150954109544 186.72587412587401 21.258790241255706 187.37762237762232 21.258790241255706 C 188.02937062937062 21.258790241255706 188.3552447552448 21.18637454616717 189.0069930069931 20.15706765648072 C 189.6587412587414 19.127760766794268 189.98461538461555 16.112255792823454 190.63636363636385 16.112255792823454 C 191.28811188811193 16.112255792823454 191.61398601398594 18.672479466432907 192.26573426573398 19.649142952763746 C 192.9174825174823 20.62580643909501 193.24335664335644 20.25364425950008 193.89510489510477 20.995573224478722 C 194.54685314685307 21.73750218945733 194.87272727272722 22.713732929067955 195.52447552447552 23.35878777765687 C 196.17622377622382 24.003842626245792 196.502097902098 23.694652150130896 197.1538461538463 24.22084746742332 C 197.8055944055946 24.747042784715738 198.13146853146876 25.989764364118976 198.78321678321706 25.989764364118976 C 199.4349650349651 25.989764364118976 199.7608391608391 25.989764364118976 200.4125874125872 25.783333594980462 C 201.0643356643355 25.576902825841948 201.39020979020964 22.97664772870592 202.04195804195794 22.830607469972765 C 202.69370629370624 22.68456721123961 203.01958041958042 22.830607469972765 203.67132867132872 22.68456721123961 C 204.32307692307705 22.538526952506455 204.64895104895118 21.785759328499392 205.3006993006995 21.785759328499392 C 205.95244755244752 21.785759328499392 206.27832167832156 24.959267420951495 206.9300699300696 26.02330223495455 C 207.58181818181794 27.087337048958066 207.90769230769206 26.614450718291938 208.5594405594404 27.105933398515816 C 209.2111888111887 27.597416078739673 209.53706293706287 28.480715636073892 210.18881118881114 28.480715636073892 C 210.84055944055945 28.480715636073892 211.16643356643362 28.141391641720528 211.81818181818193 28.141391641720528 C 212.46993006993026 28.141391641720528 212.79580419580444 29.640241658468764 213.4475524475527 30.434667034031005 C 214.09930069930078 31.229092409593 214.4251748251748 31.382008402224603 215.0769230769228 32.11351851953113 C 215.72867132867114 32.845028636838 216.05454545454532 34.092217620564504 216.7062937062936 34.092217620564504 C 217.3580419580419 34.092217620564504 217.68391608391602 33.79325666543134 218.33566433566435 33.65314433120318 C 218.98741258741265 33.513031996975016 219.31328671328683 33.39165594942368 219.96503496503513 33.39165594942368 C 220.61678321678318 33.39165594942368 220.94265734265718 36.666666666666664 221.59440559440523 36.666666666666664 C 222.24615384615353 36.666666666666664 222.5720279720277 35.50699600338412 223.223776223776 34.88506723361191 C 223.87552447552434 34.26313846383969 224.20139860139847 34.123912790011616 224.8531468531468 33.55702281780559 C 225.5048951048951 32.99013284559958 225.83076923076925 32.57583313004234 226.48251748251755 32.050617372581826 C 227.13426573426585 31.525401615121307 227.46013986014003 31.261537830148033 228.11188811188833 30.930944030503 C 228.7636363636364 30.60035023085808 229.0895104895104 30.397648374356947 229.74125874125843 30.397648374356947 C 230.39300699300674 30.397648374356947 230.71888111888092 30.87699768321753 231.37062937062922 30.87699768321753 C 232.02237762237755 30.87699768321753 233 30.271728486240804 233 30.271728486240804 L 233 40 L 0 40" ></path><path fill="none" d="M 0 23.731108709445216 C 0 23.731108709445216 0.9776223776224633 22.202225129543265 1.6293706293707721 22.202225129543265 C 2.281118881119081 22.202225129543265 2.6069930069932354 22.451654224316496 3.2587412587415443 22.451654224316496 C 3.9104895104895894 22.451654224316496 4.2363636363636115 22.20085539209746 4.888111888111657 21.31503555549363 C 5.539860139859966 20.42921571888944 5.865734265734121 18.022555041296453 6.51748251748243 18.022555041296453 C 7.169230769230739 18.022555041296453 7.495104895104893 20.32493340198485 8.146853146853202 20.32493340198485 C 8.79860139860151 20.32493340198485 9.124475524475665 20.32493340198485 9.776223776223974 19.852539791090344 C 10.42797202797202 19.380146180195837 10.753846153846041 16.65445921094634 11.405594405594087 16.65445921094634 C 12.057342657342396 16.65445921094634 12.38321678321655 18.742609129932763 13.03496503496486 19.136391006417778 C 13.686713286713168 19.530172882902793 14.012587412587322 19.136391006417778 14.664335664335631 19.530172882902793 C 15.31608391608394 19.923954759387808 15.641958041958095 20.828711733592176 16.293706293706403 21.409828254233286 C 16.945454545454712 21.9909447748744 17.271328671328867 22.435755486108345 17.923076923077176 22.435755486108345 C 18.57482517482522 22.435755486108345 18.900699300699245 21.04891984125487 19.55244755244729 21.04891984125487 C 20.2041958041956 21.04891984125487 20.530069930069754 23.356247742558526 21.181818181818063 24.598224950564877 C 21.83356643356637 25.84020215857123 22.159440559440526 27.258805881286637 22.811188811188835 27.258805881286637 C 23.462937062937144 27.258805881286637 23.788811188811295 27.186087969059084 24.440559440559603 27.13644909796122 C 25.092307692307912 27.086810226863356 25.418181818182067 27.093616580173194 26.069930069930376 27.010611525797316 C 26.72167832167842 26.927606471421473 27.04755244755244 26.940585345208667 27.69930069930049 26.72142382608192 C 28.351048951048803 26.50226230695509 28.676923076922954 26.570158856264523 29.328671328671263 25.91480393016338 C 29.98041958041957 25.259449004062233 30.30629370629373 24.275046642276457 30.958041958042035 23.44464919557619 C 31.609790209790344 22.614251748875915 31.935664335664494 22.42307765351807 32.58741258741281 21.762816696662018 C 33.23916083916085 21.102555739806235 33.565034965034876 20.634430799007347 34.21678321678292 20.143344411296606 C 34.86853146853123 19.65225802358567 35.19440559440538 19.63697077530868 35.84615384615369 19.30738475810782 C 36.497902097902 18.97779874090696 36.82377622377616 18.91810086044278 37.475524475524466 18.49541432529231 C 38.12727272727277 18.07272779014184 38.453146853146926 17.19395208235547 39.104895104895235 17.19395208235547 C 39.75664335664354 17.19395208235547 40.0825174825177 19.09586215935088 40.73426573426601 19.09586215935088 C 41.38601398601405 19.09586215935088 41.711888111888086 15.6971717238354 42.363636363636125 15.6971717238354 C 43.015384615384434 15.6971717238354 43.341258741258585 15.76376885704126 43.993006993006894 15.927291848092516 C 44.6447552447552 16.090814839143775 44.97062937062937 16.51478667909169 45.62237762237767 16.51478667909169 C 46.27412587412598 16.51478667909169 46.60000000000013 12.642032794792986 47.25174825174844 12.642032794792986 C 47.90349650349675 12.642032794792986 48.2293706293709 13.693735503205188 48.88111888111921 14.617850837497215 C 49.53286713286725 15.54196617178887 49.858741258741276 17.262609466252197 50.51048951048932 17.262609466252197 C 51.16223776223764 17.262609466252197 51.48811188811178 16.9251434605356 52.1398601398601 16.9251434605356 C 52.791608391608406 16.9251434605356 53.117482517482564 20.19202841734823 53.769230769230866 20.19202841734823 C 54.420979020979175 20.19202841734823 54.74685314685333 19.41410151050359 55.39860139860164 19.372143893693885 C 56.05034965034969 19.33018627688418 56.37622377622371 19.33018627688418 57.02797202797176 19.33018627688418 C 57.67972027972006 19.33018627688418 58.005594405594216 19.4204457185386 58.657342657342525 20.256893387730067 C 59.309090909090834 21.09334105692154 59.63496503496499 22.87952078474853 60.2867132867133 23.512424622841532 C 60.9384615384616 24.145328460934536 61.26433566433576 24.145328460934536 61.91608391608407 24.145328460934536 C 62.56783216783238 24.145328460934536 62.89370629370653 23.213782348037856 63.545454545454845 23.213782348037856 C 64.19720279720289 23.213782348037856 64.52307692307691 24.53954543602437 65.17482517482496 24.53954543602437 C 65.82657342657328 24.53954543602437 66.15244755244741 23.567588070278315 66.80419580419573 22.855778512232074 C 67.45594405594404 22.143968954185837 67.78181818181818 20.98049764579317 68.4335664335665 20.98049764579317 C 69.0853146853148 20.98049764579317 69.41118881118896 21.105089895193533 70.06293706293727 21.243644106039635 C 70.71468531468531 21.382198316885685 71.04055944055933 21.243644106039635 71.69230769230738 21.673268700023556 C 72.34405594405568 22.102893294007476 72.66993006992985 23.521085436961588 73.32167832167816 24.80764849253916 C 73.97342657342647 26.0942115481167 74.29930069930063 28.106083977911346 74.95104895104893 28.106083977911346 C 75.60279720279723 28.106083977911346 75.9286713286714 26.732501201371946 76.5804195804197 26.445700664272106 C 77.23216783216802 26.158900127172267 77.55804195804217 26.445700664272106 78.20979020979047 26.158900127172267 C 78.86153846153852 25.872099590072427 79.18741258741254 25.278701529353743 79.83916083916058 24.236799123029364 C 80.4909090909089 23.194896716704555 80.81678321678305 21.436181118378627 81.46853146853135 20.9493880955493 C 82.12027972027967 20.46259507271997 82.44615384615382 20.46259507271997 83.09790209790214 20.46259507271997 C 83.74965034965044 20.46259507271997 84.07552447552459 20.81246726838453 84.7272727272729 20.81246726838453 C 85.3790209790212 20.81246726838453 85.70489510489537 20.271144630950914 86.35664335664367 19.90947303150074 C 87.00839160839173 19.547801432050704 87.33426573426574 19.004109271134006 87.98601398601379 19.004109271134006 C 88.63776223776209 19.004109271134006 88.96363636363625 19.67737732438936 89.61538461538456 19.67737732438936 C 90.26713286713287 19.67737732438936 90.59300699300704 19.612506474296648 91.24475524475534 18.921140670965567 C 91.89650349650364 18.229774867634486 92.2223776223778 16.220548307733957 92.87412587412611 16.220548307733957 C 93.52587412587415 16.220548307733957 93.85174825174818 16.59503885283549 94.50349650349622 16.59503885283549 C 95.15524475524452 16.59503885283549 95.48111888111869 14.911142575403925 96.13286713286699 14.911142575403925 C 96.78461538461531 14.911142575403925 97.11048951048944 17.103004714528595 97.76223776223776 17.58978009822529 C 98.41398601398608 18.076555481921986 98.73986013986021 18.076555481921986 99.39160839160853 18.076555481921986 C 100.04335664335683 18.076555481921986 100.369230769231 17.06306971826014 101.02097902097931 17.06306971826014 C 101.67272727272736 17.06306971826014 101.99860139860138 17.385296689328975 102.65034965034943 18.088938153026408 C 103.30209790209774 18.792579616724133 103.62797202797188 19.837844041727372 104.2797202797202 20.58127703674803 C 104.9314685314685 21.324710031768674 105.25734265734266 21.806103128129667 105.90909090909096 21.806103128129667 C 106.56083916083927 21.806103128129667 106.88671328671344 20.506514161078098 107.53846153846173 19.15139014886194 C 108.19020979020979 17.796266136646253 108.51608391608379 15.03048306705006 109.16783216783185 15.03048306705006 C 109.81958041958015 15.03048306705006 110.14545454545433 15.15480367380801 110.79720279720262 15.524766841535158 C 111.44895104895093 15.894730009262322 111.77482517482508 16.880298905685848 112.4265734265734 16.880298905685848 C 113.07832167832171 16.880298905685848 113.40419580419587 16.527778488242845 114.05594405594417 16.127842906355202 C 114.70769230769247 15.727907324467559 115.03356643356662 15.774124203835889 115.68531468531494 14.880620996247632 C 116.33706293706298 13.987117788659747 116.662937062937 11.660326868414845 117.31468531468505 11.660326868414845 C 117.96643356643335 11.660326868414845 118.2923076923075 12.170471750958507 118.94405594405582 12.595624236850288 C 119.59580419580413 13.02077672274207 119.92167832167829 13.299834856560647 120.5734265734266 13.786089297873751 C 121.22517482517492 14.272343739186853 121.55104895104907 15.026896443415808 122.20279720279737 15.026896443415808 C 122.85454545454567 15.026896443415808 123.18041958041984 13.999240576543531 123.83216783216814 12.810310120058421 C 124.48391608391618 11.621379663573778 124.80979020979021 9.082244160991426 125.46153846153825 9.082244160991426 C 126.11328671328656 9.082244160991426 126.43916083916072 9.129692251816978 127.09090909090902 9.910818897320215 C 127.74265734265732 10.691945542823452 128.0685314685315 12.987877388507606 128.7202797202798 12.987877388507606 C 129.3720279720281 12.987877388507606 129.69790209790227 12.987877388507606 130.34965034965057 12.953986735019498 C 131.00139860139862 12.92009608153139 131.32727272727263 12.953986735019498 131.97902097902067 12.072212374686462 C 132.63076923076898 11.190438014353425 132.95664335664316 7.366152938688315 133.60839160839146 5.772566668424702 C 134.26013986013976 4.178980398161088 134.58601398601394 4.104281023368394 135.23776223776224 4.104281023368394 C 135.88951048951054 4.104281023368394 136.2153846153847 4.915839876422592 136.867132867133 5.311903080727433 C 137.5188811188813 5.707966285032273 137.84475524475548 6.084597044892597 138.49650349650378 6.084597044892597 C 139.14825174825182 6.084597044892597 139.47412587412583 5.374651355193892 140.12587412587388 4.824398612882149 C 140.77762237762218 4.27414587057019 141.10349650349636 3.333333333333343 141.75524475524466 3.333333333333343 C 142.40699300699296 3.333333333333343 142.7328671328671 4.87145393902121 143.38461538461542 6.36190772863889 C 144.03636363636375 7.852361518256635 144.36223776223787 9.222122482726402 145.0139860139862 10.785602281421905 C 145.66573426573424 12.349082080116727 145.99160839160828 13.161687521707368 146.64335664335633 14.1793067221147 C 147.29510489510463 15.19692592252243 147.62097902097878 14.867425749100148 148.27272727272708 15.87369828345956 C 148.92447552447538 16.879970817818972 149.25034965034956 18.089134535369663 149.90209790209786 19.21066939391176 C 150.55384615384617 20.332204252453856 150.87972027972032 21.481372576170042 151.53146853146862 21.481372576170042 C 152.18321678321695 21.481372576170042 152.50909090909107 20.595655281723815 153.1608391608394 20.079872932392323 C 153.81258741258745 19.564090583061056 154.13846153846148 20.035258862208657 154.7902097902095 18.90246082951315 C 155.44195804195783 17.769662796817098 155.76783216783195 14.422644436420594 156.41958041958029 14.415882768913427 C 157.0713286713286 14.40912110140626 157.39720279720277 14.40912110140626 158.04895104895107 14.40912110140626 C 158.70069930069937 14.40912110140626 159.02657342657352 15.306359101342657 159.67832167832182 15.438523242408909 C 160.33006993007012 15.57068738347516 160.6559440559443 15.57068738347516 161.3076923076926 15.57068738347516 C 161.95944055944065 15.57068738347516 162.28531468531466 12.672560253660137 162.9370629370627 12.672560253660137 C 163.588811188811 12.672560253660137 163.9146853146852 13.051305357551408 164.5664335664335 13.442243805856904 C 165.2181818181818 13.833182254162399 165.54405594405597 14.627252495187612 166.19580419580427 14.627252495187612 C 166.84755244755257 14.627252495187612 167.17342657342672 13.65467775979959 167.82517482517503 13.65467775979959 C 168.47692307692307 13.65467775979959 168.80279720279708 13.745837973160222 169.45454545454515 13.947016984544423 C 170.10629370629346 14.148195995928694 170.4321678321676 13.947016984544423 171.0839160839159 14.660572816720766 C 171.7356643356642 15.37412864889711 172.0615384615384 19.251650978716096 172.7132867132867 19.251650978716096 C 173.36503496503502 19.251650978716096 173.69090909090914 17.89176792851731 174.34265734265747 17.89176792851731 C 174.99440559440578 17.89176792851731 175.32027972027996 20.083253766145933 175.97202797202823 20.37168298315835 C 176.6237762237763 20.66011220017077 176.9496503496503 20.66011220017077 177.60139860139836 20.66011220017077 C 178.25314685314666 20.66011220017077 178.57902097902084 19.368798338205554 179.2307692307691 19.368798338205554 C 179.88251748251744 19.368798338205554 180.20839160839157 19.447320701009705 180.8601398601399 19.595090770682518 C 181.5118881118882 19.742860840355327 181.83776223776238 20.107648686569615 182.48951048951068 20.107648686569615 C 183.14125874125872 20.107648686569615 183.46713286713273 19.828156630088394 184.11888111888078 19.828156630088394 C 184.77062937062908 19.828156630088394 185.09650349650326 19.828156630088394 185.74825174825156 19.86065379209897 C 186.39999999999986 19.893150954109544 186.72587412587401 21.258790241255706 187.37762237762232 21.258790241255706 C 188.02937062937062 21.258790241255706 188.3552447552448 21.18637454616717 189.0069930069931 20.15706765648072 C 189.6587412587414 19.127760766794268 189.98461538461555 16.112255792823454 190.63636363636385 16.112255792823454 C 191.28811188811193 16.112255792823454 191.61398601398594 18.672479466432907 192.26573426573398 19.649142952763746 C 192.9174825174823 20.62580643909501 193.24335664335644 20.25364425950008 193.89510489510477 20.995573224478722 C 194.54685314685307 21.73750218945733 194.87272727272722 22.713732929067955 195.52447552447552 23.35878777765687 C 196.17622377622382 24.003842626245792 196.502097902098 23.694652150130896 197.1538461538463 24.22084746742332 C 197.8055944055946 24.747042784715738 198.13146853146876 25.989764364118976 198.78321678321706 25.989764364118976 C 199.4349650349651 25.989764364118976 199.7608391608391 25.989764364118976 200.4125874125872 25.783333594980462 C 201.0643356643355 25.576902825841948 201.39020979020964 22.97664772870592 202.04195804195794 22.830607469972765 C 202.69370629370624 22.68456721123961 203.01958041958042 22.830607469972765 203.67132867132872 22.68456721123961 C 204.32307692307705 22.538526952506455 204.64895104895118 21.785759328499392 205.3006993006995 21.785759328499392 C 205.95244755244752 21.785759328499392 206.27832167832156 24.959267420951495 206.9300699300696 26.02330223495455 C 207.58181818181794 27.087337048958066 207.90769230769206 26.614450718291938 208.5594405594404 27.105933398515816 C 209.2111888111887 27.597416078739673 209.53706293706287 28.480715636073892 210.18881118881114 28.480715636073892 C 210.84055944055945 28.480715636073892 211.16643356643362 28.141391641720528 211.81818181818193 28.141391641720528 C 212.46993006993026 28.141391641720528 212.79580419580444 29.640241658468764 213.4475524475527 30.434667034031005 C 214.09930069930078 31.229092409593 214.4251748251748 31.382008402224603 215.0769230769228 32.11351851953113 C 215.72867132867114 32.845028636838 216.05454545454532 34.092217620564504 216.7062937062936 34.092217620564504 C 217.3580419580419 34.092217620564504 217.68391608391602 33.79325666543134 218.33566433566435 33.65314433120318 C 218.98741258741265 33.513031996975016 219.31328671328683 33.39165594942368 219.96503496503513 33.39165594942368 C 220.61678321678318 33.39165594942368 220.94265734265718 36.666666666666664 221.59440559440523 36.666666666666664 C 222.24615384615353 36.666666666666664 222.5720279720277 35.50699600338412 223.223776223776 34.88506723361191 C 223.87552447552434 34.26313846383969 224.20139860139847 34.123912790011616 224.8531468531468 33.55702281780559 C 225.5048951048951 32.99013284559958 225.83076923076925 32.57583313004234 226.48251748251755 32.050617372581826 C 227.13426573426585 31.525401615121307 227.46013986014003 31.261537830148033 228.11188811188833 30.930944030503 C 228.7636363636364 30.60035023085808 229.0895104895104 30.397648374356947 229.74125874125843 30.397648374356947 C 230.39300699300674 30.397648374356947 230.71888111888092 30.87699768321753 231.37062937062922 30.87699768321753 C 232.02237762237755 30.87699768321753 233 30.271728486240804 233 30.271728486240804" stroke="#4572A7" stroke-width="1"  stroke-linejoin="round" stroke-linecap="round"></path></g><g class="highcharts-markers" visibility="visible"  transform="translate(62,268) scale(1 1)" clip-path="none"></g></g><g class="highcharts-navigator" ><rect fill="rgb(128,179,236)" fill-opacity="0.3" style="cursor:ew-resize ;" x="288" y="268" width="7" height="40"></rect><path fill="none" stroke="#b2b1b6" stroke-width="1" d="M 48 268.5 L 287.5 268.5 287.5 322.5 L 294.5 322.5 L 294.5 268.5 309 268.5 M 288.5 268.5 L 294.5 268.5"></path></g><g class="highcharts-navigator-handle-right" style="cursor:ew-resize;"  transform="translate(295,280)"><rect x="-4.5" y="0.5" width="8" height="15" strokeWidth="1" fill="#ebe7e8" stroke="#b2b1b6" stroke-width="1"></rect><path fill="#ebe7e8" d="M -1.5 4 L -1.5 12 M 0.5 4 L 0.5 12" stroke="#b2b1b6" stroke-width="1"></path></g><g class="highcharts-navigator-handle-left" style="cursor:ew-resize;"  transform="translate(288,280)"><rect x="-4.5" y="0.5" width="8" height="15" strokeWidth="1" fill="#ebe7e8" stroke="#b2b1b6" stroke-width="1"></rect><path fill="#ebe7e8" d="M -1.5 4 L -1.5 12 M 0.5 4 L 0.5 12" stroke="#b2b1b6" stroke-width="1"></path></g><g class="highcharts-axis-labels highcharts-xaxis-labels" ><text x="88.52372096667744" style="color:#6e6e70;cursor:default;font-size:11px;fill:#6e6e70;width:55px;text-overflow:clip;" text-anchor="middle" transform="translate(0,0)" y="241" opacity="1"><tspan>30. Mar</tspan></text><text x="157.1163411103778" style="color:#6e6e70;cursor:default;font-size:11px;fill:#6e6e70;width:55px;text-overflow:clip;" text-anchor="middle" transform="translate(0,0)" y="241" opacity="1"><tspan>6. Apr</tspan></text><text x="225.70896125407813" style="color:#6e6e70;cursor:default;font-size:11px;fill:#6e6e70;width:55px;text-overflow:clip;" text-anchor="middle" transform="translate(0,0)" y="241" opacity="1"><tspan>13. Apr</tspan></text><text x="309" style="color:#6e6e70;cursor:default;font-size:11px;fill:#6e6e70;width:55px;text-overflow:clip;" text-anchor="end" transform="translate(0,0)" y="241" opacity="1"><tspan>20. Apr</tspan></text></g><g class="highcharts-axis-labels highcharts-xaxis-labels" ></g><g class="highcharts-axis-labels highcharts-yaxis-labels" ><text x="33" style="color:#6e6e70;cursor:default;font-size:11px;fill:#6e6e70;width:95px;text-overflow:clip;" text-anchor="end" transform="translate(0,0)" y="220" opacity="1">1250</text><text x="33" style="color:#6e6e70;cursor:default;font-size:11px;fill:#6e6e70;width:95px;text-overflow:clip;" text-anchor="end" transform="translate(0,0)" y="161" opacity="1">1300</text><text x="33" style="color:#6e6e70;cursor:default;font-size:11px;fill:#6e6e70;width:95px;text-overflow:clip;" text-anchor="end" transform="translate(0,0)" y="102" opacity="1">1350</text><text x="0" style="color:#6e6e70;cursor:default;font-size:11px;fill:#6e6e70;width:95px;text-overflow:clip;" text-anchor="end" transform="translate(0,0)" y="-9999">1400</text></g><g class="highcharts-axis-labels highcharts-yaxis-labels" ></g><g class="highcharts-tooltip"  style="cursor:default;padding:0;white-space:nowrap;" transform="translate(0,-9999)"><path fill="none" d="M 3 0 L 13 0 C 16 0 16 0 16 3 L 16 13 C 16 16 16 16 13 16 L 3 16 C 0 16 0 16 0 13 L 0 3 C 0 0 0 0 3 0"  stroke="black" stroke-opacity="0.049999999999999996" stroke-width="5" transform="translate(1, 1)"></path><path fill="none" d="M 3 0 L 13 0 C 16 0 16 0 16 3 L 16 13 C 16 16 16 16 13 16 L 3 16 C 0 16 0 16 0 13 L 0 3 C 0 0 0 0 3 0"  stroke="black" stroke-opacity="0.09999999999999999" stroke-width="3" transform="translate(1, 1)"></path><path fill="none" d="M 3 0 L 13 0 C 16 0 16 0 16 3 L 16 13 C 16 16 16 16 13 16 L 3 16 C 0 16 0 16 0 13 L 0 3 C 0 0 0 0 3 0"  stroke="black" stroke-opacity="0.15" stroke-width="1" transform="translate(1, 1)"></path><path fill="rgb(249, 249, 249)" fill-opacity=" .85" d="M 3 0 L 13 0 C 16 0 16 0 16 3 L 16 13 C 16 16 16 16 13 16 L 3 16 C 0 16 0 16 0 13 L 0 3 C 0 0 0 0 3 0"></path><text x="8"  style="font-size:12px;color:#333333;fill:#333333;" transform="translate(0,20)"></text></g><text x="309" text-anchor="end"  style="cursor:pointer;color:#909090;font-size:9px;fill:#909090;" y="332">Binary.com</text></svg>