<svg xmlns="http://www.w3.org/2000/svg" viewBox="0 0 200 200"><path fill="#F3F3F3" d="M1.429 1.429h197.143v197.143h-197.143z"/><path fill="#CDCCCC" d="M197.143 2.857v194.285h-194.286v-194.285h194.286m2.857-2.857h-200v200h200v-200z"/><g stroke="#CDCCCC" stroke-width="2" fill="none"><path d="M26.924 200v-200M56.539 200v-200M86.154 200v-200M115.769 200v-200M145.385 200v-200M175 200v-200"/></g><g stroke="#CDCCCC" stroke-width="2" fill="none"><path d="M0 25.961h200M0 55.577h200M0 85.192h200M0 114.808h200M0 144.423h200M0 174.039h200"/></g><path fill="#222E61" d="M41.136 48.278h-9.993v-9.996h-3.601v9.996h-9.997v3.598h9.997v9.996h3.601v-9.996h9.993zM62.161 64.177h-9.995v-9.997h-3.6v9.997h-9.996v3.596h9.996v9.998h3.6v-9.998h9.995zM25.498 64.177h-9.993v-9.997h-3.601v9.997h-9.993v3.596h9.993v9.998h3.601v-9.998h9.993zM79.336 84.435h-9.993v-9.995h-3.601v9.995h-9.997v3.599h9.997v9.994h3.601v-9.994h9.993zM102.413 97.257h-9.994v-9.995h-3.601v9.995h-9.997v3.598h9.997v9.996h3.601v-9.996h9.994zM115.234 116.742h-9.994v-9.993h-3.599v9.993h-9.997v3.601h9.997v9.993h3.599v-9.993h9.994zM143.951 125.974h-9.993v-9.995h-3.601v9.995h-9.997v3.599h9.997v9.994h3.601v-9.994h9.993zM122.413 146.999h-9.994v-9.994h-3.6v9.994h-9.997v3.6h9.997v9.994h3.6v-9.994h9.994zM161.898 108.026h-9.993v-9.996h-3.6v9.996h-9.993v3.598h9.993v9.996h3.6v-9.996h9.993zM179.85 90.078h-9.994v-9.997h-3.6v9.997h-9.997v3.597h9.997v9.997h3.6v-9.997h9.994zM59.597 39.456h-6.3v-6.301h-2.27v6.301h-6.3v2.269h6.3v6.301h2.27v-6.301h6.3zM86.409 62.68h-6.299v-6.3h-2.271v6.3h-6.3v2.268h6.3v6.302h2.271v-6.302h6.299zM182.013 66.271h-6.297v-6.301h-2.273v6.301h-6.3v2.268h6.3v6.302h2.273v-6.302h6.297zM146.117 150.372h-6.3v-6.301h-2.269v6.301h-6.301v2.269h6.301v6.301h2.269v-6.301h6.3zM194.32 82.167h-6.297v-6.302h-2.272v6.302h-6.301v2.268h6.301v6.301h2.272v-6.301h6.297zM199.964 57.552h-6.301v-6.302h-2.269v6.302h-6.3v2.268h6.3v6.3h2.269v-6.3h6.301zM72.053 52.997h-7.17v-7.171h-2.585v7.171h-7.169v2.583h7.169v7.17h2.585v-7.17h7.17z"/></svg>
