<svg xmlns="http://www.w3.org/2000/svg" viewBox="0 0 200 200"><path fill="#F3F3F3" d="M1.43 1.43H198.57V198.57H1.43z"/><path fill="#CDCCCC" d="M197.143 2.857v194.286H2.857V2.857h194.286M200 0H0v200h200V0z"/><path d="M26.923 200V0M56.54 200V0m29.613 200V0m29.616 200V0m29.615 200V0M175 200V0M0 25.96h200M0 55.58h200M0 85.192h200M0 114.808h200M0 144.424h200M0 174.04h200" stroke="#CDCCCC" stroke-width="2" fill="none"/><g fill="none"><path stroke="#676767" stroke-width="2" d="M27.42 23.57v68.56"/><path stroke="#308742" stroke-width="9" d="M27.42 41.616v60"/><path stroke="#676767" stroke-width="2" d="M174.342 34.692v47.725"/><path stroke="#308742" stroke-width="9" d="M174.342 18.796v44.617"/><path stroke="#676767" stroke-width="2" d="M56.136 151.616v-33.59"/><path stroke="#EC2227" stroke-width="9" d="M56.136 87.26v34.357"/><path stroke="#676767" stroke-width="2" d="M86.394 59.82v70.804"/><path stroke="#EC2227" stroke-width="9" d="M86.394 77.26v34.357"/><path stroke="#676767" stroke-width="2" d="M115.11 29.565V77.26"/><path stroke="#308742" stroke-width="9" d="M115.11 47v34.36"/><path stroke="#676767" stroke-width="2" d="M144.342 74.34v105"/><path stroke="#EC2227" stroke-width="9" d="M144.342 98.283v54.1"/></g></svg>