<svg xmlns="http://www.w3.org/2000/svg" viewBox="0 0 200 200"><path fill="#F3F3F3" d="M1.43 1.43H198.57V198.57H1.43z"/><path fill="#CDCCCC" d="M197.143 2.857v194.285H2.857V2.857h194.286M200 0H0v200h200V0z"/><path d="M26.924 200V0M56.54 200V0m29.614 200V0m29.616 200V0m29.615 200V0M175 200V0M0 25.96h200M0 55.578h200M0 85.192h200M0 114.808h200M0 144.423h200M0 174.04h200" stroke="#CDCCCC" stroke-width="2" fill="none"/><path fill="#222E61" d="M157.23 98.59l-36.66 7.483-75.666-75.667L0 43.323V59.33l40.44-11.632 75.1 75.102 38.728-7.902L200 143.628v-18.17z"/></svg>