<?xml version="1.0" encoding="utf-8"?>
<!DOCTYPE svg PUBLIC "-//W3C//DTD SVG 1.0//EN" "http://www.w3.org/TR/2001/REC-SVG-20010904/DTD/svg10.dtd">
<svg version="1.0" id="Layer_1" xmlns="http://www.w3.org/2000/svg" xmlns:xlink="http://www.w3.org/1999/xlink" x="0px" y="0px"
	 width="140px" height="140px" viewBox="0 0 140 140" enable-background="new 0 0 140 140" xml:space="preserve">
<g>
	<g>
		<g>
			<rect x="1" y="1" fill="#F3F3F3" width="138" height="138"/>
			<g>
				<path fill="#CDCCCC" d="M138,2v136H2V2H138 M140,0H0v140h140V0L140,0z"/>
			</g>
		</g>
	</g>
	<g>
		<polygon fill="#2A3052" points="10,52.001 45.091,52.001 40.792,56.3 49.037,56.3 36.563,68.772 34.104,71.23 23.846,81.484 
			30.692,88.331 22.583,96.442 25.642,99.5 36.807,88.331 29.963,81.484 40.22,71.23 42.679,68.772 52.094,59.356 52.094,67.855 
			56.419,63.533 56.419,52.001 69,52.001 69,49.542 10,49.542 		"/>
		<path fill="#2A3052" d="M67,42.5v55H12v-55H67 M69,40.5H10v59h59V40.5L69,40.5z"/>
	</g>
	<g>
		<g>
			<rect x="71" y="90.076" fill="#2A3052" width="59" height="2.458"/>
			<polygon fill="#2A3052" points="127.005,80.272 127.005,69.777 116.272,69.777 112.257,73.791 120.434,73.791 113.105,81.121 
				88.639,56.654 84.33,60.963 77.8,54.435 74.963,57.271 84.33,66.639 88.639,62.333 113.105,86.8 122.989,76.914 122.989,84.288 
							"/>
		</g>
		<path fill="#2A3052" d="M128,42.5v55H73v-55H128 M130,40.5H71v59h59V40.5L130,40.5z"/>
	</g>
</g>
</svg>
