<?xml version="1.0" encoding="utf-8"?>
<!DOCTYPE svg PUBLIC "-//W3C//DTD SVG 1.0//EN" "http://www.w3.org/TR/2001/REC-SVG-20010904/DTD/svg10.dtd">
<svg version="1.0" id="Layer_1" xmlns="http://www.w3.org/2000/svg" xmlns:xlink="http://www.w3.org/1999/xlink" x="0px" y="0px"
	 width="140px" height="140px" viewBox="0 0 140 140" enable-background="new 0 0 140 140" xml:space="preserve">
<g>
	<g>
		<g>
			<rect x="1" y="1" fill="#F3F3F3" width="138" height="138"/>
			<g>
				<path fill="#CDCCCC" d="M138,2v136H2V2H138 M140,0H0v140h140V0L140,0z"/>
			</g>
		</g>
	</g>
	<g>
		<rect x="10" y="40.5" fill="#2A3052" width="59" height="58.999"/>
		<g>
			<polygon fill="#F1F2F2" points="32.172,84.643 18.758,71.229 10,71.229 10,99.5 69,99.5 69,71.229 45.588,71.229 			"/>
			<polygon fill="#F1F2F2" points="39.15,71.229 25.196,71.229 32.172,78.206 			"/>
			<polygon fill="#F1F2F2" points="10,40.5 10,68.771 17.322,68.771 20.031,66.065 22.737,68.771 41.607,68.771 54.348,56.032 
				47.154,56.032 51.705,51.479 62.068,51.479 62.068,61.941 57.517,66.494 57.517,59.302 48.047,68.771 69,68.771 69,40.5 			"/>
		</g>
		<path fill="#2A3052" d="M67,42.5v54.999H12V42.5H67 M69,40.5H10v58.999h59V40.5L69,40.5z"/>
	</g>
	<g>
		<rect x="71" y="40.5" fill="#2A3052" width="59" height="58.999"/>
		<g>
			<polygon fill="#F1F2F2" points="93.172,55.357 79.759,68.771 71,68.771 71,40.5 130,40.5 130,68.771 106.588,68.771 			"/>
			<polygon fill="#F1F2F2" points="100.148,68.771 86.197,68.771 93.172,61.795 			"/>
			<polygon fill="#F1F2F2" points="71,99.5 71,71.23 78.324,71.23 81.032,73.938 83.738,71.23 102.607,71.23 115.348,83.968 
				108.152,83.968 112.705,88.521 123.068,88.521 123.068,78.059 118.514,73.508 118.514,80.699 109.047,71.23 130,71.23 130,99.5 
							"/>
		</g>
		<path fill="#2A3052" d="M128,42.5v54.999H73V42.5H128 M130,40.5H71v58.999h59V40.5L130,40.5z"/>
	</g>
</g>
</svg>
