<svg version="1" xmlns="http://www.w3.org/2000/svg" width="140" height="140" viewBox="0 0 140 140"><path fill="#F3F3F3" d="M1 1h138v138H1z"/><path fill="#CDCCCC" d="M138 2v136H2V2h136m2-2H0v140h140V0z"/><g fill="#2A3052"><path d="M55.364 56.696v8.508l4.274-4.27V49.517h-11.17l-4.27 4.27h8.035L37.25 68.772H10v2.46h24.79L18.558 87.466l3.018 3.018L40.832 71.23H69v-2.46H43.29zM67 42.5v55H12v-55h55m2-2H10v59h59v-59z"/></g><g fill="#2A3052"><path d="M82.574 49.516l-3.017 3.02L95.79 68.772H71v2.46h27.25l14.983 14.983H105.2l4.27 4.27h11.167v-11.42l-4.273-4.27v8.512L104.29 71.23H130v-2.46h-28.168zM128 42.5v55H73v-55h55m2-2H71v59h59v-59z"/></g></svg>