<?xml version="1.0" encoding="utf-8"?>
<!DOCTYPE svg PUBLIC "-//W3C//DTD SVG 1.0//EN" "http://www.w3.org/TR/2001/REC-SVG-20010904/DTD/svg10.dtd">
<svg version="1.0" id="Layer_1" xmlns="http://www.w3.org/2000/svg" xmlns:xlink="http://www.w3.org/1999/xlink" x="0px" y="0px"
	 width="140px" height="140px" viewBox="0 0 140 140" enable-background="new 0 0 140 140" xml:space="preserve">
<g>
	<g>
		<g>
			<rect x="1" y="1" fill="#F3F3F3" width="138" height="138"/>
			<g>
				<path fill="#CDCCCC" d="M138,2v136H2V2H138 M140,0H0v140h140V0L140,0z"/>
			</g>
		</g>
	</g>
	<g>
		<g>
			<polygon fill="#2A3052" points="43.824,61.804 35.061,73.085 26.453,60.359 19.146,71.393 12.826,71.393 12.826,75.326 
				21.258,75.326 26.488,67.429 34.839,79.778 44.022,67.955 49.798,74.466 58.048,74.466 52.771,79.742 58.331,79.744 
				65.767,72.311 58.496,65.039 52.935,65.039 58.427,70.531 51.567,70.531 			"/>
			<rect x="10" y="81.245" fill="#2A3052" width="59" height="2.622"/>
			<rect x="10" y="57.238" fill="#2A3052" width="59" height="2.624"/>
		</g>
		<path fill="#2A3052" d="M67,42.5v55H12v-55H67 M69,40.5H10v59h59V40.5L69,40.5z"/>
	</g>
	<g>
		<g>
			<path fill="#2A3052" d="M124.444,53.125l-3.188-10.017l-9.799,3.117l-2.554,4.94l6.872-2.188l-4.531,8.136H90.241l-1.459-2.765
				l-1.529,2.765H71v2.746h14.735l-5.896,10.674h-6.216v3.933h8.534l6.546-11.84l8.921,16.902H71v2.728h28.063l1.312,2.483
				l1.379-2.483H130v-2.728h-26.728l10.948-19.669H130v-2.746h-7.62L124.444,53.125z M100.465,76.486L91.689,59.86h18.027
				L100.465,76.486z M115.749,57.114l3.715-6.672l2.124,6.672H115.749z"/>
			<rect x="100.499" y="11.001" fill="#2A3052" width="0.002" height="59"/>
		</g>
		<path fill="#2A3052" d="M128,42.5v55H73v-55H128 M130,40.5H71v59h59V40.5L130,40.5z"/>
	</g>
</g>
</svg>
