<?xml version="1.0" encoding="utf-8"?>
<!DOCTYPE svg PUBLIC "-//W3C//DTD SVG 1.0//EN" "http://www.w3.org/TR/2001/REC-SVG-20010904/DTD/svg10.dtd">
<svg version="1.0" id="Layer_1" xmlns="http://www.w3.org/2000/svg" xmlns:xlink="http://www.w3.org/1999/xlink" x="0px" y="0px"
	 width="140px" height="140px" viewBox="0 0 140 140" enable-background="new 0 0 140 140" xml:space="preserve">
<g>
	<g>
		<g>
			<rect x="1" y="1" fill="#F3F3F3" width="138" height="138"/>
			<g>
				<path fill="#CDCCCC" d="M138,2v136H2V2H138 M140,0H0v140h140V0L140,0z"/>
			</g>
		</g>
	</g>
	<g>
		<polygon fill="#2A3052" points="55.364,56.696 55.364,65.204 59.638,60.935 59.638,49.516 48.469,49.516 44.199,53.787 
			52.233,53.787 37.25,68.771 10,68.771 10,71.23 34.791,71.23 18.557,87.466 21.575,90.484 40.832,71.23 69,71.23 69,68.771 
			43.29,68.771 		"/>
		<path fill="#2A3052" d="M67,42.5v55H12v-55H67 M69,40.5H10v59h59V40.5L69,40.5z"/>
	</g>
	<g>
		<polygon fill="#2A3052" points="82.574,49.516 79.557,52.537 95.791,68.771 71,68.771 71,71.23 98.25,71.23 113.233,86.213 
			105.199,86.213 109.469,90.484 120.637,90.484 120.637,79.064 116.364,74.794 116.364,83.305 104.29,71.23 130,71.23 130,68.771 
			101.832,68.771 		"/>
		<path fill="#2A3052" d="M128,42.5v55H73v-55H128 M130,40.5H71v59h59V40.5L130,40.5z"/>
	</g>
</g>
</svg>
