<svg xmlns="http://www.w3.org/2000/svg" viewBox="0 0 250 120"><path fill="#F69321" d="M19.188 62.325c1.576 0 3.51-.659 5.74-1.957 3.935-2.291 8.58-8.602 13.071-14.71 4.837-6.573 9.833-13.374 13.902-15.116l-.077-.37c-4.613 0-12.078 7.41-18.667 13.955-6.048 6.001-11.724 11.584-13.063 9.31-.235-.407-.358-1.055-.358-1.924 0-5.291 1.801-6.824 1.816-6.838l.421-.346h-5.213l-.045.14c-.021.069-2.273 7.248-2.273 11.386.001 4.055 1.778 6.475 4.748 6.475M28.238 44.612c.4 0 .785-.078 1.137-.233 1.127-.504 1.836-1.739 1.996-3.481.158-1.707-.228-3.698-1.08-5.62-1.756-3.934-5.112-6.412-7.376-5.403-2.284 1.019-2.699 5.099-.917 9.1 1.479 3.325 4.042 5.635 6.242 5.635M26.716 65.475c-16.232.185-17.356 30.105-17.366 30.402l-.005.266 6.796-2 .014-.122c.027-.224 2.928-22.115 13.209-22.115 10.388 0 59.8 36.23 60.29 36.595l.246-.295c-1.907-1.746-46.85-42.736-63.18-42.736M36.29 53.446l-.115-.119-3.883 2.862.118.158c.074.1 7.72 10.09 16.39 10.09 7.229 0 10.535-9.103 10.568-9.195l-.354-.158c-.023.05-2.849 5.003-8.515 5.003-5.699-.007-14.119-8.557-14.209-8.637"/><path fill="#EB1A5B" d="M125.011 15.479c-.105-.039-10.813-3.979-24.521-3.979-18.094 0-42.28 6.813-54.745 39.286l.354.16c13.874-27.386 34.991-33.136 50.251-33.136 14.399 0 25.69 5.03 25.8 5.082l.186.08 2.854-7.426-.179-.067z"/><path fill="#00A89C" d="M130.691 31.419c-.16-.101-16.288-9.836-35.864-9.836-20.131 0-36.508 9.882-48.676 29.361l.316.23c12.397-15.946 27.4-24.029 44.596-24.029 19.662 0 35.26 10.9 35.41 11.006l.169.118 4.215-6.748-.166-.102z"/><path fill="#90298D" d="M133.231 48.147c-.19-.173-19.448-17.552-43.975-17.552-15.631 0-30.011 6.929-42.739 20.59l.268.274c12.18-10.642 25.141-16.033 38.526-16.033 24.536 0 42.32 18.34 42.5 18.525l.145.15 5.422-5.821-.147-.133z"/><path fill="#595A5C" d="M67.01 72.23v-12.47h2.43v10.3h5.66v2.17zM84.188 70.969c-.876.876-1.945 1.364-3.362 1.364-1.418 0-2.504-.488-3.38-1.364-1.257-1.261-1.224-2.817-1.224-4.971 0-2.155-.033-3.712 1.224-4.975.876-.875 1.962-1.366 3.38-1.366 1.417 0 2.49.49 3.36 1.366 1.259 1.26 1.24 2.82 1.24 4.975.002 2.152.024 3.712-1.236 4.972m-1.806-8.48c-.352-.402-.895-.663-1.559-.663s-1.229.261-1.578.663c-.47.526-.592 1.102-.592 3.5 0 2.4.12 2.98.59 3.502.35.4.91.66 1.58.663s1.207-.263 1.559-.663c.472-.527.613-1.105.613-3.502 0-2.39-.137-2.97-.617-3.5"/><path fill="#595A5C" d="M92.32 61.93v10.3h-2.43v-10.3h-3.26v-2.17h8.95v2.17zM102.32 61.93v10.3h-2.43v-10.3h-3.26v-2.17h8.95v2.17zM107.55 72.23v-12.47h8.21v2.17h-5.78v2.93h4.92v2.17h-4.92v3.03h5.78v2.17zM124.757 72.231l-2.433-4.973h-1.751v4.973h-2.433v-12.467h4.884c2.538 0 4.04 1.73 4.04 3.82 0 1.751-1.066 2.836-2.275 3.275l2.781 5.375h-2.813zm-1.893-10.297h-2.291v3.291h2.291c1.069 0 1.77-.682 1.77-1.644 0-.961-.704-1.651-1.774-1.651"/><path fill="#595A5C" d="M129.58 59.76h2.44v12.47h-2.44zM134.93 72.23v-12.47h8.21v2.17h-5.78v2.93h4.92v2.17h-4.92v3.03h5.78v2.17zM148.944 72.333c-1.893 0-3.328-.403-4.552-1.644l1.578-1.576c.785.79 1.85 1.05 3.01 1.05 1.437 0 2.21-.544 2.21-1.54 0-.438-.124-.804-.385-1.05-.247-.227-.528-.351-1.104-.439l-1.506-.209c-1.069-.158-1.856-.487-2.415-1.032-.597-.597-.893-1.404-.893-2.453 0-2.224 1.644-3.782 4.34-3.782 1.718 0 2.96.42 4.03 1.453l-1.542 1.525c-.785-.753-1.732-.859-2.557-.859-1.295 0-1.925.72-1.925 1.58 0 .32.1.65.37.895.248.23.65.42 1.15.487l1.474.214c1.138.15 1.85.47 2.38.96.669.63.96 1.54.96 2.642-.003 2.415-2.007 3.775-4.627 3.775M167.989 72.231l-.911-1.087c-.579.454-1.438 1.19-3.223 1.19-2.751 0-4.112-1.438-4.112-3.782 0-1.592 1.155-2.626 2.24-3.344-.508-.577-1.24-1.453-1.24-2.644 0-1.698 1.24-2.904 3.321-2.904 1.966 0 3.19 1.24 3.19 2.94 0 .96-.504 1.607-1.274 2.17 0 0-.579.438-.893.649l2.101 2.48c.404-.542.599-1.295.631-2.188h2.154c-.09 1.611-.456 2.889-1.334 3.867l2.24 2.646h-2.89zm-4.779-5.621c-.757.522-1.261 1.014-1.261 1.906 0 1.03.84 1.75 1.89 1.753.734 0 1.275-.229 1.854-.737l-2.483-2.921zm.854-5.007c-.681 0-1.034.438-1.034 1.016 0 .46.39.89.82 1.4.175-.105.522-.351.522-.351.405-.278.721-.613.721-1.05.006-.578-.373-1.018-1.033-1.018M184.74 70.919c-.966.979-2.119 1.414-3.521 1.414-1.329 0-2.449-.453-3.359-1.364-.545-.543-.877-1.172-1.015-1.872-.142-.702-.212-1.732-.212-3.099s.07-2.4.212-3.103c.138-.713.47-1.33 1.015-1.872.91-.906 2.03-1.366 3.359-1.366 2.838 0 4.36 1.82 4.7 3.993h-2.453c-.297-1.208-1.036-1.821-2.242-1.821-.647 0-1.175.229-1.559.665-.453.581-.595 1.032-.595 3.5 0 2.45.1 2.94.59 3.518.37.44.9.65 1.56.647.716 0 1.297-.229 1.736-.7.362-.421.561-.979.561-1.663v-.473h-2.297v-2.031h4.709v1.821c-.001 1.827-.329 2.887-1.189 3.807"/><path fill="#595A5C" d="M195.135 72.229l-.734-2.208h-4.431l-.751 2.208h-2.542l4.535-12.466h1.909l4.554 12.466h-2.54zm-2.905-8.79l-1.578 4.538h3.101l-1.523-4.538zM208.07 72.23v-7.27l-2.38 4.73h-1.65l-2.4-4.73v7.27h-2.43v-12.47h2.4l3.26 6.74 3.23-6.74h2.4v12.47zM213.41 59.76h2.44v12.47h-2.44zM226.12 72.23l-4.94-7.65v7.65h-2.43v-12.47h2.16l4.94 7.64v-7.64h2.44v12.47zM238.875 70.919c-.966.979-2.119 1.414-3.522 1.414-1.329 0-2.45-.453-3.359-1.364-.54-.543-.876-1.172-1.016-1.872-.138-.702-.211-1.732-.211-3.099s.073-2.4.211-3.103c.14-.713.476-1.33 1.016-1.872.909-.906 2.03-1.366 3.359-1.366 2.838 0 4.36 1.82 4.7 3.993h-2.453c-.298-1.208-1.029-1.821-2.243-1.821-.645 0-1.172.229-1.554.665-.458.581-.597 1.032-.597 3.5 0 2.45.1 2.94.6 3.518.364.44.89.65 1.55.647.719 0 1.301-.229 1.737-.7.368-.421.559-.979.559-1.663v-.473h-2.296v-2.031h4.712v1.821c-.004 1.827-.338 2.887-1.188 3.807"/><path fill="#595A5C" d="M100.076 93.618l-.734-2.208h-4.429l-.75 2.208h-2.541l4.532-12.464h1.911l4.551 12.464h-2.54zm-2.903-8.792l-1.577 4.537h3.101l-1.524-4.537zM108.55 93.721c-2.559 0-4.589-1.73-4.589-4.375v-8.191h2.434v8.104c0 1.44.84 2.29 2.15 2.29 1.309 0 2.169-.86 2.169-2.295v-8.104h2.417v8.191c.005 2.649-2.021 4.379-4.581 4.379"/><path fill="#595A5C" d="M120.61 83.32v10.3h-2.44v-10.3h-3.25v-2.17h8.94v2.17zM132.49 93.62v-5.22h-4.22v5.22h-2.43v-12.47h2.43v5.1h4.22v-5.1h2.44v12.47zM145.374 92.357c-.876.876-1.942 1.363-3.362 1.363-1.416 0-2.505-.487-3.377-1.363-1.261-1.26-1.227-2.817-1.227-4.974 0-2.151-.034-3.709 1.227-4.97.872-.877 1.961-1.367 3.377-1.367 1.42 0 2.49.49 3.36 1.367 1.259 1.26 1.25 2.82 1.25 4.97-.003 2.157.008 3.717-1.252 4.977m-1.798-8.47c-.352-.405-.896-.664-1.561-.664-.665 0-1.224.259-1.578.664-.47.524-.591 1.102-.591 3.5 0 2.4.12 2.98.59 3.504.354.4.91.67 1.58.666.664 0 1.209-.264 1.561-.666.47-.526.612-1.104.612-3.504s-.145-2.98-.615-3.5M155.721 93.618l-2.436-4.971h-1.751v4.971h-2.437v-12.464h4.888c2.54 0 4.04 1.73 4.04 3.81 0 1.748-1.068 2.836-2.274 3.272l2.784 5.376h-2.814zm-1.893-10.296h-2.294v3.293h2.294c1.066 0 1.771-.683 1.771-1.646s-.704-1.649-1.769-1.649"/><path fill="#595A5C" d="M160.55 81.15h2.43v12.47h-2.43zM170.65 83.32v10.3h-2.44v-10.3h-3.25v-2.17h8.94v2.17zM180.64 88.51v5.11h-2.42v-5.11l-3.74-7.36h2.64l2.33 5.03 2.3-5.03h2.64zM199.95 83.34l-3.78 8.53h-.95l-3.85-8.53v10.28h-.94v-12.47h.94l4.34 9.61 4.24-9.61h.95v12.47h-.95zM210.994 90.59h-5.815l-1.082 3.028h-1.019l4.589-12.466h.838l4.59 12.466h-1.019l-1.082-3.028zm-5.515-.842h5.216l-2.608-7.334-2.608 7.334zM215.28 81.15h.95v11.63h6.61v.84h-7.56zM227.16 93.62h-.94v-11.63h-3.71v-.84h8.39v.84h-3.74zM238.559 90.59h-5.811l-1.087 3.028h-1.014l4.584-12.466h.847l4.58 12.466h-1.012l-1.087-3.028zm-5.517-.842h5.22l-2.609-7.334-2.611 7.334z"/></svg>