<svg xmlns="http://www.w3.org/2000/svg" viewBox="0 268.322 395 174"><path fill="#fff" d="M0 268.322h395v174h-395z"/><path fill="#818181" d="M0 268.322h395v1h-395v-1M0 441.322h395v1h-395v-1M0 268.322h1v174h-1v-174M394 268.322h1v174h-1v-174"/><text transform="translate(73.001 297.324)" fill="#010101" font-family="Arial" font-size="18" font-weight="bold">Stays Between</text><text transform="translate(51.501 332.324)" fill="#010101" font-family="Arial" font-size="16" font-weight="bold">GBP</text><text transform="translate(90.501 332.324)" fill="#010101" font-family="Arial" font-size="22" font-weight="bold">3</text><text transform="translate(102.501 323.324)" fill="#010101" font-family="Arial" font-size="14" font-weight="bold">.97</text><path fill="#2F8942" d="M34 340.322h98c2.209 0 4 1.791 4 4v26c0 2.207-1.791 4-4 4h-98c-2.207 0-4-1.793-4-4v-26c0-2.209 1.793-4 4-4"/><text transform="translate(45.001 362.324)" fill="#fff" font-family="Arial" font-size="14" font-weight="bold">PURCHASE</text><path fill="#E4E4E4" d="M1 419.322h393v22h-393v-22"/><text transform="translate(94.001 435.324)" fill="#676767" font-family="Arial" font-size="13">Net profit: GBP 6.03 | Return: 152%</text><path fill="none" d="M176 313.322h209v62h-209z"/><text transform="translate(176 323.375)" font-family="Arial" font-size="14">GBP</text><text transform="translate(209.455 323.375)" font-family="Arial" font-size="14" font-weight="bold">10</text><text transform="translate(225.027 323.375)" font-family="Arial" font-size="14">payout if AUD/JPY</text><text transform="translate(348.744 323.375)" font-family="Arial" font-size="14" font-weight="bold">stays</text><text transform="translate(176 337.375)" font-family="Arial" font-size="14" font-weight="bold">strictly between 91.783</text><text transform="translate(328.523 337.375)" font-family="Arial" font-size="14">and</text><text transform="translate(176 351.375)" font-family="Arial" font-size="14" font-weight="bold">94.095</text><text transform="translate(218.82 351.375)" font-family="Arial" font-size="14">before close (91.783)</text><text transform="translate(176 365.375)" font-family="Arial" font-size="14">on 31-Mar-14.</text><g fill="#29ABE2"><path d="M19 299.186h36v-13.049h-36v13.049zm1.725-6.012h3.855l4.459-6.733 5.252 7.767 5.348-6.887 4.726 5.328h4.186l-3.352-3.352h3.394l4.438 4.436-4.537 4.535h-3.394l3.22-3.219h-5.033l-3.522-3.975-5.604 7.215-5.097-7.533-3.191 4.816h-5.145v-2.398h-.003zM19 300.784h36v9.538h-36zM19 274.322h36v10.214h-36z"/></g></svg>