<svg xmlns="http://www.w3.org/2000/svg" width="111" height="112" viewBox="0 0 111 112"><g fill="#1A1A1A"><path d="M102.723 75.178c1.021-1.732 1.717-3.605 2.502-5.482 1.988-.467 3.879-1.051 5.775-1.73-1.602-1.281-3.223-2.473-4.857-3.57-.018-2.02-.316-4.033-.469-5.998-1.455 1.424-2.91 2.732-4.354 3.92-1.934-.475-3.869-.91-5.809-1.307.928 1.48 1.541 3.018 2.24 4.666-1.053 1.35-2.461 2.523-3.654 3.641 1.945.277 3.902.516 5.869.715 1.054 1.629 1.987 3.35 2.757 5.145zM95.396 87.42c1.953.359 3.961.645 6.02.848-.93-1.83-1.953-3.611-3.006-5.297.861-1.826 1.441-3.77 2.027-5.668-1.902.701-3.656 1.348-5.535 1.791-1.549-1.223-3.098-2.404-4.719-3.576.121 1.66.135 3.373.115 5.18-1.691.664-3.234 1.326-4.857 1.793 1.674 1.068 3.383 2.113 5.072 3.094.246 1.883.328 3.787.379 5.814 1.516-1.27 3.139-2.499 4.504-3.979zM88.783 93.359c-1.936-.039-3.922-.326-5.793-.662-.916-1.76-1.865-3.494-2.842-5.205-.559 1.582-1.182 3.242-2.021 4.758l-.664.008c-1.516 0-3.012-.119-4.484-.357 1.084 1.652 2.203 3.287 3.357 4.904-.572 1.766-1.178 3.76-2.025 5.482 1.957-.404 3.813-1.137 5.766-1.725 1.617 1.104 3.316 2.158 5.094 3.16-.1-2.051-.229-3.982-.529-5.994 1.413-1.472 2.928-2.761 4.141-4.369zM59.623 106.516c1.023 1.748 2.137 3.457 3.334 5.049.76-1.916 1.422-3.82 1.99-5.713 1.936-.551 3.76-1.484 5.592-2.203-1.785-.969-3.455-1.975-5.008-3.002-.113-1.992-.264-3.977-.455-5.953-1.127 1.336-2.434 2.314-3.795 3.506-1.594-.627-3.137-1.65-4.553-2.443.307 1.943.652 3.887 1.039 5.828-1.25 1.504-2.617 2.865-4.101 4.146 1.953.462 3.938.607 5.957.785zM49.678 105.408c-1.23-1.609-2.361-3.125-3.344-4.762.705-1.828 1.379-3.697 2.018-5.59-1.553.645-3.166 1.105-4.9 1.646-1.145-1.387-2.192-2.754-3.14-4.105-.532 1.93-1.003 3.809-1.45 5.74-1.75.85-3.514 1.422-5.437 2.07 1.638 1.127 3.308 2.264 5.118 3.156.232 1.975.544 4.012.965 6.016 1.48-1.449 2.87-2.934 4.168-4.438 1.992.3 4.022.244 6.002.267zM29.938 98.438c-.517-1.887-.867-3.805-1.064-5.74 1.41-1.389 2.787-2.801 4.134-4.238-1.639-.117-3.456-.168-5.131-.549-.512-1.699-.957-3.326-1.177-5.043l-3.7 4.659c-1.859-.027-3.886-.068-5.83-.33 1.021 1.701 2.164 3.357 3.358 4.992-.583 1.877-1.1 3.822-1.544 5.824 1.91-.672 3.738-1.393 5.581-2.277 1.782.973 3.499 1.985 5.373 2.702zM21.702 76.107c-1.597-.697-2.948-1.637-4.468-2.598.126-1.711.648-3.48.986-5.068-1.764.865-3.514 1.768-5.252 2.707-1.807-.752-3.477-1.67-5.156-2.713.146 2.002.557 3.959 1.001 5.941-1.366 1.496-2.659 3.064-3.825 4.686 1.896.148 3.764.221 5.592.221l.436-.002c1.133 1.672 2.51 3.174 3.757 4.699.381-1.982.868-3.895 1.392-5.686 1.866-.692 3.711-1.423 5.537-2.187zM6.969 47.484c-.602 1.9-1.188 3.834-1.5 5.83-1.823.802-3.647 1.696-5.469 2.686 1.822.989 3.646 1.885 5.469 2.686.312 1.996.898 3.93 1.5 5.83 1.182-1.65 2.238-3.168 3.576-4.596 1.971.141 3.904.248 5.895.309-1.01-1.311-1.981-2.723-2.997-4.229 1.016-1.506 1.987-2.918 2.997-4.229-1.99.061-3.924.168-5.895.309-1.338-1.429-2.395-2.946-3.576-4.596zM12.969 40.851c1.738.94 3.488 1.842 5.252 2.706-.338-1.586-.86-3.356-.986-5.067 1.52-.96 2.871-1.899 4.468-2.599-1.826-.763-3.671-1.492-5.538-2.187-.523-1.791-1.011-3.704-1.392-5.687-1.247 1.526-2.624 3.029-3.757 4.699l-.439-.002c-1.83 0-3.693.073-5.588.223 1.166 1.618 2.459 3.188 3.825 4.686-.444 1.981-.855 3.938-1.001 5.94 1.679-1.041 3.349-1.959 5.156-2.712zM26.699 29.131c.22-1.715.665-3.342 1.177-5.042 1.675-.381 3.492-.432 5.131-.549-1.347-1.437-2.724-2.849-4.134-4.238.197-1.937.548-3.854 1.064-5.74-1.873.716-3.591 1.729-5.372 2.701-1.843-.885-3.671-1.606-5.581-2.276.444 2.001.961 3.944 1.544 5.821-1.194 1.635-2.337 3.294-3.358 4.996 1.944-.264 3.971-.305 5.83-.332l3.699 4.659zM33.425 11.591c1.923.647 3.687 1.222 5.437 2.071.447 1.931.918 3.809 1.45 5.738.947-1.35 1.995-2.719 3.14-4.104 1.734.54 3.348 1.003 4.9 1.647-.639-1.893-1.313-3.762-2.018-5.589.982-1.637 2.113-3.152 3.344-4.762-1.979.021-4.01-.036-6.002.265-1.298-1.505-2.688-2.988-4.168-4.438-.421 2.003-.732 4.042-.965 6.017-1.811.892-3.48 2.027-5.118 3.155zM64.947 6.148c-.568-1.893-1.23-3.798-1.99-5.712-1.197 1.591-2.311 3.3-3.334 5.047-2.02.178-4.004.324-5.956.786 1.483 1.281 2.851 2.645 4.101 4.146-.387 1.941-.732 3.884-1.039 5.827 1.416-.793 2.959-1.816 4.553-2.442 1.361 1.192 2.668 2.169 3.795 3.505.191-1.974.342-3.959.455-5.951 1.553-1.029 3.223-2.034 5.008-3.003-1.833-.718-3.657-1.652-5.593-2.203zM78.127 19.75c.84 1.515 1.463 3.175 2.021 4.759.977-1.711 1.926-3.447 2.842-5.206 1.871-.334 3.857-.623 5.793-.662-1.213-1.606-2.729-2.897-4.143-4.368.301-2.014.43-3.944.529-5.997-1.777 1.003-3.477 2.058-5.094 3.162-1.953-.588-3.809-1.319-5.766-1.725.848 1.723 1.453 3.717 2.025 5.482-1.154 1.617-2.273 3.253-3.357 4.905 1.473-.239 2.969-.357 4.484-.357l.666.007zM95.699 33.705c1.879.442 3.633 1.089 5.535 1.791-.586-1.899-1.164-3.842-2.027-5.668 1.055-1.687 2.076-3.467 3.006-5.297-2.059.204-4.066.489-6.02.849-1.365-1.483-2.988-2.709-4.504-3.981-.051 2.029-.133 3.933-.379 5.816-1.689.98-3.398 2.025-5.072 3.093 1.625.467 3.168 1.129 4.857 1.794.02 1.806.006 3.52-.115 5.18 1.624-1.175 3.172-2.354 4.719-3.577zM105.225 43.9c-.785-1.877-1.48-3.747-2.502-5.479-.77 1.795-1.703 3.515-2.756 5.144-1.967.2-3.924.439-5.869.714 1.193 1.118 2.602 2.292 3.654 3.642-.699 1.647-1.313 3.186-2.24 4.665 1.939-.397 3.875-.832 5.809-1.307 1.443 1.19 2.898 2.497 4.354 3.922.152-1.966.451-3.979.469-6 1.635-1.096 3.256-2.287 4.857-3.57-1.897-.678-3.788-1.263-5.776-1.731z"/></g><path d="M35.422 32.114v2.001c0 .391.024.636.072.737.048.101.133.181.256.242.123.06.347.09.673.09v.197h-3.666v-.197c.333 0 .56-.031.678-.093.119-.062.203-.143.25-.242.048-.099.072-.344.072-.734v-4.683c0-.391-.024-.636-.072-.737-.047-.101-.132-.182-.253-.242-.12-.06-.346-.09-.675-.09v-.197h3.145c1.036 0 1.78.185 2.229.554.452.369.677.83.677 1.384 0 .468-.146.869-.438 1.203-.29.333-.691.561-1.203.681-.344.083-.926.126-1.745.126zm0-3.534v3.119l.267.01c.433 0 .767-.128 1.001-.386.233-.257.352-.655.352-1.195 0-.536-.118-.928-.352-1.176-.234-.249-.583-.373-1.049-.373h-.219zM42.032 32.093v2.022c0 .391.024.636.071.737.048.101.133.181.253.242.12.06.346.09.676.09v.197h-3.693v-.197c.334 0 .561-.031.679-.093.119-.062.202-.143.25-.242.048-.099.072-.344.072-.734v-4.683c0-.391-.024-.636-.072-.737s-.132-.182-.253-.242c-.12-.06-.346-.09-.676-.09v-.197h3.353c.874 0 1.512.061 1.917.181.404.121.733.344.989.667.256.325.383.706.383 1.142 0 .533-.191.973-.574 1.321-.245.22-.587.384-1.027.494l1.735 2.443c.226.316.388.513.484.591.146.11.313.17.505.181v.197h-2.272l-2.326-3.289h-.474zm0-3.54v3.162h.304c.493 0 .862-.045 1.106-.136.245-.091.438-.253.577-.49s.211-.544.211-.923c0-.55-.13-.957-.386-1.219-.258-.263-.673-.395-1.243-.395h-.569zM51.218 28.064c1.149-.042 2.084.292 2.803 1.006.718.713 1.078 1.605 1.078 2.677 0 .916-.269 1.721-.805 2.416-.708.923-1.711 1.384-3.007 1.384-1.299 0-2.302-.44-3.013-1.32-.56-.695-.84-1.521-.84-2.475 0-1.072.364-1.965 1.093-2.68.73-.715 1.627-1.051 2.691-1.008zm.064.341c-.659 0-1.162.337-1.507 1.011-.28.554-.421 1.348-.421 2.384 0 1.232.218 2.142.65 2.73.302.412.725.617 1.267.617.364 0 .671-.088.915-.266.312-.227.556-.59.729-1.089.174-.498.261-1.148.261-1.95 0-.955-.089-1.668-.266-2.142-.179-.474-.404-.809-.679-1.004-.275-.194-.591-.291-.949-.291zM63.246 28.165v.197c-.263.042-.497.183-.702.42-.149.177-.372.594-.666 1.25l-2.484 5.514h-.176l-2.475-5.737c-.3-.691-.499-1.098-.599-1.219-.102-.121-.293-.197-.573-.229v-.197h3.46v.197h-.118c-.312 0-.523.039-.638.117-.082.053-.122.131-.122.234l.043.226c.027.087.123.32.286.7l1.539 3.592 1.427-3.198c.169-.387.274-.646.313-.777s.058-.243.058-.336c0-.106-.027-.2-.085-.281-.057-.082-.14-.144-.25-.187-.152-.06-.355-.09-.606-.09v-.197h2.368zM66.327 28.58v2.938h.143c.458 0 .79-.144.995-.431.207-.287.338-.711.395-1.272h.203v3.779h-.203c-.042-.412-.132-.749-.269-1.011-.137-.263-.295-.439-.477-.53-.182-.09-.443-.136-.787-.136v2.033c0 .397.016.641.05.729.034.088.098.161.189.218.092.057.241.085.447.085h.432c.673 0 1.214-.156 1.62-.468.406-.313.698-.788.875-1.427h.197l-.324 2.294h-6.238v-.197h.239c.21 0 .379-.038.507-.112.092-.05.162-.135.212-.256.039-.084.059-.308.059-.67v-4.746c0-.326-.009-.527-.026-.602-.036-.124-.101-.22-.197-.287-.134-.1-.319-.149-.554-.149h-.239v-.197h6.041v2.134h-.202c-.104-.521-.247-.896-.435-1.123-.186-.227-.449-.394-.79-.5-.198-.063-.571-.096-1.118-.096h-.745zM73.341 28.165l3.562 4.476v-3.103c0-.433-.063-.725-.187-.878-.17-.206-.456-.305-.857-.298v-.197h2.385v.197c-.306.039-.51.089-.614.151-.104.063-.187.163-.244.303-.06.14-.089.381-.089.721v6.009h-.181l-4.881-6.009v4.587c0 .416.096.696.286.841.188.146.405.219.651.219h.169v.197h-2.559v-.197c.396-.004.674-.085.829-.245.156-.16.234-.431.234-.814v-5.093l-.153-.192c-.154-.191-.287-.317-.405-.377-.116-.06-.285-.094-.505-.101v-.197h2.559zM40.855 37.255v2.232h-.219c-.13-.515-.274-.885-.432-1.11-.158-.225-.376-.405-.65-.538-.155-.073-.425-.109-.81-.109h-.614v6.362c0 .422.024.686.071.791.046.105.136.198.272.277.137.08.321.119.557.119h.273v.225h-4.318v-.225h.274c.239 0 .432-.042.578-.128.105-.057.188-.154.248-.292.045-.097.067-.353.067-.766v-6.362h-.596c-.556 0-.959.118-1.211.353-.353.328-.576.797-.668 1.405h-.231v-2.232h7.409zM44.614 41.744v2.312c0 .446.026.727.082.842.055.115.151.208.288.276.139.069.397.104.772.104v.225h-4.221v-.225c.381 0 .641-.035.775-.106.137-.071.231-.163.286-.277.055-.113.083-.393.083-.839v-5.353c0-.446-.028-.727-.083-.842-.055-.116-.15-.208-.289-.277-.138-.068-.395-.103-.772-.103v-.225h3.832c.998 0 1.728.069 2.189.207.463.138.84.392 1.132.764.293.371.438.806.438 1.305 0 .608-.219 1.111-.657 1.509-.279.251-.671.439-1.173.565l1.982 2.792c.26.361.444.586.554.675.166.126.359.194.577.207v.225h-2.597l-2.657-3.759h-.541zm0-4.045v3.613h.347c.563 0 .985-.052 1.265-.155.281-.104.5-.29.66-.561.161-.27.241-.621.241-1.055 0-.628-.148-1.092-.442-1.393-.293-.3-.767-.45-1.419-.45h-.652zM55.484 43.155h-2.914l-.347.803c-.114.267-.171.488-.171.663 0 .231.094.402.28.511.109.065.379.114.809.146v.225h-2.743v-.225c.296-.044.539-.167.73-.368.19-.201.426-.615.704-1.244l2.95-6.582h.116l2.974 6.764c.285.641.519 1.044.699 1.21.139.125.333.198.584.219v.225h-3.989v-.225h.165c.319 0 .545-.044.674-.134.089-.064.135-.158.135-.28l-.037-.225-.182-.456-.437-1.027zm-.208-.45l-1.229-2.84-1.265 2.84h2.494zM67.61 37.066v2.859h-.236c-.18-.746-.511-1.318-.998-1.715s-1.038-.596-1.654-.596c-.516 0-.987.147-1.417.444-.43.296-.745.683-.943 1.162-.255.612-.384 1.293-.384 2.043 0 .738.094 1.41.281 2.017.186.606.478 1.064.875 1.375s.913.465 1.545.465c.52 0 .995-.114 1.426-.341.432-.228.888-.619 1.366-1.174v.712c-.463.483-.944.832-1.444 1.049-.502.217-1.086.326-1.754.326-.881 0-1.663-.176-2.346-.529-.684-.353-1.211-.86-1.581-1.521-.371-.661-.557-1.364-.557-2.11 0-.786.206-1.533.617-2.238.411-.706.967-1.253 1.666-1.643.7-.389 1.442-.584 2.229-.584.58 0 1.193.126 1.838.378.374.146.611.219.712.219.129 0 .242-.047.338-.143.095-.095.156-.246.186-.454h.235zM73.48 40.412l2.901 3.631c.409.511.762.858 1.058 1.04.214.13.441.195.682.195v.225h-4.293v-.225c.271-.024.446-.067.524-.128.079-.061.119-.136.119-.225 0-.17-.187-.491-.56-.961l-1.892-2.378-.305.255v2.25c0 .43.025.698.074.803.048.105.142.196.278.271.139.075.359.112.663.112v.225h-4.159v-.225h.273c.239 0 .432-.042.578-.128.105-.057.187-.154.243-.292.044-.097.066-.353.066-.766v-5.425c0-.421-.022-.685-.066-.791-.045-.105-.135-.197-.271-.276-.136-.079-.318-.119-.55-.119h-.273v-.225h4.105v.225c-.28 0-.493.041-.639.122-.106.057-.188.152-.249.286-.049.101-.074.361-.074.778v2.567l3.06-2.476c.426-.345.639-.621.639-.827 0-.154-.088-.276-.261-.365-.089-.045-.311-.073-.663-.085v-.225h3.217v.225c-.288.021-.513.072-.679.155-.163.083-.542.364-1.134.842l-2.412 1.935zM36.248 52.569v1.877c0 .363.022.591.066.684.045.094.122.169.235.225.111.057.321.084.628.084v.183h-3.43v-.182c.309 0 .52-.028.63-.086.109-.058.188-.133.232-.225.044-.092.066-.319.066-.682v-4.349c0-.362-.022-.591-.066-.684-.045-.094-.123-.169-.235-.226-.111-.056-.321-.083-.627-.083v-.183h3.112c.811 0 1.404.056 1.779.168.375.112.683.318.92.621.237.301.355.655.355 1.06 0 .494-.178.902-.534 1.225-.227.205-.545.358-.954.46l1.611 2.268c.211.292.361.476.45.548.136.103.292.159.469.168v.183h-2.109l-2.159-3.054h-.439zm0-3.286v2.936h.281c.459 0 .801-.042 1.027-.126.228-.084.407-.236.536-.455.132-.22.195-.505.195-.858 0-.51-.119-.888-.357-1.131-.239-.244-.624-.366-1.154-.366h-.528zM43.626 49.307v2.728h.134c.426 0 .733-.133.923-.4.191-.267.314-.66.367-1.181h.188v3.509h-.188c-.04-.383-.123-.695-.25-.939s-.274-.407-.441-.491c-.169-.084-.413-.126-.732-.126v1.888c0 .369.017.595.047.677.031.083.09.15.176.202.086.053.225.08.416.08h.399c.626 0 1.127-.145 1.505-.435.378-.291.648-.732.813-1.325h.183l-.302 2.13h-5.792v-.184h.222c.194 0 .352-.035.47-.103.086-.046.151-.126.198-.238.036-.079.055-.286.055-.623v-4.408c0-.303-.009-.489-.024-.558-.034-.115-.095-.205-.184-.267-.126-.093-.297-.139-.515-.139h-.222v-.183h5.608v1.982h-.188c-.095-.484-.229-.832-.402-1.043-.173-.211-.417-.366-.734-.464-.185-.059-.53-.089-1.037-.089h-.693zM54.375 48.769v2.323h-.193c-.145-.606-.415-1.07-.811-1.394-.395-.322-.843-.484-1.345-.484-.418 0-.801.12-1.149.361-.351.24-.605.555-.767.944-.208.498-.312 1.051-.312 1.661 0 .599.075 1.146.228 1.638.15.493.389.865.711 1.117.323.251.741.378 1.255.378.422 0 .808-.092 1.159-.277.351-.184.721-.502 1.109-.953v.578c-.375.392-.767.676-1.174.852-.406.177-.882.265-1.425.265-.716 0-1.351-.143-1.905-.431-.556-.287-.984-.698-1.286-1.235-.3-.536-.451-1.108-.451-1.714 0-.64.167-1.246.502-1.819.333-.574.785-1.018 1.354-1.334.568-.317 1.172-.475 1.811-.475.472 0 .969.103 1.493.307.303.119.495.178.578.178.105 0 .196-.039.274-.116.077-.077.127-.2.15-.368h.194zM58.837 48.828c1.068-.04 1.936.271 2.602.934.668.662 1.001 1.491 1.001 2.485 0 .85-.248 1.598-.745 2.244-.66.856-1.59 1.285-2.793 1.285-1.206 0-2.138-.409-2.797-1.226-.521-.646-.782-1.412-.782-2.298 0-.995.339-1.825 1.017-2.488.676-.663 1.509-.975 2.497-.936zm.059.317c-.613 0-1.079.313-1.398.938-.26.514-.391 1.252-.391 2.214 0 1.144.201 1.987.604 2.535.279.382.672.572 1.177.572.338 0 .622-.082.848-.246.291-.21.517-.548.678-1.011.162-.463.242-1.066.242-1.811 0-.886-.081-1.549-.247-1.989-.164-.44-.375-.75-.629-.931-.257-.181-.551-.271-.884-.271zM65.489 52.569v1.877c0 .363.022.591.066.684.045.094.123.169.235.225.111.057.321.084.627.084v.183h-3.429v-.182c.31 0 .52-.028.63-.086.11-.058.188-.133.232-.225.044-.092.066-.319.066-.682v-4.349c0-.362-.022-.591-.066-.684-.045-.094-.122-.169-.235-.226-.111-.056-.321-.083-.627-.083v-.183h3.112c.811 0 1.403.056 1.779.168.376.112.683.318.92.621.237.301.355.655.355 1.06 0 .494-.178.902-.534 1.225-.227.205-.545.358-.954.46l1.611 2.268c.211.292.36.476.45.548.135.103.291.159.47.168v.183h-2.111l-2.158-3.054h-.439zm0-3.286v2.936h.281c.458 0 .801-.042 1.028-.126.227-.084.405-.236.536-.455.13-.22.195-.505.195-.858 0-.51-.12-.888-.358-1.131-.24-.244-.624-.366-1.153-.366h-.529zM70.242 55.623v-.183h.223c.194 0 .344-.029.446-.091.104-.061.181-.144.23-.25.03-.069.044-.277.044-.623v-4.408c0-.342-.018-.556-.054-.643-.036-.085-.109-.16-.221-.225-.11-.064-.259-.096-.446-.096h-.223v-.183h2.999c.801 0 1.445.109 1.933.326.598.267 1.05.67 1.356 1.211.309.541.462 1.151.462 1.833 0 .472-.076.906-.227 1.303-.151.396-.348.724-.589.983-.24.259-.518.467-.832.623-.314.157-.699.277-1.154.363-.2.041-.517.06-.949.06h-2.998zm2.555-6.321v5.228c0 .277.014.447.04.509.026.063.071.111.133.144.09.049.218.075.386.075.551 0 .97-.188 1.261-.563.395-.508.593-1.295.593-2.363 0-.86-.136-1.547-.405-2.061-.215-.402-.489-.675-.824-.82-.24-.102-.633-.152-1.184-.149zM40.654 57.811l.075 3.094h-.28c-.132-.775-.457-1.398-.975-1.873-.518-.471-1.078-.707-1.681-.707-.465 0-.833.125-1.104.373-.272.248-.408.535-.408.859 0 .205.048.387.144.547.132.215.345.426.637.635.215.15.709.418 1.485.803 1.085.533 1.817 1.037 2.196 1.512.373.475.561 1.018.561 1.627 0 .775-.303 1.443-.906 2.004-.605.557-1.372.838-2.304.838-.291 0-.566-.031-.827-.09-.26-.059-.586-.172-.979-.336-.219-.092-.399-.137-.54-.137-.118 0-.245.045-.377.137s-.239.23-.32.418h-.254v-3.502h.254c.2.984.587 1.736 1.159 2.254.571.518 1.188.775 1.851.775.511 0 .918-.139 1.222-.416.303-.279.454-.604.454-.973 0-.219-.058-.432-.174-.637-.117-.205-.293-.398-.53-.584s-.658-.426-1.259-.723c-.844-.414-1.451-.77-1.821-1.061-.369-.293-.652-.617-.851-.979-.198-.359-.298-.756-.298-1.189 0-.738.271-1.369.813-1.889s1.228-.781 2.053-.781c.302 0 .594.037.877.109.213.055.475.156.782.305s.524.223.647.223c.118 0 .212-.037.28-.109s.133-.248.191-.527h.207zM46.998 67.049v.252h-4.852v-.252h.308c.27 0 .485-.049.651-.145.118-.063.209-.172.272-.328.05-.109.076-.396.076-.861v-6.104c0-.475-.026-.771-.076-.891-.051-.119-.151-.221-.304-.311s-.359-.135-.62-.135h-.308v-.252h4.852v.252h-.307c-.27 0-.485.049-.65.145-.119.064-.212.174-.281.328-.05.109-.075.396-.075.863v6.104c0 .473.026.77.078.889.055.119.156.223.309.311.153.09.36.135.62.135h.307zM50.809 58.023l4.578 5.754v-3.988c0-.557-.08-.934-.239-1.129-.22-.266-.586-.393-1.103-.385v-.252h3.066v.252c-.394.051-.655.117-.791.195-.134.08-.239.211-.314.391s-.113.49-.113.928v7.725h-.233l-6.274-7.725v5.896c0 .535.122.895.366 1.082s.523.281.838.281h.219v.252h-3.29v-.252c.51-.006.865-.109 1.066-.314.202-.207.302-.555.302-1.049v-6.547l-.198-.246c-.196-.248-.37-.408-.521-.486s-.368-.121-.649-.131v-.252h3.29zM66.794 57.811v3.217h-.268c-.2-.84-.575-1.482-1.122-1.93s-1.168-.672-1.86-.672c-.58 0-1.111.168-1.595.502-.484.332-.837.768-1.062 1.305-.287.689-.431 1.457-.431 2.301 0 .828.104 1.586.315 2.268.21.682.538 1.197.985 1.547.446.348 1.025.523 1.738.523.584 0 1.118-.127 1.604-.383.486-.258.998-.697 1.536-1.322v.803c-.52.541-1.063.936-1.625 1.178-.563.244-1.222.367-1.974.367-.99 0-1.87-.199-2.638-.596-.769-.396-1.362-.967-1.779-1.711-.417-.742-.627-1.533-.627-2.373 0-.885.231-1.725.695-2.518.462-.795 1.088-1.41 1.875-1.848.787-.439 1.623-.658 2.508-.658.652 0 1.341.143 2.066.426.419.164.687.246.801.246.145 0 .272-.053.38-.162.106-.107.176-.275.208-.51h.27zM71.377 58.557v3.777h.186c.588 0 1.015-.186 1.279-.555s.433-.914.507-1.635h.26v4.859h-.26c-.055-.531-.17-.963-.346-1.301s-.38-.564-.613-.682c-.232-.117-.569-.174-1.013-.174v2.613c0 .512.023.824.065.938.043.115.124.207.242.279.119.074.312.111.575.111h.555c.866 0 1.562-.201 2.084-.604.521-.4.896-1.012 1.125-1.832h.254l-.418 2.947h-8.02v-.252h.309c.269 0 .485-.049.65-.145.118-.063.209-.172.273-.328.05-.109.075-.396.075-.861v-6.104c0-.422-.012-.678-.035-.773-.045-.16-.13-.283-.253-.369-.173-.129-.409-.193-.711-.193h-.307v-.252h7.767v2.744h-.26c-.133-.67-.318-1.152-.559-1.443-.239-.293-.577-.506-1.016-.645-.255-.082-.734-.123-1.437-.123h-.958zM43.171 83.652h-8.189v-.227c2.511-2.99 4.034-5.002 4.573-6.035.537-1.033.805-2.043.805-3.027 0-.719-.222-1.314-.667-1.791s-.989-.713-1.632-.713c-1.054 0-1.872.525-2.453 1.58l-.381-.135c.371-1.313.932-2.285 1.685-2.914s1.621-.945 2.606-.945c.704 0 1.349.166 1.931.494.581.328 1.036.777 1.364 1.35.328.57.493 1.107.493 1.607 0 .908-.254 1.832-.761 2.77-.69 1.268-2.199 3.031-4.525 5.297h3.007c.739 0 1.221-.031 1.442-.092.222-.063.405-.168.549-.314s.332-.457.565-.928h.369l-.781 4.023zM54.719 76.693c0 1.389-.195 2.686-.585 3.889-.233.738-.546 1.346-.939 1.816-.395.473-.84.848-1.34 1.125-.499.275-1.044.416-1.632.416-.672 0-1.275-.172-1.816-.514-.54-.342-1.021-.832-1.438-1.469-.301-.463-.563-1.084-.79-1.857-.294-1.047-.441-2.127-.441-3.242 0-1.512.212-2.902.637-4.168.349-1.047.879-1.848 1.591-2.406.711-.559 1.464-.838 2.258-.838.807 0 1.562.277 2.263.826.701.553 1.217 1.293 1.546 2.223.456 1.281.686 2.678.686 4.199zm-3.162-.021c0-2.436-.013-3.855-.041-4.26-.068-.949-.232-1.594-.492-1.93-.172-.219-.447-.328-.831-.328-.295 0-.527.082-.698.246-.254.24-.424.662-.513 1.268-.09.607-.134 2.719-.134 6.34 0 1.969.067 3.291.204 3.961.104.486.25.811.442.975.191.164.443.246.759.246.343 0 .599-.109.771-.328.288-.383.451-.975.492-1.775l.041-4.415zM65.229 76.693c0 1.389-.195 2.686-.585 3.889-.232.738-.546 1.346-.938 1.816-.394.473-.84.848-1.341 1.125-.499.275-1.043.416-1.631.416-.671 0-1.275-.172-1.817-.514-.54-.342-1.02-.832-1.437-1.469-.301-.463-.563-1.084-.789-1.857-.296-1.047-.443-2.127-.443-3.242 0-1.512.214-2.902.639-4.168.349-1.047.878-1.848 1.59-2.406.711-.559 1.464-.838 2.258-.838.807 0 1.563.277 2.263.826.702.553 1.216 1.293 1.546 2.223.457 1.281.685 2.678.685 4.199zm-3.162-.021c0-2.436-.014-3.855-.041-4.26-.068-.949-.231-1.594-.492-1.93-.171-.219-.448-.328-.832-.328-.294 0-.526.082-.697.246-.253.24-.425.662-.514 1.268-.089.607-.133 2.719-.133 6.34 0 1.969.067 3.291.205 3.961.104.486.249.811.441.975.191.164.444.246.759.246.343 0 .6-.109.771-.328.287-.383.452-.975.492-1.775l.041-4.415zM75.739 76.693c0 1.389-.195 2.686-.585 3.889-.233.738-.546 1.346-.938 1.816-.396.473-.841.848-1.341 1.125-.499.275-1.044.416-1.632.416-.672 0-1.275-.172-1.816-.514-.54-.342-1.02-.832-1.438-1.469-.301-.463-.563-1.084-.79-1.857-.294-1.047-.441-2.127-.441-3.242 0-1.512.212-2.902.637-4.168.349-1.047.879-1.848 1.591-2.406.711-.559 1.464-.838 2.258-.838.808 0 1.562.277 2.263.826.701.553 1.217 1.293 1.546 2.223.457 1.281.686 2.678.686 4.199zm-3.162-.021c0-2.436-.014-3.855-.041-4.26-.068-.949-.232-1.594-.491-1.93-.173-.219-.448-.328-.832-.328-.295 0-.527.082-.698.246-.254.24-.424.662-.513 1.268-.09.607-.134 2.719-.134 6.34 0 1.969.067 3.291.205 3.961.103.486.249.811.441.975.191.164.443.246.76.246.342 0 .598-.109.771-.328.287-.383.45-.975.491-1.775l.041-4.415z"/></svg>