<svg xmlns="http://www.w3.org/2000/svg" viewBox="0 0 266 163"><path fill="#E6E6E5" d="M.234 60.563h102.162v102.162h-102.162zM102.396 162.725l21.143-14.161-96.641-98.788-26.664 10.787z"/><path fill="#2A3052" d="M25.085 46.756h102.162v102.162h-102.162z"/><path fill="#fff" d="M55.842 65.969c0 5.614-4.555 10.162-10.164 10.162-5.612 0-10.163-4.547-10.163-10.162 0-5.612 4.551-10.162 10.163-10.162 5.609 0 10.164 4.549 10.164 10.162zM116.817 65.969c0 5.614-4.555 10.162-10.163 10.162-5.613 0-10.164-4.547-10.164-10.162 0-5.612 4.551-10.162 10.164-10.162 5.609 0 10.163 4.549 10.163 10.162zM55.842 129.705c0 5.615-4.555 10.162-10.164 10.162-5.612 0-10.163-4.547-10.163-10.162 0-5.611 4.551-10.162 10.163-10.162 5.609 0 10.164 4.551 10.164 10.162zM116.817 129.705c0 5.615-4.555 10.162-10.163 10.162-5.613 0-10.164-4.547-10.164-10.162 0-5.611 4.551-10.162 10.164-10.162 5.609 0 10.163 4.551 10.163 10.162zM85.618 97.781c0 5.613-4.552 10.162-10.164 10.162-5.608 0-10.164-4.549-10.164-10.162s4.556-10.162 10.164-10.162c5.612 0 10.164 4.549 10.164 10.162z"/><path fill="#E6E6E5" d="M138.752 14.083h102.163v102.163h-102.163zM240.915 116.244l21.142-14.16-96.641-98.788-26.664 10.787z"/><path fill="#2A3052" d="M163.603.276h102.163v102.164h-102.163z"/><path fill="#fff" d="M194.36 19.489c0 5.614-4.556 10.162-10.164 10.162-5.612 0-10.164-4.548-10.164-10.162 0-5.612 4.552-10.162 10.164-10.162 5.609 0 10.164 4.55 10.164 10.162zM255.336 83.227c0 5.613-4.556 10.162-10.163 10.162-5.613 0-10.165-4.549-10.165-10.162s4.552-10.163 10.165-10.163c5.607 0 10.163 4.55 10.163 10.163zM224.136 51.301c0 5.614-4.551 10.162-10.163 10.162-5.609 0-10.164-4.548-10.164-10.162 0-5.612 4.555-10.162 10.164-10.162 5.612 0 10.163 4.55 10.163 10.162z"/></svg>