<svg xmlns="http://www.w3.org/2000/svg" viewBox="0 0 273 177"><path fill="#E6E6E5" d="M136.351.393c-75.037 0-135.864 60.829-135.864 135.865 0 13.825 2.07 27.165 5.908 39.733l2.319-2.316 2.271-2.272c-3.147-11.298-4.778-23.096-4.778-35.145 0-34.763 13.538-67.445 38.119-92.025 24.581-24.583 57.262-38.12 92.025-38.12s67.444 13.537 92.026 38.119c24.58 24.58 38.117 57.263 38.117 92.025 0 12.379-1.725 24.49-5.045 36.069l2.266 2.266 2.313 2.313c4.019-12.834 6.188-26.488 6.188-40.647-.001-75.036-60.829-135.865-135.865-135.865zM42.974 139.116h-16.803v-5.719h16.803v5.719zM246.532 139.116h-16.804v-5.719h16.804v5.719zM54.422 91.369l-14.484-8.521 2.902-4.932 14.483 8.522-2.901 4.931zM87.488 56.633l-8.345-14.584 4.964-2.841 8.346 14.584-4.965 2.841zM139.412 42.887l-5.721-.013.037-16.804 5.72.013-.036 16.804zM186.412 57.381l-4.922-2.916 8.566-14.457 4.921 2.917-8.565 14.456zM218.769 92.269l-2.848-4.962 14.574-8.363 2.848 4.962-14.574 8.363zM36.222 127.853l-9.296-.715.053-.713 9.297.715-.054.713zM37.292 118.912l-9.183-1.613.124-.705 9.183 1.614-.124.704zM39.277 110.657l-8.941-2.64.202-.686 8.942 2.641-.203.685zM42.242 102.352l-8.819-3.024.231-.677 8.821 3.025-.233.676zM45.63 94.252l-8.658-3.461.265-.664 8.659 3.461-.266.664zM235.404 129.045l-.054-.713 9.296-.716.054.714-9.296.715zM234.334 120.104l-.124-.705 9.183-1.613.124.704-9.183 1.614zM232.348 111.849l-.202-.686 8.942-2.641.202.687-8.942 2.64zM229.385 103.544l-.233-.678 8.821-3.022.231.677-8.819 3.023zM225.996 95.444l-.266-.664 8.659-3.462.265.664-8.658 3.462zM54.33 79.508l-7.691-5.271.405-.591 7.691 5.271-.405.591zM59.731 72.303l-7.142-5.992.459-.548 7.142 5.992-.459.548zM65.581 66.147l-6.421-6.759.519-.492 6.421 6.759-.519.492zM72.302 60.439l-6.124-7.03.539-.47 6.125 7.031-.54.469zM79.289 55.12l-5.766-7.326.562-.443 5.766 7.328-.562.441zM217.837 80.342l-.405-.59 7.69-5.27.405.589-7.69 5.271zM212.436 73.136l-.459-.547 7.143-5.992.459.548-7.143 5.991zM206.586 66.981l-.518-.492 6.422-6.76.518.493-6.422 6.759zM199.865 61.273l-.539-.469 6.124-7.032.539.469-6.124 7.032zM192.879 55.955l-.562-.442 5.765-7.327.563.441-5.766 7.328zM93.717 46.714l-3.593-8.604.66-.274 3.593 8.602-.66.276zM101.45 43.331l-2.74-8.912.685-.21 2.739 8.912-.684.21zM109.795 40.628l-1.718-9.165.703-.132 1.718 9.165-.703.132zM118.539 39.219l-1.32-9.229.707-.101 1.32 9.229-.707.101zM127.294 38.192l-.859-9.284.711-.065.86 9.284-.712.065zM178.733 47.25l-.66-.275 3.593-8.604.66.275-3.593 8.604zM171 43.866l-.684-.209 2.74-8.912.684.211-2.74 8.91zM162.655 41.164l-.703-.132 1.718-9.164.703.132-1.718 9.164zM154.269 39.13l-.707-.102 1.32-9.229.707.101-1.32 9.23zM145.156 38.104l-.712-.067.859-9.283.713.065-.86 9.285z"/><g fill="#E6E6E5"><path d="M51.626 138.314v.033l.527-.017.528-.017c.263 0 .729-.014 1.398-.042l.805-.034-.493 2.992h-8.925c.34-.402 1.209-1.364 2.605-2.883l1.836-1.995.678-.778c1.347-1.548 2.021-2.883 2.021-4.006 0-.402-.235-.603-.705-.603-.419 0-.742.382-.972 1.147-.083.279-.125.578-.125.896h-3.402c0-.665.184-1.362.553-2.095.62-1.224 1.556-2.069 2.808-2.539.58-.218 1.162-.327 1.743-.327 1.391 0 2.404.536 3.041 1.609.318.536.479 1.195.479 1.978-.001 2.108-1.467 4.335-4.4 6.681zM62.1 131.275l-.503 1.509c.186-.034.363-.051.537-.051 1.262 0 2.209.536 2.841 1.608.302.515.452 1.099.452 1.752 0 1.503-.598 2.776-1.793 3.82-1.162 1.018-2.498 1.526-4.006 1.526-1.201 0-2.329-.342-3.386-1.023l.896-3.051c.71.476 1.364.771 1.962.89.2.038.422.059.661.059.257 0 .47-.03.638-.093.094-.021.215-.067.359-.134.721-.335 1.082-.838 1.082-1.508 0-.431-.235-.749-.705-.956-.352-.156-.771-.234-1.257-.234-.72 0-1.475.15-2.263.453l2.179-7.593h6.471l-.479 3.025h-3.686z"/></g><g fill="#E6E6E5"><path d="M195.356 141.23l1.568-9.955h-1.408l.478-2.983h4.894l-2.045 12.938h-3.487zM203.544 134.124c.323-1.626.888-2.977 1.693-4.056.999-1.347 2.23-2.02 3.694-2.02 1.308 0 2.291.422 2.95 1.266.586.76.88 1.813.88 3.159 0 .883-.104 1.847-.311 2.892-.469 2.374-1.416 4.113-2.84 5.22-.766.593-1.66.889-2.682.889-1.24 0-2.186-.506-2.833-1.518-.553-.859-.829-1.946-.829-3.259.002-.788.093-1.645.278-2.573zm3.142 1.802l-.066 1.014-.008.269c0 .85.248 1.274.745 1.274.653 0 1.173-.833 1.559-2.498.273-1.189.41-2.234.41-3.134v-.411c0-.915-.245-1.374-.736-1.374-.57 0-1.04.69-1.408 2.07-.09.33-.179.749-.268 1.257-.063.279-.139.791-.228 1.533zM213.909 134.124c.324-1.626.889-2.977 1.693-4.056.999-1.347 2.231-2.02 3.695-2.02 1.308 0 2.29.422 2.949 1.266.587.76.88 1.813.88 3.159 0 .883-.104 1.847-.31 2.892-.469 2.374-1.416 4.113-2.841 5.22-.766.593-1.659.889-2.682.889-1.24 0-2.185-.506-2.832-1.518-.554-.859-.83-1.946-.83-3.259.002-.788.094-1.645.278-2.573zm3.143 1.802l-.066 1.014-.009.269c0 .85.249 1.274.745 1.274.654 0 1.174-.833 1.56-2.498.273-1.189.41-2.234.41-3.134v-.411c0-.915-.245-1.374-.737-1.374-.569 0-1.039.69-1.407 2.07-.09.33-.18.749-.269 1.257-.062.279-.137.791-.227 1.533z"/></g><g fill="#E6E6E5"><path d="M93.207 65.131l-.503 1.509c.186-.034.363-.051.537-.051 1.262 0 2.209.536 2.84 1.608.303.515.453 1.099.453 1.752 0 1.503-.598 2.776-1.794 3.82-1.161 1.018-2.497 1.526-4.005 1.526-1.201 0-2.329-.342-3.386-1.023l.896-3.05c.71.475 1.363.771 1.962.889.2.038.421.059.661.059.257 0 .47-.03.638-.093.094-.021.215-.067.359-.134.721-.335 1.082-.838 1.082-1.508 0-.431-.235-.749-.705-.956-.352-.156-.771-.234-1.257-.234-.72 0-1.475.15-2.263.453l2.179-7.593h6.47l-.478 3.025h-3.686zM98.419 67.98c.324-1.627.889-2.978 1.693-4.057 1-1.346 2.231-2.02 3.695-2.02 1.308 0 2.29.421 2.949 1.266.587.76.88 1.813.88 3.159 0 .883-.103 1.847-.31 2.892-.469 2.374-1.416 4.113-2.841 5.22-.766.592-1.659.889-2.682.889-1.24 0-2.185-.506-2.832-1.518-.554-.859-.829-1.946-.829-3.259.002-.787.093-1.645.277-2.572zm3.143 1.801l-.066 1.014-.009.269c0 .85.249 1.274.745 1.274.654 0 1.174-.833 1.56-2.498.273-1.189.41-2.234.41-3.134v-.411c0-.915-.245-1.373-.736-1.373-.57 0-1.04.689-1.408 2.069-.09.33-.179.749-.269 1.257-.062.279-.138.791-.227 1.533z"/></g><g fill="#E6E6E5"><path d="M164.302 75.086l6.368-9.955h-4.391l.478-2.983h9.218l-7.91 12.938h-3.763zM180.801 65.131l-.502 1.509c.185-.034.362-.051.536-.051 1.263 0 2.21.536 2.841 1.608.302.515.453 1.099.453 1.752 0 1.503-.599 2.776-1.794 3.82-1.162 1.018-2.497 1.526-4.006 1.526-1.201 0-2.329-.342-3.385-1.023l.896-3.05c.709.475 1.363.771 1.961.889.201.038.422.059.662.059.257 0 .47-.03.637-.093.095-.021.215-.067.359-.134.722-.335 1.082-.838 1.082-1.508 0-.431-.235-.749-.704-.956-.353-.156-.771-.234-1.258-.234-.72 0-1.474.15-2.262.453l2.179-7.593h6.47l-.479 3.025h-3.686z"/></g><path fill="#E6E6E5" d="M136.181 123.027c7.787 0 14.122 6.336 14.122 14.123s-6.335 14.122-14.122 14.122-14.123-6.335-14.123-14.122 6.336-14.123 14.123-14.123m0-3.575c-9.774 0-17.698 7.923-17.698 17.698 0 9.774 7.924 17.697 17.698 17.697s17.698-7.923 17.698-17.697c0-9.775-7.924-17.698-17.698-17.698zM143.092 135.898l-6.793-90.814-6.793 90.814.188.045c-.119.502-.188 1.025-.188 1.563 0 3.753 3.042 6.794 6.793 6.794 3.752 0 6.793-3.041 6.793-6.794 0-.538-.068-1.062-.188-1.563l.188-.045z"/><linearGradient id="a" gradientUnits="userSpaceOnUse" x1="27.309" y1="80.272" x2="245.764" y2="80.272"><stop offset="0" stop-color="#fff" stop-opacity="0"/><stop offset=".368" stop-color="#FBFBFB" stop-opacity=".707"/><stop offset=".521" stop-color="#F3F3F3"/><stop offset="1" stop-color="#E6E6E5"/></linearGradient><path fill="url(#a)" d="M245.764 134.886h-15.731c0-51.554-41.942-93.496-93.496-93.496s-93.497 41.942-93.497 93.496h-15.731c0-60.229 48.999-109.228 109.228-109.228s109.227 48.999 109.227 109.228z"/><g stroke="#E98025" stroke-width="5.721" fill="none"><path d="M26.468 135.959h16.803M230.025 135.959h16.805"/></g><path stroke="#E98025" stroke-width="5.721" fill="none" d="M41.688 80.084l14.482 8.521M81.922 40.33l8.346 14.585M136.886 25.779l-.036 16.803M192.814 41.168l-8.565 14.457M232.217 81.128l-14.574 8.362"/><g stroke="#989898" stroke-width=".715" fill="none"><path d="M27.25 126.484l9.297.715M28.469 116.648l9.182 1.615M30.734 107.376l8.943 2.641M33.836 98.692l8.82 3.025M37.402 90.161l8.659 3.461"/></g><g stroke="#989898" stroke-width=".715" fill="none"><path d="M244.971 127.676l-9.296.715M243.753 117.841l-9.184 1.614M241.486 108.568l-8.941 2.64M238.386 99.885l-8.82 3.023M234.819 91.353l-8.658 3.461"/></g><g stroke="#989898" stroke-width=".715" fill="none"><path d="M47.139 73.645l7.691 5.27M53.116 65.738l7.143 5.992M59.717 58.845l6.421 6.759M66.745 52.876l6.124 7.03M74.102 47.274l5.765 7.328"/></g><g stroke="#989898" stroke-width=".715" fill="none"><path d="M225.623 74.479l-7.69 5.27M219.647 66.573l-7.143 5.991M213.047 59.678l-6.422 6.76M206.018 53.71l-6.125 7.031M198.66 48.108l-5.764 7.328"/></g><g stroke="#989898" stroke-width=".715" fill="none"><path d="M90.752 37.675l3.593 8.603M99.35 34.016l2.74 8.912M108.727 31.101l1.717 9.163M117.87 29.642l1.32 9.229M127.089 28.577l.858 9.284"/></g><g stroke="#989898" stroke-width=".715" fill="none"><path d="M182.294 38.211l-3.593 8.603M173.695 34.553l-2.739 8.912M164.319 31.636l-1.717 9.165M155.532 29.552l-1.319 9.229M145.957 28.488l-.859 9.284"/></g><text transform="translate(45.127 140.933)" fill="#010101" font-family="'FuturaExtraBoldIta'" font-size="17.162">25</text><text transform="translate(191.725 140.933)" fill="#010101" font-family="'FuturaExtraBoldIta'" font-size="17.162">100</text><text transform="translate(86.6 74.788)" fill="#010101" font-family="'FuturaExtraBoldIta'" font-size="17.162">50</text><text transform="translate(163.828 74.788)" fill="#010101" font-family="'FuturaExtraBoldIta'" font-size="17.162">75</text><path fill="#010101" d="M136.479 122.729c7.787 0 14.122 6.336 14.122 14.123s-6.335 14.122-14.122 14.122c-7.788 0-14.123-6.335-14.123-14.122s6.335-14.123 14.123-14.123m0-3.575c-9.775 0-17.698 7.923-17.698 17.698 0 9.774 7.923 17.697 17.698 17.697 9.774 0 17.697-7.923 17.697-17.697 0-9.775-7.923-17.698-17.697-17.698z"/><path fill="#E98025" d="M143.39 135.601l-6.793-90.814-6.794 90.814.189.045c-.119.502-.189 1.025-.189 1.563 0 3.753 3.043 6.794 6.794 6.794 3.752 0 6.793-3.041 6.793-6.794 0-.538-.069-1.062-.188-1.563l.188-.045z"/><path fill="#2A3052" d="M136.648.095c-75.036 0-135.863 60.829-135.863 135.865 0 13.825 2.07 27.166 5.908 39.734l2.318-2.317 2.271-2.272c-3.147-11.298-4.778-23.096-4.778-35.145 0-34.763 13.538-67.445 38.119-92.025 24.581-24.582 57.262-38.118 92.024-38.118s67.444 13.536 92.025 38.118c24.581 24.58 38.118 57.263 38.118 92.025 0 12.379-1.726 24.49-5.046 36.069l2.267 2.266 2.312 2.313c4.02-12.834 6.188-26.488 6.188-40.647.002-75.037-60.826-135.866-135.863-135.866z"/></svg>