<svg xmlns="http://www.w3.org/2000/svg" viewBox="0 0 266 163"><path fill="#E6E6E5" d="M.234 60.563h102.162v102.162H.234zm102.162 102.162l21.143-14.16-96.642-98.79L.234 60.564z"/><path fill="#2A3052" d="M25.085 46.756h102.162v102.162H25.085z"/><path fill="#fff" d="M55.842 65.97c0 5.613-4.555 10.16-10.164 10.16-5.612 0-10.163-4.546-10.163-10.16 0-5.613 4.55-10.163 10.163-10.163 5.61 0 10.164 4.55 10.164 10.162zm60.975 0c0 5.613-4.555 10.16-10.163 10.16-5.613 0-10.164-4.546-10.164-10.16 0-5.613 4.55-10.163 10.164-10.163 5.61 0 10.163 4.55 10.163 10.162zm-60.975 63.735c0 5.615-4.555 10.162-10.164 10.162-5.612 0-10.163-4.547-10.163-10.162 0-5.61 4.55-10.162 10.163-10.162 5.61 0 10.164 4.55 10.164 10.162zm60.975 0c0 5.615-4.555 10.162-10.163 10.162-5.613 0-10.164-4.547-10.164-10.162 0-5.61 4.55-10.162 10.164-10.162 5.61 0 10.163 4.55 10.163 10.162zm-31.2-31.924c0 5.614-4.55 10.163-10.163 10.163-5.608 0-10.164-4.55-10.164-10.162s4.556-10.16 10.164-10.16c5.612 0 10.164 4.548 10.164 10.16z"/><path fill="#E6E6E5" d="M138.752 14.083h102.163v102.163H138.752zm102.163 102.16l21.142-14.16-96.64-98.787-26.665 10.787z"/><path fill="#2A3052" d="M163.603.276h102.163V102.44H163.603z"/><path fill="#fff" d="M194.36 19.49c0 5.613-4.556 10.16-10.164 10.16-5.612 0-10.164-4.547-10.164-10.16s4.552-10.163 10.164-10.163c5.61 0 10.164 4.55 10.164 10.162zm60.976 63.737c0 5.613-4.556 10.162-10.163 10.162-5.613 0-10.165-4.55-10.165-10.163s4.552-10.163 10.165-10.163c5.607 0 10.163 4.55 10.163 10.163zm-31.2-31.926c0 5.615-4.55 10.163-10.163 10.163-5.61 0-10.164-4.548-10.164-10.162 0-5.61 4.554-10.16 10.163-10.16 5.612 0 10.163 4.55 10.163 10.16z"/></svg>