<svg xmlns="http://www.w3.org/2000/svg" viewBox="272.5 0 395 231">
    <path fill="#fff" d="M272.5 56.856h395v174h-395z"/>
    <path fill="#818181" d="M272.5 56.856h395v1h-395v-1m0 173h395v1h-395v-1m0-173h1v174h-1v-174m394 0h1v174h-1v-174"/>
    <text transform="translate(345.5 85.857)" fill="#010101" font-family="Arial" font-size="18" font-weight="bold">
        Stays Between
    </text>
    <text transform="translate(324 120.857)" fill="#010101" font-family="Arial" font-size="16" font-weight="bold">
        GBP
    </text>
    <text transform="translate(363 120.857)" fill="#010101" font-family="Arial" font-size="22" font-weight="bold">
        3
    </text>
    <text transform="translate(375 111.857)" fill="#010101" font-family="Arial" font-size="14" font-weight="bold">
        .97
    </text>
    <path fill="#2F8942" d="M306.5 128.856h98c2.209 0 4 1.791 4 4v26c0 2.207-1.791 4-4 4h-98c-2.207 0-4-1.793-4-4v-26c0-2.209 1.793-4 4-4"/>
    <text transform="translate(317.5 150.857)" fill="#fff" font-family="Arial" font-size="14" font-weight="bold">
        PURCHASE
    </text>
    <path fill="#E4E4E4" d="M273.5 207.856h393v22h-393v-22"/>
    <text transform="translate(366.5 223.857)" fill="#676767" font-family="Arial" font-size="13">
        Net profit: GBP 6.03 | Return: 152%
    </text>
    <path d="M448.5 101.856h209v62h-209z" fill="none"/>
    <text font-family="Arial" font-size="14" transform="translate(448.5 111.908)">
        <tspan>
            GBP
        </tspan>
        <tspan font-weight="bold">
            10
        </tspan>
        <tspan>
            payout if AUD/JPY
        </tspan>
        <tspan font-weight="bold">
            stays
        </tspan>
        <tspan x="0" y="14" font-weight="bold">
            strictly between 91.783
        </tspan>
        <tspan>
            and
        </tspan>
        <tspan x="0" y="28" font-weight="bold">
            94.095
        </tspan>
        <tspan>
            before close (91.783)
        </tspan>
        <tspan x="0" y="42">
            on 31-Mar-14.
        </tspan>
    </text>
    <path d="M291.5 87.719h36v-13.049h-36v13.049zm1.725-6.012h3.855l4.459-6.733 5.252 7.766 5.348-6.886 4.725 5.328h4.186l-3.352-3.352h3.394l4.437 4.436-4.537 4.536h-3.393l3.22-3.22h-5.033l-3.523-3.974-5.604 7.215-5.097-7.534-3.191 4.817h-5.145v-2.399zm-1.725 7.611h36v9.538h-36zm0-26.462h36v10.214h-36z" fill="#29ABE2"/>
    <path stroke="#CAC8BA" d="M380.567 36.144v26.713" fill="none"/>
    <path fill="#FEFDEC" d="M331.567.644h129.766v35h-129.766z"/>
    <path fill="#CAC8BA" d="M460.833 1.144v34h-128.766v-34h128.766m1-1h-130.766v36h130.766v-36z"/>
    <text transform="translate(342.325 22.995)" fill="#010101" font-family="Arial" font-size="14">
        Live trading price
    </text>
</svg>
