<svg xmlns="http://www.w3.org/2000/svg" viewBox="213.813 43.532 520 395"><path fill="#fff" d="M213.814 69.532h520v368h-520z"/><path fill="#E2E2E2" d="M213.814 437.532h520v1h-520v-1"/><path fill="#818181" d="M213.814 436.532h520v1h-520v-1M213.814 175.532h1v262h-1v-262M732.813 175.532h1v262h-1v-262M213.814 69.532h520v1h-520v-1M213.814 69.532h1v343h-1v-343M732.813 69.532h1v343h-1v-343M213.814 69.532h520v1h-520v-1"/><path fill="#F3F3F3" d="M217.814 43.532h53c2.209 0 4 1.791 4 4v22h-61v-22c0-2.209 1.793-4 4-4M280.813 43.532h77c2.209 0 4 1.791 4 4v22h-85v-22c0-2.209 1.793-4 4-4M367.813 43.532h94c2.209 0 4 1.791 4 4v22h-102v-22c0-2.209 1.793-4 4-4"/><path fill="#222C62" d="M471.813 43.532h37c2.209 0 4 1.791 4 4v22h-45v-22c0-2.209 1.793-4 4-4"/><text transform="translate(218.814 62.532)" fill="#010101" font-family="Arial" font-size="13">Rise/Fall</text><text transform="translate(281.814 62.532)" fill="#010101" font-family="Arial" font-size="13">Higher/Lower</text><text transform="translate(368.814 62.532)" fill="#010101" font-family="Arial" font-size="13">Touch/No Touch</text><text transform="translate(472.813 62.532)" fill="#fff" font-family="Arial" font-size="13">In/Out</text><path fill="#fff" d="M297.813 106.532h121v28h-121v-28"/><path fill="#E4E4E4" d="M297.813 106.532h121v1h-121v-1M297.813 133.532h121v1h-121v-1M297.813 106.532h1v28h-1v-28M417.813 106.532h1v28h-1v-28"/><text transform="translate(302.814 126.532)" fill="#010101" font-family="Arial" font-size="18">All</text><text transform="translate(350.814 167.532)" fill="#010101" font-family="Arial" font-size="18">Duration:</text><text transform="translate(381.814 209.532)" fill="#676767" font-family="Arial" font-size="18">Spot:</text><text transform="translate(324.814 250.532)" fill="#010101" font-family="Arial" font-size="18">High barrier:</text><text transform="translate(328.814 288.532)" fill="#010101" font-family="Arial" font-size="18">Low barrier:</text><text transform="translate(362.814 326.532)" fill="#010101" font-family="Arial" font-size="18">Payout:</text><path fill="#fff" d="M441.813 106.532h163v28h-163v-28"/><path fill="#E4E4E4" d="M441.813 106.532h163v1h-163v-1M441.813 133.532h163v1h-163v-1M441.813 106.532h1v28h-1v-28M603.813 106.532h1v28h-1v-28"/><text transform="translate(446.814 126.532)" fill="#010101" font-family="Arial" font-size="18">AUD/JPY</text><path fill="#fff" d="M441.813 149.532h82v28h-82v-28"/><path fill="#E4E4E4" d="M441.813 149.532h82v1h-82v-1M441.813 176.532h82v1h-82v-1M441.813 149.532h1v28h-1v-28M522.813 149.532h1v28h-1v-28"/><text transform="translate(446.814 169.532)" fill="#010101" font-family="Arial" font-size="18">7</text><path fill="#fff" d="M533.813 149.532h68v28h-68v-28"/><path fill="#E4E4E4" d="M533.813 149.532h68v1h-68v-1M533.813 176.532h68v1h-68v-1M533.813 149.532h1v28h-1v-28M600.813 149.532h1v28h-1v-28"/><text transform="translate(538.813 169.532)" fill="#010101" font-family="Arial" font-size="18">days</text><path fill="#010101" d="M611.813 169.532h1v1h-1v-1M638.813 169.532h1v1h-1v-1"/><path stroke="#010101" stroke-miterlimit="2" stroke-dasharray="1,1" stroke-dashoffset="1" fill="none" d="M612.813 170.032h26"/><text transform="translate(611.813 165.532)" fill="#676767" font-family="Arial" font-size="18">min</text><text transform="translate(639.813 165.532)" fill="#676767" font-family="Arial" font-size="18">: 1</text><path fill="#2AAAE2" d="M441.813 190.532h59v23h-59v-23"/><text transform="translate(443.814 208.532)" fill="#fff" font-family="Arial" font-size="18">93.024</text><path fill="#fff" d="M441.813 227.532h114v28h-114v-28"/><path fill="#E4E4E4" d="M441.813 227.532h114v1h-114v-1M441.813 254.532h114v1h-114v-1M441.813 227.532h1v28h-1v-28M554.813 227.532h1v28h-1v-28"/><text transform="translate(446.814 247.532)" fill="#010101" font-family="Arial" font-size="18">94.095</text><path fill="#fff" d="M441.813 265.532h114v28h-114v-28"/><path fill="#E4E4E4" d="M441.813 265.532h114v1h-114v-1M441.813 292.532h114v1h-114v-1M441.813 265.532h1v28h-1v-28M554.813 265.532h1v28h-1v-28"/><text transform="translate(446.814 285.532)" fill="#010101" font-family="Arial" font-size="18">91.783</text><path fill="#fff" d="M441.813 303.532h68v28h-68v-28"/><path fill="#E4E4E4" d="M441.813 303.532h68v1h-68v-1M441.813 330.532h68v1h-68v-1M441.813 303.532h1v28h-1v-28M508.813 303.532h1v28h-1v-28"/><text transform="translate(446.814 323.532)" fill="#010101" font-family="Arial" font-size="18">GBP</text><path fill="#fff" d="M514.813 303.532h106v28h-106v-28"/><path fill="#E4E4E4" d="M514.813 303.532h106v1h-106v-1M514.813 330.532h106v1h-106v-1M514.813 303.532h1v28h-1v-28M619.813 303.532h1v28h-1v-28"/><text transform="translate(519.813 323.532)" fill="#010101" font-family="Arial" font-size="18">10</text><path fill="#2F8942" d="M407.543 359.532h131c2.209 0 4 1.791 4 4v30c0 2.207-1.791 4-4 4h-131c-2.207 0-4-1.793-4-4v-30c0-2.209 1.793-4 4-4"/><text transform="translate(423.085 385.532)" fill="#fff" font-family="Arial" font-size="18">GET PRICES</text><text transform="translate(224.814 86.532)" fill="#E98025" font-family="Arial" font-size="12">Stays Between/Goes Outside</text><text transform="translate(424.814 86.532)" fill="#6F6F6F" font-family="Arial" font-size="12">Ends Between/Outside</text><path fill="#010101" d="M411.863 118.467l-3.55 5.798-3.548-5.799zM597.863 118.467l-3.55 5.798-3.548-5.799zM594.863 161.592l-3.55 5.798-3.548-5.799zM502.863 315.421l-3.55 5.799-3.548-5.799z"/></svg>