<svg xmlns="http://www.w3.org/2000/svg" viewBox="0 0 250 120"><path fill="#F69321" d="M19.188 62.325c1.576 0 3.51-.66 5.74-1.957 3.935-2.29 8.58-8.602 13.07-14.71 4.838-6.573 9.834-13.374 13.903-15.116l-.076-.37c-4.613 0-12.078 7.41-18.667 13.955-6.048 6-11.724 11.584-13.063 9.31-.235-.407-.358-1.055-.358-1.924 0-5.29 1.8-6.824 1.816-6.838l.42-.346H16.76l-.045.14c-.02.068-2.273 7.247-2.273 11.385 0 4.055 1.778 6.475 4.748 6.475m9.048-17.718c.4 0 .785-.078 1.137-.233 1.127-.505 1.836-1.74 1.996-3.482.16-1.707-.227-3.698-1.08-5.62-1.755-3.934-5.11-6.412-7.375-5.403-2.284 1.02-2.7 5.1-.917 9.1 1.48 3.325 4.042 5.635 6.242 5.635m-1.524 20.865C10.484 65.66 9.36 95.58 9.35 95.877l-.005.266 6.796-2 .015-.122c.027-.223 2.928-22.114 13.21-22.114 10.387 0 59.8 36.23 60.29 36.595l.245-.294C87.993 106.46 43.05 65.47 26.72 65.47m9.57-12.024l-.115-.12-3.883 2.863.118.157c.074.1 7.72 10.09 16.39 10.09 7.23 0 10.535-9.103 10.568-9.195l-.354-.158c-.023.05-2.85 5.003-8.515 5.003-5.7-.007-14.12-8.557-14.21-8.637"/><path fill="#EB1A5B" d="M125.01 15.48c-.104-.04-10.812-3.98-24.52-3.98-18.094 0-42.28 6.813-54.745 39.286l.354.16C59.972 23.56 81.09 17.81 96.35 17.81c14.4 0 25.69 5.03 25.8 5.082l.186.08 2.854-7.426-.18-.067z"/><path fill="#00A89C" d="M130.69 31.42c-.16-.102-16.287-9.837-35.863-9.837-20.13 0-36.508 9.882-48.676 29.36l.317.23c12.397-15.945 27.4-24.028 44.596-24.028 19.662 0 35.26 10.9 35.41 11.006l.17.12 4.214-6.75-.166-.1z"/><path fill="#90298D" d="M133.23 48.147c-.19-.173-19.447-17.552-43.974-17.552-15.63 0-30.01 6.93-42.74 20.59l.27.274c12.18-10.643 25.14-16.034 38.525-16.034 24.537 0 42.32 18.34 42.5 18.525l.146.15 5.422-5.82-.147-.133z"/><path fill="#595A5C" d="M67.01 72.23V59.76h2.43v10.3h5.66v2.17zm17.178-1.26c-.876.875-1.945 1.363-3.362 1.363-1.418 0-2.504-.488-3.38-1.364-1.257-1.262-1.224-2.818-1.224-4.972 0-2.155-.033-3.712 1.224-4.975.876-.875 1.962-1.366 3.38-1.366 1.417 0 2.49.49 3.36 1.366 1.26 1.26 1.24 2.82 1.24 4.975.002 2.152.024 3.712-1.236 4.972m-1.806-8.48c-.352-.402-.895-.663-1.56-.663s-1.228.26-1.577.663c-.47.526-.592 1.102-.592 3.5 0 2.4.12 2.98.59 3.502.35.4.91.66 1.58.663s1.207-.263 1.56-.663c.47-.527.612-1.105.612-3.502 0-2.39-.137-2.97-.617-3.5M92.32 61.93v10.3h-2.43v-10.3h-3.26v-2.17h8.95v2.17zm10 0v10.3h-2.43v-10.3h-3.26v-2.17h8.95v2.17zm5.23 10.3V59.76h8.21v2.17h-5.78v2.93h4.92v2.17h-4.92v3.03h5.78v2.17zm17.207 0l-2.433-4.972h-1.75v4.973h-2.434V59.765h4.884c2.538 0 4.04 1.73 4.04 3.82 0 1.75-1.066 2.836-2.275 3.275l2.78 5.374h-2.813zm-1.893-10.296h-2.29v3.29h2.29c1.07 0 1.77-.68 1.77-1.643 0-.96-.704-1.65-1.774-1.65M129.58 59.76h2.44v12.47h-2.44zm5.35 12.47V59.76h8.21v2.17h-5.78v2.93h4.92v2.17h-4.92v3.03h5.78v2.17zm14.014.103c-1.893 0-3.328-.403-4.552-1.644l1.578-1.577c.785.79 1.85 1.05 3.01 1.05 1.437 0 2.21-.544 2.21-1.54 0-.438-.124-.804-.385-1.05-.247-.227-.528-.35-1.104-.44l-1.505-.208c-1.07-.158-1.856-.487-2.415-1.032-.597-.597-.893-1.404-.893-2.453 0-2.224 1.644-3.782 4.34-3.782 1.718 0 2.96.42 4.03 1.453l-1.542 1.526c-.785-.753-1.732-.86-2.557-.86-1.295 0-1.925.72-1.925 1.58 0 .32.1.65.37.896.248.23.65.42 1.15.487l1.474.213c1.138.15 1.85.47 2.38.96.67.63.96 1.54.96 2.642-.003 2.415-2.007 3.775-4.627 3.775m19.05-.1l-.912-1.086c-.58.454-1.438 1.19-3.223 1.19-2.75 0-4.112-1.438-4.112-3.782 0-1.592 1.155-2.626 2.24-3.344-.508-.577-1.24-1.453-1.24-2.644 0-1.698 1.24-2.904 3.32-2.904 1.967 0 3.19 1.24 3.19 2.94 0 .96-.503 1.607-1.273 2.17 0 0-.58.438-.893.65l2.1 2.48c.405-.543.6-1.296.632-2.19h2.153c-.09 1.612-.456 2.89-1.334 3.868l2.24 2.646h-2.89zm-4.78-5.62c-.757.522-1.26 1.014-1.26 1.906 0 1.03.84 1.75 1.89 1.753.733 0 1.274-.23 1.853-.738l-2.483-2.92zm.854-5.007c-.68 0-1.034.438-1.034 1.016 0 .46.39.89.82 1.4.175-.106.522-.352.522-.352.405-.278.72-.613.72-1.05.007-.578-.372-1.018-1.032-1.018m20.68 9.32c-.966.978-2.12 1.413-3.52 1.413-1.33 0-2.45-.453-3.36-1.364-.545-.544-.877-1.173-1.015-1.873-.142-.702-.212-1.732-.212-3.1s.07-2.4.212-3.102c.138-.713.47-1.33 1.015-1.872.91-.906 2.03-1.366 3.36-1.366 2.837 0 4.36 1.82 4.7 3.993h-2.454c-.297-1.208-1.036-1.82-2.242-1.82-.647 0-1.175.228-1.56.664-.452.58-.594 1.032-.594 3.5 0 2.45.1 2.94.59 3.518.37.44.9.65 1.56.647.716 0 1.297-.23 1.736-.7.362-.422.56-.98.56-1.664v-.473h-2.296v-2.03h4.71v1.82c-.002 1.827-.33 2.887-1.19 3.807M195.135 72.23l-.734-2.21h-4.43l-.75 2.21h-2.543l4.535-12.467h1.91l4.553 12.466h-2.54zm-2.905-8.79l-1.578 4.537h3.1l-1.522-4.538zm15.84 8.79v-7.27l-2.38 4.73h-1.65l-2.4-4.73v7.27h-2.43V59.76h2.4l3.26 6.74 3.23-6.74h2.4v12.47zm5.34-12.47h2.44v12.47h-2.44zm12.71 12.47l-4.94-7.65v7.65h-2.43V59.76h2.16l4.94 7.64v-7.64h2.44v12.47zm12.755-1.31c-.966.978-2.12 1.413-3.522 1.413-1.33 0-2.45-.453-3.36-1.364-.54-.544-.875-1.173-1.015-1.873-.138-.702-.21-1.732-.21-3.1s.072-2.4.21-3.102c.14-.713.476-1.33 1.016-1.872.91-.906 2.03-1.366 3.36-1.366 2.837 0 4.36 1.82 4.7 3.993H237.6c-.298-1.208-1.03-1.82-2.243-1.82-.645 0-1.172.228-1.554.664-.458.58-.597 1.032-.597 3.5 0 2.45.1 2.94.6 3.518.364.44.89.65 1.55.647.72 0 1.3-.23 1.737-.7.368-.422.56-.98.56-1.664v-.473h-2.297v-2.03h4.712v1.82c-.004 1.827-.338 2.887-1.188 3.807M100.076 93.618l-.734-2.208h-4.43l-.75 2.208h-2.54l4.532-12.464h1.91l4.552 12.464h-2.54zm-2.903-8.792l-1.577 4.537h3.1l-1.523-4.537zm11.377 8.895c-2.56 0-4.59-1.73-4.59-4.374v-8.19h2.435v8.103c0 1.44.84 2.29 2.15 2.29s2.17-.86 2.17-2.296V81.15h2.416v8.19c.006 2.65-2.02 4.38-4.58 4.38M120.61 83.32v10.3h-2.44v-10.3h-3.25v-2.17h8.94v2.17zm11.88 10.3V88.4h-4.22v5.22h-2.43V81.15h2.43v5.1h4.22v-5.1h2.44v12.47zm12.884-1.263c-.876.876-1.942 1.363-3.362 1.363-1.416 0-2.505-.487-3.377-1.363-1.26-1.26-1.227-2.817-1.227-4.974 0-2.15-.034-3.71 1.227-4.97.872-.877 1.96-1.367 3.377-1.367 1.42 0 2.49.49 3.36 1.367 1.26 1.26 1.25 2.82 1.25 4.97-.003 2.157.008 3.717-1.252 4.977m-1.798-8.47c-.352-.405-.896-.664-1.56-.664-.666 0-1.225.26-1.58.664-.47.524-.59 1.102-.59 3.5 0 2.4.12 2.98.59 3.504.354.4.91.67 1.58.666.664 0 1.21-.264 1.56-.666.47-.526.613-1.104.613-3.504s-.145-2.98-.615-3.5m12.15 9.728l-2.435-4.97h-1.75v4.97h-2.438V81.154h4.888c2.54 0 4.04 1.73 4.04 3.81 0 1.748-1.068 2.836-2.274 3.272l2.785 5.376h-2.814zm-1.892-10.296h-2.294v3.293h2.294c1.066 0 1.77-.683 1.77-1.646s-.703-1.65-1.768-1.65"/><path fill="#595A5C" d="M160.55 81.15h2.43v12.47h-2.43zm10.1 2.17v10.3h-2.44v-10.3h-3.25v-2.17h8.94v2.17zm9.99 5.19v5.11h-2.42v-5.11l-3.74-7.36h2.64l2.33 5.03 2.3-5.03h2.64zm19.31-5.17l-3.78 8.53h-.95l-3.85-8.53v10.28h-.94V81.15h.94l4.34 9.61 4.24-9.61h.95v12.47h-.95zm11.044 7.25h-5.815l-1.083 3.028h-1.02l4.59-12.466h.838l4.59 12.466h-1.02l-1.08-3.028zm-5.515-.842h5.215l-2.608-7.334-2.608 7.334zm9.8-8.598h.95v11.63h6.61v.84h-7.56zm11.88 12.47h-.94V81.99h-3.71v-.84h8.39v.84h-3.74zm11.4-3.03h-5.812l-1.087 3.028h-1.013l4.584-12.466h.848l4.58 12.466h-1.012l-1.087-3.028zm-5.518-.842h5.22l-2.61-7.334-2.61 7.334z"/></svg>