<svg xmlns="http://www.w3.org/2000/svg" viewBox="0 0 168 163"><g fill="#2A3052"><path d="M66.902 27.785c.5-.66.753-1.398.753-2.23 0-.48-.087-.94-.246-1.378-.166-.435-.395-.827-.72-1.193-.316-.354-.715-.665-1.178-.932-.476-.277-1.015-.482-1.625-.625-.805-.2-1.87-.295-3.208-.295h-7.16v.454h.612c.634 0 1.107.182 1.428.538.235.274.348.922.348 1.944V34.77c0 .922-.092 1.535-.282 1.817-.31.44-.796.66-1.494.66h-.612v.454h7.813c1.867 0 3.248-.174 4.16-.51.448-.186.862-.417 1.218-.704.37-.293.674-.61.93-.963.252-.358.446-.74.578-1.142.136-.398.206-.8.206-1.213 0-.454-.07-.89-.213-1.3-.13-.413-.358-.788-.648-1.134-.307-.343-.694-.637-1.172-.894-.478-.244-1.05-.448-1.73-.593.988-.323 1.736-.807 2.242-1.462zm-1.624 4.106c.206.46.313.954.313 1.482 0 .476-.095.927-.293 1.348-.182.42-.476.79-.857 1.104-.38.313-.855.56-1.423.743-.565.172-1.218.266-1.963.266-.927 0-1.86-.108-2.8-.334v-6.79c.223-.045.51-.066.866-.09.356-.013.79-.02 1.308-.02.874 0 1.638.096 2.284.29.646.195 1.182.466 1.613.804.426.333.743.733.953 1.197zm-.306-5.517c-.078.296-.194.563-.348.822-.15.248-.348.474-.575.68-.232.2-.508.367-.812.502-.583.248-1.48.373-2.67.373-.918 0-1.685-.05-2.314-.166v-6.37c.642-.18 1.376-.26 2.204-.26.757 0 1.418.087 2 .272.58.188 1.064.445 1.455.756.394.322.692.698.89 1.124.202.43.302.882.302 1.35 0 .315-.05.627-.133.917zM80.197 22.035c.81 0 1.38.063 1.71.18.204.094.383.198.537.303.14.11.27.26.384.444.118.184.217.43.31.71.084.285.18.646.266 1.082h.294V21.13h-12.77v.454h.585c.688 0 1.178.157 1.467.484.215.258.322.905.322 1.946V34.78c0 .812-.05 1.348-.148 1.596-.05.146-.133.274-.254.384-.126.116-.26.2-.41.28-.157.07-.317.125-.483.154-.17.037-.336.05-.495.05h-.586v.454h12.77l1.425-4.154h-.488c-.252.514-.52.957-.774 1.34-.265.387-.518.7-.772.942-.21.196-.398.355-.578.488-.19.12-.398.215-.643.293-.237.063-.513.114-.84.142-.317.032-.72.042-1.2.042H77.02c-.23 0-.418-.01-.572-.038-.157-.025-.276-.063-.373-.106-.094-.04-.16-.1-.204-.16-.052-.064-.1-.14-.128-.21-.067-.173-.098-.62-.098-1.34v-5.462h3.638c.352 0 .643.015.895.06.255.04.47.105.65.18.18.084.325.18.438.288.11.112.21.24.285.383.053.116.114.304.165.56.064.254.124.59.174.993h.446v-5.765h-.446c-.027.413-.073.774-.15 1.076-.075.304-.198.55-.386.75-.188.203-.45.35-.787.444-.32.092-.755.14-1.284.14h-3.638v-6.55h4.552zM88.258 23.442c-.25.526-.363 1.088-.363 1.675 0 .695.125 1.298.39 1.805.27.505.614.953 1.06 1.353.433.392.943.752 1.52 1.084.572.335 1.172.676 1.79 1.044.546.328 1.068.616 1.564.878.486.26.917.54 1.286.82.375.288.666.61.885.972.222.363.335.81.335 1.343 0 .355-.075.698-.23 1.028-.15.326-.366.62-.653.872-.28.24-.63.44-1.037.59-.404.144-.868.217-1.375.217-.438 0-.856-.05-1.268-.155-.417-.1-.8-.237-1.146-.428-.363-.183-.685-.4-.96-.65-.29-.257-.52-.522-.7-.823-.174-.297-.34-.675-.478-1.114-.143-.444-.27-.97-.377-1.56h-.45v5.68h.45c.056-.378.15-.633.272-.755.117-.123.274-.182.475-.182.035 0 .11.01.225.034.12.025.267.062.426.096.178.045.37.096.568.154.208.064.404.13.604.206.276.107.52.183.714.25.203.055.395.1.578.134.19.024.382.05.586.053.203.008.45.01.735.01.76 0 1.47-.127 2.106-.37.64-.248 1.19-.582 1.653-1.005.456-.416.817-.902 1.07-1.465.252-.557.387-1.144.387-1.76 0-.726-.14-1.35-.402-1.864-.277-.523-.633-.982-1.076-1.383-.458-.4-.986-.772-1.58-1.106-.596-.33-1.223-.674-1.88-1.02-.59-.313-1.126-.6-1.634-.87-.5-.27-.932-.545-1.303-.827-.373-.29-.666-.603-.873-.933-.21-.345-.314-.743-.314-1.2 0-.324.06-.642.217-.944.146-.304.354-.576.615-.81.262-.24.578-.423.934-.573.357-.14.75-.21 1.166-.21.373 0 .742.047 1.117.15.37.1.724.245 1.048.427.33.185.628.41.915.67.28.26.517.548.705.878.38.65.64 1.525.79 2.625h.456v-5.73h-.454c-.084.38-.184.636-.32.77-.134.124-.31.187-.518.187s-.526-.104-.973-.31c-.992-.43-1.938-.647-2.792-.647-.706 0-1.347.117-1.94.35-.592.228-1.1.55-1.533.95-.434.39-.772.86-1.012 1.39zM101.625 25.016h.467c.075-.595.2-1.08.357-1.45.168-.382.38-.668.636-.87.264-.202.586-.342.955-.415.372-.07.814-.11 1.32-.11h1.997v12.656c0 .94-.096 1.533-.268 1.79-.3.418-.794.63-1.493.63h-.59v.454h7.028v-.455h-.577c-.654 0-1.13-.17-1.432-.513-.21-.247-.328-.888-.328-1.906V22.17h2.337c.458 0 .87.05 1.218.152.355.1.65.264.893.49.236.22.443.514.588.878.152.36.263.802.323 1.325h.288V21.13h-13.72v3.886zM55.09 45.73c.53 0 1.002.028 1.39.096.397.06.73.19 1.013.388.297.19.542.468.742.825.197.36.38.832.547 1.424h.26v-3.638h-12.32v.457h.584c.392 0 .764.093 1.125.29.148.08.263.166.344.256.1.09.153.214.194.376.053.158.08.355.095.6.017.244.026.563.026.96v10.696c0 1.003-.1 1.634-.293 1.88-.304.4-.797.6-1.49.6h-.585v.45h7.108v-.45h-.6c-.395 0-.77-.1-1.12-.29-.15-.086-.276-.174-.36-.267-.08-.095-.155-.218-.203-.37-.042-.156-.067-.357-.09-.604-.013-.242-.018-.557-.018-.95v-5.204h3.01c.416 0 .76.045 1.032.127.277.088.49.23.654.413.164.18.283.426.353.716.076.298.116.648.127 1.06h.45V49.97h-.45c-.057.463-.137.836-.238 1.126-.093.29-.23.527-.405.696-.17.17-.372.29-.626.354-.25.065-.547.1-.9.1h-3.012V45.73h3.653zM61.476 45.283h.592c.384 0 .763.093 1.124.29.147.08.263.166.343.256.084.09.15.214.196.376.048.158.085.355.1.6.01.244.014.563.014.96v10.696c0 1.003-.09 1.634-.285 1.88-.305.4-.8.6-1.49.6h-.593v.45h7.1v-.45h-.594c-.398 0-.763-.1-1.113-.29-.157-.086-.268-.174-.36-.267-.087-.095-.153-.218-.2-.37-.052-.156-.065-.357-.085-.604-.016-.242-.027-.557-.027-.95V47.767c0-1.01.1-1.634.3-1.888.303-.397.795-.594 1.485-.594h.593v-.457h-7.1v.456zM72.51 59.83c-.368.293-.758.54-1.146.743-.397.202-.865.325-1.37.368v.45h5.882v-.45c-.312-.01-.573-.034-.774-.092-.202-.05-.36-.12-.487-.197-.117-.085-.205-.18-.26-.287-.047-.118-.07-.234-.07-.362 0-.088 0-.17.007-.238.005-.067.038-.153.09-.25.052-.102.12-.22.226-.364.103-.147.25-.343.45-.587l3.467-4.45 2.807 4.252c.225.324.384.58.502.745.103.174.18.304.224.404.04.1.07.176.06.242 0 .06-.007.14-.007.25 0 .3-.118.528-.395.678-.267.16-.674.244-1.234.26v.45h7.105v-.45c-.738-.042-1.346-.255-1.814-.635-.24-.197-.54-.522-.903-.982-.356-.463-.788-1.065-1.287-1.805l-3.555-5.296 3.292-4.208c.683-.864 1.194-1.447 1.543-1.752.163-.144.317-.27.48-.384.16-.116.337-.212.522-.294.176-.082.383-.15.603-.2.218-.05.464-.087.747-.1v-.457h-5.88v.457c.297 0 .534.012.735.04.198.016.338.048.427.08.165.05.304.155.428.306.123.143.186.31.186.504 0 .084-.01.168-.016.238-.006.076-.037.16-.09.255-.043.1-.126.22-.22.35-.1.143-.242.328-.423.56l-2.94 3.723-2.548-3.8c-.394-.567-.582-1.01-.582-1.32 0-.114.024-.217.08-.328.056-.107.147-.203.28-.286.12-.086.297-.158.524-.21.212-.06.488-.1.815-.11v-.458h-7.66v.457c.798.02 1.508.237 2.133.645.615.396 1.364 1.247 2.26 2.536l3.264 4.778-3.908 4.94c-.582.73-1.1 1.28-1.57 1.645zM89.017 45.283h.59c.69 0 1.166.156 1.465.485.214.25.323.9.323 1.943v10.763c0 .816-.05 1.348-.148 1.597-.055.152-.137.278-.263.39-.116.105-.247.198-.407.272-.15.072-.305.13-.48.158-.17.034-.34.05-.49.05h-.59v.45h12.772l1.433-4.153h-.498c-.262.515-.52.965-.772 1.347-.267.384-.52.697-.782.937-.2.196-.39.364-.57.49-.188.125-.4.224-.636.284-.246.077-.523.128-.842.154-.326.028-.72.044-1.2.044h-2.814c-.23 0-.42-.015-.563-.04-.163-.02-.287-.062-.377-.103-.088-.044-.162-.104-.207-.167-.046-.064-.095-.13-.132-.21-.06-.167-.097-.618-.097-1.337v-5.46h3.647c.35 0 .643.017.894.055.252.044.47.105.65.183.178.09.318.183.443.29.113.11.2.243.274.388.058.11.118.298.18.55.05.267.106.598.167 1h.447v-5.765h-.446c-.033.416-.08.77-.154 1.073-.068.3-.2.554-.39.756-.19.198-.446.342-.778.437-.326.092-.756.146-1.285.146H93.73v-6.554h4.554c.813 0 1.388.06 1.72.18.205.095.38.195.52.307.154.106.283.253.397.444.115.186.215.423.307.707.09.29.18.647.27 1.084h.293V44.83H89.017v.453zM120.942 56.396c.394-1.028.585-2.148.585-3.37 0-1.728-.393-3.246-1.18-4.545-.78-1.313-1.822-2.247-3.117-2.815-1.284-.557-3.17-.84-5.643-.84h-6.745v.458h.624c.627 0 1.096.17 1.415.534.227.25.344.9.344 1.948V58.46c0 .948-.09 1.55-.268 1.808-.305.448-.804.673-1.49.673h-.624v.45h7.403c1.527 0 2.867-.202 4.028-.62 1.155-.412 2.128-.987 2.905-1.73.782-.737 1.367-1.617 1.764-2.644zm-2.695-.186c-.34.914-.8 1.695-1.38 2.332-.588.638-1.28 1.134-2.082 1.48-.806.343-1.677.514-2.615.514-.71 0-1.578-.11-2.602-.34v-14.09c.474-.105.915-.2 1.33-.258.414-.062.812-.093 1.176-.093.976 0 1.86.172 2.688.515.815.342 1.517.835 2.108 1.47.586.638 1.046 1.415 1.384 2.327.324.91.495 1.94.495 3.082 0 1.13-.174 2.15-.503 3.06zM58.36 85.467c2.258 0 4.172-.83 5.758-2.492 1.593-1.657 2.38-3.754 2.38-6.265 0-2.44-.787-4.48-2.365-6.108-1.583-1.636-3.44-2.458-5.583-2.458-2.17 0-4.023.72-5.583 2.166-1.795 1.66-2.685 3.812-2.685 6.437 0 2.57.773 4.673 2.315 6.292 1.547 1.62 3.467 2.427 5.762 2.427zm-4.932-11.944c.23-.946.566-1.753 1.01-2.42.444-.658.994-1.17 1.643-1.526.65-.36 1.402-.542 2.243-.542.89 0 1.674.183 2.352.547.664.365 1.23.877 1.67 1.567.46.69.806 1.522 1.023 2.51.228.99.336 2.117.336 3.377 0 1.316-.134 2.46-.414 3.41-.267.948-.646 1.733-1.13 2.35-.467.618-1.042 1.067-1.7 1.364-.66.292-1.362.44-2.126.44-.854 0-1.61-.197-2.265-.582-.647-.387-1.194-.924-1.64-1.625-.442-.7-.78-1.524-1.007-2.494-.232-.98-.348-2.038-.348-3.2 0-1.176.116-2.235.353-3.177zM68.522 68.975h.62c.627 0 1.102.18 1.425.538.22.253.343.904.343 1.94V82.16c0 .943-.098 1.547-.28 1.807-.296.447-.793.672-1.487.672h-.62v.455h7.4c1.523 0 2.867-.21 4.03-.627 1.16-.412 2.126-.99 2.904-1.725.78-.742 1.36-1.626 1.764-2.65.392-1.02.588-2.148.588-3.37 0-1.726-.39-3.24-1.183-4.55-.786-1.304-1.82-2.237-3.12-2.806-1.28-.557-3.168-.84-5.637-.84H68.52v.45zm4.727.83c.47-.112.922-.2 1.33-.26.418-.065.81-.094 1.175-.094.968 0 1.865.174 2.68.52.82.34 1.524.832 2.11 1.467.59.64 1.058 1.417 1.39 2.326.332.917.495 1.94.495 3.082 0 1.128-.17 2.152-.506 3.065-.33.91-.79 1.69-1.38 2.326-.59.64-1.283 1.135-2.077 1.48-.805.345-1.676.517-2.613.517-.715 0-1.58-.115-2.604-.342V69.805zM87.223 68.975h.61c.627 0 1.106.18 1.42.538.226.253.345.904.345 1.94V82.16c0 .943-.092 1.547-.27 1.807-.306.447-.79.672-1.495.672h-.61v.455h7.395c1.525 0 2.863-.21 4.026-.627 1.16-.412 2.13-.99 2.907-1.725.782-.742 1.37-1.626 1.767-2.65.396-1.02.58-2.148.58-3.37 0-1.726-.384-3.24-1.18-4.55-.776-1.304-1.817-2.237-3.114-2.806-1.282-.557-3.17-.84-5.642-.84h-6.737v.45zm4.722.83c.474-.112.914-.2 1.33-.26.415-.065.805-.094 1.17-.094.975 0 1.866.174 2.688.52.813.34 1.518.832 2.105 1.467.592.64 1.054 1.417 1.387 2.326.328.917.504 1.94.504 3.082 0 1.128-.177 2.152-.515 3.065-.33.91-.797 1.69-1.387 2.326-.585.64-1.27 1.135-2.068 1.48-.81.345-1.678.517-2.613.517-.72 0-1.593-.115-2.602-.342V69.805zM117.665 82.63c.258-.562.38-1.15.38-1.768 0-.728-.128-1.346-.396-1.865-.27-.513-.625-.977-1.075-1.378-.45-.403-.977-.773-1.577-1.112-.593-.327-1.22-.674-1.88-1.02-.588-.307-1.13-.602-1.63-.874-.503-.264-.937-.54-1.308-.823-.363-.28-.66-.598-.877-.936-.206-.334-.316-.73-.316-1.19 0-.324.074-.64.227-.942.143-.313.355-.583.615-.818.267-.235.576-.426.928-.568.357-.146.75-.214 1.165-.214.375 0 .74.055 1.116.158.367.1.72.238 1.055.424.328.18.627.404.91.662.283.262.518.56.704.885.385.652.644 1.524.795 2.63h.456v-5.735h-.455c-.078.387-.19.638-.328.76-.132.13-.305.192-.518.192-.202 0-.52-.1-.962-.303-1.005-.43-1.94-.65-2.797-.65-.702 0-1.35.12-1.937.353-.597.228-1.106.544-1.53.942-.44.4-.778.864-1.017 1.395-.243.526-.37 1.084-.37 1.67 0 .702.138 1.306.395 1.812.266.505.624.954 1.064 1.34.437.4.946.767 1.52 1.09l1.784 1.048c.55.322 1.067.62 1.564.88.49.263.923.534 1.295.823.363.282.667.604.882.97.222.362.327.806.327 1.336 0 .356-.068.7-.224 1.033-.153.326-.366.62-.656.865-.288.25-.625.447-1.044.59-.404.15-.86.225-1.37.225-.43 0-.847-.056-1.27-.15-.407-.105-.793-.248-1.144-.427-.354-.185-.674-.407-.957-.657-.287-.25-.52-.53-.704-.814-.174-.31-.34-.678-.477-1.12-.146-.444-.267-.964-.38-1.56h-.443v5.68h.444c.06-.384.15-.64.26-.753.125-.13.283-.188.487-.188.036 0 .108.013.232.034.108.023.264.057.428.1.174.04.36.09.563.152.21.062.404.127.602.2.27.106.512.19.715.25.193.065.39.11.58.14.184.027.38.04.585.055.204.01.444.01.737.01.76 0 1.464-.124 2.11-.372.634-.25 1.183-.58 1.644-.998.46-.424.818-.91 1.07-1.47zM60.388 108.332h-.598c-.403 0-.776-.096-1.12-.297-.156-.075-.277-.17-.358-.26-.094-.092-.164-.21-.207-.37-.046-.154-.074-.353-.09-.6-.016-.245-.02-.563-.02-.96v-5.195h3.01c.425 0 .753.043 1.038.13.27.08.483.216.652.405.164.193.284.43.35.717.077.3.126.648.126 1.07h.45v-5.607h-.45c-.06.457-.14.824-.23 1.123-.103.293-.233.52-.408.695-.166.168-.38.29-.628.357-.25.063-.544.09-.9.09h-3.01v-6.505h3.647c.543 0 1.002.028 1.39.09.39.063.734.187 1.028.384.286.19.533.47.73.83.2.358.384.837.547 1.433h.263V92.22h-12.32v.446h.582c.394 0 .77.104 1.128.293.147.086.25.17.34.258.093.088.153.215.195.37.05.162.085.368.096.612.01.242.02.56.02.95v10.695c0 1.003-.1 1.638-.29 1.89-.3.396-.8.596-1.49.596h-.583v.456h7.11v-.454zM75.132 108.332h-.596c-.39 0-.763-.096-1.115-.297-.146-.075-.266-.17-.356-.26-.084-.092-.153-.21-.196-.37-.046-.154-.073-.353-.094-.6-.01-.245-.027-.563-.027-.96V95.153c0-1.002.1-1.627.307-1.88.3-.4.792-.605 1.482-.605h.596v-.446H68.03v.447h.59c.39 0 .765.104 1.124.293.157.087.266.17.35.26.085.087.15.214.195.37.044.16.08.367.09.61.017.243.027.56.027.952v10.694c0 1.003-.103 1.638-.295 1.89-.303.396-.805.596-1.493.596h-.59v.455h7.102v-.455zM81.89 101.057c.124.008.24.01.346.01.128 0 .28-.002.448-.01.166-.002.35-.01.564-.018l5.606 7.747h4.422v-.455c-.894-.096-1.632-.328-2.196-.682-.546-.357-1.226-1.076-2.014-2.176l-3.423-4.75c.693-.158 1.295-.373 1.81-.64.513-.267.937-.587 1.274-.952.34-.37.584-.77.748-1.214.172-.446.25-.925.25-1.437 0-.476-.078-.917-.246-1.33-.16-.413-.37-.792-.644-1.124-.268-.334-.586-.625-.947-.87-.364-.24-.756-.43-1.174-.548-.844-.262-2.14-.39-3.878-.39h-6.04v.447h.618c.634 0 1.098.188 1.42.542.23.254.34.902.34 1.943v10.694c0 .95-.087 1.55-.256 1.804-.31.453-.807.682-1.504.682h-.62v.455H83.9v-.455h-.653c-.62 0-1.08-.18-1.393-.537-.225-.256-.344-.902-.344-1.948v-4.808c.132.01.263.018.38.02zm-.38-7.676c.404-.08.773-.138 1.09-.18.32-.04.588-.052.83-.052.527 0 1 .084 1.438.254.436.174.81.416 1.12.725.312.305.554.676.728 1.105.163.43.26.895.26 1.408 0 .52-.106 1.002-.3 1.45-.202.44-.498.825-.897 1.153-.402.324-.903.578-1.5.758-.597.19-1.294.276-2.08.276-.08 0-.174 0-.285-.002s-.25-.008-.404-.008V93.38zM113.326 93.307c.295-.428.8-.64 1.502-.64h.575v-.446h-4.688l-5.915 12.962-6.01-12.96H94.1v.445c.34 0 .63.024.867.062.236.044.436.103.6.17.17.077.307.163.406.26.096.105.17.222.225.343.167.344.248.873.248 1.592v10.816c0 .94-.09 1.536-.273 1.79-.29.422-.78.633-1.485.633H94.1v.455h5.767v-.455h-.584c-.652 0-1.13-.176-1.43-.518-.223-.246-.335-.883-.335-1.904V94.847l6.4 13.94h.405l6.392-13.94v11.064c0 .938-.09 1.535-.266 1.79-.29.42-.792.632-1.495.632h-.584v.455h7.033v-.455h-.575c-.645 0-1.12-.176-1.428-.518-.225-.246-.34-.883-.34-1.904V95.094c.002-.94.09-1.535.266-1.787zM69.912 129.294h-.452c-.17.31-.366.55-.554.728-.177.17-.406.31-.668.404-.256.094-.576.146-.95.174-.374.03-.834.037-1.383.037h-4.33c.266-.223.702-.674 1.33-1.336.63-.66 1.462-1.556 2.475-2.67 1.354-1.48 2.337-2.88 2.932-4.19.4-.844.584-1.676.584-2.518 0-.58-.12-1.13-.354-1.654-.244-.523-.573-.986-.984-1.387-.435-.4-.925-.714-1.508-.952-.58-.234-1.198-.35-1.87-.35-.633 0-1.215.102-1.744.305-.53.202-1 .504-1.403.898-.403.405-.75.887-1.02 1.468-.263.582-.46 1.246-.552 2.008h.45c.15-.47.353-.87.6-1.23.24-.347.522-.642.828-.874.317-.236.66-.412 1.03-.53.368-.122.758-.175 1.166-.175.442 0 .864.088 1.26.262.396.18.75.43 1.044.75.295.315.536.7.706 1.142.176.443.267.924.267 1.443 0 1.38-.58 2.9-1.763 4.557-.576.842-1.38 1.79-2.392 2.854-1.013 1.066-2.228 2.252-3.676 3.574v.45h9.767l1.165-3.186zM74.12 130.455c.477.734 1.03 1.303 1.652 1.707.625.41 1.283.61 1.985.61.323 0 .66-.048 1.02-.16.342-.11.686-.263 1.006-.464.33-.193.634-.426.925-.677.288-.262.542-.54.75-.834.337-.468.61-.95.832-1.447.218-.505.395-1.028.536-1.57.128-.546.227-1.116.282-1.71.06-.6.08-1.215.08-1.866 0-2.75-.63-4.925-1.888-6.528-1.018-1.29-2.157-1.938-3.416-1.938-.543 0-1.04.102-1.502.313-.458.214-.877.5-1.258.853-.37.354-.72.76-1.017 1.23-.3.46-.558.943-.773 1.45-.57 1.35-.855 2.968-.855 4.872 0 1.247.152 2.396.44 3.44.295 1.046.695 1.95 1.2 2.72zm.833-7.976c.047-.712.137-1.435.237-2.166.174-1.247.507-2.214.982-2.9.464-.688 1.033-1.03 1.694-1.03.58 0 1.055.197 1.413.592.373.393.678.998.936 1.8.386 1.263.585 2.84.585 4.73 0 1.285-.05 2.416-.14 3.395-.094.98-.232 1.825-.416 2.528-.13.47-.286.86-.472 1.19-.18.325-.394.593-.61.796-.213.21-.448.36-.683.455-.236.09-.47.14-.683.14-.527 0-.98-.214-1.36-.632-.375-.42-.683-.985-.908-1.717-.227-.672-.393-1.434-.494-2.29-.106-.868-.16-1.788-.16-2.77 0-.705.024-1.414.077-2.12zM89.932 131.36c-.05.1-.092.187-.163.27-.06.078-.17.145-.31.21-.14.05-.325.098-.565.134-.234.025-.555.047-.953.055v.45h6.227v-.45c-.733-.01-1.233-.075-1.493-.208-.115-.057-.225-.12-.3-.182-.087-.068-.142-.17-.188-.32-.042-.146-.07-.352-.085-.627-.022-.273-.027-.65-.027-1.13v-13.985h-.4l-4.027 1.965.18.376c.53-.254.95-.377 1.264-.377.206 0 .384.057.53.182.147.123.26.314.322.578.076.322.12 1.098.12 2.314v8.946c-.002.978-.046 1.574-.134 1.796zM102.06 128.455c-1.01 1.066-2.235 2.252-3.667 3.574v.45h9.762l1.167-3.187h-.452c-.182.31-.366.55-.546.728-.19.17-.42.312-.677.405-.264.094-.58.146-.95.174-.382.028-.84.036-1.382.036h-4.328c.257-.223.693-.674 1.322-1.336.635-.66 1.462-1.557 2.478-2.67 1.354-1.482 2.332-2.88 2.93-4.19.388-.845.587-1.677.587-2.52 0-.58-.123-1.13-.363-1.653-.236-.523-.56-.986-.984-1.387s-.918-.715-1.5-.953c-.58-.234-1.202-.35-1.87-.35-.634 0-1.216.102-1.752.305-.52.202-.992.504-1.392.898-.412.404-.748.886-1.023 1.467-.257.582-.455 1.246-.555 2.008h.448c.158-.47.355-.87.602-1.23.246-.347.52-.642.832-.874.313-.235.66-.41 1.03-.528.368-.123.76-.176 1.16-.176.446 0 .864.088 1.258.262.405.182.752.43 1.05.75.298.316.535.7.704 1.143.18.444.264.925.264 1.444 0 1.38-.586 2.9-1.756 4.557-.587.843-1.387 1.793-2.397 2.855zM18.868 139.057c12.904 16.313 31.108 12.334 31.108 12.334-4.552-5.693-31.108-12.333-31.108-12.333zM51.495 148.547c-.568-12.52-16.122-25.797-16.122-25.797 3.798 20.86 16.122 25.797 16.122 25.797zM7.59 114.69c8.062 22.286 25.604 25.317 25.604 25.317.19-4.36-25.604-25.318-25.604-25.318zM26.08 109.19c-.665 14.51 9.393 29.866 9.393 29.866 1.135-11.853-9.394-29.867-9.394-29.867zM18.494 117.912C15.27 102.93.57 91.557.57 91.557c3.418 16.02 17.924 26.355 17.924 26.355zM20.2 87.375c-5.023 16.506 0 29.305 0 29.305 4.552-13.37 0-29.305 0-29.305zM12.997 95.057c5.87-7.393 6.257-24.277 6.257-24.277-12.8 17.262-6.257 24.277-6.257 24.277zM10.15 94.3C9.87 83.874 0 64.72 0 64.72-.09 87.374 10.15 94.3 10.15 94.3zM10.91 72.584C22.48 62.53 25.414 49.826 25.414 49.826 9.3 62.913 10.91 72.584 10.91 72.584zM10.062 40.25C.19 59.5 8.822 72.68 8.822 72.68c5.407-11.948 1.24-32.43 1.24-32.43zM16.98 51.816c9.29-1.608 14.506-15.458 14.506-15.458-18.302 11.1-14.506 15.458-14.506 15.458zM20.49 26.785C9.2 36.55 14.32 49.917 14.32 49.917c4.934-11.185 6.17-23.132 6.17-23.132zM25.608 34.084c8.252 1.135 14.608-9.672 14.608-9.672-14.893 5.876-14.608 9.672-14.608 9.672zM34.144 14.74C22.294 19.673 23.71 32.096 23.71 32.096c1.52-.762 10.434-17.354 10.434-17.354zM41.354 12.56s2.128-2.704 3.458-3.604c0 0-8.774.333-10.862 11.76 0 0 3.225-2.087 7.404-8.156zM34.763 23.37c6.825 2.225 13.6-5.738 13.6-5.738-13.32 2.512-13.6 5.737-13.6 5.737zM49.792 9.715c.707-.854 4.023-4.08 4.023-4.08-7.153.854-8.813 7.73-8.813 7.73 1.615.663 4.07-2.8 4.79-3.65zM45.57 15.354c2.466 2.75 10.81-2.7 10.81-2.7-8.106-.19-10.81 2.7-10.81 2.7zM54.674 9.052c4.318-2.374 8.44-5.834 8.44-5.834-6.827.376-8.44 5.834-8.44 5.834zM63.727 9.29c-8.862-1-9.053 1.558-9.053 1.558 7.64 1.14 9.053-1.56 9.053-1.56zM63.35 5.827c.9.234 8.108-4.368 8.108-4.368C66.53.61 63.35 5.826 63.35 5.826zM71.51 7.012c-7.112-1.61-8.256.374-8.256.374 5.17 1.853 8.255-.374 8.255-.374zM71.978 3.457C75.772 2.647 78.856.51 78.856.51c-4.36-.708-6.878 2.947-6.878 2.947zM78.477 5.163c-5.456-2.134-6.5-.38-6.5-.38 3.46 1.85 6.5.38 6.5.38zM75.82 3.55c6.21-.093 6.832-1.136 6.832-1.136-4.602-1.38-6.83 1.137-6.83 1.137zM118.023 151.39s18.2 3.98 31.106-12.333c0 0-26.558 6.64-31.107 12.334zM132.627 122.75s-15.553 13.277-16.123 25.797c0 0 12.323-4.936 16.123-25.797zM134.805 140.008s17.54-3.03 25.602-25.318c0 0-25.796 20.958-25.602 25.318zM132.525 139.057s10.057-15.357 9.393-29.867c0 0-10.523 18.013-9.393 29.867zM149.504 117.912s14.508-10.336 17.922-26.355c0 0-14.7 11.373-17.922 26.355zM147.8 116.68s5.015-12.8 0-29.305c0 0-4.554 15.934 0 29.305zM148.742 70.78s.388 16.884 6.26 24.276c0 0 6.54-7.014-6.26-24.277zM168 64.72s-9.867 19.153-10.158 29.58c0 0 10.246-6.925 10.158-29.58zM142.582 49.826s2.936 12.703 14.508 22.758c0 0 1.61-9.67-14.508-22.758zM157.938 40.25s-4.17 20.482 1.24 32.43c0 0 8.627-13.18-1.24-32.43zM151.02 51.816s3.792-4.36-14.508-15.458c0 0 5.213 13.85 14.508 15.458zM147.507 26.785s1.235 11.947 6.17 23.132c0 0 5.12-13.367-6.17-23.132zM142.39 34.084s.288-3.796-14.608-9.672c0 0 6.355 10.807 14.61 9.672zM144.288 32.095s1.42-12.423-10.437-17.354c.002 0 8.92 16.593 10.438 17.355zM126.643 12.56c4.183 6.07 7.406 8.156 7.406 8.156-2.09-11.427-10.862-11.76-10.862-11.76 1.33.9 3.455 3.604 3.455 3.604zM133.242 23.37s-.285-3.227-13.608-5.738c0 0 6.776 7.963 13.608 5.737zM118.205 9.715c.717.85 3.178 4.313 4.793 3.65 0 0-1.662-6.876-8.814-7.73 0 0 3.312 3.225 4.02 4.08zM122.43 15.354s-2.707-2.89-10.813-2.7c0 0 8.35 5.45 10.813 2.7zM104.885 3.218s4.123 3.46 8.438 5.834c0 0-1.613-5.458-8.438-5.834zM104.27 9.29s1.422 2.7 9.054 1.558c0 0-.19-2.56-9.054-1.56zM96.54 1.46s7.206 4.6 8.112 4.367c0 0-3.18-5.218-8.113-4.368zM104.742 7.386s-1.138-1.984-8.25-.374c0 0 3.08 2.227 8.25.374zM89.143.51s3.08 2.138 6.87 2.947c0 0-2.51-3.655-6.87-2.946zM96.014 4.783s-1.04-1.754-6.488.38c0 0 3.035 1.47 6.488-.38zM92.176 3.55s-2.228-2.515-6.826-1.136c0 0 .613 1.043 6.826 1.137zM88.52 150.23h4.714l-2.326-5.705zM79.706 147.785c.248-.115.47-.256.66-.43.19-.172.357-.363.492-.58.12-.22.22-.45.285-.7.067-.25.1-.513.1-.778 0-.406-.085-.79-.246-1.154-.167-.363-.417-.683-.738-.95-.323-.27-.723-.485-1.203-.644-.474-.163-1.03-.24-1.66-.24-.69 0-1.288.07-1.817.23v5.425c.507.094 1.142.148 1.906.148.993 0 1.736-.113 2.22-.328zM80.597 149.756c-.35-.285-.795-.512-1.332-.682-.535-.164-1.17-.242-1.898-.242-.42 0-.786.003-1.078.014-.292.014-.526.04-.71.074v5.792c.766.185 1.546.282 2.308.282.617 0 1.162-.08 1.632-.23.47-.155.856-.36 1.178-.637.318-.26.548-.58.713-.93.157-.354.24-.74.24-1.156 0-.445-.086-.873-.263-1.26-.17-.39-.43-.735-.79-1.024zM115.412 141.053s-6.074-.28-5.596-5.217c0 0-22.665 3.13-52.82-.096 0 0 2.37 3.797-5.402 5.313 0 0 10.432 7.588-.196 15.645 0 0 7.593.475 5.22 5.883 0 0 25.89-4.175 54.142-.665 0 0-1.422-4.646 4.652-5.027 0 0-10.15-6.544 0-15.835zm-44.273 7.37h-.26c-.225 0-.427.02-.59.078-.163.05-.297.156-.396.3-.112.142-.18.347-.227.624-.047.268-.074.62-.074 1.06v4.32c-.4.226-.797.415-1.17.565-.382.163-.77.29-1.156.392-.382.096-.78.178-1.187.22-.413.05-.844.077-1.31.077-2.647 0-4.66-.876-6.034-2.63-1.036-1.305-1.548-2.822-1.548-4.54 0-.483.047-.96.14-1.442.095-.482.228-.955.4-1.414.178-.455.396-.895.648-1.314.26-.422.55-.81.86-1.166.682-.77 1.446-1.348 2.317-1.718.866-.362 1.826-.552 2.903-.552.312 0 .584.016.83.04.23.022.465.06.687.114.222.05.452.12.7.205.244.084.542.192.883.322.363.145.62.215.754.215.126 0 .23-.06.327-.186.084-.113.143-.355.164-.71h.376l.353 4.458h-.354c-.35-1.1-.815-1.94-1.383-2.512-.83-.81-1.877-1.217-3.15-1.217-1.74 0-3.08.715-3.99 2.133-.758 1.207-1.142 2.637-1.142 4.297 0 1.346.26 2.574.76 3.685.225.495.495.937.803 1.335.312.393.655.73 1.04 1.008.386.28.794.493 1.25.647.45.156.925.227 1.42.227.513 0 .994-.063 1.466-.193.468-.136.93-.325 1.37-.583v-4.082c0-.365-.01-.654-.038-.875-.02-.213-.066-.39-.117-.518-.058-.14-.125-.234-.206-.307-.082-.063-.186-.13-.288-.186-.214-.116-.595-.18-1.158-.18v-.395h5.323v.397zm12.69 4.483c-.117.345-.268.666-.485.97-.203.302-.464.58-.767.82-.29.247-.63.446-1.012.6-.747.29-1.89.44-3.442.44h-6.478v-.393h.517c.563 0 .983-.184 1.24-.555.15-.242.232-.766.232-1.555v-9.125c0-.867-.104-1.42-.3-1.654-.256-.31-.654-.46-1.17-.46h-.518v-.386h5.938c1.103 0 1.99.08 2.66.248.505.127.95.31 1.338.533.388.228.716.495.976.802.262.305.463.644.595 1.012.138.375.206.764.206 1.173 0 .71-.205 1.343-.626 1.9-.413.563-1.04.978-1.85 1.245.56.133 1.025.297 1.437.51.387.218.71.468.965.762.245.29.427.617.548.965.113.353.168.72.168 1.104 0 .353-.056.69-.17 1.042zm14.938 2.83h-5.404v-.393c.26-.01.488-.04.676-.088.178-.047.32-.113.43-.19.096-.077.17-.167.225-.263.035-.09.06-.2.06-.316.007-.162-.024-.358-.103-.59-.06-.244-.166-.525-.302-.86l-.835-2.03H88.2l-.93 2.23c-.225.542-.34.946-.34 1.23 0 .11.02.21.052.306.037.092.116.176.242.258.11.08.263.148.474.197.214.055.483.096.823.117v.393H84.2v-.393c.57-.102.937-.234 1.106-.4.18-.164.36-.422.547-.758.19-.338.392-.764.605-1.273l4.832-11.63h.358l4.77 11.755c.2.484.374.875.546 1.17.16.294.335.523.505.69.177.16.37.27.578.337.2.063.448.1.727.11v.39zm11.48-11.02h-.224c-.136-.51-.283-.915-.448-1.224-.172-.304-.37-.54-.605-.705-.242-.168-.525-.275-.85-.33-.32-.05-.7-.076-1.155-.076h-3.027v5.55h2.51c.283 0 .537-.03.748-.084.2-.055.367-.15.51-.3.146-.147.252-.34.342-.6.072-.245.144-.563.188-.952h.373v4.78h-.374c0-.35-.037-.655-.103-.907-.06-.248-.165-.457-.293-.615-.134-.158-.313-.277-.548-.352-.22-.068-.506-.1-.845-.1h-2.51v4.434c0 .332.013.6.022.807.01.214.038.384.075.515.04.137.096.236.17.32.078.076.174.154.302.22.28.17.595.25.92.25h.51v.392h-5.905v-.393h.483c.58 0 .986-.166 1.24-.51.17-.21.24-.75.24-1.6v-9.125c0-.333-.01-.606-.013-.817-.018-.21-.042-.38-.075-.51-.042-.137-.092-.242-.163-.322-.08-.073-.177-.15-.29-.22-.3-.164-.61-.246-.94-.246h-.482v-.385h10.217v3.107zM66.902 27.785c.5-.66.753-1.398.753-2.23 0-.48-.087-.94-.246-1.378-.166-.435-.395-.827-.72-1.193-.316-.354-.715-.665-1.178-.932-.476-.277-1.015-.482-1.625-.625-.805-.2-1.87-.295-3.208-.295h-7.16v.454h.612c.634 0 1.107.182 1.428.538.235.274.348.922.348 1.944V34.77c0 .922-.092 1.535-.282 1.817-.31.44-.796.66-1.494.66h-.612v.454h7.813c1.867 0 3.248-.174 4.16-.51.448-.186.862-.417 1.218-.704.37-.293.674-.61.93-.963.252-.358.446-.74.578-1.142.136-.398.206-.8.206-1.213 0-.454-.07-.89-.213-1.3-.13-.413-.358-.788-.648-1.134-.307-.343-.694-.637-1.172-.894-.478-.244-1.05-.448-1.73-.593.988-.323 1.736-.807 2.242-1.462zm-1.624 4.106c.206.46.313.954.313 1.482 0 .476-.095.927-.293 1.348-.182.42-.476.79-.857 1.104-.38.313-.855.56-1.423.743-.565.172-1.218.266-1.963.266-.927 0-1.86-.108-2.8-.334v-6.79c.223-.045.51-.066.866-.09.356-.013.79-.02 1.308-.02.874 0 1.638.096 2.284.29.646.195 1.182.466 1.613.804.426.333.743.733.953 1.197zm-.306-5.517c-.078.296-.194.563-.348.822-.15.248-.348.474-.575.68-.232.2-.508.367-.812.502-.583.248-1.48.373-2.67.373-.918 0-1.685-.05-2.314-.166v-6.37c.642-.18 1.376-.26 2.204-.26.757 0 1.418.087 2 .272.58.188 1.064.445 1.455.756.394.322.692.698.89 1.124.202.43.302.882.302 1.35 0 .315-.05.627-.133.917zM80.197 22.035c.81 0 1.38.063 1.71.18.204.094.383.198.537.303.14.11.27.26.384.444.118.184.217.43.31.71.084.285.18.646.266 1.082h.294V21.13h-12.77v.454h.585c.688 0 1.178.157 1.467.484.215.258.322.905.322 1.946V34.78c0 .812-.05 1.348-.148 1.596-.05.146-.133.274-.254.384-.126.116-.26.2-.41.28-.157.07-.317.125-.483.154-.17.037-.336.05-.495.05h-.586v.454h12.77l1.425-4.154h-.488c-.252.514-.52.957-.774 1.34-.265.387-.518.7-.772.942-.21.196-.398.355-.578.488-.19.12-.398.215-.643.293-.237.063-.513.114-.84.142-.317.032-.72.042-1.2.042H77.02c-.23 0-.418-.01-.572-.038-.157-.025-.276-.063-.373-.106-.094-.04-.16-.1-.204-.16-.052-.064-.1-.14-.128-.21-.067-.173-.098-.62-.098-1.34v-5.462h3.638c.352 0 .643.015.895.06.255.04.47.105.65.18.18.084.325.18.438.288.11.112.21.24.285.383.053.116.114.304.165.56.064.254.124.59.174.993h.446v-5.765h-.446c-.027.413-.073.774-.15 1.076-.075.304-.198.55-.386.75-.188.203-.45.35-.787.444-.32.092-.755.14-1.284.14h-3.638v-6.55h4.552zM88.258 23.442c-.25.526-.363 1.088-.363 1.675 0 .695.125 1.298.39 1.805.27.505.614.953 1.06 1.353.433.392.943.752 1.52 1.084.572.335 1.172.676 1.79 1.044.546.328 1.068.616 1.564.878.486.26.917.54 1.286.82.375.288.666.61.885.972.222.363.335.81.335 1.343 0 .355-.075.698-.23 1.028-.15.326-.366.62-.653.872-.28.24-.63.44-1.037.59-.404.144-.868.217-1.375.217-.438 0-.856-.05-1.268-.155-.417-.1-.8-.237-1.146-.428-.363-.183-.685-.4-.96-.65-.29-.257-.52-.522-.7-.823-.174-.297-.34-.675-.478-1.114-.143-.444-.27-.97-.377-1.56h-.45v5.68h.45c.056-.378.15-.633.272-.755.117-.123.274-.182.475-.182.035 0 .11.01.225.034.12.025.267.062.426.096.178.045.37.096.568.154.208.064.404.13.604.206.276.107.52.183.714.25.203.055.395.1.578.134.19.024.382.05.586.053.203.008.45.01.735.01.76 0 1.47-.127 2.106-.37.64-.248 1.19-.582 1.653-1.005.456-.416.817-.902 1.07-1.465.252-.557.387-1.144.387-1.76 0-.726-.14-1.35-.402-1.864-.277-.523-.633-.982-1.076-1.383-.458-.4-.986-.772-1.58-1.106-.596-.33-1.223-.674-1.88-1.02-.59-.313-1.126-.6-1.634-.87-.5-.27-.932-.545-1.303-.827-.373-.29-.666-.603-.873-.933-.21-.345-.314-.743-.314-1.2 0-.324.06-.642.217-.944.146-.304.354-.576.615-.81.262-.24.578-.423.934-.573.357-.14.75-.21 1.166-.21.373 0 .742.047 1.117.15.37.1.724.245 1.048.427.33.185.628.41.915.67.28.26.517.548.705.878.38.65.64 1.525.79 2.625h.456v-5.73h-.454c-.084.38-.184.636-.32.77-.134.124-.31.187-.518.187s-.526-.104-.973-.31c-.992-.43-1.938-.647-2.792-.647-.706 0-1.347.117-1.94.35-.592.228-1.1.55-1.533.95-.434.39-.772.86-1.012 1.39zM101.625 25.016h.467c.075-.595.2-1.08.357-1.45.168-.382.38-.668.636-.87.264-.202.586-.342.955-.415.372-.07.814-.11 1.32-.11h1.997v12.656c0 .94-.096 1.533-.268 1.79-.3.418-.794.63-1.493.63h-.59v.454h7.028v-.455h-.577c-.654 0-1.13-.17-1.432-.513-.21-.247-.328-.888-.328-1.906V22.17h2.337c.458 0 .87.05 1.218.152.355.1.65.264.893.49.236.22.443.514.588.878.152.36.263.802.323 1.325h.288V21.13h-13.72v3.886zM55.09 45.73c.53 0 1.002.028 1.39.096.397.06.73.19 1.013.388.297.19.542.468.742.825.197.36.38.832.547 1.424h.26v-3.638h-12.32v.457h.584c.392 0 .764.093 1.125.29.148.08.263.166.344.256.1.09.153.214.194.376.053.158.08.355.095.6.017.244.026.563.026.96v10.696c0 1.003-.1 1.634-.293 1.88-.304.4-.797.6-1.49.6h-.585v.45h7.108v-.45h-.6c-.395 0-.77-.1-1.12-.29-.15-.086-.276-.174-.36-.267-.08-.095-.155-.218-.203-.37-.042-.156-.067-.357-.09-.604-.013-.242-.018-.557-.018-.95v-5.204h3.01c.416 0 .76.045 1.032.127.277.088.49.23.654.413.164.18.283.426.353.716.076.298.116.648.127 1.06h.45V49.97h-.45c-.057.463-.137.836-.238 1.126-.093.29-.23.527-.405.696-.17.17-.372.29-.626.354-.25.065-.547.1-.9.1h-3.012V45.73h3.653zM61.476 45.283h.592c.384 0 .763.093 1.124.29.147.08.263.166.343.256.084.09.15.214.196.376.048.158.085.355.1.6.01.244.014.563.014.96v10.696c0 1.003-.09 1.634-.285 1.88-.305.4-.8.6-1.49.6h-.593v.45h7.1v-.45h-.594c-.398 0-.763-.1-1.113-.29-.157-.086-.268-.174-.36-.267-.087-.095-.153-.218-.2-.37-.052-.156-.065-.357-.085-.604-.016-.242-.027-.557-.027-.95V47.767c0-1.01.1-1.634.3-1.888.303-.397.795-.594 1.485-.594h.593v-.457h-7.1v.456zM72.51 59.83c-.368.293-.758.54-1.146.743-.397.202-.865.325-1.37.368v.45h5.882v-.45c-.312-.01-.573-.034-.774-.092-.202-.05-.36-.12-.487-.197-.117-.085-.205-.18-.26-.287-.047-.118-.07-.234-.07-.362 0-.088 0-.17.007-.238.005-.067.038-.153.09-.25.052-.102.12-.22.226-.364.103-.147.25-.343.45-.587l3.467-4.45 2.807 4.252c.225.324.384.58.502.745.103.174.18.304.224.404.04.1.07.176.06.242 0 .06-.007.14-.007.25 0 .3-.118.528-.395.678-.267.16-.674.244-1.234.26v.45h7.105v-.45c-.738-.042-1.346-.255-1.814-.635-.24-.197-.54-.522-.903-.982-.356-.463-.788-1.065-1.287-1.805l-3.555-5.296 3.292-4.208c.683-.864 1.194-1.447 1.543-1.752.163-.144.317-.27.48-.384.16-.116.337-.212.522-.294.176-.082.383-.15.603-.2.218-.05.464-.087.747-.1v-.457h-5.88v.457c.297 0 .534.012.735.04.198.016.338.048.427.08.165.05.304.155.428.306.123.143.186.31.186.504 0 .084-.01.168-.016.238-.006.076-.037.16-.09.255-.043.1-.126.22-.22.35-.1.143-.242.328-.423.56l-2.94 3.723-2.548-3.8c-.394-.567-.582-1.01-.582-1.32 0-.114.024-.217.08-.328.056-.107.147-.203.28-.286.12-.086.297-.158.524-.21.212-.06.488-.1.815-.11v-.458h-7.66v.457c.798.02 1.508.237 2.133.645.615.396 1.364 1.247 2.26 2.536l3.264 4.778-3.908 4.94c-.582.73-1.1 1.28-1.57 1.645zM89.017 45.283h.59c.69 0 1.166.156 1.465.485.214.25.323.9.323 1.943v10.763c0 .816-.05 1.348-.148 1.597-.055.152-.137.278-.263.39-.116.105-.247.198-.407.272-.15.072-.305.13-.48.158-.17.034-.34.05-.49.05h-.59v.45h12.772l1.433-4.153h-.498c-.262.515-.52.965-.772 1.347-.267.384-.52.697-.782.937-.2.196-.39.364-.57.49-.188.125-.4.224-.636.284-.246.077-.523.128-.842.154-.326.028-.72.044-1.2.044h-2.814c-.23 0-.42-.015-.563-.04-.163-.02-.287-.062-.377-.103-.088-.044-.162-.104-.207-.167-.046-.064-.095-.13-.132-.21-.06-.167-.097-.618-.097-1.337v-5.46h3.647c.35 0 .643.017.894.055.252.044.47.105.65.183.178.09.318.183.443.29.113.11.2.243.274.388.058.11.118.298.18.55.05.267.106.598.167 1h.447v-5.765h-.446c-.033.416-.08.77-.154 1.073-.068.3-.2.554-.39.756-.19.198-.446.342-.778.437-.326.092-.756.146-1.285.146H93.73v-6.554h4.554c.813 0 1.388.06 1.72.18.205.095.38.195.52.307.154.106.283.253.397.444.115.186.215.423.307.707.09.29.18.647.27 1.084h.293V44.83H89.017v.453zM120.942 56.396c.394-1.028.585-2.148.585-3.37 0-1.728-.393-3.246-1.18-4.545-.78-1.313-1.822-2.247-3.117-2.815-1.284-.557-3.17-.84-5.643-.84h-6.745v.458h.624c.627 0 1.096.17 1.415.534.227.25.344.9.344 1.948V58.46c0 .948-.09 1.55-.268 1.808-.305.448-.804.673-1.49.673h-.624v.45h7.403c1.527 0 2.867-.202 4.028-.62 1.155-.412 2.128-.987 2.905-1.73.782-.737 1.367-1.617 1.764-2.644zm-2.695-.186c-.34.914-.8 1.695-1.38 2.332-.588.638-1.28 1.134-2.082 1.48-.806.343-1.677.514-2.615.514-.71 0-1.578-.11-2.602-.34v-14.09c.474-.105.915-.2 1.33-.258.414-.062.812-.093 1.176-.093.976 0 1.86.172 2.688.515.815.342 1.517.835 2.108 1.47.586.638 1.046 1.415 1.384 2.327.324.91.495 1.94.495 3.082 0 1.13-.174 2.15-.503 3.06zM58.36 85.467c2.258 0 4.172-.83 5.758-2.492 1.593-1.657 2.38-3.754 2.38-6.265 0-2.44-.787-4.48-2.365-6.108-1.583-1.636-3.44-2.458-5.583-2.458-2.17 0-4.023.72-5.583 2.166-1.795 1.66-2.685 3.812-2.685 6.437 0 2.57.773 4.673 2.315 6.292 1.547 1.62 3.467 2.427 5.762 2.427zm-4.932-11.944c.23-.946.566-1.753 1.01-2.42.444-.658.994-1.17 1.643-1.526.65-.36 1.402-.542 2.243-.542.89 0 1.674.183 2.352.547.664.365 1.23.877 1.67 1.567.46.69.806 1.522 1.023 2.51.228.99.336 2.117.336 3.377 0 1.316-.134 2.46-.414 3.41-.267.948-.646 1.733-1.13 2.35-.467.618-1.042 1.067-1.7 1.364-.66.292-1.362.44-2.126.44-.854 0-1.61-.197-2.265-.582-.647-.387-1.194-.924-1.64-1.625-.442-.7-.78-1.524-1.007-2.494-.232-.98-.348-2.038-.348-3.2 0-1.176.116-2.235.353-3.177zM68.522 68.975h.62c.627 0 1.102.18 1.425.538.22.253.343.904.343 1.94V82.16c0 .943-.098 1.547-.28 1.807-.296.447-.793.672-1.487.672h-.62v.455h7.4c1.523 0 2.867-.21 4.03-.627 1.16-.412 2.126-.99 2.904-1.725.78-.742 1.36-1.626 1.764-2.65.392-1.02.588-2.148.588-3.37 0-1.726-.39-3.24-1.183-4.55-.786-1.304-1.82-2.237-3.12-2.806-1.28-.557-3.168-.84-5.637-.84H68.52v.45zm4.727.83c.47-.112.922-.2 1.33-.26.418-.065.81-.094 1.175-.094.968 0 1.865.174 2.68.52.82.34 1.524.832 2.11 1.467.59.64 1.058 1.417 1.39 2.326.332.917.495 1.94.495 3.082 0 1.128-.17 2.152-.506 3.065-.33.91-.79 1.69-1.38 2.326-.59.64-1.283 1.135-2.077 1.48-.805.345-1.676.517-2.613.517-.715 0-1.58-.115-2.604-.342V69.805zM87.223 68.975h.61c.627 0 1.106.18 1.42.538.226.253.345.904.345 1.94V82.16c0 .943-.092 1.547-.27 1.807-.306.447-.79.672-1.495.672h-.61v.455h7.395c1.525 0 2.863-.21 4.026-.627 1.16-.412 2.13-.99 2.907-1.725.782-.742 1.37-1.626 1.767-2.65.396-1.02.58-2.148.58-3.37 0-1.726-.384-3.24-1.18-4.55-.776-1.304-1.817-2.237-3.114-2.806-1.282-.557-3.17-.84-5.642-.84h-6.737v.45zm4.722.83c.474-.112.914-.2 1.33-.26.415-.065.805-.094 1.17-.094.975 0 1.866.174 2.688.52.813.34 1.518.832 2.105 1.467.592.64 1.054 1.417 1.387 2.326.328.917.504 1.94.504 3.082 0 1.128-.177 2.152-.515 3.065-.33.91-.797 1.69-1.387 2.326-.585.64-1.27 1.135-2.068 1.48-.81.345-1.678.517-2.613.517-.72 0-1.593-.115-2.602-.342V69.805zM117.665 82.63c.258-.562.38-1.15.38-1.768 0-.728-.128-1.346-.396-1.865-.27-.513-.625-.977-1.075-1.378-.45-.403-.977-.773-1.577-1.112-.593-.327-1.22-.674-1.88-1.02-.588-.307-1.13-.602-1.63-.874-.503-.264-.937-.54-1.308-.823-.363-.28-.66-.598-.877-.936-.206-.334-.316-.73-.316-1.19 0-.324.074-.64.227-.942.143-.313.355-.583.615-.818.267-.235.576-.426.928-.568.357-.146.75-.214 1.165-.214.375 0 .74.055 1.116.158.367.1.72.238 1.055.424.328.18.627.404.91.662.283.262.518.56.704.885.385.652.644 1.524.795 2.63h.456v-5.735h-.455c-.078.387-.19.638-.328.76-.132.13-.305.192-.518.192-.202 0-.52-.1-.962-.303-1.005-.43-1.94-.65-2.797-.65-.702 0-1.35.12-1.937.353-.597.228-1.106.544-1.53.942-.44.4-.778.864-1.017 1.395-.243.526-.37 1.084-.37 1.67 0 .702.138 1.306.395 1.812.266.505.624.954 1.064 1.34.437.4.946.767 1.52 1.09l1.784 1.048c.55.322 1.067.62 1.564.88.49.263.923.534 1.295.823.363.282.667.604.882.97.222.362.327.806.327 1.336 0 .356-.068.7-.224 1.033-.153.326-.366.62-.656.865-.288.25-.625.447-1.044.59-.404.15-.86.225-1.37.225-.43 0-.847-.056-1.27-.15-.407-.105-.793-.248-1.144-.427-.354-.185-.674-.407-.957-.657-.287-.25-.52-.53-.704-.814-.174-.31-.34-.678-.477-1.12-.146-.444-.267-.964-.38-1.56h-.443v5.68h.444c.06-.384.15-.64.26-.753.125-.13.283-.188.487-.188.036 0 .108.013.232.034.108.023.264.057.428.1.174.04.36.09.563.152.21.062.404.127.602.2.27.106.512.19.715.25.193.065.39.11.58.14.184.027.38.04.585.055.204.01.444.01.737.01.76 0 1.464-.124 2.11-.372.634-.25 1.183-.58 1.644-.998.46-.424.818-.91 1.07-1.47zM60.388 108.332h-.598c-.403 0-.776-.096-1.12-.297-.156-.075-.277-.17-.358-.26-.094-.092-.164-.21-.207-.37-.046-.154-.074-.353-.09-.6-.016-.245-.02-.563-.02-.96v-5.195h3.01c.425 0 .753.043 1.038.13.27.08.483.216.652.405.164.193.284.43.35.717.077.3.126.648.126 1.07h.45v-5.607h-.45c-.06.457-.14.824-.23 1.123-.103.293-.233.52-.408.695-.166.168-.38.29-.628.357-.25.063-.544.09-.9.09h-3.01v-6.505h3.647c.543 0 1.002.028 1.39.09.39.063.734.187 1.028.384.286.19.533.47.73.83.2.358.384.837.547 1.433h.263V92.22h-12.32v.446h.582c.394 0 .77.104 1.128.293.147.086.25.17.34.258.093.088.153.215.195.37.05.162.085.368.096.612.01.242.02.56.02.95v10.695c0 1.003-.1 1.638-.29 1.89-.3.396-.8.596-1.49.596h-.583v.456h7.11v-.454zM75.132 108.332h-.596c-.39 0-.763-.096-1.115-.297-.146-.075-.266-.17-.356-.26-.084-.092-.153-.21-.196-.37-.046-.154-.073-.353-.094-.6-.01-.245-.027-.563-.027-.96V95.153c0-1.002.1-1.627.307-1.88.3-.4.792-.605 1.482-.605h.596v-.446H68.03v.447h.59c.39 0 .765.104 1.124.293.157.087.266.17.35.26.085.087.15.214.195.37.044.16.08.367.09.61.017.243.027.56.027.952v10.694c0 1.003-.103 1.638-.295 1.89-.303.396-.805.596-1.493.596h-.59v.455h7.102v-.455zM81.89 101.057c.124.008.24.01.346.01.128 0 .28-.002.448-.01.166-.002.35-.01.564-.018l5.606 7.747h4.422v-.455c-.894-.096-1.632-.328-2.196-.682-.546-.357-1.226-1.076-2.014-2.176l-3.423-4.75c.693-.158 1.295-.373 1.81-.64.513-.267.937-.587 1.274-.952.34-.37.584-.77.748-1.214.172-.446.25-.925.25-1.437 0-.476-.078-.917-.246-1.33-.16-.413-.37-.792-.644-1.124-.268-.334-.586-.625-.947-.87-.364-.24-.756-.43-1.174-.548-.844-.262-2.14-.39-3.878-.39h-6.04v.447h.618c.634 0 1.098.188 1.42.542.23.254.34.902.34 1.943v10.694c0 .95-.087 1.55-.256 1.804-.31.453-.807.682-1.504.682h-.62v.455H83.9v-.455h-.653c-.62 0-1.08-.18-1.393-.537-.225-.256-.344-.902-.344-1.948v-4.808c.132.01.263.018.38.02zm-.38-7.676c.404-.08.773-.138 1.09-.18.32-.04.588-.052.83-.052.527 0 1 .084 1.438.254.436.174.81.416 1.12.725.312.305.554.676.728 1.105.163.43.26.895.26 1.408 0 .52-.106 1.002-.3 1.45-.202.44-.498.825-.897 1.153-.402.324-.903.578-1.5.758-.597.19-1.294.276-2.08.276-.08 0-.174 0-.285-.002s-.25-.008-.404-.008V93.38zM113.326 93.307c.295-.428.8-.64 1.502-.64h.575v-.446h-4.688l-5.915 12.962-6.01-12.96H94.1v.445c.34 0 .63.024.867.062.236.044.436.103.6.17.17.077.307.163.406.26.096.105.17.222.225.343.167.344.248.873.248 1.592v10.816c0 .94-.09 1.536-.273 1.79-.29.422-.78.633-1.485.633H94.1v.455h5.767v-.455h-.584c-.652 0-1.13-.176-1.43-.518-.223-.246-.335-.883-.335-1.904V94.847l6.4 13.94h.405l6.392-13.94v11.064c0 .938-.09 1.535-.266 1.79-.29.42-.792.632-1.495.632h-.584v.455h7.033v-.455h-.575c-.645 0-1.12-.176-1.428-.518-.225-.246-.34-.883-.34-1.904V95.094c.002-.94.09-1.535.266-1.787zM69.912 129.294h-.452c-.17.31-.366.55-.554.728-.177.17-.406.31-.668.404-.256.094-.576.146-.95.174-.374.03-.834.037-1.383.037h-4.33c.266-.223.702-.674 1.33-1.336.63-.66 1.462-1.556 2.475-2.67 1.354-1.48 2.337-2.88 2.932-4.19.4-.844.584-1.676.584-2.518 0-.58-.12-1.13-.354-1.654-.244-.523-.573-.986-.984-1.387-.435-.4-.925-.714-1.508-.952-.58-.234-1.198-.35-1.87-.35-.633 0-1.215.102-1.744.305-.53.202-1 .504-1.403.898-.403.405-.75.887-1.02 1.468-.263.582-.46 1.246-.552 2.008h.45c.15-.47.353-.87.6-1.23.24-.347.522-.642.828-.874.317-.236.66-.412 1.03-.53.368-.122.758-.175 1.166-.175.442 0 .864.088 1.26.262.396.18.75.43 1.044.75.295.315.536.7.706 1.142.176.443.267.924.267 1.443 0 1.38-.58 2.9-1.763 4.557-.576.842-1.38 1.79-2.392 2.854-1.013 1.066-2.228 2.252-3.676 3.574v.45h9.767l1.165-3.186zM74.12 130.455c.477.734 1.03 1.303 1.652 1.707.625.41 1.283.61 1.985.61.323 0 .66-.048 1.02-.16.342-.11.686-.263 1.006-.464.33-.193.634-.426.925-.677.288-.262.542-.54.75-.834.337-.468.61-.95.832-1.447.218-.505.395-1.028.536-1.57.128-.546.227-1.116.282-1.71.06-.6.08-1.215.08-1.866 0-2.75-.63-4.925-1.888-6.528-1.018-1.29-2.157-1.938-3.416-1.938-.543 0-1.04.102-1.502.313-.458.214-.877.5-1.258.853-.37.354-.72.76-1.017 1.23-.3.46-.558.943-.773 1.45-.57 1.35-.855 2.968-.855 4.872 0 1.247.152 2.396.44 3.44.295 1.046.695 1.95 1.2 2.72zm.833-7.976c.047-.712.137-1.435.237-2.166.174-1.247.507-2.214.982-2.9.464-.688 1.033-1.03 1.694-1.03.58 0 1.055.197 1.413.592.373.393.678.998.936 1.8.386 1.263.585 2.84.585 4.73 0 1.285-.05 2.416-.14 3.395-.094.98-.232 1.825-.416 2.528-.13.47-.286.86-.472 1.19-.18.325-.394.593-.61.796-.213.21-.448.36-.683.455-.236.09-.47.14-.683.14-.527 0-.98-.214-1.36-.632-.375-.42-.683-.985-.908-1.717-.227-.672-.393-1.434-.494-2.29-.106-.868-.16-1.788-.16-2.77 0-.705.024-1.414.077-2.12zM89.932 131.36c-.05.1-.092.187-.163.27-.06.078-.17.145-.31.21-.14.05-.325.098-.565.134-.234.025-.555.047-.953.055v.45h6.227v-.45c-.733-.01-1.233-.075-1.493-.208-.115-.057-.225-.12-.3-.182-.087-.068-.142-.17-.188-.32-.042-.146-.07-.352-.085-.627-.022-.273-.027-.65-.027-1.13v-13.985h-.4l-4.027 1.965.18.376c.53-.254.95-.377 1.264-.377.206 0 .384.057.53.182.147.123.26.314.322.578.076.322.12 1.098.12 2.314v8.946c-.002.978-.046 1.574-.134 1.796zM102.06 128.455c-1.01 1.066-2.235 2.252-3.667 3.574v.45h9.762l1.167-3.187h-.452c-.182.31-.366.55-.546.728-.19.17-.42.312-.677.405-.264.094-.58.146-.95.174-.382.028-.84.036-1.382.036h-4.328c.257-.223.693-.674 1.322-1.336.635-.66 1.462-1.557 2.478-2.67 1.354-1.482 2.332-2.88 2.93-4.19.388-.845.587-1.677.587-2.52 0-.58-.123-1.13-.363-1.653-.236-.523-.56-.986-.984-1.387s-.918-.715-1.5-.953c-.58-.234-1.202-.35-1.87-.35-.634 0-1.216.102-1.752.305-.52.202-.992.504-1.392.898-.412.404-.748.886-1.023 1.467-.257.582-.455 1.246-.555 2.008h.448c.158-.47.355-.87.602-1.23.246-.347.52-.642.832-.874.313-.235.66-.41 1.03-.528.368-.123.76-.176 1.16-.176.446 0 .864.088 1.258.262.405.182.752.43 1.05.75.298.316.535.7.704 1.143.18.444.264.925.264 1.444 0 1.38-.586 2.9-1.756 4.557-.587.843-1.387 1.793-2.397 2.855zM18.868 139.057c12.904 16.313 31.108 12.334 31.108 12.334-4.552-5.693-31.108-12.333-31.108-12.333zM51.495 148.547c-.568-12.52-16.122-25.797-16.122-25.797 3.798 20.86 16.122 25.797 16.122 25.797zM7.59 114.69c8.062 22.286 25.604 25.317 25.604 25.317.19-4.36-25.604-25.318-25.604-25.318zM26.08 109.19c-.665 14.51 9.393 29.866 9.393 29.866 1.135-11.853-9.394-29.867-9.394-29.867zM18.494 117.912C15.27 102.93.57 91.557.57 91.557c3.418 16.02 17.924 26.355 17.924 26.355zM20.2 87.375c-5.023 16.506 0 29.305 0 29.305 4.552-13.37 0-29.305 0-29.305zM12.997 95.057c5.87-7.393 6.257-24.277 6.257-24.277-12.8 17.262-6.257 24.277-6.257 24.277zM10.15 94.3C9.87 83.874 0 64.72 0 64.72-.09 87.374 10.15 94.3 10.15 94.3zM10.91 72.584C22.48 62.53 25.414 49.826 25.414 49.826 9.3 62.913 10.91 72.584 10.91 72.584zM10.062 40.25C.19 59.5 8.822 72.68 8.822 72.68c5.407-11.948 1.24-32.43 1.24-32.43zM16.98 51.816c9.29-1.608 14.506-15.458 14.506-15.458-18.302 11.1-14.506 15.458-14.506 15.458zM20.49 26.785C9.2 36.55 14.32 49.917 14.32 49.917c4.934-11.185 6.17-23.132 6.17-23.132zM25.608 34.084c8.252 1.135 14.608-9.672 14.608-9.672-14.893 5.876-14.608 9.672-14.608 9.672zM34.144 14.74C22.294 19.673 23.71 32.096 23.71 32.096c1.52-.762 10.434-17.354 10.434-17.354zM41.354 12.56s2.128-2.704 3.458-3.604c0 0-8.774.333-10.862 11.76 0 0 3.225-2.087 7.404-8.156zM34.763 23.37c6.825 2.225 13.6-5.738 13.6-5.738-13.32 2.512-13.6 5.737-13.6 5.737zM49.792 9.715c.707-.854 4.023-4.08 4.023-4.08-7.153.854-8.813 7.73-8.813 7.73 1.615.663 4.07-2.8 4.79-3.65zM45.57 15.354c2.466 2.75 10.81-2.7 10.81-2.7-8.106-.19-10.81 2.7-10.81 2.7zM54.674 9.052c4.318-2.374 8.44-5.834 8.44-5.834-6.827.376-8.44 5.834-8.44 5.834zM63.727 9.29c-8.862-1-9.053 1.558-9.053 1.558 7.64 1.14 9.053-1.56 9.053-1.56zM63.35 5.827c.9.234 8.108-4.368 8.108-4.368C66.53.61 63.35 5.826 63.35 5.826zM71.51 7.012c-7.112-1.61-8.256.374-8.256.374 5.17 1.853 8.255-.374 8.255-.374zM71.978 3.457C75.772 2.647 78.856.51 78.856.51c-4.36-.708-6.878 2.947-6.878 2.947zM78.477 5.163c-5.456-2.134-6.5-.38-6.5-.38 3.46 1.85 6.5.38 6.5.38zM75.82 3.55c6.21-.093 6.832-1.136 6.832-1.136-4.602-1.38-6.83 1.137-6.83 1.137zM118.023 151.39s18.2 3.98 31.106-12.333c0 0-26.558 6.64-31.107 12.334zM132.627 122.75s-15.553 13.277-16.123 25.797c0 0 12.323-4.936 16.123-25.797zM134.805 140.008s17.54-3.03 25.602-25.318c0 0-25.796 20.958-25.602 25.318zM132.525 139.057s10.057-15.357 9.393-29.867c0 0-10.523 18.013-9.393 29.867zM149.504 117.912s14.508-10.336 17.922-26.355c0 0-14.7 11.373-17.922 26.355zM147.8 116.68s5.015-12.8 0-29.305c0 0-4.554 15.934 0 29.305zM148.742 70.78s.388 16.884 6.26 24.276c0 0 6.54-7.014-6.26-24.277zM168 64.72s-9.867 19.153-10.158 29.58c0 0 10.246-6.925 10.158-29.58zM142.582 49.826s2.936 12.703 14.508 22.758c0 0 1.61-9.67-14.508-22.758zM157.938 40.25s-4.17 20.482 1.24 32.43c0 0 8.627-13.18-1.24-32.43zM151.02 51.816s3.792-4.36-14.508-15.458c0 0 5.213 13.85 14.508 15.458zM147.507 26.785s1.235 11.947 6.17 23.132c0 0 5.12-13.367-6.17-23.132zM142.39 34.084s.288-3.796-14.608-9.672c0 0 6.355 10.807 14.61 9.672zM144.288 32.095s1.42-12.423-10.437-17.354c.002 0 8.92 16.593 10.438 17.355zM126.643 12.56c4.183 6.07 7.406 8.156 7.406 8.156-2.09-11.427-10.862-11.76-10.862-11.76 1.33.9 3.455 3.604 3.455 3.604zM133.242 23.37s-.285-3.227-13.608-5.738c0 0 6.776 7.963 13.608 5.737zM118.205 9.715c.717.85 3.178 4.313 4.793 3.65 0 0-1.662-6.876-8.814-7.73 0 0 3.312 3.225 4.02 4.08zM122.43 15.354s-2.707-2.89-10.813-2.7c0 0 8.35 5.45 10.813 2.7zM104.885 3.218s4.123 3.46 8.438 5.834c0 0-1.613-5.458-8.438-5.834zM104.27 9.29s1.422 2.7 9.054 1.558c0 0-.19-2.56-9.054-1.56zM96.54 1.46s7.206 4.6 8.112 4.367c0 0-3.18-5.218-8.113-4.368zM104.742 7.386s-1.138-1.984-8.25-.374c0 0 3.08 2.227 8.25.374zM89.143.51s3.08 2.138 6.87 2.947c0 0-2.51-3.655-6.87-2.946zM96.014 4.783s-1.04-1.754-6.488.38c0 0 3.035 1.47 6.488-.38zM92.176 3.55s-2.228-2.515-6.826-1.136c0 0 .613 1.043 6.826 1.137zM88.52 150.23h4.714l-2.326-5.705zM79.706 147.785c.248-.115.47-.256.66-.43.19-.172.357-.363.492-.58.12-.22.22-.45.285-.7.067-.25.1-.513.1-.778 0-.406-.085-.79-.246-1.154-.167-.363-.417-.683-.738-.95-.323-.27-.723-.485-1.203-.644-.474-.163-1.03-.24-1.66-.24-.69 0-1.288.07-1.817.23v5.425c.507.094 1.142.148 1.906.148.993 0 1.736-.113 2.22-.328zM80.597 149.756c-.35-.285-.795-.512-1.332-.682-.535-.164-1.17-.242-1.898-.242-.42 0-.786.003-1.078.014-.292.014-.526.04-.71.074v5.792c.766.185 1.546.282 2.308.282.617 0 1.162-.08 1.632-.23.47-.155.856-.36 1.178-.637.318-.26.548-.58.713-.93.157-.354.24-.74.24-1.156 0-.445-.086-.873-.263-1.26-.17-.39-.43-.735-.79-1.024zM115.412 141.053s-6.074-.28-5.596-5.217c0 0-22.665 3.13-52.82-.096 0 0 2.37 3.797-5.402 5.313 0 0 10.432 7.588-.196 15.645 0 0 7.593.475 5.22 5.883 0 0 25.89-4.175 54.142-.665 0 0-1.422-4.646 4.652-5.027 0 0-10.15-6.544 0-15.835zm-44.273 7.37h-.26c-.225 0-.427.02-.59.078-.163.05-.297.156-.396.3-.112.142-.18.347-.227.624-.047.268-.074.62-.074 1.06v4.32c-.4.226-.797.415-1.17.565-.382.163-.77.29-1.156.392-.382.096-.78.178-1.187.22-.413.05-.844.077-1.31.077-2.647 0-4.66-.876-6.034-2.63-1.036-1.305-1.548-2.822-1.548-4.54 0-.483.047-.96.14-1.442.095-.482.228-.955.4-1.414.178-.455.396-.895.648-1.314.26-.422.55-.81.86-1.166.682-.77 1.446-1.348 2.317-1.718.866-.362 1.826-.552 2.903-.552.312 0 .584.016.83.04.23.022.465.06.687.114.222.05.452.12.7.205.244.084.542.192.883.322.363.145.62.215.754.215.126 0 .23-.06.327-.186.084-.113.143-.355.164-.71h.376l.353 4.458h-.354c-.35-1.1-.815-1.94-1.383-2.512-.83-.81-1.877-1.217-3.15-1.217-1.74 0-3.08.715-3.99 2.133-.758 1.207-1.142 2.637-1.142 4.297 0 1.346.26 2.574.76 3.685.225.495.495.937.803 1.335.312.393.655.73 1.04 1.008.386.28.794.493 1.25.647.45.156.925.227 1.42.227.513 0 .994-.063 1.466-.193.468-.136.93-.325 1.37-.583v-4.082c0-.365-.01-.654-.038-.875-.02-.213-.066-.39-.117-.518-.058-.14-.125-.234-.206-.307-.082-.063-.186-.13-.288-.186-.214-.116-.595-.18-1.158-.18v-.395h5.323v.397zm12.69 4.483c-.117.345-.268.666-.485.97-.203.302-.464.58-.767.82-.29.247-.63.446-1.012.6-.747.29-1.89.44-3.442.44h-6.478v-.393h.517c.563 0 .983-.184 1.24-.555.15-.242.232-.766.232-1.555v-9.125c0-.867-.104-1.42-.3-1.654-.256-.31-.654-.46-1.17-.46h-.518v-.386h5.938c1.103 0 1.99.08 2.66.248.505.127.95.31 1.338.533.388.228.716.495.976.802.262.305.463.644.595 1.012.138.375.206.764.206 1.173 0 .71-.205 1.343-.626 1.9-.413.563-1.04.978-1.85 1.245.56.133 1.025.297 1.437.51.387.218.71.468.965.762.245.29.427.617.548.965.113.353.168.72.168 1.104 0 .353-.056.69-.17 1.042zm14.938 2.83h-5.404v-.393c.26-.01.488-.04.676-.088.178-.047.32-.113.43-.19.096-.077.17-.167.225-.263.035-.09.06-.2.06-.316.007-.162-.024-.358-.103-.59-.06-.244-.166-.525-.302-.86l-.835-2.03H88.2l-.93 2.23c-.225.542-.34.946-.34 1.23 0 .11.02.21.052.306.037.092.116.176.242.258.11.08.263.148.474.197.214.055.483.096.823.117v.393H84.2v-.393c.57-.102.937-.234 1.106-.4.18-.164.36-.422.547-.758.19-.338.392-.764.605-1.273l4.832-11.63h.358l4.77 11.755c.2.484.374.875.546 1.17.16.294.335.523.505.69.177.16.37.27.578.337.2.063.448.1.727.11v.39zm11.48-11.02h-.224c-.136-.51-.283-.915-.448-1.224-.172-.304-.37-.54-.605-.705-.242-.168-.525-.275-.85-.33-.32-.05-.7-.076-1.155-.076h-3.027v5.55h2.51c.283 0 .537-.03.748-.084.2-.055.367-.15.51-.3.146-.147.252-.34.342-.6.072-.245.144-.563.188-.952h.373v4.78h-.374c0-.35-.037-.655-.103-.907-.06-.248-.165-.457-.293-.615-.134-.158-.313-.277-.548-.352-.22-.068-.506-.1-.845-.1h-2.51v4.434c0 .332.013.6.022.807.01.214.038.384.075.515.04.137.096.236.17.32.078.076.174.154.302.22.28.17.595.25.92.25h.51v.392h-5.905v-.393h.483c.58 0 .986-.166 1.24-.51.17-.21.24-.75.24-1.6v-9.125c0-.333-.01-.606-.013-.817-.018-.21-.042-.38-.075-.51-.042-.137-.092-.242-.163-.322-.08-.073-.177-.15-.29-.22-.3-.164-.61-.246-.94-.246h-.482v-.385h10.217v3.107z"/></g></svg>