<svg xmlns="http://www.w3.org/2000/svg" width="140" height="140" viewBox="0 0 140 140"><path fill="#F3F3F3" d="M1 1h138v138h-138z"/><path fill="#CDCCCC" d="M138 2v136h-136v-136h136m2-2h-140v140h140v-140z"/><path d="M6.877 14.322v-.432l.552-.536c1.327-1.263 1.935-1.935 1.935-2.718 0-.528-.248-1.015-1.023-1.015-.472 0-.864.24-1.104.439l-.224-.495c.352-.296.872-.528 1.471-.528 1.111 0 1.583.768 1.583 1.511 0 .959-.695 1.735-1.791 2.791l-.408.384v.016h2.327v.584h-3.318zM12.637 14.41c-1.016 0-1.711-.951-1.728-2.67 0-1.751.76-2.703 1.815-2.703 1.087 0 1.719.976 1.719 2.631 0 1.767-.664 2.742-1.799 2.742h-.007zm.039-.544c.712 0 1.056-.839 1.056-2.167 0-1.279-.32-2.119-1.056-2.119-.64 0-1.055.815-1.055 2.119-.016 1.351.4 2.167 1.047 2.167h.008zM16.612 9.781h-.016l-.904.488-.136-.536 1.135-.608h.6v5.197h-.68v-4.541zM21.364 14.322v-1.423h-2.415v-.456l2.318-3.318h.76v3.23h.728v.543h-.728v1.423h-.663zm0-1.967v-1.735c0-.271.008-.543.024-.815h-.024c-.16.304-.288.528-.432.768l-1.271 1.767v.016h1.703zM25.148 11.908v.512h-1.975v-.512h1.975zM27.404 14.41c-1.016 0-1.711-.951-1.728-2.67 0-1.751.76-2.703 1.815-2.703 1.087 0 1.719.976 1.719 2.631 0 1.767-.664 2.742-1.799 2.742h-.007zm.04-.544c.712 0 1.056-.839 1.056-2.167 0-1.279-.32-2.119-1.056-2.119-.64 0-1.055.815-1.055 2.119-.016 1.351.4 2.167 1.047 2.167h.008zM32.028 14.322v-1.423h-2.415v-.456l2.318-3.318h.76v3.23h.728v.543h-.728v1.423h-.663zm0-1.967v-1.735c0-.271.008-.543.024-.815h-.024c-.16.304-.288.528-.432.768l-1.271 1.767v.016h1.703zM35.812 11.908v.512h-1.975v-.512h1.975zM37.939 9.781h-.016l-.904.488-.136-.536 1.135-.608h.6v5.197h-.68v-4.541zM42.26 9.037c1.007 0 1.519.624 1.519 1.279 0 .44-.224.919-.864 1.215v.024c.648.256 1.048.72 1.048 1.343 0 .912-.776 1.511-1.767 1.511-1.087 0-1.743-.64-1.743-1.399 0-.655.392-1.127 1.023-1.399v-.024c-.583-.272-.832-.72-.832-1.167 0-.824.695-1.383 1.607-1.383h.009zm-.049 4.861c.632 0 1.04-.392 1.04-.928 0-.623-.439-.935-1.144-1.135-.607.176-.935.583-.935 1.079-.024.52.375.983 1.031.983h.008zm.009-4.357c-.584 0-.904.384-.904.832-.008.52.392.799.992.959.448-.152.792-.472.792-.943 0-.416-.248-.848-.872-.848h-.008zM47.972 14.41c-1.016 0-1.711-.951-1.728-2.67 0-1.751.76-2.703 1.815-2.703 1.087 0 1.719.976 1.719 2.631 0 1.767-.664 2.742-1.799 2.742h-.007zm.039-.544c.712 0 1.056-.839 1.056-2.167 0-1.279-.32-2.119-1.056-2.119-.64 0-1.055.815-1.055 2.119-.016 1.351.4 2.167 1.047 2.167h.008zM53.387 9.621c-.144-.008-.328.008-.528.04-1.111.176-1.687.975-1.807 1.839h.016c.248-.336.688-.608 1.263-.608.92 0 1.567.671 1.567 1.679 0 .959-.647 1.839-1.735 1.839-1.104 0-1.831-.863-1.831-2.215 0-1.023.36-1.831.879-2.343.432-.424 1.007-.688 1.663-.768.208-.032.384-.04.512-.04v.577zm-1.208 4.245c.6 0 1.008-.503 1.008-1.247s-.424-1.191-1.072-1.191c-.424 0-.823.256-1.015.64-.04.08-.072.176-.072.304.008.855.408 1.495 1.144 1.495h.007zM55.052 11.588c-.272 0-.464-.216-.464-.496 0-.296.2-.503.472-.503.288 0 .472.208.472.503 0 .28-.184.496-.472.496h-.008zm0 2.822c-.272 0-.464-.216-.464-.496 0-.296.2-.504.472-.504.288 0 .472.208.472.504 0 .28-.184.496-.472.496h-.008zM57.835 14.41c-1.015 0-1.711-.951-1.727-2.67 0-1.751.759-2.703 1.815-2.703 1.087 0 1.719.976 1.719 2.631 0 1.767-.664 2.742-1.799 2.742h-.008zm.04-.544c.712 0 1.056-.839 1.056-2.167 0-1.279-.32-2.119-1.056-2.119-.64 0-1.055.815-1.055 2.119-.016 1.351.4 2.167 1.047 2.167h.008zM60.452 13.522c.2.12.656.32 1.151.32.896 0 1.183-.568 1.175-1.008-.008-.728-.664-1.039-1.343-1.039h-.392v-.528h.392c.512 0 1.159-.264 1.159-.879 0-.416-.264-.784-.912-.784-.416 0-.815.184-1.039.344l-.192-.512c.28-.2.808-.4 1.367-.4 1.023 0 1.487.607 1.487 1.239 0 .544-.328 1-.959 1.231v.016c.64.12 1.159.6 1.159 1.327 0 .832-.656 1.559-1.895 1.559-.583 0-1.095-.184-1.351-.352l.193-.534zM64.916 11.588c-.272 0-.464-.216-.464-.496 0-.296.2-.503.472-.503.288 0 .472.208.472.503 0 .28-.184.496-.472.496h-.008zm0 2.822c-.272 0-.464-.216-.464-.496 0-.296.2-.504.472-.504.288 0 .472.208.472.504 0 .28-.184.496-.472.496h-.008zM67.698 14.41c-1.015 0-1.711-.951-1.727-2.67 0-1.751.759-2.703 1.815-2.703 1.087 0 1.719.976 1.719 2.631 0 1.767-.664 2.742-1.799 2.742h-.008zm.04-.544c.712 0 1.056-.839 1.056-2.167 0-1.279-.32-2.119-1.056-2.119-.64 0-1.055.815-1.055 2.119-.016 1.351.4 2.167 1.047 2.167h.008zM73.25 9.717h-1.983l-.2 1.335c.121-.016.232-.032.424-.032.408 0 .8.088 1.119.28.408.224.744.68.744 1.335 0 1.015-.808 1.775-1.935 1.775-.568 0-1.04-.16-1.295-.32l.176-.536c.216.128.64.288 1.12.288.655 0 1.231-.432 1.224-1.136 0-.664-.456-1.144-1.488-1.144-.303 0-.535.024-.727.056l.336-2.495h2.487v.594zM91.795 13.522c.2.12.656.32 1.152.32.895 0 1.183-.568 1.175-1.008-.008-.728-.663-1.039-1.343-1.039h-.393v-.528h.393c.512 0 1.158-.264 1.158-.879 0-.416-.264-.784-.911-.784-.415 0-.815.184-1.039.344l-.192-.512c.28-.2.809-.4 1.367-.4 1.023 0 1.488.607 1.488 1.239 0 .544-.328 1-.96 1.231v.016c.64.12 1.159.6 1.159 1.327 0 .832-.656 1.559-1.895 1.559-.584 0-1.096-.184-1.352-.352l.193-.534zM95.899 13.522c.2.12.655.32 1.151.32.896 0 1.184-.568 1.176-1.008-.009-.728-.664-1.039-1.344-1.039h-.392v-.528h.392c.512 0 1.159-.264 1.159-.879 0-.416-.264-.784-.911-.784-.416 0-.816.184-1.039.344l-.192-.512c.28-.2.808-.4 1.367-.4 1.023 0 1.487.607 1.487 1.239 0 .544-.328 1-.959 1.231v.016c.639.12 1.158.6 1.158 1.327 0 .832-.655 1.559-1.895 1.559-.584 0-1.096-.184-1.352-.352l.194-.534zM101.49 14.41c-1.016 0-1.711-.951-1.727-2.67 0-1.751.76-2.703 1.814-2.703 1.088 0 1.719.976 1.719 2.631 0 1.767-.663 2.742-1.799 2.742h-.007zm.04-.544c.712 0 1.056-.839 1.056-2.167 0-1.279-.32-2.119-1.056-2.119-.64 0-1.056.815-1.056 2.119-.016 1.351.4 2.167 1.048 2.167h.008zM105.466 9.781h-.016l-.903.488-.137-.536 1.136-.608h.6v5.197h-.68v-4.541zM111.01 9.621c-.145-.008-.328.008-.528.04-1.111.176-1.687.975-1.807 1.839h.016c.248-.336.688-.608 1.264-.608.919 0 1.567.671 1.567 1.679 0 .959-.648 1.839-1.735 1.839-1.104 0-1.831-.863-1.831-2.215 0-1.023.359-1.831.879-2.343.432-.424 1.008-.688 1.664-.768.207-.032.383-.04.512-.04v.577zm-1.208 4.245c.6 0 1.008-.503 1.008-1.247s-.424-1.191-1.071-1.191c-.424 0-.824.256-1.016.64-.04.08-.072.176-.072.304.008.855.408 1.495 1.144 1.495h.007zM113.674 9.781h-.016l-.904.488-.135-.536 1.135-.608h.6v5.197h-.68v-4.541zM119.625 9.125v.464l-2.264 4.733h-.719l2.246-4.598v-.015h-2.543v-.584h3.28zM122.01 14.41c-1.016 0-1.711-.951-1.728-2.67 0-1.751.76-2.703 1.815-2.703 1.088 0 1.719.976 1.719 2.631 0 1.767-.664 2.742-1.799 2.742h-.007zm.039-.544c.713 0 1.057-.839 1.057-2.167 0-1.279-.32-2.119-1.057-2.119-.639 0-1.055.815-1.055 2.119-.016 1.351.4 2.167 1.047 2.167h.008zM124.459 14.322v-.432l.551-.536c1.328-1.263 1.936-1.935 1.936-2.718 0-.528-.248-1.015-1.023-1.015-.473 0-.863.24-1.104.439l-.225-.496c.353-.296.872-.528 1.472-.528 1.111 0 1.583.768 1.583 1.511 0 .959-.695 1.735-1.791 2.791l-.408.384v.016h2.327v.584h-3.318zM130.306 9.037c1.007 0 1.519.624 1.519 1.279 0 .44-.224.919-.863 1.215v.024c.648.256 1.048.72 1.048 1.343 0 .912-.776 1.511-1.767 1.511-1.088 0-1.744-.64-1.744-1.399 0-.655.393-1.127 1.023-1.399v-.024c-.583-.272-.831-.72-.831-1.167 0-.824.695-1.383 1.606-1.383h.009zm-.048 4.861c.631 0 1.039-.392 1.039-.928 0-.623-.439-.935-1.144-1.135-.607.176-.935.583-.935 1.079-.024.52.375.983 1.031.983h.009zm.008-4.357c-.584 0-.904.384-.904.832-.008.52.393.799.992.959.447-.152.791-.472.791-.943 0-.416-.248-.848-.871-.848h-.008zM91.795 36.511c.2.12.656.32 1.152.32.895 0 1.183-.568 1.175-1.008-.008-.728-.663-1.039-1.343-1.039h-.393v-.528h.393c.512 0 1.158-.264 1.158-.879 0-.416-.264-.784-.911-.784-.415 0-.815.184-1.039.344l-.192-.512c.28-.2.809-.4 1.367-.4 1.023 0 1.488.607 1.488 1.239 0 .544-.328 1-.96 1.231v.016c.64.12 1.159.6 1.159 1.327 0 .832-.656 1.559-1.895 1.559-.584 0-1.096-.184-1.352-.352l.193-.534zM95.899 36.511c.2.12.655.32 1.151.32.896 0 1.184-.568 1.176-1.008-.009-.728-.664-1.039-1.344-1.039h-.392v-.528h.392c.512 0 1.159-.264 1.159-.879 0-.416-.264-.784-.911-.784-.416 0-.816.184-1.039.344l-.192-.512c.28-.2.808-.4 1.367-.4 1.023 0 1.487.607 1.487 1.239 0 .544-.328 1-.959 1.231v.016c.639.12 1.158.6 1.158 1.327 0 .832-.655 1.559-1.895 1.559-.584 0-1.096-.184-1.352-.352l.194-.534zM101.49 37.398c-1.016 0-1.711-.951-1.727-2.67 0-1.751.76-2.703 1.814-2.703 1.088 0 1.719.976 1.719 2.631 0 1.767-.663 2.742-1.799 2.742h-.007zm.04-.544c.712 0 1.056-.839 1.056-2.167 0-1.279-.32-2.119-1.056-2.119-.64 0-1.056.815-1.056 2.119-.016 1.351.4 2.167 1.048 2.167h.008zM105.466 32.769h-.016l-.903.488-.137-.536 1.136-.608h.6v5.197h-.68v-4.541zM111.417 32.113v.464l-2.263 4.733h-.72l2.247-4.598v-.016h-2.543v-.584h3.279zM115.521 32.113v.464l-2.264 4.733h-.719l2.246-4.598v-.016h-2.543v-.584h3.28zM116.418 36.511c.2.12.656.32 1.152.32.895 0 1.183-.568 1.175-1.008-.008-.728-.663-1.039-1.343-1.039h-.393v-.528h.393c.512 0 1.158-.264 1.158-.879 0-.416-.264-.784-.911-.784-.415 0-.815.184-1.039.344l-.192-.512c.28-.2.809-.4 1.367-.4 1.023 0 1.488.607 1.488 1.239 0 .544-.328 1-.96 1.231v.016c.64.12 1.159.6 1.159 1.327 0 .832-.656 1.559-1.895 1.559-.584 0-1.096-.184-1.352-.352l.193-.534zM123.457 32.705h-1.983l-.2 1.335c.121-.016.232-.032.424-.032.408 0 .8.088 1.119.28.408.224.744.68.744 1.335 0 1.015-.808 1.775-1.935 1.775-.567 0-1.04-.16-1.296-.32l.176-.536c.217.128.641.288 1.12.288.655 0 1.231-.432 1.224-1.136 0-.664-.456-1.144-1.488-1.144-.303 0-.535.024-.727.056l.336-2.495h2.486v.594zM126.201 32.025c1.008 0 1.52.624 1.52 1.279 0 .44-.225.919-.863 1.215v.024c.647.256 1.047.72 1.047 1.343 0 .912-.775 1.511-1.767 1.511-1.087 0-1.743-.64-1.743-1.399 0-.655.392-1.127 1.023-1.399v-.024c-.584-.272-.832-.72-.832-1.167 0-.824.696-1.383 1.607-1.383h.008zm-.048 4.862c.632 0 1.04-.392 1.04-.928 0-.623-.44-.935-1.144-1.135-.608.176-.936.583-.936 1.079-.024.52.376.983 1.031.983h.009zm.009-4.358c-.584 0-.904.384-.904.832-.008.52.393.799.992.959.447-.152.791-.472.791-.943 0-.416-.248-.848-.871-.848h-.008zM130.306 32.025c1.007 0 1.519.624 1.519 1.279 0 .44-.224.919-.863 1.215v.024c.648.256 1.048.72 1.048 1.343 0 .912-.776 1.511-1.767 1.511-1.088 0-1.744-.64-1.744-1.399 0-.655.393-1.127 1.023-1.399v-.024c-.583-.272-.831-.72-.831-1.167 0-.824.695-1.383 1.606-1.383h.009zm-.048 4.862c.631 0 1.039-.392 1.039-.928 0-.623-.439-.935-1.144-1.135-.607.176-.935.583-.935 1.079-.024.52.375.983 1.031.983h.009zm.008-4.358c-.584 0-.904.384-.904.832-.008.52.393.799.992.959.447-.152.791-.472.791-.943 0-.416-.248-.848-.871-.848h-.008z"/><path stroke="#CDCCCC" stroke-width="2" fill="none" d="M140 45.909h-140M140 22.693h-140M140 69.125h-140M140 92.34h-140M140 115.556h-140"/><path d="M6.877 37.311v-.432l.552-.536c1.327-1.263 1.935-1.935 1.935-2.718 0-.528-.248-1.015-1.023-1.015-.472 0-.864.24-1.104.439l-.224-.496c.352-.296.872-.528 1.471-.528 1.111 0 1.583.768 1.583 1.511 0 .959-.695 1.735-1.791 2.791l-.408.384v.016h2.327v.584h-3.318zM12.637 37.398c-1.016 0-1.711-.951-1.728-2.67 0-1.751.76-2.703 1.815-2.703 1.087 0 1.719.976 1.719 2.631 0 1.767-.664 2.742-1.799 2.742h-.007zm.039-.544c.712 0 1.056-.839 1.056-2.167 0-1.279-.32-2.119-1.056-2.119-.64 0-1.055.815-1.055 2.119-.016 1.351.4 2.167 1.047 2.167h.008zM16.612 32.769h-.016l-.904.488-.136-.536 1.135-.608h.6v5.197h-.68v-4.541zM21.364 37.311v-1.423h-2.415v-.456l2.318-3.318h.76v3.23h.728v.543h-.728v1.423h-.663zm0-1.967v-1.735c0-.271.008-.543.024-.815h-.024c-.16.304-.288.528-.432.768l-1.271 1.767v.016h1.703zM25.148 34.896v.512h-1.975v-.512h1.975zM27.404 37.398c-1.016 0-1.711-.951-1.728-2.67 0-1.751.76-2.703 1.815-2.703 1.087 0 1.719.976 1.719 2.631 0 1.767-.664 2.742-1.799 2.742h-.007zm.04-.544c.712 0 1.056-.839 1.056-2.167 0-1.279-.32-2.119-1.056-2.119-.64 0-1.055.815-1.055 2.119-.016 1.351.4 2.167 1.047 2.167h.008zM32.028 37.311v-1.423h-2.415v-.456l2.318-3.318h.76v3.23h.728v.543h-.728v1.423h-.663zm0-1.967v-1.735c0-.271.008-.543.024-.815h-.024c-.16.304-.288.528-.432.768l-1.271 1.767v.016h1.703zM35.812 34.896v.512h-1.975v-.512h1.975zM37.939 32.769h-.016l-.904.488-.136-.536 1.135-.608h.6v5.197h-.68v-4.541zM42.26 32.025c1.007 0 1.519.624 1.519 1.279 0 .44-.224.919-.864 1.215v.024c.648.256 1.048.72 1.048 1.343 0 .912-.776 1.511-1.767 1.511-1.087 0-1.743-.64-1.743-1.399 0-.655.392-1.127 1.023-1.399v-.024c-.583-.272-.832-.72-.832-1.167 0-.824.695-1.383 1.607-1.383h.009zm-.049 4.862c.632 0 1.04-.392 1.04-.928 0-.623-.439-.935-1.144-1.135-.607.176-.935.584-.935 1.079-.024.52.375.983 1.031.983h.008zm.009-4.358c-.584 0-.904.384-.904.832-.008.52.392.799.992.959.448-.152.792-.472.792-.943 0-.416-.248-.848-.872-.848h-.008zM47.972 37.398c-1.016 0-1.711-.951-1.728-2.67 0-1.751.76-2.703 1.815-2.703 1.087 0 1.719.976 1.719 2.631 0 1.767-.664 2.742-1.799 2.742h-.007zm.039-.544c.712 0 1.056-.839 1.056-2.167 0-1.279-.32-2.119-1.056-2.119-.64 0-1.055.815-1.055 2.119-.016 1.351.4 2.167 1.047 2.167h.008zM53.387 32.609c-.144-.008-.328.008-.528.04-1.111.176-1.687.975-1.807 1.839h.016c.248-.336.688-.608 1.263-.608.92 0 1.567.671 1.567 1.679 0 .959-.647 1.839-1.735 1.839-1.104 0-1.831-.863-1.831-2.215 0-1.023.36-1.831.879-2.343.432-.424 1.007-.688 1.663-.768.208-.032.384-.04.512-.04v.577zm-1.208 4.245c.6 0 1.008-.503 1.008-1.247s-.424-1.191-1.072-1.191c-.424 0-.823.256-1.015.64-.04.08-.072.176-.072.304.008.855.408 1.495 1.144 1.495h.007zM55.052 34.576c-.272 0-.464-.216-.464-.496 0-.296.2-.503.472-.503.288 0 .472.208.472.503 0 .28-.184.496-.472.496h-.008zm0 2.822c-.272 0-.464-.216-.464-.496 0-.296.2-.504.472-.504.288 0 .472.208.472.504 0 .28-.184.496-.472.496h-.008zM57.835 37.398c-1.015 0-1.711-.951-1.727-2.67 0-1.751.759-2.703 1.815-2.703 1.087 0 1.719.976 1.719 2.631 0 1.767-.664 2.742-1.799 2.742h-.008zm.04-.544c.712 0 1.056-.839 1.056-2.167 0-1.279-.32-2.119-1.056-2.119-.64 0-1.055.815-1.055 2.119-.016 1.351.4 2.167 1.047 2.167h.008zM60.452 36.511c.2.12.656.32 1.151.32.896 0 1.183-.568 1.175-1.008-.008-.728-.664-1.039-1.343-1.039h-.392v-.528h.392c.512 0 1.159-.264 1.159-.879 0-.416-.264-.784-.912-.784-.416 0-.815.184-1.039.344l-.192-.512c.28-.2.808-.4 1.367-.4 1.023 0 1.487.607 1.487 1.239 0 .544-.328 1-.959 1.231v.016c.64.12 1.159.6 1.159 1.327 0 .832-.656 1.559-1.895 1.559-.583 0-1.095-.184-1.351-.352l.193-.534zM64.916 34.576c-.272 0-.464-.216-.464-.496 0-.296.2-.503.472-.503.288 0 .472.208.472.503 0 .28-.184.496-.472.496h-.008zm0 2.822c-.272 0-.464-.216-.464-.496 0-.296.2-.504.472-.504.288 0 .472.208.472.504 0 .28-.184.496-.472.496h-.008zM67.698 37.398c-1.015 0-1.711-.951-1.727-2.67 0-1.751.759-2.703 1.815-2.703 1.087 0 1.719.976 1.719 2.631 0 1.767-.664 2.742-1.799 2.742h-.008zm.04-.544c.712 0 1.056-.839 1.056-2.167 0-1.279-.32-2.119-1.056-2.119-.64 0-1.055.815-1.055 2.119-.016 1.351.4 2.167 1.047 2.167h.008zM73.521 32.113v.464l-2.263 4.733h-.72l2.247-4.598v-.016h-2.543v-.584h3.279zM91.795 60.151c.2.12.656.32 1.152.32.895 0 1.183-.568 1.175-1.008-.008-.728-.663-1.039-1.343-1.039h-.393v-.528h.393c.512 0 1.158-.264 1.158-.879 0-.416-.264-.784-.911-.784-.415 0-.815.184-1.039.344l-.192-.512c.28-.2.809-.4 1.367-.4 1.023 0 1.488.607 1.488 1.239 0 .544-.328 1-.96 1.231v.016c.64.12 1.159.6 1.159 1.327 0 .832-.656 1.559-1.895 1.559-.584 0-1.096-.184-1.352-.352l.193-.534zM95.899 60.151c.2.12.655.32 1.151.32.896 0 1.184-.568 1.176-1.008-.009-.728-.664-1.039-1.344-1.039h-.392v-.528h.392c.512 0 1.159-.264 1.159-.879 0-.416-.264-.784-.911-.784-.416 0-.816.184-1.039.344l-.192-.512c.28-.2.808-.4 1.367-.4 1.023 0 1.487.607 1.487 1.239 0 .544-.328 1-.959 1.231v.016c.639.12 1.158.6 1.158 1.327 0 .832-.655 1.559-1.895 1.559-.584 0-1.096-.184-1.352-.352l.194-.534zM101.49 61.039c-1.016 0-1.711-.951-1.727-2.67 0-1.751.76-2.703 1.814-2.703 1.088 0 1.719.976 1.719 2.631 0 1.767-.663 2.742-1.799 2.742h-.007zm.04-.544c.712 0 1.056-.839 1.056-2.167 0-1.279-.32-2.119-1.056-2.119-.64 0-1.056.815-1.056 2.119-.016 1.351.4 2.167 1.048 2.167h.008zM105.466 56.41h-.016l-.903.488-.137-.536 1.136-.608h.6v5.197h-.68v-4.541zM111.417 55.754v.464l-2.263 4.733h-.72l2.247-4.598v-.016h-2.543v-.584h3.279zM115.521 55.754v.464l-2.264 4.733h-.719l2.246-4.598v-.016h-2.543v-.584h3.28zM117.994 55.666c1.007 0 1.519.624 1.519 1.279 0 .44-.224.919-.864 1.215v.024c.648.256 1.048.72 1.048 1.343 0 .912-.775 1.511-1.767 1.511-1.088 0-1.743-.64-1.743-1.399 0-.655.392-1.127 1.023-1.399v-.024c-.584-.272-.831-.72-.831-1.167 0-.824.695-1.383 1.606-1.383h.009zm-.049 4.861c.632 0 1.039-.392 1.039-.928 0-.623-.439-.935-1.143-1.135-.607.176-.936.583-.936 1.079-.024.52.375.983 1.031.983h.009zm.008-4.357c-.584 0-.903.384-.903.832-.008.52.392.799.991.959.448-.152.792-.472.792-.943 0-.416-.248-.848-.872-.848h-.008zM120.354 60.951v-.431l.552-.536c1.327-1.263 1.935-1.935 1.935-2.718 0-.528-.247-1.015-1.023-1.015-.472 0-.863.24-1.103.439l-.225-.496c.352-.296.871-.528 1.471-.528 1.111 0 1.584.768 1.584 1.511 0 .959-.695 1.735-1.791 2.791l-.408.384v.016h2.327v.584h-3.319zM124.459 60.951v-.431l.551-.536c1.328-1.263 1.936-1.935 1.936-2.718 0-.528-.248-1.015-1.023-1.015-.473 0-.863.24-1.104.439l-.225-.496c.353-.296.872-.528 1.472-.528 1.111 0 1.583.768 1.583 1.511 0 .959-.695 1.735-1.791 2.791l-.408.384v.016h2.327v.584h-3.318zM130.306 55.666c1.007 0 1.519.624 1.519 1.279 0 .44-.224.919-.863 1.215v.024c.648.256 1.048.72 1.048 1.343 0 .912-.776 1.511-1.767 1.511-1.088 0-1.744-.64-1.744-1.399 0-.655.393-1.127 1.023-1.399v-.024c-.583-.272-.831-.72-.831-1.167 0-.824.695-1.383 1.606-1.383h.009zm-.048 4.861c.631 0 1.039-.392 1.039-.928 0-.623-.439-.935-1.144-1.135-.607.176-.935.583-.935 1.079-.024.52.375.983 1.031.983h.009zm.008-4.357c-.584 0-.904.384-.904.832-.008.52.393.799.992.959.447-.152.791-.472.791-.943 0-.416-.248-.848-.871-.848h-.008zM6.877 60.952v-.432l.552-.536c1.327-1.263 1.935-1.935 1.935-2.718 0-.528-.248-1.015-1.023-1.015-.472 0-.864.24-1.104.439l-.224-.496c.352-.296.872-.528 1.471-.528 1.111 0 1.583.768 1.583 1.511 0 .959-.695 1.735-1.791 2.791l-.408.384v.016h2.327v.584h-3.318zM12.637 61.04c-1.016 0-1.711-.951-1.728-2.67 0-1.751.76-2.703 1.815-2.703 1.087 0 1.719.976 1.719 2.631 0 1.767-.664 2.742-1.799 2.742h-.007zm.039-.544c.712 0 1.056-.839 1.056-2.167 0-1.279-.32-2.119-1.056-2.119-.64 0-1.055.815-1.055 2.119-.016 1.351.4 2.167 1.047 2.167h.008zM16.612 56.411h-.016l-.904.488-.136-.536 1.135-.608h.6v5.197h-.68v-4.541zM21.364 60.952v-1.423h-2.415v-.456l2.318-3.318h.76v3.23h.728v.543h-.728v1.423h-.663zm0-1.967v-1.735c0-.271.008-.543.024-.815h-.024c-.16.304-.288.528-.432.768l-1.271 1.767v.016h1.703zM25.148 58.538v.512h-1.975v-.512h1.975zM27.404 61.04c-1.016 0-1.711-.951-1.728-2.67 0-1.751.76-2.703 1.815-2.703 1.087 0 1.719.976 1.719 2.631 0 1.767-.664 2.742-1.799 2.742h-.007zm.04-.544c.712 0 1.056-.839 1.056-2.167 0-1.279-.32-2.119-1.056-2.119-.64 0-1.055.815-1.055 2.119-.016 1.351.4 2.167 1.047 2.167h.008zM32.028 60.952v-1.423h-2.415v-.456l2.318-3.318h.76v3.23h.728v.543h-.728v1.423h-.663zm0-1.967v-1.735c0-.271.008-.543.024-.815h-.024c-.16.304-.288.528-.432.768l-1.271 1.767v.016h1.703zM35.812 58.538v.512h-1.975v-.512h1.975zM36.413 60.952v-.432l.552-.536c1.327-1.263 1.935-1.935 1.935-2.718 0-.528-.248-1.015-1.023-1.015-.472 0-.864.24-1.104.439l-.224-.496c.352-.296.872-.528 1.471-.528 1.111 0 1.583.768 1.583 1.511 0 .959-.695 1.735-1.791 2.791l-.408.384v.016h2.327v.584h-3.318zM42.044 56.411h-.016l-.904.488-.136-.536 1.135-.608h.6v5.197h-.679v-4.541zM47.972 61.04c-1.016 0-1.711-.951-1.728-2.67 0-1.751.76-2.703 1.815-2.703 1.087 0 1.719.976 1.719 2.631 0 1.767-.664 2.742-1.799 2.742h-.007zm.039-.544c.712 0 1.056-.839 1.056-2.167 0-1.279-.32-2.119-1.056-2.119-.64 0-1.055.815-1.055 2.119-.016 1.351.4 2.167 1.047 2.167h.008zM50.588 60.152c.2.12.656.32 1.151.32.896 0 1.183-.568 1.175-1.008-.008-.728-.664-1.039-1.343-1.039h-.391v-.528h.392c.512 0 1.159-.264 1.159-.879 0-.416-.264-.784-.912-.784-.416 0-.815.184-1.039.344l-.192-.512c.28-.2.808-.4 1.367-.4 1.023 0 1.487.607 1.487 1.239 0 .544-.328 1-.959 1.231v.016c.64.12 1.159.6 1.159 1.327 0 .832-.656 1.559-1.895 1.559-.583 0-1.095-.184-1.351-.352l.192-.534zM55.052 58.218c-.272 0-.464-.216-.464-.496 0-.296.2-.503.472-.503.288 0 .472.208.472.503 0 .28-.184.496-.472.496h-.008zm0 2.822c-.272 0-.464-.216-.464-.496 0-.296.2-.504.472-.504.288 0 .472.208.472.504 0 .28-.184.496-.472.496h-.008zM57.707 56.411h-.016l-.904.488-.136-.536 1.135-.608h.6v5.197h-.68v-4.541zM60.452 60.152c.2.12.656.32 1.151.32.896 0 1.183-.568 1.175-1.008-.008-.728-.664-1.039-1.343-1.039h-.392v-.528h.392c.512 0 1.159-.264 1.159-.879 0-.416-.264-.784-.912-.784-.416 0-.815.184-1.039.344l-.192-.512c.28-.2.808-.4 1.367-.4 1.023 0 1.487.607 1.487 1.239 0 .544-.328 1-.959 1.231v.016c.64.12 1.159.6 1.159 1.327 0 .832-.656 1.559-1.895 1.559-.583 0-1.095-.184-1.351-.352l.193-.534zM64.916 58.218c-.272 0-.464-.216-.464-.496 0-.296.2-.503.472-.503.288 0 .472.208.472.503 0 .28-.184.496-.472.496h-.008zm0 2.822c-.272 0-.464-.216-.464-.496 0-.296.2-.504.472-.504.288 0 .472.208.472.504 0 .28-.184.496-.472.496h-.008zM67.698 61.04c-1.015 0-1.711-.951-1.727-2.67 0-1.751.759-2.703 1.815-2.703 1.087 0 1.719.976 1.719 2.631 0 1.767-.664 2.742-1.799 2.742h-.008zm.04-.544c.712 0 1.056-.839 1.056-2.167 0-1.279-.32-2.119-1.056-2.119-.64 0-1.055.815-1.055 2.119-.016 1.351.4 2.167 1.047 2.167h.008zM70.555 60.457c.152.008.328 0 .568-.032.408-.048.791-.216 1.088-.496.344-.32.591-.768.688-1.383h-.024c-.288.352-.704.56-1.231.56-.936 0-1.535-.704-1.535-1.6 0-.976.72-1.839 1.783-1.839s1.719.855 1.719 2.191c0 1.143-.384 1.943-.896 2.438-.399.384-.951.632-1.511.696-.256.032-.488.048-.648.04v-.575zm1.271-4.254c-.592 0-1.015.528-1.015 1.263 0 .648.392 1.104 1 1.104.472 0 .84-.231 1.031-.543.032-.064.057-.144.057-.256.008-.896-.328-1.567-1.064-1.567h-.009zM91.795 83.728c.2.12.656.32 1.152.32.895 0 1.183-.567 1.175-1.008-.008-.728-.663-1.039-1.343-1.039h-.393v-.528h.393c.512 0 1.158-.264 1.158-.879 0-.416-.264-.784-.911-.784-.415 0-.815.185-1.039.345l-.192-.512c.28-.2.809-.4 1.367-.4 1.023 0 1.488.607 1.488 1.239 0 .544-.328.999-.96 1.231v.016c.64.12 1.159.6 1.159 1.328 0 .831-.656 1.559-1.895 1.559-.584 0-1.096-.184-1.352-.352l.193-.536zM95.899 83.728c.2.12.655.32 1.151.32.896 0 1.184-.567 1.176-1.008-.009-.728-.664-1.039-1.344-1.039h-.392v-.528h.392c.512 0 1.159-.264 1.159-.879 0-.416-.264-.784-.911-.784-.416 0-.816.185-1.039.345l-.192-.512c.28-.2.808-.4 1.367-.4 1.023 0 1.487.607 1.487 1.239 0 .544-.328.999-.959 1.231v.016c.639.12 1.158.6 1.158 1.328 0 .831-.655 1.559-1.895 1.559-.584 0-1.096-.184-1.352-.352l.194-.536zM101.49 84.615c-1.016 0-1.711-.951-1.727-2.67 0-1.752.76-2.703 1.814-2.703 1.088 0 1.719.976 1.719 2.631 0 1.767-.663 2.742-1.799 2.742h-.007zm.04-.544c.712 0 1.056-.839 1.056-2.167 0-1.279-.32-2.118-1.056-2.118-.64 0-1.056.815-1.056 2.118-.016 1.352.4 2.167 1.048 2.167h.008zM105.466 79.986h-.016l-.903.487-.137-.536 1.136-.607h.6v5.197h-.68v-4.541zM109.786 79.242c1.007 0 1.519.624 1.519 1.279 0 .439-.224.92-.863 1.215v.024c.648.256 1.048.72 1.048 1.344 0 .911-.776 1.511-1.767 1.511-1.088 0-1.744-.64-1.744-1.399 0-.655.393-1.127 1.023-1.399v-.023c-.583-.271-.831-.72-.831-1.168 0-.823.695-1.383 1.606-1.383h.009zm-.048 4.862c.631 0 1.039-.392 1.039-.928 0-.623-.439-.936-1.144-1.135-.607.176-.935.583-.935 1.079-.024.52.375.983 1.031.983h.009zm.008-4.358c-.584 0-.904.384-.904.831-.008.521.393.8.992.96.447-.152.791-.472.791-.943 0-.416-.248-.848-.871-.848h-.008zM113.802 84.615c-1.015 0-1.711-.951-1.727-2.67 0-1.752.759-2.703 1.815-2.703 1.087 0 1.719.976 1.719 2.631 0 1.767-.664 2.742-1.799 2.742h-.008zm.04-.544c.712 0 1.056-.839 1.056-2.167 0-1.279-.319-2.118-1.056-2.118-.64 0-1.055.815-1.055 2.118-.017 1.352.399 2.167 1.047 2.167h.008zM118.426 84.527v-1.423h-2.415v-.456l2.318-3.318h.76v3.23h.728v.544h-.728v1.423h-.663zm0-1.966v-1.735c0-.271.008-.544.023-.815h-.023c-.16.304-.289.527-.432.768l-1.271 1.768v.016h1.703zM121.882 79.986h-.017l-.903.487-.136-.536 1.135-.607h.6v5.197h-.679v-4.541zM126.113 84.615c-1.016 0-1.711-.951-1.727-2.67 0-1.752.76-2.703 1.814-2.703 1.088 0 1.719.976 1.719 2.631 0 1.767-.663 2.742-1.799 2.742h-.007zm.04-.544c.712 0 1.056-.839 1.056-2.167 0-1.279-.32-2.118-1.056-2.118-.64 0-1.056.815-1.056 2.118-.016 1.352.4 2.167 1.048 2.167h.008zM130.306 79.242c1.007 0 1.519.624 1.519 1.279 0 .439-.224.92-.863 1.215v.024c.648.256 1.048.72 1.048 1.344 0 .911-.776 1.511-1.767 1.511-1.088 0-1.744-.64-1.744-1.399 0-.655.393-1.127 1.023-1.399v-.023c-.583-.271-.831-.72-.831-1.168 0-.823.695-1.383 1.606-1.383h.009zm-.048 4.862c.631 0 1.039-.392 1.039-.928 0-.623-.439-.936-1.144-1.135-.607.176-.935.583-.935 1.079-.024.52.375.983 1.031.983h.009zm.008-4.358c-.584 0-.904.384-.904.831-.008.521.393.8.992.96.447-.152.791-.472.791-.943 0-.416-.248-.848-.871-.848h-.008zM6.877 84.527v-.432l.552-.536c1.327-1.263 1.935-1.935 1.935-2.718 0-.528-.248-1.016-1.023-1.016-.472 0-.864.239-1.104.439l-.224-.494c.352-.295.872-.527 1.471-.527 1.111 0 1.583.768 1.583 1.512 0 .959-.695 1.734-1.791 2.79l-.408.384v.016h2.327v.584h-3.318zM12.637 84.615c-1.016 0-1.711-.951-1.728-2.67 0-1.752.76-2.703 1.815-2.703 1.087 0 1.719.976 1.719 2.631 0 1.767-.664 2.742-1.799 2.742h-.007zm.039-.544c.712 0 1.056-.839 1.056-2.167 0-1.279-.32-2.118-1.056-2.118-.64 0-1.055.815-1.055 2.118-.016 1.352.4 2.167 1.047 2.167h.008zM16.612 79.986h-.016l-.904.487-.136-.536 1.135-.607h.6v5.197h-.68v-4.541zM21.364 84.527v-1.423h-2.415v-.456l2.318-3.318h.76v3.23h.728v.544h-.728v1.423h-.663zm0-1.966v-1.735c0-.271.008-.544.024-.815h-.024c-.16.304-.288.527-.432.768l-1.271 1.768v.016h1.703zM25.148 82.112v.512h-1.975v-.512h1.975zM27.404 84.615c-1.016 0-1.711-.951-1.728-2.67 0-1.752.76-2.703 1.815-2.703 1.087 0 1.719.976 1.719 2.631 0 1.767-.664 2.742-1.799 2.742h-.007zm.04-.544c.712 0 1.056-.839 1.056-2.167 0-1.279-.32-2.118-1.056-2.118-.64 0-1.055.815-1.055 2.118-.016 1.352.4 2.167 1.047 2.167h.008zM32.028 84.527v-1.423h-2.415v-.456l2.318-3.318h.76v3.23h.728v.544h-.728v1.423h-.663zm0-1.966v-1.735c0-.271.008-.544.024-.815h-.024c-.16.304-.288.527-.432.768l-1.271 1.768v.016h1.703zM35.812 82.112v.512h-1.975v-.512h1.975zM36.413 84.527v-.432l.552-.536c1.327-1.263 1.935-1.935 1.935-2.718 0-.528-.248-1.016-1.023-1.016-.472 0-.864.239-1.104.439l-.224-.496c.352-.295.872-.527 1.471-.527 1.111 0 1.583.768 1.583 1.512 0 .959-.695 1.734-1.791 2.79l-.408.384v.016h2.327v.584h-3.318zM42.044 79.986h-.016l-.904.487-.136-.536 1.135-.607h.6v5.197h-.679v-4.541zM47.972 84.615c-1.016 0-1.711-.951-1.728-2.67 0-1.752.76-2.703 1.815-2.703 1.087 0 1.719.976 1.719 2.631 0 1.767-.664 2.742-1.799 2.742h-.007zm.039-.544c.712 0 1.056-.839 1.056-2.167 0-1.279-.32-2.118-1.056-2.118-.64 0-1.055.815-1.055 2.118-.016 1.352.4 2.167 1.047 2.167h.008zM50.588 83.728c.2.12.656.32 1.151.32.896 0 1.183-.567 1.175-1.008-.008-.728-.664-1.039-1.343-1.039h-.391v-.528h.392c.512 0 1.159-.264 1.159-.879 0-.416-.264-.784-.912-.784-.416 0-.815.185-1.039.345l-.192-.512c.28-.2.808-.4 1.367-.4 1.023 0 1.487.607 1.487 1.239 0 .544-.328.999-.959 1.231v.016c.64.12 1.159.6 1.159 1.328 0 .831-.656 1.559-1.895 1.559-.583 0-1.095-.184-1.351-.352l.192-.536zM55.052 81.793c-.272 0-.464-.216-.464-.496 0-.296.2-.504.472-.504.288 0 .472.208.472.504 0 .28-.184.496-.472.496h-.008zm0 2.822c-.272 0-.464-.216-.464-.496 0-.295.2-.503.472-.503.288 0 .472.208.472.503 0 .28-.184.496-.472.496h-.008zM56.18 84.527v-.432l.552-.536c1.327-1.263 1.935-1.935 1.935-2.718 0-.528-.248-1.016-1.023-1.016-.472 0-.864.239-1.104.439l-.224-.496c.352-.295.872-.527 1.471-.527 1.111 0 1.583.768 1.583 1.512 0 .959-.695 1.734-1.791 2.79l-.408.384v.016h2.327v.584h-3.318zM60.452 83.728c.2.12.656.32 1.151.32.896 0 1.183-.567 1.175-1.008-.008-.728-.664-1.039-1.343-1.039h-.392v-.528h.392c.512 0 1.159-.264 1.159-.879 0-.416-.264-.784-.912-.784-.416 0-.815.185-1.039.345l-.192-.512c.28-.2.808-.4 1.367-.4 1.023 0 1.487.607 1.487 1.239 0 .544-.328.999-.959 1.231v.016c.64.12 1.159.6 1.159 1.328 0 .831-.656 1.559-1.895 1.559-.583 0-1.095-.184-1.351-.352l.193-.536zM64.916 81.793c-.272 0-.464-.216-.464-.496 0-.296.2-.504.472-.504.288 0 .472.208.472.504 0 .28-.184.496-.472.496h-.008zm0 2.822c-.272 0-.464-.216-.464-.496 0-.295.2-.503.472-.503.288 0 .472.208.472.503 0 .28-.184.496-.472.496h-.008zM69.146 79.922h-1.983l-.2 1.335c.12-.016.232-.032.424-.032.408 0 .799.089 1.119.28.408.224.744.68.744 1.335 0 1.016-.808 1.775-1.935 1.775-.567 0-1.039-.16-1.295-.32l.176-.535c.216.128.64.288 1.119.288.656 0 1.231-.432 1.224-1.136 0-.664-.456-1.144-1.487-1.144-.304 0-.536.024-.728.057l.336-2.495h2.486v.592zM71.803 84.615c-1.016 0-1.711-.951-1.728-2.67 0-1.752.76-2.703 1.815-2.703 1.088 0 1.719.976 1.719 2.631 0 1.767-.664 2.742-1.799 2.742h-.007zm.039-.544c.713 0 1.057-.839 1.057-2.167 0-1.279-.32-2.118-1.057-2.118-.639 0-1.055.815-1.055 2.118-.016 1.352.4 2.167 1.047 2.167h.008zM91.795 105.565c.2.12.656.32 1.152.32.895 0 1.183-.567 1.175-1.008-.008-.728-.663-1.039-1.343-1.039h-.393v-.528h.393c.512 0 1.158-.264 1.158-.879 0-.416-.264-.784-.911-.784-.415 0-.815.185-1.039.345l-.192-.512c.28-.2.809-.4 1.367-.4 1.023 0 1.488.607 1.488 1.239 0 .544-.328.999-.96 1.231v.016c.64.12 1.159.6 1.159 1.328 0 .831-.656 1.559-1.895 1.559-.584 0-1.096-.184-1.352-.352l.193-.536zM95.899 105.565c.2.12.655.32 1.151.32.896 0 1.184-.567 1.176-1.008-.009-.728-.664-1.039-1.344-1.039h-.392v-.528h.392c.512 0 1.159-.264 1.159-.879 0-.416-.264-.784-.911-.784-.416 0-.816.185-1.039.345l-.192-.512c.28-.2.808-.4 1.367-.4 1.023 0 1.487.607 1.487 1.239 0 .544-.328.999-.959 1.231v.016c.639.12 1.158.6 1.158 1.328 0 .831-.655 1.559-1.895 1.559-.584 0-1.096-.184-1.352-.352l.194-.536zM101.49 106.453c-1.016 0-1.711-.951-1.727-2.67 0-1.752.76-2.703 1.814-2.703 1.088 0 1.719.976 1.719 2.631 0 1.767-.663 2.742-1.799 2.742h-.007zm.04-.544c.712 0 1.056-.839 1.056-2.167 0-1.279-.32-2.118-1.056-2.118-.64 0-1.056.815-1.056 2.118-.016 1.352.4 2.167 1.048 2.167h.008zM105.466 101.824h-.016l-.903.487-.137-.536 1.136-.607h.6v5.197h-.68v-4.541zM109.786 101.08c1.007 0 1.519.624 1.519 1.279 0 .439-.224.92-.863 1.215v.024c.648.256 1.048.72 1.048 1.344 0 .911-.776 1.511-1.767 1.511-1.088 0-1.744-.64-1.744-1.399 0-.655.393-1.127 1.023-1.399v-.023c-.583-.271-.831-.72-.831-1.168 0-.823.695-1.383 1.606-1.383h.009zm-.048 4.861c.631 0 1.039-.392 1.039-.928 0-.623-.439-.936-1.144-1.135-.607.176-.935.583-.935 1.079-.024.52.375.983 1.031.983h.009zm.008-4.357c-.584 0-.904.384-.904.831-.008.521.393.8.992.96.447-.152.791-.472.791-.943 0-.416-.248-.848-.871-.848h-.008zM113.802 106.453c-1.015 0-1.711-.951-1.727-2.67 0-1.752.759-2.703 1.815-2.703 1.087 0 1.719.976 1.719 2.631 0 1.767-.664 2.742-1.799 2.742h-.008zm.04-.544c.712 0 1.056-.839 1.056-2.167 0-1.279-.319-2.118-1.056-2.118-.64 0-1.055.815-1.055 2.118-.017 1.352.399 2.167 1.047 2.167h.008zM118.426 106.365v-1.423h-2.415v-.456l2.318-3.318h.76v3.23h.728v.544h-.728v1.423h-.663zm0-1.967v-1.735c0-.271.008-.544.023-.815h-.023c-.16.304-.289.527-.432.768l-1.271 1.768v.016h1.703zM121.882 101.824h-.017l-.903.487-.136-.536 1.135-.607h.6v5.197h-.679v-4.541zM124.459 106.365v-.432l.551-.536c1.328-1.263 1.936-1.935 1.936-2.718 0-.528-.248-1.016-1.023-1.016-.473 0-.863.239-1.104.439l-.225-.496c.353-.295.872-.527 1.472-.527 1.111 0 1.583.768 1.583 1.512 0 .959-.695 1.734-1.791 2.79l-.408.384v.016h2.327v.584h-3.318zM130.306 101.08c1.007 0 1.519.624 1.519 1.279 0 .439-.224.92-.863 1.215v.024c.648.256 1.048.72 1.048 1.344 0 .911-.776 1.511-1.767 1.511-1.088 0-1.744-.64-1.744-1.399 0-.655.393-1.127 1.023-1.399v-.023c-.583-.271-.831-.72-.831-1.168 0-.823.695-1.383 1.606-1.383h.009zm-.048 4.861c.631 0 1.039-.392 1.039-.928 0-.623-.439-.936-1.144-1.135-.607.176-.935.583-.935 1.079-.024.52.375.983 1.031.983h.009zm.008-4.357c-.584 0-.904.384-.904.831-.008.521.393.8.992.96.447-.152.791-.472.791-.943 0-.416-.248-.848-.871-.848h-.008zM6.877 106.366v-.432l.552-.536c1.327-1.263 1.935-1.935 1.935-2.719 0-.527-.248-1.015-1.023-1.015-.472 0-.864.239-1.104.439l-.224-.495c.352-.297.872-.528 1.471-.528 1.111 0 1.583.768 1.583 1.511 0 .96-.695 1.735-1.791 2.791l-.408.384v.016h2.327v.584h-3.318zM12.637 106.454c-1.016 0-1.711-.951-1.728-2.671 0-1.751.76-2.702 1.815-2.702 1.087 0 1.719.976 1.719 2.631 0 1.767-.664 2.742-1.799 2.742h-.007zm.039-.544c.712 0 1.056-.839 1.056-2.166 0-1.279-.32-2.119-1.056-2.119-.64 0-1.055.815-1.055 2.119-.016 1.351.4 2.166 1.047 2.166h.008zM16.612 101.824h-.016l-.904.488-.136-.536 1.135-.607h.6v5.197h-.68v-4.542zM21.364 106.366v-1.423h-2.415v-.456l2.318-3.318h.76v3.23h.728v.544h-.728v1.423h-.663zm0-1.967v-1.735c0-.271.008-.543.024-.815h-.024c-.16.304-.288.528-.432.768l-1.271 1.767v.017h1.703zM25.148 103.951v.512h-1.975v-.512h1.975zM27.404 106.454c-1.016 0-1.711-.951-1.728-2.671 0-1.751.76-2.702 1.815-2.702 1.087 0 1.719.976 1.719 2.631 0 1.767-.664 2.742-1.799 2.742h-.007zm.04-.544c.712 0 1.056-.839 1.056-2.166 0-1.279-.32-2.119-1.056-2.119-.64 0-1.055.815-1.055 2.119-.016 1.351.4 2.166 1.047 2.166h.008zM32.028 106.366v-1.423h-2.415v-.456l2.318-3.318h.76v3.23h.728v.544h-.728v1.423h-.663zm0-1.967v-1.735c0-.271.008-.543.024-.815h-.024c-.16.304-.288.528-.432.768l-1.271 1.767v.017h1.703zM35.812 103.951v.512h-1.975v-.512h1.975zM36.413 106.366v-.432l.552-.536c1.327-1.263 1.935-1.935 1.935-2.719 0-.527-.248-1.015-1.023-1.015-.472 0-.864.239-1.104.439l-.224-.495c.352-.297.872-.528 1.471-.528 1.111 0 1.583.768 1.583 1.511 0 .96-.695 1.735-1.791 2.791l-.408.384v.016h2.327v.584h-3.318zM42.044 101.824h-.016l-.904.488-.136-.536 1.135-.607h.6v5.197h-.679v-4.542zM47.972 106.454c-1.016 0-1.711-.951-1.728-2.671 0-1.751.76-2.702 1.815-2.702 1.087 0 1.719.976 1.719 2.631 0 1.767-.664 2.742-1.799 2.742h-.007zm.039-.544c.712 0 1.056-.839 1.056-2.166 0-1.279-.32-2.119-1.056-2.119-.64 0-1.055.815-1.055 2.119-.016 1.351.4 2.166 1.047 2.166h.008zM50.588 105.566c.2.12.656.32 1.151.32.896 0 1.183-.568 1.175-1.008-.008-.728-.664-1.039-1.343-1.039h-.391v-.528h.392c.512 0 1.159-.264 1.159-.879 0-.416-.264-.784-.912-.784-.416 0-.815.185-1.039.344l-.192-.512c.28-.199.808-.399 1.367-.399 1.023 0 1.487.607 1.487 1.239 0 .544-.328 1-.959 1.231v.016c.64.12 1.159.601 1.159 1.327 0 .832-.656 1.56-1.895 1.56-.583 0-1.095-.184-1.351-.352l.192-.536zM55.052 103.632c-.272 0-.464-.216-.464-.496 0-.296.2-.503.472-.503.288 0 .472.207.472.503 0 .28-.184.496-.472.496h-.008zm0 2.822c-.272 0-.464-.216-.464-.495 0-.297.2-.504.472-.504.288 0 .472.207.472.504 0 .279-.184.495-.472.495h-.008zM56.18 106.366v-.432l.552-.536c1.327-1.263 1.935-1.935 1.935-2.719 0-.527-.248-1.015-1.023-1.015-.472 0-.864.239-1.104.439l-.224-.495c.352-.297.872-.528 1.471-.528 1.111 0 1.583.768 1.583 1.511 0 .96-.695 1.735-1.791 2.791l-.408.384v.016h2.327v.584h-3.318zM60.452 105.566c.2.12.656.32 1.151.32.896 0 1.183-.568 1.175-1.008-.008-.728-.664-1.039-1.343-1.039h-.392v-.528h.392c.512 0 1.159-.264 1.159-.879 0-.416-.264-.784-.912-.784-.416 0-.815.185-1.039.344l-.192-.512c.28-.199.808-.399 1.367-.399 1.023 0 1.487.607 1.487 1.239 0 .544-.328 1-.959 1.231v.016c.64.12 1.159.601 1.159 1.327 0 .832-.656 1.56-1.895 1.56-.583 0-1.095-.184-1.351-.352l.193-.536zM64.916 103.632c-.272 0-.464-.216-.464-.496 0-.296.2-.503.472-.503.288 0 .472.207.472.503 0 .28-.184.496-.472.496h-.008zm0 2.822c-.272 0-.464-.216-.464-.495 0-.297.2-.504.472-.504.288 0 .472.207.472.504 0 .279-.184.495-.472.495h-.008zM69.146 101.761h-1.983l-.2 1.335c.12-.016.232-.031.424-.031.408 0 .799.088 1.119.279.408.224.744.68.744 1.336 0 1.015-.808 1.774-1.935 1.774-.567 0-1.039-.16-1.295-.319l.176-.536c.216.128.64.288 1.119.288.656 0 1.231-.432 1.224-1.136 0-.663-.456-1.144-1.487-1.144-.304 0-.536.024-.728.057l.336-2.495h2.486v.592zM71.803 106.454c-1.016 0-1.711-.951-1.728-2.671 0-1.751.76-2.702 1.815-2.702 1.088 0 1.719.976 1.719 2.631 0 1.767-.664 2.742-1.799 2.742h-.007zm.039-.544c.713 0 1.057-.839 1.057-2.166 0-1.279-.32-2.119-1.057-2.119-.639 0-1.055.815-1.055 2.119-.016 1.351.4 2.166 1.047 2.166h.008zM91.795 128.599c.2.12.656.32 1.152.32.895 0 1.183-.567 1.175-1.008-.008-.728-.663-1.039-1.343-1.039h-.393v-.528h.393c.512 0 1.158-.264 1.158-.879 0-.416-.264-.784-.911-.784-.415 0-.815.185-1.039.345l-.192-.512c.28-.2.809-.4 1.367-.4 1.023 0 1.488.607 1.488 1.239 0 .544-.328.999-.96 1.231v.016c.64.12 1.159.6 1.159 1.328 0 .831-.656 1.559-1.895 1.559-.584 0-1.096-.184-1.352-.352l.193-.536zM95.899 128.599c.2.12.655.32 1.151.32.896 0 1.184-.567 1.176-1.008-.009-.728-.664-1.039-1.344-1.039h-.392v-.528h.392c.512 0 1.159-.264 1.159-.879 0-.416-.264-.784-.911-.784-.416 0-.816.185-1.039.345l-.192-.512c.28-.2.808-.4 1.367-.4 1.023 0 1.487.607 1.487 1.239 0 .544-.328.999-.959 1.231v.016c.639.12 1.158.6 1.158 1.328 0 .831-.655 1.559-1.895 1.559-.584 0-1.096-.184-1.352-.352l.194-.536zM101.49 129.486c-1.016 0-1.711-.951-1.727-2.67 0-1.752.76-2.703 1.814-2.703 1.088 0 1.719.976 1.719 2.631 0 1.767-.663 2.742-1.799 2.742h-.007zm.04-.544c.712 0 1.056-.839 1.056-2.167 0-1.279-.32-2.118-1.056-2.118-.64 0-1.056.815-1.056 2.118-.016 1.352.4 2.167 1.048 2.167h.008zM103.939 129.398v-.432l.551-.536c1.328-1.263 1.936-1.935 1.936-2.718 0-.528-.248-1.016-1.023-1.016-.473 0-.863.239-1.104.439l-.225-.496c.353-.295.872-.527 1.472-.527 1.111 0 1.583.768 1.583 1.512 0 .959-.695 1.734-1.791 2.79l-.408.384v.016h2.327v.584h-3.318zM109.57 124.857h-.016l-.904.487-.136-.536 1.136-.607h.6v5.197h-.68v-4.541zM115.113 124.697c-.145-.008-.328.008-.527.04-1.111.176-1.688.976-1.808 1.839h.017c.248-.336.688-.607 1.263-.607.92 0 1.567.671 1.567 1.679 0 .96-.647 1.839-1.734 1.839-1.104 0-1.832-.863-1.832-2.215 0-1.023.36-1.831.88-2.343.432-.424 1.007-.688 1.663-.768.208-.032.384-.04.512-.04v.576zm-1.207 4.245c.6 0 1.008-.503 1.008-1.247 0-.743-.424-1.191-1.072-1.191-.424 0-.823.256-1.016.64-.039.08-.072.176-.072.304.009.855.408 1.495 1.145 1.495h.007zM119.625 124.201v.464l-2.264 4.733h-.719l2.246-4.598v-.016h-2.543v-.584h3.28zM120.762 128.902c.152.008.328 0 .568-.031.408-.049.791-.217 1.088-.496.344-.32.591-.768.688-1.383h-.024c-.288.352-.704.56-1.231.56-.936 0-1.535-.704-1.535-1.6 0-.976.72-1.839 1.783-1.839s1.719.855 1.719 2.191c0 1.143-.384 1.942-.896 2.438-.399.384-.951.632-1.511.695-.256.032-.488.048-.648.04v-.575zm1.271-4.253c-.592 0-1.016.527-1.016 1.263 0 .648.393 1.104 1 1.104.472 0 .84-.231 1.031-.544.032-.063.057-.144.057-.256.008-.896-.328-1.566-1.064-1.566h-.008zM124.459 129.398v-.432l.551-.536c1.328-1.263 1.936-1.935 1.936-2.718 0-.528-.248-1.016-1.023-1.016-.473 0-.863.239-1.104.439l-.225-.496c.353-.295.872-.527 1.472-.527 1.111 0 1.583.768 1.583 1.512 0 .959-.695 1.734-1.791 2.79l-.408.384v.016h2.327v.584h-3.318zM130.306 124.113c1.007 0 1.519.624 1.519 1.279 0 .439-.224.92-.863 1.215v.024c.648.256 1.048.72 1.048 1.344 0 .911-.776 1.511-1.767 1.511-1.088 0-1.744-.64-1.744-1.399 0-.655.393-1.127 1.023-1.399v-.023c-.583-.271-.831-.72-.831-1.168 0-.823.695-1.383 1.606-1.383h.009zm-.048 4.862c.631 0 1.039-.392 1.039-.928 0-.623-.439-.936-1.144-1.135-.607.176-.935.583-.935 1.079-.024.52.375.983 1.031.983h.009zm.008-4.358c-.584 0-.904.384-.904.831-.008.521.393.8.992.96.447-.152.791-.472.791-.943 0-.416-.248-.848-.871-.848h-.008zM6.877 129.399v-.432l.552-.536c1.327-1.263 1.935-1.935 1.935-2.719 0-.527-.248-1.015-1.023-1.015-.472 0-.864.239-1.104.439l-.224-.495c.352-.297.872-.528 1.471-.528 1.111 0 1.583.768 1.583 1.511 0 .96-.695 1.735-1.791 2.791l-.407.385v.016h2.327v.584h-3.319zM12.637 129.487c-1.016 0-1.711-.951-1.728-2.671 0-1.751.76-2.702 1.815-2.702 1.087 0 1.719.976 1.719 2.631 0 1.767-.664 2.742-1.799 2.742h-.007zm.039-.544c.712 0 1.056-.839 1.056-2.166 0-1.279-.32-2.119-1.056-2.119-.64 0-1.055.815-1.055 2.119-.016 1.351.4 2.166 1.047 2.166h.008zM16.612 124.857h-.016l-.904.488-.136-.536 1.135-.607h.6v5.197h-.68v-4.542zM21.364 129.399v-1.423h-2.415v-.456l2.318-3.318h.76v3.23h.728v.544h-.728v1.423h-.663zm0-1.966v-1.735c0-.271.008-.543.024-.815h-.024c-.16.304-.288.528-.432.768l-1.271 1.767v.017h1.703zM25.148 126.984v.512h-1.975v-.512h1.975zM27.404 129.487c-1.016 0-1.711-.951-1.728-2.671 0-1.751.76-2.702 1.815-2.702 1.087 0 1.719.976 1.719 2.631 0 1.767-.664 2.742-1.799 2.742h-.007zm.04-.544c.712 0 1.056-.839 1.056-2.166 0-1.279-.32-2.119-1.056-2.119-.64 0-1.055.815-1.055 2.119-.016 1.351.4 2.166 1.047 2.166h.008zM32.028 129.399v-1.423h-2.415v-.456l2.318-3.318h.76v3.23h.728v.544h-.728v1.423h-.663zm0-1.966v-1.735c0-.271.008-.543.024-.815h-.024c-.16.304-.288.528-.432.768l-1.271 1.767v.017h1.703zM35.812 126.984v.512h-1.975v-.512h1.975zM36.413 129.399v-.432l.552-.536c1.327-1.263 1.935-1.935 1.935-2.719 0-.527-.248-1.015-1.023-1.015-.472 0-.864.239-1.104.439l-.224-.495c.352-.297.872-.528 1.471-.528 1.111 0 1.583.768 1.583 1.511 0 .96-.695 1.735-1.791 2.791l-.408.384v.016h2.327v.584h-3.318zM42.044 124.857h-.016l-.904.488-.136-.536 1.135-.607h.6v5.197h-.679v-4.542zM47.972 129.487c-1.016 0-1.711-.951-1.728-2.671 0-1.751.76-2.702 1.815-2.702 1.087 0 1.719.976 1.719 2.631 0 1.767-.664 2.742-1.799 2.742h-.007zm.039-.544c.712 0 1.056-.839 1.056-2.166 0-1.279-.32-2.119-1.056-2.119-.64 0-1.055.815-1.055 2.119-.016 1.351.4 2.166 1.047 2.166h.008zM53.522 124.794h-1.982l-.2 1.335c.12-.016.232-.031.424-.031.408 0 .799.088 1.119.279.408.224.744.68.744 1.336 0 1.015-.808 1.774-1.935 1.774-.567 0-1.039-.16-1.295-.319l.176-.536c.216.128.64.288 1.119.288.656 0 1.231-.432 1.224-1.136 0-.663-.456-1.144-1.487-1.144-.304 0-.536.024-.728.057l.336-2.495h2.486v.592zM55.052 126.665c-.272 0-.464-.216-.464-.496 0-.296.2-.503.472-.503.288 0 .472.207.472.503 0 .28-.184.496-.472.496h-.008zm0 2.822c-.272 0-.464-.216-.464-.495 0-.297.2-.504.472-.504.288 0 .472.207.472.504 0 .279-.184.495-.472.495h-.008zM57.707 124.857h-.016l-.904.488-.136-.536 1.135-.607h.6v5.197h-.68v-4.542zM60.284 129.399v-.432l.552-.536c1.327-1.263 1.935-1.935 1.935-2.719 0-.527-.248-1.015-1.023-1.015-.472 0-.864.239-1.104.439l-.224-.495c.352-.297.872-.528 1.471-.528 1.111 0 1.583.768 1.583 1.511 0 .96-.695 1.735-1.791 2.791l-.408.384v.016h2.327v.584h-3.318zM64.916 126.665c-.272 0-.464-.216-.464-.496 0-.296.2-.503.472-.503.288 0 .472.207.472.503 0 .28-.184.496-.472.496h-.008zm0 2.822c-.272 0-.464-.216-.464-.495 0-.297.2-.504.472-.504.288 0 .472.207.472.504 0 .279-.184.495-.472.495h-.008zM67.57 124.857h-.016l-.904.488-.136-.536 1.135-.607h.6v5.197h-.68v-4.542zM71.891 124.114c1.008 0 1.52.624 1.52 1.279 0 .439-.225.92-.864 1.216v.023c.647.256 1.048.72 1.048 1.344 0 .911-.775 1.511-1.768 1.511-1.087 0-1.743-.64-1.743-1.399 0-.655.392-1.127 1.024-1.398v-.024c-.584-.272-.832-.72-.832-1.167 0-.824.695-1.384 1.607-1.384h.008zm-.049 4.862c.633 0 1.04-.392 1.04-.928 0-.623-.439-.936-1.144-1.135-.607.176-.935.583-.935 1.079-.024.52.375.983 1.031.983h.008zm.009-4.358c-.584 0-.904.384-.904.831-.008.52.392.8.992.96.448-.152.792-.472.792-.943 0-.416-.248-.848-.872-.848h-.008z"/></svg>