<?xml version="1.0" encoding="utf-8"?>
<!-- Generator: Adobe Illustrator 14.0.0, SVG Export Plug-In . SVG Version: 6.00 Build 43363)  -->
<!DOCTYPE svg PUBLIC "-//W3C//DTD SVG 1.1//EN" "http://www.w3.org/Graphics/SVG/1.1/DTD/svg11.dtd">
<svg version="1.1" id="Layer_1" xmlns="http://www.w3.org/2000/svg" xmlns:xlink="http://www.w3.org/1999/xlink" x="0px" y="0px"
	 width="180px" height="46px" viewBox="0 0 180 46" enable-background="new 0 0 180 46" xml:space="preserve">
<g>
	<g>
		<path fill="#FFFFFF" d="M41.739,7.102c-0.729,0-1.398,0.092-1.979,0.274c-0.575,0.178-1.115,0.425-1.603,0.738
			c-0.481,0.312-0.915,0.671-1.277,1.063c-0.098,0.1-0.19,0.207-0.285,0.313V7.47h-4.877v18.523h4.877V15.614
			c0-1.277,0.336-2.275,0.994-2.969c0.66-0.696,1.509-1.035,2.582-1.035c1.094,0,1.909,0.324,2.489,0.991
			c0.586,0.671,0.887,1.663,0.887,2.944v10.447h4.88V14.312c0-2.17-0.589-3.93-1.745-5.229C45.521,7.769,43.857,7.102,41.739,7.102z
			"/>
		<path fill="#FFFFFF" d="M59.717,7.237c-1.486,0-2.773,0.139-3.828,0.413c-1.047,0.275-2.087,0.645-3.085,1.098L52.48,8.896
			l1.354,3.985l0.386-0.157c0.783-0.327,1.57-0.592,2.331-0.79c0.749-0.194,1.622-0.29,2.595-0.29c1.301,0,2.308,0.294,2.984,0.881
			c0.629,0.543,0.955,1.308,0.99,2.339c-0.557-0.16-1.129-0.295-1.713-0.398c-0.766-0.135-1.71-0.205-2.805-0.205
			c-1.059,0-2.057,0.121-2.97,0.365c-0.931,0.246-1.743,0.631-2.421,1.142c-0.685,0.516-1.227,1.173-1.608,1.952
			c-0.384,0.78-0.577,1.703-0.577,2.743v0.067c0,0.953,0.189,1.811,0.562,2.545c0.364,0.73,0.866,1.354,1.48,1.842
			c0.606,0.486,1.324,0.861,2.128,1.109c0.795,0.245,1.647,0.371,2.537,0.371c1.4,0,2.613-0.262,3.604-0.781
			c0.659-0.35,1.247-0.748,1.749-1.203v1.613H67.9V15.12c0-2.469-0.682-4.422-2.027-5.8C64.529,7.936,62.459,7.237,59.717,7.237z
			 M58.876,22.563c-0.88,0-1.63-0.204-2.223-0.606c-0.545-0.374-0.815-0.906-0.815-1.626v-0.068c0-0.724,0.295-1.276,0.902-1.697
			c0.65-0.444,1.58-0.669,2.773-0.669c0.756,0,1.485,0.064,2.16,0.191c0.57,0.111,1.082,0.244,1.516,0.394v0.739
			c0,0.497-0.104,0.951-0.307,1.351c-0.207,0.403-0.509,0.758-0.879,1.046c-0.393,0.295-0.855,0.529-1.381,0.697
			C60.093,22.479,59.504,22.563,58.876,22.563z"/>
		<path fill="#FFFFFF" d="M93.026,19.902L88.27,7.47h-5.182l7.555,18.13c-0.291,0.637-0.59,1.079-0.893,1.308
			c-0.314,0.244-0.709,0.359-1.211,0.359c-0.383,0-0.754-0.06-1.107-0.169c-0.373-0.114-0.736-0.27-1.096-0.46l-0.361-0.192
			l-1.701,3.733l0.32,0.171c0.643,0.348,1.318,0.624,2.012,0.824c0.693,0.196,1.494,0.298,2.375,0.298
			c0.75,0,1.434-0.096,2.031-0.286c0.604-0.195,1.169-0.508,1.677-0.928c0.5-0.421,0.959-0.966,1.361-1.628
			c0.391-0.644,0.771-1.444,1.139-2.38l7.26-18.78h-5.076L93.026,19.902z"/>
		<path fill="#E88126" d="M124.86,19.985c-0.621,0.623-1.291,1.141-1.984,1.533c-0.662,0.379-1.455,0.572-2.346,0.572
			c-0.723,0-1.391-0.139-1.988-0.418c-0.596-0.279-1.123-0.662-1.559-1.135c-0.434-0.477-0.773-1.044-1.016-1.689
			c-0.238-0.646-0.357-1.349-0.357-2.084v-0.068c0-0.709,0.119-1.396,0.357-2.047c0.242-0.646,0.572-1.209,0.988-1.675
			c0.414-0.462,0.914-0.838,1.492-1.119c0.57-0.272,1.201-0.413,1.879-0.413c0.957,0,1.766,0.19,2.408,0.566
			c0.674,0.396,1.314,0.912,1.918,1.532l0.287,0.295l3.041-3.282l-0.24-0.265c-0.854-0.949-1.875-1.725-3.02-2.305
			c-1.158-0.586-2.629-0.883-4.359-0.883c-1.373,0-2.658,0.262-3.838,0.771c-1.172,0.511-2.203,1.214-3.057,2.083
			c-0.855,0.872-1.535,1.914-2.016,3.086c-0.475,1.17-0.721,2.426-0.721,3.723v0.07c0,1.3,0.246,2.547,0.721,3.71
			c0.482,1.163,1.16,2.188,2.016,3.05c0.859,0.861,1.881,1.549,3.043,2.047c1.162,0.502,2.449,0.756,3.816,0.756
			c1.781,0,3.285-0.329,4.457-0.972c1.152-0.637,2.197-1.473,3.092-2.487l0.252-0.275l-2.998-2.949L124.86,19.985z"/>
		<path fill="#E88126" d="M146.528,9.923c-0.871-0.874-1.924-1.571-3.119-2.067c-1.189-0.501-2.52-0.754-3.93-0.754
			c-1.414,0-2.734,0.262-3.932,0.771c-1.199,0.511-2.242,1.21-3.113,2.083c-0.873,0.87-1.566,1.899-2.066,3.061
			c-0.498,1.164-0.754,2.426-0.754,3.748v0.07c0,1.3,0.248,2.549,0.732,3.711c0.492,1.162,1.182,2.191,2.059,3.049
			c0.869,0.862,1.916,1.55,3.113,2.052c1.193,0.497,2.504,0.751,3.893,0.751c1.408,0,2.744-0.26,3.953-0.772
			c1.207-0.508,2.256-1.208,3.129-2.079c0.869-0.873,1.566-1.902,2.066-3.064c0.504-1.163,0.754-2.414,0.754-3.717v-0.068
			c0-1.321-0.25-2.578-0.736-3.729C148.091,11.818,147.401,10.793,146.528,9.923z M139.479,22.091c-0.719,0-1.391-0.139-1.992-0.418
			s-1.135-0.666-1.58-1.151c-0.439-0.49-0.795-1.059-1.039-1.696c-0.25-0.635-0.377-1.326-0.377-2.061v-0.068
			c0-0.713,0.117-1.403,0.344-2.053c0.227-0.641,0.561-1.199,0.988-1.663c0.43-0.464,0.957-0.841,1.564-1.119
			c0.602-0.278,1.281-0.419,2.023-0.419c0.744,0,1.426,0.141,2.027,0.419c0.609,0.278,1.141,0.661,1.584,1.138
			c0.438,0.475,0.793,1.045,1.037,1.689c0.248,0.649,0.375,1.346,0.375,2.076v0.07c0,0.71-0.113,1.396-0.342,2.036
			c-0.232,0.629-0.561,1.192-0.99,1.669c-0.434,0.471-0.957,0.852-1.561,1.133C140.935,21.952,140.243,22.091,139.479,22.091z"/>
		<path fill="#E88126" d="M177.95,8.988c-1.166-1.25-2.811-1.887-4.869-1.887c-1.41,0-2.646,0.31-3.682,0.919
			c-0.855,0.504-1.619,1.152-2.289,1.931c-0.477-0.773-1.098-1.418-1.877-1.92c-0.938-0.615-2.098-0.93-3.443-0.93
			c-0.701,0-1.357,0.092-1.938,0.274c-0.582,0.178-1.115,0.431-1.578,0.745c-0.457,0.309-0.871,0.657-1.223,1.037
			c-0.094,0.098-0.178,0.197-0.266,0.296V7.47h-4.877v18.523h4.877V15.646c0-1.279,0.316-2.287,0.943-2.994
			c0.619-0.7,1.422-1.041,2.449-1.041c1.025,0,1.795,0.317,2.346,0.969c0.563,0.66,0.848,1.648,0.848,2.935v10.479h4.877V15.614
			c0-1.322,0.316-2.334,0.949-3.002c0.629-0.676,1.426-1.002,2.445-1.002c1.021,0,1.793,0.317,2.342,0.969
			c0.561,0.66,0.85,1.662,0.85,2.967v10.447h4.871V14.277C179.706,12.013,179.118,10.234,177.95,8.988z"/>
		<g>
			<rect x="24.239" y="7.47" fill="#FFFFFF" width="4.882" height="18.523"/>
			<circle fill="#FFFFFF" cx="26.68" cy="3.138" r="2.703"/>
		</g>
		<path fill="#E88126" d="M108.411,23.696c0-1.494-1.211-2.703-2.697-2.703c-1.496,0-2.709,1.209-2.709,2.703
			c0,1.488,1.213,2.701,2.709,2.701C107.2,26.397,108.411,25.185,108.411,23.696z"/>
		<path fill="#FFFFFF" d="M20.19,14.685c-0.452-0.493-1.005-0.924-1.624-1.285c-0.388-0.222-0.813-0.43-1.256-0.619l-0.273-0.113
			l0.247-0.161c0.211-0.135,0.424-0.283,0.629-0.446c0.457-0.347,0.856-0.757,1.19-1.216c0.335-0.459,0.609-1,0.817-1.605
			c0.211-0.607,0.317-1.313,0.317-2.105v-0.07c0-1.71-0.593-3.167-1.762-4.333c-1.513-1.524-3.775-2.294-6.71-2.294H0.293v25.558
			h11.83c1.4,0,2.694-0.152,3.85-0.457c1.169-0.304,2.184-0.756,3.013-1.341c0.841-0.597,1.497-1.35,1.958-2.241
			c0.454-0.891,0.692-1.932,0.692-3.09v-0.069c0-0.886-0.127-1.671-0.378-2.341C21.011,15.78,20.653,15.185,20.19,14.685z
			 M5.175,10.832V5.007V4.853H5.33h5.901c1.356,0,2.402,0.262,3.103,0.787c0.687,0.513,1.02,1.212,1.02,2.139v0.07
			c0,1.063-0.379,1.827-1.165,2.34c-0.809,0.535-1.913,0.801-3.286,0.801H5.33H5.175V10.832z M16.753,18.402
			c0,1.061-0.388,1.833-1.176,2.361c-0.807,0.54-1.95,0.813-3.385,0.813H5.33H5.175v-0.154v-6.041v-0.158H5.33h6.541
			c1.67,0,2.925,0.283,3.723,0.834c0.776,0.535,1.159,1.281,1.159,2.273V18.402z"/>
		<path fill="#FFFFFF" d="M81.301,7.136c-1.654-0.07-3.053,0.328-4.154,1.194c-0.684,0.531-1.273,1.182-1.756,1.943V7.47h-4.879
			v18.523h4.879v-7.141c0-1.121,0.139-2.113,0.42-2.958c0.27-0.825,0.66-1.518,1.154-2.059c0.498-0.538,1.094-0.942,1.779-1.212
			c0.688-0.271,1.463-0.409,2.307-0.409h0.602V7.151L81.301,7.136z"/>
	</g>
	<g>
		<path fill="#FFFFFF" d="M0.536,39.609l1.272-0.117l-0.012,0.337c0,0.376,0.079,0.718,0.255,1.03
			c0.173,0.31,0.457,0.552,0.853,0.721c0.397,0.173,0.873,0.256,1.418,0.256c0.779,0,1.373-0.172,1.779-0.511
			c0.411-0.339,0.612-0.729,0.612-1.166c0-0.304-0.105-0.582-0.321-0.832c-0.224-0.251-0.824-0.585-1.811-1.01
			c-0.768-0.33-1.283-0.583-1.563-0.76c-0.435-0.287-0.76-0.602-0.968-0.938c-0.206-0.336-0.31-0.722-0.31-1.156
			c0-0.499,0.134-0.946,0.408-1.348c0.278-0.403,0.676-0.71,1.204-0.921c0.524-0.212,1.121-0.321,1.784-0.321
			c0.788,0,1.455,0.135,1.998,0.399c0.541,0.266,0.936,0.618,1.181,1.059c0.248,0.443,0.372,0.864,0.372,1.266
			c0,0.04-0.004,0.106-0.01,0.2l-1.249,0.096c0-0.271-0.025-0.486-0.074-0.638c-0.09-0.271-0.229-0.5-0.411-0.688
			c-0.185-0.181-0.444-0.331-0.762-0.443c-0.324-0.11-0.689-0.171-1.094-0.171c-0.707,0-1.255,0.162-1.646,0.479
			c-0.307,0.243-0.449,0.565-0.449,0.965c0,0.239,0.061,0.45,0.183,0.641c0.125,0.188,0.349,0.37,0.67,0.553
			c0.229,0.129,0.778,0.382,1.636,0.76c0.701,0.311,1.181,0.555,1.442,0.73c0.354,0.233,0.621,0.515,0.813,0.85
			c0.192,0.336,0.289,0.711,0.289,1.139c0,0.522-0.161,1.009-0.482,1.452s-0.763,0.786-1.322,1.027
			c-0.571,0.247-1.218,0.366-1.945,0.366c-1.1,0-1.996-0.239-2.689-0.719C0.887,41.715,0.54,40.854,0.536,39.609z"/>
		<path fill="#FFFFFF" d="M9.351,42.749l2.026-9.709h1.196l-0.771,3.732c0.443-0.438,0.854-0.745,1.242-0.935
			c0.385-0.187,0.779-0.278,1.188-0.278c0.582,0,1.032,0.151,1.355,0.458c0.324,0.308,0.488,0.712,0.488,1.214
			c0,0.249-0.075,0.703-0.217,1.364l-0.867,4.153h-1.198l0.894-4.259c0.13-0.616,0.189-1.007,0.189-1.164
			c0-0.228-0.076-0.418-0.238-0.563c-0.156-0.146-0.388-0.219-0.684-0.219c-0.437,0-0.848,0.112-1.24,0.342
			c-0.396,0.226-0.703,0.539-0.922,0.932c-0.226,0.396-0.428,1.034-0.615,1.912l-0.631,3.02H9.351z"/>
		<path fill="#FFFFFF" d="M21.91,41.876c-0.42,0.355-0.818,0.62-1.204,0.783c-0.385,0.167-0.792,0.249-1.231,0.249
			c-0.645,0-1.175-0.19-1.568-0.572c-0.397-0.38-0.596-0.871-0.596-1.467c0-0.396,0.09-0.743,0.27-1.045
			c0.181-0.3,0.414-0.542,0.712-0.726c0.296-0.185,0.654-0.315,1.084-0.395c0.27-0.052,0.778-0.097,1.533-0.128
			c0.752-0.029,1.292-0.108,1.622-0.237c0.088-0.325,0.137-0.597,0.137-0.814c0-0.277-0.102-0.495-0.306-0.655
			c-0.281-0.221-0.681-0.333-1.219-0.333c-0.501,0-0.913,0.112-1.234,0.336c-0.323,0.222-0.552,0.539-0.697,0.951l-1.211-0.108
			c0.243-0.696,0.638-1.231,1.173-1.603c0.537-0.369,1.213-0.553,2.027-0.553c0.873,0,1.558,0.205,2.068,0.619
			c0.388,0.311,0.582,0.712,0.582,1.207c0,0.375-0.056,0.809-0.164,1.306l-0.392,1.747c-0.126,0.555-0.184,1.008-0.184,1.357
			c0,0.22,0.046,0.537,0.145,0.953h-1.213C21.977,42.519,21.931,42.23,21.91,41.876z M22.352,39.188
			c-0.171,0.065-0.349,0.117-0.538,0.149c-0.196,0.037-0.518,0.075-0.966,0.114c-0.7,0.06-1.188,0.141-1.481,0.234
			c-0.282,0.097-0.499,0.25-0.648,0.454c-0.142,0.207-0.215,0.438-0.215,0.688c0,0.338,0.112,0.612,0.346,0.829
			c0.235,0.216,0.564,0.323,0.991,0.323c0.398,0,0.776-0.104,1.146-0.313c0.364-0.21,0.656-0.502,0.869-0.88
			C22.066,40.414,22.231,39.879,22.352,39.188z"/>
		<path fill="#FFFFFF" d="M24.977,42.749l1.474-7.036h1.059l-0.299,1.441c0.361-0.544,0.717-0.945,1.063-1.209
			c0.346-0.257,0.698-0.386,1.063-0.386c0.24,0,0.534,0.084,0.881,0.254l-0.492,1.116c-0.208-0.151-0.433-0.227-0.68-0.227
			c-0.421,0-0.853,0.233-1.291,0.702c-0.441,0.469-0.788,1.308-1.042,2.523l-0.592,2.82H24.977z"/>
		<path fill="#FFFFFF" d="M29.179,45.444l2.031-9.731h1.104l-0.203,0.984c0.411-0.429,0.778-0.727,1.1-0.893
			c0.326-0.163,0.668-0.245,1.033-0.245c0.668,0,1.226,0.243,1.668,0.729c0.438,0.489,0.663,1.187,0.663,2.097
			c0,0.731-0.125,1.4-0.365,2.001c-0.243,0.604-0.545,1.091-0.894,1.454c-0.357,0.367-0.715,0.638-1.072,0.811
			c-0.365,0.17-0.737,0.257-1.112,0.257c-0.843,0-1.499-0.43-1.964-1.285l-0.792,3.821H29.179z M31.548,39.875
			c0,0.525,0.039,0.89,0.109,1.092c0.114,0.29,0.297,0.521,0.549,0.697c0.247,0.177,0.538,0.263,0.869,0.263
			c0.69,0,1.249-0.388,1.673-1.16c0.422-0.775,0.632-1.566,0.632-2.373c0-0.6-0.141-1.059-0.424-1.384
			c-0.285-0.327-0.641-0.485-1.064-0.485c-0.304,0-0.589,0.08-0.85,0.241c-0.259,0.162-0.499,0.403-0.724,0.722
			c-0.226,0.32-0.403,0.711-0.553,1.179C31.619,39.125,31.548,39.533,31.548,39.875z"/>
		<path fill="#FFFFFF" d="M41.75,42.749l2.032-9.709h4.054c0.703,0,1.229,0.082,1.584,0.242c0.351,0.162,0.641,0.438,0.868,0.827
			c0.229,0.392,0.345,0.828,0.345,1.314c0,0.404-0.079,0.812-0.245,1.227c-0.162,0.416-0.37,0.758-0.617,1.027
			c-0.25,0.27-0.504,0.472-0.76,0.608c-0.254,0.136-0.527,0.239-0.818,0.305c-0.629,0.146-1.255,0.217-1.888,0.217h-2.433
			l-0.823,3.941H41.75z M44.103,37.709h2.138c0.834,0,1.444-0.089,1.832-0.269c0.386-0.179,0.698-0.45,0.932-0.814
			c0.232-0.369,0.353-0.759,0.353-1.168c0-0.318-0.064-0.578-0.188-0.779c-0.123-0.198-0.296-0.348-0.521-0.442
			c-0.227-0.096-0.659-0.142-1.299-0.142h-2.493L44.103,37.709z"/>
		<path fill="#FFFFFF" d="M50.936,42.749l1.474-7.036h1.058l-0.301,1.441c0.366-0.544,0.72-0.945,1.068-1.209
			c0.342-0.257,0.697-0.386,1.063-0.386c0.235,0,0.531,0.084,0.881,0.254l-0.493,1.116c-0.208-0.151-0.437-0.227-0.681-0.227
			c-0.421,0-0.851,0.233-1.29,0.702c-0.44,0.469-0.787,1.308-1.037,2.523l-0.604,2.82H50.936z"/>
		<path fill="#FFFFFF" d="M55.676,42.749l1.477-7.036h1.191l-1.465,7.036H55.676z M57.427,34.396l0.284-1.356h1.195l-0.285,1.356
			H57.427z"/>
		<path fill="#FFFFFF" d="M63.863,40.186l1.2,0.128c-0.304,0.878-0.729,1.527-1.28,1.956c-0.557,0.427-1.189,0.639-1.894,0.639
			c-0.764,0-1.38-0.247-1.856-0.741c-0.479-0.497-0.713-1.186-0.713-2.074c0-0.766,0.151-1.521,0.453-2.264
			c0.307-0.743,0.748-1.308,1.314-1.693c0.568-0.384,1.21-0.576,1.943-0.576c0.752,0,1.355,0.211,1.791,0.638
			c0.447,0.426,0.664,0.988,0.664,1.691l-1.177,0.076c-0.007-0.445-0.138-0.791-0.39-1.044c-0.256-0.25-0.585-0.377-1.003-0.377
			c-0.481,0-0.899,0.153-1.248,0.46c-0.356,0.301-0.634,0.766-0.837,1.384c-0.202,0.622-0.303,1.218-0.303,1.791
			c0,0.604,0.137,1.051,0.402,1.354c0.262,0.3,0.587,0.447,0.982,0.447c0.384,0,0.756-0.146,1.111-0.442
			C63.382,41.243,63.66,40.789,63.863,40.186z"/>
		<path fill="#FFFFFF" d="M71.23,40.359l1.166,0.117c-0.17,0.579-0.557,1.13-1.156,1.65c-0.604,0.522-1.324,0.781-2.158,0.781
			c-0.521,0-0.998-0.121-1.436-0.361c-0.432-0.24-0.764-0.59-0.988-1.05c-0.23-0.46-0.348-0.979-0.348-1.568
			c0-0.769,0.184-1.516,0.537-2.236c0.355-0.722,0.816-1.256,1.379-1.609c0.564-0.351,1.176-0.523,1.834-0.523
			c0.842,0,1.506,0.257,2.008,0.779c0.504,0.521,0.758,1.231,0.758,2.133c0,0.343-0.033,0.696-0.092,1.062h-5.182
			c-0.02,0.136-0.025,0.256-0.025,0.367c0,0.658,0.148,1.161,0.455,1.508c0.299,0.345,0.668,0.519,1.104,0.519
			c0.416,0,0.818-0.133,1.215-0.402C70.699,41.257,71.006,40.866,71.23,40.359z M67.744,38.618h3.947
			c0.002-0.124,0.008-0.214,0.008-0.264c0-0.604-0.15-1.063-0.451-1.384c-0.303-0.32-0.686-0.479-1.16-0.479
			c-0.51,0-0.977,0.177-1.402,0.528C68.268,37.374,67.951,37.905,67.744,38.618z"/>
		<path fill="#FFFFFF" d="M73.988,40.344l1.199-0.07c0,0.344,0.053,0.638,0.156,0.88c0.109,0.244,0.303,0.441,0.588,0.6
			c0.283,0.15,0.617,0.227,0.994,0.227c0.533,0,0.934-0.104,1.197-0.315c0.264-0.213,0.395-0.463,0.395-0.75
			c0-0.206-0.082-0.403-0.236-0.59c-0.166-0.185-0.564-0.411-1.195-0.684c-0.633-0.272-1.037-0.463-1.219-0.573
			c-0.295-0.181-0.512-0.396-0.668-0.64c-0.148-0.245-0.225-0.527-0.225-0.845c0-0.554,0.221-1.033,0.662-1.429
			c0.443-0.396,1.061-0.595,1.857-0.595c0.879,0,1.551,0.203,2.014,0.61c0.465,0.407,0.703,0.946,0.719,1.615l-1.174,0.077
			c-0.014-0.426-0.166-0.759-0.447-1.006c-0.283-0.248-0.686-0.373-1.199-0.373c-0.416,0-0.74,0.094-0.967,0.289
			c-0.23,0.184-0.344,0.392-0.344,0.613s0.1,0.412,0.299,0.579c0.131,0.118,0.473,0.292,1.025,0.533
			c0.918,0.397,1.494,0.709,1.734,0.939c0.379,0.368,0.57,0.814,0.57,1.34c0,0.348-0.107,0.688-0.322,1.025
			c-0.211,0.336-0.541,0.605-0.982,0.805c-0.438,0.202-0.953,0.301-1.549,0.301c-0.813,0-1.506-0.199-2.074-0.602
			C74.227,41.903,73.957,41.249,73.988,40.344z"/>
		<path fill="#FFFFFF" d="M81.258,42.749l0.291-1.357h1.355l-0.297,1.357H81.258z"/>
		<path fill="#FFFFFF" d="M89.512,39.609l1.271-0.117l-0.016,0.337c0,0.376,0.086,0.718,0.256,1.03
			c0.175,0.31,0.46,0.552,0.854,0.721c0.4,0.173,0.873,0.256,1.424,0.256c0.773,0,1.367-0.172,1.771-0.511
			c0.412-0.339,0.615-0.729,0.615-1.166c0-0.304-0.105-0.582-0.322-0.832c-0.221-0.251-0.824-0.585-1.807-1.01
			c-0.771-0.33-1.285-0.583-1.566-0.76c-0.434-0.287-0.762-0.602-0.97-0.938c-0.203-0.336-0.307-0.722-0.307-1.156
			c0-0.499,0.137-0.946,0.407-1.348c0.277-0.403,0.676-0.71,1.205-0.921c0.527-0.212,1.121-0.321,1.785-0.321
			c0.787,0,1.455,0.135,1.996,0.399c0.549,0.266,0.941,0.618,1.182,1.059c0.248,0.443,0.371,0.864,0.371,1.266
			c0,0.04-0.006,0.106-0.008,0.2l-1.252,0.096c0-0.271-0.021-0.486-0.072-0.638c-0.088-0.271-0.225-0.5-0.412-0.688
			c-0.186-0.181-0.439-0.331-0.76-0.443c-0.326-0.11-0.691-0.171-1.094-0.171c-0.705,0-1.256,0.162-1.648,0.479
			c-0.301,0.243-0.449,0.565-0.449,0.965c0,0.239,0.063,0.45,0.188,0.641c0.123,0.188,0.348,0.37,0.668,0.553
			c0.223,0.129,0.773,0.382,1.633,0.76c0.701,0.311,1.18,0.555,1.441,0.73c0.357,0.233,0.629,0.515,0.818,0.85
			c0.189,0.336,0.285,0.711,0.285,1.139c0,0.522-0.166,1.009-0.479,1.452c-0.322,0.443-0.764,0.786-1.33,1.027
			c-0.563,0.247-1.213,0.366-1.941,0.366c-1.096,0-1.994-0.239-2.692-0.719C89.865,41.715,89.516,40.854,89.512,39.609z"/>
		<path fill="#FFFFFF" d="M98.317,42.749l1.469-7.036h1.199l-0.246,1.161c0.447-0.499,0.848-0.841,1.199-1.033
			c0.35-0.186,0.732-0.281,1.141-0.281c0.438,0,0.807,0.113,1.096,0.345c0.293,0.231,0.488,0.558,0.582,0.97
			c0.357-0.438,0.732-0.77,1.129-0.987c0.395-0.219,0.813-0.327,1.248-0.327c0.59,0,1.029,0.137,1.32,0.414
			c0.293,0.276,0.438,0.671,0.438,1.171c0,0.219-0.049,0.577-0.15,1.075l-0.947,4.529h-1.199l0.967-4.65
			c0.086-0.377,0.127-0.648,0.127-0.813c0-0.229-0.072-0.411-0.217-0.545c-0.148-0.13-0.352-0.196-0.617-0.196
			c-0.354,0-0.721,0.106-1.09,0.325c-0.381,0.214-0.664,0.502-0.865,0.85c-0.205,0.351-0.391,0.893-0.541,1.618l-0.715,3.412h-1.201
			L103.438,38c0.068-0.322,0.102-0.55,0.102-0.688c0-0.23-0.07-0.413-0.213-0.557c-0.146-0.142-0.328-0.212-0.561-0.212
			c-0.338,0-0.695,0.106-1.066,0.325c-0.373,0.214-0.678,0.518-0.91,0.903c-0.236,0.386-0.434,0.938-0.578,1.652l-0.695,3.324
			H98.317z"/>
		<path fill="#FFFFFF" d="M114.636,41.876c-0.416,0.355-0.818,0.62-1.195,0.783c-0.387,0.167-0.797,0.249-1.238,0.249
			c-0.646,0-1.172-0.19-1.566-0.572c-0.4-0.38-0.594-0.871-0.594-1.467c0-0.396,0.088-0.743,0.266-1.045
			c0.176-0.3,0.414-0.542,0.715-0.726c0.291-0.185,0.656-0.315,1.084-0.395c0.266-0.052,0.777-0.097,1.531-0.128
			c0.754-0.029,1.295-0.108,1.623-0.237c0.092-0.325,0.139-0.597,0.139-0.814c0-0.277-0.104-0.495-0.307-0.655
			c-0.277-0.221-0.686-0.333-1.219-0.333c-0.502,0-0.914,0.112-1.236,0.336c-0.32,0.222-0.553,0.539-0.697,0.951l-1.209-0.108
			c0.246-0.696,0.633-1.231,1.176-1.603c0.533-0.369,1.211-0.553,2.027-0.553c0.871,0,1.557,0.205,2.064,0.619
			c0.389,0.311,0.582,0.712,0.582,1.207c0,0.375-0.055,0.809-0.162,1.306l-0.391,1.747c-0.129,0.555-0.188,1.008-0.188,1.357
			c0,0.22,0.049,0.537,0.145,0.953h-1.209C114.708,42.519,114.661,42.23,114.636,41.876z M115.079,39.188
			c-0.168,0.065-0.352,0.117-0.541,0.149c-0.191,0.037-0.512,0.075-0.957,0.114c-0.701,0.06-1.197,0.141-1.48,0.234
			c-0.289,0.097-0.502,0.25-0.65,0.454c-0.148,0.207-0.219,0.438-0.219,0.688c0,0.338,0.117,0.612,0.35,0.829
			c0.23,0.216,0.559,0.323,0.992,0.323c0.393,0,0.777-0.104,1.141-0.313c0.369-0.21,0.658-0.502,0.869-0.88
			C114.798,40.414,114.954,39.879,115.079,39.188z"/>
		<path fill="#FFFFFF" d="M117.71,42.749l1.471-7.036h1.057l-0.299,1.441c0.363-0.544,0.719-0.945,1.064-1.209
			c0.344-0.257,0.699-0.386,1.064-0.386c0.236,0,0.525,0.084,0.879,0.254l-0.492,1.116c-0.205-0.151-0.432-0.227-0.678-0.227
			c-0.426,0-0.852,0.233-1.297,0.702c-0.439,0.469-0.783,1.308-1.035,2.523l-0.598,2.82H117.71z"/>
		<path fill="#FFFFFF" d="M125.3,41.776l-0.199,0.98c-0.287,0.073-0.568,0.111-0.838,0.111c-0.475,0-0.854-0.115-1.137-0.353
			c-0.215-0.177-0.316-0.414-0.316-0.72c0-0.154,0.057-0.509,0.17-1.066l0.854-4.085h-0.943l0.189-0.932h0.947l0.363-1.725
			l1.369-0.83l-0.535,2.555h1.182l-0.203,0.932h-1.17l-0.816,3.884c-0.102,0.496-0.146,0.794-0.146,0.89
			c0,0.143,0.039,0.249,0.119,0.325c0.076,0.073,0.215,0.112,0.398,0.112C124.853,41.855,125.087,41.83,125.3,41.776z"/>
		<path fill="#FFFFFF" d="M133.204,42.749l1.797-8.603h-3.186l0.229-1.106h7.643l-0.234,1.106h-3.154l-1.793,8.603H133.204z"/>
		<path fill="#FFFFFF" d="M138.124,42.749l1.469-7.036h1.057l-0.295,1.441c0.365-0.544,0.721-0.945,1.063-1.209
			c0.348-0.257,0.699-0.386,1.068-0.386c0.234,0,0.531,0.084,0.879,0.254l-0.492,1.116c-0.207-0.151-0.436-0.227-0.686-0.227
			c-0.418,0-0.846,0.233-1.287,0.702s-0.787,1.308-1.039,2.523l-0.596,2.82H138.124z"/>
		<path fill="#FFFFFF" d="M147.653,41.876c-0.414,0.355-0.818,0.62-1.197,0.783c-0.387,0.167-0.797,0.249-1.229,0.249
			c-0.652,0-1.178-0.19-1.572-0.572c-0.398-0.38-0.596-0.871-0.596-1.467c0-0.396,0.09-0.743,0.266-1.045
			c0.182-0.3,0.414-0.542,0.713-0.726c0.295-0.185,0.658-0.315,1.088-0.395c0.268-0.052,0.779-0.097,1.529-0.128
			c0.758-0.029,1.295-0.108,1.621-0.237c0.094-0.325,0.141-0.597,0.141-0.814c0-0.277-0.105-0.495-0.307-0.655
			c-0.279-0.221-0.686-0.333-1.217-0.333c-0.504,0-0.914,0.112-1.236,0.336c-0.322,0.222-0.551,0.539-0.699,0.951l-1.213-0.108
			c0.248-0.696,0.641-1.231,1.178-1.603c0.535-0.369,1.213-0.553,2.027-0.553c0.871,0,1.559,0.205,2.066,0.619
			c0.391,0.311,0.582,0.712,0.582,1.207c0,0.375-0.053,0.809-0.164,1.306l-0.393,1.747c-0.117,0.555-0.188,1.008-0.188,1.357
			c0,0.22,0.051,0.537,0.148,0.953h-1.209C147.726,42.519,147.685,42.23,147.653,41.876z M148.097,39.188
			c-0.166,0.065-0.348,0.117-0.539,0.149c-0.191,0.037-0.512,0.075-0.961,0.114c-0.699,0.06-1.193,0.141-1.475,0.234
			c-0.293,0.097-0.51,0.25-0.654,0.454c-0.145,0.207-0.215,0.438-0.215,0.688c0,0.338,0.115,0.612,0.346,0.829
			c0.23,0.216,0.559,0.323,0.986,0.323c0.402,0,0.781-0.104,1.146-0.313c0.371-0.21,0.656-0.502,0.873-0.88
			C147.81,40.414,147.974,39.879,148.097,39.188z"/>
		<path fill="#FFFFFF" d="M155.47,41.73c-0.686,0.784-1.4,1.178-2.146,1.178c-0.664,0-1.223-0.244-1.666-0.738
			c-0.445-0.492-0.666-1.208-0.666-2.14c0-0.861,0.176-1.643,0.525-2.35c0.354-0.71,0.793-1.239,1.322-1.593
			c0.521-0.354,1.053-0.528,1.58-0.528c0.877,0,1.537,0.417,1.98,1.262l0.797-3.781h1.193l-2.025,9.709h-1.107L155.47,41.73z
			 M152.187,39.804c0,0.489,0.045,0.875,0.143,1.157c0.098,0.283,0.266,0.518,0.496,0.706c0.236,0.188,0.512,0.278,0.844,0.278
			c0.539,0,1.035-0.281,1.475-0.846c0.59-0.75,0.891-1.678,0.891-2.782c0-0.555-0.146-0.988-0.441-1.303
			c-0.295-0.313-0.656-0.471-1.1-0.471c-0.285,0-0.547,0.064-0.787,0.19c-0.232,0.13-0.469,0.345-0.699,0.654
			c-0.232,0.307-0.428,0.696-0.586,1.168C152.263,39.03,152.187,39.445,152.187,39.804z"/>
		<path fill="#FFFFFF" d="M158.493,42.749l1.471-7.036h1.197l-1.469,7.036H158.493z M160.243,34.396l0.285-1.356h1.191l-0.283,1.356
			H160.243z"/>
		<path fill="#FFFFFF" d="M161.825,42.749l1.473-7.036h1.084l-0.256,1.229c0.469-0.48,0.912-0.834,1.322-1.053
			c0.404-0.222,0.83-0.33,1.26-0.33c0.564,0,1.01,0.153,1.342,0.463c0.322,0.31,0.482,0.718,0.482,1.237
			c0,0.26-0.055,0.671-0.17,1.23l-0.896,4.259h-1.195l0.932-4.456c0.09-0.433,0.141-0.755,0.141-0.961
			c0-0.233-0.08-0.424-0.246-0.569c-0.16-0.146-0.389-0.219-0.697-0.219c-0.613,0-1.158,0.222-1.641,0.665
			c-0.475,0.44-0.83,1.195-1.057,2.27l-0.68,3.271H161.825z"/>
		<path fill="#FFFFFF" d="M169.573,43.383l1.215,0.116c-0.014,0.274,0.021,0.479,0.096,0.616c0.076,0.137,0.191,0.241,0.355,0.315
			c0.215,0.1,0.5,0.146,0.844,0.146c0.727,0,1.244-0.187,1.566-0.561c0.205-0.252,0.395-0.803,0.574-1.645l0.117-0.568
			c-0.619,0.632-1.287,0.946-1.982,0.946c-0.715,0-1.309-0.262-1.787-0.784c-0.482-0.522-0.719-1.267-0.719-2.222
			c0-0.79,0.188-1.517,0.566-2.18c0.373-0.661,0.824-1.162,1.346-1.499c0.521-0.338,1.057-0.505,1.607-0.505
			c0.926,0,1.633,0.434,2.133,1.31l0.236-1.156h1.102l-1.418,6.79c-0.154,0.748-0.355,1.328-0.609,1.748
			c-0.25,0.414-0.594,0.74-1.043,0.969c-0.451,0.229-0.971,0.345-1.559,0.345c-0.564,0-1.051-0.071-1.463-0.22
			c-0.404-0.144-0.709-0.357-0.91-0.642c-0.199-0.277-0.301-0.599-0.301-0.961C169.54,43.632,169.552,43.515,169.573,43.383z
			 M171.073,39.636c0,0.482,0.039,0.845,0.139,1.088c0.129,0.338,0.318,0.599,0.561,0.775c0.25,0.182,0.518,0.271,0.82,0.271
			c0.393,0,0.785-0.141,1.174-0.414c0.391-0.278,0.699-0.705,0.943-1.281c0.238-0.579,0.359-1.134,0.359-1.656
			c0-0.579-0.156-1.038-0.482-1.382c-0.316-0.342-0.709-0.513-1.184-0.513c-0.293,0-0.576,0.078-0.852,0.236
			c-0.268,0.153-0.529,0.394-0.766,0.715c-0.232,0.318-0.414,0.702-0.533,1.146C171.13,39.069,171.073,39.407,171.073,39.636z"/>
		<path fill="#FFFFFF" d="M177.786,42.749l0.285-1.357h1.355l-0.291,1.357H177.786z"/>
	</g>
</g>
</svg>
