<?xml version="1.0" encoding="utf-8"?>
<!-- Generator: Adobe Illustrator 14.0.0, SVG Export Plug-In . SVG Version: 6.00 Build 43363)  -->
<!DOCTYPE svg PUBLIC "-//W3C//DTD SVG 1.1//EN" "http://www.w3.org/Graphics/SVG/1.1/DTD/svg11.dtd">
<svg version="1.1" id="Layer_1" xmlns="http://www.w3.org/2000/svg" xmlns:xlink="http://www.w3.org/1999/xlink" x="0px" y="0px"
	 width="36px" height="36px" viewBox="0 0 36 36" enable-background="new 0 0 36 36" xml:space="preserve">
<g>
	<polygon fill="#2BA8E0" points="0,36 0,26 23.725,26 28.854,32.223 25.175,32.223 27.934,34.982 31.184,34.981 31.184,34.982 
		33.941,34.981 33.941,32.223 33.941,28.975 31.183,26.214 31.184,30.331 27.613,26 36,26 36,36 	"/>
	<polygon fill="#2BA8E0" points="16.334,16.5 14.763,17.583 13.876,16.5 	"/>
	<polygon fill="#2BA8E0" points="19.782,16.5 36,16.5 36,24 25.965,24 	"/>
	<polygon fill="#2BA8E0" points="14.19,21.621 17.968,19.017 22.076,24 0,24 0,16.5 9.998,16.5 	"/>
	<polygon fill="#2BA8E0" points="9.18,15.5 0,15.5 0,8.25 3.245,8.25 	"/>
	<polygon fill="#2BA8E0" points="18.532,14.984 17.784,15.5 13.058,15.5 7.123,8.25 36,8.25 36,15.5 18.958,15.5 	"/>
	<polygon fill="#2BA8E0" points="4.077,4.529 1.755,6.43 2.836,7.75 0,7.75 0,0 36,0 36,7.75 6.714,7.75 	"/>
</g>
</svg>
