<?xml version="1.0" encoding="utf-8"?>
<!DOCTYPE svg PUBLIC "-//W3C//DTD SVG 1.1//EN" "http://www.w3.org/Graphics/SVG/1.1/DTD/svg11.dtd">
<svg version="1.1" xmlns="http://www.w3.org/2000/svg" viewBox="0 0 400 400" xml:space="preserve">
<g>
	<g>
		<path fill="#989898" d="M200.119,11.45c26.594,0,53.617,5.609,79.356,17.456c47.685,21.946,81.96,61.144,98.829,106.777
			c16.868,45.631,16.33,97.697-5.616,145.384c-21.949,47.688-61.146,81.963-106.776,98.831c-21,7.763-43.361,11.839-66.033,11.839
			c-26.594,0-53.614-5.608-79.354-17.456c-47.688-21.946-81.963-61.145-98.831-106.776C4.827,221.871,5.363,169.806,27.312,122.12
			c21.947-47.687,61.145-81.964,106.776-98.832C155.089,15.525,177.448,11.45,200.119,11.45 M200.119,6.653
			c-23.134,0-45.909,4.083-67.694,12.135C83.596,36.837,44.718,72.822,22.954,120.114C1.189,167.4-0.856,220.335,17.195,269.168
			c18.05,48.83,54.035,87.708,101.324,109.472c25.801,11.874,53.174,17.895,81.36,17.895c23.134,0,45.911-4.082,67.696-12.136
			c48.827-18.05,87.704-54.033,109.472-101.324c21.765-47.29,23.809-100.224,5.759-149.054
			C364.752,85.189,328.77,46.312,281.48,24.548C255.681,12.673,228.306,6.653,200.119,6.653L200.119,6.653z"/>
		<g>
			<path fill="#2AAAE2" d="M133.317,22.933l0.563-0.208c21.317-7.879,43.604-11.875,66.239-11.875
				c27.575,0,54.359,5.891,79.606,17.511l0.546,0.25L199.94,203.159L133.317,22.933z"/>
			<path fill="#E6E6E5" d="M200.119,11.45c26.594,0,53.617,5.609,79.356,17.456L200,201.594L134.088,23.288
				C155.089,15.525,177.448,11.45,200.119,11.45 M200.119,10.25c-22.707,0-45.063,4.008-66.447,11.912l-1.125,0.417l0.416,1.125
				l65.912,178.305l1.004,2.716l1.211-2.63l79.474-172.688l0.503-1.089l-1.09-0.501C254.649,16.161,227.782,10.25,200.119,10.25
				L200.119,10.25z"/>
		</g>
		<g>
			<path fill="#FFFFFF" d="M198.434,201.532l180.225-66.62l0.208,0.563c17.662,47.778,15.661,99.572-5.634,145.843l-0.25,0.545
				L198.434,201.532z"/>
			<path fill="#E6E6E5" d="M378.305,135.684c16.868,45.631,16.33,97.697-5.616,145.384L200,201.594L378.305,135.684
				 M379.015,134.143l-1.123,0.415L199.584,200.47l-2.716,1.002l2.631,1.209l172.688,79.476l1.089,0.501l0.502-1.089
				c21.362-46.417,23.37-98.374,5.652-146.302L379.015,134.143L379.015,134.143z"/>
		</g>
		<g>
			<path fill="#1D3C6E" d="M26.517,122.414l0.25-0.545C48.063,75.596,86.103,40.387,133.88,22.725l0.563-0.208l66.623,180.227
				L26.517,122.414z"/>
			<path fill="#E6E6E5" d="M134.088,23.288L200,201.594L27.312,122.12C49.259,74.433,88.457,40.156,134.088,23.288 M134.797,21.748
				l-1.125,0.415C85.744,39.879,47.585,75.2,26.223,121.618l-0.501,1.089l1.089,0.502l172.688,79.473l2.63,1.212l-1.003-2.716
				L135.213,22.872L134.797,21.748L134.797,21.748z"/>
		</g>
		<g>
			<path fill="#3DB54A" d="M279.182,28.111l0.544,0.25c46.271,21.294,81.479,59.335,99.142,107.114l0.209,0.563l-180.226,66.62
				L279.182,28.111z"/>
			<g>
				<path fill="#E6E6E5" d="M279.476,28.906c47.685,21.946,81.96,61.144,98.829,106.777L200,201.594L279.476,28.906 M278.887,27.315
					l-0.501,1.089l-79.475,172.687l-1.21,2.631l2.716-1.006l178.306-65.908l1.125-0.417l-0.417-1.125
					c-17.718-47.929-53.038-86.09-99.453-107.451L278.887,27.315L278.887,27.315z"/>
			</g>
		</g>
		<g>
			<path fill="#F3F3F3" d="M198.936,200.444l174.549,80.331l-0.251,0.544c-21.297,46.273-59.339,81.482-107.113,99.143l-0.563,0.209
				L198.936,200.444z"/>
			<path fill="#E6E6E5" d="M200,201.594l172.688,79.474c-21.949,47.688-61.146,81.963-106.776,98.831L200,201.594 M197.871,199.293
				l1.004,2.715l65.912,178.306l0.416,1.126l1.125-0.417c47.926-17.716,86.086-53.036,107.449-99.454l0.502-1.089l-1.09-0.502
				l-172.688-79.473L197.871,199.293L197.871,199.293z"/>
		</g>
		<g>
			<path fill="#F79421" d="M21.133,267.714C3.47,219.931,5.471,168.137,26.767,121.869l0.251-0.544l174.548,80.329L21.341,268.276
				L21.133,267.714z"/>
			<path fill="#E6E6E5" d="M27.312,122.12L200,201.594L21.695,267.505C4.827,221.871,5.363,169.806,27.312,122.12 M26.724,120.529
				l-0.501,1.089c-21.363,46.413-23.371,98.37-5.653,146.303l0.416,1.126l1.125-0.417l178.306-65.913l2.716-1.003l-2.631-1.208
				L27.813,121.03L26.724,120.529L26.724,120.529z"/>
		</g>
		<g>
			<path fill="#ED2224" d="M199.879,392.337c-27.576,0-54.359-5.893-79.604-17.511l-0.545-0.25l80.33-174.548l66.623,180.226
				l-0.563,0.207c-21.318,7.88-43.604,11.876-66.239,11.876C199.881,392.337,199.88,392.337,199.879,392.337z"/>
			<path fill="#E6E6E5" d="M200,201.594l65.912,178.305c-21,7.763-43.361,11.839-66.033,11.839
				c-26.594,0-53.614-5.608-79.354-17.456L200,201.594 M200.121,198.462l-1.21,2.629L119.436,373.78l-0.502,1.089l1.09,0.501
				c25.325,11.656,52.192,17.567,79.855,17.567c22.707,0,45.063-4.009,66.449-11.914l1.125-0.416l-0.416-1.125l-65.911-178.305
				L200.121,198.462L200.121,198.462z"/>
		</g>
		<g>
			<path fill="#FFFFFF" d="M120.275,374.826c-46.272-21.294-81.481-59.335-99.142-107.112l-0.208-0.563l180.226-66.622
				l-80.332,174.548L120.275,374.826z"/>
			<path fill="#E6E6E5" d="M200,201.594l-79.475,172.688c-47.688-21.946-81.963-61.145-98.831-106.776L200,201.594 M202.3,199.464
				l-2.716,1.006L21.279,266.381l-1.125,0.416l0.416,1.124c17.716,47.929,53.037,86.089,99.454,107.449l1.089,0.502l0.501-1.09
				l79.476-172.688L202.3,199.464L202.3,199.464z"/>
		</g>
		<g>
			<circle fill="#818181" stroke="#FFFFFF" cx="134.04" cy="23.632" r="4.354"/>
			<circle fill="#818181" stroke="#FFFFFF" cx="27.318" cy="122.202" r="4.354"/>
			<circle fill="#818181" stroke="#FFFFFF" cx="21.391" cy="267.368" r="4.353"/>
			<circle fill="#818181" stroke="#FFFFFF" cx="119.589" cy="374.461" r="4.354"/>
			<circle fill="#818181" stroke="#FFFFFF" cx="265.961" cy="379.648" r="4.354"/>
			<circle fill="#818181" stroke="#FFFFFF" cx="371.941" cy="281.079" r="4.355"/>
			<circle fill="#818181" stroke="#FFFFFF" cx="378.241" cy="136.189" r="4.354"/>
			<circle fill="#818181" stroke="#FFFFFF" cx="278.56" cy="29.467" r="4.354"/>
		</g>
		<text transform="matrix(0 -1 1 0 209.1143 132.4585)" fill="#FFFFFF" font-family="Arial" font-weight="bold" font-size="16.6753">UPSIDE</text>
		<text transform="matrix(0 -1 1 0 205.7783 364.8018)" fill="#FFFFFF" font-family="Arial" font-weight="bold" font-size="16.6753">DOWNSIDE</text>
		
			<text transform="matrix(0.7071 -0.7071 0.7071 0.7071 268.9531 144.1221)" fill="#1A1A1A" font-family="Arial" font-weight="bold" font-size="16.6754">SELL</text>
		<text transform="matrix(1 0 0 1 267.6406 203.6875)"><tspan x="0" y="0" fill="#1A1A1A" font-family="Arial" font-weight="bold" font-size="16.6753">NO</tspan><tspan x="0" y="16.791" fill="#1A1A1A" font-family="Arial" font-weight="bold" font-size="16.6753">MARGIN CALL</tspan></text>
		<text transform="matrix(1 0 0 1 26.9023 205.9111)" fill="#1A1A1A" font-family="Arial" font-weight="bold" font-size="16.6753">LIMITED-RISK</text>
		
			<text transform="matrix(0.7071 0.7071 -0.7071 0.7071 246.7383 262.1367)" fill="#1A1A1A" font-family="Arial" font-weight="bold" font-size="16.6754">NO STOP</text>
		
			<text transform="matrix(0.7071 -0.7071 0.7071 0.7071 85.6582 327.0039)" fill="#1A1A1A" font-family="Arial" font-weight="bold" font-size="16.6754">NO SURPRISES</text>
	</g>
	<path fill="#1A1A1A" d="M221.4,6.417c-8.065-3.71-16.868-3.802-24.586-0.951l11.146,30.151L221.4,6.417z"/>
	<g>
		<path fill="#FFFFFF" d="M218.889,182.701c-10.42-10.425-27.369-10.425-37.789-0.003c-10.418,10.418-10.418,27.376,0,37.797
			c10.42,10.425,27.375,10.422,37.789-0.002C229.319,210.074,229.319,193.117,218.889,182.701z"/>
		<g>
			<path fill="#2A3052" d="M192.547,208.604c0,0,0.308,2.293,2.237,3.354l-0.514-0.958
				C194.27,211.001,195.251,208.423,192.547,208.604z"/>
			<path fill="#2A3052" d="M217.536,184.053c-9.676-9.681-25.41-9.681-35.084-0.004c-9.673,9.677-9.673,25.419,0,35.097
				c9.674,9.676,25.413,9.673,35.084-0.002C227.222,209.468,227.222,193.726,217.536,184.053z M214.972,216.575
				c-0.271,0.268-0.536,0.525-0.811,0.773c-5.961,4.855-10.551,2.44-10.604,2.44c-3.112-0.623-4.656-0.632-5.528-1.216
				c-0.22-0.146-0.924-0.525-1.086-0.435c-0.635,0.379-1.508,0.573-2.407-0.142c-0.082-0.067-0.154-0.138-0.226-0.205
				c-0.988-0.987-0.652-2.005-0.323-2.358c0.228-0.232-0.174-0.885-0.174-0.885s-1.167-1.734-1.966-2.779
				c-0.879-1.146-0.998-3.421-1.009-3.45l-0.012-0.031c-0.889-1.057-0.98-1.382-1.288-1.896c-0.179-0.304-0.453-0.589-0.688-0.834
				c-0.161-0.16-0.31-0.313-0.412-0.454c-0.024-0.03-0.031-0.076-0.02-0.146c0.08-0.493,1.14-1.577,1.367-1.729
				c0.281-0.182,1.488-0.916,1.488-0.916s0.679-1.065,1.834-1.065c1.041,0.003,1.677-0.058,3.474,0.527l0.748,0.236
				c1.253,0.402,2.356,0.876,3.235,1.254c0.745,0.321,1.34,0.58,1.796,0.699c1.551,0.408,4.283-0.846,4.86-1.376
				c0.945-0.86,1.354-1.438,1.358-1.91c0.008-0.266-0.109-0.495-0.378-0.776c-0.139-0.128-0.317-0.368-0.543-0.595
				c-0.035-0.037-0.073-0.078-0.119-0.111c-2.624-2.787-2.169-4.534-2.167-4.562c0.111-1.253-0.606-2.057-1.378-2.89l-0.129-0.158
				c-0.039-0.037-0.089-0.1-0.089-0.1c1.117,0.183,1.878,0.632,4.062,0.876c1.238,0.133,0.848,0.121,1.837,0.096
				c1.365-0.044,2.445-0.164,2.52-0.472c-0.133-0.114-0.736,0.034-3.634-1.074c-1.34-0.515-1.552-0.591-2.405-0.874
				c-1.096-0.37-2.283-0.882-2.283-0.882c4.726,1.241,6.271,1.726,8.434,1.756c0.834,0.015,1.332-0.085,1.625-0.146
				c0.308-0.056,1.261-0.271,1.37-0.601c0.033-0.058-0.916,0.154-2.668-0.423c-5.516-1.823-5.984-2.735-9.044-3.924
				c-1.065-0.415-1.413-0.643-4.634-1.473c-1.476-0.379-3.707-0.16-4.009,0.029c-4.183-0.982-5.133-0.875-6.36-0.612
				c8.181-5.246,19.229-4.3,26.387,2.857c0.971,0.972,1.828,2.019,2.582,3.125l0.101,0.152c2.297,3.438,3.521,7.474,3.521,11.696
				C221.176,207.256,218.973,212.571,214.972,216.575z M201.081,192.663c2.078,0.742,2.744,2.954,2.744,2.954
				c-2.641,0.599-2.082-2.095-2.082-2.095L201.081,192.663z"/>
		</g>
	</g>
</g>
</svg>
