<?xml version="1.0" encoding="utf-8"?>
<!-- Generator: Adobe Illustrator 19.2.1, SVG Export Plug-In . SVG Version: 6.00 Build 0)  -->
<svg version="1.1" id="Layer_1" xmlns="http://www.w3.org/2000/svg" xmlns:xlink="http://www.w3.org/1999/xlink" x="0px" y="0px"
	 viewBox="0 0 100 100" style="enable-background:new 0 0 100 100;" xml:space="preserve">
<style type="text/css">
	.st0{fill:none;stroke:#293052;stroke-width:3.642;stroke-miterlimit:10;}
	.st1{fill:none;stroke:#293052;stroke-width:4;stroke-miterlimit:10;}
	.st2{fill:none;stroke:#293052;stroke-width:3.1704;stroke-miterlimit:10;}
	.st3{fill:none;stroke:#293052;stroke-width:3.8134;stroke-miterlimit:10;}
	.st4{fill:none;stroke:#293052;stroke-width:4.1701;stroke-miterlimit:10;}
	.st5{fill:#293052;}
	.st6{fill:none;stroke:#293052;stroke-width:3.1824;stroke-miterlimit:10;}
	.st7{font-family:'Roboto-Black';}
	.st8{font-size:38.669px;}
</style>
<g>
	<path class="st1" d="M61.1,18.2c5.2-3.5,8.6-9.5,8.6-16.2H30.4c0,6.7,3.4,12.7,8.6,16.2C21.9,23,9.3,38.7,9.3,57.3
		C9.3,79.8,27.5,98,50,98c22.5,0,40.7-18.2,40.7-40.7C90.7,38.7,78.1,23,61.1,18.2z"/>
	<path class="st6" d="M58.6,13.7c2.7-1.8,4.4-4.9,4.4-8.3"/>
	<line class="st1" x1="32.8" y1="18.1" x2="67.4" y2="18.1"/>
	<text transform="matrix(1 0 0 1 38.8033 70.6055)" class="st5 st7 st8">$</text>
	<circle class="st1" cx="50.1" cy="57.3" r="25.2"/>
</g>
</svg>
