<?xml version="1.0" encoding="utf-8"?>
<!-- Generator: Adobe Illustrator 19.2.1, SVG Export Plug-In . SVG Version: 6.00 Build 0)  -->
<svg version="1.1" id="Layer_1" xmlns="http://www.w3.org/2000/svg" xmlns:xlink="http://www.w3.org/1999/xlink" x="0px" y="0px"
	 viewBox="0 0 100 100" style="enable-background:new 0 0 100 100;" xml:space="preserve">
<style type="text/css">
	.st0{fill:none;stroke:#293052;stroke-width:3.642;stroke-miterlimit:10;}
	.st1{fill:none;stroke:#293052;stroke-width:4;stroke-miterlimit:10;}
	.st2{fill:none;stroke:#293052;stroke-width:3.1704;stroke-miterlimit:10;}
	.st3{fill:none;stroke:#293052;stroke-width:3.8134;stroke-miterlimit:10;}
	.st4{fill:none;stroke:#293052;stroke-width:4.1701;stroke-miterlimit:10;}
	.st5{fill:#293052;}
	.st6{fill:none;stroke:#293052;stroke-width:3.1824;stroke-miterlimit:10;}
</style>
<g>
	<g>
		<path class="st5" d="M70.6,39.8c2.3-1,3.9-3.2,4.2-5.7c0.3-2.3-0.5-4.5-2.1-6.1C72.4,13.6,62.1,2,49.5,2C37,2,26.8,13.4,26.3,27.7
			c-1.8,1.6-2.8,4-2.5,6.4c0.3,2.8,2.2,5,4.6,5.9c3.8,9.7,12.1,16.1,21,16.1C58.5,56.1,66.8,49.6,70.6,39.8z M49.5,7.1
			c8.4,0,15.4,6.9,17.4,16.2c-7.1-1.6-10.9-9-11-9l-2.4-4.8l-2.2,4.9c-4,8.7-14.6,9.9-19.5,10C33.4,14.6,40.7,7.1,49.5,7.1z
			 M49.5,51c-7.1,0-13.8-5.6-16.6-14l-0.5-1.5l-1.6-0.2c-0.9-0.1-1.6-0.9-1.8-1.8c-0.1-0.9,0.3-1.8,1.1-2.2l1.4-0.7l0-0.9
			c5.1,0,16.1-1,22.3-9.3c2.5,3.2,7.1,7.6,13.7,8.4c0,0,0,0.1,0,0.1l0,1.8l1.2,0.8c0.7,0.4,1.1,1.3,1,2.1c-0.1,0.9-0.8,1.6-1.6,1.8
			l-1.4,0.3L66.2,37C63.3,45.4,56.6,51,49.5,51z"/>
		<path class="st5" d="M39.8,61.6c-14.3,4.5-23,16-23,30.5V98h5.1v-5.9C21.9,79.5,30,69.5,43,66l1.9-0.5v-8.3h-5.1V61.6z"/>
		<path class="st5" d="M60.2,61.6v-4.4h-5.1v8.3L57,66c13,3.4,21.1,13.4,21.1,26.1V98h5.1v-5.9C83.2,77.7,74.5,66.1,60.2,61.6z"/>
	</g>
	<g>
		<line class="st1" x1="50" y1="98" x2="50" y2="74.2"/>
		<polyline class="st1" points="55.5,68.7 50,74.2 44.5,68.7 		"/>
	</g>
</g>
</svg>
