<?xml version="1.0" encoding="utf-8"?>
<!-- Generator: Adobe Illustrator 19.2.1, SVG Export Plug-In . SVG Version: 6.00 Build 0)  -->
<svg version="1.1" id="Layer_1" xmlns="http://www.w3.org/2000/svg" xmlns:xlink="http://www.w3.org/1999/xlink" x="0px" y="0px"
	 viewBox="0 0 100 100" style="enable-background:new 0 0 100 100;" xml:space="preserve">
<style type="text/css">
	.st0{fill:none;stroke:#293052;stroke-width:3.642;stroke-miterlimit:10;}
	.st1{fill:none;stroke:#293052;stroke-width:4;stroke-miterlimit:10;}
	.st2{fill:none;stroke:#293052;stroke-width:3.1704;stroke-miterlimit:10;}
	.st3{fill:none;stroke:#293052;stroke-width:3.8134;stroke-miterlimit:10;}
	.st4{fill:none;stroke:#293052;stroke-width:4.1701;stroke-miterlimit:10;}
	.st5{fill:#293052;}
	.st6{fill:none;stroke:#293052;stroke-width:3.1824;stroke-miterlimit:10;}
</style>
<g>
	<circle class="st1" cx="50" cy="73.7" r="24.3"/>
	<polyline class="st1" points="37.9,71.2 47.9,81.2 64.3,64.8 	"/>
	<path class="st1" d="M9.8,2v80.3h17.4c-1-2.7-1.6-5.6-1.6-8.7c0-13.4,10.9-24.3,24.3-24.3c13.4,0,24.3,10.9,24.3,24.3
		c0,3.1-0.6,6-1.6,8.7h17.4V2H9.8z"/>
	<g>
		<circle class="st5" cx="27.4" cy="16.9" r="2.5"/>
		<circle class="st5" cx="27.4" cy="27.9" r="2.5"/>
		<circle class="st5" cx="27.4" cy="39.4" r="2.5"/>
		<line class="st1" x1="37.6" y1="16.9" x2="75" y2="16.9"/>
		<line class="st1" x1="37.6" y1="27.9" x2="75" y2="27.9"/>
		<line class="st1" x1="37.6" y1="39.4" x2="68.9" y2="39.4"/>
	</g>
</g>
</svg>
