<?xml version="1.0" encoding="utf-8"?>
<!-- Generator: Adobe Illustrator 19.2.1, SVG Export Plug-In . SVG Version: 6.00 Build 0)  -->
<svg version="1.1" id="Layer_1" xmlns="http://www.w3.org/2000/svg" xmlns:xlink="http://www.w3.org/1999/xlink" x="0px" y="0px"
	 viewBox="0 0 100 100" style="enable-background:new 0 0 100 100;" xml:space="preserve">
<style type="text/css">
	.st0{fill:none;stroke:#293052;stroke-width:3.642;stroke-miterlimit:10;}
	.st1{fill:none;stroke:#293052;stroke-width:4;stroke-miterlimit:10;}
	.st2{fill:none;stroke:#293052;stroke-width:3.1704;stroke-miterlimit:10;}
	.st3{fill:none;stroke:#293052;stroke-width:3.8134;stroke-miterlimit:10;}
	.st4{fill:none;stroke:#293052;stroke-width:4.1701;stroke-miterlimit:10;}
	.st5{fill:#293052;}
	.st6{fill:none;stroke:#293052;stroke-width:3.1824;stroke-miterlimit:10;}
</style>
<g>
	<path class="st1" d="M87.9,73.4V39.9C87.9,19,70.9,2,50,2C29.1,2,12.1,19,12.1,39.9v33.5"/>
	<rect x="12.1" y="47.7" class="st1" width="14.2" height="25.7"/>
	<path class="st1" d="M19.2,72.2C19.2,83.7,28.5,93,40,93"/>
	<path class="st1" d="M58.2,91.1v3.8c0,1.7-1.4,3.2-3.2,3.2H43.2c-1.7,0-3.2-1.4-3.2-3.2v-3.8c0-1.7,1.4-3.2,3.2-3.2h11.8
		C56.8,87.9,58.2,89.3,58.2,91.1z"/>
	<rect x="73.6" y="47.7" class="st1" width="14.2" height="25.7"/>
</g>
</svg>
