<?xml version="1.0" encoding="utf-8"?>
<!-- Generator: Adobe Illustrator 19.2.1, SVG Export Plug-In . SVG Version: 6.00 Build 0)  -->
<svg version="1.1" id="Layer_1" xmlns="http://www.w3.org/2000/svg" xmlns:xlink="http://www.w3.org/1999/xlink" x="0px" y="0px"
	 viewBox="0 0 100 100" style="enable-background:new 0 0 100 100;" xml:space="preserve">
<style type="text/css">
	.st0{fill:none;stroke:#293052;stroke-width:3.642;stroke-miterlimit:10;}
	.st1{fill:none;stroke:#293052;stroke-width:4;stroke-miterlimit:10;}
	.st2{fill:none;stroke:#293052;stroke-width:3.1704;stroke-miterlimit:10;}
	.st3{fill:none;stroke:#293052;stroke-width:3.8134;stroke-miterlimit:10;}
	.st4{fill:none;stroke:#293052;stroke-width:4.1701;stroke-miterlimit:10;}
	.st5{fill:#293052;}
	.st6{fill:none;stroke:#293052;stroke-width:3.1824;stroke-miterlimit:10;}
</style>
<g>
	<g>
		<g>
			<path class="st5" d="M57.1,57.3c1-0.9,1.9-1.9,2.8-3c0.6-0.7,1.1-1.5,1.6-2.3c0.6-1,1.1-2,1.6-3.2c0.1-0.2,0.2-0.4,0.3-0.7
				c1.1-0.5,2-1.3,2.6-2.2c0.5-0.8,0.9-1.7,1-2.7c0.1-0.6,0.1-1.2,0-1.8c-0.1-0.8-0.4-1.6-0.8-2.2c-0.3-0.4-0.6-0.8-0.9-1.2
				c0-0.9-0.1-1.9-0.2-2.8c-0.1-0.9-0.3-1.7-0.5-2.5c-0.3-1.3-0.7-2.6-1.2-3.8c-0.3-0.7-0.6-1.5-1-2.2c-3.5-6.6-9.8-11-17-11
				c-7.2,0-13.5,4.4-17,11c-0.4,0.7-0.7,1.4-1,2.1c-0.5,1.2-0.9,2.5-1.2,3.8c-0.4,1.6-0.6,3.3-0.7,5.1c0,0,0,0.1-0.1,0.1
				c-1,0.9-1.7,2.2-2,3.6c-0.1,0.6-0.1,1.2-0.1,1.9c0.1,0.5,0.2,1,0.4,1.5c0.6,1.7,1.9,3,3.6,3.6c0.5,1.3,1.2,2.6,1.9,3.8
				c0.5,0.8,1,1.6,1.6,2.3c0.9,1.1,1.8,2.1,2.8,3c0.6,0.5,1.2,1,1.8,1.4c3,2.1,6.4,3.3,10,3.3c3.6,0,7.1-1.2,10.1-3.4
				C55.9,58.3,56.5,57.8,57.1,57.3z M30.9,31.8c0.3-0.8,0.6-1.6,0.9-2.3c2.7-5.6,7.7-9.4,13.4-9.4c5.8,0,10.8,3.8,13.4,9.4
				c0.4,0.8,0.7,1.6,1,2.4c0.2,0.7,0.4,1.4,0.6,2.1c-0.6-0.1-1.2-0.4-1.8-0.6c-0.8-0.3-1.5-0.7-2.1-1.1c-3.6-2.4-5.5-6-5.5-6
				l-2.1-4.1l-1.9,4.2c-2.3,5-7.1,7.1-11.3,8c-0.8,0.2-1.7,0.3-2.4,0.4c-1.1,0.1-2.2,0.2-3,0.2C30.3,33.9,30.5,32.8,30.9,31.8z
				 M52.6,55.3c-2.2,1.6-4.8,2.4-7.4,2.4c-2.6,0-5.2-0.9-7.5-2.5c-0.6-0.4-1.2-0.9-1.7-1.4c-0.9-0.9-1.7-1.8-2.5-2.9
				c-1-1.4-1.8-3-2.4-4.8c0-0.1-0.1-0.2-0.1-0.3l-0.4-1.3l-1.4-0.2c-0.8-0.1-1.4-0.7-1.5-1.6c-0.1-0.8,0.3-1.5,1-1.9v0l1.2-0.6
				l0-0.8c0.4,0,0.8,0,1.3,0c1.2,0,2.5-0.2,4-0.4c0.7-0.1,1.5-0.3,2.3-0.5c4.1-1,8.5-3,11.6-7.1c1.2,1.5,2.9,3.3,5.2,4.8
				c0.6,0.4,1.3,0.8,2.1,1.1c1.1,0.5,2.3,0.9,3.7,1.2c0.3,0,0.6,0.1,0.8,0.1c0,0,0,0,0,0.1l0,1.5l1,0.7c0.6,0.4,0.9,1.1,0.8,1.8
				c0,0,0,0,0,0c-0.1,0.7-0.6,1.3-1.4,1.5l-1.2,0.3l-0.4,1.2c-0.1,0.4-0.3,0.9-0.5,1.3c-0.6,1.4-1.3,2.8-2.2,4
				c-0.8,1.1-1.6,2.1-2.5,2.9C53.8,54.4,53.2,54.9,52.6,55.3z"/>
		</g>
		<g>
			<path class="st5" d="M36.9,66.8c-2.3,0.7-4.5,1.7-6.4,2.8c-0.8,0.5-1.6,1-2.4,1.6c-1.2,0.9-2.4,1.9-3.4,2.9
				c-0.6,0.6-1.1,1.2-1.6,1.8c-3.7,4.6-5.8,10.4-5.8,16.9V98h4.4v-5.1c0-6,2.1-11.3,6-15.4c0.5-0.6,1.1-1.1,1.7-1.6
				c1.1-0.9,2.2-1.7,3.5-2.5c0.8-0.5,1.6-0.9,2.4-1.2c1.4-0.6,2.9-1.2,4.5-1.6l1.6-0.4V63h-4.4V66.8z"/>
		</g>
		<g>
			<path class="st5" d="M68.3,76c-0.5-0.6-1.1-1.3-1.6-1.8c-1-1.1-2.2-2-3.4-2.9c-0.8-0.6-1.6-1.1-2.4-1.6c-2-1.1-4.1-2.1-6.4-2.8
				V63H50v7.1l1.6,0.4c1.6,0.4,3.1,1,4.5,1.6c0.8,0.4,1.6,0.8,2.4,1.2c1.3,0.7,2.4,1.6,3.5,2.5c0.6,0.5,1.2,1.1,1.7,1.6
				c3.8,4,6,9.4,6,15.4V98h4.4v-5.1C74.1,86.4,72,80.6,68.3,76z"/>
		</g>
	</g>
	<g>
		<line class="st1" x1="74.9" y1="71.8" x2="94.9" y2="91.8"/>
		<circle class="st1" cx="45" cy="41.9" r="39.9"/>
	</g>
</g>
</svg>
