<?xml version="1.0" encoding="utf-8"?>
<!-- Generator: Adobe Illustrator 19.2.1, SVG Export Plug-In . SVG Version: 6.00 Build 0)  -->
<svg version="1.1" id="Layer_1" xmlns="http://www.w3.org/2000/svg" xmlns:xlink="http://www.w3.org/1999/xlink" x="0px" y="0px"
	 viewBox="0 0 100 100" style="enable-background:new 0 0 100 100;" xml:space="preserve">
<style type="text/css">
	.st0{fill:none;stroke:#293052;stroke-width:3.642;stroke-miterlimit:10;}
	.st1{fill:none;stroke:#293052;stroke-width:4;stroke-miterlimit:10;}
	.st2{fill:none;stroke:#293052;stroke-width:3.1704;stroke-miterlimit:10;}
	.st3{fill:none;stroke:#293052;stroke-width:3.8134;stroke-miterlimit:10;}
	.st4{fill:none;stroke:#293052;stroke-width:4.1701;stroke-miterlimit:10;}
</style>
<g>
	<g>
		<line class="st0" x1="90" y1="98.2" x2="10" y2="98.2"/>
		<rect x="1.8" y="1.8" class="st1" width="96.5" height="70.3"/>
		<rect x="11" y="9.6" class="st2" width="78" height="48.2"/>
		<polygon class="st3" points="58.5,98.2 41.5,98.2 44.1,72.1 55.9,72.1 		"/>
	</g>
	<g>
		<path class="st2" d="M65.8,35.9l-1.3,0.6c-1.3,0.6-1.8,2.2-1.1,3.4l0.8,1.3l-2.6,3.6L60,44.4c-1.4-0.3-2.8,0.7-2.9,2.1L57,48.1
			l-4.2,1.4l-1-1.1c-1-1.1-2.6-1.1-3.6,0l-1,1.1L43,48.1l-0.1-1.5c-0.1-1.4-1.5-2.4-2.9-2.1l-1.5,0.3l-2.6-3.6l0.8-1.3
			c0.7-1.2,0.2-2.8-1.1-3.4l-1.4-0.6v-4.4l1.4-0.6c1.3-0.6,1.8-2.2,1.1-3.4l-0.8-1.3l2.6-3.6l1.5,0.3c1.4,0.3,2.8-0.7,2.9-2.1
			l0.1-1.5l4.2-1.4l1,1.1c1,1.1,2.6,1.1,3.6,0l1-1.1l4.2,1.4l0.1,1.5c0.1,1.4,1.5,2.4,2.9,2.1l1.5-0.3l2.6,3.6l-0.8,1.3
			c-0.7,1.2-0.2,2.8,1.1,3.4l1.4,0.6V35.9L65.8,35.9z"/>
		<ellipse class="st4" cx="50" cy="33.7" rx="6.5" ry="6.5"/>
	</g>
</g>
</svg>
