<?xml version="1.0" encoding="utf-8"?>
<!-- Generator: Adobe Illustrator 19.2.1, SVG Export Plug-In . SVG Version: 6.00 Build 0)  -->
<svg version="1.1" id="Layer_1" xmlns="http://www.w3.org/2000/svg" xmlns:xlink="http://www.w3.org/1999/xlink" x="0px" y="0px"
	 viewBox="0 0 100 100" style="enable-background:new 0 0 100 100;" xml:space="preserve">
<style type="text/css">
	.st0{fill:none;stroke:#293052;stroke-width:3.642;stroke-miterlimit:10;}
	.st1{fill:none;stroke:#293052;stroke-width:4;stroke-miterlimit:10;}
	.st2{fill:none;stroke:#293052;stroke-width:3.1704;stroke-miterlimit:10;}
	.st3{fill:none;stroke:#293052;stroke-width:3.8134;stroke-miterlimit:10;}
	.st4{fill:none;stroke:#293052;stroke-width:4.1701;stroke-miterlimit:10;}
	.st5{fill:#293052;}
	.st6{fill:none;stroke:#293052;stroke-width:3.1824;stroke-miterlimit:10;}
	.st7{font-family:'Roboto-Black';}
	.st8{font-size:24.8852px;}
</style>
<g>
	<g>
		<line class="st1" x1="86.5" y1="71.1" x2="98" y2="82.6"/>
		<circle class="st1" cx="69.2" cy="53.8" r="23.1"/>
		<path class="st1" d="M69.2,76.8c-12.7,0-23.1-10.3-23.1-23.1c0-12.7,10.3-23.1,23.1-23.1c3.9,0,7.5,1,10.8,2.7
			C73.6,19.2,59.3,9.3,42.7,9.3C20.2,9.3,2,27.5,2,50c0,22.5,18.2,40.7,40.7,40.7c12.4,0,23.6-5.6,31-14.4
			C72.3,76.7,70.7,76.8,69.2,76.8z"/>
		<polyline class="st1" points="7.9,71.1 42.7,50 48.6,9.7 		"/>
		<line class="st1" x1="15.7" y1="19.6" x2="42.7" y2="50"/>
		<path class="st1" d="M2.3,54.7L42.7,50"/>
	</g>
	<text transform="matrix(1 0 0 1 59.9384 62.6726)" class="st5 st7 st8">%</text>
</g>
</svg>
