<svg width="96" height="96" viewBox="0 0 96 96" xmlns="http://www.w3.org/2000/svg"><title>ic-complete</title><g fill-rule="nonzero" fill="none"><path d="M64.091 28.516a1.694 1.694 0 0 0-1.195.28 1.448 1.448 0 0 0-.299 2.109l7.57 9.601h-44.57c-.88 0-1.594.671-1.594 1.499 0 .828.713 1.499 1.594 1.499h47.806c.88 0 1.594-.671 1.594-1.5.037-.42-.268-.83-.448-1.076l-9.412-11.803a1.634 1.634 0 0 0-1.046-.61zm-38.494 23.98c-.88 0-1.594.671-1.594 1.5-.037.42.268.83.448 1.076l9.412 11.803c.264.332.642.554 1.046.61.404.055.842-.034 1.195-.282a1.448 1.448 0 0 0 .299-2.108l-7.57-9.601h44.57c.88 0 1.594-.671 1.594-1.499 0-.828-.713-1.499-1.594-1.499H25.597z" fill="#E98024"/><path d="M48 93c24.853 0 45-20.147 45-45S72.853 3 48 3 3 23.147 3 48s20.147 45 45 45zm0 3C21.49 96 0 74.51 0 48S21.49 0 48 0s48 21.49 48 48-21.49 48-48 48z" fill="#2A3052"/></g></svg>