<svg xmlns="http://www.w3.org/2000/svg" viewBox="0 0 240 228"><path fill="#2BA9E0" d="M.147 78.553h89.454v75.049h-89.454z"/><g fill="#1A1A1A"><path d="M123.393 96.5h2.157v9.418c0 1.638-.185 2.939-.555 3.902-.374.96-1.041 1.749-2.008 2.351s-2.236.907-3.806.907c-1.529 0-2.777-.265-3.749-.789-.97-.529-1.663-1.289-2.078-2.285-.415-.996-.622-2.358-.622-4.086v-9.418h2.155v9.405c0 1.419.132 2.46.396 3.131.262.671.713 1.188 1.356 1.549.641.366 1.425.545 2.35.545 1.586 0 2.716-.357 3.391-1.077s1.012-2.103 1.012-4.147v-9.406zM128.976 107.565l2.035-.18c.096.817.321 1.484.673 2.005.352.524.898.947 1.638 1.269.742.325 1.576.484 2.503.484.823 0 1.547-.122 2.179-.366.628-.244 1.098-.581 1.405-1.009.309-.423.463-.891.463-1.395 0-.508-.15-.955-.445-1.338-.297-.382-.787-.703-1.468-.963-.438-.171-1.405-.436-2.901-.793-1.5-.362-2.547-.699-3.147-1.017-.781-.411-1.358-.915-1.74-1.521-.382-.602-.573-1.277-.573-2.029 0-.821.236-1.59.701-2.306.468-.716 1.149-1.256 2.043-1.63.898-.37 1.896-.553 2.992-.553 1.208 0 2.275.194 3.196.581.923.39 1.635.96 2.131 1.72.496.756.762 1.61.801 2.565l-2.069.159c-.11-1.033-.488-1.81-1.128-2.338-.64-.525-1.588-.789-2.84-.789-1.305 0-2.255.24-2.851.72-.598.476-.896 1.053-.896 1.728 0 .586.211 1.065.634 1.443.415.379 1.499.769 3.251 1.163 1.752.398 2.956.744 3.608 1.041.949.435 1.649.992 2.1 1.659.453.671.679 1.447.679 2.321 0 .866-.248 1.684-.744 2.448-.496.768-1.212 1.366-2.141 1.793-.929.423-1.979.639-3.141.639-1.474 0-2.712-.216-3.708-.646-.996-.428-1.777-1.074-2.346-1.939-.565-.861-.864-1.836-.894-2.926zM145.466 112.801v-16.301h5.613c1.269 0 2.236.078 2.903.236.933.211 1.73.602 2.391 1.167.858.724 1.502 1.655 1.927 2.785.427 1.13.641 2.419.641 3.871 0 1.24-.145 2.338-.433 3.293-.289.956-.663 1.749-1.112 2.375-.453.626-.947 1.118-1.484 1.476-.539.362-1.189.635-1.946.817-.76.187-1.632.28-2.618.28h-5.882zm2.157-1.923h3.48c1.074 0 1.917-.102 2.529-.301.61-.203 1.098-.483 1.461-.846.51-.513.909-1.2 1.193-2.062.287-.866.429-1.911.429-3.143 0-1.704-.279-3.014-.84-3.928-.559-.915-1.24-1.529-2.039-1.843-.579-.224-1.508-.333-2.791-.333h-3.424v12.456zM169.034 106.398l3.151-.269c.231 1.533.776 2.688 1.626 3.46.85.772 1.875 1.159 3.076 1.159 1.445 0 2.669-.545 3.669-1.635 1-1.09 1.5-2.533 1.5-4.334 0-1.712-.48-3.063-1.443-4.055-.959-.987-2.22-1.483-3.777-1.483-.966 0-1.838.22-2.617.658-.778.439-1.391 1.009-1.835 1.712l-2.818-.37 2.368-12.556h12.158v2.867h-9.756l-1.317 6.57c1.468-1.021 3.007-1.533 4.619-1.533 2.135 0 3.936.74 5.404 2.216 1.468 1.48 2.202 3.384 2.202 5.705 0 2.212-.645 4.127-1.935 5.737-1.568 1.979-3.707 2.968-6.42 2.968-2.222 0-4.038-.622-5.444-1.866s-2.212-2.893-2.411-4.951zM188.882 100.742c0-2.891.297-5.217.893-6.978.594-1.764 1.478-3.122 2.651-4.078 1.173-.955 2.649-1.435 4.428-1.435 1.311 0 2.462.264 3.45.792.99.529 1.808 1.289 2.452 2.285.646.996 1.151 2.208 1.519 3.636.366 1.427.551 3.354.551 5.777 0 2.871-.297 5.185-.884 6.944-.59 1.766-1.47 3.127-2.643 4.087-1.173.964-2.655 1.443-4.444 1.443-2.358 0-4.208-.846-5.554-2.533-1.613-2.036-2.419-5.346-2.419-9.94zm3.084 0c0 4.014.47 6.685 1.409 8.015.939 1.329 2.098 1.992 3.479 1.992 1.378 0 2.537-.667 3.476-2.001.939-1.333 1.409-4.001 1.409-8.006 0-4.025-.47-6.696-1.409-8.022-.939-1.321-2.11-1.984-3.511-1.984-1.378 0-2.479.586-3.302 1.753-1.034 1.487-1.551 4.24-1.551 8.253zM210.412 112.801v-3.419h3.419v3.419h-3.419zM218.579 90.902v-1.65h9.044v1.338c-.89.943-1.772 2.203-2.645 3.772-.875 1.57-1.549 3.18-2.025 4.839-.344 1.167-.563 2.452-.661 3.843h-1.761c.02-1.102.236-2.428.648-3.984.413-1.558 1.004-3.059 1.777-4.502.772-1.447 1.592-2.663 2.462-3.655h-6.839zM229.807 99.383l1.801-.154c.134.879.443 1.537.929 1.98.486.439 1.071.658 1.758.658.826 0 1.525-.309 2.096-.931s.858-1.447.858-2.48c0-.976-.274-1.748-.825-2.313-.549-.564-1.269-.85-2.157-.85-.553 0-1.053.126-1.496.378-.445.252-.795.577-1.049.976l-1.61-.207 1.354-7.177h6.944v1.639h-5.574l-.752 3.753c.84-.581 1.72-.878 2.639-.878 1.22 0 2.25.427 3.088 1.269.84.846 1.258 1.932 1.258 3.261 0 1.265-.368 2.358-1.106 3.277-.895 1.13-2.118 1.695-3.667 1.695-1.272 0-2.309-.354-3.112-1.065-.804-.715-1.264-1.655-1.377-2.831z"/></g><path fill="#EB272A" d="M0 153.764h89.454v73.981h-89.454z"/><g fill="#1A1A1A"><path d="M123.393 171.151h2.157v9.417c0 1.639-.185 2.939-.555 3.903-.374.964-1.041 1.744-2.008 2.351-.968.602-2.236.906-3.806.906-1.529 0-2.777-.265-3.749-.789-.97-.528-1.663-1.289-2.078-2.285-.415-1-.622-2.358-.622-4.086v-9.417h2.155v9.404c0 1.415.132 2.46.396 3.131.262.671.713 1.188 1.356 1.55.641.365 1.425.545 2.35.545 1.586 0 2.716-.358 3.391-1.078s1.012-2.102 1.012-4.147v-9.405zM128.976 182.21l2.035-.175c.096.813.321 1.483.673 2.005.352.524.898.947 1.638 1.268.742.322 1.576.484 2.503.484.823 0 1.547-.122 2.179-.366.628-.243 1.098-.581 1.405-1.008.309-.427.463-.891.463-1.395 0-.513-.15-.96-.445-1.338-.297-.382-.787-.704-1.468-.964-.438-.171-1.405-.436-2.901-.793-1.5-.361-2.547-.699-3.147-1.021-.781-.406-1.358-.911-1.74-1.517-.382-.602-.573-1.281-.573-2.029 0-.825.236-1.59.701-2.305.468-.716 1.149-1.261 2.043-1.631.898-.37 1.896-.553 2.992-.553 1.208 0 2.275.191 3.196.581.923.391 1.635.964 2.131 1.72.496.753.762 1.61.801 2.566l-2.069.154c-.11-1.029-.488-1.806-1.128-2.334-.64-.524-1.588-.789-2.84-.789-1.305 0-2.255.24-2.851.716-.598.479-.896 1.058-.896 1.732 0 .585.211 1.065.634 1.443.415.378 1.499.765 3.251 1.163 1.752.395 2.956.744 3.608 1.036.949.439 1.649.992 2.1 1.663.453.671.679 1.443.679 2.318 0 .869-.248 1.687-.744 2.451-.496.769-1.212 1.366-2.141 1.789-.929.427-1.979.643-3.141.643-1.474 0-2.712-.216-3.708-.646-.996-.432-1.777-1.078-2.346-1.939-.565-.859-.864-1.839-.894-2.929zM145.466 187.448v-16.297h5.613c1.269 0 2.236.077 2.903.231.933.216 1.73.606 2.391 1.167.858.728 1.502 1.655 1.927 2.785.427 1.131.641 2.424.641 3.875 0 1.24-.145 2.334-.433 3.294-.289.955-.663 1.744-1.112 2.37-.453.626-.947 1.122-1.484 1.479-.539.358-1.189.631-1.946.818-.76.187-1.632.276-2.618.276h-5.882zm2.157-1.924h3.48c1.074 0 1.917-.098 2.529-.301.61-.199 1.098-.479 1.461-.842.51-.512.909-1.199 1.193-2.065.287-.861.429-1.906.429-3.139 0-1.704-.279-3.013-.84-3.932-.559-.915-1.24-1.529-2.039-1.838-.579-.224-1.508-.334-2.791-.334h-3.424v12.451zM169.034 181.043l3.151-.265c.231 1.533.776 2.688 1.626 3.461.85.772 1.875 1.158 3.076 1.158 1.445 0 2.669-.545 3.669-1.635 1-1.09 1.5-2.537 1.5-4.334 0-1.716-.48-3.065-1.443-4.054-.959-.988-2.22-1.484-3.777-1.484-.966 0-1.838.22-2.617.659-.778.439-1.391 1.008-1.835 1.707l-2.818-.365 2.368-12.557h12.158v2.867h-9.756l-1.317 6.57c1.468-1.021 3.007-1.533 4.619-1.533 2.135 0 3.936.74 5.404 2.217 1.468 1.479 2.202 3.379 2.202 5.704 0 2.212-.645 4.123-1.935 5.737-1.568 1.98-3.707 2.969-6.42 2.969-2.222 0-4.038-.623-5.444-1.871-1.408-1.243-2.212-2.893-2.411-4.951zM188.882 181.043l3.151-.265c.233 1.533.776 2.688 1.626 3.461.85.772 1.874 1.158 3.076 1.158 1.445 0 2.669-.545 3.669-1.635 1-1.09 1.5-2.537 1.5-4.334 0-1.716-.48-3.065-1.443-4.054-.959-.988-2.22-1.484-3.777-1.484-.966 0-1.838.22-2.617.659-.778.439-1.39 1.008-1.833 1.707l-2.82-.365 2.369-12.557h12.157v2.867h-9.756l-1.317 6.57c1.468-1.021 3.007-1.533 4.619-1.533 2.135 0 3.936.74 5.404 2.217 1.468 1.479 2.202 3.379 2.202 5.704 0 2.212-.644 4.123-1.935 5.737-1.567 1.98-3.707 2.969-6.42 2.969-2.222 0-4.038-.623-5.444-1.871-1.408-1.243-2.211-2.893-2.411-4.951zM210.412 187.448v-3.416h3.419v3.416h-3.419zM224.925 177.689h-1.716v-10.93c-.413.395-.953.789-1.624 1.184s-1.273.688-1.806.887v-1.659c.96-.451 1.797-.996 2.513-1.639.719-.643 1.228-1.265 1.526-1.866h1.106v14.023zM234.82 177.689h-1.716v-10.93c-.415.395-.955.789-1.626 1.184-.669.395-1.271.688-1.806.887v-1.659c.96-.451 1.797-.996 2.517-1.639.718-.643 1.226-1.265 1.525-1.866h1.106v14.023z"/></g><path fill="#1A1A1A" d="M240 141.274c0 1.954-1.6 3.554-3.554 3.554h-121.107c-1.955 0-3.554-1.6-3.554-3.554v-19.252c0-1.955 1.6-3.555 3.554-3.555h121.107c1.955 0 3.554 1.6 3.554 3.555v19.252z"/><text transform="translate(138.723 136.837)" fill="#fff" font-family="Arial" font-weight="bold" font-size="14.573">PURCHASE</text><path fill="#1A1A1A" d="M240 214.872c0 1.955-1.6 3.555-3.554 3.555h-121.107c-1.955 0-3.554-1.6-3.554-3.555v-19.252c0-1.954 1.6-3.554 3.554-3.554h121.107c1.955 0 3.554 1.6 3.554 3.554v19.252z"/><text transform="translate(138.723 210.434)" fill="#fff" font-family="Arial" font-weight="bold" font-size="14.573">PURCHASE</text><path fill="none" d="M2.023 107.119h85.702v17.911h-85.702z"/><text transform="translate(22.107 122.065)" fill="#fff" font-family="Arial" font-weight="bold" font-size="20.818">Rise</text><path fill="none" d="M2.023 181.795h85.702v17.91h-85.702z"/><text transform="translate(26.163 196.742)" fill="#fff" font-family="Arial" font-weight="bold" font-size="20.818">Fall</text><circle fill="#222" cx="124" cy="22" r="22"/><text transform="translate(117 30)" fill="#fff" font-family="Arial" font-weight="bold" font-size="22">2</text></svg>
