<svg xmlns="http://www.w3.org/2000/svg" width="100" height="70" viewBox="147.792 -143.569 100 70" enable-background="new 147.792 -143.569 100 70"><g><g><path fill="#D2282C" d="M160.903-104l6.496-17.815-18.433 6.278c-2.098.714-.743-.99-.743-.99l2.85-3.584c1.355-1.705 3.58-1.705 3.58-1.705s-2.225 0-3.58-1.704l-2.85-3.583s-1.355-1.704.743-.99l18.432 6.278v12.32s0 2.15-1.764 3.458l-3.708 2.754c-.002 0-1.764 1.31-1.025-.718m6.495-30.135v12.32l-6.496-17.815c-.74-2.027 1.024-.718 1.024-.718l3.708 2.754c1.764 1.31 1.764 3.46 1.764 3.46"/></g><g><path fill="#C5C7CA" d="M152.947-76.512h1.718l.853-2.27h3.232l.88 2.27h1.788l-3.645-9.104h-1.32l-3.506 9.104zM156-80.13l.66-1.787c.248-.7.385-1.1.468-1.416h.027c.083.302.206.716.453 1.402l.633 1.8H156zm9.933 3.755c1.664 0 2.846-.577 3.41-1.746.233-.47.344-1.074.344-1.775v-5.68h-1.65v5.557c0 .494-.082.907-.247 1.237-.316.645-.95 1.017-1.856 1.017s-1.54-.372-1.856-1.018c-.166-.33-.248-.744-.248-1.225v-5.57h-1.65v5.68c0 .688.11 1.293.343 1.76.55 1.183 1.732 1.76 3.41 1.76m7.613-.137h1.65v-7.66h2.42l.454-1.402h-7.165v1.4h2.64v7.662zm5.682 0h1.65v-3.92h4.332v3.92h1.664v-9.063h-1.664v3.74h-4.332v-3.74h-1.65v9.063zm14.01.137c2.64 0 4.565-1.855 4.565-4.634 0-2.735-1.885-4.646-4.565-4.646-2.682 0-4.566 1.897-4.566 4.647 0 2.78 1.898 4.635 4.566 4.635m0-1.39c-1.678 0-2.805-1.195-2.805-3.244 0-2.062 1.127-3.26 2.805-3.26 1.718 0 2.805 1.252 2.805 3.26 0 2.05-1.14 3.246-2.805 3.246m6.348 1.252h1.65v-3.535h.785c.22.056.55.427.99 1.237l1.308 2.298h1.897l-1.513-2.64c-.48-.826-.852-1.32-1.127-1.473v-.027c1.046-.33 1.774-1.127 1.774-2.338 0-.922-.386-1.76-1.348-2.214-.48-.233-1.087-.37-1.94-.37h-2.475v9.062zm1.65-4.88v-2.835h.757c.495 0 .797.11 1.017.26.4.236.606.663.606 1.144 0 .563-.25.977-.633 1.196-.274.15-.578.234-1.004.234h-.743zm6.308 4.88h1.65v-9.063h-1.65v9.063zm5.52 0h1.65v-7.66h2.42l.455-1.402h-7.166v1.4h2.64v7.662zm8.294 0h1.664v-3.576l3.094-5.486h-1.787l-2.105 4h-.027l-2.118-4h-1.815l3.095 5.473v3.588h-.002z"/></g><g><path fill="#C5C7CA" d="M152.947-88.3h1.65v-5.156c0-.316 0-.783-.014-1.142h.028c.18.344.427.66.62.936l1.98 2.846h.755l1.788-2.777c.166-.247.495-.756.62-1.017h.027c-.028.356-.028.823-.028 1.195v5.115h1.664v-9.063h-1.513l-2.172 3.37c-.315.48-.55.88-.742 1.223h-.027c-.205-.356-.438-.7-.755-1.168l-2.38-3.425h-1.498v9.063zm10.308 0h1.72l.852-2.27h3.23l.88 2.27h1.79l-3.646-9.103h-1.32l-3.505 9.103zm3.053-3.616l.66-1.788c.248-.7.386-1.1.468-1.416h.027c.083.303.207.715.454 1.402l.633 1.802h-2.242zm6.63 3.616h4.868v-1.402h-3.218v-7.66h-1.65v9.062zm6.964 0h1.65v-7.66h2.42l.453-1.402h-7.164v1.403h2.642v7.66zm3.707 0h1.717l.853-2.27h3.232l.88 2.27h1.788l-3.644-9.103h-1.32l-3.507 9.103zm3.052-3.616l.66-1.788c.248-.7.385-1.1.468-1.416h.027c.082.303.206.715.453 1.402l.632 1.802h-2.24zm17.243-.784h-1.664v2.873c-.356.165-.907.275-1.512.275-1.953 0-3.094-1.28-3.094-3.23 0-1.927 1.155-3.274 3.342-3.274.976 0 1.787.248 2.502.605v-1.54c-.688-.25-1.568-.455-2.626-.455-3.012 0-4.978 2.02-4.978 4.77 0 2.6 1.76 4.512 4.73 4.512 1.265 0 2.475-.316 3.3-.73V-92.7zm1.08 4.4h1.72l.853-2.27h3.23l.88 2.27h1.788l-3.645-9.103h-1.318l-3.507 9.103zm3.053-3.616l.66-1.788c.248-.7.385-1.1.468-1.416h.028c.082.303.205.715.453 1.402l.633 1.802h-2.242zm6.63 3.616h1.65v-5.156c0-.316 0-.783-.014-1.142h.027c.18.344.428.66.62.936l1.98 2.846h.755l1.788-2.777c.165-.247.495-.756.62-1.017h.027c-.028.356-.028.823-.028 1.195v5.115h1.663v-9.063h-1.512l-2.173 3.37c-.316.48-.55.88-.742 1.223h-.028c-.205-.356-.44-.7-.756-1.168l-2.38-3.425h-1.498v9.063zm11.343 0h1.652v-9.063h-1.65v9.063zm11.976 0v-9.063h-1.663v4.842c0 .494.014 1.044.027 1.525h-.027c-.275-.427-.605-.867-1.005-1.403l-3.795-4.965h-1.637v9.063h1.65v-5.143c0-.522 0-1.046-.028-1.402h.028c.302.412.618.866 1.018 1.374l3.933 5.17h1.5zm9.806-4.4h-1.664v2.873c-.356.165-.906.275-1.512.275-1.953 0-3.095-1.28-3.095-3.23 0-1.927 1.156-3.274 3.342-3.274.977 0 1.79.248 2.505.605v-1.54c-.69-.25-1.567-.455-2.628-.455-3.01 0-4.978 2.02-4.978 4.77 0 2.6 1.76 4.512 4.73 4.512 1.265 0 2.475-.316 3.3-.73V-92.7z"/></g><g><path fill="#858488" d="M171.75-111.514h6.53v-14.014c1.168-.864 2.682-1.34 3.937-1.34 2.422 0 2.68 1.73 2.68 3.72v11.634h6.532v-14.014c1.167-.864 2.637-1.34 3.89-1.34 2.423 0 2.726 1.643 2.726 3.632v11.722h6.53v-13.408c0-5.71-3.502-7.57-7.265-7.57-2.118 0-4.713.91-7.18 2.898-1.08-1.815-2.983-2.897-5.578-2.897-2.465 0-4.8 1.167-6.704 2.595l-.605-2.076h-5.493v20.456zm44.49 10.25c7.786 0 11.463-3.33 11.463-7.007 0-7.656-13.45-4.326-13.45-7.786 0-.217 0-.432.172-.908.605.173 1.47.26 2.336.26 5.234 0 8.91-2.984 8.91-7.698 0-1.688-.52-3.287-1.47-4.542.346-.13.95-.174 1.21-.174.52 0 1.168.088 1.73.217l1.21-4.5c-.345-.04-1.037-.085-1.47-.085-2.94 0-4.28.734-5.448 1.816-.174.173-.304.26-.52.13-.865-.518-2.38-.95-4.282-.95-6.315 0-8.866 4.108-8.866 7.698 0 2.682 1.21 5.19 3.59 6.444-1.644.908-2.725 2.335-2.725 3.763 0 1.038.475 2.033 1.34 2.51-1.86.647-3.634 2.334-3.634 4.713 0 3.416 3.46 6.098 9.905 6.098m.952-4.412c-3.243 0-5.104-1.167-5.104-2.854 0-.91.477-1.558.865-1.903 2.076 1.08 8.607.476 8.607 2.897 0 1.254-2.075 1.86-4.368 1.86m-.475-15.786c-1.946 0-2.898-1.557-2.898-3.114 0-2.162 1.253-3.157 2.81-3.157 1.99 0 2.985 1.644 2.985 3.2 0 2.033-1.255 3.07-2.898 3.07m25.712 9.95h5.36c-.345-1.126-.345-2.77-.345-4.023v-9.17c0-4.974-2.595-7.785-8.91-7.785-3.243 0-6.012.778-8.434 1.988l2.034 4.11c1.47-.78 3.46-1.255 5.19-1.255 2.205 0 3.59.778 3.59 2.682v.217l-3.244.13c-2.076.086-3.936.475-5.407 1.253-2.118 1.125-3.416 2.812-3.416 5.58 0 3.936 2.94 6.703 6.963 6.703 2.553 0 4.326-.95 5.71-2.163l.91 1.73zm-1.515-9.127v3.806c-.475.303-1.557.735-2.984.735-1.556 0-2.55-.69-2.55-2.118 0-.865.303-1.384.908-1.773.563-.347 1.384-.52 2.422-.564l2.205-.086z"/></g></g></svg>