<?xml version="1.0" encoding="utf-8"?>
<!-- Generator: Adobe Illustrator 14.0.0, SVG Export Plug-In . SVG Version: 6.00 Build 43363)  -->
<!DOCTYPE svg PUBLIC "-//W3C//DTD SVG 1.1//EN" "http://www.w3.org/Graphics/SVG/1.1/DTD/svg11.dtd">
<svg version="1.1" id="Layer_1" xmlns="http://www.w3.org/2000/svg" xmlns:xlink="http://www.w3.org/1999/xlink" x="0px" y="0px"
	 width="136px" height="111px" viewBox="0 0 136 111" enable-background="new 0 0 136 111" xml:space="preserve">
<g>
	<g>
		<g>
			<path fill="#F1F2F2" d="M110.052,9.55h-57.78c-2.428,0-4.416,1.986-4.416,4.416v90.611c0,2.428,1.988,4.415,4.416,4.415h76.874
				c2.429,0,4.417-1.987,4.417-4.415V33.236L110.052,9.55z"/>
			<polygon fill="#E6E7E8" points="133.562,33.236 109.901,33.236 109.901,9.55 			"/>
		</g>
		<g>
			<path fill="#D1D3D4" d="M63.696,45.449v-1.078l9.027-4.483v1.288l-7.719,3.744l7.719,3.705v1.288L63.696,45.449z"/>
			<path fill="#D1D3D4" d="M74.859,51.75V38.11h1.538v5.23c0.366-0.477,0.869-0.881,1.51-1.215s1.311-0.501,2.008-0.501
				c2.095,0,3.142,1.052,3.142,3.155v6.97H81.52v-6.471c0-0.828-0.189-1.409-0.568-1.744s-0.93-0.502-1.654-0.502
				c-0.558,0-1.106,0.15-1.644,0.452c-0.539,0.302-0.957,0.661-1.256,1.078v7.187H74.859z"/>
			<path fill="#D1D3D4" d="M84.764,43.283v-1.408h1.658v-2.646h1.538v2.646h2.027v1.408h-2.027v6.056
				c0,0.375,0.085,0.678,0.254,0.907c0.17,0.23,0.411,0.346,0.724,0.346c0.439,0,0.789-0.142,1.048-0.424l0.449,1.179
				c-0.453,0.429-1.058,0.646-1.817,0.653c-1.458,0-2.19-0.768-2.196-2.301v-6.416H84.764z"/>
			<path fill="#D1D3D4" d="M92.133,51.75v-9.875h1.538v1.466c0.259-0.401,0.691-0.788,1.295-1.159
				c0.604-0.371,1.242-0.557,1.913-0.557c0.708,0,1.286,0.176,1.737,0.525c0.45,0.35,0.752,0.803,0.906,1.359
				c0.299-0.502,0.754-0.942,1.365-1.319s1.259-0.565,1.943-0.565c1.842,0,2.763,0.995,2.763,2.985v7.14h-1.538v-6.68
				c0-1.357-0.607-2.037-1.823-2.037c-0.492,0-0.981,0.147-1.47,0.442s-0.868,0.651-1.141,1.068v7.206h-1.538v-6.68
				c0-1.357-0.608-2.037-1.823-2.037c-0.478,0-0.958,0.15-1.439,0.452s-0.865,0.661-1.151,1.078v7.187H92.133z"/>
			<path fill="#D1D3D4" d="M108.648,51.75V38.11h1.538v13.64H108.648z"/>
			<path fill="#D1D3D4" d="M112.053,54.546h1.248c0.366,0,0.686-0.158,0.958-0.475s0.409-0.707,0.409-1.171v-4.361
				c0-0.936,0.316-1.536,0.95-1.802c-0.633-0.258-0.95-0.853-0.95-1.784v-4.357c0-0.469-0.133-0.856-0.399-1.165
				c-0.266-0.308-0.589-0.461-0.968-0.461h-1.248v-1.089h1.248c0.679,0,1.281,0.254,1.807,0.761s0.789,1.165,0.789,1.975v4.217
				c0,0.408,0.091,0.746,0.274,1.014s0.444,0.401,0.784,0.401v0.979c-0.339,0-0.601,0.135-0.784,0.404
				c-0.183,0.269-0.274,0.612-0.274,1.029v4.261c0,0.798-0.263,1.45-0.789,1.956c-0.526,0.505-1.128,0.757-1.807,0.757h-1.248
				V54.546z"/>
		</g>
		<g>
			<path fill="#D1D3D4" d="M69.028,67.292v-1.078l9.027-4.483v1.288l-7.719,3.744l7.719,3.705v1.288L69.028,67.292z"/>
			<path fill="#D1D3D4" d="M78.863,72.265l0.899-1.288c0.726,0.898,1.578,1.348,2.556,1.348c0.832,0,1.496-0.263,1.992-0.788
				c0.496-0.526,0.744-1.219,0.744-2.077v-9.506h1.697v9.525c0,1.418-0.403,2.5-1.208,3.245c-0.806,0.746-1.847,1.119-3.125,1.119
				C80.947,73.843,79.762,73.316,78.863,72.265z"/>
			<path fill="#D1D3D4" d="M89.098,71.675l1.019-1.32c1.122,1.313,2.535,1.97,4.238,1.97c1.107,0,1.92-0.237,2.44-0.712
				c0.52-0.476,0.78-1.029,0.78-1.66c0-0.639-0.268-1.146-0.805-1.525s-1.201-0.679-1.993-0.899c-0.792-0.22-1.585-0.44-2.38-0.662
				c-0.795-0.221-1.469-0.607-2.021-1.16c-0.553-0.552-0.829-1.283-0.829-2.193c0-1.113,0.438-2.023,1.313-2.729
				c0.875-0.706,1.987-1.06,3.335-1.06c1.985,0,3.578,0.636,4.779,1.908l-0.984,1.25c-0.963-1.094-2.275-1.641-3.935-1.641
				c-0.82,0-1.494,0.203-2.02,0.609c-0.527,0.405-0.79,0.931-0.79,1.574c0,0.483,0.21,0.883,0.632,1.198
				c0.421,0.314,0.926,0.558,1.513,0.728c0.586,0.171,1.234,0.358,1.942,0.564s1.348,0.433,1.919,0.682
				c0.571,0.248,1.051,0.651,1.439,1.208c0.388,0.558,0.583,1.23,0.583,2.02c0,1.106-0.408,2.053-1.225,2.839
				s-2.067,1.18-3.753,1.18C92.109,73.843,90.377,73.12,89.098,71.675z"/>
			<path fill="#D1D3D4" d="M100.321,74.002l4.843-14.458h1.208l-4.843,14.458H100.321z"/>
			<path fill="#D1D3D4" d="M106.721,76.389h1.248c0.366,0,0.686-0.158,0.958-0.475s0.409-0.707,0.409-1.171v-4.361
				c0-0.936,0.316-1.536,0.95-1.802c-0.633-0.258-0.95-0.853-0.95-1.784v-4.357c0-0.469-0.133-0.856-0.399-1.165
				c-0.266-0.308-0.589-0.461-0.968-0.461h-1.248v-1.089h1.248c0.679,0,1.281,0.254,1.807,0.761s0.789,1.165,0.789,1.975v4.217
				c0,0.408,0.091,0.746,0.274,1.014s0.444,0.401,0.784,0.401v0.979c-0.339,0-0.601,0.135-0.784,0.404
				c-0.183,0.269-0.274,0.612-0.274,1.029v4.261c0,0.798-0.263,1.45-0.789,1.956c-0.526,0.505-1.128,0.757-1.807,0.757h-1.248
				V76.389z"/>
		</g>
		<g>
			<path fill="#D1D3D4" d="M58.549,89.136v-1.078l9.027-4.483v1.288l-7.719,3.744l7.719,3.705V93.6L58.549,89.136z"/>
			<path fill="#D1D3D4" d="M71.175,93.709c-1.321-1.317-1.982-3.012-1.982-5.082s0.661-3.765,1.982-5.082
				c1.321-1.318,2.977-1.978,4.967-1.978c2.197,0,3.921,0.902,5.172,2.706l-1.408,0.799c-0.393-0.6-0.927-1.08-1.603-1.443
				c-0.676-0.362-1.396-0.544-2.162-0.544c-1.511,0-2.764,0.518-3.759,1.553s-1.493,2.365-1.493,3.989
				c0,1.611,0.501,2.938,1.503,3.979c1.001,1.042,2.251,1.563,3.749,1.563c0.766,0,1.484-0.185,2.157-0.554s1.208-0.847,1.608-1.433
				l1.428,0.778c-1.325,1.811-3.056,2.72-5.192,2.727C74.152,95.687,72.497,95.027,71.175,93.709z"/>
			<path fill="#D1D3D4" d="M82.732,93.519l1.019-1.32c1.122,1.313,2.535,1.97,4.238,1.97c1.107,0,1.92-0.237,2.44-0.712
				c0.52-0.476,0.78-1.029,0.78-1.66c0-0.639-0.268-1.146-0.805-1.525s-1.201-0.679-1.993-0.899c-0.792-0.22-1.585-0.44-2.38-0.662
				c-0.795-0.221-1.469-0.607-2.021-1.16c-0.553-0.552-0.829-1.283-0.829-2.193c0-1.113,0.438-2.023,1.313-2.729
				c0.875-0.706,1.987-1.06,3.335-1.06c1.985,0,3.578,0.636,4.779,1.908l-0.984,1.25c-0.963-1.094-2.275-1.641-3.935-1.641
				c-0.82,0-1.494,0.203-2.02,0.609c-0.527,0.405-0.79,0.931-0.79,1.574c0,0.483,0.21,0.883,0.632,1.198
				c0.421,0.314,0.926,0.558,1.513,0.728c0.586,0.171,1.234,0.358,1.942,0.564s1.348,0.433,1.919,0.682
				c0.571,0.248,1.051,0.651,1.439,1.208c0.388,0.558,0.583,1.23,0.583,2.02c0,1.106-0.408,2.053-1.225,2.839
				s-2.067,1.18-3.753,1.18C85.744,95.687,84.012,94.964,82.732,93.519z"/>
			<path fill="#D1D3D4" d="M94.714,93.519l1.019-1.32c1.122,1.313,2.535,1.97,4.238,1.97c1.107,0,1.92-0.237,2.44-0.712
				c0.52-0.476,0.78-1.029,0.78-1.66c0-0.639-0.268-1.146-0.805-1.525s-1.201-0.679-1.993-0.899c-0.792-0.22-1.585-0.44-2.38-0.662
				c-0.795-0.221-1.469-0.607-2.021-1.16c-0.553-0.552-0.829-1.283-0.829-2.193c0-1.113,0.438-2.023,1.313-2.729
				c0.875-0.706,1.987-1.06,3.335-1.06c1.985,0,3.578,0.636,4.779,1.908l-0.984,1.25c-0.963-1.094-2.275-1.641-3.935-1.641
				c-0.82,0-1.494,0.203-2.02,0.609c-0.527,0.405-0.79,0.931-0.79,1.574c0,0.483,0.21,0.883,0.632,1.198
				c0.421,0.314,0.926,0.558,1.513,0.728c0.586,0.171,1.234,0.358,1.942,0.564s1.348,0.433,1.919,0.682
				c0.571,0.248,1.051,0.651,1.439,1.208c0.388,0.558,0.583,1.23,0.583,2.02c0,1.106-0.408,2.053-1.225,2.839
				s-2.067,1.18-3.753,1.18C97.726,95.687,95.994,94.964,94.714,93.519z"/>
			<path fill="#D1D3D4" d="M105.938,95.846l4.843-14.458h1.208l-4.843,14.458H105.938z"/>
			<path fill="#D1D3D4" d="M112.577,93.6v-1.288l7.708-3.705l-7.708-3.744v-1.288l9.027,4.483v1.078L112.577,93.6z"/>
		</g>
	</g>
	<g>
		<g>
			<path fill="#293052" d="M69.351,2.008H7.189c-2.612,0-4.751,2.138-4.751,4.751v97.483c0,2.612,2.139,4.75,4.751,4.75h82.704
				c2.613,0,4.752-2.138,4.752-4.75V27.491L69.351,2.008z"/>
			<polygon fill="#293052" points="94.644,27.491 69.189,27.491 69.189,2.008 			"/>
		</g>
		<g>
			<path fill="#FFFFFF" d="M16.864,40.63v-1.16l9.711-4.823v1.386l-8.304,4.028l8.304,3.985v1.386L16.864,40.63z"/>
			<path fill="#FFFFFF" d="M28.874,47.408V32.734h1.654v5.627c0.393-0.513,0.935-0.948,1.624-1.308
				c0.69-0.358,1.41-0.538,2.161-0.538c2.253,0,3.38,1.132,3.38,3.395v7.498h-1.654v-6.961c0-0.892-0.204-1.517-0.611-1.877
				c-0.407-0.36-1-0.54-1.779-0.54c-0.601,0-1.19,0.162-1.77,0.486c-0.579,0.324-1.029,0.711-1.351,1.16v7.731H28.874z"/>
			<path fill="#FFFFFF" d="M39.53,38.299v-1.515h1.783v-2.847h1.654v2.847h2.181v1.515h-2.181v6.516
				c0,0.403,0.091,0.729,0.274,0.977c0.183,0.247,0.442,0.371,0.779,0.371c0.473,0,0.849-0.152,1.128-0.456l0.483,1.269
				c-0.487,0.461-1.139,0.694-1.955,0.702c-1.568,0-2.356-0.825-2.363-2.476v-6.902H39.53z"/>
			<path fill="#FFFFFF" d="M47.458,47.408V36.784h1.654v1.577c0.279-0.432,0.743-0.848,1.393-1.247
				c0.65-0.398,1.336-0.599,2.058-0.599c0.761,0,1.384,0.188,1.868,0.564c0.485,0.377,0.81,0.864,0.975,1.464
				c0.321-0.541,0.811-1.015,1.468-1.42c0.658-0.405,1.354-0.608,2.091-0.608c1.981,0,2.973,1.07,2.973,3.212v7.681h-1.654v-7.186
				c0-1.462-0.654-2.192-1.961-2.192c-0.529,0-1.056,0.158-1.581,0.476c-0.525,0.317-0.934,0.701-1.227,1.149v7.753H53.86v-7.186
				c0-1.462-0.654-2.192-1.961-2.192c-0.515,0-1.031,0.162-1.549,0.486s-0.931,0.711-1.238,1.16v7.731H47.458z"/>
			<path fill="#FFFFFF" d="M65.226,47.408V32.734h1.654v14.674H65.226z"/>
			<path fill="#FFFFFF" d="M69.146,45.432v-1.386l8.293-3.985l-8.293-4.028v-1.386l9.711,4.823v1.16L69.146,45.432z"/>
		</g>
		<g>
			<path fill="#FFFFFF" d="M25.855,64.13v-1.16l9.711-4.823v1.386l-8.304,4.028l8.304,3.985v1.386L25.855,64.13z"/>
			<path fill="#FFFFFF" d="M36.437,69.479l0.967-1.386c0.78,0.967,1.697,1.45,2.75,1.45c0.895,0,1.609-0.283,2.143-0.849
				c0.533-0.565,0.8-1.311,0.8-2.234V56.234h1.826v10.248c0,1.525-0.434,2.689-1.3,3.491c-0.867,0.802-1.987,1.203-3.362,1.203
				C38.678,71.177,37.403,70.611,36.437,69.479z"/>
			<path fill="#FFFFFF" d="M47.447,68.845l1.096-1.421c1.208,1.413,2.728,2.12,4.56,2.12c1.19,0,2.065-0.256,2.625-0.767
				c0.56-0.512,0.839-1.106,0.839-1.786c0-0.687-0.289-1.233-0.866-1.641c-0.578-0.408-1.292-0.73-2.144-0.968
				c-0.852-0.236-1.706-0.475-2.561-0.712c-0.855-0.238-1.581-0.654-2.175-1.248c-0.595-0.594-0.892-1.381-0.892-2.36
				c0-1.197,0.471-2.177,1.412-2.936c0.941-0.76,2.137-1.14,3.588-1.14c2.136,0,3.85,0.685,5.141,2.053l-1.058,1.345
				c-1.036-1.177-2.447-1.765-4.233-1.765c-0.882,0-1.607,0.219-2.173,0.655c-0.567,0.437-0.85,1.001-0.85,1.694
				c0,0.52,0.227,0.949,0.681,1.288c0.453,0.339,0.996,0.601,1.627,0.783c0.631,0.184,1.328,0.386,2.089,0.607
				c0.762,0.221,1.45,0.465,2.064,0.732s1.131,0.701,1.548,1.301c0.418,0.599,0.627,1.323,0.627,2.172
				c0,1.19-0.439,2.208-1.317,3.055c-0.878,0.846-2.224,1.269-4.038,1.269C50.688,71.177,48.824,70.399,47.447,68.845z"/>
			<path fill="#FFFFFF" d="M60.155,68.932v-1.386l8.293-3.985l-8.293-4.028v-1.386l9.711,4.823v1.16L60.155,68.932z"/>
		</g>
		<g>
			<path fill="#FFFFFF" d="M17.197,87.63v-1.16l9.711-4.823v1.386l-8.304,4.028l8.304,3.985v1.386L17.197,87.63z"/>
			<path fill="#FFFFFF" d="M30.781,92.55c-1.422-1.418-2.132-3.24-2.132-5.468s0.71-4.05,2.132-5.468
				c1.421-1.418,3.203-2.127,5.344-2.127c2.363,0,4.218,0.971,5.564,2.911l-1.515,0.859c-0.423-0.645-0.998-1.162-1.724-1.553
				c-0.727-0.39-1.502-0.585-2.326-0.585c-1.626,0-2.974,0.557-4.044,1.671c-1.071,1.113-1.606,2.544-1.606,4.291
				c0,1.733,0.539,3.16,1.617,4.281c1.078,1.12,2.422,1.681,4.034,1.681c0.823,0,1.597-0.198,2.32-0.597
				c0.723-0.396,1.3-0.911,1.729-1.541l1.536,0.838c-1.425,1.948-3.287,2.926-5.586,2.933C33.983,94.677,32.202,93.968,30.781,92.55
				z"/>
			<path fill="#FFFFFF" d="M43.215,92.345l1.096-1.421c1.208,1.413,2.728,2.12,4.56,2.12c1.19,0,2.065-0.256,2.625-0.767
				c0.56-0.512,0.839-1.106,0.839-1.786c0-0.687-0.289-1.233-0.866-1.641c-0.578-0.408-1.292-0.73-2.144-0.968
				c-0.852-0.236-1.706-0.475-2.561-0.712c-0.855-0.238-1.581-0.654-2.175-1.248c-0.595-0.594-0.892-1.381-0.892-2.36
				c0-1.197,0.471-2.177,1.412-2.936c0.941-0.76,2.137-1.14,3.588-1.14c2.136,0,3.85,0.685,5.141,2.053l-1.058,1.345
				c-1.036-1.177-2.447-1.765-4.233-1.765c-0.882,0-1.607,0.219-2.173,0.655c-0.567,0.437-0.85,1.001-0.85,1.694
				c0,0.52,0.227,0.949,0.681,1.288c0.453,0.339,0.996,0.601,1.627,0.783c0.631,0.184,1.328,0.386,2.089,0.607
				c0.762,0.221,1.45,0.465,2.064,0.732s1.131,0.701,1.548,1.301c0.418,0.599,0.627,1.323,0.627,2.172
				c0,1.19-0.439,2.208-1.317,3.055c-0.878,0.846-2.224,1.269-4.038,1.269C46.455,94.677,44.591,93.899,43.215,92.345z"/>
			<path fill="#FFFFFF" d="M56.105,92.345l1.096-1.421c1.208,1.413,2.728,2.12,4.56,2.12c1.19,0,2.065-0.256,2.625-0.767
				c0.56-0.512,0.839-1.106,0.839-1.786c0-0.687-0.289-1.233-0.866-1.641c-0.578-0.408-1.292-0.73-2.144-0.968
				c-0.852-0.236-1.706-0.475-2.561-0.712c-0.855-0.238-1.581-0.654-2.175-1.248c-0.595-0.594-0.892-1.381-0.892-2.36
				c0-1.197,0.471-2.177,1.412-2.936c0.941-0.76,2.137-1.14,3.588-1.14c2.136,0,3.85,0.685,5.141,2.053l-1.058,1.345
				c-1.036-1.177-2.447-1.765-4.233-1.765c-0.882,0-1.607,0.219-2.173,0.655c-0.567,0.437-0.85,1.001-0.85,1.694
				c0,0.52,0.227,0.949,0.681,1.288c0.453,0.339,0.996,0.601,1.627,0.783c0.631,0.184,1.328,0.386,2.089,0.607
				c0.762,0.221,1.45,0.465,2.064,0.732s1.131,0.701,1.548,1.301c0.418,0.599,0.627,1.323,0.627,2.172
				c0,1.19-0.439,2.208-1.317,3.055c-0.878,0.846-2.224,1.269-4.038,1.269C59.346,94.677,57.482,93.899,56.105,92.345z"/>
			<path fill="#FFFFFF" d="M68.813,92.432v-1.386l8.293-3.985l-8.293-4.028v-1.386l9.711,4.823v1.16L68.813,92.432z"/>
		</g>
	</g>
</g>
</svg>
