<?xml version="1.0" encoding="utf-8"?>
<!DOCTYPE svg PUBLIC "-//W3C//DTD SVG 1.1//EN" "http://www.w3.org/Graphics/SVG/1.1/DTD/svg11.dtd">
<svg version="1.1" xmlns="http://www.w3.org/2000/svg" viewBox="0 0 137 148">
    <path fill="#CDCCCC" d="M96.709,0.82H48.77c-2.612,0-4.751,2.138-4.751,4.75v91.986c0,2.613,2.139,4.75,4.751,4.75h82.354
        c2.613,0,4.751-2.137,4.751-4.75V40.014L96.709,0.82z"/>
    <g fill="#B4B4B4">
        <polygon points="91.268,34.303 52.07,34.303 52.07,28.303 91.268,28.303 91.268,34.303"/>
        <polygon points="101.562,51.725 52.07,51.725 52.07,45.725 101.562,45.725 101.562,51.725"/>
        <polygon points="101.562,60.435 52.07,60.435 52.07,54.435 101.562,54.435 101.562,60.435"/>
        <polygon points="109.877,69.145 52.07,69.145 52.07,63.145 109.877,63.145 109.877,69.145"/>
        <polygon points="101.562,86.566 52.07,86.566 52.07,80.566 101.562,80.566 101.562,86.566"/>
    </g>
    <polygon fill="#F3F3F3" points="132.841,39.75 96.546,39.75 96.546,3.455"/>
    <path fill="#E6E6E5"
          d="M53.814,45.693H5.876c-2.612,0-4.751,2.138-4.751,4.751v91.985c0,2.613,2.139,4.75,4.751,4.75H88.23 c2.613,0,4.752-2.137,4.752-4.75V84.887L53.814,45.693z"/>
    <g fill="#CDCCCC">
        <polygon points="48.373,79.176 9.176,79.176 9.176,73.176 48.373,73.176 48.373,79.176"/>
        <polygon points="58.668,96.598 9.176,96.598 9.176,90.598 58.668,90.598 58.668,96.598"/>
        <polygon points="58.668,105.309 9.176,105.309 9.176,99.309 58.668,99.309 58.668,105.309"/>
        <polygon points="66.982,114.018 9.176,114.018 9.176,108.018 66.982,108.018 66.982,114.018"/>
        <polygon points="58.668,131.439 9.176,131.439 9.176,125.439 58.668,125.439 58.668,131.439"/>
    </g>
    <polygon fill="#F3F3F3" points="89.946,84.623 53.652,84.623 53.652,48.328"/>
    <path fill="#E98025" d="M84.553,137.321c-4.921,0-8.172-0.68-8.276-0.702l1.078-4.883l-0.539,2.441l0.535-2.442
            c1.235,0.27,30.454,6.251,44.667-22.615l4.486,2.209C115.422,133.834,95.703,137.321,84.553,137.321L84.553,137.321z"/>
    <g fill="#E98025">
        <polygon points="127.628,119.713 123.725,110.537 114.548,114.439 112.591,109.838 126.369,103.979 132.229,117.756 127.628,119.713"/>
        <path d="M19.563,39.209l-4.502-2.176C30.792,4.478,64.755,11.299,65.098,11.37l-1.038,4.892 C62.821,16.001,33.561,10.24,19.563,39.209L19.563,39.209z"/>
        <polygon points="15.249,44.383 9.288,30.647 13.875,28.657 17.845,37.805 26.992,33.835 28.983,38.421 15.249,44.383"/>
    </g>
</svg>
