<?xml version="1.0" encoding="utf-8"?>
<!DOCTYPE svg PUBLIC "-//W3C//DTD SVG 1.1//EN" "http://www.w3.org/Graphics/SVG/1.1/DTD/svg11.dtd">
<svg version="1.1" xmlns="http://www.w3.org/2000/svg" viewBox="0 0 217 133">
    <polygon fill="#E98025"
             points="35.05,52.979 58.468,39.458 81.886,52.979 81.886,80.022 58.468,93.544 35.05,80.022 		"/>
    <g fill="#E6E6E5" opacity="0.8">
        <path d="M58.468,19.072l35.786,23.355L58.468,65.783L22.688,42.428L58.468,19.072 M58.468,17.878l-37.61,24.55 l37.61,24.55l37.616-24.55L58.468,17.878L58.468,17.878z"/>
        <path d="M100.265,52.014v38.019l-35.61,23.245v-38.02L100.265,52.014 M101.265,50.167l-37.61,24.55v40.407 l37.61-24.551V50.167L101.265,50.167z"/>
        <path d="M16.672,52.015l35.609,23.243v38.02L16.672,90.032V52.015 M15.672,50.168v40.405l37.609,24.551V74.717 L15.672,50.168L15.672,50.168z"/>
    </g>
    <g fill="#F3F3F3" opacity="0.8">
        <polygon points="21.772,42.428 58.468,18.475 95.169,42.428 58.468,66.381"/>
        <polygon points="64.155,74.987 100.765,51.091 100.765,90.303 64.155,114.2"/>
        <polygon points="16.172,90.303 16.172,51.092 52.782,74.987 52.782,114.2"/>
    </g>
    <g fill="#2A3152">
        <path d="M58.468,5.65l43.668,28.503L58.468,62.371L14.8,33.868L58.468,5.365 M58.468,0.589L7.482,33.868 l50.986,33.279l50.986-33.279L58.468,0.589L58.468,0.589z"/>
        <path d="M112.484,51.746v45.221l-42.986,28.057v-45.22L112.484,51.746 M116.484,44.358L65.498,77.638v54.773 l50.986-33.278V44.358L116.484,44.358z"/>
        <path d="M4.453,51.747l42.986,28.059v45.218L4.453,96.967V51.747 M0.453,44.359v54.773l50.986,33.278V77.64 L0.453,44.359L0.453,44.359z"/>
    </g>
    <g fill="#B4B4B4">
        <path d="M131.99,85.647c0-2.634,0.879-4.864,2.639-6.691c1.76-1.826,3.984-2.74,6.674-2.74s4.865,0.914,6.527,2.74 c1.664,1.827,2.494,4.209,2.494,7.146v1.111h-13.383c0.17,1.044,0.711,1.909,1.621,2.595s2.1,1.028,3.568,1.028 c0.826,0,1.691-0.142,2.596-0.424c0.904-0.283,1.629-0.67,2.176-1.159l2.111,3.096c-1.82,1.843-4.291,2.771-7.41,2.784 c-2.779,0-5.078-0.874-6.893-2.622S131.99,88.476,131.99,85.647z M136.906,83.937h8.867c-0.098-0.909-0.514-1.707-1.248-2.394 s-1.805-1.03-3.213-1.03c-1.373,0-2.426,0.338-3.16,1.014C137.417,82.203,137.001,83.006,136.906,83.937z"/>
        <path d="M151.398,94.679l6.41-9.25l-6.045-8.758h5.299l3.732,5.518l3.695-5.518h5.299l-6.008,8.758l6.408,9.25 h-5.299l-4.096-6.082l-4.135,6.082H151.398z"/>
        <path d="M170.517,80.968v-4.297h2.986V71.9h4.734v4.771h3.66v4.297h-3.66v7.913c0,0.581,0.143,1.052,0.428,1.414 c0.285,0.361,0.689,0.542,1.211,0.542c0.764,0,1.316-0.184,1.656-0.552l1.002,3.663c-0.875,0.778-2.191,1.173-3.951,1.186 c-3.387,0-5.08-1.638-5.08-4.914v-9.252H170.517z"/>
        <path d="M188.707,100.651l0.982-2.094c0.742,0.74,1.598,1.11,2.568,1.11c0.898,0,1.607-0.268,2.131-0.802 c0.521-0.534,0.781-1.348,0.781-2.439V76.671h2.805v19.756c0,1.784-0.461,3.156-1.383,4.115c-0.924,0.959-2.246,1.438-3.971,1.438 C191.128,101.992,189.824,101.549,188.707,100.651z M195.236,73.558c-0.371-0.364-0.557-0.808-0.557-1.329 c0-0.522,0.186-0.968,0.557-1.339c0.371-0.37,0.82-0.555,1.346-0.555s0.967,0.185,1.326,0.555 c0.359,0.371,0.539,0.816,0.539,1.339c0,0.521-0.18,0.965-0.539,1.329s-0.801,0.546-1.326,0.546S195.607,73.922,195.236,73.558z"/>
        <path d="M202.054,92.26l1.402-2.011c0.625,0.713,1.486,1.319,2.584,1.82c1.1,0.502,2.236,0.752,3.414,0.752 c1.344,0,2.395-0.285,3.152-0.858c0.758-0.572,1.137-1.31,1.137-2.214c0-0.795-0.402-1.421-1.203-1.879 c-0.803-0.458-1.746-0.824-2.832-1.098c-1.086-0.272-2.176-0.547-3.268-0.821c-1.092-0.275-2.023-0.79-2.795-1.545 s-1.156-1.747-1.156-2.979c0-1.475,0.607-2.712,1.82-3.712c1.215-0.999,2.869-1.499,4.963-1.499c2.795,0,5.047,0.886,6.76,2.656 l-1.355,1.92c-1.27-1.509-3.072-2.264-5.404-2.264c-1.211,0-2.178,0.261-2.898,0.782s-1.08,1.186-1.08,1.991 c0,0.581,0.258,1.067,0.775,1.459c0.518,0.391,1.189,0.688,2.018,0.892c0.826,0.204,1.723,0.424,2.686,0.661 c0.965,0.237,1.881,0.527,2.752,0.872s1.592,0.898,2.164,1.661c0.572,0.762,0.857,1.703,0.857,2.822 c0,1.597-0.627,2.906-1.879,3.93s-3.014,1.535-5.285,1.535C206.328,95.134,203.884,94.176,202.054,92.26z"/>
    </g>
</svg>
