<svg xmlns="http://www.w3.org/2000/svg" viewBox="0 0 140 140"><path fill="#fff" d="M0 0h140v140H0z"/><path fill="#EF4136" d="M61.307 87.626L45.39 103.543H0V70h140v33.543H77.223zm8.277 15.917H53.03l8.277-8.277zM0 140v-33.54h43.69l3.212 3.21 3.21-3.21H72.5l15.115 15.113H79.08l5.4 5.403h12.295V114.56l-5.402-5.4v8.532L80.14 106.46H140V140z"/><path fill="#2AAAE2" d="M61.307 52.373L45.39 36.46H0V70h140V36.46H77.223zm8.277-15.914H53.03l8.277 8.276zM0 0v33.542h43.69l3.212-3.21 3.21 3.21H72.5l15.115-15.114H79.08l5.4-5.402h12.295V25.44l-5.402 5.4v-8.532L80.14 33.542H140V0z"/><path fill="#CDCCCC" d="M138 2v136H2V2h136m2-2H0v140h140V0z"/><path stroke="#CDCCCC" stroke-width="2" fill="none" d="M0 70h140"/></svg>