<?xml version="1.0" encoding="utf-8"?>
<!-- Generator: Adobe Illustrator 14.0.0, SVG Export Plug-In . SVG Version: 6.00 Build 43363)  -->
<!DOCTYPE svg PUBLIC "-//W3C//DTD SVG 1.1//EN" "http://www.w3.org/Graphics/SVG/1.1/DTD/svg11.dtd">
<svg version="1.1" xmlns="http://www.w3.org/2000/svg" viewBox="0 0 168 163" xml:space="preserve">
<g>
	<g>
		<path fill="#2A3052" d="M66.902,27.785c0.501-0.659,0.753-1.398,0.753-2.229c0-0.481-0.087-0.941-0.246-1.379
			c-0.165-0.435-0.394-0.827-0.72-1.193c-0.315-0.354-0.714-0.665-1.177-0.932c-0.476-0.277-1.015-0.482-1.625-0.625
			c-0.805-0.199-1.87-0.295-3.208-0.295h-7.159v0.454h0.612c0.634,0,1.107,0.182,1.428,0.538c0.235,0.274,0.348,0.922,0.348,1.944
			v10.702c0,0.922-0.092,1.535-0.282,1.817c-0.309,0.441-0.796,0.659-1.494,0.659h-0.612v0.455h7.813
			c1.867,0,3.248-0.175,4.159-0.512c0.449-0.185,0.863-0.416,1.219-0.703c0.37-0.293,0.673-0.611,0.929-0.963
			c0.252-0.358,0.446-0.739,0.578-1.142c0.136-0.399,0.206-0.801,0.206-1.214c0-0.454-0.07-0.889-0.213-1.301
			c-0.131-0.412-0.359-0.787-0.649-1.133c-0.307-0.343-0.694-0.637-1.172-0.894c-0.478-0.243-1.049-0.447-1.729-0.592
			C65.648,28.924,66.396,28.44,66.902,27.785z M65.278,31.891c0.206,0.459,0.313,0.953,0.313,1.481c0,0.476-0.096,0.927-0.294,1.348
			c-0.182,0.419-0.476,0.791-0.857,1.104c-0.381,0.313-0.855,0.561-1.423,0.743c-0.565,0.172-1.218,0.266-1.963,0.266
			c-0.927,0-1.859-0.108-2.8-0.334v-6.79c0.223-0.044,0.51-0.065,0.866-0.088c0.356-0.014,0.791-0.021,1.308-0.021
			c0.874,0,1.638,0.096,2.284,0.291c0.646,0.194,1.182,0.465,1.613,0.803C64.751,31.027,65.068,31.427,65.278,31.891z
			 M64.972,26.373c-0.078,0.296-0.194,0.563-0.348,0.822c-0.151,0.248-0.348,0.474-0.575,0.68c-0.231,0.2-0.507,0.367-0.811,0.502
			c-0.583,0.248-1.481,0.373-2.67,0.373c-0.918,0-1.685-0.05-2.314-0.166v-6.371c0.642-0.179,1.376-0.26,2.204-0.26
			c0.757,0,1.418,0.088,2.001,0.273c0.58,0.188,1.063,0.445,1.454,0.756c0.394,0.322,0.692,0.698,0.891,1.124
			c0.201,0.429,0.301,0.882,0.301,1.351C65.104,25.771,65.055,26.083,64.972,26.373z"/>
		<path fill="#2A3052" d="M80.197,22.035c0.81,0,1.379,0.063,1.71,0.179c0.204,0.095,0.383,0.199,0.537,0.304
			c0.141,0.111,0.27,0.259,0.384,0.444c0.118,0.184,0.217,0.429,0.311,0.71c0.083,0.285,0.178,0.646,0.265,1.082h0.294v-3.624
			H70.927v0.454h0.586c0.688,0,1.178,0.157,1.467,0.484c0.215,0.258,0.322,0.905,0.322,1.946v10.765
			c0,0.813-0.051,1.349-0.148,1.597c-0.049,0.146-0.133,0.274-0.254,0.384c-0.126,0.116-0.259,0.2-0.411,0.281
			c-0.156,0.069-0.316,0.124-0.482,0.153c-0.171,0.037-0.336,0.049-0.495,0.049h-0.586v0.455h12.771l1.424-4.154h-0.489
			c-0.252,0.514-0.521,0.957-0.774,1.341c-0.265,0.386-0.518,0.699-0.772,0.941c-0.21,0.196-0.398,0.355-0.578,0.488
			c-0.19,0.119-0.398,0.215-0.643,0.293c-0.237,0.063-0.513,0.114-0.84,0.142c-0.317,0.033-0.719,0.043-1.199,0.043H77.02
			c-0.23,0-0.418-0.01-0.572-0.038c-0.157-0.025-0.276-0.063-0.373-0.106c-0.094-0.041-0.159-0.099-0.204-0.159
			c-0.053-0.065-0.1-0.141-0.129-0.212c-0.067-0.172-0.098-0.62-0.098-1.339v-5.462h3.638c0.352,0,0.643,0.015,0.895,0.059
			c0.255,0.041,0.471,0.106,0.65,0.181c0.18,0.084,0.325,0.179,0.438,0.288c0.111,0.112,0.209,0.239,0.285,0.383
			c0.053,0.116,0.114,0.304,0.165,0.56c0.064,0.254,0.124,0.59,0.174,0.993h0.447v-5.765H81.89
			c-0.027,0.413-0.073,0.774-0.149,1.076c-0.076,0.303-0.199,0.549-0.387,0.75c-0.188,0.202-0.449,0.349-0.787,0.443
			c-0.32,0.092-0.755,0.139-1.284,0.139h-3.638v-6.549H80.197z"/>
		<path fill="#2A3052" d="M88.258,23.442c-0.25,0.526-0.363,1.088-0.363,1.675c0,0.695,0.125,1.298,0.389,1.805
			c0.27,0.505,0.615,0.953,1.06,1.353c0.434,0.392,0.944,0.752,1.521,1.084c0.572,0.336,1.172,0.677,1.791,1.045
			c0.545,0.328,1.067,0.616,1.563,0.878c0.487,0.261,0.918,0.539,1.287,0.82c0.375,0.288,0.666,0.61,0.885,0.972
			c0.221,0.363,0.334,0.811,0.334,1.343c0,0.355-0.075,0.698-0.229,1.028c-0.15,0.326-0.367,0.62-0.654,0.872
			c-0.279,0.241-0.631,0.44-1.037,0.589c-0.404,0.145-0.868,0.218-1.375,0.218c-0.438,0-0.856-0.05-1.268-0.155
			c-0.417-0.1-0.801-0.236-1.146-0.427c-0.363-0.183-0.685-0.399-0.961-0.651c-0.288-0.256-0.518-0.521-0.698-0.822
			c-0.175-0.296-0.342-0.674-0.479-1.113c-0.143-0.444-0.27-0.97-0.377-1.561h-0.452v5.681h0.452
			c0.055-0.378,0.148-0.633,0.271-0.755c0.117-0.124,0.274-0.183,0.475-0.183c0.035,0,0.11,0.011,0.225,0.034
			c0.121,0.025,0.267,0.062,0.426,0.096c0.178,0.045,0.371,0.096,0.568,0.154c0.208,0.064,0.404,0.131,0.604,0.206
			c0.276,0.107,0.519,0.183,0.714,0.25c0.203,0.055,0.395,0.101,0.578,0.134c0.189,0.024,0.382,0.049,0.586,0.053
			c0.203,0.008,0.451,0.01,0.735,0.01c0.759,0,1.47-0.127,2.106-0.369c0.641-0.249,1.19-0.583,1.654-1.006
			c0.456-0.416,0.817-0.902,1.07-1.465c0.252-0.557,0.387-1.144,0.387-1.761c0-0.725-0.141-1.35-0.402-1.863
			c-0.277-0.524-0.633-0.983-1.076-1.384c-0.458-0.399-0.986-0.772-1.58-1.106c-0.596-0.332-1.223-0.675-1.879-1.021
			c-0.59-0.313-1.127-0.6-1.635-0.869c-0.5-0.27-0.932-0.546-1.303-0.828c-0.373-0.291-0.666-0.603-0.873-0.933
			c-0.211-0.345-0.314-0.743-0.314-1.199c0-0.325,0.059-0.643,0.217-0.945c0.146-0.304,0.354-0.576,0.615-0.811
			c0.262-0.24,0.578-0.422,0.934-0.572c0.357-0.14,0.75-0.21,1.166-0.21c0.373,0,0.742,0.047,1.117,0.15
			c0.369,0.099,0.724,0.245,1.048,0.427c0.329,0.185,0.628,0.41,0.915,0.67c0.279,0.26,0.517,0.548,0.705,0.878
			c0.379,0.649,0.639,1.525,0.791,2.625h0.455v-5.73h-0.455c-0.084,0.381-0.184,0.636-0.32,0.769
			c-0.134,0.125-0.309,0.188-0.518,0.188s-0.526-0.104-0.973-0.309c-0.992-0.432-1.938-0.648-2.792-0.648
			c-0.706,0-1.347,0.117-1.94,0.35c-0.592,0.228-1.099,0.551-1.533,0.95C88.836,22.444,88.498,22.912,88.258,23.442z"/>
		<path fill="#2A3052" d="M101.625,25.016h0.467c0.075-0.595,0.199-1.079,0.357-1.45c0.169-0.382,0.38-0.668,0.637-0.871
			c0.264-0.201,0.586-0.341,0.955-0.414c0.371-0.072,0.813-0.11,1.318-0.11h1.998v12.655c0,0.939-0.096,1.533-0.268,1.789
			c-0.298,0.419-0.793,0.63-1.492,0.63h-0.59v0.455h7.028v-0.455h-0.577c-0.654,0-1.131-0.169-1.432-0.513
			c-0.211-0.247-0.328-0.888-0.328-1.906V22.17h2.337c0.458,0,0.869,0.049,1.218,0.152c0.355,0.1,0.65,0.264,0.893,0.489
			c0.236,0.221,0.443,0.515,0.588,0.879c0.152,0.361,0.263,0.802,0.323,1.325h0.288v-3.885h-13.721V25.016z"/>
		<path fill="#2A3052" d="M55.091,45.729c0.529,0,1.001,0.029,1.389,0.097c0.397,0.061,0.731,0.189,1.013,0.388
			c0.297,0.19,0.542,0.468,0.742,0.825c0.197,0.362,0.381,0.833,0.547,1.425h0.26v-3.638h-12.32v0.457h0.584
			c0.392,0,0.764,0.093,1.125,0.289c0.147,0.081,0.262,0.167,0.343,0.257c0.1,0.091,0.153,0.215,0.194,0.377
			c0.053,0.158,0.081,0.355,0.095,0.6c0.017,0.244,0.026,0.563,0.026,0.96v10.696c0,1.003-0.098,1.634-0.292,1.881
			c-0.304,0.4-0.797,0.599-1.491,0.599h-0.584v0.45h7.108v-0.45h-0.6c-0.395,0-0.769-0.1-1.121-0.29
			c-0.15-0.086-0.275-0.174-0.359-0.267c-0.081-0.095-0.155-0.218-0.203-0.37c-0.042-0.156-0.067-0.357-0.089-0.604
			c-0.014-0.243-0.019-0.558-0.019-0.95v-5.205h3.011c0.416,0,0.759,0.045,1.032,0.127c0.277,0.088,0.491,0.229,0.654,0.413
			c0.164,0.181,0.283,0.426,0.353,0.716c0.077,0.298,0.117,0.648,0.128,1.061h0.451v-5.605h-0.451
			c-0.057,0.463-0.137,0.836-0.238,1.126c-0.092,0.291-0.23,0.527-0.404,0.696c-0.169,0.171-0.372,0.289-0.626,0.354
			c-0.248,0.065-0.546,0.1-0.9,0.1h-3.011v-6.514H55.091z"/>
		<path fill="#2A3052" d="M61.476,45.283h0.592c0.384,0,0.763,0.093,1.124,0.289c0.147,0.081,0.263,0.167,0.343,0.257
			c0.084,0.091,0.151,0.215,0.196,0.377c0.047,0.158,0.084,0.355,0.1,0.6c0.01,0.244,0.013,0.563,0.013,0.96v10.696
			c0,1.003-0.089,1.634-0.285,1.881c-0.304,0.4-0.799,0.599-1.49,0.599h-0.592v0.45h7.099v-0.45h-0.593
			c-0.398,0-0.763-0.1-1.113-0.29c-0.157-0.086-0.268-0.174-0.361-0.267c-0.086-0.095-0.152-0.218-0.198-0.37
			c-0.053-0.156-0.066-0.357-0.086-0.604c-0.016-0.243-0.027-0.558-0.027-0.95V47.766c0-1.009,0.099-1.634,0.301-1.888
			c0.302-0.397,0.794-0.594,1.484-0.594h0.593v-0.457h-7.099V45.283z"/>
		<path fill="#2A3052" d="M72.511,59.829c-0.369,0.294-0.759,0.542-1.147,0.744c-0.397,0.202-0.865,0.325-1.371,0.368v0.45h5.883
			v-0.45c-0.312-0.011-0.573-0.035-0.774-0.093c-0.202-0.051-0.36-0.12-0.487-0.197c-0.117-0.086-0.205-0.182-0.26-0.288
			c-0.047-0.118-0.071-0.234-0.071-0.362c0-0.089,0-0.171,0.008-0.239c0.005-0.067,0.038-0.153,0.091-0.251
			c0.051-0.101,0.119-0.219,0.225-0.363c0.103-0.147,0.251-0.343,0.45-0.587l3.467-4.451l2.807,4.252
			c0.225,0.324,0.384,0.579,0.502,0.745c0.103,0.174,0.181,0.304,0.224,0.404c0.041,0.098,0.071,0.175,0.061,0.241
			c-0.002,0.059-0.008,0.141-0.008,0.249c0,0.3-0.119,0.529-0.396,0.679c-0.267,0.161-0.674,0.244-1.234,0.261v0.45h7.104v-0.45
			c-0.738-0.043-1.346-0.256-1.814-0.636c-0.24-0.197-0.541-0.522-0.904-0.982c-0.356-0.463-0.788-1.065-1.287-1.805l-3.555-5.296
			l3.292-4.208c0.683-0.864,1.194-1.447,1.543-1.752c0.163-0.144,0.317-0.269,0.479-0.384c0.161-0.116,0.338-0.212,0.523-0.294
			c0.176-0.082,0.383-0.15,0.603-0.199c0.218-0.05,0.464-0.088,0.747-0.101v-0.457h-5.881v0.457
			c0.298,0.001,0.535,0.012,0.736,0.039c0.198,0.017,0.338,0.049,0.427,0.081c0.165,0.051,0.304,0.155,0.428,0.306
			c0.123,0.143,0.186,0.309,0.186,0.504c0,0.084-0.01,0.168-0.016,0.238c-0.006,0.076-0.037,0.16-0.09,0.255
			c-0.043,0.099-0.126,0.22-0.219,0.351c-0.1,0.142-0.243,0.327-0.424,0.559l-2.939,3.723l-2.548-3.8
			c-0.394-0.567-0.582-1.011-0.582-1.321c0-0.113,0.024-0.216,0.079-0.327c0.057-0.107,0.148-0.203,0.28-0.286
			c0.121-0.086,0.298-0.158,0.525-0.211c0.212-0.059,0.488-0.098,0.815-0.11v-0.457H70.33v0.457
			c0.798,0.021,1.508,0.237,2.133,0.645c0.615,0.396,1.364,1.247,2.261,2.536l3.263,4.778l-3.908,4.94
			C73.498,58.913,72.98,59.465,72.511,59.829z"/>
		<path fill="#2A3052" d="M89.017,45.283h0.589c0.691,0,1.167,0.156,1.466,0.485c0.214,0.25,0.323,0.9,0.323,1.943v10.762
			c0,0.816-0.051,1.348-0.148,1.597c-0.055,0.152-0.137,0.278-0.263,0.389c-0.116,0.106-0.247,0.199-0.407,0.273
			c-0.151,0.072-0.305,0.129-0.479,0.158c-0.172,0.034-0.341,0.051-0.492,0.051h-0.589v0.45h12.772l1.434-4.154h-0.498
			c-0.262,0.515-0.52,0.965-0.772,1.347c-0.267,0.384-0.521,0.697-0.782,0.937c-0.201,0.195-0.391,0.363-0.57,0.489
			c-0.189,0.125-0.402,0.224-0.637,0.284c-0.246,0.077-0.523,0.128-0.842,0.154c-0.326,0.028-0.721,0.044-1.201,0.044h-2.813
			c-0.23,0-0.421-0.015-0.563-0.039c-0.163-0.022-0.287-0.063-0.377-0.104c-0.088-0.043-0.162-0.103-0.207-0.166
			c-0.047-0.064-0.096-0.131-0.133-0.21c-0.059-0.167-0.097-0.618-0.097-1.337v-5.46h3.646c0.35,0,0.643,0.017,0.894,0.055
			c0.251,0.043,0.469,0.104,0.648,0.182c0.179,0.089,0.319,0.183,0.444,0.291c0.113,0.109,0.2,0.242,0.274,0.387
			c0.058,0.11,0.118,0.297,0.179,0.549c0.051,0.267,0.107,0.598,0.168,1h0.447v-5.765h-0.447c-0.033,0.416-0.08,0.771-0.154,1.073
			c-0.068,0.301-0.2,0.554-0.389,0.756c-0.191,0.198-0.447,0.342-0.779,0.437c-0.326,0.091-0.756,0.145-1.285,0.145h-3.646v-6.554
			h4.553c0.813,0,1.388,0.06,1.72,0.181c0.205,0.094,0.381,0.194,0.52,0.306c0.154,0.107,0.283,0.254,0.397,0.445
			c0.114,0.186,0.214,0.423,0.306,0.707c0.09,0.288,0.181,0.646,0.27,1.083h0.293v-3.625H89.017V45.283z"/>
		<path fill="#2A3052" d="M120.942,56.396c0.394-1.028,0.585-2.148,0.585-3.369c0-1.729-0.393-3.247-1.18-4.546
			c-0.779-1.314-1.822-2.248-3.117-2.816c-1.284-0.557-3.169-0.839-5.643-0.839h-6.745v0.457h0.624c0.627,0,1.096,0.171,1.415,0.534
			c0.226,0.251,0.343,0.9,0.343,1.948v10.696c0,0.947-0.09,1.548-0.268,1.807c-0.305,0.448-0.804,0.673-1.49,0.673h-0.624v0.45
			h7.403c1.527,0,2.867-0.203,4.028-0.621c1.155-0.412,2.128-0.987,2.905-1.729C119.96,58.303,120.545,57.423,120.942,56.396z
			 M118.247,56.21c-0.339,0.914-0.8,1.695-1.38,2.332c-0.588,0.638-1.281,1.134-2.082,1.48c-0.806,0.343-1.677,0.514-2.615,0.514
			c-0.711,0-1.578-0.111-2.602-0.34v-14.09c0.474-0.105,0.915-0.201,1.33-0.258c0.414-0.062,0.812-0.093,1.176-0.093
			c0.976,0,1.859,0.172,2.688,0.515c0.815,0.342,1.517,0.835,2.108,1.471c0.586,0.637,1.046,1.414,1.384,2.326
			c0.324,0.909,0.495,1.939,0.495,3.082C118.75,54.279,118.576,55.301,118.247,56.21z"/>
		<path fill="#2A3052" d="M58.359,85.467c2.259,0,4.173-0.83,5.759-2.492c1.593-1.657,2.38-3.754,2.38-6.265
			c0-2.44-0.787-4.481-2.365-6.108c-1.583-1.636-3.441-2.458-5.583-2.458c-2.17,0-4.023,0.719-5.583,2.166
			c-1.795,1.66-2.685,3.812-2.685,6.437c0,2.571,0.773,4.673,2.315,6.292C54.144,84.659,56.064,85.467,58.359,85.467z
			 M53.428,73.523c0.23-0.946,0.566-1.753,1.009-2.42c0.445-0.658,0.995-1.171,1.644-1.526c0.65-0.359,1.401-0.542,2.242-0.542
			c0.89,0,1.674,0.183,2.352,0.547c0.664,0.365,1.23,0.877,1.67,1.567c0.461,0.69,0.806,1.523,1.023,2.51
			c0.228,0.991,0.336,2.118,0.336,3.378c0,1.316-0.134,2.459-0.414,3.409c-0.267,0.949-0.646,1.734-1.13,2.35
			c-0.467,0.619-1.042,1.068-1.701,1.365c-0.658,0.291-1.361,0.439-2.125,0.439c-0.854,0-1.61-0.197-2.265-0.582
			c-0.646-0.387-1.193-0.924-1.64-1.625c-0.441-0.701-0.78-1.524-1.006-2.494c-0.232-0.978-0.348-2.037-0.348-3.2
			C53.076,75.524,53.191,74.465,53.428,73.523z"/>
		<path fill="#2A3052" d="M68.522,68.975h0.621c0.626,0,1.101,0.179,1.424,0.538c0.221,0.253,0.343,0.904,0.343,1.941v10.704
			c0,0.943-0.098,1.547-0.28,1.807c-0.296,0.447-0.793,0.672-1.487,0.672h-0.621v0.455h7.402c1.522,0,2.866-0.209,4.029-0.627
			c1.159-0.412,2.126-0.99,2.904-1.725c0.78-0.742,1.361-1.626,1.764-2.651c0.391-1.019,0.587-2.147,0.587-3.369
			c0-1.726-0.391-3.239-1.183-4.549c-0.786-1.305-1.82-2.238-3.121-2.807c-1.278-0.557-3.167-0.839-5.636-0.839h-6.747V68.975z
			 M73.249,69.804c0.47-0.111,0.923-0.2,1.332-0.26c0.417-0.064,0.808-0.093,1.174-0.093c0.968,0,1.865,0.173,2.681,0.518
			c0.818,0.34,1.523,0.833,2.108,1.468c0.591,0.64,1.059,1.417,1.39,2.326c0.333,0.917,0.496,1.941,0.496,3.082
			c0,1.128-0.17,2.152-0.506,3.065c-0.33,0.911-0.791,1.69-1.379,2.326c-0.59,0.641-1.284,1.135-2.078,1.479
			c-0.805,0.346-1.676,0.518-2.613,0.518c-0.715,0-1.579-0.115-2.604-0.342V69.804z"/>
		<path fill="#2A3052" d="M87.223,68.975h0.61c0.627,0,1.106,0.179,1.421,0.538c0.225,0.253,0.344,0.904,0.344,1.941v10.704
			c0,0.943-0.092,1.547-0.27,1.807c-0.306,0.447-0.789,0.672-1.495,0.672h-0.61v0.455h7.395c1.525,0,2.863-0.209,4.026-0.627
			c1.161-0.412,2.13-0.99,2.907-1.725c0.781-0.742,1.368-1.626,1.766-2.651c0.396-1.019,0.579-2.147,0.579-3.369
			c0-1.726-0.383-3.239-1.179-4.549c-0.776-1.305-1.817-2.238-3.114-2.807c-1.282-0.557-3.169-0.839-5.642-0.839h-6.738V68.975z
			 M91.945,69.804c0.474-0.111,0.914-0.2,1.33-0.26c0.415-0.064,0.805-0.093,1.17-0.093c0.975,0,1.866,0.173,2.688,0.518
			c0.813,0.34,1.518,0.833,2.105,1.468c0.592,0.64,1.054,1.417,1.387,2.326c0.328,0.917,0.504,1.941,0.504,3.082
			c0,1.128-0.176,2.152-0.514,3.065c-0.331,0.911-0.797,1.69-1.387,2.326c-0.585,0.641-1.271,1.135-2.068,1.479
			c-0.809,0.346-1.678,0.518-2.613,0.518c-0.721,0-1.593-0.115-2.602-0.342V69.804z"/>
		<path fill="#2A3052" d="M117.665,82.631c0.258-0.563,0.38-1.152,0.38-1.769c0-0.728-0.128-1.346-0.396-1.865
			c-0.269-0.513-0.624-0.977-1.074-1.378c-0.451-0.402-0.977-0.772-1.577-1.111c-0.593-0.327-1.221-0.674-1.879-1.021
			c-0.589-0.306-1.13-0.601-1.63-0.873c-0.504-0.264-0.938-0.541-1.309-0.823c-0.363-0.281-0.66-0.599-0.877-0.937
			c-0.206-0.334-0.316-0.731-0.316-1.19c0-0.324,0.074-0.641,0.227-0.942c0.143-0.313,0.355-0.583,0.615-0.818
			c0.268-0.235,0.577-0.426,0.929-0.568c0.357-0.146,0.751-0.214,1.165-0.214c0.375,0,0.74,0.055,1.116,0.158
			c0.368,0.101,0.72,0.238,1.056,0.424c0.328,0.18,0.627,0.404,0.911,0.662c0.282,0.262,0.517,0.559,0.703,0.885
			c0.386,0.651,0.645,1.523,0.796,2.628h0.456v-5.734h-0.456c-0.078,0.387-0.19,0.638-0.328,0.761
			c-0.132,0.128-0.305,0.191-0.518,0.191c-0.201,0-0.52-0.099-0.961-0.303c-1.005-0.431-1.939-0.649-2.797-0.649
			c-0.703,0-1.35,0.119-1.938,0.352c-0.597,0.228-1.106,0.544-1.531,0.942c-0.438,0.401-0.777,0.865-1.016,1.396
			c-0.243,0.526-0.369,1.084-0.369,1.67c0,0.702,0.137,1.306,0.394,1.812c0.265,0.505,0.623,0.954,1.063,1.341
			c0.437,0.4,0.946,0.766,1.521,1.09c0.571,0.336,1.167,0.684,1.783,1.047c0.551,0.322,1.067,0.621,1.564,0.881
			c0.489,0.262,0.923,0.533,1.295,0.822c0.363,0.282,0.667,0.604,0.882,0.969c0.223,0.363,0.328,0.807,0.328,1.337
			c0,0.356-0.068,0.701-0.224,1.033c-0.153,0.326-0.366,0.619-0.656,0.865c-0.288,0.25-0.625,0.447-1.044,0.59
			c-0.404,0.15-0.861,0.225-1.369,0.225c-0.432,0-0.848-0.056-1.271-0.15c-0.407-0.105-0.793-0.248-1.144-0.427
			c-0.353-0.185-0.673-0.407-0.956-0.657c-0.287-0.25-0.52-0.529-0.704-0.814c-0.173-0.308-0.338-0.677-0.476-1.118
			c-0.146-0.445-0.267-0.965-0.379-1.562h-0.444v5.68h0.444c0.059-0.383,0.151-0.639,0.26-0.752
			c0.125-0.129,0.283-0.188,0.487-0.188c0.035,0,0.107,0.014,0.231,0.035c0.108,0.023,0.264,0.057,0.428,0.1
			c0.174,0.039,0.361,0.089,0.563,0.152c0.209,0.062,0.404,0.127,0.602,0.201c0.269,0.105,0.512,0.189,0.715,0.25
			c0.193,0.064,0.389,0.11,0.58,0.139c0.184,0.027,0.381,0.039,0.585,0.055c0.204,0.008,0.444,0.008,0.737,0.008
			c0.76,0,1.464-0.123,2.11-0.371c0.634-0.25,1.183-0.58,1.644-0.998C117.056,83.676,117.414,83.189,117.665,82.631z"/>
		<path fill="#2A3052" d="M60.388,108.332h-0.598c-0.403,0-0.776-0.096-1.12-0.297c-0.156-0.075-0.277-0.17-0.358-0.26
			c-0.094-0.092-0.164-0.211-0.207-0.371c-0.046-0.153-0.074-0.352-0.089-0.598c-0.017-0.246-0.021-0.564-0.021-0.96v-5.196h3.011
			c0.424,0,0.752,0.043,1.037,0.129c0.271,0.082,0.483,0.217,0.652,0.406c0.164,0.193,0.284,0.43,0.349,0.717
			c0.078,0.299,0.127,0.648,0.127,1.069h0.448v-5.606h-0.448c-0.06,0.457-0.14,0.824-0.232,1.123
			c-0.102,0.293-0.232,0.521-0.407,0.695c-0.166,0.168-0.379,0.291-0.628,0.357c-0.249,0.063-0.544,0.09-0.899,0.09h-3.011v-6.505
			h3.647c0.542,0,1.001,0.028,1.389,0.089c0.39,0.064,0.734,0.188,1.028,0.385c0.286,0.191,0.533,0.471,0.73,0.832
			c0.199,0.357,0.384,0.836,0.547,1.432h0.263v-3.643H53.277v0.446h0.583c0.394,0,0.769,0.104,1.128,0.293
			c0.147,0.087,0.251,0.171,0.34,0.259c0.093,0.088,0.153,0.215,0.195,0.371c0.049,0.161,0.085,0.367,0.096,0.611
			c0.012,0.242,0.021,0.559,0.021,0.951v10.694c0,1.003-0.101,1.638-0.291,1.89c-0.299,0.396-0.798,0.596-1.489,0.596h-0.583v0.455
			h7.111V108.332z"/>
		<path fill="#2A3052" d="M75.132,108.332h-0.596c-0.391,0-0.763-0.096-1.115-0.297c-0.147-0.075-0.267-0.17-0.357-0.26
			c-0.084-0.092-0.153-0.211-0.196-0.371c-0.046-0.153-0.073-0.352-0.094-0.598c-0.01-0.246-0.027-0.564-0.027-0.96V95.152
			c0-1.002,0.1-1.627,0.307-1.881c0.3-0.398,0.792-0.604,1.482-0.604h0.596v-0.446H68.03v0.446h0.589
			c0.392,0,0.766,0.104,1.125,0.293c0.157,0.087,0.266,0.171,0.349,0.259c0.086,0.088,0.151,0.215,0.196,0.371
			c0.045,0.161,0.081,0.367,0.092,0.611c0.016,0.242,0.026,0.559,0.026,0.951v10.694c0,1.003-0.103,1.638-0.295,1.89
			c-0.303,0.396-0.805,0.596-1.493,0.596H68.03v0.455h7.102V108.332z"/>
		<path fill="#2A3052" d="M81.89,101.057c0.124,0.008,0.239,0.01,0.346,0.01c0.128,0,0.281-0.002,0.448-0.01
			c0.166-0.002,0.351-0.01,0.564-0.018l5.606,7.748h4.422v-0.455c-0.894-0.096-1.632-0.328-2.196-0.682
			c-0.546-0.357-1.226-1.076-2.014-2.176l-3.423-4.75c0.693-0.158,1.295-0.373,1.81-0.64c0.513-0.267,0.937-0.587,1.274-0.952
			c0.339-0.369,0.584-0.77,0.748-1.214c0.172-0.446,0.249-0.925,0.249-1.437c0-0.477-0.077-0.918-0.245-1.33
			c-0.158-0.414-0.37-0.793-0.643-1.125c-0.268-0.334-0.586-0.625-0.947-0.871c-0.363-0.239-0.755-0.428-1.173-0.547
			c-0.844-0.262-2.14-0.389-3.878-0.389h-6.041v0.446h0.619c0.634,0,1.098,0.188,1.419,0.542c0.231,0.254,0.342,0.902,0.342,1.943
			v10.694c0,0.95-0.088,1.55-0.257,1.804c-0.309,0.453-0.807,0.682-1.504,0.682h-0.619v0.455h7.102v-0.455h-0.652
			c-0.619,0-1.081-0.18-1.393-0.537c-0.225-0.256-0.344-0.902-0.344-1.948v-4.808C81.642,101.047,81.773,101.055,81.89,101.057z
			 M81.51,93.381c0.404-0.082,0.773-0.139,1.089-0.182c0.32-0.039,0.589-0.051,0.831-0.051c0.527,0,1.001,0.084,1.438,0.254
			c0.436,0.174,0.811,0.416,1.119,0.725c0.313,0.305,0.555,0.676,0.729,1.105c0.163,0.43,0.261,0.895,0.261,1.408
			c0,0.52-0.107,1.002-0.301,1.451c-0.202,0.438-0.498,0.824-0.897,1.152c-0.401,0.324-0.902,0.578-1.5,0.758
			c-0.596,0.189-1.293,0.275-2.079,0.275c-0.08,0-0.174,0-0.285-0.002s-0.25-0.008-0.404-0.008V93.381z"/>
		<path fill="#2A3052" d="M113.326,93.307c0.295-0.428,0.801-0.64,1.502-0.64h0.575v-0.446h-4.688l-5.915,12.961l-6.011-12.961H94.1
			v0.446c0.34,0,0.629,0.024,0.867,0.062c0.236,0.045,0.436,0.104,0.6,0.172c0.17,0.076,0.307,0.162,0.406,0.26
			c0.096,0.104,0.17,0.221,0.225,0.342c0.167,0.344,0.248,0.873,0.248,1.592v10.816c0,0.938-0.089,1.535-0.273,1.789
			c-0.289,0.422-0.781,0.633-1.485,0.633H94.1v0.455h5.767v-0.455h-0.584c-0.652,0-1.13-0.176-1.429-0.518
			c-0.224-0.246-0.336-0.883-0.336-1.904V94.846l6.399,13.941h0.406l6.392-13.941v11.064c0,0.938-0.09,1.535-0.266,1.789
			c-0.29,0.422-0.791,0.633-1.494,0.633h-0.584v0.455h7.032v-0.455h-0.575c-0.645,0-1.121-0.176-1.428-0.518
			c-0.225-0.246-0.339-0.883-0.339-1.904V95.094C113.062,94.154,113.15,93.559,113.326,93.307z"/>
		<path fill="#2A3052" d="M69.912,129.294H69.46c-0.17,0.31-0.366,0.55-0.554,0.728c-0.177,0.17-0.406,0.311-0.668,0.404
			c-0.256,0.094-0.576,0.146-0.95,0.174c-0.374,0.029-0.834,0.037-1.383,0.037h-4.33c0.266-0.223,0.702-0.674,1.329-1.336
			c0.63-0.66,1.463-1.557,2.476-2.67c1.354-1.482,2.337-2.88,2.932-4.191c0.4-0.844,0.584-1.676,0.584-2.518
			c0-0.58-0.12-1.13-0.354-1.654c-0.244-0.523-0.573-0.986-0.984-1.387c-0.435-0.4-0.925-0.715-1.508-0.953
			c-0.581-0.234-1.198-0.35-1.869-0.35c-0.634,0-1.216,0.102-1.745,0.305c-0.531,0.202-0.999,0.504-1.403,0.898
			c-0.403,0.404-0.749,0.886-1.019,1.467c-0.264,0.582-0.461,1.246-0.553,2.008h0.449c0.151-0.471,0.353-0.869,0.6-1.229
			c0.241-0.348,0.522-0.643,0.828-0.875c0.317-0.236,0.66-0.412,1.03-0.529c0.368-0.123,0.758-0.176,1.166-0.176
			c0.442,0,0.864,0.088,1.26,0.262c0.396,0.182,0.75,0.43,1.044,0.75c0.295,0.316,0.536,0.7,0.706,1.143
			c0.176,0.443,0.267,0.924,0.267,1.443c0,1.379-0.581,2.9-1.764,4.557c-0.576,0.842-1.381,1.791-2.392,2.854
			c-1.013,1.066-2.228,2.252-3.676,3.574v0.451h9.768L69.912,129.294z"/>
		<path fill="#2A3052" d="M74.119,130.455c0.478,0.734,1.032,1.303,1.653,1.707c0.625,0.41,1.283,0.611,1.985,0.611
			c0.323,0,0.661-0.049,1.021-0.162c0.341-0.11,0.685-0.262,1.005-0.463c0.329-0.193,0.634-0.426,0.925-0.677
			c0.288-0.263,0.542-0.542,0.749-0.835c0.338-0.468,0.61-0.951,0.833-1.447c0.218-0.504,0.395-1.027,0.536-1.57
			c0.128-0.545,0.227-1.115,0.282-1.709c0.059-0.6,0.08-1.215,0.08-1.866c0-2.75-0.631-4.925-1.888-6.528
			c-1.018-1.291-2.157-1.938-3.416-1.938c-0.543,0-1.039,0.102-1.502,0.313c-0.458,0.213-0.877,0.498-1.258,0.852
			c-0.371,0.354-0.719,0.76-1.017,1.23c-0.299,0.459-0.558,0.943-0.773,1.449c-0.57,1.35-0.855,2.969-0.855,4.873
			c0,1.247,0.153,2.396,0.442,3.441C73.215,128.781,73.615,129.686,74.119,130.455z M74.953,122.479
			c0.047-0.711,0.137-1.434,0.237-2.165c0.174-1.247,0.507-2.214,0.982-2.899c0.464-0.689,1.033-1.031,1.694-1.031
			c0.58,0,1.055,0.197,1.413,0.592c0.374,0.393,0.679,0.998,0.937,1.801c0.386,1.262,0.585,2.84,0.585,4.729
			c0,1.285-0.05,2.416-0.14,3.395c-0.095,0.978-0.233,1.824-0.417,2.527c-0.131,0.471-0.286,0.859-0.472,1.189
			c-0.181,0.326-0.394,0.594-0.61,0.797c-0.213,0.211-0.448,0.361-0.683,0.455c-0.235,0.092-0.47,0.141-0.682,0.141
			c-0.527,0-0.981-0.214-1.359-0.632c-0.376-0.421-0.684-0.985-0.909-1.717c-0.226-0.673-0.392-1.435-0.493-2.292
			c-0.106-0.867-0.159-1.787-0.159-2.77C74.877,123.895,74.9,123.186,74.953,122.479z"/>
		<path fill="#2A3052" d="M89.932,131.359c-0.049,0.1-0.092,0.188-0.163,0.271c-0.06,0.078-0.169,0.145-0.308,0.209
			c-0.141,0.051-0.326,0.099-0.566,0.135c-0.234,0.025-0.555,0.047-0.953,0.055v0.451h6.227v-0.451
			c-0.732-0.008-1.232-0.074-1.492-0.207c-0.115-0.057-0.225-0.121-0.3-0.182c-0.087-0.068-0.142-0.169-0.188-0.32
			c-0.041-0.146-0.068-0.352-0.084-0.627c-0.022-0.273-0.027-0.651-0.027-1.13v-13.985h-0.4l-4.027,1.965l0.18,0.376
			c0.528-0.253,0.949-0.376,1.263-0.376c0.206,0,0.384,0.057,0.53,0.182c0.147,0.123,0.26,0.314,0.322,0.578
			c0.076,0.322,0.121,1.098,0.121,2.314v8.946C90.064,130.541,90.02,131.137,89.932,131.359z"/>
		<path fill="#2A3052" d="M102.061,128.455c-1.012,1.066-2.236,2.252-3.668,3.574v0.451h9.762l1.167-3.187h-0.452
			c-0.182,0.31-0.366,0.55-0.546,0.728c-0.191,0.17-0.421,0.311-0.677,0.404c-0.264,0.094-0.581,0.146-0.949,0.174
			c-0.383,0.029-0.841,0.037-1.383,0.037h-4.328c0.257-0.223,0.693-0.674,1.322-1.336c0.636-0.66,1.463-1.557,2.479-2.67
			c1.354-1.482,2.332-2.88,2.929-4.191c0.389-0.844,0.588-1.676,0.588-2.518c0-0.58-0.123-1.13-0.363-1.654
			c-0.236-0.523-0.559-0.986-0.984-1.387s-0.918-0.715-1.5-0.953c-0.58-0.234-1.202-0.35-1.869-0.35
			c-0.635,0-1.217,0.102-1.753,0.305c-0.521,0.202-0.992,0.504-1.392,0.898c-0.412,0.404-0.748,0.886-1.023,1.467
			c-0.258,0.582-0.456,1.246-0.556,2.008h0.448c0.158-0.471,0.355-0.869,0.602-1.229c0.246-0.348,0.521-0.643,0.832-0.875
			c0.313-0.236,0.661-0.412,1.031-0.529c0.367-0.123,0.758-0.176,1.158-0.176c0.447,0,0.865,0.088,1.259,0.262
			c0.405,0.182,0.752,0.43,1.049,0.75c0.299,0.316,0.536,0.7,0.705,1.143c0.182,0.443,0.265,0.924,0.265,1.443
			c0,1.379-0.586,2.9-1.756,4.557C103.871,126.443,103.071,127.393,102.061,128.455z"/>
		<path fill="#2A3052" d="M18.868,139.057c12.904,16.313,31.108,12.334,31.108,12.334C45.424,145.697,18.868,139.057,18.868,139.057
			z"/>
		<path fill="#2A3052" d="M51.495,148.547c-0.568-12.52-16.122-25.797-16.122-25.797C39.171,143.611,51.495,148.547,51.495,148.547z
			"/>
		<path fill="#2A3052" d="M7.59,114.689c8.062,22.287,25.604,25.318,25.604,25.318C33.384,135.648,7.59,114.689,7.59,114.689z"/>
		<path fill="#2A3052" d="M26.079,109.189c-0.664,14.51,9.394,29.867,9.394,29.867C36.608,127.203,26.079,109.189,26.079,109.189z"
			/>
		<path fill="#2A3052" d="M18.494,117.912C15.271,102.93,0.571,91.557,0.571,91.557C3.988,107.576,18.494,117.912,18.494,117.912z"
			/>
		<path fill="#2A3052" d="M20.199,87.375c-5.022,16.506,0,29.305,0,29.305C24.752,103.309,20.199,87.375,20.199,87.375z"/>
		<path fill="#2A3052" d="M12.997,95.057c5.871-7.393,6.257-24.277,6.257-24.277C6.453,88.042,12.997,95.057,12.997,95.057z"/>
		<path fill="#2A3052" d="M10.151,94.301C9.871,83.873,0,64.719,0,64.719C-0.091,87.375,10.151,94.301,10.151,94.301z"/>
		<path fill="#2A3052" d="M10.909,72.584c11.57-10.055,14.506-22.758,14.506-22.758C9.299,62.913,10.909,72.584,10.909,72.584z"/>
		<path fill="#2A3052" d="M10.062,40.249C0.19,59.5,8.823,72.681,8.823,72.681C14.229,60.732,10.062,40.249,10.062,40.249z"/>
		<path fill="#2A3052" d="M16.98,51.816c9.291-1.608,14.506-15.458,14.506-15.458C13.184,47.457,16.98,51.816,16.98,51.816z"/>
		<path fill="#2A3052" d="M20.49,26.785c-11.289,9.765-6.169,23.132-6.169,23.132C19.254,38.732,20.49,26.785,20.49,26.785z"/>
		<path fill="#2A3052" d="M25.608,34.084c8.252,1.135,14.608-9.672,14.608-9.672C25.323,30.288,25.608,34.084,25.608,34.084z"/>
		<path fill="#2A3052" d="M34.144,14.741c-11.851,4.931-10.435,17.354-10.435,17.354C25.231,31.333,34.144,14.741,34.144,14.741z"/>
		<path fill="#2A3052" d="M41.354,12.56c0,0,2.128-2.704,3.458-3.604c0,0-8.774,0.333-10.862,11.76
			C33.95,20.716,37.175,18.629,41.354,12.56z"/>
		<path fill="#2A3052" d="M34.763,23.369c6.825,2.226,13.601-5.737,13.601-5.737C35.043,20.144,34.763,23.369,34.763,23.369z"/>
		<path fill="#2A3052" d="M49.792,9.715c0.707-0.854,4.023-4.08,4.023-4.08c-7.153,0.854-8.813,7.731-8.813,7.731
			C46.617,14.028,49.073,10.565,49.792,9.715z"/>
		<path fill="#2A3052" d="M45.571,15.354c2.465,2.751,10.808-2.701,10.808-2.701C48.274,12.465,45.571,15.354,45.571,15.354z"/>
		<path fill="#2A3052" d="M54.674,9.052c4.318-2.374,8.441-5.834,8.441-5.834C56.287,3.594,54.674,9.052,54.674,9.052z"/>
		<path fill="#2A3052" d="M63.727,9.289c-8.862-1-9.053,1.559-9.053,1.559C62.313,11.989,63.727,9.289,63.727,9.289z"/>
		<path fill="#2A3052" d="M63.35,5.827c0.899,0.234,8.108-4.368,8.108-4.368C66.53,0.609,63.35,5.827,63.35,5.827z"/>
		<path fill="#2A3052" d="M71.509,7.012c-7.111-1.61-8.255,0.374-8.255,0.374C68.425,9.239,71.509,7.012,71.509,7.012z"/>
		<path fill="#2A3052" d="M71.978,3.457c3.794-0.81,6.878-2.946,6.878-2.946C74.495-0.198,71.978,3.457,71.978,3.457z"/>
		<path fill="#2A3052" d="M78.477,5.163c-5.456-2.134-6.5-0.38-6.5-0.38C75.438,6.632,78.477,5.163,78.477,5.163z"/>
		<path fill="#2A3052" d="M75.821,3.551c6.209-0.094,6.831-1.137,6.831-1.137C78.05,1.035,75.821,3.551,75.821,3.551z"/>
		<path fill="#2A3052" d="M118.023,151.391c0,0,18.201,3.979,31.106-12.334C149.13,139.057,122.572,145.697,118.023,151.391z"/>
		<path fill="#2A3052" d="M132.627,122.75c0,0-15.553,13.277-16.123,25.797C116.504,148.547,128.827,143.611,132.627,122.75z"/>
		<path fill="#2A3052" d="M134.805,140.008c0,0,17.541-3.031,25.602-25.318C160.406,114.689,134.611,135.648,134.805,140.008z"/>
		<path fill="#2A3052" d="M132.525,139.057c0,0,10.057-15.357,9.393-29.867C141.918,109.189,131.395,127.203,132.525,139.057z"/>
		<path fill="#2A3052" d="M149.504,117.912c0,0,14.508-10.336,17.922-26.355C167.426,91.557,152.727,102.93,149.504,117.912z"/>
		<path fill="#2A3052" d="M147.801,116.68c0,0,5.014-12.799,0-29.305C147.801,87.375,143.246,103.309,147.801,116.68z"/>
		<path fill="#2A3052" d="M148.742,70.779c0,0,0.388,16.885,6.259,24.277C155.001,95.057,161.543,88.042,148.742,70.779z"/>
		<path fill="#2A3052" d="M168,64.719c0,0-9.867,19.154-10.158,29.582C157.842,94.301,168.088,87.375,168,64.719z"/>
		<path fill="#2A3052" d="M142.582,49.826c0,0,2.936,12.703,14.508,22.758C157.09,72.584,158.7,62.913,142.582,49.826z"/>
		<path fill="#2A3052" d="M157.938,40.249c0,0-4.171,20.483,1.24,32.432C159.178,72.681,167.805,59.5,157.938,40.249z"/>
		<path fill="#2A3052" d="M151.02,51.816c0,0,3.792-4.359-14.508-15.458C136.512,36.358,141.725,50.208,151.02,51.816z"/>
		<path fill="#2A3052" d="M147.507,26.785c0,0,1.235,11.947,6.169,23.132C153.676,49.917,158.797,36.55,147.507,26.785z"/>
		<path fill="#2A3052" d="M142.391,34.084c0,0,0.287-3.796-14.609-9.672C127.781,24.412,134.137,35.219,142.391,34.084z"/>
		<path fill="#2A3052" d="M144.288,32.095c0,0,1.419-12.423-10.437-17.354C133.852,14.741,142.771,31.333,144.288,32.095z"/>
		<path fill="#2A3052" d="M126.643,12.56c4.183,6.07,7.406,8.156,7.406,8.156c-2.09-11.427-10.861-11.76-10.861-11.76
			C124.517,9.855,126.643,12.56,126.643,12.56z"/>
		<path fill="#2A3052" d="M133.242,23.369c0,0-0.285-3.226-13.608-5.737C119.634,17.632,126.41,25.595,133.242,23.369z"/>
		<path fill="#2A3052" d="M118.205,9.715c0.717,0.851,3.178,4.313,4.793,3.651c0,0-1.662-6.877-8.814-7.731
			C114.184,5.635,117.496,8.86,118.205,9.715z"/>
		<path fill="#2A3052" d="M122.43,15.354c0,0-2.707-2.89-10.813-2.701C111.617,12.653,119.967,18.105,122.43,15.354z"/>
		<path fill="#2A3052" d="M104.885,3.218c0,0,4.123,3.46,8.438,5.834C113.323,9.052,111.71,3.594,104.885,3.218z"/>
		<path fill="#2A3052" d="M104.27,9.289c0,0,1.422,2.7,9.054,1.559C113.323,10.848,113.133,8.289,104.27,9.289z"/>
		<path fill="#2A3052" d="M96.539,1.459c0,0,7.207,4.602,8.113,4.368C104.652,5.827,101.473,0.609,96.539,1.459z"/>
		<path fill="#2A3052" d="M104.742,7.386c0,0-1.138-1.984-8.25-0.374C96.492,7.012,99.573,9.239,104.742,7.386z"/>
		<path fill="#2A3052" d="M89.143,0.511c0,0,3.08,2.137,6.871,2.946C96.014,3.457,93.504-0.198,89.143,0.511z"/>
		<path fill="#2A3052" d="M96.014,4.783c0,0-1.04-1.754-6.488,0.38C89.525,5.163,92.561,6.632,96.014,4.783z"/>
		<path fill="#2A3052" d="M92.176,3.551c0,0-2.228-2.516-6.826-1.137C85.35,2.414,85.963,3.457,92.176,3.551z"/>
		<polygon fill="#2A3052" points="88.52,150.23 93.234,150.23 90.908,144.525 		"/>
		<path fill="#2A3052" d="M79.706,147.785c0.248-0.115,0.47-0.256,0.66-0.43c0.19-0.172,0.357-0.363,0.492-0.58
			c0.119-0.219,0.219-0.451,0.285-0.699c0.067-0.25,0.099-0.514,0.099-0.779c0-0.406-0.084-0.791-0.245-1.154
			c-0.167-0.363-0.417-0.683-0.738-0.949c-0.322-0.271-0.722-0.486-1.202-0.645c-0.474-0.162-1.03-0.24-1.661-0.24
			c-0.688,0-1.287,0.072-1.816,0.232v5.424c0.507,0.094,1.142,0.148,1.906,0.148C78.479,148.113,79.222,148,79.706,147.785z"/>
		<path fill="#2A3052" d="M80.597,149.756c-0.351-0.285-0.795-0.512-1.332-0.682c-0.535-0.164-1.17-0.242-1.898-0.242
			c-0.421,0-0.786,0.003-1.078,0.014c-0.291,0.014-0.525,0.041-0.709,0.074v5.792c0.766,0.185,1.546,0.282,2.308,0.282
			c0.617,0,1.162-0.08,1.632-0.229c0.47-0.156,0.856-0.361,1.178-0.638c0.318-0.261,0.548-0.579,0.713-0.929
			c0.156-0.355,0.24-0.742,0.24-1.157c0-0.446-0.087-0.874-0.264-1.261C81.216,150.389,80.958,150.045,80.597,149.756z"/>
		<path fill="#2A3052" d="M115.412,141.053c0,0-6.074-0.281-5.596-5.217c0,0-22.665,3.131-52.821-0.096c0,0,2.37,3.797-5.401,5.313
			c0,0,10.432,7.588-0.196,15.645c0,0,7.593,0.475,5.219,5.883c0,0,25.892-4.176,54.143-0.666c0,0-1.422-4.646,4.652-5.027
			C115.412,156.887,105.262,150.344,115.412,141.053z M71.139,148.422h-0.26c-0.224,0-0.426,0.021-0.589,0.079
			c-0.163,0.05-0.297,0.155-0.396,0.3c-0.112,0.141-0.179,0.346-0.227,0.623c-0.047,0.268-0.074,0.621-0.074,1.061v4.318
			c-0.399,0.227-0.797,0.416-1.169,0.566c-0.383,0.164-0.77,0.291-1.157,0.393c-0.382,0.096-0.78,0.178-1.187,0.219
			c-0.413,0.051-0.844,0.078-1.309,0.078c-2.648,0-4.661-0.875-6.035-2.629c-1.036-1.305-1.548-2.822-1.548-4.539
			c0-0.484,0.047-0.961,0.141-1.443c0.094-0.482,0.227-0.955,0.399-1.414c0.178-0.455,0.396-0.895,0.648-1.314
			c0.26-0.422,0.55-0.809,0.86-1.166c0.682-0.77,1.446-1.348,2.317-1.718c0.866-0.362,1.826-0.552,2.903-0.552
			c0.312,0,0.584,0.016,0.83,0.039c0.231,0.023,0.465,0.061,0.687,0.115c0.222,0.051,0.452,0.121,0.701,0.205
			c0.243,0.084,0.541,0.192,0.882,0.322c0.363,0.145,0.619,0.215,0.754,0.215c0.126,0,0.23-0.061,0.327-0.186
			c0.084-0.113,0.143-0.355,0.164-0.711h0.375l0.353,4.459h-0.353c-0.351-1.1-0.815-1.941-1.383-2.512
			c-0.829-0.811-1.877-1.217-3.15-1.217c-1.741,0-3.08,0.715-3.99,2.133c-0.758,1.207-1.142,2.637-1.142,4.297
			c0,1.346,0.258,2.574,0.76,3.685c0.224,0.495,0.494,0.937,0.802,1.335c0.312,0.393,0.655,0.73,1.04,1.008
			c0.386,0.279,0.794,0.492,1.249,0.646c0.452,0.156,0.926,0.227,1.421,0.227c0.513,0,0.994-0.063,1.466-0.193
			c0.469-0.137,0.93-0.326,1.372-0.584v-4.082c0-0.365-0.01-0.654-0.039-0.875c-0.021-0.213-0.066-0.389-0.117-0.518
			c-0.058-0.139-0.125-0.234-0.206-0.307c-0.081-0.063-0.185-0.129-0.287-0.186c-0.214-0.115-0.595-0.178-1.158-0.178v-0.396h5.323
			V148.422z M83.831,152.906c-0.118,0.345-0.269,0.666-0.486,0.97c-0.203,0.302-0.464,0.579-0.767,0.821
			c-0.29,0.246-0.631,0.445-1.012,0.6c-0.747,0.289-1.889,0.439-3.442,0.439h-6.478v-0.393h0.517c0.563,0,0.983-0.184,1.24-0.555
			c0.151-0.242,0.232-0.766,0.232-1.555v-9.125c0-0.867-0.104-1.421-0.3-1.654c-0.256-0.311-0.654-0.461-1.171-0.461h-0.517v-0.385
			h5.938c1.103,0,1.99,0.08,2.66,0.248c0.505,0.127,0.951,0.309,1.338,0.533c0.388,0.229,0.716,0.496,0.976,0.803
			c0.263,0.305,0.464,0.644,0.596,1.012c0.138,0.375,0.206,0.764,0.206,1.173c0,0.709-0.206,1.343-0.627,1.899
			c-0.413,0.564-1.04,0.979-1.849,1.246c0.558,0.133,1.024,0.297,1.436,0.51c0.386,0.218,0.71,0.468,0.964,0.762
			c0.245,0.291,0.427,0.617,0.548,0.965c0.113,0.354,0.168,0.721,0.168,1.105C84,152.217,83.944,152.555,83.831,152.906z
			 M98.768,155.736h-5.404v-0.393c0.259-0.009,0.488-0.041,0.676-0.088c0.178-0.047,0.321-0.113,0.43-0.191
			c0.096-0.076,0.17-0.166,0.225-0.262c0.035-0.091,0.061-0.201,0.061-0.316c0.006-0.162-0.025-0.358-0.104-0.59
			c-0.059-0.244-0.166-0.525-0.302-0.859l-0.835-2.031h-5.316l-0.928,2.229c-0.226,0.543-0.34,0.947-0.34,1.23
			c0,0.111,0.018,0.211,0.051,0.307c0.037,0.092,0.116,0.176,0.242,0.258c0.109,0.08,0.263,0.148,0.474,0.197
			c0.214,0.055,0.483,0.096,0.823,0.117v0.393h-4.323v-0.393c0.569-0.102,0.937-0.234,1.106-0.4c0.18-0.164,0.359-0.422,0.547-0.758
			c0.189-0.338,0.391-0.764,0.604-1.273l4.832-11.629h0.358l4.771,11.754c0.199,0.484,0.373,0.875,0.545,1.17
			c0.16,0.294,0.334,0.523,0.504,0.689c0.177,0.16,0.371,0.271,0.578,0.338c0.201,0.063,0.448,0.101,0.727,0.109V155.736z
			 M110.248,144.717h-0.224c-0.136-0.512-0.283-0.916-0.448-1.225c-0.172-0.304-0.371-0.539-0.605-0.705
			c-0.243-0.168-0.526-0.275-0.852-0.33c-0.32-0.049-0.7-0.076-1.154-0.076h-3.027v5.549h2.509c0.284,0,0.538-0.029,0.749-0.084
			c0.199-0.055,0.367-0.15,0.51-0.299c0.146-0.148,0.252-0.342,0.342-0.6c0.072-0.246,0.144-0.564,0.188-0.953h0.373v4.781h-0.373
			c0-0.352-0.037-0.656-0.103-0.908c-0.059-0.248-0.165-0.457-0.293-0.615c-0.134-0.158-0.313-0.277-0.548-0.352
			c-0.221-0.068-0.506-0.1-0.845-0.1h-2.509v4.434c0,0.332,0.012,0.6,0.021,0.807c0.01,0.213,0.039,0.383,0.076,0.514
			c0.041,0.137,0.096,0.236,0.169,0.321c0.079,0.075,0.175,0.153,0.303,0.22c0.281,0.168,0.595,0.248,0.919,0.248h0.51v0.393h-5.904
			v-0.393h0.483c0.579,0,0.986-0.166,1.241-0.51c0.169-0.209,0.24-0.749,0.24-1.6v-9.125c0-0.332-0.01-0.605-0.014-0.816
			c-0.018-0.211-0.042-0.381-0.075-0.51c-0.042-0.137-0.092-0.242-0.163-0.322c-0.08-0.074-0.177-0.152-0.291-0.221
			c-0.298-0.164-0.61-0.246-0.938-0.246h-0.483v-0.385h10.217V144.717z"/>
	</g>
	<g>
		<path fill="#2A3052" d="M66.902,27.785c0.501-0.659,0.753-1.398,0.753-2.229c0-0.481-0.087-0.941-0.246-1.379
			c-0.165-0.435-0.394-0.827-0.72-1.193c-0.315-0.354-0.714-0.665-1.177-0.932c-0.476-0.277-1.015-0.482-1.625-0.625
			c-0.805-0.199-1.87-0.295-3.208-0.295h-7.159v0.454h0.612c0.634,0,1.107,0.182,1.428,0.538c0.235,0.274,0.348,0.922,0.348,1.944
			v10.702c0,0.922-0.092,1.535-0.282,1.817c-0.309,0.441-0.796,0.659-1.494,0.659h-0.612v0.455h7.813
			c1.867,0,3.248-0.175,4.159-0.512c0.449-0.185,0.863-0.416,1.219-0.703c0.37-0.293,0.673-0.611,0.929-0.963
			c0.252-0.358,0.446-0.739,0.578-1.142c0.136-0.399,0.206-0.801,0.206-1.214c0-0.454-0.07-0.889-0.213-1.301
			c-0.131-0.412-0.359-0.787-0.649-1.133c-0.307-0.343-0.694-0.637-1.172-0.894c-0.478-0.243-1.049-0.447-1.729-0.592
			C65.648,28.924,66.396,28.44,66.902,27.785z M65.278,31.891c0.206,0.459,0.313,0.953,0.313,1.481c0,0.476-0.096,0.927-0.294,1.348
			c-0.182,0.419-0.476,0.791-0.857,1.104c-0.381,0.313-0.855,0.561-1.423,0.743c-0.565,0.172-1.218,0.266-1.963,0.266
			c-0.927,0-1.859-0.108-2.8-0.334v-6.79c0.223-0.044,0.51-0.065,0.866-0.088c0.356-0.014,0.791-0.021,1.308-0.021
			c0.874,0,1.638,0.096,2.284,0.291c0.646,0.194,1.182,0.465,1.613,0.803C64.751,31.027,65.068,31.427,65.278,31.891z
			 M64.972,26.373c-0.078,0.296-0.194,0.563-0.348,0.822c-0.151,0.248-0.348,0.474-0.575,0.68c-0.231,0.2-0.507,0.367-0.811,0.502
			c-0.583,0.248-1.481,0.373-2.67,0.373c-0.918,0-1.685-0.05-2.314-0.166v-6.371c0.642-0.179,1.376-0.26,2.204-0.26
			c0.757,0,1.418,0.088,2.001,0.273c0.58,0.188,1.063,0.445,1.454,0.756c0.394,0.322,0.692,0.698,0.891,1.124
			c0.201,0.429,0.301,0.882,0.301,1.351C65.104,25.771,65.055,26.083,64.972,26.373z"/>
		<path fill="#2A3052" d="M80.197,22.035c0.81,0,1.379,0.063,1.71,0.179c0.204,0.095,0.383,0.199,0.537,0.304
			c0.141,0.111,0.27,0.259,0.384,0.444c0.118,0.184,0.217,0.429,0.311,0.71c0.083,0.285,0.178,0.646,0.265,1.082h0.294v-3.624
			H70.927v0.454h0.586c0.688,0,1.178,0.157,1.467,0.484c0.215,0.258,0.322,0.905,0.322,1.946v10.765
			c0,0.813-0.051,1.349-0.148,1.597c-0.049,0.146-0.133,0.274-0.254,0.384c-0.126,0.116-0.259,0.2-0.411,0.281
			c-0.156,0.069-0.316,0.124-0.482,0.153c-0.171,0.037-0.336,0.049-0.495,0.049h-0.586v0.455h12.771l1.424-4.154h-0.489
			c-0.252,0.514-0.521,0.957-0.774,1.341c-0.265,0.386-0.518,0.699-0.772,0.941c-0.21,0.196-0.398,0.355-0.578,0.488
			c-0.19,0.119-0.398,0.215-0.643,0.293c-0.237,0.063-0.513,0.114-0.84,0.142c-0.317,0.033-0.719,0.043-1.199,0.043H77.02
			c-0.23,0-0.418-0.01-0.572-0.038c-0.157-0.025-0.276-0.063-0.373-0.106c-0.094-0.041-0.159-0.099-0.204-0.159
			c-0.053-0.065-0.1-0.141-0.129-0.212c-0.067-0.172-0.098-0.62-0.098-1.339v-5.462h3.638c0.352,0,0.643,0.015,0.895,0.059
			c0.255,0.041,0.471,0.106,0.65,0.181c0.18,0.084,0.325,0.179,0.438,0.288c0.111,0.112,0.209,0.239,0.285,0.383
			c0.053,0.116,0.114,0.304,0.165,0.56c0.064,0.254,0.124,0.59,0.174,0.993h0.447v-5.765H81.89
			c-0.027,0.413-0.073,0.774-0.149,1.076c-0.076,0.303-0.199,0.549-0.387,0.75c-0.188,0.202-0.449,0.349-0.787,0.443
			c-0.32,0.092-0.755,0.139-1.284,0.139h-3.638v-6.549H80.197z"/>
		<path fill="#2A3052" d="M88.258,23.442c-0.25,0.526-0.363,1.088-0.363,1.675c0,0.695,0.125,1.298,0.389,1.805
			c0.27,0.505,0.615,0.953,1.06,1.353c0.434,0.392,0.944,0.752,1.521,1.084c0.572,0.336,1.172,0.677,1.791,1.045
			c0.545,0.328,1.067,0.616,1.563,0.878c0.487,0.261,0.918,0.539,1.287,0.82c0.375,0.288,0.666,0.61,0.885,0.972
			c0.221,0.363,0.334,0.811,0.334,1.343c0,0.355-0.075,0.698-0.229,1.028c-0.15,0.326-0.367,0.62-0.654,0.872
			c-0.279,0.241-0.631,0.44-1.037,0.589c-0.404,0.145-0.868,0.218-1.375,0.218c-0.438,0-0.856-0.05-1.268-0.155
			c-0.417-0.1-0.801-0.236-1.146-0.427c-0.363-0.183-0.685-0.399-0.961-0.651c-0.288-0.256-0.518-0.521-0.698-0.822
			c-0.175-0.296-0.342-0.674-0.479-1.113c-0.143-0.444-0.27-0.97-0.377-1.561h-0.452v5.681h0.452
			c0.055-0.378,0.148-0.633,0.271-0.755c0.117-0.124,0.274-0.183,0.475-0.183c0.035,0,0.11,0.011,0.225,0.034
			c0.121,0.025,0.267,0.062,0.426,0.096c0.178,0.045,0.371,0.096,0.568,0.154c0.208,0.064,0.404,0.131,0.604,0.206
			c0.276,0.107,0.519,0.183,0.714,0.25c0.203,0.055,0.395,0.101,0.578,0.134c0.189,0.024,0.382,0.049,0.586,0.053
			c0.203,0.008,0.451,0.01,0.735,0.01c0.759,0,1.47-0.127,2.106-0.369c0.641-0.249,1.19-0.583,1.654-1.006
			c0.456-0.416,0.817-0.902,1.07-1.465c0.252-0.557,0.387-1.144,0.387-1.761c0-0.725-0.141-1.35-0.402-1.863
			c-0.277-0.524-0.633-0.983-1.076-1.384c-0.458-0.399-0.986-0.772-1.58-1.106c-0.596-0.332-1.223-0.675-1.879-1.021
			c-0.59-0.313-1.127-0.6-1.635-0.869c-0.5-0.27-0.932-0.546-1.303-0.828c-0.373-0.291-0.666-0.603-0.873-0.933
			c-0.211-0.345-0.314-0.743-0.314-1.199c0-0.325,0.059-0.643,0.217-0.945c0.146-0.304,0.354-0.576,0.615-0.811
			c0.262-0.24,0.578-0.422,0.934-0.572c0.357-0.14,0.75-0.21,1.166-0.21c0.373,0,0.742,0.047,1.117,0.15
			c0.369,0.099,0.724,0.245,1.048,0.427c0.329,0.185,0.628,0.41,0.915,0.67c0.279,0.26,0.517,0.548,0.705,0.878
			c0.379,0.649,0.639,1.525,0.791,2.625h0.455v-5.73h-0.455c-0.084,0.381-0.184,0.636-0.32,0.769
			c-0.134,0.125-0.309,0.188-0.518,0.188s-0.526-0.104-0.973-0.309c-0.992-0.432-1.938-0.648-2.792-0.648
			c-0.706,0-1.347,0.117-1.94,0.35c-0.592,0.228-1.099,0.551-1.533,0.95C88.836,22.444,88.498,22.912,88.258,23.442z"/>
		<path fill="#2A3052" d="M101.625,25.016h0.467c0.075-0.595,0.199-1.079,0.357-1.45c0.169-0.382,0.38-0.668,0.637-0.871
			c0.264-0.201,0.586-0.341,0.955-0.414c0.371-0.072,0.813-0.11,1.318-0.11h1.998v12.655c0,0.939-0.096,1.533-0.268,1.789
			c-0.298,0.419-0.793,0.63-1.492,0.63h-0.59v0.455h7.028v-0.455h-0.577c-0.654,0-1.131-0.169-1.432-0.513
			c-0.211-0.247-0.328-0.888-0.328-1.906V22.17h2.337c0.458,0,0.869,0.049,1.218,0.152c0.355,0.1,0.65,0.264,0.893,0.489
			c0.236,0.221,0.443,0.515,0.588,0.879c0.152,0.361,0.263,0.802,0.323,1.325h0.288v-3.885h-13.721V25.016z"/>
		<path fill="#2A3052" d="M55.091,45.729c0.529,0,1.001,0.029,1.389,0.097c0.397,0.061,0.731,0.189,1.013,0.388
			c0.297,0.19,0.542,0.468,0.742,0.825c0.197,0.362,0.381,0.833,0.547,1.425h0.26v-3.638h-12.32v0.457h0.584
			c0.392,0,0.764,0.093,1.125,0.289c0.147,0.081,0.262,0.167,0.343,0.257c0.1,0.091,0.153,0.215,0.194,0.377
			c0.053,0.158,0.081,0.355,0.095,0.6c0.017,0.244,0.026,0.563,0.026,0.96v10.696c0,1.003-0.098,1.634-0.292,1.881
			c-0.304,0.4-0.797,0.599-1.491,0.599h-0.584v0.45h7.108v-0.45h-0.6c-0.395,0-0.769-0.1-1.121-0.29
			c-0.15-0.086-0.275-0.174-0.359-0.267c-0.081-0.095-0.155-0.218-0.203-0.37c-0.042-0.156-0.067-0.357-0.089-0.604
			c-0.014-0.243-0.019-0.558-0.019-0.95v-5.205h3.011c0.416,0,0.759,0.045,1.032,0.127c0.277,0.088,0.491,0.229,0.654,0.413
			c0.164,0.181,0.283,0.426,0.353,0.716c0.077,0.298,0.117,0.648,0.128,1.061h0.451v-5.605h-0.451
			c-0.057,0.463-0.137,0.836-0.238,1.126c-0.092,0.291-0.23,0.527-0.404,0.696c-0.169,0.171-0.372,0.289-0.626,0.354
			c-0.248,0.065-0.546,0.1-0.9,0.1h-3.011v-6.514H55.091z"/>
		<path fill="#2A3052" d="M61.476,45.283h0.592c0.384,0,0.763,0.093,1.124,0.289c0.147,0.081,0.263,0.167,0.343,0.257
			c0.084,0.091,0.151,0.215,0.196,0.377c0.047,0.158,0.084,0.355,0.1,0.6c0.01,0.244,0.013,0.563,0.013,0.96v10.696
			c0,1.003-0.089,1.634-0.285,1.881c-0.304,0.4-0.799,0.599-1.49,0.599h-0.592v0.45h7.099v-0.45h-0.593
			c-0.398,0-0.763-0.1-1.113-0.29c-0.157-0.086-0.268-0.174-0.361-0.267c-0.086-0.095-0.152-0.218-0.198-0.37
			c-0.053-0.156-0.066-0.357-0.086-0.604c-0.016-0.243-0.027-0.558-0.027-0.95V47.766c0-1.009,0.099-1.634,0.301-1.888
			c0.302-0.397,0.794-0.594,1.484-0.594h0.593v-0.457h-7.099V45.283z"/>
		<path fill="#2A3052" d="M72.511,59.829c-0.369,0.294-0.759,0.542-1.147,0.744c-0.397,0.202-0.865,0.325-1.371,0.368v0.45h5.883
			v-0.45c-0.312-0.011-0.573-0.035-0.774-0.093c-0.202-0.051-0.36-0.12-0.487-0.197c-0.117-0.086-0.205-0.182-0.26-0.288
			c-0.047-0.118-0.071-0.234-0.071-0.362c0-0.089,0-0.171,0.008-0.239c0.005-0.067,0.038-0.153,0.091-0.251
			c0.051-0.101,0.119-0.219,0.225-0.363c0.103-0.147,0.251-0.343,0.45-0.587l3.467-4.451l2.807,4.252
			c0.225,0.324,0.384,0.579,0.502,0.745c0.103,0.174,0.181,0.304,0.224,0.404c0.041,0.098,0.071,0.175,0.061,0.241
			c-0.002,0.059-0.008,0.141-0.008,0.249c0,0.3-0.119,0.529-0.396,0.679c-0.267,0.161-0.674,0.244-1.234,0.261v0.45h7.104v-0.45
			c-0.738-0.043-1.346-0.256-1.814-0.636c-0.24-0.197-0.541-0.522-0.904-0.982c-0.356-0.463-0.788-1.065-1.287-1.805l-3.555-5.296
			l3.292-4.208c0.683-0.864,1.194-1.447,1.543-1.752c0.163-0.144,0.317-0.269,0.479-0.384c0.161-0.116,0.338-0.212,0.523-0.294
			c0.176-0.082,0.383-0.15,0.603-0.199c0.218-0.05,0.464-0.088,0.747-0.101v-0.457h-5.881v0.457
			c0.298,0.001,0.535,0.012,0.736,0.039c0.198,0.017,0.338,0.049,0.427,0.081c0.165,0.051,0.304,0.155,0.428,0.306
			c0.123,0.143,0.186,0.309,0.186,0.504c0,0.084-0.01,0.168-0.016,0.238c-0.006,0.076-0.037,0.16-0.09,0.255
			c-0.043,0.099-0.126,0.22-0.219,0.351c-0.1,0.142-0.243,0.327-0.424,0.559l-2.939,3.723l-2.548-3.8
			c-0.394-0.567-0.582-1.011-0.582-1.321c0-0.113,0.024-0.216,0.079-0.327c0.057-0.107,0.148-0.203,0.28-0.286
			c0.121-0.086,0.298-0.158,0.525-0.211c0.212-0.059,0.488-0.098,0.815-0.11v-0.457H70.33v0.457
			c0.798,0.021,1.508,0.237,2.133,0.645c0.615,0.396,1.364,1.247,2.261,2.536l3.263,4.778l-3.908,4.94
			C73.498,58.913,72.98,59.465,72.511,59.829z"/>
		<path fill="#2A3052" d="M89.017,45.283h0.589c0.691,0,1.167,0.156,1.466,0.485c0.214,0.25,0.323,0.9,0.323,1.943v10.762
			c0,0.816-0.051,1.348-0.148,1.597c-0.055,0.152-0.137,0.278-0.263,0.389c-0.116,0.106-0.247,0.199-0.407,0.273
			c-0.151,0.072-0.305,0.129-0.479,0.158c-0.172,0.034-0.341,0.051-0.492,0.051h-0.589v0.45h12.772l1.434-4.154h-0.498
			c-0.262,0.515-0.52,0.965-0.772,1.347c-0.267,0.384-0.521,0.697-0.782,0.937c-0.201,0.195-0.391,0.363-0.57,0.489
			c-0.189,0.125-0.402,0.224-0.637,0.284c-0.246,0.077-0.523,0.128-0.842,0.154c-0.326,0.028-0.721,0.044-1.201,0.044h-2.813
			c-0.23,0-0.421-0.015-0.563-0.039c-0.163-0.022-0.287-0.063-0.377-0.104c-0.088-0.043-0.162-0.103-0.207-0.166
			c-0.047-0.064-0.096-0.131-0.133-0.21c-0.059-0.167-0.097-0.618-0.097-1.337v-5.46h3.646c0.35,0,0.643,0.017,0.894,0.055
			c0.251,0.043,0.469,0.104,0.648,0.182c0.179,0.089,0.319,0.183,0.444,0.291c0.113,0.109,0.2,0.242,0.274,0.387
			c0.058,0.11,0.118,0.297,0.179,0.549c0.051,0.267,0.107,0.598,0.168,1h0.447v-5.765h-0.447c-0.033,0.416-0.08,0.771-0.154,1.073
			c-0.068,0.301-0.2,0.554-0.389,0.756c-0.191,0.198-0.447,0.342-0.779,0.437c-0.326,0.091-0.756,0.145-1.285,0.145h-3.646v-6.554
			h4.553c0.813,0,1.388,0.06,1.72,0.181c0.205,0.094,0.381,0.194,0.52,0.306c0.154,0.107,0.283,0.254,0.397,0.445
			c0.114,0.186,0.214,0.423,0.306,0.707c0.09,0.288,0.181,0.646,0.27,1.083h0.293v-3.625H89.017V45.283z"/>
		<path fill="#2A3052" d="M120.942,56.396c0.394-1.028,0.585-2.148,0.585-3.369c0-1.729-0.393-3.247-1.18-4.546
			c-0.779-1.314-1.822-2.248-3.117-2.816c-1.284-0.557-3.169-0.839-5.643-0.839h-6.745v0.457h0.624c0.627,0,1.096,0.171,1.415,0.534
			c0.226,0.251,0.343,0.9,0.343,1.948v10.696c0,0.947-0.09,1.548-0.268,1.807c-0.305,0.448-0.804,0.673-1.49,0.673h-0.624v0.45
			h7.403c1.527,0,2.867-0.203,4.028-0.621c1.155-0.412,2.128-0.987,2.905-1.729C119.96,58.303,120.545,57.423,120.942,56.396z
			 M118.247,56.21c-0.339,0.914-0.8,1.695-1.38,2.332c-0.588,0.638-1.281,1.134-2.082,1.48c-0.806,0.343-1.677,0.514-2.615,0.514
			c-0.711,0-1.578-0.111-2.602-0.34v-14.09c0.474-0.105,0.915-0.201,1.33-0.258c0.414-0.062,0.812-0.093,1.176-0.093
			c0.976,0,1.859,0.172,2.688,0.515c0.815,0.342,1.517,0.835,2.108,1.471c0.586,0.637,1.046,1.414,1.384,2.326
			c0.324,0.909,0.495,1.939,0.495,3.082C118.75,54.279,118.576,55.301,118.247,56.21z"/>
		<path fill="#2A3052" d="M58.359,85.467c2.259,0,4.173-0.83,5.759-2.492c1.593-1.657,2.38-3.754,2.38-6.265
			c0-2.44-0.787-4.481-2.365-6.108c-1.583-1.636-3.441-2.458-5.583-2.458c-2.17,0-4.023,0.719-5.583,2.166
			c-1.795,1.66-2.685,3.812-2.685,6.437c0,2.571,0.773,4.673,2.315,6.292C54.144,84.659,56.064,85.467,58.359,85.467z
			 M53.428,73.523c0.23-0.946,0.566-1.753,1.009-2.42c0.445-0.658,0.995-1.171,1.644-1.526c0.65-0.359,1.401-0.542,2.242-0.542
			c0.89,0,1.674,0.183,2.352,0.547c0.664,0.365,1.23,0.877,1.67,1.567c0.461,0.69,0.806,1.523,1.023,2.51
			c0.228,0.991,0.336,2.118,0.336,3.378c0,1.316-0.134,2.459-0.414,3.409c-0.267,0.949-0.646,1.734-1.13,2.35
			c-0.467,0.619-1.042,1.068-1.701,1.365c-0.658,0.291-1.361,0.439-2.125,0.439c-0.854,0-1.61-0.197-2.265-0.582
			c-0.646-0.387-1.193-0.924-1.64-1.625c-0.441-0.701-0.78-1.524-1.006-2.494c-0.232-0.978-0.348-2.037-0.348-3.2
			C53.076,75.524,53.191,74.465,53.428,73.523z"/>
		<path fill="#2A3052" d="M68.522,68.975h0.621c0.626,0,1.101,0.179,1.424,0.538c0.221,0.253,0.343,0.904,0.343,1.941v10.704
			c0,0.943-0.098,1.547-0.28,1.807c-0.296,0.447-0.793,0.672-1.487,0.672h-0.621v0.455h7.402c1.522,0,2.866-0.209,4.029-0.627
			c1.159-0.412,2.126-0.99,2.904-1.725c0.78-0.742,1.361-1.626,1.764-2.651c0.391-1.019,0.587-2.147,0.587-3.369
			c0-1.726-0.391-3.239-1.183-4.549c-0.786-1.305-1.82-2.238-3.121-2.807c-1.278-0.557-3.167-0.839-5.636-0.839h-6.747V68.975z
			 M73.249,69.804c0.47-0.111,0.923-0.2,1.332-0.26c0.417-0.064,0.808-0.093,1.174-0.093c0.968,0,1.865,0.173,2.681,0.518
			c0.818,0.34,1.523,0.833,2.108,1.468c0.591,0.64,1.059,1.417,1.39,2.326c0.333,0.917,0.496,1.941,0.496,3.082
			c0,1.128-0.17,2.152-0.506,3.065c-0.33,0.911-0.791,1.69-1.379,2.326c-0.59,0.641-1.284,1.135-2.078,1.479
			c-0.805,0.346-1.676,0.518-2.613,0.518c-0.715,0-1.579-0.115-2.604-0.342V69.804z"/>
		<path fill="#2A3052" d="M87.223,68.975h0.61c0.627,0,1.106,0.179,1.421,0.538c0.225,0.253,0.344,0.904,0.344,1.941v10.704
			c0,0.943-0.092,1.547-0.27,1.807c-0.306,0.447-0.789,0.672-1.495,0.672h-0.61v0.455h7.395c1.525,0,2.863-0.209,4.026-0.627
			c1.161-0.412,2.13-0.99,2.907-1.725c0.781-0.742,1.368-1.626,1.766-2.651c0.396-1.019,0.579-2.147,0.579-3.369
			c0-1.726-0.383-3.239-1.179-4.549c-0.776-1.305-1.817-2.238-3.114-2.807c-1.282-0.557-3.169-0.839-5.642-0.839h-6.738V68.975z
			 M91.945,69.804c0.474-0.111,0.914-0.2,1.33-0.26c0.415-0.064,0.805-0.093,1.17-0.093c0.975,0,1.866,0.173,2.688,0.518
			c0.813,0.34,1.518,0.833,2.105,1.468c0.592,0.64,1.054,1.417,1.387,2.326c0.328,0.917,0.504,1.941,0.504,3.082
			c0,1.128-0.176,2.152-0.514,3.065c-0.331,0.911-0.797,1.69-1.387,2.326c-0.585,0.641-1.271,1.135-2.068,1.479
			c-0.809,0.346-1.678,0.518-2.613,0.518c-0.721,0-1.593-0.115-2.602-0.342V69.804z"/>
		<path fill="#2A3052" d="M117.665,82.631c0.258-0.563,0.38-1.152,0.38-1.769c0-0.728-0.128-1.346-0.396-1.865
			c-0.269-0.513-0.624-0.977-1.074-1.378c-0.451-0.402-0.977-0.772-1.577-1.111c-0.593-0.327-1.221-0.674-1.879-1.021
			c-0.589-0.306-1.13-0.601-1.63-0.873c-0.504-0.264-0.938-0.541-1.309-0.823c-0.363-0.281-0.66-0.599-0.877-0.937
			c-0.206-0.334-0.316-0.731-0.316-1.19c0-0.324,0.074-0.641,0.227-0.942c0.143-0.313,0.355-0.583,0.615-0.818
			c0.268-0.235,0.577-0.426,0.929-0.568c0.357-0.146,0.751-0.214,1.165-0.214c0.375,0,0.74,0.055,1.116,0.158
			c0.368,0.101,0.72,0.238,1.056,0.424c0.328,0.18,0.627,0.404,0.911,0.662c0.282,0.262,0.517,0.559,0.703,0.885
			c0.386,0.651,0.645,1.523,0.796,2.628h0.456v-5.734h-0.456c-0.078,0.387-0.19,0.638-0.328,0.761
			c-0.132,0.128-0.305,0.191-0.518,0.191c-0.201,0-0.52-0.099-0.961-0.303c-1.005-0.431-1.939-0.649-2.797-0.649
			c-0.703,0-1.35,0.119-1.938,0.352c-0.597,0.228-1.106,0.544-1.531,0.942c-0.438,0.401-0.777,0.865-1.016,1.396
			c-0.243,0.526-0.369,1.084-0.369,1.67c0,0.702,0.137,1.306,0.394,1.812c0.265,0.505,0.623,0.954,1.063,1.341
			c0.437,0.4,0.946,0.766,1.521,1.09c0.571,0.336,1.167,0.684,1.783,1.047c0.551,0.322,1.067,0.621,1.564,0.881
			c0.489,0.262,0.923,0.533,1.295,0.822c0.363,0.282,0.667,0.604,0.882,0.969c0.223,0.363,0.328,0.807,0.328,1.337
			c0,0.356-0.068,0.701-0.224,1.033c-0.153,0.326-0.366,0.619-0.656,0.865c-0.288,0.25-0.625,0.447-1.044,0.59
			c-0.404,0.15-0.861,0.225-1.369,0.225c-0.432,0-0.848-0.056-1.271-0.15c-0.407-0.105-0.793-0.248-1.144-0.427
			c-0.353-0.185-0.673-0.407-0.956-0.657c-0.287-0.25-0.52-0.529-0.704-0.814c-0.173-0.308-0.338-0.677-0.476-1.118
			c-0.146-0.445-0.267-0.965-0.379-1.562h-0.444v5.68h0.444c0.059-0.383,0.151-0.639,0.26-0.752
			c0.125-0.129,0.283-0.188,0.487-0.188c0.035,0,0.107,0.014,0.231,0.035c0.108,0.023,0.264,0.057,0.428,0.1
			c0.174,0.039,0.361,0.089,0.563,0.152c0.209,0.062,0.404,0.127,0.602,0.201c0.269,0.105,0.512,0.189,0.715,0.25
			c0.193,0.064,0.389,0.11,0.58,0.139c0.184,0.027,0.381,0.039,0.585,0.055c0.204,0.008,0.444,0.008,0.737,0.008
			c0.76,0,1.464-0.123,2.11-0.371c0.634-0.25,1.183-0.58,1.644-0.998C117.056,83.676,117.414,83.189,117.665,82.631z"/>
		<path fill="#2A3052" d="M60.388,108.332h-0.598c-0.403,0-0.776-0.096-1.12-0.297c-0.156-0.075-0.277-0.17-0.358-0.26
			c-0.094-0.092-0.164-0.211-0.207-0.371c-0.046-0.153-0.074-0.352-0.089-0.598c-0.017-0.246-0.021-0.564-0.021-0.96v-5.196h3.011
			c0.424,0,0.752,0.043,1.037,0.129c0.271,0.082,0.483,0.217,0.652,0.406c0.164,0.193,0.284,0.43,0.349,0.717
			c0.078,0.299,0.127,0.648,0.127,1.069h0.448v-5.606h-0.448c-0.06,0.457-0.14,0.824-0.232,1.123
			c-0.102,0.293-0.232,0.521-0.407,0.695c-0.166,0.168-0.379,0.291-0.628,0.357c-0.249,0.063-0.544,0.09-0.899,0.09h-3.011v-6.505
			h3.647c0.542,0,1.001,0.028,1.389,0.089c0.39,0.064,0.734,0.188,1.028,0.385c0.286,0.191,0.533,0.471,0.73,0.832
			c0.199,0.357,0.384,0.836,0.547,1.432h0.263v-3.643H53.277v0.446h0.583c0.394,0,0.769,0.104,1.128,0.293
			c0.147,0.087,0.251,0.171,0.34,0.259c0.093,0.088,0.153,0.215,0.195,0.371c0.049,0.161,0.085,0.367,0.096,0.611
			c0.012,0.242,0.021,0.559,0.021,0.951v10.694c0,1.003-0.101,1.638-0.291,1.89c-0.299,0.396-0.798,0.596-1.489,0.596h-0.583v0.455
			h7.111V108.332z"/>
		<path fill="#2A3052" d="M75.132,108.332h-0.596c-0.391,0-0.763-0.096-1.115-0.297c-0.147-0.075-0.267-0.17-0.357-0.26
			c-0.084-0.092-0.153-0.211-0.196-0.371c-0.046-0.153-0.073-0.352-0.094-0.598c-0.01-0.246-0.027-0.564-0.027-0.96V95.152
			c0-1.002,0.1-1.627,0.307-1.881c0.3-0.398,0.792-0.604,1.482-0.604h0.596v-0.446H68.03v0.446h0.589
			c0.392,0,0.766,0.104,1.125,0.293c0.157,0.087,0.266,0.171,0.349,0.259c0.086,0.088,0.151,0.215,0.196,0.371
			c0.045,0.161,0.081,0.367,0.092,0.611c0.016,0.242,0.026,0.559,0.026,0.951v10.694c0,1.003-0.103,1.638-0.295,1.89
			c-0.303,0.396-0.805,0.596-1.493,0.596H68.03v0.455h7.102V108.332z"/>
		<path fill="#2A3052" d="M81.89,101.057c0.124,0.008,0.239,0.01,0.346,0.01c0.128,0,0.281-0.002,0.448-0.01
			c0.166-0.002,0.351-0.01,0.564-0.018l5.606,7.748h4.422v-0.455c-0.894-0.096-1.632-0.328-2.196-0.682
			c-0.546-0.357-1.226-1.076-2.014-2.176l-3.423-4.75c0.693-0.158,1.295-0.373,1.81-0.64c0.513-0.267,0.937-0.587,1.274-0.952
			c0.339-0.369,0.584-0.77,0.748-1.214c0.172-0.446,0.249-0.925,0.249-1.437c0-0.477-0.077-0.918-0.245-1.33
			c-0.158-0.414-0.37-0.793-0.643-1.125c-0.268-0.334-0.586-0.625-0.947-0.871c-0.363-0.239-0.755-0.428-1.173-0.547
			c-0.844-0.262-2.14-0.389-3.878-0.389h-6.041v0.446h0.619c0.634,0,1.098,0.188,1.419,0.542c0.231,0.254,0.342,0.902,0.342,1.943
			v10.694c0,0.95-0.088,1.55-0.257,1.804c-0.309,0.453-0.807,0.682-1.504,0.682h-0.619v0.455h7.102v-0.455h-0.652
			c-0.619,0-1.081-0.18-1.393-0.537c-0.225-0.256-0.344-0.902-0.344-1.948v-4.808C81.642,101.047,81.773,101.055,81.89,101.057z
			 M81.51,93.381c0.404-0.082,0.773-0.139,1.089-0.182c0.32-0.039,0.589-0.051,0.831-0.051c0.527,0,1.001,0.084,1.438,0.254
			c0.436,0.174,0.811,0.416,1.119,0.725c0.313,0.305,0.555,0.676,0.729,1.105c0.163,0.43,0.261,0.895,0.261,1.408
			c0,0.52-0.107,1.002-0.301,1.451c-0.202,0.438-0.498,0.824-0.897,1.152c-0.401,0.324-0.902,0.578-1.5,0.758
			c-0.596,0.189-1.293,0.275-2.079,0.275c-0.08,0-0.174,0-0.285-0.002s-0.25-0.008-0.404-0.008V93.381z"/>
		<path fill="#2A3052" d="M113.326,93.307c0.295-0.428,0.801-0.64,1.502-0.64h0.575v-0.446h-4.688l-5.915,12.961l-6.011-12.961H94.1
			v0.446c0.34,0,0.629,0.024,0.867,0.062c0.236,0.045,0.436,0.104,0.6,0.172c0.17,0.076,0.307,0.162,0.406,0.26
			c0.096,0.104,0.17,0.221,0.225,0.342c0.167,0.344,0.248,0.873,0.248,1.592v10.816c0,0.938-0.089,1.535-0.273,1.789
			c-0.289,0.422-0.781,0.633-1.485,0.633H94.1v0.455h5.767v-0.455h-0.584c-0.652,0-1.13-0.176-1.429-0.518
			c-0.224-0.246-0.336-0.883-0.336-1.904V94.846l6.399,13.941h0.406l6.392-13.941v11.064c0,0.938-0.09,1.535-0.266,1.789
			c-0.29,0.422-0.791,0.633-1.494,0.633h-0.584v0.455h7.032v-0.455h-0.575c-0.645,0-1.121-0.176-1.428-0.518
			c-0.225-0.246-0.339-0.883-0.339-1.904V95.094C113.062,94.154,113.15,93.559,113.326,93.307z"/>
		<path fill="#2A3052" d="M69.912,129.294H69.46c-0.17,0.31-0.366,0.55-0.554,0.728c-0.177,0.17-0.406,0.311-0.668,0.404
			c-0.256,0.094-0.576,0.146-0.95,0.174c-0.374,0.029-0.834,0.037-1.383,0.037h-4.33c0.266-0.223,0.702-0.674,1.329-1.336
			c0.63-0.66,1.463-1.557,2.476-2.67c1.354-1.482,2.337-2.88,2.932-4.191c0.4-0.844,0.584-1.676,0.584-2.518
			c0-0.58-0.12-1.13-0.354-1.654c-0.244-0.523-0.573-0.986-0.984-1.387c-0.435-0.4-0.925-0.715-1.508-0.953
			c-0.581-0.234-1.198-0.35-1.869-0.35c-0.634,0-1.216,0.102-1.745,0.305c-0.531,0.202-0.999,0.504-1.403,0.898
			c-0.403,0.404-0.749,0.886-1.019,1.467c-0.264,0.582-0.461,1.246-0.553,2.008h0.449c0.151-0.471,0.353-0.869,0.6-1.229
			c0.241-0.348,0.522-0.643,0.828-0.875c0.317-0.236,0.66-0.412,1.03-0.529c0.368-0.123,0.758-0.176,1.166-0.176
			c0.442,0,0.864,0.088,1.26,0.262c0.396,0.182,0.75,0.43,1.044,0.75c0.295,0.316,0.536,0.7,0.706,1.143
			c0.176,0.443,0.267,0.924,0.267,1.443c0,1.379-0.581,2.9-1.764,4.557c-0.576,0.842-1.381,1.791-2.392,2.854
			c-1.013,1.066-2.228,2.252-3.676,3.574v0.451h9.768L69.912,129.294z"/>
		<path fill="#2A3052" d="M74.119,130.455c0.478,0.734,1.032,1.303,1.653,1.707c0.625,0.41,1.283,0.611,1.985,0.611
			c0.323,0,0.661-0.049,1.021-0.162c0.341-0.11,0.685-0.262,1.005-0.463c0.329-0.193,0.634-0.426,0.925-0.677
			c0.288-0.263,0.542-0.542,0.749-0.835c0.338-0.468,0.61-0.951,0.833-1.447c0.218-0.504,0.395-1.027,0.536-1.57
			c0.128-0.545,0.227-1.115,0.282-1.709c0.059-0.6,0.08-1.215,0.08-1.866c0-2.75-0.631-4.925-1.888-6.528
			c-1.018-1.291-2.157-1.938-3.416-1.938c-0.543,0-1.039,0.102-1.502,0.313c-0.458,0.213-0.877,0.498-1.258,0.852
			c-0.371,0.354-0.719,0.76-1.017,1.23c-0.299,0.459-0.558,0.943-0.773,1.449c-0.57,1.35-0.855,2.969-0.855,4.873
			c0,1.247,0.153,2.396,0.442,3.441C73.215,128.781,73.615,129.686,74.119,130.455z M74.953,122.479
			c0.047-0.711,0.137-1.434,0.237-2.165c0.174-1.247,0.507-2.214,0.982-2.899c0.464-0.689,1.033-1.031,1.694-1.031
			c0.58,0,1.055,0.197,1.413,0.592c0.374,0.393,0.679,0.998,0.937,1.801c0.386,1.262,0.585,2.84,0.585,4.729
			c0,1.285-0.05,2.416-0.14,3.395c-0.095,0.978-0.233,1.824-0.417,2.527c-0.131,0.471-0.286,0.859-0.472,1.189
			c-0.181,0.326-0.394,0.594-0.61,0.797c-0.213,0.211-0.448,0.361-0.683,0.455c-0.235,0.092-0.47,0.141-0.682,0.141
			c-0.527,0-0.981-0.214-1.359-0.632c-0.376-0.421-0.684-0.985-0.909-1.717c-0.226-0.673-0.392-1.435-0.493-2.292
			c-0.106-0.867-0.159-1.787-0.159-2.77C74.877,123.895,74.9,123.186,74.953,122.479z"/>
		<path fill="#2A3052" d="M89.932,131.359c-0.049,0.1-0.092,0.188-0.163,0.271c-0.06,0.078-0.169,0.145-0.308,0.209
			c-0.141,0.051-0.326,0.099-0.566,0.135c-0.234,0.025-0.555,0.047-0.953,0.055v0.451h6.227v-0.451
			c-0.732-0.008-1.232-0.074-1.492-0.207c-0.115-0.057-0.225-0.121-0.3-0.182c-0.087-0.068-0.142-0.169-0.188-0.32
			c-0.041-0.146-0.068-0.352-0.084-0.627c-0.022-0.273-0.027-0.651-0.027-1.13v-13.985h-0.4l-4.027,1.965l0.18,0.376
			c0.528-0.253,0.949-0.376,1.263-0.376c0.206,0,0.384,0.057,0.53,0.182c0.147,0.123,0.26,0.314,0.322,0.578
			c0.076,0.322,0.121,1.098,0.121,2.314v8.946C90.064,130.541,90.02,131.137,89.932,131.359z"/>
		<path fill="#2A3052" d="M102.061,128.455c-1.012,1.066-2.236,2.252-3.668,3.574v0.451h9.762l1.167-3.187h-0.452
			c-0.182,0.31-0.366,0.55-0.546,0.728c-0.191,0.17-0.421,0.311-0.677,0.404c-0.264,0.094-0.581,0.146-0.949,0.174
			c-0.383,0.029-0.841,0.037-1.383,0.037h-4.328c0.257-0.223,0.693-0.674,1.322-1.336c0.636-0.66,1.463-1.557,2.479-2.67
			c1.354-1.482,2.332-2.88,2.929-4.191c0.389-0.844,0.588-1.676,0.588-2.518c0-0.58-0.123-1.13-0.363-1.654
			c-0.236-0.523-0.559-0.986-0.984-1.387s-0.918-0.715-1.5-0.953c-0.58-0.234-1.202-0.35-1.869-0.35
			c-0.635,0-1.217,0.102-1.753,0.305c-0.521,0.202-0.992,0.504-1.392,0.898c-0.412,0.404-0.748,0.886-1.023,1.467
			c-0.258,0.582-0.456,1.246-0.556,2.008h0.448c0.158-0.471,0.355-0.869,0.602-1.229c0.246-0.348,0.521-0.643,0.832-0.875
			c0.313-0.236,0.661-0.412,1.031-0.529c0.367-0.123,0.758-0.176,1.158-0.176c0.447,0,0.865,0.088,1.259,0.262
			c0.405,0.182,0.752,0.43,1.049,0.75c0.299,0.316,0.536,0.7,0.705,1.143c0.182,0.443,0.265,0.924,0.265,1.443
			c0,1.379-0.586,2.9-1.756,4.557C103.871,126.443,103.071,127.393,102.061,128.455z"/>
		<path fill="#2A3052" d="M18.868,139.057c12.904,16.313,31.108,12.334,31.108,12.334C45.424,145.697,18.868,139.057,18.868,139.057
			z"/>
		<path fill="#2A3052" d="M51.495,148.547c-0.568-12.52-16.122-25.797-16.122-25.797C39.171,143.611,51.495,148.547,51.495,148.547z
			"/>
		<path fill="#2A3052" d="M7.59,114.689c8.062,22.287,25.604,25.318,25.604,25.318C33.384,135.648,7.59,114.689,7.59,114.689z"/>
		<path fill="#2A3052" d="M26.079,109.189c-0.664,14.51,9.394,29.867,9.394,29.867C36.608,127.203,26.079,109.189,26.079,109.189z"
			/>
		<path fill="#2A3052" d="M18.494,117.912C15.271,102.93,0.571,91.557,0.571,91.557C3.988,107.576,18.494,117.912,18.494,117.912z"
			/>
		<path fill="#2A3052" d="M20.199,87.375c-5.022,16.506,0,29.305,0,29.305C24.752,103.309,20.199,87.375,20.199,87.375z"/>
		<path fill="#2A3052" d="M12.997,95.057c5.871-7.393,6.257-24.277,6.257-24.277C6.453,88.042,12.997,95.057,12.997,95.057z"/>
		<path fill="#2A3052" d="M10.151,94.301C9.871,83.873,0,64.719,0,64.719C-0.091,87.375,10.151,94.301,10.151,94.301z"/>
		<path fill="#2A3052" d="M10.909,72.584c11.57-10.055,14.506-22.758,14.506-22.758C9.299,62.913,10.909,72.584,10.909,72.584z"/>
		<path fill="#2A3052" d="M10.062,40.249C0.19,59.5,8.823,72.681,8.823,72.681C14.229,60.732,10.062,40.249,10.062,40.249z"/>
		<path fill="#2A3052" d="M16.98,51.816c9.291-1.608,14.506-15.458,14.506-15.458C13.184,47.457,16.98,51.816,16.98,51.816z"/>
		<path fill="#2A3052" d="M20.49,26.785c-11.289,9.765-6.169,23.132-6.169,23.132C19.254,38.732,20.49,26.785,20.49,26.785z"/>
		<path fill="#2A3052" d="M25.608,34.084c8.252,1.135,14.608-9.672,14.608-9.672C25.323,30.288,25.608,34.084,25.608,34.084z"/>
		<path fill="#2A3052" d="M34.144,14.741c-11.851,4.931-10.435,17.354-10.435,17.354C25.231,31.333,34.144,14.741,34.144,14.741z"/>
		<path fill="#2A3052" d="M41.354,12.56c0,0,2.128-2.704,3.458-3.604c0,0-8.774,0.333-10.862,11.76
			C33.95,20.716,37.175,18.629,41.354,12.56z"/>
		<path fill="#2A3052" d="M34.763,23.369c6.825,2.226,13.601-5.737,13.601-5.737C35.043,20.144,34.763,23.369,34.763,23.369z"/>
		<path fill="#2A3052" d="M49.792,9.715c0.707-0.854,4.023-4.08,4.023-4.08c-7.153,0.854-8.813,7.731-8.813,7.731
			C46.617,14.028,49.073,10.565,49.792,9.715z"/>
		<path fill="#2A3052" d="M45.571,15.354c2.465,2.751,10.808-2.701,10.808-2.701C48.274,12.465,45.571,15.354,45.571,15.354z"/>
		<path fill="#2A3052" d="M54.674,9.052c4.318-2.374,8.441-5.834,8.441-5.834C56.287,3.594,54.674,9.052,54.674,9.052z"/>
		<path fill="#2A3052" d="M63.727,9.289c-8.862-1-9.053,1.559-9.053,1.559C62.313,11.989,63.727,9.289,63.727,9.289z"/>
		<path fill="#2A3052" d="M63.35,5.827c0.899,0.234,8.108-4.368,8.108-4.368C66.53,0.609,63.35,5.827,63.35,5.827z"/>
		<path fill="#2A3052" d="M71.509,7.012c-7.111-1.61-8.255,0.374-8.255,0.374C68.425,9.239,71.509,7.012,71.509,7.012z"/>
		<path fill="#2A3052" d="M71.978,3.457c3.794-0.81,6.878-2.946,6.878-2.946C74.495-0.198,71.978,3.457,71.978,3.457z"/>
		<path fill="#2A3052" d="M78.477,5.163c-5.456-2.134-6.5-0.38-6.5-0.38C75.438,6.632,78.477,5.163,78.477,5.163z"/>
		<path fill="#2A3052" d="M75.821,3.551c6.209-0.094,6.831-1.137,6.831-1.137C78.05,1.035,75.821,3.551,75.821,3.551z"/>
		<path fill="#2A3052" d="M118.023,151.391c0,0,18.201,3.979,31.106-12.334C149.13,139.057,122.572,145.697,118.023,151.391z"/>
		<path fill="#2A3052" d="M132.627,122.75c0,0-15.553,13.277-16.123,25.797C116.504,148.547,128.827,143.611,132.627,122.75z"/>
		<path fill="#2A3052" d="M134.805,140.008c0,0,17.541-3.031,25.602-25.318C160.406,114.689,134.611,135.648,134.805,140.008z"/>
		<path fill="#2A3052" d="M132.525,139.057c0,0,10.057-15.357,9.393-29.867C141.918,109.189,131.395,127.203,132.525,139.057z"/>
		<path fill="#2A3052" d="M149.504,117.912c0,0,14.508-10.336,17.922-26.355C167.426,91.557,152.727,102.93,149.504,117.912z"/>
		<path fill="#2A3052" d="M147.801,116.68c0,0,5.014-12.799,0-29.305C147.801,87.375,143.246,103.309,147.801,116.68z"/>
		<path fill="#2A3052" d="M148.742,70.779c0,0,0.388,16.885,6.259,24.277C155.001,95.057,161.543,88.042,148.742,70.779z"/>
		<path fill="#2A3052" d="M168,64.719c0,0-9.867,19.154-10.158,29.582C157.842,94.301,168.088,87.375,168,64.719z"/>
		<path fill="#2A3052" d="M142.582,49.826c0,0,2.936,12.703,14.508,22.758C157.09,72.584,158.7,62.913,142.582,49.826z"/>
		<path fill="#2A3052" d="M157.938,40.249c0,0-4.171,20.483,1.24,32.432C159.178,72.681,167.805,59.5,157.938,40.249z"/>
		<path fill="#2A3052" d="M151.02,51.816c0,0,3.792-4.359-14.508-15.458C136.512,36.358,141.725,50.208,151.02,51.816z"/>
		<path fill="#2A3052" d="M147.507,26.785c0,0,1.235,11.947,6.169,23.132C153.676,49.917,158.797,36.55,147.507,26.785z"/>
		<path fill="#2A3052" d="M142.391,34.084c0,0,0.287-3.796-14.609-9.672C127.781,24.412,134.137,35.219,142.391,34.084z"/>
		<path fill="#2A3052" d="M144.288,32.095c0,0,1.419-12.423-10.437-17.354C133.852,14.741,142.771,31.333,144.288,32.095z"/>
		<path fill="#2A3052" d="M126.643,12.56c4.183,6.07,7.406,8.156,7.406,8.156c-2.09-11.427-10.861-11.76-10.861-11.76
			C124.517,9.855,126.643,12.56,126.643,12.56z"/>
		<path fill="#2A3052" d="M133.242,23.369c0,0-0.285-3.226-13.608-5.737C119.634,17.632,126.41,25.595,133.242,23.369z"/>
		<path fill="#2A3052" d="M118.205,9.715c0.717,0.851,3.178,4.313,4.793,3.651c0,0-1.662-6.877-8.814-7.731
			C114.184,5.635,117.496,8.86,118.205,9.715z"/>
		<path fill="#2A3052" d="M122.43,15.354c0,0-2.707-2.89-10.813-2.701C111.617,12.653,119.967,18.105,122.43,15.354z"/>
		<path fill="#2A3052" d="M104.885,3.218c0,0,4.123,3.46,8.438,5.834C113.323,9.052,111.71,3.594,104.885,3.218z"/>
		<path fill="#2A3052" d="M104.27,9.289c0,0,1.422,2.7,9.054,1.559C113.323,10.848,113.133,8.289,104.27,9.289z"/>
		<path fill="#2A3052" d="M96.539,1.459c0,0,7.207,4.602,8.113,4.368C104.652,5.827,101.473,0.609,96.539,1.459z"/>
		<path fill="#2A3052" d="M104.742,7.386c0,0-1.138-1.984-8.25-0.374C96.492,7.012,99.573,9.239,104.742,7.386z"/>
		<path fill="#2A3052" d="M89.143,0.511c0,0,3.08,2.137,6.871,2.946C96.014,3.457,93.504-0.198,89.143,0.511z"/>
		<path fill="#2A3052" d="M96.014,4.783c0,0-1.04-1.754-6.488,0.38C89.525,5.163,92.561,6.632,96.014,4.783z"/>
		<path fill="#2A3052" d="M92.176,3.551c0,0-2.228-2.516-6.826-1.137C85.35,2.414,85.963,3.457,92.176,3.551z"/>
		<polygon fill="#2A3052" points="88.52,150.23 93.234,150.23 90.908,144.525 		"/>
		<path fill="#2A3052" d="M79.706,147.785c0.248-0.115,0.47-0.256,0.66-0.43c0.19-0.172,0.357-0.363,0.492-0.58
			c0.119-0.219,0.219-0.451,0.285-0.699c0.067-0.25,0.099-0.514,0.099-0.779c0-0.406-0.084-0.791-0.245-1.154
			c-0.167-0.363-0.417-0.683-0.738-0.949c-0.322-0.271-0.722-0.486-1.202-0.645c-0.474-0.162-1.03-0.24-1.661-0.24
			c-0.688,0-1.287,0.072-1.816,0.232v5.424c0.507,0.094,1.142,0.148,1.906,0.148C78.479,148.113,79.222,148,79.706,147.785z"/>
		<path fill="#2A3052" d="M80.597,149.756c-0.351-0.285-0.795-0.512-1.332-0.682c-0.535-0.164-1.17-0.242-1.898-0.242
			c-0.421,0-0.786,0.003-1.078,0.014c-0.291,0.014-0.525,0.041-0.709,0.074v5.792c0.766,0.185,1.546,0.282,2.308,0.282
			c0.617,0,1.162-0.08,1.632-0.229c0.47-0.156,0.856-0.361,1.178-0.638c0.318-0.261,0.548-0.579,0.713-0.929
			c0.156-0.355,0.24-0.742,0.24-1.157c0-0.446-0.087-0.874-0.264-1.261C81.216,150.389,80.958,150.045,80.597,149.756z"/>
		<path fill="#2A3052" d="M115.412,141.053c0,0-6.074-0.281-5.596-5.217c0,0-22.665,3.131-52.821-0.096c0,0,2.37,3.797-5.401,5.313
			c0,0,10.432,7.588-0.196,15.645c0,0,7.593,0.475,5.219,5.883c0,0,25.892-4.176,54.143-0.666c0,0-1.422-4.646,4.652-5.027
			C115.412,156.887,105.262,150.344,115.412,141.053z M71.139,148.422h-0.26c-0.224,0-0.426,0.021-0.589,0.079
			c-0.163,0.05-0.297,0.155-0.396,0.3c-0.112,0.141-0.179,0.346-0.227,0.623c-0.047,0.268-0.074,0.621-0.074,1.061v4.318
			c-0.399,0.227-0.797,0.416-1.169,0.566c-0.383,0.164-0.77,0.291-1.157,0.393c-0.382,0.096-0.78,0.178-1.187,0.219
			c-0.413,0.051-0.844,0.078-1.309,0.078c-2.648,0-4.661-0.875-6.035-2.629c-1.036-1.305-1.548-2.822-1.548-4.539
			c0-0.484,0.047-0.961,0.141-1.443c0.094-0.482,0.227-0.955,0.399-1.414c0.178-0.455,0.396-0.895,0.648-1.314
			c0.26-0.422,0.55-0.809,0.86-1.166c0.682-0.77,1.446-1.348,2.317-1.718c0.866-0.362,1.826-0.552,2.903-0.552
			c0.312,0,0.584,0.016,0.83,0.039c0.231,0.023,0.465,0.061,0.687,0.115c0.222,0.051,0.452,0.121,0.701,0.205
			c0.243,0.084,0.541,0.192,0.882,0.322c0.363,0.145,0.619,0.215,0.754,0.215c0.126,0,0.23-0.061,0.327-0.186
			c0.084-0.113,0.143-0.355,0.164-0.711h0.375l0.353,4.459h-0.353c-0.351-1.1-0.815-1.941-1.383-2.512
			c-0.829-0.811-1.877-1.217-3.15-1.217c-1.741,0-3.08,0.715-3.99,2.133c-0.758,1.207-1.142,2.637-1.142,4.297
			c0,1.346,0.258,2.574,0.76,3.685c0.224,0.495,0.494,0.937,0.802,1.335c0.312,0.393,0.655,0.73,1.04,1.008
			c0.386,0.279,0.794,0.492,1.249,0.646c0.452,0.156,0.926,0.227,1.421,0.227c0.513,0,0.994-0.063,1.466-0.193
			c0.469-0.137,0.93-0.326,1.372-0.584v-4.082c0-0.365-0.01-0.654-0.039-0.875c-0.021-0.213-0.066-0.389-0.117-0.518
			c-0.058-0.139-0.125-0.234-0.206-0.307c-0.081-0.063-0.185-0.129-0.287-0.186c-0.214-0.115-0.595-0.178-1.158-0.178v-0.396h5.323
			V148.422z M83.831,152.906c-0.118,0.345-0.269,0.666-0.486,0.97c-0.203,0.302-0.464,0.579-0.767,0.821
			c-0.29,0.246-0.631,0.445-1.012,0.6c-0.747,0.289-1.889,0.439-3.442,0.439h-6.478v-0.393h0.517c0.563,0,0.983-0.184,1.24-0.555
			c0.151-0.242,0.232-0.766,0.232-1.555v-9.125c0-0.867-0.104-1.421-0.3-1.654c-0.256-0.311-0.654-0.461-1.171-0.461h-0.517v-0.385
			h5.938c1.103,0,1.99,0.08,2.66,0.248c0.505,0.127,0.951,0.309,1.338,0.533c0.388,0.229,0.716,0.496,0.976,0.803
			c0.263,0.305,0.464,0.644,0.596,1.012c0.138,0.375,0.206,0.764,0.206,1.173c0,0.709-0.206,1.343-0.627,1.899
			c-0.413,0.564-1.04,0.979-1.849,1.246c0.558,0.133,1.024,0.297,1.436,0.51c0.386,0.218,0.71,0.468,0.964,0.762
			c0.245,0.291,0.427,0.617,0.548,0.965c0.113,0.354,0.168,0.721,0.168,1.105C84,152.217,83.944,152.555,83.831,152.906z
			 M98.768,155.736h-5.404v-0.393c0.259-0.009,0.488-0.041,0.676-0.088c0.178-0.047,0.321-0.113,0.43-0.191
			c0.096-0.076,0.17-0.166,0.225-0.262c0.035-0.091,0.061-0.201,0.061-0.316c0.006-0.162-0.025-0.358-0.104-0.59
			c-0.059-0.244-0.166-0.525-0.302-0.859l-0.835-2.031h-5.316l-0.928,2.229c-0.226,0.543-0.34,0.947-0.34,1.23
			c0,0.111,0.018,0.211,0.051,0.307c0.037,0.092,0.116,0.176,0.242,0.258c0.109,0.08,0.263,0.148,0.474,0.197
			c0.214,0.055,0.483,0.096,0.823,0.117v0.393h-4.323v-0.393c0.569-0.102,0.937-0.234,1.106-0.4c0.18-0.164,0.359-0.422,0.547-0.758
			c0.189-0.338,0.391-0.764,0.604-1.273l4.832-11.629h0.358l4.771,11.754c0.199,0.484,0.373,0.875,0.545,1.17
			c0.16,0.294,0.334,0.523,0.504,0.689c0.177,0.16,0.371,0.271,0.578,0.338c0.201,0.063,0.448,0.101,0.727,0.109V155.736z
			 M110.248,144.717h-0.224c-0.136-0.512-0.283-0.916-0.448-1.225c-0.172-0.304-0.371-0.539-0.605-0.705
			c-0.243-0.168-0.526-0.275-0.852-0.33c-0.32-0.049-0.7-0.076-1.154-0.076h-3.027v5.549h2.509c0.284,0,0.538-0.029,0.749-0.084
			c0.199-0.055,0.367-0.15,0.51-0.299c0.146-0.148,0.252-0.342,0.342-0.6c0.072-0.246,0.144-0.564,0.188-0.953h0.373v4.781h-0.373
			c0-0.352-0.037-0.656-0.103-0.908c-0.059-0.248-0.165-0.457-0.293-0.615c-0.134-0.158-0.313-0.277-0.548-0.352
			c-0.221-0.068-0.506-0.1-0.845-0.1h-2.509v4.434c0,0.332,0.012,0.6,0.021,0.807c0.01,0.213,0.039,0.383,0.076,0.514
			c0.041,0.137,0.096,0.236,0.169,0.321c0.079,0.075,0.175,0.153,0.303,0.22c0.281,0.168,0.595,0.248,0.919,0.248h0.51v0.393h-5.904
			v-0.393h0.483c0.579,0,0.986-0.166,1.241-0.51c0.169-0.209,0.24-0.749,0.24-1.6v-9.125c0-0.332-0.01-0.605-0.014-0.816
			c-0.018-0.211-0.042-0.381-0.075-0.51c-0.042-0.137-0.092-0.242-0.163-0.322c-0.08-0.074-0.177-0.152-0.291-0.221
			c-0.298-0.164-0.61-0.246-0.938-0.246h-0.483v-0.385h10.217V144.717z"/>
	</g>
</g>
</svg>
