<svg xmlns="http://www.w3.org/2000/svg" xmlns:xlink="http://www.w3.org/1999/xlink" width="140" height="140" viewBox="0 0 140 140"><path fill="#F3F3F3" d="M1 1h138v138h-138z"/><path fill="#CDCCCC" d="M138 2v136h-136v-136h136m2-2h-140v140h140v-140z"/><path fill="#fff" d="M52.39 32.876c-1.378 0-2.5-1.122-2.5-2.5v-22.267c0-1.378 1.122-2.5 2.5-2.5h36.006c1.379 0 2.5 1.122 2.5 2.5v22.267c0 1.378-1.121 2.5-2.5 2.5h-36.006z"/><path fill="#CDCCCC" d="M88.396 6.109c1.103 0 2 .897 2 2v22.267c0 1.103-.897 2-2 2h-36.006c-1.103 0-2-.897-2-2v-22.267c0-1.103.897-2 2-2h36.006m0-1h-36.006c-1.65 0-3 1.35-3 3v22.267c0 1.65 1.35 3 3 3h36.006c1.65 0 3-1.35 3-3v-22.267c0-1.65-1.35-3-3-3z"/><g fill-rule="evenodd" clip-rule="evenodd"><path fill="#F78F20" d="M75.076 18.271c-.121-.558-.379-.978-.74-1.294-.125-.131-.275-.225-.447-.324l-.262-.123c-.188-.072-.434-.155-.739-.124.153-.077.382-.081.616-.077.195.021.357.075.523.124l.416.231c.338-1.009.209-2.391-.168-3.281-.366-.934-.896-1.703-1.588-2.311-.68-.621-1.494-1.104-2.572-1.325-.534-.117-1.205-.098-1.695.015-.512.134-.938.356-1.31.631-.346.307-.681.623-.909 1.047l-.185.309-.154.338c-.08.244-.17.477-.216.755-.123.505-.146 1.197-.061 1.741.063.584.234 1.06.416 1.524.111.217.214.443.338.647.118.206.264.384.401.571.311.336.644.65 1.031.909.787.513 1.69.908 2.927.97.025-.05-.033-.151-.045-.215l-.047-.23c-.018-.167-.023-.36 0-.524l.077.107.077.093.139.216c.115.12.207.266.355.354.117.12.273.198.414.293.153.079.285.179.463.231.307.161.717.218 1.125.277.412.056.809.126 1.186.215.348.12.703.232.986.416.15.086.298.175.432.278l.2.153.2.139c.239.228.476.459.679.724.083.152.198.274.262.447l.123.231c.003.087.088.193.015.261-.113.018-.091-.103-.138-.153l-.108-.185c-.181-.189-.342-.398-.539-.57-.195-.169-.387-.343-.616-.478-.431-.304-.93-.539-1.511-.693-.571-.166-1.213-.232-1.956-.185-.326.043-.638.103-.909.2-.291.073-.617.112-.939.154-1.261.078-2.665-.223-3.605-.678-.501-.232-.963-.505-1.355-.848-.215-.155-.39-.35-.569-.539-.165-.2-.339-.392-.463-.632-.164-.205-.263-.477-.4-.708-.09-.274-.218-.511-.277-.816-.095-.275-.152-.587-.185-.925l-.047-.416.016-.046c-.007-.131-.038-.333 0-.447-.007-.306.049-.681.108-.971.055-.309.137-.592.23-.863.092-.278.214-.526.323-.786l.201-.354.2-.339.123-.154.107-.169.123-.155.124-.154c.183-.181.348-.381.539-.554l.601-.509.339-.215.324-.216c.257-.112.476-.264.755-.354.24-.125.528-.201.801-.293.592-.151 1.188-.256 1.926-.23h.046c1.396.042 2.414.462 3.281 1.032.861.573 1.526 1.34 2.004 2.296.466.947.729 2.234.508 3.589-.11.609-.289 1.149-.508 1.649-.127.234-.238.48-.386.693-.064.115-.134.227-.216.324l-.107.154-.063.077-.03.031-.015.017M74.706 18.671c-.181-.071-.212-.293-.293-.462-.015-.063-.027-.156 0-.216l.03-.015.154.031c.088.102.145.235.186.385.002.122.012.249-.077.277M73.35 18.41h.016c.273.035.398.217.416.508-.023.16-.114.255-.262.292-.367.006-.577-.333-.447-.678.073-.059.125-.141.277-.122"/><path fill="#0769B3" d="M65.954 28.67c.045.187.141.323.247.447.106.125.232.229.386.308.142.089.298.164.478.215l.277.078c.073.04.165.062.169.169-.003.129-.09.177-.2.2-.11-.023-.247-.02-.339-.062-.234-.027-.421-.102-.616-.169-.376-.147-.69-.357-.955-.617l-.185-.246-.154-.277c-.458-.06-.771-.267-1.048-.508-.254-.29-.455-.634-.539-1.094-.098-.442-.067-.992.046-1.418.252-.826.784-1.373 1.787-1.448.277.009.518.042.739.124.223.08.435.229.602.385l.03.031.17.185.016.046.061.062.017.045.046.077.03.03.063.17.077.17c.059.177.097.383.123.6.06.621-.063 1.174-.293 1.587-.108.215-.257.39-.431.539-.164.162-.387.264-.604.371m-.738-3.882c-.135.009-.215.073-.324.108l-.216.2-.184.23c-.061.15-.118.316-.155.509-.035.19-.06.405-.062.617-.003.529.11 1.057.324 1.371.123.153.275.279.462.37l.308.046.217-.046.2-.062.153-.107.169-.186.093-.138c.269-.513.299-1.454.123-2.049-.064-.219-.158-.395-.262-.54-.113-.117-.247-.215-.4-.293-.123-.024-.238-.058-.4-.045l-.016.015h-.03zM68.467 24.356c.241.01.522-.02.739.016.049.076.029.163.031.246.017 1.13 0 2.342 0 3.497v.278c-.003.076.017.16-.031.231-.108.026-.262.015-.4.015-.146 0-.289.02-.386-.031-.025-1.366-.025-2.84 0-4.206l.047-.046M70.314 24.356h.725c.064.089.085.223.107.354.218.83.434 1.662.632 2.511l.046-.077.031-.092.047-.185.123-.354.215-.725c.068-.251.16-.477.217-.739.102-.212.125-.5.246-.694h.309c.11.208.15.487.246.709l.215.724c.152.479.31.955.447 1.448.062-.093.063-.247.107-.354l.093-.354c.119-.488.231-.981.37-1.448.053-.246.102-.494.185-.708.179-.026.454-.026.632 0 .016.181-.07.376-.123.539l-.139.54-.309 1.063-.293 1.079-.153.538c-.061.166-.081.373-.17.509h-.431c-.11-.193-.149-.457-.247-.663-.214-.679-.454-1.333-.663-2.018-.072.076-.07.227-.123.323l-.107.339-.2.678c-.085.212-.149.446-.216.678-.091.202-.123.462-.23.647-.115.034-.292.005-.432.015-.108-.123-.119-.344-.186-.509-.052-.173-.088-.363-.153-.523l-.294-1.079c-.111-.345-.206-.707-.307-1.063l-.154-.524c-.025-.186-.15-.352-.108-.554l.045-.031M76.4 24.356c.242.01.523-.02.74.016.053.162.03.333.03.507v3.236c0 .175.022.346-.03.509-.167.02-.412.025-.617.015-.059-.002-.131.014-.17-.031-.053-.161-.029-.333-.029-.508v-3.205c0-.194-.019-.38.029-.508l.047-.031"/></g><path fill="#fff" d="M9.144 49.459c-1.378 0-2.5-1.122-2.5-2.5v-22.266c0-1.378 1.122-2.5 2.5-2.5h36.006c1.378 0 2.5 1.122 2.5 2.5v22.266c0 1.378-1.122 2.5-2.5 2.5h-36.006z"/><path fill="#CDCCCC" d="M45.149 22.693c1.103 0 2 .897 2 2v22.266c0 1.103-.897 2-2 2h-36.005c-1.103 0-2-.897-2-2v-22.266c0-1.103.897-2 2-2h36.005m0-1h-36.005c-1.65 0-3 1.35-3 3v22.266c0 1.65 1.35 3 3 3h36.006c1.65 0 3-1.35 3-3v-22.266c-.001-1.65-1.351-3-3.001-3z"/><g fill-rule="evenodd" clip-rule="evenodd"><path d="M12.841 35.45l.361-2.626.368 2.626h1.769l.858-4.054h-1.384l-.379 2.563-.379-2.563h-1.688l-.379 2.495-.374-2.495h-1.441l.87 4.054h1.798zM16.892 35.45h3.52v-1.055h-1.773v-.479h1.673v-1.043h-1.673v-.435h1.715v-1.042h-3.462v4.054zM21.17 34.147l-.007.147c0 .771.7 1.224 2.021 1.224 1.302 0 2.012-.465 2.012-1.322 0-.738-.416-.958-1.452-1.307-.554-.186-.875-.176-.875-.458 0-.152.098-.263.328-.263.274 0 .407.182.395.447h1.496v-.171c0-.716-.648-1.148-1.844-1.148-1.313 0-2.011.511-2.011 1.306 0 .569.353.899 1.079 1.107.531.152.837.278 1.068.38.122.055.162.175.146.289-.023.158-.119.255-.358.255-.294 0-.377-.176-.377-.453v-.034h-1.621v.001zM29.489 31.396h-3.855v1.083h1.074v2.971h1.715v-2.971h1.066v-1.083zM30.228 35.45h3.519v-1.055h-1.772v-.479h1.656v-1.043h-1.656v-.435h1.714v-1.042h-3.461v4.054zM34.821 35.45h1.687v-1.445l.155-.005c.405 0 .466.147.53.587l.043.299c.024.18.075.366.131.564h1.712c-.074-.299-.131-.542-.155-.722l-.057-.434c-.075-.587-.299-.807-.753-.898.463-.113.81-.462.81-.949 0-.811-.511-1.051-1.744-1.051h-2.358v4.054h-.001zm1.687-2.44v-.707l.193-.006c.38 0 .548.093.548.344 0 .258-.212.374-.617.374l-.124-.005zM41.253 33.137l.904 2.313h1.962v-4.054h-1.325v2.063l-.75-2.063h-2.116v4.054h1.325v-2.313zM22.27 37.975l.904 2.312h1.962v-4.054h-1.325v2.064l-.749-2.064h-2.118v4.054h1.326v-2.312zM35.729 37.975l.903 2.312h1.963v-4.054h-1.325v2.064l-.749-2.064h-2.118v4.054h1.326v-2.312zM15.697 36.233v2.442c0 .467.031.834.392 1.183.373.362.913.498 1.684.498 1.417 0 2.083-.531 2.083-1.68v-2.442h-1.685v2.504c0 .332-.149.512-.398.512-.261 0-.397-.169-.397-.512v-2.504h-1.679v-.001zM27.966 36.233h-1.728v4.054h1.728v-4.054zM31.128 40.351c1.536 0 2.357-.743 2.357-2.12 0-1.353-.828-2.124-2.301-2.124-1.486 0-2.32.771-2.32 2.129 0 1.348.828 2.115 2.264 2.115zm.051-3.303c.397 0 .493.351.493 1.119 0 .856-.103 1.247-.5 1.247-.393 0-.493-.384-.493-1.164 0-.818.089-1.202.5-1.202z"/></g><path fill="#fff" d="M9.144 119.133c-1.378 0-2.5-1.121-2.5-2.5v-22.267c0-1.379 1.122-2.5 2.5-2.5h36.006c1.378 0 2.5 1.121 2.5 2.5v22.267c0 1.379-1.122 2.5-2.5 2.5h-36.006z"/><path fill="#CDCCCC" d="M45.149 92.366c1.103 0 2 .897 2 2v22.267c0 1.103-.897 2-2 2h-36.005c-1.103 0-2-.897-2-2v-22.267c0-1.103.897-2 2-2h36.005m0-1h-36.005c-1.65 0-3 1.35-3 3v22.267c0 1.65 1.35 3 3 3h36.006c1.65 0 3-1.35 3-3v-22.267c-.001-1.65-1.351-3-3.001-3z"/><g fill-rule="evenodd" clip-rule="evenodd"><path fill="#FCB131" d="M27.155 113.132c1.804 1.662 4.228 2.671 6.863 2.671 5.659 0 10.24-4.617 10.24-10.295 0-5.695-4.581-10.312-10.24-10.312-2.636 0-5.06 1.009-6.863 2.671-2.069 1.893-3.379 4.616-3.379 7.641s1.31 5.75 3.379 7.624zM42.897 111.238c0-.176.141-.318.318-.318.194 0 .336.143.336.318 0 .195-.142.338-.336.338-.177 0-.318-.142-.318-.338zm.319.266c.142 0 .265-.123.265-.266 0-.141-.123-.246-.265-.246-.124 0-.248.105-.248.246 0 .143.124.266.248.266zm-.035-.106h-.071v-.301h.123l.071.018.035.07-.053.072.071.141h-.089l-.036-.124h-.052v.124-.177h.07l.018-.036-.018-.035h-.07v.248h.001z"/><path fill="#ED1C2E" d="M30.463 104.412c-.035-.372-.106-.726-.177-1.097h-6.262c.071-.372.177-.726.283-1.079h5.678c-.124-.371-.266-.742-.425-1.097h-4.812c.178-.372.372-.743.584-1.097h3.626c-.229-.371-.495-.743-.778-1.08h-2.069c.318-.388.673-.76 1.044-1.096-1.822-1.646-4.228-2.671-6.881-2.671-5.642 0-10.241 4.616-10.241 10.312 0 5.678 4.6 10.295 10.241 10.295 2.653 0 5.059-1.009 6.881-2.671.371-.337.707-.69 1.025-1.079h-2.069c-.283-.354-.53-.708-.778-1.097h3.626c.229-.354.425-.708.602-1.097h-4.812c-.159-.354-.318-.708-.441-1.079h5.678c.124-.354.212-.725.301-1.097.07-.354.142-.725.177-1.096.035-.354.053-.709.053-1.08s-.019-.74-.054-1.094z"/><path fill="#fff" d="M42.897 107.896c0-.195.141-.336.318-.336.194 0 .336.141.336.336 0 .176-.142.335-.336.335-.177 0-.318-.159-.318-.335zm.319.249c.142 0 .265-.107.265-.248 0-.143-.123-.248-.265-.248-.124 0-.248.105-.248.248 0 .14.124.248.248.248zm-.035-.108h-.071v-.283h.194l.035.09-.053.07.071.123h-.089l-.036-.105h-.052v.105-.158h.035l.035-.019.018-.035-.018-.018h-.07v.22999999999999998h.001z"/><path fill="#003473" d="M23.671 108.48c-.336.087-.584.141-.831.141-.531 0-.85-.336-.85-.938l.035-.389.07-.407.054-.336.478-2.901h1.062l-.124.638h.672l-.159 1.062h-.673l-.282 1.732-.018.178c0 .229.106.318.371.318l.336-.035-.141.937zM27.102 108.445c-.389.105-.742.158-1.132.158-1.202 0-1.893-.637-1.893-1.893 0-1.468.814-2.529 1.946-2.529.901 0 1.485.602 1.485 1.539 0 .318-.035.619-.124 1.043h-2.211l-.018.143c0 .494.336.742.973.742.407 0 .761-.088 1.149-.265l-.175 1.062zm-.655-2.529v-.213c0-.354-.194-.549-.53-.549-.354 0-.602.266-.708.762h1.238zM15.181 108.532h-1.097l.637-4.014-1.433 4.014h-.761l-.089-3.997-.671 3.997h-1.079l.867-5.217h1.609l.035 3.219 1.079-3.219h1.769l-.866 5.217zM17.852 106.641l-.213-.018c-.637 0-.955.247-.955.637 0 .265.159.441.407.441.53 0 .742-.441.761-1.06zm.883 1.891h-.955l.019-.44c-.248.335-.585.512-1.168.512-.531 0-.99-.477-.99-1.168 0-.193.035-.371.088-.548.177-.654.832-1.062 1.84-1.079.123 0 .318 0 .495.018l.035-.282c0-.284-.229-.372-.743-.372-.317 0-.672.054-.92.143l-.158.035-.071.018.159-.955c.513-.16.885-.23 1.291-.23.955 0 1.469.442 1.469 1.256 0 .212.017.371-.053.832l-.248 1.52-.035.267-.019.212-.018.142-.018.119zM32.443 104.323c.319 0 .602.089.991.283l.193-1.132-.282-.106-.442-.124c-.141-.035-.318-.054-.513-.054-.548 0-.867.019-1.203.213-.176.124-.406.283-.653.565l-.143-.035-1.132.797.053-.442h-1.167l-.689 4.244h1.114l.407-2.281s.158-.318.229-.425c.212-.266.389-.266.619-.266h.088c-.035.248-.053.514-.053.814 0 1.379.778 2.246 1.981 2.246.3 0 .565-.035.973-.141l.193-1.203c-.353.194-.672.283-.937.283-.654 0-1.044-.496-1.044-1.273.002-1.149.586-1.963 1.417-1.963zM41.835 103.315l-.246 1.485c-.266-.406-.585-.602-1.009-.602-.584 0-1.133.336-1.468.973v-.018l-.708-.424.071-.442h-1.185l-.672 4.244h1.097l.371-2.281s.283-.318.354-.425c.177-.212.354-.248.496-.266-.124.355-.195.779-.195 1.256 0 1.063.549 1.77 1.362 1.77.407 0 .725-.141 1.025-.478l-.053.424h1.044l.849-5.217h-1.133v.001zm-1.361 4.209c-.371 0-.565-.282-.565-.831 0-.832.354-1.434.866-1.434.389 0 .584.301.584.832-.001.85-.355 1.433-.885 1.433zM35.362 106.641l-.212-.018c-.638 0-.956.247-.956.637 0 .265.159.441.407.441.531 0 .743-.441.761-1.06zm.885 1.891h-.974l.036-.44c-.248.335-.584.512-1.168.512-.548 0-1.026-.459-1.026-1.168 0-1.008.761-1.627 1.964-1.627.124 0 .318 0 .478.018l.053-.282c0-.284-.229-.372-.76-.372-.301 0-.673.054-.92.143l-.143.035-.069.018.158-.955c.514-.16.885-.23 1.292-.23.954 0 1.45.442 1.45 1.256 0 .212.035.371-.054.832l-.229 1.52-.035.267-.036.212-.017.142v.119zM21.053 105.189c.212 0 .513.018.831.07l.159-.989c-.318-.035-.742-.089-.99-.089-1.238 0-1.645.672-1.645 1.45 0 .513.229.884.831 1.168.442.212.513.247.513.442 0 .266-.229.424-.654.424-.336 0-.654-.053-1.009-.178l-.123.975.018.018.212.035.283.052.637.036c1.238 0 1.751-.477 1.751-1.415 0-.584-.283-.938-.831-1.185-.478-.213-.53-.248-.53-.443-.001-.193.211-.371.547-.371z"/><path fill="#fff" d="M33.93 103.139l-.195 1.132c-.389-.195-.672-.283-.99-.283-.831 0-1.415.813-1.415 1.964 0 .795.39 1.272 1.044 1.272.265 0 .583-.088.938-.265l-.195 1.186c-.406.105-.672.158-.973.158-1.202 0-1.945-.867-1.945-2.264 0-1.857 1.025-3.166 2.494-3.166.194 0 .371.018.513.053l.442.105.282.108zM30.356 103.916h-.106c-.371 0-.584.178-.919.69l.105-.655h-1.008l-.69 4.246h1.114c.407-2.601.513-3.043 1.044-3.043h.07c.106-.513.248-.884.425-1.221l-.035-.017zM23.953 108.145c-.301.105-.549.141-.795.141-.566 0-.885-.318-.885-.938l.035-.371.071-.425.053-.336.478-2.9h1.097l-.124.636h.566l-.142 1.044h-.566l-.301 1.769-.018.178c0 .212.106.301.371.301.124 0 .23 0 .302-.035l-.142.936zM19.69 105.295c0 .531.248.903.832 1.186.46.213.53.283.53.461 0 .266-.194.389-.637.389-.336 0-.637-.053-.99-.16l-.159.975.053.017.194.036c.07.018.16.034.301.034.248.036.46.036.602.036 1.167 0 1.716-.442 1.716-1.415 0-.583-.23-.92-.778-1.185-.478-.213-.53-.266-.53-.461 0-.229.194-.336.548-.336.212 0 .513.018.796.054l.159-.974c-.283-.053-.725-.088-.973-.088-1.239-.001-1.68.654-1.664 1.431zM42.401 108.197h-1.043l.053-.408c-.301.319-.619.461-1.026.461-.813 0-1.344-.689-1.344-1.752 0-1.414.832-2.617 1.805-2.617.442 0 .76.194 1.061.584l.248-1.486h1.097l-.851 5.218zm-1.627-.99c.514 0 .867-.603.867-1.434 0-.548-.195-.831-.585-.831-.494 0-.866.583-.866 1.414 0 .568.195.851.584.851zM27.35 108.108c-.39.123-.743.177-1.149.177-1.239 0-1.875-.654-1.875-1.91 0-1.45.813-2.529 1.928-2.529.92 0 1.504.602 1.504 1.539 0 .318-.035.619-.142 1.061h-2.193l-.019.123c0 .496.336.744.974.744.407 0 .76-.07 1.149-.266l-.177 1.061zm-.62-2.53v-.211c0-.354-.194-.549-.53-.549-.354 0-.602.266-.708.76h1.238zM15.464 108.197h-1.097l.637-4.015-1.434 4.015h-.759l-.089-3.98-.672 3.98h-1.027l.868-5.218h1.591l.053 3.237 1.062-3.237h1.733l-.866 5.218zM18.205 106.304l-.248-.017c-.618 0-.938.229-.938.654 0 .266.142.424.39.424.46 0 .779-.424.796-1.061zm.814 1.893h-.92l.019-.443c-.284.354-.655.514-1.168.514-.602 0-1.008-.46-1.008-1.15 0-1.043.707-1.645 1.945-1.645l.46.035.035-.265c0-.283-.194-.39-.707-.39-.319 0-.673.035-.92.106l-.159.054-.106.018.159-.956c.549-.159.92-.212 1.327-.212.955 0 1.468.425 1.468 1.238 0 .213-.018.371-.089.85l-.247 1.502-.035.267-.019.212-.018.16-.017.105zM35.717 106.304l-.248-.017c-.637 0-.956.229-.956.654 0 .266.159.424.407.424.442 0 .778-.424.797-1.061zm.812 1.893h-.92l.018-.443c-.283.354-.654.514-1.167.514-.602 0-1.009-.46-1.009-1.15 0-1.043.709-1.645 1.946-1.645l.442.035.053-.265c0-.283-.194-.39-.708-.39-.317 0-.688.035-.937.106l-.142.054-.105.018.16-.956c.547-.159.919-.212 1.325-.212.955 0 1.45.425 1.45 1.238 0 .213 0 .371-.088.85l-.229 1.502-.036.267-.034.212-.019.16v.105zM39.5 103.916h-.105c-.371 0-.583.178-.919.69l.106-.655h-1.009l-.673 4.246h1.097c.407-2.601.514-3.043 1.044-3.043h.071c.105-.513.247-.884.424-1.221l-.036-.017z"/></g><path fill="#fff" d="M52.39 101.215c-1.378 0-2.5-1.121-2.5-2.5v-22.266c0-1.379 1.122-2.5 2.5-2.5h36.007c1.379 0 2.5 1.121 2.5 2.5v22.266c0 1.379-1.121 2.5-2.5 2.5h-36.007z"/><path fill="#CDCCCC" d="M88.396 74.449c1.103 0 2 .897 2 2v22.266c0 1.103-.897 2-2 2h-36.006c-1.103 0-2-.897-2-2v-22.266c0-1.103.897-2 2-2h36.006m0-1h-36.006c-1.65 0-3 1.35-3 3v22.266c0 1.65 1.35 3 3 3h36.007c1.65 0 3-1.35 3-3v-22.266c-.001-1.65-1.35-3-3.001-3z"/><path fill="#E31837" d="M61.18 78.107h7.561c1.056 0 1.712.859 1.466 1.919l-3.52 15.114c-.249 1.055-1.306 1.916-2.362 1.916h-7.561c-1.054 0-1.712-.861-1.465-1.916l3.521-15.114c.246-1.059 1.303-1.919 2.36-1.919z"/><path fill="#00447C" d="M68.111 78.107h8.695c1.055 0 .579.859.33 1.919l-3.519 15.114c-.247 1.055-.17 1.916-1.228 1.916h-8.695c-1.058 0-1.712-.861-1.464-1.916l3.521-15.114c.25-1.059 1.304-1.919 2.36-1.919z"/><path fill="#007B85" d="M76.461 78.107h7.563c1.057 0 1.713.859 1.465 1.919l-3.52 15.114c-.249 1.055-1.307 1.916-2.363 1.916h-7.558c-1.058 0-1.714-.861-1.466-1.916l3.52-15.114c.247-1.059 1.302-1.919 2.359-1.919z"/><path fill-rule="evenodd" clip-rule="evenodd" fill="#fff" d="M75.199 92.324h.713l.204-.686h-.71l-.207.686zm.571-1.892l-.245.811s.271-.138.416-.182l.37-.061.173-.568h-.714m.354-1.166l-.237.779s.268-.119.41-.159c.146-.038.366-.052.366-.052l.171-.568h-.71m1.576 0l-.922 3.051h.249l-.193.63h-.246l-.059.194h-.877l.061-.194h-1.782l.179-.583h.182l.934-3.098.187-.624h.894l-.093.315s.237-.172.464-.23c.226-.059 1.521-.081 1.521-.081l-.191.62h-.308"/><path fill="#fff" d="M78.096 88.646h.955l.01.355c-.006.061.045.089.156.089h.195l-.178.588h-.517c-.446.031-.616-.16-.604-.377l-.017-.655zM78.222 91.432h-.911l.156-.521h1.041l.148-.479h-1.027l.175-.59h2.858l-.178.59h-.959l-.149.479h.962l-.16.521h-1.039l-.185.221h.422l.103.659.033.137c.021.022.148.035.222.035h.128l-.195.641h-.324l-.229-.008c-.096-.009-.164-.065-.23-.099-.06-.028-.148-.1-.17-.223l-.102-.658-.473.647c-.15.205-.354.361-.697.361h-.66l.174-.571h.252l.186-.055.14-.116.688-.971zM68.253 90h2.411l-.179.574h-.964l-.15.491h.986l-.18.594h-.985l-.24.798c-.028.088.235.1.33.1l.492-.068-.197.657h-1.111l-.253-.034c-.094-.023-.135-.066-.177-.129-.04-.064-.104-.119-.061-.258l.32-1.056h-.548l.182-.604h.55l.146-.491h-.547l.175-.574zM69.874 88.967h.989l-.18.601h-1.351l-.146.127-.167.08c-.077.038-.237.114-.445.114h-.432l.174-.577h.13c.11 0 .186-.011.224-.034.043-.027.091-.089.145-.188l.25-.451h.981l-.172.328z"/><path fill-rule="evenodd" clip-rule="evenodd" fill="#fff" d="M71.771 89.955s.27-.246.732-.326c.104-.02.76-.014.76-.014l.101-.33h-1.392l-.201.67zm1.305.252h-1.38l-.085.277h1.195l.182-.003.088-.274m-1.788-1.561h.843l-.123.424s.266-.213.452-.29c.185-.068.604-.13.604-.13l1.363-.008-.464 1.548c-.078.264-.17.436-.227.514-.052.078-.111.146-.229.211-.115.063-.22.098-.316.107l-.42.012h-1.313l-.37 1.221c-.035.123-.051.182-.027.215l.125.061.579-.055-.198.671h-.647l-.462-.013c-.1-.009-.204 0-.274-.053-.06-.055-.152-.125-.15-.195l.077-.328 1.177-3.912"/><path fill="#fff" d="M73.744 91.141l-.078.371c-.033.117-.062.203-.15.278-.092.079-.199.16-.452.16l-.468.02-.004.42c-.005.118.027.106.045.125l.063.038.148-.008.445-.025-.186.613h-.512c-.359 0-.625-.009-.711-.077-.087-.056-.099-.123-.098-.241l.033-1.637h.818l-.012.334h.197l.141-.023.055-.086.082-.262h.644zM62.073 82.934c-.027.134-.553 2.555-.554 2.557-.113.489-.195.838-.475 1.064-.159.131-.344.193-.558.193-.346 0-.546-.171-.58-.496l-.006-.111.105-.659s.551-2.206.649-2.497l.008-.033c-1.072.009-1.262 0-1.274-.018l-.034.16-.563 2.486-.048.211-.093.689c0 .205.04.371.12.513.256.447.986.515 1.4.515.532 0 1.032-.113 1.37-.32.586-.346.739-.887.876-1.367l.063-.248s.567-2.291.664-2.588l.01-.033c-.776.007-1.007-.001-1.08-.018zM65.212 87.484c-.379-.007-.515-.007-.959.018l-.016-.034.117-.507.055-.232c.082-.359.163-.777.172-.906.009-.076.035-.268-.185-.268-.092 0-.188.045-.286.09-.054.191-.162.729-.213.975l-.167.83-.031.035c-.392-.007-.528-.007-.979.018l-.021-.039.222-.922c.19-.833.235-1.15.287-1.574l.036-.024c.439-.062.546-.075 1.022-.171l.04.044-.073.265.239-.138c.225-.11.475-.144.611-.144.21 0 .438.059.533.3.09.215.03.479-.089 1.001l-.062.266c-.121.58-.142.686-.21 1.084l-.043.033zM66.758 87.484l-.521-.002-.496.02-.012-.02-.014-.02.118-.375.108-.379c.067-.292.108-.494.135-.674l.072-.488.017-.014.018-.017.521-.077.536-.095.009.021.006.021-.131.543-.127.543-.14.629-.059.348-.021.019-.019.017zM69.177 86.133c-.019.098-.104.465-.222.621-.081.115-.178.186-.284.186-.032 0-.221 0-.224-.281-.001-.138.027-.279.062-.432.1-.443.219-.814.52-.814.236-.001.253.275.148.72zm.996.041c.134-.584.03-.857-.101-1.023-.198-.254-.548-.335-.911-.335-.218 0-.737.021-1.144.396-.292.271-.426.637-.508.988-.081.357-.176 1.002.416 1.241.184.079.447.101.617.101.434 0 .879-.119 1.214-.475.259-.288.376-.717.417-.893"/><path fill="#fff" d="M79.471 87.523c-.46-.004-.592-.004-1.016.014l-.027-.034c.115-.437.23-.871.333-1.313.134-.572.163-.815.207-1.149l.034-.029c.457-.064.583-.083 1.058-.171l.015.04-.258 1.078c-.174.754-.238 1.139-.305 1.533l-.041.031zM78.781 86.183c-.023.095-.11.464-.227.619-.078.11-.264.179-.369.179-.031 0-.217 0-.224-.275-.001-.137.026-.277.062-.433.102-.435.219-.802.521-.802.237 0 .339.266.237.712zm.907.044c.133-.582-.405-.053-.489-.244-.131-.299-.051-.905-.578-1.109-.203-.079-.68.023-1.089.396-.288.267-.427.631-.505.981-.083.353-.178.997.412 1.227.188.08.356.104.527.095.593-.031 1.044-.926 1.379-1.28.259-.281.303.104.343-.066"/><path fill="#fff" d="M72.771 87.484c-.382-.007-.513-.007-.958.018l-.016-.034.12-.507.052-.232c.084-.359.164-.777.172-.906.009-.076.035-.268-.184-.268-.094 0-.189.045-.287.09-.052.191-.162.729-.215.975l-.163.83-.034.035c-.391-.007-.525-.007-.977.018l-.021-.039.222-.922c.189-.833.232-1.15.286-1.574l.034-.024c.439-.062.547-.075 1.023-.171l.037.044-.068.265.238-.138c.223-.11.474-.144.61-.144.207 0 .437.059.534.3.089.215.028.479-.092 1.001l-.059.266c-.126.58-.144.686-.211 1.084l-.043.033zM76.065 82.931l-.316.003c-.822.01-1.151.007-1.287-.01l-.034.167-.293 1.366-.738 3.039c.717-.008 1.012-.008 1.136.006l.196-.947.15-.617.089-.086h.065c.619 0 1.318 0 1.865-.403.373-.276.629-.685.742-1.181.029-.121.051-.267.051-.411 0-.19-.037-.378-.148-.524-.279-.393-.836-.399-1.478-.402zm.412 1.421c-.067.303-.264.558-.516.681-.209.104-.463.112-.727.112h-.17l.014-.067.312-1.357.01-.07.005-.052.125.012.661.057c.254.098.359.352.286.684"/><path fill="#fff" d="M83.227 84.836l-.037-.041c-.469.096-.555.111-.985.168l-.031.032-.005.021-.002-.008c-.32.741-.312.582-.573 1.164l-.003-.07-.064-1.266-.042-.041c-.491.096-.503.111-.958.168l-.035.032-.008.05.004.006c.057.291.043.226.1.684l.088.673c.045.372.07.554.125 1.121-.307.506-.379.698-.674 1.142l.018.041c.443-.016.547-.016.875-.016l.07-.082c.247-.536 2.137-3.778 2.137-3.778zM67.174 85.15c.251-.175.283-.416.071-.542-.214-.126-.591-.086-.844.089-.253.172-.282.415-.068.543.211.123.589.086.841-.09zM81.055 88.658l-.369.633c-.116.217-.332.379-.678.379l-.588-.01.172-.568h.115l.136-.021.075-.067.219-.346h.918zM9.144 84.295c-1.378 0-2.5-1.121-2.5-2.5v-22.266c0-1.378 1.122-2.5 2.5-2.5h36.006c1.378 0 2.5 1.122 2.5 2.5v22.266c0 1.379-1.122 2.5-2.5 2.5h-36.006z"/><path fill="#CDCCCC" d="M45.149 57.529c1.103 0 2 .897 2 2v22.266c0 1.103-.897 2-2 2h-36.005c-1.103 0-2-.897-2-2v-22.266c0-1.103.897-2 2-2h36.005m0-1h-36.005c-1.65 0-3 1.35-3 3v22.266c0 1.65 1.35 3 3 3h36.006c1.65 0 3-1.35 3-3v-22.266c-.001-1.65-1.351-3-3.001-3z"/><path fill="#862165" d="M36.692 63.211l2.71-.485v10.409h-2.71v-9.924zm3.958 0v9.923h2.714v-10.408l-2.714.485zm-7.82 9.924h2.713v-7.613h-2.713v7.613zm-17.924-6.537c-.343-.022-1.137-.074-1.137-.788 0-.863 1.143-.863 1.571-.863.754 0 1.729.223 2.427.431 0 0 .389.138.72.278l.03.008v-2.361l-.042-.013c-.823-.288-1.779-.565-3.552-.565-3.058 0-4.141 1.782-4.141 3.308 0 .879.377 2.949 3.878 3.188.297.017 1.085.064 1.085.801 0 .61-.646.97-1.729.97-1.189 0-2.342-.303-3.043-.591v2.432c1.049.274 2.23.412 3.616.412 2.989 0 4.328-1.686 4.328-3.355.001-1.892-1.497-3.123-4.011-3.292zm16.396-1.187c-2.507.081-3.779 1.206-3.779 3.441v4.283h2.734v-3.494c0-1.338.176-1.912 1.764-1.967v-2.224c-.267-.057-.719-.039-.719-.039zm-7.359.102c-.061.151-.494 1.378-1.545 2.65v-5.437l-2.798.554v9.855h2.799v-3.046c.812 1.216 1.211 3.046 1.211 3.046h3.352c-.331-1.379-1.781-3.921-1.781-3.921 1.302-1.65 1.873-3.408 1.965-3.7h-3.203zm10.243-.721c.739 0 1.337-.597 1.337-1.336 0-.738-.598-1.337-1.337-1.337-.737 0-1.337.599-1.337 1.337s.599 1.336 1.337 1.336z"/><path d="M13.886 78.254v-1.607c0-.184-.067-.309-.25-.309-.142 0-.278.088-.42.225v1.691h-.79v-1.607c0-.184-.068-.309-.251-.309-.146 0-.277.088-.419.225v1.691h-.79v-2.566h.696l.058.352c.229-.235.466-.403.795-.403.351 0 .546.173.64.403.23-.23.481-.403.801-.403.477 0 .728.298.728.796v1.822h-.798zM16.31 78.307c-.707 0-1.225-.51-1.225-1.33 0-.822.522-1.341 1.229-1.341.713 0 1.235.513 1.235 1.335s-.528 1.336-1.239 1.336zm.004-2.022c-.303 0-.466.266-.466.686 0 .414.168.696.466.696.304 0 .472-.278.472-.69 0-.414-.168-.692-.472-.692zM19.455 78.254v-1.607c0-.184-.073-.309-.262-.309-.151 0-.294.088-.435.229v1.687h-.79v-2.566h.695l.059.352c.23-.225.476-.403.801-.403.477 0 .729.298.729.796v1.822h-.797zM22.983 77.17h-1.54c.042.402.283.561.629.561.282 0 .561-.105.843-.268l.079.556c-.277.177-.619.288-1.021.288-.77 0-1.319-.409-1.319-1.326 0-.836.513-1.345 1.209-1.345.785 0 1.136.587 1.136 1.33l-.016.204zm-1.141-1.022c-.22 0-.377.194-.402.588h.806c-.027-.388-.163-.588-.404-.588zM24.803 78.307c-.229.67-.544.9-1.104.9l-.299-.031-.1-.635c.083.025.162.043.314.043.178 0 .335-.068.419-.248l.031-.078-.933-2.506.848-.102.498 1.619.471-1.582h.765l-.91 2.62zM27.127 78.285c-.414 0-.801-.068-1.1-.184v-3.501l.79-.126v1.497c.163-.167.383-.335.687-.335.523 0 .921.398.921 1.267 0 .952-.508 1.382-1.298 1.382zm.126-1.942c-.168 0-.304.1-.436.245v1.016c.105.032.168.048.288.048.309 0 .529-.188.529-.696.001-.43-.156-.613-.381-.613zM29.958 78.307c-.707 0-1.225-.51-1.225-1.33 0-.822.524-1.341 1.23-1.341.712 0 1.235.513 1.235 1.335s-.527 1.336-1.24 1.336zm.006-2.022c-.305 0-.466.266-.466.686 0 .414.167.696.466.696.303 0 .471-.278.471-.69 0-.414-.168-.692-.471-.692zM32.717 78.307c-.706 0-1.226-.51-1.226-1.33 0-.822.523-1.341 1.23-1.341.712 0 1.235.513 1.235 1.335s-.528 1.336-1.239 1.336zm.005-2.022c-.303 0-.466.266-.466.686 0 .414.168.696.466.696.305 0 .471-.278.471-.69-.001-.414-.167-.692-.471-.692zM35.909 78.291l-.743-1.23v1.193h-.79v-3.654l.79-.126v2.267l.686-1.053h.848l-.807 1.169.838 1.317-.822.117zM39.117 77.17h-1.539c.043.402.283.561.628.561.283 0 .561-.105.844-.268l.078.556c-.276.177-.617.288-1.021.288-.77 0-1.319-.409-1.319-1.326 0-.836.513-1.345 1.209-1.345.786 0 1.137.587 1.137 1.33l-.017.204zm-1.14-1.022c-.22 0-.377.194-.402.588h.806c-.027-.388-.163-.588-.404-.588zM40.348 76.83v1.424h-.791v-2.566h.691l.084.508c.156-.293.371-.533.748-.56l.132.807c-.383.026-.67.177-.864.387zM42.456 78.295c-.409 0-.79-.114-1.058-.256l.094-.603c.305.188.676.305.97.305.22 0 .324-.074.324-.194 0-.131-.073-.188-.435-.277-.644-.168-.917-.34-.917-.822 0-.477.356-.797.984-.797.346 0 .682.07.947.189l-.099.603c-.278-.153-.597-.241-.844-.241-.188 0-.271.068-.271.168 0 .104.073.162.435.262.681.183.922.355.922.832.001.538-.371.831-1.052.831z"/><path fill="#fff" d="M95.844 84.295c-1.379 0-2.5-1.121-2.5-2.5v-22.266c0-1.378 1.121-2.5 2.5-2.5h36.007c1.379 0 2.5 1.122 2.5 2.5v22.266c0 1.379-1.121 2.5-2.5 2.5h-36.007z"/><path fill="#CDCCCC" d="M131.851 57.529c1.103 0 2 .897 2 2v22.266c0 1.103-.897 2-2 2h-36.007c-1.103 0-2-.897-2-2v-22.266c0-1.103.897-2 2-2h36.007m0-1h-36.007c-1.65 0-3 1.35-3 3v22.266c0 1.65 1.35 3 3 3h36.007c1.65 0 3-1.35 3-3v-22.266c0-1.65-1.35-3-3-3z"/><g fill="#0066B3"><path d="M111.503 76.192h-2.878l1.799-11.053h2.877zM106.203 65.139l-2.743 7.604-.324-1.639v.002l-.968-4.971s-.117-.996-1.366-.996h-4.535l-.052.188s1.387.288 3.01 1.263l2.5 9.603h2.998l4.578-11.054h-3.098zM128.838 76.192h2.644l-2.306-11.054h-2.312c-1.068 0-1.329.824-1.329.824l-4.292 10.229h3l.6-1.642h3.659l.336 1.643zm-3.166-3.91l1.512-4.136.852 4.136h-2.364zM121.469 67.796l.41-2.373s-1.268-.482-2.588-.482c-1.428 0-4.819.624-4.819 3.659 0 2.856 3.979 2.892 3.979 4.39 0 1.5-3.57 1.232-4.748.286l-.428 2.481s1.285.625 3.248.625c1.964 0 4.928-1.018 4.928-3.785 0-2.873-4.018-3.141-4.018-4.39s2.803-1.089 4.036-.411z"/></g><path fill="#FAA634" d="M103.136 71.105l-.968-4.971s-.117-.996-1.366-.996h-4.535l-.052.188s2.179.452 4.27 2.144c1.999 1.617 2.651 3.635 2.651 3.635z"/><path fill="#fff" d="M52.39 67.045c-1.378 0-2.5-1.122-2.5-2.5v-22.265c0-1.378 1.122-2.5 2.5-2.5h36.007c1.379 0 2.5 1.122 2.5 2.5v22.266c0 1.378-1.121 2.5-2.5 2.5h-36.007z"/><path fill="#CDCCCC" d="M88.396 40.28c1.103 0 2 .897 2 2v22.266c0 1.103-.897 2-2 2h-36.006c-1.103 0-2-.897-2-2v-22.266c0-1.103.897-2 2-2h36.006m0-1h-36.006c-1.65 0-3 1.35-3 3v22.266c0 1.65 1.35 3 3 3h36.007c1.65 0 3-1.35 3-3v-22.266c-.001-1.65-1.35-3-3.001-3z"/><path fill="#8EC641" d="M86.278 51.118c-.192-.216-.435-.355-.7-.458-.281-.108-.572-.166-.87-.198l-.263-.028-.116-.009h-2.597l-.129.684-.314 1.704-.279 1.516-.117.646-.076.067h-2.855l-.068-.01.041-.22.139-.748.072-.062h1.66c.09 0 .082.009.098-.079l.191-1.058-.041-.048h-1.679c-.075 0-.075 0-.062-.076l.162-.875c.02-.095-.001-.083.1-.083l1.68-.001.053.001.054-.047.091-.507.137-.742.008-.063h-3.787l-.044.271-.161.876-.188 1.026-.227 1.228-.17.926-.064.051h-1.264l-.05-.059.238-1.273.226-1.222.241-1.292.091-.488.002-.044h-1.977l-.281 1.526-.262 1.427-.256 1.374-.061.053h-1.233l-.046-.059.305-1.647.318-1.697.166-.905.005-.07h-1.978l-.044.266-.147.806-.19 1.026-.198 1.083-.211 1.141-.047.254-.051.042h-.039l-2.842-.001c-.081 0-.091.02-.07-.088l.16-.888.08-.063h1.705l.048-.039.201-1.122v-.007l-.075-.008h-1.647c-.081 0-.082 0-.067-.077l.168-.919.056-.046h1.744l.046.001.055-.047.064-.362.162-.893.006-.058h-11.774l-.058.342-.228 1.241-.198 1.091-.163.886-.012.059-.024-.025-.714-1.963-.577-1.575-.016-.055h-2.054l-.088.461-.275 1.492-.278 1.502-.264 1.438-.182.987-.024.052.032.04h1.945l.005-.098.196-1.116.216-1.205.199-1.13.029-.163.023.026.264.762.646 1.87.336.977.019.075h7.031l.045-.272.213-1.161.213-1.147.187-1.014.179-.964.065-.054h.969l.026.001.031.035-.032.185-.281 1.519-.277 1.494-.188 1.02-.063.356h18.455l.043-.269.162-.894.227-1.228.088-.475.021.034.4 1.341.434 1.463.006.026h1.965l-.207-.556-.656-1.749c-.028-.071-.027-.071.047-.086.184-.038.364-.081.535-.156.475-.21.783-.563.928-1.06.051-.177.073-.356.08-.54.008-.178-.003-.352-.042-.524-.054-.227-.156-.43-.315-.605zm-24.44 1.014l-.166.899-.189 1.02-.17.931-.07.059h-2.869l-.057-.009.13-.711.048-.254.076-.063h1.725c.087 0 .089 0 .104-.087l.177-.977.014-.082-.036-.044h-1.733c-.082 0-.082 0-.068-.079l.152-.882.08-.068h2.856l.047.054-.051.293zm22.808.568c-.076.188-.212.32-.395.406-.135.063-.279.094-.428.112l-.36.013h-.265l-.055-.063.071-.388.193-1.043c.017-.099.017-.099.118-.099l.411.012c.132.014.259.038.382.089.238.1.383.317.384.575.006.132-.006.261-.056.386zm3.032 1.952c-.459.081-.781.517-.715.981.052.358.256.596.592.723l.121.04h.31l.213-.071c.255-.121.42-.317.493-.591l.018-.1v-.232l-.025-.119c-.124-.433-.549-.711-1.007-.631zm.155 1.594c-.355-.002-.721-.291-.723-.725-.001-.401.321-.724.727-.722.416 0 .731.354.72.722.015.372-.321.727-.724.725zm.236-.705c.175-.066.222-.291.089-.423-.051-.052-.113-.067-.182-.067l-.425.015c-.089.003-.089.003-.085.095l.002.025.023.422.016.33c.002.078.003.074.078.072l.052-.056-.013-.269.002-.082.078-.014c.11-.024.196.01.266.102l.182.25.042.038.146-.018c-.105-.139-.184-.293-.332-.401l.061-.019zm-.149-.078l-.236.013h-.02l-.052-.049-.011-.191.062-.066.212-.013.115.013c.063.015.105.067.108.128.001.061-.024.108-.08.137l-.098.028z"/><path fill="#fff" d="M95.844 119.133c-1.379 0-2.5-1.121-2.5-2.5v-22.267c0-1.379 1.121-2.5 2.5-2.5h36.007c1.379 0 2.5 1.121 2.5 2.5v22.267c0 1.379-1.121 2.5-2.5 2.5h-36.007z"/><path fill="#CDCCCC" d="M131.851 92.366c1.103 0 2 .897 2 2v22.267c0 1.103-.897 2-2 2h-36.007c-1.103 0-2-.897-2-2v-22.267c0-1.103.897-2 2-2h36.007m0-1h-36.007c-1.65 0-3 1.35-3 3v22.267c0 1.65 1.35 3 3 3h36.007c1.65 0 3-1.35 3-3v-22.267c0-1.65-1.35-3-3-3z"/><defs><path id="a" d="M96.158 105.5c-.463 3.709 1.873 6.715 5.219 6.715s6.433-3.006 6.896-6.715c.463-3.709-1.874-6.715-5.219-6.715s-6.433 3.006-6.896 6.715"/></defs><clipPath id="b"><use xlink:href="#a" overflow="visible"/></clipPath><linearGradient id="c" gradientUnits="userSpaceOnUse" x1="-226.502" y1="369.301" x2="-226.412" y2="369.301" gradientTransform="matrix(-9 147.333 147.333 9 -56345.957 30146.543)"><stop offset="0" stop-color="#A31E22"/><stop offset="1" stop-color="#701314"/></linearGradient><path clip-path="url(#b)" fill="url(#c)" d="M109.553 98.835l-.865 14.173-13.81-.843.866-14.174z"/><defs><path id="d" d="M97.067 105.299c-.421 3.373 1.704 6.106 4.745 6.106 3.042 0 5.85-2.733 6.271-6.106.421-3.372-1.704-6.105-4.745-6.105-3.043-.001-5.85 2.733-6.271 6.105"/></defs><clipPath id="e"><use xlink:href="#d" overflow="visible"/></clipPath><linearGradient id="f" gradientUnits="userSpaceOnUse" x1="-226.136" y1="369.406" x2="-226.046" y2="369.406" gradientTransform="matrix(23.334 120 120 -23.334 -38950.648 35856.148)"><stop offset="0" stop-color="#BB2326"/><stop offset="1" stop-color="#84181A"/></linearGradient><path clip-path="url(#e)" fill="url(#f)" d="M108.072 96.971l2.72 13.99-13.714 2.666-2.72-13.988z"/><defs><path id="g" d="M97.291 99.193h10.567v4.914h-10.567z"/></defs><clipPath id="h"><use xlink:href="#g" overflow="visible"/></clipPath><g clip-path="url(#h)"><defs><path id="i" d="M103.33 99.62c2.111 0 3.791 1.247 4.528 3.093-.618-2.079-2.343-3.52-4.55-3.52-2.675 0-5.166 2.112-6.018 4.914.993-2.586 3.431-4.487 6.04-4.487"/></defs><clipPath id="j"><use xlink:href="#i" overflow="visible"/></clipPath><linearGradient id="k" gradientUnits="userSpaceOnUse" x1="-228.103" y1="368.785" x2="-228.013" y2="368.785" gradientTransform="matrix(-117.862 0 0 117.862 -26776.875 -43364.063)"><stop offset="0" stop-color="#761113"/><stop offset="1" stop-color="#fff"/></linearGradient><path clip-path="url(#j)" fill="url(#k)" d="M97.291 99.193h10.567v4.914h-10.567z"/></g><path fill="#fff" d="M100.814 102.158h.533s.427.002.326.479l-.875 4.141s-.275 1.093.891 1.197c1.164.105 1.618-.649 1.896-1.965l.793-3.752s0-.1.102-.1h1.371s.42.023.326.462l-.874 4.14s-.291 2.1-1.903 2.534c-.801.292-1.852.226-1.852.226s-2.459.007-2.661-1.941c0-.877.14-1.34.14-1.34l.83-3.924s.01-.156.117-.156h.84z"/><path fill="#010101" d="M110.826 102.291s.008-.133.108-.133h1.087s.547.043.422.635l-.658 3.113 1.803-1.777h1.978s.096.045 0 .136c-.095.09-2.854 2.593-2.854 2.593l1.687 2.399s.063.128-.069.128h-1.669l-.093-.068c-.067-.095-1.139-1.72-1.139-1.72l-.258 1.222s-.068.555-.492.555h-1.248s-.109.047-.061-.184l1.456-6.899M119.179 104.055c-.853-.168-1.642-.055-1.642-.055s-1.258.088-1.696.939c-.235.439-.282.659-.282.659s-.049.175.049.175h1.467s.086.006.119-.149c.033-.156.236-.49.563-.513l.356-.025s.857-.045.729.565-.684.589-1.028.603c-.346.016-1.846.02-2.534.674-.325.271-.404.759-.404.759s-.136.892.267 1.315c.4.424.815.518 1.23.518.414 0 1.301.066 1.793-.666l-.093.441s-.026.098.052.094h1.117s.401.015.555-.529c.154-.543.57-2.33.57-2.33s.135-.871.139-1.343-.48-.964-1.327-1.132m-1.243 4.219c-.617.436-1.391.128-1.375-.366.016-.496.424-.626.783-.695.359-.066 1.025-.045 1.215-.229 0 0-.053.871-.623 1.29M120.738 107.644h1.434s.07.002.082.11.03.432.412.584c.383.154.885.045 1.068-.115.184-.162.285-.586-.105-.734-.389-.15-1.312-.375-1.312-.375s-.824-.165-1.067-.865c-.125-.441-.048-.804-.048-.804s.021-.453.513-.888c.535-.465 1.521-.551 1.521-.551s1.165-.09 1.78.199c.614.288.892.794.861 1.42l-.06.061-1.413-.008s-.071.016-.083-.124c-.01-.139-.082-.514-.686-.51-.604.003-.746.331-.738.51.008.18.117.378 1.121.573s1.447.555 1.544 1.082c.099.525-.021 1.291-.341 1.615-.32.323-.656.545-1.684.695-1.094.048-1.514-.08-1.514-.08s-1.289-.208-1.35-1.706l.065-.089M127.41 102.223l.078-.064h1.236s.42.003.311.52l-.442 2.096s.518-.854 1.913-.781c1.396.073 1.472 1.303 1.385 1.713l-.67 3.169s-.151.493-.499.493h-1.277s-.079.023-.038-.172l.609-2.881s.262-1.034-.596-1.023c-.857.012-1.105.799-1.163 1.074l-.522 2.471s-.15.527-.51.533h-1.237s-.095.039-.061-.125l1.483-7.023"/><path fill="#010101" d="M131.383 103.047v-.596h.254l.139.016.068.058.026.094-.039.11-.118.056.064.05.068.097.073.116h-.145l-.087-.129-.063-.088-.036-.025-.061-.006h-.025v.248h-.118zm.119-.344h.09l.108-.008.034-.025.012-.044-.016-.048-.045-.024-.088-.002h-.096v.151zM131.598 103.355c-.331 0-.6-.268-.6-.598 0-.332.269-.6.6-.6.33 0 .599.268.599.6-.001.331-.269.598-.599.598m0-1.058c-.254 0-.461.206-.461.461 0 .254.207.459.461.459s.459-.205.459-.459c0-.255-.205-.461-.459-.461"/><path fill="#fff" d="M95.844 49.459c-1.379 0-2.5-1.122-2.5-2.5v-22.266c0-1.378 1.121-2.5 2.5-2.5h36.007c1.379 0 2.5 1.122 2.5 2.5v22.266c0 1.378-1.121 2.5-2.5 2.5h-36.007z"/><path fill="#CDCCCC" d="M131.851 22.693c1.103 0 2 .897 2 2v22.266c0 1.103-.897 2-2 2h-36.007c-1.103 0-2-.897-2-2v-22.266c0-1.103.897-2 2-2h36.007m0-1h-36.007c-1.65 0-3 1.35-3 3v22.266c0 1.65 1.35 3 3 3h36.007c1.65 0 3-1.35 3-3v-22.266c0-1.65-1.35-3-3-3z"/><g fill="#0073B8"><g fill-rule="evenodd" clip-rule="evenodd"><path d="M126.764 31.509c.678 0 1.32.158 1.893.438l.269.142-.397.355-.598-.617-1.008.899-.598-.653-1.878 1.692 1.204 1.327-.474.416 1.186 1.329-.47.415 1.693 1.886 1.006-.926.869.992c-.172.134-.361.261-.568.378-.629.358-1.355.563-2.129.563-2.378 0-4.316-1.939-4.316-4.317s1.938-4.319 4.316-4.319zM125.977 35.553l1.027-.925.924 1.028-1.026.924-.925-1.027zM126.707 37.327l1.027-.924.924 1.027-1.026.924-.925-1.027zM125.242 33.8l1.028-.924.923 1.026-1.027.925-.924-1.027zM127.127 33.303l.769-.694.694.77-.771.694-.692-.77zM128.494 36.478l.771-.693.693.77-.77.693-.694-.77zM129.172 38.034l.769-.695.694.77-.77.694-.693-.769zM129.482 34.469l.513-.462.462.513-.513.461-.462-.512zM128.826 32.943l.514-.462.462.514-.513.462-.463-.514zM130.139 35.994l.512-.462.462.512-.512.463-.462-.513zM127.836 34.851l.769-.693.694.77-.77.693-.693-.77z"/></g><path d="M98.596 35.082h-.035l-.649 2.458h-.532l-.798-3.493h.552l.552 2.606h.034l.641-2.606h.438l.685 2.606h.035l.502-2.606h.576l-.799 3.493h-.531l-.671-2.458zM102.779 36.998v.375c-.223.128-.518.227-.873.227-.827 0-1.167-.513-1.167-1.291 0-.749.38-1.291 1.118-1.291.615 0 .995.399.995 1.202v.182h-1.605c0 .591.241.852.749.852.266 0 .512-.093.783-.256zm-1.523-.926h1.129c-.024-.518-.275-.724-.542-.724-.301 0-.532.232-.587.724zM103.813 35.2c.148-.079.399-.182.666-.182.61 0 .94.423.94 1.212 0 .92-.443 1.369-1.157 1.369-.262 0-.666-.083-.961-.242v-3.438l.512-.123v1.404zm-.004 1.976c.156.069.33.079.453.079.364 0 .641-.227.641-1.024 0-.626-.228-.828-.557-.828-.197 0-.34.054-.537.163v1.61zM107.66 36.801h.025l1.053-2.754h.611v3.493h-.531v-2.532h-.045l-1.005 2.532h-.315l-1.005-2.473h-.044v2.473h-.443v-3.493h.596l1.103 2.754zM109.892 36.309c0-.862.474-1.291 1.123-1.291.65 0 1.123.428 1.123 1.291 0 .842-.448 1.291-1.123 1.291s-1.123-.45-1.123-1.291zm1.729 0c0-.665-.271-.946-.606-.946-.325 0-.606.281-.606.946 0 .675.257.946.606.946s.606-.272.606-.946zM112.605 35.382c.223-.133.689-.364 1.256-.364.592 0 .813.231.813.739v1.784h-.512v-1.67c0-.389-.191-.458-.443-.458-.197 0-.447.089-.601.177v1.951h-.513v-2.159zM117.172 36.998v.375c-.222.128-.518.227-.872.227-.827 0-1.167-.513-1.167-1.291 0-.749.379-1.291 1.118-1.291.616 0 .995.399.995 1.202v.182h-1.605c0 .591.24.852.748.852.265 0 .512-.093.783-.256zm-1.522-.926h1.127c-.023-.518-.275-.724-.541-.724-.3 0-.532.232-.586.724zM119.162 35.102h.527l-.892 2.463c-.247.68-.548 1.034-1.113 1.034v-.404c.335 0 .542-.266.659-.63l-.945-2.463h.543l.63 1.813h.029l.562-1.813z"/></g><path fill="#fff" d="M52.391 135.385c-1.378 0-2.5-1.121-2.5-2.5v-22.266c0-1.379 1.122-2.5 2.5-2.5h36.006c1.379 0 2.5 1.121 2.5 2.5v22.266c0 1.379-1.121 2.5-2.5 2.5h-36.006z"/><path fill="#CDCCCC" d="M88.396 108.619c1.103 0 2 .897 2 2v22.266c0 1.103-.897 2-2 2h-36.005c-1.103 0-2-.897-2-2v-22.266c0-1.103.897-2 2-2h36.005m0-1h-36.005c-1.65 0-3 1.35-3 3v22.266c0 1.65 1.35 3 3 3h36.006c1.65 0 3-1.35 3-3v-22.266c-.001-1.65-1.35-3-3.001-3z"/><path fill="#C6373B" d="M55.86 121.094l.012.21v1.469c0 .124-.015.245-.051.362-.029.096-.074.181-.144.255-.086.093-.193.146-.314.177l-.249.029-1.87-.002c-.194 0-.36-.074-.508-.196l-.066-.08c-.053-.084-.087-.174-.107-.271l-.022-.146-.019-.056v-1.654l.019-.054.032-.188c.023-.09.058-.175.111-.252l.063-.07c.114-.09.243-.15.388-.176l.09-.006h1.911c.098 0 .193.012.286.041.174.057.297.17.37.338.038.086.058.178.068.27z"/><path fill="#3591CF" d="M59.716 121.09l-.052-.229c-.077-.202-.221-.331-.431-.384l-.228-.029h-1.148l-.085.006c-.128.021-.241.075-.347.147l-.131.146-.078.193c-.03.112-.042.229-.042.343v3.47l.021.02h.7280000000000001l.024-.022v-1.083l.001-.045.023-.025h.907l.175-.008c.098-.008.19-.035.275-.082l.185-.145c.14-.139.211-.305.21-.504v-1.57l-.007-.199zm-.767.931v.567l-.02.092c-.041.067-.098.115-.184.115h-.553l-.118-.021c-.062-.025-.099-.07-.114-.136l-.012-.094v-1.043l.011-.101c.018-.076.063-.127.14-.148l.085-.012h.576l.06.008c.066.014.104.057.119.121l.01.088v.564zM77.059 120.898c-.066-.221-.207-.359-.432-.42l-.258-.033h-1.053l-.09.003c-.1.007-.193.026-.283.064-.148.063-.256.171-.318.323-.043.113-.061.229-.061.349l.004.587.008.837.01.346.027.152c.023.095.074.174.137.247.098.111.217.184.359.215l.299.027h1.635l.057-.058v-.682l-.061-.062h-1.531l-.086-.044-.025-.036c-.039-.053-.045-.115-.039-.177l.01-.015.021-.012.732-.289.941-.369.027-.012.012-.016.002-.024v-.612c.001-.095-.015-.195-.044-.289zm-.768.506l-.117.045-.764.289-.053.016-.014-.012-.004-.034v-.267l.051-.116c.057-.058.125-.087.207-.085h.525l.119.029.066.105-.016.03zM62.872 120.947c-.03-.127-.09-.239-.188-.328-.08-.07-.176-.113-.279-.141l-.288-.033h-1.6960000000000002l-.061.064v.7010000000000001l.027.03h1.52l.05.001.084.016.082.088.008.074-.067.072h-.942l-.076.001-.271.048c-.191.065-.319.194-.382.387-.031.1-.045.199-.047.303v.651l.03.233c.029.111.08.21.163.289.074.068.161.113.256.143.116.035.236.047.356.049h.963l.175-.008c.09-.008.175-.033.252-.078.127-.071.219-.174.282-.305.056-.115.077-.24.077-.369l.001-1.629-.029-.259zm-.74 1.677l-.008.06-.079.09-.111.023h-.607c-.067.002-.122-.029-.168-.075l-.031-.072.002-.271.001-.016c.016-.077.03-.11.12-.123l.069-.007h.3l.302-.001.083.011c.076.019.121.071.127.149l.001.074-.001.158zM72.834 123.596h.6970000000000001l.023-.023v-2.274l.057-.057h.445l.047-.047v-.727l-.025-.022h-.496l-.027-.025v-.166l.012-.063c.02-.062.061-.104.119-.127l.117-.021h.258l.045-.046v-.682l-.045-.044h-.451l-.145.011c-.172.022-.324.085-.455.198-.102.09-.172.197-.207.326l-.025.229v3.5010000000000003l.056.059z"/><path fill="#C6373B" d="M52.63 120.469l.016-.012.223-.134.16-.056.025-.025.045-.148c.18-.48.655-.797 1.178-.762.163.01.318.049.461.126.313.165.515.417.605.76l.056.056c.136.031.26.089.365.18l.022.006.002-.063-.016-.23-.052-.279c-.15-.534-.573-.952-1.107-1.096l-.261-.048-.025-.011h-.292l.001.011-.148.023c-.371.076-.677.262-.914.555-.178.217-.289.466-.334.742l-.024.294v.104l.014.007z"/><path fill="#3591CF" d="M72.125 120.95c-.031-.13-.09-.243-.193-.332-.078-.071-.172-.114-.273-.14l-.289-.034h-1.705l-.053.054v.724l.02.018h1.539l.1.01c.064.018.104.054.113.136v.065l-.039.04h-.937l-.191.009-.255.067c-.138.063-.234.163-.293.302-.048.109-.066.225-.067.342v.679l.026.217c.028.114.078.214.163.295.073.069.163.116.26.146.117.037.238.049.359.049h.963l.17-.008c.092-.01.178-.035.26-.082.117-.067.203-.162.264-.28.066-.124.09-.259.09-.397v-1.615l-.032-.265zm-.744 1.685c-.002.08-.043.132-.121.151l-.08.011h-.6c-.068.002-.121-.025-.17-.072l-.033-.076.002-.262.012-.063.082-.078.084-.012.627-.001.078.013c.072.02.113.073.119.148v.241zM83.197 121.326l-.008-.162c-.014-.129-.047-.252-.104-.367-.059-.123-.131-.222-.217-.301-.09-.085-.199-.139-.318-.158l-.391-.028-1.543-.001-.047.001c-.104.013-.121.091-.123.139v.138c.004.077.049.125.123.131l.057.003 1.088-.001.543.001.213.022.131.066c.059.051.105.117.143.202.031.073.047.157.049.258l.002.097h-1.398l-.105.004c-.117.004-.229.027-.334.068-.17.064-.301.176-.387.33-.049.08-.08.166-.098.26l-.033.303v.383l.01.209.064.256c.096.219.26.375.492.465.111.043.236.063.379.063h.922l.197-.02c.252-.05.443-.184.578-.397.051-.086.082-.168.094-.254l.021-.314v-1.3960000000000001zm-.41 1.483c0 .088-.014.166-.043.24-.039.101-.105.168-.207.207l-.229.038-.521.001h-.41400000000000003c-.145 0-.27-.046-.387-.143l-.074-.077-.033-.071-.027-.18v-.56l.039-.198c.057-.15.162-.242.324-.277l.164-.018 1.408.002v1.036zM78.744 123.706h1.106c.07-.009.117-.058.121-.132v-.125c0-.127-.076-.154-.143-.154h-1.053l-.178-.011-.127-.022c-.096-.033-.158-.071-.201-.123-.049-.057-.088-.127-.109-.207l-.033-.273-.002-.861.002-.432.004-.229.021-.131c.018-.071.049-.125.096-.166l.119-.07c.086-.035.186-.05.299-.05l.371-.001.742.001.047-.001.131-.018v-.262l-.02-.119-.1-.01-.057-.002h-.988l-.279.008-.236.042c-.143.046-.262.134-.373.263-.082.098-.139.212-.162.34l-.02.215v1.592c0 .102.014.207.047.311.053.19.162.346.322.46.088.063.178.104.268.123.118.029.245.044.385.044zM84.303 123.535v-2.205l.008-.167.047-.188c.033-.076.084-.137.154-.178l.127-.051.201-.025h.17200000000000001l.053-.002.107-.032v-.249l-.016-.113-.098-.012-.305.003-.244.038c-.158.041-.291.117-.391.228-.09.1-.15.216-.186.354-.029.114-.045.235-.045.37v2.231l.027.17h.234l.111-.04.044-.132zM88.123 119.284h-.125c-.094 0-.145.052-.143.138l-.002.893h-1.365c-.148 0-.268.016-.379.047-.15.045-.279.118-.379.223-.092.096-.158.211-.199.351-.039.122-.057.256-.057.397v1.404c0 .108.014.217.041.329.059.239.203.421.428.541l.189.066.322.033h.703l.225-.007c.121-.012.219-.031.307-.064.242-.088.412-.254.5-.496.051-.133.074-.283.074-.444v-3.272c-.001-.089-.052-.139-.14-.139zm-.268 3.405l-.029.225-.084.17-.049.049c-.09.073-.197.121-.332.146l-.229.017h-.642c-.107 0-.215-.016-.318-.05l-.094-.04c-.076-.037-.127-.095-.158-.181l-.033-.169v-.082l-.002-1.52.037-.199.07-.121.104-.104.146-.077.176-.027.207-.004h1.231v1.967zM66.005 120.445h-.637l-.067.066v2.086l-.033.093c-.05.063-.113.104-.196.104h-.567c-.1 0-.162-.054-.187-.15l-.01-.123v-2.018l-.061-.059h-.657l-.063.063v2.258l.022.244c.026.121.08.23.16.324.101.119.224.205.379.238l.224.023h.9640000000000001l.022.025v.16l-.045.109-.146.079-.08.007h-1.444l-.055.057v.7130000000000001l.021.025h1.756l.155-.01c.134-.021.252-.074.353-.168.104-.098.169-.219.209-.354.035-.116.046-.236.046-.355v-3.375l-.063-.062zM68.298 123.596l.21-.018.196-.085c.139-.107.243-.241.307-.407l.035-.191v-.587l-.017-.147c-.041-.176-.139-.314-.281-.42-.114-.089-.246-.125-.389-.127h-.653l-.079-.002-.096-.023c-.051-.023-.079-.064-.081-.119v-.086l.076-.113.063-.02.109-.009h1.294l.054-.055v-.683l-.06-.059h-1.525l-.097.002c-.101.006-.199.024-.292.063-.165.064-.279.179-.338.348-.03.086-.046.176-.046.265l-.002.628c.002.119.039.229.108.328l.13.139c.145.129.313.195.507.199h.671l.113.059c.048.07.04.145.026.223l-.001.006-.083.076-.122.018h-1.309l-.053.051v.697l.052.052 1.573-.003z"/></svg>