<?xml version="1.0" encoding="utf-8"?>
<!-- Generator: Adobe Illustrator 14.0.0, SVG Export Plug-In . SVG Version: 6.00 Build 43363)  -->
<!DOCTYPE svg PUBLIC "-//W3C//DTD SVG 1.0//EN" "http://www.w3.org/TR/2001/REC-SVG-20010904/DTD/svg10.dtd">
<svg version="1.0" id="Layer_1" xmlns="http://www.w3.org/2000/svg" xmlns:xlink="http://www.w3.org/1999/xlink" x="0px" y="0px"
	 width="90px" height="90px" viewBox="0 0 90 90" enable-background="new 0 0 90 90" xml:space="preserve">
<g>
	<path fill="#3B3A58" d="M60.1,45.6L60.1,45.6c8.1-3.5,9.3-20.9,9.3-20.9h-9.3H59H29.9h-9.3c0,0,1.2,17.4,9.3,20.9v0
		c0,7.3,5.6,13.2,12.7,13.9v9.4h-8v7h-7v9.3h2.8c0,0,0,0.1,0,0.1c0,0,0,0,0,0c0,1.4,7.1,2.5,15.9,2.5c8.8,0,15.9-1.1,15.9-2.5
		c0,0,0-0.1,0-0.1h0.2v-9.3h-7v-7h-8v-9.4C54.5,58.8,60.1,52.9,60.1,45.6z M60.5,27.1L67,27c-0.8,6.8-2.1,10.7-6.8,15.7
		c4.6-3.9,0,0,0,0L60.5,27.1z M29.9,43c-5.5-3.9-6.7-16-6.7-16h6.7V43z"/>
	<g id="path3793-4-1-2-0-3_2_">
		<path fill="#3B3A58" d="M45,5c22.1,0,40,17.9,40,40c0,22.1-17.9,40-40,40C22.9,85,5,67.1,5,45C5,22.9,22.9,5,45,5 M45,0
			C20.1,0,0,20.1,0,45s20.1,45,45,45s45-20.1,45-45S69.9,0,45,0L45,0z"/>
	</g>
	<text transform="matrix(1 0 0 1 41.6885 45.4585)" fill="#FFFFFF" font-family="'ProximaNova-Bold'" font-size="14.2479">1</text>
</g>
</svg>
