<?xml version="1.0" encoding="utf-8"?>
<!-- Generator: Adobe Illustrator 14.0.0, SVG Export Plug-In . SVG Version: 6.00 Build 43363)  -->
<!DOCTYPE svg PUBLIC "-//W3C//DTD SVG 1.0//EN" "http://www.w3.org/TR/2001/REC-SVG-20010904/DTD/svg10.dtd">
<svg version="1.0" id="Layer_1" xmlns="http://www.w3.org/2000/svg" xmlns:xlink="http://www.w3.org/1999/xlink" x="0px" y="0px"
	 width="124px" height="124px" viewBox="0 0 124 124" enable-background="new 0 0 124 124" xml:space="preserve">
<g>
	<g>
		<path id="path3793-4-1-2-0-3_4_" fill="#2A3152" d="M62,3c32.6,0,59,26.5,59,59c0,32.6-26.5,59-59,59C29.4,121,3,94.6,3,62
			C3,29.4,29.4,3,62,3 M62,0C27.8,0,0,27.8,0,62s27.8,62,62,62s62-27.8,62-62S96.2,0,62,0L62,0z"/>
	</g>
	<g>
		<path id="path3793-4-1-2-0-3_3_" fill="#2A3152" d="M62,24.8c20.5,0,37.2,16.7,37.2,37.2c0,20.5-16.7,37.2-37.2,37.2
			c-20.5,0-37.2-16.7-37.2-37.2C24.8,41.5,41.5,24.8,62,24.8 M62,23.6c-21.2,0-38.4,17.2-38.4,38.4s17.2,38.4,38.4,38.4
			c21.2,0,38.4-17.2,38.4-38.4S83.2,23.6,62,23.6L62,23.6z"/>
	</g>
	<g>
		<g>
			<path fill="#010101" d="M22.6,43.2l-5.7-2.7l0.3-0.6l5.7,2.7L22.6,43.2z"/>
			<path fill="#010101" d="M18.8,38.8c-0.1,0-0.2,0-0.4,0c-0.1-0.1-0.2-0.2-0.2-0.3c0-0.1,0-0.2,0-0.4c0.1-0.1,0.2-0.2,0.3-0.2
				c0.1,0,0.2,0,0.4,0c0.1,0.1,0.2,0.2,0.2,0.3c0,0.1,0,0.2,0,0.4C19,38.7,19,38.8,18.8,38.8z M23.5,41.4l-4-2.1l0.3-0.6l4,2.1
				L23.5,41.4z"/>
			<path fill="#010101" d="M24.2,39c-0.6,0.1-1.2,0-1.8-0.4c-0.6-0.4-0.9-0.9-1.1-1.5s-0.1-1.2,0.3-1.8c0.4-0.6,0.9-0.9,1.6-1
				l0.1,0.6c-0.5,0-0.8,0.3-1.1,0.7c-0.3,0.4-0.3,0.8-0.2,1.2c0.1,0.4,0.4,0.8,0.8,1c0.4,0.3,0.9,0.4,1.3,0.3c0.4-0.1,0.8-0.3,1-0.7
				c0.3-0.4,0.3-0.8,0.1-1.3l0.6-0.2c0.2,0.6,0.2,1.2-0.2,1.8C25.3,38.5,24.8,38.9,24.2,39z"/>
			<path fill="#010101" d="M25,34.6c-0.5-0.4-0.8-0.9-0.9-1.6c-0.1-0.6,0.1-1.2,0.5-1.7c0.4-0.5,0.9-0.8,1.5-0.8
				c0.6,0,1.2,0.2,1.7,0.6l0.1,0.1l-2.3,2.9c0.4,0.3,0.8,0.4,1.2,0.3c0.4,0,0.8-0.2,1.1-0.6c0.4-0.4,0.5-0.9,0.4-1.5l0.6,0
				c0.1,0.7-0.1,1.3-0.6,1.9c-0.4,0.5-1,0.8-1.6,0.9C26.1,35.2,25.6,35,25,34.6z M25.3,33.8l1.9-2.3c-0.3-0.2-0.7-0.4-1.1-0.4
				c-0.4,0-0.8,0.2-1.1,0.6c-0.3,0.4-0.4,0.7-0.3,1.1C24.8,33.2,25,33.6,25.3,33.8z"/>
			<path fill="#010101" d="M30.2,31.8L27,28.6l0.5-0.5l0.5,0.5c0-0.3,0-0.6,0.1-0.9c0.1-0.3,0.3-0.6,0.5-0.8c0.7-0.7,1.4-0.7,2.1,0
				l2.2,2.3l-0.5,0.5l-2.1-2.1c-0.3-0.3-0.5-0.4-0.8-0.4c-0.2,0-0.5,0.1-0.7,0.4c-0.2,0.2-0.3,0.4-0.4,0.7c-0.1,0.3-0.1,0.5-0.1,0.8
				l2.3,2.4L30.2,31.8z"/>
			<path fill="#010101" d="M33.2,28.1l0-0.6c0.2,0,0.5,0,0.8,0c0.3-0.1,0.6-0.2,0.8-0.4c0.3-0.2,0.4-0.4,0.5-0.7
				c0.1-0.2,0-0.4-0.1-0.6c-0.1-0.2-0.3-0.2-0.5-0.2c-0.2,0-0.5,0.1-0.7,0.2c-0.3,0.1-0.5,0.2-0.8,0.4c-0.3,0.1-0.5,0.2-0.8,0.1
				c-0.3,0-0.5-0.2-0.7-0.4c-0.2-0.3-0.3-0.6-0.2-1c0.1-0.4,0.3-0.7,0.7-1.1c0.6-0.4,1.1-0.6,1.8-0.5l0,0.6c-0.5-0.1-1,0-1.4,0.4
				c-0.2,0.2-0.4,0.4-0.5,0.6c-0.1,0.2,0,0.4,0.1,0.6c0.1,0.1,0.2,0.2,0.4,0.2c0.2,0,0.3-0.1,0.5-0.1c0.2-0.1,0.4-0.2,0.6-0.3
				c0.2-0.1,0.5-0.2,0.7-0.3c0.2-0.1,0.5-0.1,0.7,0c0.2,0.1,0.4,0.2,0.6,0.4c0.3,0.3,0.3,0.7,0.2,1.1c-0.1,0.4-0.4,0.8-0.8,1.1
				C34.5,28,33.9,28.2,33.2,28.1z"/>
			<path fill="#010101" d="M35.8,24c-0.4-0.6-0.5-1.2-0.4-1.8c0.1-0.6,0.4-1.1,1-1.4c0.6-0.4,1.2-0.5,1.7-0.3
				c0.6,0.2,1.1,0.6,1.4,1.2l0.1,0.2l-3.1,2c0.3,0.4,0.6,0.6,1,0.7c0.4,0.1,0.8,0,1.2-0.2c0.5-0.3,0.8-0.7,0.9-1.3l0.5,0.2
				c-0.2,0.7-0.5,1.2-1.2,1.6c-0.6,0.4-1.2,0.5-1.8,0.3C36.7,25,36.2,24.6,35.8,24z M36.3,23.4l2.5-1.6c-0.2-0.3-0.5-0.6-0.9-0.7
				c-0.4-0.1-0.8-0.1-1.2,0.2c-0.4,0.2-0.6,0.6-0.7,1C36,22.6,36.1,23,36.3,23.4z"/>
			<path fill="#010101" d="M40.4,21.2c-0.3-0.7-0.4-1.3-0.2-1.8s0.5-1,1-1.2c0.6-0.3,1.1-0.2,1.7,0.1l-1-2.2l0.6-0.3l2.7,5.7
				l-0.6,0.3l-0.3-0.6c-0.1,0.7-0.5,1.1-1,1.4c-0.5,0.3-1.1,0.3-1.6,0C41.1,22.3,40.7,21.8,40.4,21.2z M40.9,19.5
				c-0.1,0.4,0,0.8,0.2,1.3c0.2,0.5,0.5,0.8,0.9,1c0.4,0.2,0.8,0.2,1.2,0c0.2-0.1,0.5-0.3,0.6-0.5c0.2-0.2,0.3-0.5,0.3-0.7l-0.9-1.8
				c-0.2-0.1-0.4-0.2-0.7-0.2c-0.3,0-0.6,0-0.8,0.1C41.2,18.8,41,19.1,40.9,19.5z"/>
			<path fill="#010101" d="M48,18.9c-0.1-0.5-0.1-0.9,0.2-1.2c0.2-0.3,0.6-0.6,1-0.7c0.6-0.2,1.2-0.1,1.6,0.2l-0.2-0.8
				c-0.1-0.3-0.2-0.5-0.5-0.6c-0.3-0.1-0.5-0.1-0.9,0c-0.5,0.1-0.9,0.5-1.2,1l-0.5-0.4c0.3-0.6,0.9-1,1.6-1.2c0.5-0.1,0.9-0.1,1.3,0
				c0.4,0.2,0.6,0.5,0.8,1l0.8,3l-0.7,0.2l-0.1-0.5c-0.2,0.5-0.7,0.8-1.3,1c-0.4,0.1-0.8,0.1-1.2-0.1C48.4,19.6,48.1,19.3,48,18.9z
				 M48.7,18.7c0.1,0.3,0.2,0.5,0.5,0.6c0.3,0.1,0.5,0.1,0.9,0.1c0.5-0.2,0.9-0.4,1-0.9l-0.2-0.8c-0.4-0.3-0.8-0.4-1.4-0.2
				c-0.3,0.1-0.6,0.3-0.7,0.5C48.7,18.1,48.6,18.4,48.7,18.7z"/>
			<path fill="#010101" d="M53.3,18.9l-0.7-4.5l0.7-0.1l0.1,0.7c0.1-0.2,0.3-0.5,0.6-0.7c0.3-0.2,0.6-0.3,0.9-0.4
				c1-0.2,1.5,0.3,1.7,1.2l0.5,3.2l-0.7,0.1l-0.5-2.9c-0.1-0.4-0.2-0.6-0.4-0.8c-0.2-0.1-0.5-0.2-0.8-0.1c-0.3,0-0.5,0.2-0.7,0.3
				c-0.2,0.2-0.4,0.4-0.5,0.6l0.5,3.3L53.3,18.9z"/>
			<path fill="#010101" d="M57.9,15.9c0-0.7,0.1-1.3,0.5-1.8c0.4-0.5,0.8-0.7,1.4-0.7c0.6,0,1.2,0.2,1.6,0.8l-0.1-2.4l0.7,0l0.2,6.3
				l-0.7,0l0-0.7c-0.4,0.6-0.9,0.8-1.5,0.9c-0.6,0-1.1-0.2-1.5-0.6C58.2,17.2,57.9,16.7,57.9,15.9z M59,14.6
				c-0.3,0.3-0.4,0.8-0.3,1.3c0,0.5,0.2,0.9,0.4,1.2c0.3,0.3,0.6,0.5,1.1,0.4c0.3,0,0.5-0.1,0.8-0.2c0.2-0.1,0.4-0.3,0.6-0.5l-0.1-2
				c-0.1-0.2-0.3-0.4-0.6-0.5c-0.3-0.1-0.5-0.2-0.8-0.2C59.6,14.1,59.3,14.3,59,14.6z"/>
			<path fill="#010101" d="M65.9,18.2l0.5-4.5l0.7,0.1L67,14.5c0.5-0.5,1-0.7,1.6-0.7l-0.1,0.7c-0.1,0-0.2,0-0.3,0
				c-0.2,0-0.5,0-0.7,0.1s-0.5,0.3-0.6,0.4l-0.3,3.2L65.9,18.2z"/>
			<path fill="#010101" d="M69.1,16.3c0.1-0.7,0.5-1.2,1-1.5s1.1-0.5,1.7-0.4c0.7,0.1,1.1,0.5,1.4,1c0.3,0.5,0.4,1.1,0.2,1.8l0,0.2
				l-3.6-0.7c-0.1,0.4,0,0.8,0.3,1.2c0.2,0.4,0.6,0.6,1,0.7c0.6,0.1,1.1,0,1.5-0.3l0.2,0.5c-0.6,0.4-1.2,0.5-1.9,0.3
				c-0.7-0.1-1.2-0.5-1.5-1C69,17.6,68.9,17,69.1,16.3z M69.8,16.2l2.9,0.6c0.1-0.4,0-0.8-0.2-1.1c-0.2-0.4-0.5-0.6-1-0.7
				c-0.4-0.1-0.8,0-1.1,0.2C70.1,15.5,69.9,15.8,69.8,16.2z"/>
			<path fill="#010101" d="M74.3,19.2c-0.2-0.5-0.2-1.1,0-1.8c0.2-0.7,0.6-1.2,1.1-1.5c0.5-0.3,1-0.3,1.6-0.1c0.6,0.2,1,0.6,1.2,1.3
				l0.2-0.7l0.7,0.2l-1.4,4.3c-0.2,0.6-0.6,1-1,1.2s-1,0.1-1.6-0.1c-0.4-0.1-0.7-0.3-0.9-0.5s-0.4-0.4-0.6-0.8l0.5-0.4
				c0.2,0.5,0.6,0.8,1.2,1.1c0.4,0.1,0.8,0.1,1.1,0c0.3-0.1,0.6-0.4,0.7-0.8l0.2-0.7c-0.2,0.2-0.5,0.3-0.8,0.4
				c-0.3,0.1-0.6,0-0.9-0.1C75,20.1,74.6,19.7,74.3,19.2z M75.1,17.6c-0.2,0.5-0.2,0.9,0,1.3c0.1,0.4,0.4,0.6,0.9,0.8
				c0.3,0.1,0.5,0.1,0.8,0c0.3-0.1,0.5-0.2,0.7-0.3l0.6-1.9c-0.1-0.2-0.2-0.5-0.4-0.7c-0.2-0.2-0.4-0.4-0.7-0.4
				c-0.4-0.1-0.8-0.1-1.2,0.1C75.5,16.8,75.2,17.2,75.1,17.6z"/>
			<path fill="#010101" d="M79.4,20.2l1.4-2.9l0.6,0.3l-1.3,2.7C80,20.6,80,20.9,80,21.1c0.1,0.2,0.3,0.4,0.6,0.5
				c0.2,0.1,0.5,0.2,0.8,0.1c0.3,0,0.5-0.1,0.7-0.2l1.4-3l0.6,0.3l-2,4.1l-0.6-0.3l0.3-0.6c-0.3,0.1-0.6,0.2-0.9,0.2
				c-0.3,0-0.6-0.1-0.9-0.2C79.2,21.7,79,21.1,79.4,20.2z"/>
			<path fill="#010101" d="M83.4,23.7l3.2-5.5l0.6,0.4L84,24L83.4,23.7z"/>
			<path fill="#010101" d="M85.7,23.4c0.3-0.4,0.6-0.6,1-0.6c0.4,0,0.8,0.1,1.1,0.3c0.5,0.4,0.8,0.8,0.9,1.4l0.5-0.7
				c0.2-0.2,0.2-0.5,0.1-0.8s-0.3-0.5-0.5-0.7c-0.5-0.3-1-0.4-1.5-0.3l0-0.6c0.7-0.1,1.3,0,1.9,0.4c0.4,0.3,0.7,0.6,0.8,1
				s0,0.8-0.3,1.2L88,26.7l-0.6-0.4l0.3-0.4c-0.5,0.1-1.1,0-1.6-0.3c-0.3-0.2-0.6-0.6-0.7-1S85.4,23.8,85.7,23.4z M86.3,23.8
				c-0.2,0.2-0.2,0.5-0.2,0.8c0.1,0.3,0.2,0.5,0.5,0.7c0.5,0.3,0.9,0.4,1.4,0.2l0.5-0.7c0-0.5-0.3-0.9-0.7-1.2
				c-0.3-0.2-0.6-0.3-0.8-0.2C86.7,23.4,86.4,23.6,86.3,23.8z"/>
			<path fill="#010101" d="M91.1,24.1l0.4-0.5l0.6,0.5l0.8-0.9l0.5,0.5l-0.8,0.9l0.7,0.6l-0.4,0.5l-0.7-0.6l-1.8,2.2
				c-0.1,0.1-0.2,0.3-0.2,0.4c0,0.1,0,0.2,0.2,0.3c0.2,0.1,0.3,0.2,0.5,0.2l-0.2,0.6c-0.3,0-0.6-0.1-0.8-0.3
				c-0.5-0.4-0.6-0.9-0.1-1.5l1.9-2.3L91.1,24.1z"/>
			<path fill="#010101" d="M92.5,27.4c0.5-0.5,1-0.7,1.7-0.8c0.6,0,1.2,0.2,1.6,0.6c0.5,0.5,0.7,1,0.7,1.6c0,0.6-0.3,1.2-0.8,1.7
				l-0.1,0.1l-2.6-2.6c-0.3,0.3-0.4,0.7-0.4,1.1c0,0.4,0.2,0.8,0.5,1.1c0.4,0.4,0.9,0.6,1.4,0.6l-0.1,0.6c-0.7,0-1.3-0.3-1.8-0.8
				c-0.5-0.5-0.7-1-0.7-1.7C91.7,28.5,92,27.9,92.5,27.4z M93.2,27.7l2.1,2.1c0.3-0.3,0.4-0.6,0.5-1c0-0.4-0.1-0.8-0.5-1.1
				c-0.3-0.3-0.7-0.5-1.1-0.4C93.9,27.3,93.5,27.5,93.2,27.7z"/>
			<path fill="#010101" d="M96.3,31.2c0.6-0.5,1.1-0.7,1.7-0.6c0.6,0,1.1,0.3,1.4,0.7c0.4,0.5,0.5,1.1,0.3,1.7l1.9-1.5l0.4,0.6
				L97.2,36l-0.4-0.6l0.5-0.4c-0.7,0-1.2-0.2-1.6-0.7c-0.4-0.5-0.5-1-0.4-1.6S95.7,31.7,96.3,31.2z M98,31.3c-0.4,0-0.8,0.2-1.2,0.5
				c-0.4,0.3-0.6,0.7-0.7,1.1s0,0.8,0.3,1.1c0.2,0.2,0.4,0.4,0.7,0.5c0.3,0.1,0.5,0.2,0.8,0.1l1.6-1.3c0.1-0.2,0.1-0.5,0.1-0.8
				c0-0.3-0.2-0.5-0.3-0.7C98.8,31.5,98.4,31.3,98,31.3z"/>
			<path fill="#010101" d="M99.2,39l5.5-3l0.3,0.6l-2.1,1.2c0.7,0.1,1.2,0.4,1.5,1c0.3,0.5,0.3,1.1,0.1,1.6c-0.2,0.5-0.6,1-1.3,1.3
				c-0.6,0.3-1.2,0.5-1.8,0.3c-0.6-0.1-1-0.5-1.3-1c-0.3-0.6-0.3-1.1,0-1.7l-0.6,0.3L99.2,39z M100.6,39c-0.1,0.2-0.2,0.5-0.2,0.7
				c0,0.3,0.1,0.6,0.2,0.8c0.2,0.4,0.5,0.6,0.9,0.7c0.4,0.1,0.8,0,1.3-0.3s0.8-0.6,0.9-0.9c0.2-0.4,0.1-0.8-0.1-1.2
				c-0.1-0.2-0.3-0.4-0.6-0.6c-0.2-0.2-0.5-0.2-0.7-0.3L100.6,39z"/>
			<path fill="#010101" d="M105.6,41.3l0.3,0.7l-2.9,2.8l4,0l0.3,0.7l-5.9-0.1c-0.7,0-1.1-0.3-1.4-0.9c-0.1-0.2-0.1-0.3-0.1-0.5
				l0.6-0.1c0,0.1,0,0.3,0.1,0.4c0.1,0.2,0.1,0.3,0.2,0.3c0.1,0.1,0.3,0.1,0.4,0.1l0.8,0L105.6,41.3z"/>
		</g>
	</g>
	<g>
		<path fill="#010201" d="M12.4,74.7l6.8-2.1l0.4,1.2L15,77.5l5.9,0.5l0.4,1.2l-6.8,2.1l-0.3-0.8l5.7-1.7l-6.4-0.6l-0.1-0.3l5-4
			l-5.7,1.7L12.4,74.7z"/>
		<path fill="#010201" d="M16.7,82.5c0.5-0.2,0.9-0.3,1.4-0.1c0.4,0.2,0.7,0.5,0.9,0.9c0.3,0.7,0.4,1.3,0.1,1.8l0.8-0.4
			c0.3-0.1,0.5-0.4,0.6-0.7c0.1-0.3,0-0.6-0.1-1c-0.3-0.6-0.7-0.9-1.4-1.1l0.4-0.6c0.7,0.3,1.3,0.7,1.6,1.5c0.3,0.5,0.3,1,0.2,1.5
			c-0.1,0.5-0.4,0.8-0.9,1.1L17.1,87l-0.3-0.7l0.5-0.3c-0.6-0.2-1.1-0.6-1.4-1.2c-0.2-0.4-0.2-0.9-0.1-1.3
			C15.9,83.1,16.2,82.7,16.7,82.5z M17,83.2c-0.3,0.1-0.5,0.4-0.6,0.7s0,0.6,0.1,1c0.3,0.6,0.7,0.9,1.2,1l0.9-0.4
			c0.2-0.5,0.2-1,0-1.5c-0.2-0.3-0.4-0.6-0.7-0.7C17.6,83.1,17.3,83.1,17,83.2z"/>
		<path fill="#010201" d="M18.1,88.7l6.1-3.6l0.4,0.7l-6.1,3.6L18.1,88.7z"/>
		<path fill="#010201" d="M22.8,88l0.6-0.4l0.5,0.7l1.1-0.8l0.4,0.7l-1.1,0.8l0.6,0.9l-0.6,0.4l-0.6-0.9l-2.6,1.8
			c-0.2,0.1-0.3,0.2-0.3,0.4c0,0.1,0,0.3,0.1,0.4c0.1,0.2,0.3,0.3,0.5,0.3L21,92.7c-0.3-0.1-0.6-0.3-0.8-0.6
			c-0.4-0.6-0.3-1.2,0.3-1.6l2.8-1.9L22.8,88z"/>
		<path fill="#010201" d="M22.6,92.7c0.4-0.3,0.9-0.5,1.3-0.4c0.4,0.1,0.8,0.3,1.1,0.7c0.5,0.6,0.6,1.1,0.6,1.7l0.7-0.6
			c0.3-0.2,0.4-0.5,0.4-0.8c0-0.3-0.1-0.6-0.4-0.9c-0.4-0.5-0.9-0.7-1.6-0.7l0.2-0.6c0.8,0.1,1.4,0.4,1.9,1.1
			c0.4,0.5,0.6,0.9,0.6,1.4c0,0.5-0.2,0.9-0.7,1.3L24.1,97l-0.5-0.6L24,96c-0.6,0-1.2-0.3-1.6-0.9c-0.3-0.4-0.4-0.8-0.4-1.2
			S22.2,93,22.6,92.7z M23.1,93.3c-0.3,0.2-0.4,0.5-0.4,0.8c0,0.3,0.1,0.6,0.3,0.9c0.4,0.5,0.9,0.7,1.4,0.7l0.8-0.6
			c0.1-0.5,0-1-0.4-1.5c-0.2-0.3-0.5-0.5-0.8-0.5C23.6,93,23.3,93.1,23.1,93.3z"/>
		<path fill="#010201" d="M28.9,100.6c-0.1-1,0.2-1.9,0.9-2.7c0.7-0.8,1.5-1.3,2.5-1.4c1-0.1,1.8,0.2,2.6,0.8
			c0.9,0.7,1.3,1.6,1.3,2.8l-0.8-0.1c0-0.4-0.1-0.7-0.2-1.1c-0.2-0.4-0.4-0.7-0.7-0.9c-0.6-0.5-1.3-0.7-2-0.6
			c-0.7,0.1-1.4,0.5-1.9,1.1c-0.5,0.7-0.8,1.4-0.7,2.1c0.1,0.8,0.4,1.4,1,1.9c0.3,0.2,0.6,0.4,1,0.5c0.4,0.1,0.7,0.1,1,0.1l0.9-1.1
			l-1.9-1.5l0.5-0.6l2.6,2.1l-1.6,2c-1.1,0.2-2.1-0.1-2.9-0.8C29.5,102.4,29,101.5,28.9,100.6z"/>
		<path fill="#010201" d="M34.8,104.3c0.3-0.5,0.7-0.7,1.1-0.8s0.9,0,1.3,0.3c0.6,0.4,1,0.9,1.1,1.5l0.5-0.8
			c0.2-0.3,0.2-0.6,0.1-0.9c-0.1-0.3-0.3-0.5-0.6-0.7c-0.5-0.3-1.1-0.4-1.7-0.2l0-0.7c0.8-0.2,1.5-0.1,2.2,0.4
			c0.5,0.3,0.8,0.7,1,1.1c0.2,0.4,0.1,0.9-0.2,1.4l-1.8,3l-0.7-0.4l0.3-0.5c-0.6,0.2-1.2,0.1-1.8-0.3c-0.4-0.2-0.7-0.6-0.8-1
			C34.5,105.2,34.5,104.7,34.8,104.3z M35.5,104.7c-0.2,0.3-0.2,0.6-0.1,0.9c0.1,0.3,0.3,0.6,0.6,0.8c0.5,0.3,1,0.4,1.5,0.2l0.5-0.8
			c0-0.5-0.3-0.9-0.9-1.3c-0.3-0.2-0.6-0.3-1-0.2C35.9,104.3,35.7,104.4,35.5,104.7z"/>
		<path fill="#010201" d="M39.6,109l2-4.7l0.7,0.3l-0.3,0.7c0.2-0.1,0.5-0.2,0.9-0.3c0.4-0.1,0.7,0,1,0.1c0.3,0.1,0.6,0.3,0.7,0.6
			c0.1,0.3,0.2,0.5,0.2,0.8c0.2-0.2,0.6-0.3,0.9-0.4c0.4-0.1,0.7,0,1,0.1c0.9,0.4,1.1,1,0.7,2l-1.4,3.4l-0.7-0.3l1.3-3.2
			c0.3-0.7,0.1-1.1-0.5-1.3c-0.2-0.1-0.5-0.1-0.8-0.1c-0.3,0-0.5,0.1-0.8,0.3l-1.5,3.5l-0.7-0.3l1.3-3.2c0.3-0.7,0.1-1.1-0.5-1.3
			c-0.2-0.1-0.5-0.1-0.8-0.1c-0.3,0-0.5,0.1-0.8,0.3l-1.4,3.4L39.6,109z"/>
		<path fill="#010201" d="M48.1,112.3l1.4-4.9l0.8,0.2l-1.4,4.9L48.1,112.3z M49.8,106.5c-0.1-0.1-0.1-0.3,0-0.4
			c0-0.1,0.1-0.3,0.3-0.3c0.1-0.1,0.3-0.1,0.4,0c0.1,0,0.3,0.1,0.3,0.3c0.1,0.1,0.1,0.3,0,0.4c0,0.1-0.1,0.3-0.3,0.3
			c-0.1,0.1-0.3,0.1-0.4,0C50,106.7,49.9,106.6,49.8,106.5z"/>
		<path fill="#010201" d="M50.8,113l1-5l0.8,0.2l-0.1,0.7c0.2-0.2,0.5-0.4,0.9-0.5s0.7-0.1,1.1-0.1c1.1,0.2,1.5,0.9,1.3,1.9
			l-0.7,3.5l-0.8-0.2l0.6-3.3c0.1-0.4,0-0.7-0.1-1s-0.4-0.4-0.8-0.4c-0.3-0.1-0.6,0-0.9,0.1c-0.3,0.1-0.6,0.2-0.8,0.4l-0.7,3.7
			L50.8,113z"/>
		<path fill="#010201" d="M57.6,113.5c-0.4-0.5-0.6-1.2-0.5-2c0-0.8,0.3-1.4,0.7-1.9c0.5-0.5,1-0.7,1.7-0.6c0.7,0,1.3,0.4,1.7,1
			l0-0.8l0.8,0l-0.3,5.1c0,0.8-0.3,1.3-0.8,1.6c-0.5,0.3-1.1,0.5-1.8,0.4c-0.4,0-0.8-0.1-1.1-0.2s-0.6-0.4-0.9-0.7l0.4-0.6
			c0.4,0.5,0.9,0.7,1.6,0.8c0.5,0,0.9-0.1,1.2-0.3c0.3-0.2,0.5-0.6,0.5-1.1l0-0.8c-0.2,0.3-0.5,0.5-0.8,0.6c-0.3,0.2-0.6,0.2-1,0.2
			C58.5,114.2,58,114,57.6,113.5z M57.9,111.5c0,0.6,0.1,1,0.4,1.4c0.3,0.4,0.7,0.6,1.2,0.6c0.3,0,0.6,0,0.9-0.2
			c0.3-0.1,0.5-0.3,0.7-0.5l0.1-2.2c-0.1-0.2-0.3-0.4-0.6-0.6s-0.6-0.3-0.9-0.3c-0.5,0-0.9,0.1-1.2,0.5S57.9,111,57.9,111.5z"/>
		<path fill="#010201" d="M66.3,114.3l1.7-7.5l1.1-0.2l4,6.5l-1,0.2l-0.9-1.4l-3.5,0.6l-0.4,1.7L66.3,114.3z M67.8,111.6l3-0.5
			l-2.1-3.5L67.8,111.6z"/>
		<path fill="#010201" d="M73.9,111.3l-1.1-3.5l0.8-0.2l1,3.2c0.1,0.4,0.3,0.7,0.6,0.8c0.2,0.1,0.5,0.1,0.9,0
			c0.3-0.1,0.5-0.2,0.8-0.5c0.2-0.2,0.4-0.5,0.5-0.7l-1.1-3.6l0.8-0.2l1.6,4.9l-0.8,0.2l-0.2-0.7c-0.1,0.3-0.3,0.6-0.6,0.8
			c-0.3,0.3-0.6,0.4-0.9,0.5C75,112.7,74.3,112.3,73.9,111.3z"/>
		<path fill="#010201" d="M78,106.9l-0.3-0.7l0.8-0.3l-0.5-1.3l0.7-0.3l0.5,1.3l1-0.4l0.3,0.7l-1,0.4l1.2,2.9
			c0.1,0.2,0.2,0.3,0.3,0.4c0.1,0.1,0.3,0.1,0.4,0c0.2-0.1,0.3-0.2,0.4-0.4l0.5,0.5c-0.1,0.3-0.4,0.5-0.7,0.7
			c-0.7,0.3-1.2,0.1-1.5-0.6l-1.3-3.1L78,106.9z"/>
		<path fill="#010201" d="M83.6,109.2l-3.4-6.2l0.7-0.4l1.3,2.4c0-0.3,0.2-0.6,0.4-0.9c0.2-0.3,0.5-0.6,0.8-0.7
			c1-0.5,1.7-0.3,2.2,0.7l1.7,3.2l-0.7,0.4l-1.6-3c-0.2-0.4-0.4-0.6-0.7-0.7c-0.3-0.1-0.5,0-0.9,0.2c-0.3,0.1-0.5,0.3-0.6,0.6
			s-0.3,0.5-0.3,0.8l1.8,3.3L83.6,109.2z"/>
		<path fill="#010201" d="M89.1,105.3c-0.7-0.2-1.2-0.5-1.7-1.2c-0.4-0.6-0.6-1.3-0.5-2s0.4-1.3,1-1.7c0.6-0.4,1.3-0.6,2-0.4
			c0.7,0.2,1.2,0.5,1.7,1.2c0.4,0.6,0.6,1.3,0.6,2c-0.1,0.7-0.4,1.3-1,1.7C90.4,105.3,89.8,105.4,89.1,105.3z M87.7,102.3
			c0,0.5,0.1,1,0.4,1.4c0.3,0.4,0.7,0.7,1.2,0.9s0.9,0,1.3-0.3s0.7-0.7,0.7-1.2c0-0.5-0.1-1-0.4-1.4c-0.3-0.4-0.7-0.7-1.2-0.9
			c-0.5-0.1-0.9,0-1.3,0.3C87.9,101.4,87.7,101.8,87.7,102.3z"/>
		<path fill="#010201" d="M94.4,102.2L91,98.3l0.6-0.5l0.5,0.6c0-0.8,0.2-1.4,0.7-1.8l0.5,0.6c-0.1,0.1-0.2,0.1-0.2,0.2
			c-0.2,0.2-0.3,0.4-0.4,0.7c-0.1,0.3-0.1,0.6-0.1,0.8l2.4,2.7L94.4,102.2z"/>
		<path fill="#010201" d="M92.9,95.3c-0.1,0-0.3-0.1-0.4-0.2c-0.1-0.1-0.2-0.2-0.2-0.4c0-0.1,0.1-0.3,0.2-0.4
			c0.1-0.1,0.2-0.2,0.4-0.2c0.1,0,0.3,0.1,0.4,0.2c0.1,0.1,0.2,0.2,0.2,0.4c0,0.1-0.1,0.3-0.2,0.4C93.2,95.3,93.1,95.3,92.9,95.3z
			 M97.1,99.6L93.5,96l0.6-0.6l3.6,3.7L97.1,99.6z"/>
		<path fill="#010201" d="M95.3,95.3l-0.5-0.5l0.6-0.6l-1-0.9l0.5-0.6l1,0.9l0.7-0.8l0.5,0.5l-0.7,0.8l2.3,2.1
			c0.1,0.1,0.3,0.2,0.4,0.2c0.1,0,0.3,0,0.4-0.2c0.2-0.2,0.2-0.4,0.2-0.6l0.6,0.2c0,0.3-0.1,0.6-0.4,0.9c-0.5,0.6-1.1,0.6-1.7,0
			l-2.5-2.2L95.3,95.3z"/>
		<path fill="#010201" d="M96.8,92.6l0.5-0.7l4.4,1.2l-2.3-3.9l0.5-0.7l3.3,5.8c0.4,0.6,0.3,1.2-0.1,1.8c-0.1,0.2-0.3,0.3-0.4,0.4
			l-0.5-0.5c0.1-0.1,0.2-0.2,0.3-0.3c0.1-0.1,0.2-0.3,0.2-0.4c0-0.1,0-0.3-0.1-0.5l-0.4-0.7L96.8,92.6z"/>
		<path fill="#010201" d="M106.3,87.9l-6.3-3.2l2.1-4.1l0.7,0.4l-1.7,3.3l2,1l1.7-3.3l0.7,0.4l-1.7,3.3l2.2,1.1l1.7-3.3l0.7,0.4
			L106.3,87.9z"/>
		<path fill="#010201" d="M106.7,81l-4.1-1.4l0.3-0.8l4.1,1.4c0.6,0.2,1.2,0.2,1.6,0s0.8-0.6,1-1.2c0.2-0.6,0.2-1.1-0.1-1.6
			c-0.2-0.5-0.7-0.8-1.3-1l-4.1-1.4l0.3-0.8l4.1,1.4c0.9,0.3,1.4,0.7,1.8,1.4c0.3,0.6,0.3,1.4,0,2.3c-0.3,0.9-0.8,1.5-1.4,1.8
			S107.5,81.3,106.7,81z"/>
	</g>
	<g id="g14">
		<g id="g20" transform="translate(23.8608,6.6631)">
			<path id="path22" fill="#D3282C" d="M16.4,57.2l3.8-10.5L9.3,50.4c-1.2,0.4-0.4-0.6-0.4-0.6l1.7-2.1c0.8-1,2.1-1,2.1-1
				s-1.3,0-2.1-1l-1.7-2.1c0,0-0.8-1,0.4-0.6l10.9,3.7V54c0,0,0,1.3-1,2L17,57.6C17,57.6,15.9,58.4,16.4,57.2 M20.2,39.4v7.3
				l-3.8-10.5C15.9,35,17,35.8,17,35.8l2.2,1.6C20.2,38.2,20.2,39.4,20.2,39.4"/>
		</g>
		<g>
			<g id="g24" transform="translate(173.3643,18.7949)">
				<path id="path26" fill="#C6C7CA" d="M-137.8,61.3h1l0.5-1.3h1.9l0.5,1.3h1.1l-2.2-5.4h-0.8L-137.8,61.3z M-136,59.2l0.4-1.1
					c0.1-0.4,0.2-0.7,0.3-0.8h0c0,0.2,0.1,0.4,0.3,0.8l0.4,1.1H-136z M-130.2,61.4c1,0,1.7-0.3,2-1c0.1-0.3,0.2-0.6,0.2-1V56h-1v3.3
					c0,0.3,0,0.5-0.1,0.7c-0.2,0.4-0.6,0.6-1.1,0.6s-0.9-0.2-1.1-0.6c-0.1-0.2-0.1-0.4-0.1-0.7V56h-1v3.4c0,0.4,0.1,0.8,0.2,1
					C-131.9,61.1-131.2,61.4-130.2,61.4 M-125.7,61.3h1v-4.5h1.4l0.3-0.8h-4.2v0.8h1.6L-125.7,61.3z M-122.3,61.3h1V59h2.6v2.3h1V56
					h-1v2.2h-2.6V56h-1V61.3z M-114.1,61.4c1.6,0,2.7-1.1,2.7-2.7c0-1.6-1.1-2.7-2.7-2.7c-1.6,0-2.7,1.1-2.7,2.7
					C-116.8,60.3-115.6,61.4-114.1,61.4 M-114.1,60.6c-1,0-1.7-0.7-1.7-1.9c0-1.2,0.7-1.9,1.7-1.9c1,0,1.7,0.7,1.7,1.9
					C-112.4,59.9-113.1,60.6-114.1,60.6 M-110.3,61.3h1v-2.1h0.5c0.1,0,0.3,0.3,0.6,0.7l0.8,1.4h1.1l-0.9-1.6
					c-0.3-0.5-0.5-0.8-0.7-0.9v0c0.6-0.2,1-0.7,1-1.4c0-0.5-0.2-1-0.8-1.3c-0.3-0.1-0.6-0.2-1.1-0.2h-1.5L-110.3,61.3L-110.3,61.3z
					 M-109.3,58.4v-1.7h0.4c0.3,0,0.5,0.1,0.6,0.2c0.2,0.1,0.4,0.4,0.4,0.7c0,0.3-0.1,0.6-0.4,0.7c-0.2,0.1-0.3,0.1-0.6,0.1H-109.3z
					 M-105.6,61.3h1V56h-1V61.3z M-102.3,61.3h1v-4.5h1.4l0.3-0.8h-4.2v0.8h1.6V61.3z M-97.4,61.3h1v-2.1l1.8-3.2h-1.1l-1.2,2.4h0
					l-1.3-2.4h-1.1l1.8,3.2L-97.4,61.3L-97.4,61.3z"/>
			</g>
			<g id="g28" transform="translate(173.3643,37.6064)">
				<path id="path30" fill="#C6C7CA" d="M-137.8,35.5h1v-3c0-0.2,0-0.5,0-0.7h0c0.1,0.2,0.3,0.4,0.4,0.6l1.2,1.7h0.4l1.1-1.6
					c0.1-0.1,0.3-0.4,0.4-0.6h0c0,0.2,0,0.5,0,0.7v3h1v-5.4h-0.9l-1.3,2c-0.2,0.3-0.3,0.5-0.4,0.7h0c-0.1-0.2-0.3-0.4-0.4-0.7
					l-1.4-2h-0.9V35.5z M-131.8,35.5h1l0.5-1.3h1.9l0.5,1.3h1.1l-2.2-5.4h-0.8L-131.8,35.5z M-130,33.4l0.4-1.1
					c0.1-0.4,0.2-0.6,0.3-0.8h0c0,0.2,0.1,0.4,0.3,0.8l0.4,1.1H-130z M-126,35.5h2.9v-0.8h-1.9v-4.5h-1V35.5z M-121.9,35.5h1V31h1.4
					l0.3-0.8h-4.2V31h1.6V35.5z M-119.7,35.5h1l0.5-1.3h1.9l0.5,1.3h1.1l-2.2-5.4h-0.8L-119.7,35.5z M-117.9,33.4l0.4-1.1
					c0.1-0.4,0.2-0.6,0.3-0.8h0c0,0.2,0.1,0.4,0.3,0.8l0.4,1.1H-117.9z M-107.8,32.9h-1v1.7c-0.2,0.1-0.5,0.2-0.9,0.2
					c-1.2,0-1.8-0.8-1.8-1.9c0-1.1,0.7-1.9,2-1.9c0.6,0,1.1,0.1,1.5,0.4v-0.9c-0.4-0.1-0.9-0.3-1.6-0.3c-1.8,0-2.9,1.2-2.9,2.8
					c0,1.5,1,2.7,2.8,2.7c0.7,0,1.5-0.2,1.9-0.4L-107.8,32.9L-107.8,32.9z M-107.1,35.5h1l0.5-1.3h1.9l0.5,1.3h1.1l-2.2-5.4h-0.8
					L-107.1,35.5z M-105.3,33.4l0.4-1.1c0.1-0.4,0.2-0.6,0.3-0.8h0c0,0.2,0.1,0.4,0.3,0.8l0.4,1.1H-105.3z M-101.4,35.5h1v-3
					c0-0.2,0-0.5,0-0.7h0c0.1,0.2,0.3,0.4,0.4,0.6l1.2,1.7h0.4l1.1-1.6c0.1-0.1,0.3-0.4,0.4-0.6h0c0,0.2,0,0.5,0,0.7v3h1v-5.4h-0.9
					l-1.3,2c-0.2,0.3-0.3,0.5-0.4,0.7h0c-0.1-0.2-0.3-0.4-0.4-0.7l-1.4-2h-0.9L-101.4,35.5L-101.4,35.5z M-94.7,35.5h1v-5.4h-1V35.5
					z M-87.6,35.5v-5.4h-1v2.9c0,0.3,0,0.6,0,0.9h0c-0.2-0.3-0.4-0.5-0.6-0.8l-2.2-2.9h-1v5.4h1v-3c0-0.3,0-0.6,0-0.8h0
					c0.2,0.2,0.4,0.5,0.6,0.8l2.3,3.1H-87.6z M-81.8,32.9h-1v1.7c-0.2,0.1-0.5,0.2-0.9,0.2c-1.2,0-1.8-0.8-1.8-1.9
					c0-1.1,0.7-1.9,2-1.9c0.6,0,1.1,0.1,1.5,0.4v-0.9c-0.4-0.1-0.9-0.3-1.6-0.3c-1.8,0-2.9,1.2-2.9,2.8c0,1.5,1,2.7,2.8,2.7
					c0.7,0,1.5-0.2,1.9-0.4L-81.8,32.9L-81.8,32.9z"/>
			</g>
		</g>
		<g id="g32" transform="translate(41.1724,18.6543)">
			<path id="path34" fill="#868589" d="M5.4,40.8h3.9v-8.3c0.7-0.5,1.6-0.8,2.3-0.8c1.4,0,1.6,1,1.6,2.2v6.9h3.9v-8v-0.3
				c0.7-0.5,1.6-0.8,2.3-0.8c1.4,0,1.6,1,1.6,2.1v6.9h3.9v-7.9c0-3.4-2.1-4.5-4.3-4.5c-1.3,0-2.8,0.5-4.2,1.7
				c-0.6-1.1-1.8-1.7-3.3-1.7c-1.5,0-2.8,0.7-4,1.5l-0.4-1.2H5.4V40.8L5.4,40.8z M31.7,46.8c4.6,0,6.8-2,6.8-4.1
				c0-4.5-7.9-2.6-7.9-4.6c0-0.1,0-0.3,0.1-0.5c0.4,0.1,0.9,0.2,1.4,0.2c3.1,0,5.3-1.8,5.3-4.5c0-1-0.3-1.9-0.9-2.7
				c0.2-0.1,0.6-0.1,0.7-0.1c0.3,0,0.7,0.1,1,0.1l0.7-2.7c-0.2,0-0.6-0.1-0.9-0.1c-1.7,0-2.5,0.4-3.2,1.1C34.7,29,34.6,29,34.5,29
				c-0.5-0.3-1.4-0.6-2.5-0.6c-3.7,0-5.2,2.4-5.2,4.5c0,1.6,0.7,3.1,2.1,3.8c-1,0.5-1.6,1.4-1.6,2.2c0,0.6,0.3,1.2,0.8,1.5
				c-1.1,0.4-2.1,1.4-2.1,2.8C25.9,45.3,27.9,46.8,31.7,46.8 M32.3,44.2c-1.9,0-3-0.7-3-1.7c0-0.5,0.3-0.9,0.5-1.1
				c1.2,0.6,5.1,0.3,5.1,1.7C34.9,43.9,33.6,44.2,32.3,44.2 M32,34.9c-1.1,0-1.7-0.9-1.7-1.8c0-1.3,0.7-1.9,1.7-1.9
				c1.2,0,1.8,1,1.8,1.9C33.7,34.3,33,34.9,32,34.9 M47.2,40.8h3.2c-0.2-0.7-0.2-1.6-0.2-2.4V33c0-2.9-1.5-4.6-5.3-4.6
				c-1.9,0-3.5,0.5-5,1.2l1.2,2.4c0.9-0.5,2-0.7,3.1-0.7c1.3,0,2.1,0.5,2.1,1.6V33l-1.9,0.1c-1.2,0.1-2.3,0.3-3.2,0.7
				c-1.3,0.7-2,1.7-2,3.3c0,2.3,1.7,4,4.1,4c1.5,0,2.6-0.6,3.4-1.3L47.2,40.8z M46.3,35.4v2.2c-0.3,0.2-0.9,0.4-1.8,0.4
				c-0.9,0-1.5-0.4-1.5-1.3c0-0.5,0.2-0.8,0.5-1c0.3-0.2,0.8-0.3,1.4-0.3L46.3,35.4z"/>
		</g>
	</g>
</g>
</svg>
