<?xml version="1.0" encoding="utf-8"?>
<!-- Generator: Adobe Illustrator 14.0.0, SVG Export Plug-In . SVG Version: 6.00 Build 43363)  -->
<!DOCTYPE svg PUBLIC "-//W3C//DTD SVG 1.0//EN" "http://www.w3.org/TR/2001/REC-SVG-20010904/DTD/svg10.dtd">
<svg version="1.0" id="Layer_1" xmlns="http://www.w3.org/2000/svg" xmlns:xlink="http://www.w3.org/1999/xlink" x="0px" y="0px"
	 width="90px" height="90px" viewBox="0 0 90 90" enable-background="new 0 0 90 90" xml:space="preserve">
<g>
	<g>
		<g id="path3793-4-1-2-0-3_9_">
			<path fill="#2A3052" d="M45,5c22.1,0,40,17.9,40,40c0,22.1-17.9,40-40,40C22.9,85,5,67.1,5,45C5,22.9,22.9,5,45,5 M45,0
				C20.1,0,0,20.1,0,45s20.1,45,45,45s45-20.1,45-45S69.9,0,45,0L45,0z"/>
		</g>
	</g>
	<g>
		<path fill="#3B3A58" d="M46,57.8v-6.8c1.8,0.6,3.1,1.2,4,1.9c0,0,0.1,0.1,0.1,0.1c2-1.4,4.5-2.2,7.1-2.2c1.4,0,2.8,0.3,4,0.7
			c-0.2-1.2-0.5-2.4-1-3.4c-0.9-1.7-2.1-3.1-3.8-4.2c-1.7-1.1-3.3-1.9-4.8-2.5c-1.5-0.6-3.4-1.2-5.6-1.7v-9.9
			c3.5,0.9,6.5,2.4,8.9,4.6l5.5-7.6c-3.8-3.6-8.6-5.7-14.5-6.4v-6.8h-6.6v6.7c-4.6,0.5-8.3,2.1-11,4.8c-2.7,2.7-4.1,5.9-4.1,9.7
			c0,2.4,0.4,4.4,1.3,6.1c0.8,1.7,2.1,3.1,3.7,4.1c1.6,1.1,3.2,1.9,4.7,2.5c1.5,0.6,3.3,1.2,5.5,1.7v11.1c-4.4-0.8-8.1-2.9-11.2-6.1
			l-5.6,7.9c4.4,4.2,10,6.7,16.8,7.2v6.7H46v-6.7c0,0,0.1,0,0.1,0c-0.9-1.8-1.5-3.8-1.5-5.9C44.6,61.5,45.1,59.6,46,57.8z
			 M39.4,38.1c-3.3-1-5-2.4-5-4.1c0-1.2,0.4-2.3,1.3-3.1c0.9-0.8,2.1-1.3,3.7-1.5V38.1z"/>
		<polygon fill="#3B3A58" points="56,64.3 53.8,62.1 52.5,63.5 56,67 62,61 60.6,59.6 		"/>
		<path fill="#3B3A58" d="M57.2,53.4c-5.6,0-10.2,4.6-10.2,10.2c0,5.6,4.6,10.2,10.2,10.2c5.6,0,10.2-4.6,10.2-10.2
			C67.4,57.9,62.9,53.4,57.2,53.4z M57.2,71.8c-4.5,0-8.2-3.7-8.2-8.2c0-4.5,3.7-8.2,8.2-8.2c4.5,0,8.2,3.7,8.2,8.2
			C65.5,68.1,61.8,71.8,57.2,71.8z"/>
	</g>
</g>
</svg>
