<?xml version="1.0" encoding="utf-8"?>
<!-- Generator: Adobe Illustrator 14.0.0, SVG Export Plug-In . SVG Version: 6.00 Build 43363)  -->
<!DOCTYPE svg PUBLIC "-//W3C//DTD SVG 1.0//EN" "http://www.w3.org/TR/2001/REC-SVG-20010904/DTD/svg10.dtd">
<svg version="1.0" id="Layer_1" xmlns="http://www.w3.org/2000/svg" xmlns:xlink="http://www.w3.org/1999/xlink" x="0px" y="0px"
	 width="210px" height="210px" viewBox="0 0 210 210" enable-background="new 0 0 210 210" xml:space="preserve">
<g>
	<g>
		<path fill="#2A3052" d="M103,117.9c3.8,0,7,3.1,7,7v25.6c1.1-1.8,3.1-2.9,5.4-2.9c3.5,0,6.4,2.9,6.4,6.4v0.1c0.9-2.4,3.2-4,5.9-4
			c3.5,0,6.4,2.9,6.4,6.4v1.1c0.9-2.4,3.2-4,5.9-4c3.5,0,6.4,2.9,6.4,6.4v21.3c-0.7,3.5-2.6,8.9-7.4,14.4c-11.3,5-23.8,7.8-37,7.8
			c-1.3,0-2.7,0-4-0.1c-1.7-1.7-3-3.4-4.1-5l-18.7-35.5c-1.8-3.4-0.5-7.6,2.9-9.4c1-0.5,2.1-0.8,3.2-0.8c2.5,0,4.9,1.4,6.2,3.7
			l4.2,8c0.2,0.2,0.9,0.9,2,0.9c0.3,0,0.6-0.1,0.9-0.2c0,0,1-0.5,1.4-1.6v-38.6C96,121.1,99.2,117.9,103,117.9 M103,112.9
			c-6.6,0-12,5.4-12,12v27.7c-2.2-3.1-5.8-4.9-9.7-4.9c-1.9,0-3.8,0.5-5.6,1.4c-2.8,1.5-4.9,4-5.9,7c-0.9,3-0.7,6.3,0.8,9.1
			l18.7,35.5c0.1,0.2,0.2,0.4,0.3,0.6c1.4,2,3,3.9,4.7,5.6c0.9,0.9,2.1,1.4,3.3,1.5c1.5,0.1,2.9,0.1,4.2,0.1c13.6,0,26.7-2.8,39-8.2
			c0.7-0.3,1.3-0.8,1.8-1.3c5.4-6.3,7.6-12.6,8.5-16.7c0.1-0.3,0.1-0.7,0.1-1v-21.3c0-6.3-5.1-11.4-11.4-11.4
			c-1.3,0-2.5,0.2-3.6,0.6c-2.1-2.5-5.2-4.1-8.7-4.1c-1.5,0-3,0.3-4.3,0.8c-2.1-2.1-4.9-3.3-8-3.3c-0.1,0-0.3,0-0.4,0v-17.7
			C115,118.3,109.6,112.9,103,112.9L103,112.9z"/>
	</g>
	<g id="path3793-4-1-2-0-3_17_">
		<path fill="#2A3052" d="M105,8c53.5,0,97,43.5,97,97c0,53.5-43.5,97-97,97c-53.5,0-97-43.5-97-97C8,51.5,51.5,8,105,8 M105,0
			C47,0,0,47,0,105c0,58,47,105,105,105s105-47,105-105C210,47,163,0,105,0L105,0z"/>
	</g>
	<g>
		<g>
			<g>
				<g>
					<rect x="28.6" y="98.3" fill="#2A3052" width="63" height="20.7"/>
				</g>
			</g>
			<g>
				<polygon fill="#FFFFFF" points="82.4,110.9 37.8,110.9 37.8,105.9 82.4,105.9 82.4,110.9 				"/>
			</g>
		</g>
		<g>
			<path fill="#2A3052" d="M58.6,90.1c-2-0.2-3.9-0.7-5.7-1.3s-3.5-1.5-5.1-2.6l3.6-5.3c1.3,0.9,2.5,1.6,3.7,2.2
				c1.2,0.5,2.4,0.9,3.7,1.1v-4.8c-1.6-0.4-3-0.8-4.2-1.3c-1.2-0.5-2.2-1.1-3-1.7c-0.8-0.7-1.4-1.5-1.8-2.4c-0.4-0.9-0.6-2-0.6-3.2
				v-0.1c0-1.2,0.2-2.3,0.6-3.2c0.4-1,1-1.8,1.9-2.6c0.8-0.7,1.8-1.3,3-1.8c1.2-0.5,2.5-0.7,4.1-0.8v-2.3h4.2v2.4
				c1.7,0.2,3.2,0.5,4.6,1.1c1.4,0.5,2.7,1.2,3.9,2L68,70.8c-0.8-0.6-1.7-1.1-2.6-1.5s-1.8-0.7-2.7-0.9V73c1.6,0.4,3,0.8,4.2,1.3
				c1.2,0.5,2.2,1.1,3,1.8c0.8,0.7,1.4,1.5,1.8,2.4c0.4,0.9,0.6,2,0.6,3.2v0.1c0,1.2-0.2,2.3-0.7,3.3c-0.5,1-1.1,1.8-1.9,2.5
				c-0.8,0.7-1.8,1.3-3,1.7s-2.4,0.7-3.9,0.8v3.9h-4.2V90.1z M58.9,68c-1,0.1-1.7,0.3-2.1,0.7c-0.4,0.4-0.6,0.8-0.6,1.3v0.1
				c0,0.5,0.2,1,0.5,1.3s1.1,0.6,2.2,0.9V68z M62.6,84.4c1.8-0.2,2.7-0.9,2.7-2v-0.1c0-0.5-0.2-1-0.6-1.3c-0.4-0.3-1.1-0.7-2.1-1
				V84.4z"/>
		</g>
	</g>
	<g>
		<g>
			<g>
				<g>
					<rect x="118.3" y="98.3" fill="#B6B3C0" width="63" height="20.7"/>
				</g>
			</g>
			<g>
				<polygon fill="#FFFFFF" points="172.1,110.9 127.4,110.9 127.4,105.9 172.1,105.9 172.1,110.9 				"/>
			</g>
		</g>
		<g>
			<path fill="#B6B3C0" d="M148.2,90.1c-2-0.2-3.9-0.7-5.7-1.3c-1.9-0.7-3.5-1.5-5.1-2.6l3.6-5.3c1.3,0.9,2.5,1.6,3.7,2.2
				c1.2,0.5,2.4,0.9,3.7,1.1v-4.8c-1.6-0.4-3-0.8-4.2-1.3c-1.2-0.5-2.2-1.1-3-1.7c-0.8-0.7-1.4-1.5-1.8-2.4c-0.4-0.9-0.6-2-0.6-3.2
				v-0.1c0-1.2,0.2-2.3,0.6-3.2c0.4-1,1-1.8,1.9-2.6c0.8-0.7,1.8-1.3,3-1.8c1.2-0.5,2.5-0.7,4.1-0.8v-2.3h4.2v2.4
				c1.7,0.2,3.2,0.5,4.6,1.1c1.4,0.5,2.7,1.2,3.9,2l-3.3,5.4c-0.8-0.6-1.7-1.1-2.6-1.5s-1.8-0.7-2.7-0.9V73c1.6,0.4,3,0.8,4.2,1.3
				c1.2,0.5,2.2,1.1,3,1.8s1.4,1.5,1.8,2.4c0.4,0.9,0.6,2,0.6,3.2v0.1c0,1.2-0.2,2.3-0.7,3.3c-0.5,1-1.1,1.8-1.9,2.5
				c-0.8,0.7-1.8,1.3-3,1.7c-1.2,0.4-2.4,0.7-3.9,0.8v3.9h-4.2V90.1z M148.5,68c-1,0.1-1.7,0.3-2.1,0.7c-0.4,0.4-0.6,0.8-0.6,1.3
				v0.1c0,0.5,0.2,1,0.5,1.3s1.1,0.6,2.2,0.9V68z M152.2,84.4c1.8-0.2,2.7-0.9,2.7-2v-0.1c0-0.5-0.2-1-0.6-1.3s-1.1-0.7-2.1-1V84.4z
				"/>
		</g>
	</g>
</g>
</svg>
