<?xml version="1.0" encoding="utf-8"?>
<!-- Generator: Adobe Illustrator 14.0.0, SVG Export Plug-In . SVG Version: 6.00 Build 43363)  -->
<!DOCTYPE svg PUBLIC "-//W3C//DTD SVG 1.0//EN" "http://www.w3.org/TR/2001/REC-SVG-20010904/DTD/svg10.dtd">
<svg version="1.0" id="Layer_1" xmlns="http://www.w3.org/2000/svg" xmlns:xlink="http://www.w3.org/1999/xlink" x="0px" y="0px"
	 width="210px" height="210px" viewBox="0 0 210 210" enable-background="new 0 0 210 210" xml:space="preserve">
<g>
	<g id="path3793-4-1-2-0-3_18_">
		<path fill="#2A3052" d="M105,8c53.5,0,97,43.5,97,97c0,53.5-43.5,97-97,97c-53.5,0-97-43.5-97-97C8,51.5,51.5,8,105,8 M105,0
			C47,0,0,47,0,105c0,58,47,105,105,105s105-47,105-105C210,47,163,0,105,0L105,0z"/>
	</g>
	<g>
		<g>
			<polygon fill="#B6B3C0" points="39.7,119.9 68.6,152.2 97.5,119.9 84.7,119.9 84.7,98.2 52.5,98.2 52.5,119.9 			"/>
		</g>
		<g>
			<path fill="#2A3052" d="M125.7,121.6c0.3-0.2,0.6-0.4,1-0.6c1.3-0.7,2.7-1,4.2-1c0.1,0,0.2,0,0.2,0v-5.8c0-4.9,4-9,9-9
				c4.3,0,7.9,3,8.7,7.1V93.6h18l-40.5-45.4L85.7,93.6h18v28H125.7z"/>
		</g>
		<g>
			<path fill="#2A3052" d="M140,111.3c1.6,0,3,1.3,3,3v10.9c0.5-0.8,1.3-1.3,2.3-1.3c1.5,0,2.7,1.2,2.7,2.7v0c0.4-1,1.4-1.7,2.5-1.7
				c1.5,0,2.6,1.1,2.6,2.6l-0.4,1.8c1.2-1.3,1.5-1.4,2.4-1.4c2.2,0,2.5,1.7,2.5,3.2l-7,17.3h-11.7l-10.6-18.1
				c-0.8-1.4-0.2-3.2,1.2-4c0.4-0.2,0.9-0.3,1.4-0.3c1.1,0,2.1,0.6,2.6,1.6l1.8,3.4c0.1,0.1,0.4,0.4,0.9,0.4c0.1,0,0.3,0,0.4-0.1
				c0,0,0.4-0.2,0.6-0.7v-16.4C137.1,112.6,138.4,111.3,140,111.3 M140,108.3c-3.3,0-6,2.7-6,6v9.7c-0.9-0.6-2.1-1-3.2-1
				c-1,0-1.9,0.2-2.8,0.7c-1.4,0.7-2.4,2-2.9,3.5c-0.5,1.5-0.3,3.1,0.4,4.5c0,0,0,0.1,0.1,0.1l10.6,18.1c0.5,0.9,1.5,1.5,2.6,1.5
				h11.7c1.2,0,2.3-0.7,2.8-1.9l7-17.3c0.1-0.4,0.2-0.7,0.2-1.1c0-5.3-3.5-6.1-5.1-6.2c-0.9-1.8-2.8-3-5-3c-0.6,0-1.1,0.1-1.6,0.2
				c-0.8-0.7-1.8-1.1-2.9-1.2v-6.7C146,111,143.3,108.3,140,108.3L140,108.3z"/>
		</g>
	</g>
</g>
</svg>
