<?xml version="1.0" encoding="utf-8"?>
<!-- Generator: Adobe Illustrator 14.0.0, SVG Export Plug-In . SVG Version: 6.00 Build 43363)  -->
<!DOCTYPE svg PUBLIC "-//W3C//DTD SVG 1.0//EN" "http://www.w3.org/TR/2001/REC-SVG-20010904/DTD/svg10.dtd">
<svg version="1.0" id="Layer_1" xmlns="http://www.w3.org/2000/svg" xmlns:xlink="http://www.w3.org/1999/xlink" x="0px" y="0px"
	 width="210px" height="210px" viewBox="0 0 210 210" enable-background="new 0 0 210 210" xml:space="preserve">
<g>
	<g id="path3793-4-1-2-0-3_14_">
		<path fill="#2A3052" d="M105,8c53.5,0,97,43.5,97,97c0,53.5-43.5,97-97,97c-53.5,0-97-43.5-97-97C8,51.5,51.5,8,105,8 M105,0
			C47,0,0,47,0,105c0,58,47,105,105,105s105-47,105-105C210,47,163,0,105,0L105,0z"/>
	</g>
	<g>
		<g>
			<g>
				<g>
					<path fill="#2A3052" d="M166.5,88.1v32.4h-123V88.1H166.5 M172.5,82.1h-135v44.4h135V82.1L172.5,82.1z"/>
				</g>
			</g>
			<circle fill="#3B3A58" cx="55.8" cy="104.4" r="4.5"/>
			<circle fill="#3B3A58" cx="66.8" cy="104.4" r="4.5"/>
			<circle fill="#3B3A58" cx="78.3" cy="104.4" r="4.5"/>
			<line fill="none" stroke="#3B3A58" x1="87.3" y1="94.8" x2="87.3" y2="113.9"/>
		</g>
		<g>
			<g>
				<g>
					<path fill="#C0BDC9" d="M144.4,54.7v19.3H65.6V54.7H144.4 M149.4,49.7H60.6v29.3h88.9V49.7L149.4,49.7z"/>
				</g>
			</g>
			<line fill="none" stroke="#C0BDC9" x1="74.4" y1="58" x2="74.4" y2="70.6"/>
		</g>
		<g>
			<g>
				<g>
					<path fill="#C0BDC9" d="M144.4,136.1v19.3H65.6v-19.3H144.4 M149.4,131.1H60.6v29.3h88.9V131.1L149.4,131.1z"/>
				</g>
			</g>
			<line fill="none" stroke="#C0BDC9" x1="74.4" y1="139.4" x2="74.4" y2="152"/>
		</g>
	</g>
</g>
</svg>
