<?xml version="1.0" encoding="utf-8"?>
<!-- Generator: Adobe Illustrator 14.0.0, SVG Export Plug-In . SVG Version: 6.00 Build 43363)  -->
<!DOCTYPE svg PUBLIC "-//W3C//DTD SVG 1.0//EN" "http://www.w3.org/TR/2001/REC-SVG-20010904/DTD/svg10.dtd">
<svg version="1.0" id="Layer_1" xmlns="http://www.w3.org/2000/svg" xmlns:xlink="http://www.w3.org/1999/xlink" x="0px" y="0px"
	 width="90px" height="90px" viewBox="0 0 90 90" enable-background="new 0 0 90 90" xml:space="preserve">
<g>
	<g id="path3793-4-1-2-0-3_4_">
		<path fill="#3B3A58" d="M45,5c22.1,0,40,17.9,40,40c0,22.1-17.9,40-40,40C22.9,85,5,67.1,5,45C5,22.9,22.9,5,45,5 M45,0
			C20.1,0,0,20.1,0,45s20.1,45,45,45c24.9,0,45-20.1,45-45S69.9,0,45,0L45,0z"/>
	</g>
	<g id="g4468_3_" transform="matrix(2.660706,0,0,2.660706,203.32723,346.42842)">
		<g id="path4470_3_">
			<path fill="#3B3A58" d="M-56.7-121.8c3.6,0,6.6,3,6.6,6.6c0,1.9-0.8,3.7-2.2,4.9l0,0l0,0l-2.6,2.6v-0.9l-1.9,0
				c-3.6,0-6.5-3-6.5-6.6C-63.3-118.9-60.4-121.8-56.7-121.8 M-56.7-123.7c-4.7,0-8.5,3.8-8.5,8.5c0,4.7,3.7,8.4,8.4,8.5v3.6
				l5.8-5.8c1.7-1.6,2.8-3.8,2.8-6.3C-48.2-119.9-52-123.7-56.7-123.7L-56.7-123.7z"/>
		</g>
		<path id="path4472_3_" fill="#3B3A58" d="M-63.8-107v-1l-0.8,0c-2.4,0-4.4-2-4.4-4.4c0-2,1.3-3.7,3.1-4.2c0.1-0.6,0.3-1.3,0.5-1.9
			c-3,0.4-5.3,3-5.3,6.1c0,3.1,2.3,5.6,5.2,6.1v3.5l4.2-4.2c-0.5-0.3-1-0.6-1.4-1L-63.8-107z"/>
	</g>
	<g>
		<path fill="#3B3A58" d="M41.8,41.4c-0.7,0-1.2-0.6-1.2-1.4c0-0.8,0.5-1.4,1.3-1.4c0.7,0,1.2,0.6,1.2,1.4
			C43.1,40.7,42.6,41.4,41.8,41.4L41.8,41.4z"/>
		<path fill="#3B3A58" d="M47.2,41.4c-0.7,0-1.2-0.6-1.2-1.4c0-0.8,0.5-1.4,1.3-1.4c0.7,0,1.2,0.6,1.2,1.4
			C48.4,40.7,48,41.4,47.2,41.4L47.2,41.4z"/>
		<path fill="#3B3A58" d="M52.5,41.4c-0.7,0-1.2-0.6-1.2-1.4c0-0.8,0.5-1.4,1.3-1.4c0.7,0,1.2,0.6,1.2,1.4
			C53.8,40.7,53.3,41.4,52.5,41.4L52.5,41.4z"/>
		<path fill="#3B3A58" d="M57.9,41.4c-0.7,0-1.2-0.6-1.2-1.4c0-0.8,0.5-1.4,1.3-1.4c0.7,0,1.2,0.6,1.2,1.4
			C59.2,40.7,58.7,41.4,57.9,41.4L57.9,41.4z"/>
		<path fill="#3B3A58" d="M63.3,41.4c-0.7,0-1.2-0.6-1.2-1.4c0-0.8,0.5-1.4,1.3-1.4c0.7,0,1.2,0.6,1.2,1.4
			C64.6,40.7,64.1,41.4,63.3,41.4L63.3,41.4z"/>
	</g>
</g>
</svg>
