<svg xmlns="http://www.w3.org/2000/svg" viewBox="0 0 75 50"><path fill="#fff" d="M20.772 39.2h14.043V48H20.772z"/><path fill="#CDCCCC" d="M33.815 40.2V47H21.772v-6.8h12.043m2-2H19.772V49h16.043V38.2z"/><path fill="#fff" d="M39.77 28.69h14.046V48H39.77z"/><path fill="#989898" d="M52.816 29.69V47H40.77V29.69h12.046m2-2H38.77V49h16.046V27.69z"/><path fill="#fff" d="M58.77 17.025h14.046V48H58.77z"/><path fill="#676767" d="M71.816 18.025V47H59.77V18.025h12.046m2-2H57.77V49h16.046V16.025z"/><path fill="#424143" d="M1.185 47.567c0 .49.043.966.11 1.433H16.42c.07-.467.11-.943.11-1.433 0-3.798-2.117-7.028-5.076-8.245 1.314-.785 2.184-2.152 2.184-3.707 0-2.44-2.14-4.418-4.78-4.418-2.642 0-4.778 1.98-4.778 4.418 0 1.555.87 2.922 2.184 3.707-2.96 1.217-5.08 4.448-5.08 8.245"/></svg>