<?xml version="1.0" encoding="utf-8"?>
<!-- Generator: Adobe Illustrator 14.0.0, SVG Export Plug-In . SVG Version: 6.00 Build 43363)  -->
<!DOCTYPE svg PUBLIC "-//W3C//DTD SVG 1.1//EN" "http://www.w3.org/Graphics/SVG/1.1/DTD/svg11.dtd">
<svg version="1.1" id="Layer_1" xmlns="http://www.w3.org/2000/svg" xmlns:xlink="http://www.w3.org/1999/xlink" x="0px" y="0px"
	 width="155px" height="92px" viewBox="0 0 155 92" enable-background="new 0 0 155 92" xml:space="preserve">
<g>
	<g>
		<g>
			<rect x="3.333" y="3.434" fill="#F6F6F6" width="148.333" height="77.271"/>
		</g>
		<text transform="matrix(1 0 0 1 34.7148 29.437)" fill="#E98025" font-family="'ProximaNova-Bold'" font-size="24.8373">Affiliate</text>
		<g>
			<g>
				<path fill="#2F8942" d="M139.161,65.582c0,2.2-1.8,4-4,4H21.335c-2.2,0-4-1.8-4-4V41.673c0-2.2,1.8-4,4-4h113.826
					c2.2,0,4,1.8,4,4V65.582z"/>
			</g>
			<text transform="matrix(1 0 0 1 35.1411 58.6841)" fill="#FFFFFF" font-family="'ProximaNova-Bold'" font-size="15.3078">SIGN ME UP</text>
		</g>
	</g>
	<g>
		<polygon fill="#FFFFFF" points="144.369,87.609 144.937,85.117 145.051,85.051 145.346,84.514 146.04,81.381 146.158,81.297 
			146.364,80.779 146.359,72.781 146.158,72.711 144.901,71.598 142.968,70.881 142.569,70.482 141.941,70.229 139.007,69.383 
			138.468,69.092 136.165,68.537 136.007,66.959 135.529,63.459 135.403,63.303 133.719,62.801 132.935,63.303 132.62,63.654 
			132.082,74.191 131.207,74.146 131,73.902 128.507,73.504 128.132,74.08 128.267,76.105 128.517,76.436 129.614,77.662 
			130.548,79.75 130.721,80.131 131.542,82.045 131.828,82.568 132.732,84.736 132.935,85.051 133.779,87.707 144.369,87.781 		"/>
		<g>
			<polygon fill="#414042" points="145.051,88.566 132.935,88.566 132.935,85.051 134.042,85.051 134.042,87.459 143.944,87.459 
				143.944,85.051 145.051,85.051 145.051,88.566 			"/>
		</g>
		<g>
			<polygon fill="#414042" points="132.935,85.051 131.828,85.051 131.828,82.568 132.935,82.568 132.935,85.051 			"/>
		</g>
		<g>
			<polygon fill="#414042" points="131.828,82.568 130.721,82.568 130.721,80.131 131.828,80.131 131.828,82.568 			"/>
		</g>
		<g>
			<polygon fill="#414042" points="130.721,80.131 129.614,80.131 129.614,77.662 130.721,77.662 130.721,80.131 			"/>
		</g>
		<g>
			<polygon fill="#414042" points="129.614,77.662 128.507,77.662 128.507,76.436 129.614,76.436 129.614,77.662 			"/>
		</g>
		<g>
			<polygon fill="#414042" points="128.517,76.436 127.41,76.436 127.41,72.801 131,72.801 131,73.908 128.517,73.908 
				128.517,76.436 			"/>
		</g>
		<g>
			<polygon fill="#414042" points="132.885,75.01 131,75.01 131,73.902 132.885,73.902 132.885,75.01 			"/>
		</g>
		<g>
			<polygon fill="#414042" points="132.935,76.809 131.828,76.809 131.828,63.303 132.935,63.303 132.935,76.809 			"/>
		</g>
		<g>
			<polygon fill="#414042" points="136.51,74.313 135.403,74.313 135.403,63.303 136.51,63.303 136.51,74.313 			"/>
		</g>
		<g>
			<polygon fill="#414042" points="135.403,63.303 132.935,63.303 132.935,62.195 135.403,62.195 135.403,63.303 			"/>
		</g>
		<g>
			<polygon fill="#414042" points="139.007,69.383 135.792,69.383 135.792,68.275 139.007,68.275 139.007,69.383 			"/>
		</g>
		<g>
			<polygon fill="#414042" points="140.115,74.191 139.007,74.191 139.007,69.383 142.583,69.383 142.583,70.49 140.115,70.49 
				140.115,74.191 			"/>
		</g>
		<g>
			<polygon fill="#414042" points="143.689,75.277 142.583,75.277 142.583,70.49 144.901,70.49 144.901,71.598 143.689,71.598 
				143.689,75.277 			"/>
		</g>
		<g>
			<polygon fill="#414042" points="146.158,72.711 144.901,72.711 144.901,71.604 146.158,71.604 146.158,72.711 			"/>
		</g>
		<g>
			<polygon fill="#414042" points="147.264,81.297 146.158,81.297 146.158,72.711 147.264,72.711 147.264,81.297 			"/>
		</g>
		<g>
			<polygon fill="#414042" points="146.158,85.051 145.051,85.051 145.051,81.297 146.158,81.297 146.158,85.051 			"/>
		</g>
	</g>
</g>
</svg>
