<svg xmlns="http://www.w3.org/2000/svg" viewBox="11.491 11.5 97.018 97" enable-background="new 11.491 11.5 97.018 97"><path fill="#fff" d="M88.034 11.5h-56.06c-11.309 0-20.483 9.176-20.483 20.475v56.051c0 11.291 9.175 20.475 20.483 20.475h56.06c11.28 0 20.475-9.184 20.475-20.475v-56.051c0-11.3-9.195-20.475-20.475-20.475zm17.237 76.525c0 9.484-7.758 17.238-17.237 17.238h-56.06c-9.499 0-17.238-7.754-17.238-17.238v-56.05c0-9.489 7.739-17.257 17.238-17.257h56.06c9.479 0 17.237 7.768 17.237 17.257v56.05z"/><g fill="#fff"><path d="M22.38 39.701h11.318v40.092h-5.461v-35.202h-7.211l1.354-4.89zM45.476 57.263c-1.304-.839-2.247-1.878-2.757-3.095-.543-1.199-.798-2.721-.798-4.54 0-.424.027-.853.104-1.28.041-.424.142-.848.273-1.259.511-1.96 1.695-3.742 3.619-5.359 1.924-1.609 4.649-2.43 8.204-2.43 3.209 0 5.862.993 8.004 2.977 2.156 1.955 3.219 4.33 3.219 7.088v.633c0 1.878-.359 3.392-1.121 4.576-.738 1.14-1.582 2.074-2.508 2.763.793.487 1.514.989 2.12 1.481.633.492 1.147.984 1.563 1.495 1.147 1.193 1.896 2.441 2.232 3.732.342 1.289.506 2.816.506 4.613 0 3.359-1.336 6.186-3.988 8.523-2.685 2.328-6.176 3.504-10.446 3.504-4.12 0-7.22-.797-9.271-2.389-2.064-1.582-3.486-3.373-4.303-5.311-.301-.857-.52-1.682-.66-2.521-.15-.83-.229-1.566-.229-2.256 0-2.207.502-4.129 1.5-5.752.976-1.654 2.402-3.218 4.238-4.754l.246-.164c.105-.06.164-.123.251-.205v-.071h.002zm-.447 10.446c0 2.283.711 4.145 2.101 5.563 1.399 1.412 3.578 2.137 6.573 2.137 2.452 0 4.499-.588 6.099-1.768 1.609-1.148 2.425-2.969 2.425-5.43 0-2.289-.634-4.006-1.869-5.168-1.28-1.141-2.647-1.896-4.184-2.279-.434-.092-.848-.15-1.276-.195-.42-.047-.825-.064-1.194-.064-2.995 0-5.174.752-6.573 2.242-1.39 1.479-2.101 3.154-2.101 5.02l-.001-.058zm2.68-17.712c0 .265.019.52.055.771.051.255.096.501.133.748.305.993.902 1.914 1.868 2.753.957.852 2.271 1.271 3.938 1.271 2.233-.2 3.774-.898 4.563-2.061.807-1.162 1.227-2.457 1.227-3.852 0-.159-.01-.36-.041-.547-.019-.191-.046-.378-.096-.528-.174-.998-.688-1.888-1.555-2.685-.88-.812-2.242-1.208-4.098-1.208-1.637 0-3.04.396-4.212 1.208-1.185.797-1.782 2.196-1.782 4.202v-.072z"/></g><path fill="#fff" d="M70.238 57.519v-7.831h10.447v-10.389h7.769v10.388h10.497v7.831h-10.497v10.364h-7.769v-10.363h-10.447z"/></svg>
