<?xml version="1.0" encoding="utf-8"?>
<!DOCTYPE svg PUBLIC "-//W3C//DTD SVG 1.1//EN" "http://www.w3.org/Graphics/SVG/1.1/DTD/svg11.dtd">
<svg version="1.1" xmlns="http://www.w3.org/2000/svg" viewBox="0 0 95 137" xml:space="preserve">
<path fill="#E98025" d="M47.5,0.475c-26.237,0-47.506,21.27-47.506,47.506c0,16.722,8.642,31.424,21.7,39.889v9.404 c0,5.304,4.339,9.644,9.644,9.644l32.325-3.751c5.304,0,9.644-4.34,9.644-9.645v-5.652c13.059-8.465,21.699-23.167,21.699-39.889 C95.006,21.744,73.736,0.475,47.5,0.475z M73.083,80.765c-1.782,1.394-3.673,2.651-5.669,3.744v6.612v2.4 c0,2.033-1.719,3.752-3.751,3.752l-32.325,3.75c-2.033,0-3.751-1.719-3.751-3.75v-6.152v-6.612 c-1.997-1.093-3.888-2.351-5.671-3.744C12.172,73.141,5.889,61.285,5.889,47.98c0-22.945,18.666-41.613,41.611-41.613 S89.112,25.035,89.112,47.98C89.112,61.285,82.829,73.141,73.083,80.765z"/>
<path fill="#293052" d="M66.666,112.104l-39.884,4.902c-1.909,0.234-3.646-1.123-3.881-3.033 c-0.234-1.907,1.122-3.646,3.031-3.881l39.882-4.902c1.91-0.234,3.648,1.123,3.883,3.033 C69.932,110.131,68.575,111.869,66.666,112.104L66.666,112.104z"/>
<path fill="#293052" d="M66.006,120.863l-36.16,4.445c-1.91,0.234-3.647-1.123-3.883-3.031c-0.234-1.909,1.123-3.646,3.032-3.881 l36.16-4.445c1.909-0.234,3.647,1.122,3.882,3.031C69.272,118.891,67.915,120.629,66.006,120.863L66.006,120.863z"/>
<path fill="#293052" d="M59.495,130.344l-20.738,2.549c-1.909,0.235-3.646-1.123-3.882-3.031 c-0.234-1.909,1.123-3.646,3.033-3.881l20.737-2.55c1.909-0.234,3.647,1.124,3.882,3.032 C62.763,128.372,61.404,130.109,59.495,130.344L59.495,130.344z"/>
<path fill="#293052" d="M53.824,132.411c0,2.271-1.842,4.114-4.113,4.114l0,0c-2.272,0-4.115-1.843-4.115-4.114v-2.302 c0-2.271,1.843-4.113,4.115-4.113l0,0c2.271,0,4.113,1.842,4.113,4.113V132.411z"/>
</svg>