<?xml version="1.0" encoding="utf-8"?>
<!DOCTYPE svg PUBLIC "-//W3C//DTD SVG 1.1//EN" "http://www.w3.org/Graphics/SVG/1.1/DTD/svg11.dtd">
<svg version="1.1" xmlns="http://www.w3.org/2000/svg" viewBox="0 0 213 100" xml:space="preserve">
<path fill="#293052" d="M9.484,78.199c-0.239,0-0.485-0.053-0.715-0.166c-0.803-0.396-1.132-1.367-0.737-2.168L43.637,3.619 c0.272-0.555,0.837-0.904,1.454-0.904s1.182,0.35,1.454,0.904L82.15,75.865c0.396,0.801,0.066,1.771-0.737,2.168 c-0.802,0.393-1.773,0.068-2.17-0.736L45.091,8L10.939,77.297C10.657,77.869,10.083,78.199,9.484,78.199L9.484,78.199z"/>
<path fill="#E6E7E8" d="M44.688,72.418c-14.264,0-25.868-11.607-25.868-25.871c0-14.264,11.604-25.869,25.868-25.869 c14.265,0,25.868,11.605,25.868,25.869C70.557,60.811,58.953,72.418,44.688,72.418L44.688,72.418z"/>
<path fill="#D1D3D4" d="M44.688,21.961c13.558,0,24.587,11.03,24.587,24.586c0,13.554-11.029,24.589-24.587,24.589 c-13.556,0-24.585-11.035-24.585-24.589C20.104,32.992,31.133,21.961,44.688,21.961 M44.688,19.395 c-14.995,0-27.151,12.157-27.151,27.152c0,14.996,12.156,27.15,27.151,27.15c14.996,0,27.151-12.154,27.151-27.15 C71.84,31.552,59.685,19.395,44.688,19.395L44.688,19.395z"/>
<path d="M24.404,47.582v-8.254h2.931v8.187c0,0.989,0.283,1.778,0.848,2.368c0.565,0.586,1.364,0.882,2.396,0.882 c1.032,0,1.828-0.296,2.388-0.882c0.558-0.59,0.838-1.379,0.838-2.368v-8.187h2.931v8.254c0,1.758-0.514,3.159-1.546,4.198 c-1.032,1.045-2.566,1.564-4.604,1.564c-2.04,0-3.579-0.52-4.62-1.564C24.923,50.741,24.404,49.339,24.404,47.582z"/>
<path d="M38.567,51.164l1.612-2.293c1.188,1.256,2.636,1.887,4.347,1.894c0.768,0,1.355-0.148,1.763-0.452 c0.407-0.302,0.611-0.662,0.611-1.09c0-0.373-0.185-0.677-0.55-0.921c-0.367-0.245-0.838-0.438-1.415-0.578 c-0.579-0.14-1.214-0.293-1.909-0.464c-0.696-0.171-1.334-0.385-1.919-0.646c-0.586-0.266-1.073-0.68-1.467-1.245 c-0.392-0.565-0.588-1.258-0.588-2.073c0-1.178,0.467-2.168,1.404-2.969c0.937-0.801,2.183-1.199,3.736-1.199 c2.169,0,3.943,0.634,5.323,1.901l-1.601,2.186c-1.085-1.011-2.417-1.515-3.992-1.507c-0.603,0-1.078,0.121-1.422,0.363 c-0.346,0.244-0.519,0.568-0.519,0.983c0,0.322,0.211,0.596,0.635,0.813c0.423,0.215,0.926,0.395,1.505,0.548 c0.579,0.149,1.212,0.31,1.9,0.484c0.687,0.178,1.308,0.402,1.863,0.676c0.554,0.271,1.02,0.695,1.39,1.261 c0.372,0.572,0.557,1.271,0.557,2.097c0,1.318-0.467,2.385-1.397,3.194c-0.931,0.813-2.279,1.217-4.047,1.217 C41.961,53.338,40.021,52.611,38.567,51.164z"/>
<path d="M51.918,53.09V39.328h5.403c2.155,0,3.902,0.634,5.25,1.899c1.348,1.269,2.021,2.925,2.021,4.974 c0,2.077-0.674,3.741-2.016,5c-1.345,1.262-3.089,1.889-5.235,1.889H51.918z M54.849,50.512h2.5c1.323,0,2.372-0.413,3.147-1.24 c0.778-0.827,1.164-1.852,1.164-3.071c0-1.252-0.374-2.277-1.123-3.085c-0.751-0.807-1.805-1.21-3.169-1.21h-2.52V50.512z"/>
<path fill="#293052" d="M123.298,81.457c0.373,0.404,1.129,0.734,1.679,0.734h75.742c0.55,0,1.306-0.33,1.679-0.734l4.553-6.867 c0.249-0.491,0.002-0.893-0.548-0.893h-87.109c-0.55,0-0.797,0.401-0.548,0.893L123.298,81.457z"/>
<path fill="#293052" d="M127.241,78.199c-0.24,0-0.484-0.053-0.715-0.166c-0.803-0.396-1.134-1.367-0.737-2.168l35.604-72.247 c0.273-0.555,0.836-0.904,1.453-0.904c0.618,0,1.182,0.35,1.455,0.904l35.606,72.247c0.396,0.801,0.064,1.771-0.738,2.168 c-0.801,0.393-1.774,0.068-2.17-0.736L162.847,8l-34.15,69.296C128.414,77.869,127.839,78.199,127.241,78.199L127.241,78.199z"/>
<path fill="#E6E7E8" d="M163.146,72.395c-8.268,0-14.993-6.723-14.993-14.99c0-8.272,6.726-15,14.993-15 c8.269,0,14.995,6.728,14.995,15C178.142,65.672,171.415,72.395,163.146,72.395L163.146,72.395z"/>
<path fill="#D1D3D4" d="M163.146,43.833c7.482,0,13.568,6.084,13.568,13.571c0,7.479-6.086,13.566-13.568,13.566 c-7.48,0-13.568-6.088-13.568-13.566C149.578,49.917,155.666,43.833,163.146,43.833 M163.146,40.978 c-9.07,0-16.422,7.354-16.422,16.426c0,9.066,7.352,16.42,16.422,16.42c9.072,0,16.425-7.354,16.425-16.42 C179.571,48.333,172.219,40.978,163.146,40.978L163.146,40.978z"/>
<path d="M153.248,60.412l0.71-1.23c0.377,0.367,0.78,0.551,1.208,0.557c0.357,0,0.646-0.117,0.863-0.338 c0.217-0.225,0.325-0.521,0.325-0.893v-5.102h1.623v5.113c0,0.867-0.244,1.525-0.729,1.975c-0.49,0.445-1.137,0.672-1.942,0.672 C154.443,61.16,153.756,60.908,153.248,60.412z"/>
<path d="M159.484,61.029v-7.623h3.545c0.796,0,1.417,0.234,1.871,0.705c0.45,0.467,0.677,1.051,0.677,1.748 c0,0.693-0.229,1.273-0.682,1.744c-0.454,0.471-1.074,0.707-1.859,0.707h-1.927v2.719H159.484z M161.109,56.881h1.711 c0.327,0,0.599-0.092,0.812-0.281c0.214-0.189,0.32-0.434,0.32-0.74c0-0.309-0.106-0.563-0.32-0.746 c-0.213-0.184-0.484-0.279-0.812-0.279h-1.711V56.881z"/>
<path d="M165.749,53.406h1.852l1.886,3.053l1.881-3.053h1.84l-2.913,4.5v3.123h-1.622v-3.123L165.749,53.406z"/>
<path fill="#E6E7E8" d="M130.255,72.395c-8.27,0-14.994-6.723-14.994-14.99c0-8.272,6.725-15,14.994-15 c8.268,0,14.994,6.728,14.994,15C145.249,65.672,138.522,72.395,130.255,72.395L130.255,72.395z"/>
<path fill="#D1D3D4" d="M130.255,43.833c7.48,0,13.567,6.084,13.567,13.571c0,7.479-6.087,13.566-13.567,13.566 c-7.481,0-13.567-6.088-13.567-13.566C116.688,49.917,122.773,43.833,130.255,43.833 M130.255,40.978 c-9.071,0-16.423,7.354-16.423,16.426c0,9.066,7.352,16.42,16.423,16.42s16.423-7.354,16.423-16.42 C146.678,48.333,139.326,40.978,130.255,40.978L130.255,40.978z"/>
<path d="M119.841,61.029v-7.623h5.394v1.428h-3.771v1.6h3.687v1.428h-3.687v1.736h3.771v1.432H119.841z"/>
<path d="M126.494,57.975v-4.568h1.623v4.533c0,0.545,0.158,0.984,0.47,1.307c0.312,0.326,0.755,0.492,1.325,0.492 c0.572,0,1.014-0.166,1.321-0.492c0.312-0.322,0.467-0.762,0.467-1.307v-4.533h1.622v4.568c0,0.975-0.286,1.752-0.855,2.328 c-0.572,0.574-1.421,0.863-2.551,0.863c-1.128,0-1.98-0.289-2.556-0.863C126.782,59.727,126.494,58.949,126.494,57.975z"/>
<path d="M134.878,61.029v-7.623h3.538c0.777,0,1.4,0.227,1.862,0.686c0.46,0.457,0.692,1.047,0.692,1.768 c0,0.623-0.162,1.131-0.485,1.521c-0.32,0.387-0.704,0.637-1.148,0.744l1.722,2.904h-1.875l-1.494-2.709h-1.187v2.709H134.878z M136.503,56.893h1.712c0.327,0,0.598-0.094,0.811-0.281c0.214-0.188,0.321-0.445,0.321-0.764c0-0.305-0.107-0.551-0.321-0.734 c-0.213-0.184-0.483-0.279-0.811-0.279h-1.712V56.893z"/>
<path fill="#E6E7E8" d="M196.039,72.395c-8.269,0-14.994-6.723-14.994-14.99c0-8.272,6.726-15,14.994-15 c8.27,0,14.995,6.728,14.995,15C211.034,65.672,204.309,72.395,196.039,72.395L196.039,72.395z"/>
<path fill="#D1D3D4" d="M196.039,43.833c7.481,0,13.568,6.084,13.568,13.571c0,7.479-6.087,13.566-13.568,13.566 s-13.566-6.088-13.566-13.566C182.473,49.917,188.558,43.833,196.039,43.833 M196.039,40.978 c-9.071,0-16.424,7.354-16.424,16.426c0,9.066,7.353,16.42,16.424,16.42c9.072,0,16.425-7.354,16.425-16.42 C212.464,48.333,205.111,40.978,196.039,40.978L196.039,40.978z"/>
<path d="M184.564,57.217c0-1.162,0.379-2.109,1.134-2.842c0.758-0.73,1.722-1.098,2.889-1.098c1.423,0,2.481,0.617,3.174,1.85 l-1.395,0.688c-0.168-0.32-0.413-0.586-0.735-0.793c-0.324-0.211-0.671-0.316-1.044-0.316c-0.691,0-1.267,0.236-1.718,0.709 c-0.454,0.475-0.682,1.076-0.682,1.803c0,0.73,0.227,1.332,0.678,1.807c0.452,0.477,1.026,0.715,1.722,0.715 c0.373,0,0.72-0.107,1.044-0.318c0.322-0.211,0.567-0.477,0.735-0.799l1.395,0.678c-0.707,1.246-1.764,1.867-3.174,1.867 c-1.165,0-2.127-0.371-2.884-1.105C184.945,59.324,184.564,58.373,184.564,57.217z"/>
<path d="M191.895,61.029l2.935-7.623h2.036l2.933,7.623h-1.839l-0.48-1.291h-3.265l-0.479,1.291H191.895z M194.656,58.311h2.376 l-1.188-3.279L194.656,58.311z"/>
<path d="M200.501,61.029v-7.623h2.994c1.19,0,2.16,0.35,2.906,1.051c0.745,0.703,1.118,1.619,1.118,2.754 c0,1.148-0.373,2.072-1.117,2.768c-0.744,0.699-1.708,1.051-2.896,1.051H200.501z M202.126,59.598h1.381 c0.734,0,1.317-0.229,1.746-0.686c0.43-0.459,0.644-1.023,0.644-1.701c0-0.693-0.208-1.264-0.622-1.707 c-0.415-0.445-0.999-0.67-1.755-0.67h-1.394V59.598z"/>
<path fill="#E6E7E8" d="M178.807,44.373c-8.267,0-14.993-6.728-14.993-14.997s6.727-14.996,14.993-14.996 c8.27,0,14.997,6.727,14.997,14.996S187.076,44.373,178.807,44.373L178.807,44.373z"/>
<path fill="#D1D3D4" d="M178.807,15.81c7.484,0,13.569,6.085,13.569,13.565c0,7.483-6.085,13.569-13.569,13.569 c-7.478,0-13.566-6.086-13.566-13.569C165.24,21.895,171.329,15.81,178.807,15.81 M178.807,12.953 c-9.069,0-16.421,7.355-16.421,16.423c0,9.072,7.352,16.425,16.421,16.425c9.073,0,16.424-7.353,16.424-16.425 C195.23,20.308,187.88,12.953,178.807,12.953L178.807,12.953z"/>
<path d="M166.778,32.999l2.935-7.619h2.035l2.936,7.619h-1.842l-0.479-1.288h-3.265l-0.479,1.288H166.778z M169.54,30.282h2.376 l-1.188-3.277L169.54,30.282z"/>
<path d="M175.007,29.95v-4.57h1.623v4.535c0,0.545,0.155,0.983,0.47,1.309c0.313,0.325,0.755,0.487,1.326,0.487 c0.57,0,1.012-0.162,1.32-0.487s0.464-0.764,0.464-1.309v-4.535h1.623v4.57c0,0.977-0.285,1.748-0.854,2.325 c-0.571,0.576-1.421,0.864-2.55,0.864c-1.128,0-1.982-0.288-2.557-0.864C175.296,31.698,175.007,30.926,175.007,29.95z"/>
<path d="M183.391,32.999v-7.619h2.994c1.189,0,2.159,0.352,2.903,1.051c0.748,0.703,1.12,1.618,1.12,2.754 c0,1.15-0.372,2.076-1.116,2.771c-0.744,0.699-1.71,1.043-2.898,1.043H183.391z M185.013,31.572h1.385 c0.731,0,1.313-0.227,1.742-0.687c0.431-0.457,0.645-1.023,0.645-1.701c0-0.689-0.207-1.261-0.621-1.708 c-0.414-0.445-1-0.668-1.754-0.668h-1.396V31.572z"/>
<path fill="#E6E7E8" d="M146.723,44.373c-8.269,0-14.996-6.728-14.996-14.997s6.728-14.996,14.996-14.996 c8.27,0,14.996,6.727,14.996,14.996S154.992,44.373,146.723,44.373L146.723,44.373z"/>
<path fill="#D1D3D4" d="M146.723,15.81c7.48,0,13.569,6.085,13.569,13.565c0,7.483-6.089,13.569-13.569,13.569 c-7.481,0-13.566-6.086-13.566-13.569C133.156,21.895,139.241,15.81,146.723,15.81 M146.723,12.953 c-9.069,0-16.421,7.355-16.421,16.423c0,9.072,7.352,16.425,16.421,16.425c9.073,0,16.424-7.353,16.424-16.425 C163.146,20.308,155.796,12.953,146.723,12.953L146.723,12.953z"/>
<path d="M135.669,29.198c0-1.179,0.385-2.13,1.158-2.854c0.77-0.729,1.728-1.09,2.866-1.09c1.381,0,2.431,0.562,3.144,1.691 l-1.338,0.738c-0.191-0.294-0.442-0.535-0.761-0.719c-0.316-0.192-0.663-0.282-1.045-0.282c-0.69,0-1.266,0.236-1.72,0.712 c-0.454,0.472-0.682,1.073-0.682,1.804c0,0.731,0.227,1.334,0.68,1.809c0.451,0.471,1.026,0.704,1.722,0.704 c0.314,0,0.618-0.058,0.914-0.172c0.296-0.118,0.529-0.251,0.695-0.412v-0.915h-2.008v-1.428h3.632v2.938 c-0.852,0.943-1.93,1.417-3.233,1.417c-1.137,0-2.091-0.363-2.866-1.092C136.058,31.319,135.669,30.37,135.669,29.198z"/>
<path d="M144.255,32.999v-7.619h3.988c0.688,0,1.224,0.189,1.606,0.566c0.383,0.378,0.573,0.835,0.573,1.375 c0,0.456-0.121,0.847-0.368,1.161c-0.245,0.316-0.549,0.51-0.912,0.585c0.404,0.06,0.743,0.268,1.019,0.623 c0.274,0.354,0.413,0.766,0.413,1.24c0,0.604-0.192,1.097-0.574,1.486c-0.383,0.393-0.926,0.582-1.629,0.582H144.255z M145.878,28.41h2.036c0.272,0,0.492-0.074,0.647-0.219c0.159-0.146,0.238-0.34,0.238-0.585c0-0.235-0.079-0.426-0.239-0.575 c-0.16-0.147-0.375-0.223-0.646-0.223h-2.036V28.41z M145.878,31.572h2.103c0.306,0,0.543-0.074,0.714-0.227 c0.171-0.154,0.258-0.367,0.258-0.642c0-0.252-0.087-0.461-0.258-0.623c-0.171-0.164-0.408-0.243-0.714-0.243h-2.103V31.572z"/>
<path d="M151.825,32.999v-7.619h3.544c0.796,0,1.419,0.235,1.869,0.702c0.451,0.471,0.678,1.054,0.678,1.755 c0,0.689-0.228,1.272-0.682,1.741c-0.454,0.468-1.074,0.704-1.859,0.704h-1.928v2.717H151.825z M153.447,28.856h1.713 c0.328,0,0.598-0.094,0.812-0.281c0.214-0.188,0.321-0.435,0.321-0.738c0-0.316-0.107-0.564-0.321-0.75 c-0.214-0.187-0.483-0.278-0.812-0.278h-1.713V28.856z"/>
<path fill="#293052" d="M171.313,8.117H36.624c-2.089,0-3.781-1.693-3.781-3.783c0-2.088,1.692-3.781,3.781-3.781h134.689 c2.089,0,3.781,1.693,3.781,3.781C175.095,6.423,173.402,8.117,171.313,8.117L171.313,8.117z"/>
<path fill="#293052" d="M171.313,99.447H36.624c-2.387,0-4.322-1.936-4.322-4.32s1.936-4.324,4.322-4.324h134.689 c2.387,0,4.322,1.939,4.322,4.324S173.7,99.447,171.313,99.447L171.313,99.447z"/>
<path fill="#293052" d="M100.187,98.268V5.414c0-2.087,1.693-3.783,3.782-3.783s3.78,1.696,3.78,3.783v92.854"/>
<path fill="#293052" d="M5.224,81.421c0.351,0.424,1.087,0.771,1.637,0.771h76.458c0.55,0,1.287-0.347,1.637-0.771l4.249-6.825 c0.242-0.494-0.01-0.898-0.56-0.898H1.536c-0.55,0-0.802,0.404-0.56,0.898L5.224,81.421z"/>
</svg>
