<?xml version="1.0" encoding="utf-8"?>
<!-- Generator: Adobe Illustrator 14.0.0, SVG Export Plug-In . SVG Version: 6.00 Build 43363)  -->
<!DOCTYPE svg PUBLIC "-//W3C//DTD SVG 1.1//EN" "http://www.w3.org/Graphics/SVG/1.1/DTD/svg11.dtd">
<svg version="1.1" id="Layer_1" xmlns="http://www.w3.org/2000/svg" xmlns:xlink="http://www.w3.org/1999/xlink" x="0px" y="0px"
	 width="135px" height="100px" viewBox="0 0 135 100" enable-background="new 0 0 135 100" xml:space="preserve">
<g>
	<g>
		<rect x="37.604" y="36.168" fill="#084CA1" width="97.207" height="63.832"/>
		<path fill="#FFFFFF" d="M134.812,36.168h-12.163L97.324,52.773c0-7.018,0-16.605,0-16.605H75.021c0,0,0,10.229,0,17.288
			L48.253,36.168H37.604v8.631l19.199,12.46c-9.658,0-19.199,0-19.199,0v22.114c0,0,9.439,0,19.043,0L37.604,91.921V100h12.599
			l24.818-16.335c0,6.901,0,16.335,0,16.335h22.303c0,0,0-9.697,0-16.621L122.965,100h11.847v-7.988l-19.511-12.639
			c9.77,0,19.511,0,19.511,0V57.259c0,0-9.677,0-19.413,0l19.413-12.768V36.168z"/>
		<g>
			<path fill="#ED1C24" d="M68.896,57.259L37.604,36.168v5.566l23.379,15.524C63.814,57.259,66.536,57.259,68.896,57.259z"/>
			<path fill="#ED1C24" d="M103.563,79.373L134.812,100l0,0v-5.178l-23.335-15.449C108.646,79.373,105.926,79.373,103.563,79.373z"
				/>
			<path fill="#ED1C24" d="M75.021,79.373c-1.444,0-3.714,0-6.436,0L37.604,100l0,0h7.42l29.997-19.615
				C75.021,80.027,75.021,79.689,75.021,79.373z"/>
			<path fill="#ED1C24" d="M97.324,57.259c1.36,0,3.464,0,5.994,0l31.493-20.575v-0.516h-7.088L97.324,55.957
				C97.324,56.421,97.324,56.857,97.324,57.259z"/>
		</g>
		<polygon fill="#ED1C24" points="134.812,61.951 92.545,61.951 92.545,36.168 79.8,36.168 79.8,61.951 37.604,61.951 37.604,74.68 
			79.8,74.68 79.8,100 92.545,100 92.545,74.68 134.812,74.68 		"/>
	</g>
	<rect x="37.604" y="36.168" opacity="0.5" fill="#3C2415" width="62.818" height="30.941"/>
	<g>
		<rect x="0.188" width="97.206" height="21.276"/>
		<rect x="0.188" y="42.553" fill="#FCB131" width="97.206" height="21.279"/>
		<rect x="0.188" y="21.276" fill="#ED1C2E" width="97.206" height="21.276"/>
	</g>
</g>
</svg>
