<?xml version="1.0" encoding="utf-8"?>
<!-- Generator: Adobe Illustrator 14.0.0, SVG Export Plug-In . SVG Version: 6.00 Build 43363)  -->
<!DOCTYPE svg PUBLIC "-//W3C//DTD SVG 1.1//EN" "http://www.w3.org/Graphics/SVG/1.1/DTD/svg11.dtd">
<svg version="1.1" id="Layer_1" xmlns="http://www.w3.org/2000/svg" xmlns:xlink="http://www.w3.org/1999/xlink" x="0px" y="0px"
	 width="234px" height="80px" viewBox="0 0 234 80" enable-background="new 0 0 234 80" xml:space="preserve">
<g>
	<g>
		<path fill="#E88024" d="M155.014,70.522l-37.667-5.745c-0.902-2.2-2.967-3.834-5.501-4.055c-3.61-0.318-6.796,2.354-7.111,5.966
			c-0.318,3.614,2.354,6.798,5.966,7.112c2.531,0.223,4.849-1.025,6.119-3.034l38.095,0.892c0.305,0.012,0.565-0.218,0.593-0.521
			C155.531,70.834,155.316,70.563,155.014,70.522z"/>
	</g>
	<g>
		<path fill="#E88024" d="M208.964,72.982l-24.39-3.719c-0.584-1.427-1.922-2.484-3.562-2.628c-2.339-0.205-4.399,1.524-4.604,3.864
			s1.524,4.401,3.862,4.604c1.64,0.144,3.141-0.664,3.963-1.965l24.666,0.577c0.197,0.008,0.366-0.14,0.384-0.337
			C209.299,73.183,209.158,73.008,208.964,72.982z"/>
	</g>
	<g>
		<path fill="#FFFFFF" d="M113.575,21.101v-8.136c0-1.261-1.022-2.283-2.283-2.283s-2.283,1.022-2.283,2.283v8.136
			c0,1.26,1.022,2.283,2.283,2.283S113.575,22.361,113.575,21.101z"/>
		<path fill="#FFFFFF" d="M170.493,69.882h-7.869c-1.263,0-2.284,1.022-2.284,2.283c0,1.262,1.021,2.284,2.284,2.284h7.869
			c1.261,0,2.284-1.022,2.284-2.284C172.777,70.904,171.754,69.882,170.493,69.882z"/>
		<path fill="#FFFFFF" d="M60.057,69.882h-7.87c-1.262,0-2.284,1.022-2.284,2.283c0,1.262,1.022,2.284,2.284,2.284h7.87
			c1.26,0,2.282-1.022,2.282-2.284C62.339,70.904,61.316,69.882,60.057,69.882z"/>
		<path fill="#FFFFFF" d="M151.538,28.691l-5.148,5.148c-0.893,0.892-0.893,2.337,0,3.229c0.446,0.447,1.031,0.669,1.615,0.669
			c0.583,0,1.168-0.223,1.614-0.669l5.148-5.148c0.892-0.892,0.892-2.337,0-3.229C153.875,27.8,152.431,27.8,151.538,28.691z"/>
		<path fill="#FFFFFF" d="M130.795,27.809c0.659,0,1.288-0.382,1.569-1.023l3.695-8.397c0.381-0.867-0.013-1.877-0.878-2.259
			c-0.869-0.378-1.877,0.014-2.257,0.878l-3.696,8.398c-0.381,0.867,0.013,1.877,0.878,2.259
			C130.332,27.761,130.566,27.809,130.795,27.809z"/>
		<path fill="#FFFFFF" d="M66.237,51.063l-8.748-3.678c-0.872-0.369-1.876,0.043-2.242,0.916c-0.367,0.872,0.044,1.875,0.916,2.241
			l8.746,3.678c0.217,0.092,0.442,0.134,0.663,0.134c0.669,0,1.305-0.393,1.58-1.05C67.519,52.434,67.108,51.43,66.237,51.063z"/>
		<path fill="#FFFFFF" d="M92.834,27.809c0.218,0,0.438-0.042,0.653-0.13c0.873-0.36,1.289-1.362,0.929-2.237l-3.651-8.845
			c-0.361-0.875-1.358-1.289-2.236-0.93c-0.874,0.36-1.291,1.362-0.93,2.236l3.651,8.846C91.522,27.411,92.161,27.809,92.834,27.809
			z"/>
		<path fill="#FFFFFF" d="M180.652,28.938c-4.491,0-8.829,0.663-12.932,1.879C154.861,13.638,134.354,2.5,111.291,2.5
			c-22.255,0-42.129,10.375-55.048,26.539c-0.959-0.06-1.924-0.101-2.896-0.101c-25.151,0-45.614,20.462-45.614,45.613v1.101
			c0,1.02,0.827,1.848,1.849,1.848c1.021,0,1.847-0.828,1.847-1.848v-1.101c0-23.113,18.805-41.918,41.919-41.918
			c0.067,0,0.133,0.005,0.201,0.005c-3.028,4.327-5.584,9.005-7.591,13.964c-10.39,3.135-18.178,12.632-18.178,23.504h0.37
			c0-10.608,7.532-19.886,17.626-23.059c-3.181,8.02-4.933,16.758-4.933,25.897v1.699c0,1.576,1.278,2.854,2.854,2.854
			c1.577,0,2.854-1.278,2.854-2.854v-1.699c0-9.65,2.126-18.811,5.929-27.045c0.058-0.125,0.116-0.25,0.175-0.375
			c0.576-1.23,1.19-2.439,1.842-3.626c0.101-0.126,0.183-0.269,0.238-0.425c1.619-2.9,3.454-5.663,5.485-8.268
			c0.867-1.113,1.772-2.196,2.71-3.249c11.865-13.334,29.147-21.75,48.36-21.75c20.586,0,38.957,9.659,50.823,24.681
			c0.781,0.989,1.531,2.003,2.255,3.037c0.409,0.583,0.807,1.173,1.194,1.769c1.493,2.29,2.848,4.678,4.045,7.155
			c0.42,0.866,0.818,1.743,1.199,2.63c0.049,0.112,0.098,0.225,0.146,0.338c3.268,7.729,5.076,16.222,5.076,25.128v1.699
			c0,1.576,1.278,2.854,2.854,2.854s2.854-1.278,2.854-2.854v-1.699c0-9.449-1.873-18.47-5.264-26.71
			c1.363-0.23,2.758-0.357,4.178-0.357c13.727,0,25.322,11.097,25.322,24.229h0.369c0-13.333-11.765-24.598-25.691-24.598
			c-1.469,0-2.911,0.134-4.321,0.377c-1.743-4.176-3.877-8.145-6.356-11.87c3.411-0.899,6.988-1.383,10.678-1.383
			c23.114,0,41.92,18.805,41.92,41.918v1.101c0,1.02,0.826,1.848,1.848,1.848c1.021,0,1.848-0.828,1.848-1.848v-1.101
			C226.268,49.4,205.805,28.938,180.652,28.938z"/>
		<path fill="#FFFFFF" d="M162.758,53.245l4.073-1.593c0.881-0.344,1.316-1.338,0.973-2.218c-0.005-0.014-0.014-0.024-0.019-0.035
			c-0.048-0.116-0.109-0.225-0.179-0.322c-0.444-0.633-1.272-0.906-2.021-0.615l-7.708,3.013l-0.729,0.285
			c-0.03,0.013-0.058,0.031-0.087,0.044c-0.819,0.376-1.217,1.325-0.886,2.175c0.264,0.677,0.912,1.09,1.596,1.09
			c0.207,0,0.419-0.038,0.624-0.117l3.518-1.375L162.758,53.245z"/>
		<path fill="#FFFFFF" d="M179.177,35.714v5.267c0,0.816,0.661,1.479,1.477,1.479c0.817,0,1.479-0.662,1.479-1.479v-5.267
			c0-0.817-0.661-1.479-1.479-1.479C179.838,34.236,179.177,34.897,179.177,35.714z"/>
		<path fill="#FFFFFF" d="M218.986,72.567h-5.096c-0.816,0-1.479,0.662-1.479,1.479c0,0.816,0.662,1.478,1.479,1.478h5.096
			c0.816,0,1.479-0.661,1.479-1.478C220.465,73.229,219.803,72.567,218.986,72.567z"/>
		<path fill="#FFFFFF" d="M206.712,45.898l-3.332,3.332c-0.578,0.578-0.578,1.513,0,2.091c0.289,0.289,0.666,0.433,1.045,0.433
			s0.757-0.144,1.047-0.433l3.332-3.334c0.578-0.577,0.578-1.513,0-2.089C208.227,45.319,207.291,45.319,206.712,45.898z"/>
		<path fill="#FFFFFF" d="M194.661,38.331l-2.394,5.438c-0.247,0.562,0.009,1.216,0.569,1.464c0.146,0.063,0.296,0.094,0.446,0.094
			c0.427,0,0.832-0.247,1.015-0.663l2.394-5.438c0.247-0.561-0.008-1.216-0.569-1.462C195.56,37.518,194.906,37.771,194.661,38.331z
			"/>
		<path fill="#FFFFFF" d="M150.413,59.934c-0.642-3.597-1.827-7.042-3.48-10.248c-0.608-1.18-1.282-2.325-2.012-3.435
			c-7.086-10.802-19.649-18.158-33.63-18.158c-10.978,0-21.074,4.584-28.313,11.821c-0.874,0.873-1.704,1.784-2.49,2.731
			c-1.7,2.048-3.189,4.26-4.432,6.606c-0.205,0.213-0.337,0.471-0.39,0.742c-0.829,1.655-1.538,3.37-2.112,5.14
			c-0.046,0.14-0.084,0.281-0.128,0.421c-1.047,3.36-1.621,6.892-1.621,10.53h0.571c0-3.44,0.523-6.786,1.478-9.976
			c0.044-0.146,0.087-0.292,0.133-0.438c0.503-1.607,1.119-3.175,1.839-4.691c0.526-1.109,1.106-2.19,1.739-3.242
			c0.996-1.654,2.117-3.231,3.352-4.721c0.787-0.948,1.618-1.858,2.491-2.73c7.133-7.116,17.075-11.623,27.884-11.623
			c13.853,0,26.3,7.321,33.261,18.054c0.732,1.127,1.403,2.293,2.008,3.491c1.503,2.972,2.596,6.148,3.222,9.459
			c0.161,0.85,0.3,1.705,0.399,2.572c0.142,1.266,0.217,2.548,0.217,3.844h0.57c0-1.216-0.068-2.421-0.191-3.61
			C150.688,61.62,150.563,60.773,150.413,59.934z"/>
		<path fill="#FFFFFF" d="M217.244,59.327c-0.223-0.571-0.867-0.852-1.437-0.63l-5.463,2.137c-0.57,0.223-0.852,0.865-0.63,1.436
			c0.173,0.439,0.591,0.706,1.034,0.706c0.135,0,0.271-0.024,0.403-0.076l5.462-2.136C217.186,60.541,217.468,59.897,217.244,59.327
			z"/>
		<path fill="#FFFFFF" d="M74.674,37.832c0.584,0,1.169-0.222,1.614-0.669c0.449-0.448,0.672-1.038,0.669-1.626
			c-0.004-0.58-0.227-1.16-0.669-1.604l-5.24-5.242c-0.89-0.892-2.337-0.892-3.229,0c-0.66,0.66-0.829,1.622-0.512,2.44
			c0.111,0.287,0.278,0.558,0.512,0.789l5.24,5.243C73.504,37.61,74.09,37.832,74.674,37.832z"/>
		<path fill="#FFFFFF" d="M20.51,72.567h-5.494c-0.817,0-1.479,0.662-1.479,1.479c0,0.816,0.662,1.478,1.479,1.478h5.494
			c0.816,0,1.479-0.661,1.479-1.478C21.988,73.229,21.326,72.567,20.51,72.567z"/>
		<path fill="#FFFFFF" d="M29.637,51.816c0.379,0,0.757-0.146,1.046-0.434c0.578-0.577,0.578-1.514,0-2.092l-3.393-3.393
			c-0.577-0.579-1.514-0.579-2.092,0c-0.576,0.575-0.576,1.512,0,2.089l3.394,3.396C28.88,51.671,29.259,51.816,29.637,51.816z"/>
		<path fill="#FFFFFF" d="M24.174,60.382l-5.663-2.381c-0.565-0.238-1.216,0.029-1.452,0.592c-0.237,0.566,0.027,1.216,0.593,1.452
			l5.663,2.382c0.14,0.06,0.286,0.087,0.429,0.087c0.434,0,0.846-0.254,1.023-0.679C25.005,61.27,24.739,60.621,24.174,60.382z"/>
		<path fill="#FFFFFF" d="M41.396,45.326c0.142,0,0.284-0.027,0.423-0.084c0.565-0.235,0.835-0.882,0.602-1.449l-2.364-5.728
			c-0.234-0.566-0.879-0.836-1.448-0.602c-0.566,0.232-0.835,0.882-0.603,1.447l2.364,5.729
			C40.548,45.067,40.959,45.326,41.396,45.326z"/>
	</g>
</g>
</svg>
