<?xml version="1.0" encoding="utf-8"?>
<!-- Generator: Adobe Illustrator 14.0.0, SVG Export Plug-In . SVG Version: 6.00 Build 43363)  -->
<!DOCTYPE svg PUBLIC "-//W3C//DTD SVG 1.1//EN" "http://www.w3.org/Graphics/SVG/1.1/DTD/svg11.dtd">
<svg version="1.1" id="Layer_1" xmlns="http://www.w3.org/2000/svg" xmlns:xlink="http://www.w3.org/1999/xlink" x="0px" y="0px"
	 width="241px" height="241px" viewBox="0 0 241 241" enable-background="new 0 0 241 241" xml:space="preserve">
<g>
	<circle fill="#E6E6E5" cx="120.5" cy="120.5" r="120.256"/>
	<circle fill="#222F61" cx="120.5" cy="120.5" r="114.192"/>
	<circle fill="#E6E6E5" cx="120.5" cy="120.5" r="84.887"/>
	<circle fill="#222F61" cx="120.5" cy="120.5" r="80.003"/>
	<g>
		<g opacity="0.75">
			<path fill="none" d="M35.845,121.479c0-47.858,38.797-86.655,86.655-86.655s86.654,38.797,86.654,86.655"/>
			<text transform="matrix(0.809 -0.5877 0.5877 0.809 63.9912 56.8687)"><tspan x="0" y="0" fill="#010101" font-family="Arial" font-weight="bold" font-size="24.2533">O</tspan><tspan x="20.551" y="0.649" fill="#010101" font-family="Arial" font-weight="bold" font-size="24.2533" rotate="9.595"> </tspan><tspan x="29.024" y="1.787" fill="#010101" font-family="Arial" font-weight="bold" font-size="24.2533" rotate="18.831">A</tspan><tspan x="47.051" y="8.543" fill="#010101" font-family="Arial" font-weight="bold" font-size="24.2533" rotate="28.054"> </tspan><tspan x="54.715" y="12.308" fill="#010101" font-family="Arial" font-weight="bold" font-size="24.2533" rotate="37.131">U</tspan><tspan x="69.743" y="24.4" fill="#010101" font-family="Arial" font-weight="bold" font-size="24.2533" rotate="46.282"> </tspan><tspan x="75.8" y="30.502" fill="#010101" font-family="Arial" font-weight="bold" font-size="24.2533" rotate="54.671">T</tspan><tspan x="85.05" y="44.289" fill="#010101" font-family="Arial" font-weight="bold" font-size="24.2533" rotate="63.032"> </tspan><tspan x="89.181" y="51.777" fill="#010101" font-family="Arial" font-weight="bold" font-size="24.2533" rotate="72.21">H</tspan></text>
		</g>
		<g>
			<path fill="none" d="M33.845,118.479c0-47.858,38.797-86.655,86.655-86.655s86.654,38.797,86.654,86.655"/>
			<text transform="matrix(0.809 -0.5877 0.5877 0.809 61.9912 53.8687)"><tspan x="0" y="0" fill="#FFFFFF" font-family="Arial" font-weight="bold" font-size="24.2533">O</tspan><tspan x="20.551" y="0.649" fill="#FFFFFF" font-family="Arial" font-weight="bold" font-size="24.2533" rotate="9.595"> </tspan><tspan x="29.024" y="1.787" fill="#FFFFFF" font-family="Arial" font-weight="bold" font-size="24.2533" rotate="18.831">A</tspan><tspan x="47.051" y="8.543" fill="#FFFFFF" font-family="Arial" font-weight="bold" font-size="24.2533" rotate="28.054"> </tspan><tspan x="54.715" y="12.308" fill="#FFFFFF" font-family="Arial" font-weight="bold" font-size="24.2533" rotate="37.131">U</tspan><tspan x="69.743" y="24.4" fill="#FFFFFF" font-family="Arial" font-weight="bold" font-size="24.2533" rotate="46.282"> </tspan><tspan x="75.8" y="30.502" fill="#FFFFFF" font-family="Arial" font-weight="bold" font-size="24.2533" rotate="54.671">T</tspan><tspan x="85.05" y="44.289" fill="#FFFFFF" font-family="Arial" font-weight="bold" font-size="24.2533" rotate="63.032"> </tspan><tspan x="89.181" y="51.777" fill="#FFFFFF" font-family="Arial" font-weight="bold" font-size="24.2533" rotate="72.21">H</tspan></text>
		</g>
	</g>
	<g>
		<g opacity="0.75">
			<path fill="none" d="M205.154,120.774c0,47.858-38.796,86.655-86.654,86.655s-86.655-38.797-86.655-86.655"/>
			<text transform="matrix(-0.809 0.5877 -0.5877 -0.809 177.0078 185.3848)"><tspan x="0" y="0" fill="#010101" font-family="Arial" font-weight="bold" font-size="24.2533">O</tspan><tspan x="20.549" y="0.649" fill="#010101" font-family="Arial" font-weight="bold" font-size="24.2533" rotate="9.595"> </tspan><tspan x="29.024" y="1.786" fill="#010101" font-family="Arial" font-weight="bold" font-size="24.2533" rotate="18.831">A</tspan><tspan x="47.05" y="8.542" fill="#010101" font-family="Arial" font-weight="bold" font-size="24.2533" rotate="28.054"> </tspan><tspan x="54.714" y="12.308" fill="#010101" font-family="Arial" font-weight="bold" font-size="24.2533" rotate="37.131">U</tspan><tspan x="69.742" y="24.4" fill="#010101" font-family="Arial" font-weight="bold" font-size="24.2533" rotate="46.282"> </tspan><tspan x="75.798" y="30.502" fill="#010101" font-family="Arial" font-weight="bold" font-size="24.2533" rotate="54.671">T</tspan><tspan x="85.048" y="44.29" fill="#010101" font-family="Arial" font-weight="bold" font-size="24.2533" rotate="63.032"> </tspan><tspan x="89.179" y="51.777" fill="#010101" font-family="Arial" font-weight="bold" font-size="24.2533" rotate="72.21">H</tspan></text>
		</g>
		<g>
			<path fill="none" d="M207.154,122.774c0,47.858-38.796,86.655-86.654,86.655s-86.655-38.797-86.655-86.655"/>
			<text transform="matrix(-0.809 0.5877 -0.5877 -0.809 179.0078 187.3848)"><tspan x="0" y="0" fill="#FFFFFF" font-family="Arial" font-weight="bold" font-size="24.2533">O</tspan><tspan x="20.549" y="0.649" fill="#FFFFFF" font-family="Arial" font-weight="bold" font-size="24.2533" rotate="9.595"> </tspan><tspan x="29.024" y="1.786" fill="#FFFFFF" font-family="Arial" font-weight="bold" font-size="24.2533" rotate="18.831">A</tspan><tspan x="47.05" y="8.542" fill="#FFFFFF" font-family="Arial" font-weight="bold" font-size="24.2533" rotate="28.054"> </tspan><tspan x="54.714" y="12.308" fill="#FFFFFF" font-family="Arial" font-weight="bold" font-size="24.2533" rotate="37.131">U</tspan><tspan x="69.742" y="24.4" fill="#FFFFFF" font-family="Arial" font-weight="bold" font-size="24.2533" rotate="46.282"> </tspan><tspan x="75.798" y="30.502" fill="#FFFFFF" font-family="Arial" font-weight="bold" font-size="24.2533" rotate="54.671">T</tspan><tspan x="85.048" y="44.29" fill="#FFFFFF" font-family="Arial" font-weight="bold" font-size="24.2533" rotate="63.032"> </tspan><tspan x="89.179" y="51.777" fill="#FFFFFF" font-family="Arial" font-weight="bold" font-size="24.2533" rotate="72.21">H</tspan></text>
		</g>
	</g>
	<g>
		<g>
			<line fill="none" stroke="#FFFFFF" stroke-width="0.5" x1="50.097" y1="106.199" x2="105.677" y2="50.619"/>
			<line fill="none" stroke="#FFFFFF" stroke-width="0.5" x1="47.233" y1="128.264" x2="126.73" y2="48.766"/>
			<line fill="none" stroke="#FFFFFF" stroke-width="0.5" x1="50.939" y1="147.127" x2="146.268" y2="51.798"/>
			<line fill="none" stroke="#FFFFFF" stroke-width="0.5" x1="57.676" y1="162.622" x2="161.595" y2="58.703"/>
			<line fill="none" stroke="#FFFFFF" stroke-width="0.5" x1="67.108" y1="174.074" x2="172.711" y2="68.472"/>
			<line fill="none" stroke="#FFFFFF" stroke-width="0.5" x1="81.592" y1="183.507" x2="182.143" y2="82.956"/>
			<line fill="none" stroke="#FFFFFF" stroke-width="0.5" x1="96.751" y1="189.57" x2="189.89" y2="96.431"/>
			<line fill="none" stroke="#FFFFFF" stroke-width="0.5" x1="117.972" y1="195.297" x2="196.29" y2="116.979"/>
			<line fill="none" stroke="#FFFFFF" stroke-width="0.5" x1="149.637" y1="188.56" x2="193.932" y2="144.264"/>
		</g>
		<g>
			<line fill="none" stroke="#FFFFFF" stroke-width="0.5" x1="137.594" y1="50.366" x2="193.174" y2="105.946"/>
			<line fill="none" stroke="#FFFFFF" stroke-width="0.5" x1="115.529" y1="47.503" x2="195.026" y2="127"/>
			<line fill="none" stroke="#FFFFFF" stroke-width="0.5" x1="96.666" y1="51.208" x2="191.995" y2="146.537"/>
			<line fill="none" stroke="#FFFFFF" stroke-width="0.5" x1="81.171" y1="57.945" x2="185.09" y2="161.863"/>
			<line fill="none" stroke="#FFFFFF" stroke-width="0.5" x1="69.718" y1="67.377" x2="175.321" y2="172.98"/>
			<line fill="none" stroke="#FFFFFF" stroke-width="0.5" x1="60.286" y1="81.861" x2="160.836" y2="182.412"/>
			<line fill="none" stroke="#FFFFFF" stroke-width="0.5" x1="54.223" y1="97.02" x2="147.362" y2="190.159"/>
			<line fill="none" stroke="#FFFFFF" stroke-width="0.5" x1="48.497" y1="118.241" x2="126.814" y2="196.56"/>
			<line fill="none" stroke="#FFFFFF" stroke-width="0.5" x1="55.233" y1="149.906" x2="99.529" y2="194.201"/>
		</g>
	</g>
	<g>
		<g opacity="0.75">
			<path fill="#010101" d="M86.869,176.088l0.299-2.769c0.747-6.915,3.017-13.554,6.748-19.731
				c3.712-6.149,10.75-13.994,21.516-23.984c8.271-7.707,13.378-12.951,15.175-15.583c2.272-3.411,3.433-6.803,3.433-10.062
				c0-3.521-0.862-6.096-2.636-7.871c-1.773-1.773-4.239-2.635-7.536-2.635c-3.243,0-5.713,0.911-7.552,2.786
				c-1.871,1.907-2.978,5.322-3.292,10.15l-0.168,2.583l-23.756-2.376l0.27-2.504c1.182-10.973,5.029-19.023,11.438-23.927
				c6.289-4.812,14.205-7.251,23.528-7.251c10.262,0,18.491,2.855,24.459,8.485c6.008,5.669,9.054,12.811,9.054,21.227
				c0,4.699-0.855,9.238-2.543,13.493c-1.66,4.184-4.305,8.602-7.861,13.128c-2.37,3.021-6.475,7.199-12.549,12.771
				c-5.827,5.347-9.548,8.92-11.058,10.621c-0.31,0.349-0.607,0.697-0.893,1.043h34.903v22.407H86.869z"/>
			<path fill="#010101" d="M124.334,75.413c9.648,0,17.229,2.602,22.743,7.804c5.513,5.202,8.27,11.671,8.27,19.408
				c0,4.401-0.789,8.593-2.367,12.571c-1.579,3.98-4.08,8.148-7.503,12.506c-2.268,2.891-6.359,7.048-12.272,12.472
				c-5.913,5.426-9.659,9.026-11.237,10.804c-1.579,1.779-2.857,3.514-3.835,5.203h37.215v17.407H89.653
				c0.711-6.58,2.845-12.816,6.402-18.708c3.557-5.892,10.582-13.706,21.076-23.443c8.446-7.87,13.627-13.205,15.539-16.007
				c2.578-3.868,3.868-7.691,3.868-11.471c0-4.18-1.123-7.392-3.367-9.638c-2.246-2.245-5.348-3.368-9.305-3.368
				c-3.913,0-7.025,1.179-9.337,3.535c-2.313,2.357-3.646,6.269-4.002,11.738l-18.674-1.868c1.11-10.314,4.602-17.718,10.471-22.209
				C108.194,77.659,115.53,75.413,124.334,75.413 M124.334,70.413c-9.885,0-18.312,2.613-25.047,7.765
				c-6.973,5.336-11.146,13.964-12.404,25.645l-0.539,5.009l5.013,0.501l18.674,1.868l5.151,0.516l0.335-5.167
				c0.341-5.248,1.592-7.552,2.582-8.561c0.857-0.875,2.389-2.037,5.768-2.037c2.601,0,4.488,0.623,5.77,1.904
				c1.279,1.28,1.902,3.277,1.902,6.102c0,2.749-1.014,5.667-3.013,8.674c-1.178,1.716-4.706,5.737-14.803,15.146
				c-10.932,10.144-18.113,18.165-21.948,24.518c-3.92,6.491-6.307,13.475-7.093,20.755l-0.598,5.537h5.569h65.693h5v-5v-17.407v-5
				h-5h-26.575c1.698-1.648,4.183-3.992,7.813-7.323c6.174-5.663,10.369-9.938,12.825-13.069c3.703-4.714,6.468-9.34,8.217-13.748
				c1.805-4.549,2.72-9.399,2.72-14.415c0-9.131-3.31-16.884-9.838-23.045C144.062,73.497,135.255,70.413,124.334,70.413
				L124.334,70.413z"/>
		</g>
		<g>
			<g>
				<g>
					<path fill="#FFFFFF" d="M84.869,172.088l0.299-2.769c0.747-6.915,3.017-13.554,6.748-19.731
						c3.712-6.149,10.75-13.994,21.516-23.984c8.271-7.707,13.378-12.951,15.175-15.583c2.272-3.411,3.433-6.803,3.433-10.062
						c0-3.521-0.862-6.096-2.636-7.871c-1.773-1.773-4.239-2.635-7.536-2.635c-3.243,0-5.713,0.911-7.552,2.786
						c-1.871,1.907-2.978,5.322-3.292,10.15l-0.168,2.583l-23.756-2.376l0.27-2.504c1.182-10.973,5.029-19.023,11.438-23.927
						c6.289-4.812,14.205-7.251,23.528-7.251c10.262,0,18.491,2.855,24.459,8.485c6.008,5.669,9.054,12.811,9.054,21.227
						c0,4.699-0.855,9.238-2.543,13.493c-1.66,4.184-4.305,8.602-7.861,13.128c-2.37,3.021-6.475,7.199-12.549,12.771
						c-5.827,5.347-9.548,8.92-11.058,10.621c-0.31,0.349-0.607,0.697-0.893,1.043h34.904v22.407H84.869z"/>
					<path fill="#E98025" d="M122.334,71.413c9.648,0,17.229,2.602,22.743,7.804c5.513,5.202,8.27,11.671,8.27,19.408
						c0,4.401-0.789,8.593-2.367,12.571c-1.579,3.98-4.08,8.148-7.503,12.506c-2.268,2.891-6.359,7.048-12.272,12.472
						c-5.913,5.426-9.659,9.026-11.237,10.804c-1.579,1.779-2.857,3.514-3.835,5.203h37.215v17.407H87.653
						c0.711-6.58,2.845-12.816,6.402-18.708c3.557-5.892,10.582-13.706,21.076-23.443c8.446-7.87,13.627-13.205,15.539-16.007
						c2.578-3.868,3.868-7.691,3.868-11.471c0-4.18-1.123-7.392-3.367-9.638c-2.246-2.245-5.348-3.368-9.305-3.368
						c-3.913,0-7.025,1.179-9.337,3.535c-2.313,2.357-3.646,6.269-4.002,11.738l-18.674-1.868
						c1.11-10.314,4.602-17.718,10.471-22.209C106.194,73.659,113.53,71.413,122.334,71.413 M122.334,66.413
						c-9.885,0-18.312,2.613-25.047,7.765c-6.973,5.336-11.146,13.964-12.404,25.645l-0.539,5.009l5.013,0.501l18.674,1.868
						l5.151,0.516l0.335-5.167c0.341-5.248,1.592-7.552,2.582-8.561c0.857-0.875,2.389-2.037,5.768-2.037
						c2.601,0,4.488,0.623,5.77,1.904c1.279,1.28,1.902,3.277,1.902,6.102c0,2.749-1.014,5.667-3.013,8.674
						c-1.178,1.716-4.706,5.737-14.803,15.146c-10.932,10.144-18.113,18.165-21.948,24.518c-3.92,6.491-6.307,13.475-7.093,20.755
						l-0.598,5.537h5.569h65.693h5v-5v-17.407v-5h-5h-26.575c1.698-1.648,4.183-3.992,7.813-7.323
						c6.174-5.663,10.369-9.938,12.825-13.069c3.703-4.714,6.468-9.34,8.217-13.748c1.805-4.549,2.72-9.399,2.72-14.415
						c0-9.131-3.31-16.884-9.838-23.045C142.062,69.497,133.255,66.413,122.334,66.413L122.334,66.413z"/>
				</g>
			</g>
		</g>
	</g>
</g>
</svg>
