<?xml version="1.0" encoding="utf-8"?>
<!-- Generator: Adobe Illustrator 14.0.0, SVG Export Plug-In . SVG Version: 6.00 Build 43363)  -->
<!DOCTYPE svg PUBLIC "-//W3C//DTD SVG 1.1//EN" "http://www.w3.org/Graphics/SVG/1.1/DTD/svg11.dtd">
<svg version="1.1" id="Layer_1" xmlns="http://www.w3.org/2000/svg" xmlns:xlink="http://www.w3.org/1999/xlink" x="0px" y="0px"
	 width="148px" height="131.322px" viewBox="0 0 148 131.322" enable-background="new 0 0 148 131.322" xml:space="preserve">
<g>
	<g>
		<rect x="10.411" y="2.834" fill="#E6E7E8" width="100.737" height="100.736"/>
		<rect x="10.411" y="2.834" fill="#2A3052" width="100.737" height="9.861"/>
		<rect x="10.411" y="87.154" fill="#2A3052" width="100.737" height="16.416"/>
		<line fill="none" stroke="#D1D3D4" x1="15.52" y1="15.98" x2="34.956" y2="15.98"/>
		<line fill="none" stroke="#D1D3D4" x1="15.52" y1="18.41" x2="34.956" y2="18.41"/>
		<line fill="none" stroke="#D1D3D4" x1="15.52" y1="20.839" x2="34.956" y2="20.839"/>
		<line fill="none" stroke="#D1D3D4" x1="15.52" y1="23.269" x2="34.956" y2="23.269"/>
		<line fill="none" stroke="#D1D3D4" x1="89.399" y1="50.209" x2="103.588" y2="50.209"/>
		<line fill="none" stroke="#D1D3D4" x1="89.399" y1="52.64" x2="103.588" y2="52.64"/>
		<line fill="none" stroke="#D1D3D4" x1="89.399" y1="55.069" x2="103.588" y2="55.069"/>
		<line fill="none" stroke="#D1D3D4" x1="89.399" y1="57.498" x2="103.588" y2="57.498"/>
		<line fill="none" stroke="#D1D3D4" x1="15.52" y1="25.698" x2="34.956" y2="25.698"/>
		<g>
			<line fill="none" stroke="#D1D3D4" stroke-width="0.5" x1="16.158" y1="72.988" x2="35.594" y2="72.988"/>
			<line fill="none" stroke="#D1D3D4" stroke-width="3" x1="16.158" y1="76.707" x2="35.594" y2="76.707"/>
			<line fill="none" stroke="#D1D3D4" stroke-width="0.5" x1="16.158" y1="80.037" x2="35.594" y2="80.037"/>
			<line fill="none" stroke="#D1D3D4" stroke-width="0.5" x1="16.158" y1="80.857" x2="35.594" y2="80.857"/>
		</g>
		<g>
			<line fill="none" stroke="#D1D3D4" stroke-width="0.5" x1="38.287" y1="72.988" x2="57.722" y2="72.988"/>
			<line fill="none" stroke="#D1D3D4" stroke-width="3" x1="38.287" y1="76.707" x2="57.722" y2="76.707"/>
			<line fill="none" stroke="#D1D3D4" stroke-width="0.5" x1="38.287" y1="80.037" x2="57.722" y2="80.037"/>
			<line fill="none" stroke="#D1D3D4" stroke-width="0.5" x1="38.287" y1="80.857" x2="57.722" y2="80.857"/>
		</g>
		<g>
			<line fill="none" stroke="#D1D3D4" stroke-width="0.5" x1="62.024" y1="72.988" x2="81.459" y2="72.988"/>
			<line fill="none" stroke="#D1D3D4" stroke-width="3" x1="62.024" y1="76.707" x2="81.459" y2="76.707"/>
			<line fill="none" stroke="#D1D3D4" stroke-width="0.5" x1="62.024" y1="80.037" x2="81.459" y2="80.037"/>
			<line fill="none" stroke="#D1D3D4" stroke-width="0.5" x1="62.024" y1="80.857" x2="81.459" y2="80.857"/>
		</g>
		<g>
			<line fill="none" stroke="#D1D3D4" stroke-width="0.5" x1="84.152" y1="72.988" x2="103.588" y2="72.988"/>
			<line fill="none" stroke="#D1D3D4" stroke-width="3" x1="84.152" y1="76.707" x2="103.588" y2="76.707"/>
			<line fill="none" stroke="#D1D3D4" stroke-width="0.5" x1="84.152" y1="80.037" x2="103.588" y2="80.037"/>
			<line fill="none" stroke="#D1D3D4" stroke-width="0.5" x1="84.152" y1="80.857" x2="103.588" y2="80.857"/>
		</g>
		<g>
			<path fill="#D1D3D4" d="M74.378,16.523v22.454H41.065V16.523H74.378 M75.378,15.523H40.065v24.454h35.313V15.523L75.378,15.523z"
				/>
		</g>
		<g>
			<path fill="#D1D3D4" d="M47.506,48.233v17.322H33.674V48.233H47.506 M48.506,47.233H32.674v19.322h15.832V47.233L48.506,47.233z"
				/>
		</g>
		<g>
			<path fill="#D1D3D4" d="M65.71,48.233v17.322H51.878V48.233H65.71 M66.71,47.233H50.878v19.322H66.71V47.233L66.71,47.233z"/>
		</g>
		<g>
			<path fill="#D1D3D4" d="M84.05,48.233v17.322H70.219V48.233H84.05 M85.05,47.233H69.219v19.322H85.05V47.233L85.05,47.233z"/>
		</g>
		<g>
			<path fill="#D1D3D4" d="M30.266,48.233v7.056H16.52v-7.056H30.266 M31.266,47.233H15.52v9.056h15.746V47.233L31.266,47.233z"/>
		</g>
		<g>
			<path fill="#D1D3D4" d="M30.266,58.498v7.057H16.52v-7.057H30.266 M31.266,57.498H15.52v9.057h15.746V57.498L31.266,57.498z"/>
		</g>
		<rect x="79.758" y="12.695" fill="#E88024" width="23.725" height="18.432"/>
		<rect x="95.818" y="6.673" fill="#2F8942" width="7.664" height="2.281"/>
		<rect x="91.771" y="60.47" fill="#2F8942" width="9.444" height="3.113"/>
		<rect x="29.997" y="82.643" fill="#2F8942" width="12.989" height="3.113"/>
		<rect x="76.409" y="82.643" fill="#2F8942" width="12.99" height="3.113"/>
		<rect x="86.967" y="6.673" fill="#F1F2F2" width="7.665" height="2.281"/>
		<rect x="78.663" y="6.673" fill="#F1F2F2" width="7.665" height="2.281"/>
		<line fill="none" stroke="#D1D3D4" stroke-width="0.5" x1="10.411" y1="45.682" x2="111.148" y2="45.682"/>
		<line fill="none" stroke="#D1D3D4" stroke-width="2" x1="10.411" y1="69.771" x2="111.148" y2="69.771"/>
		<line fill="none" stroke="#D1D3D4" stroke-width="2" x1="15.52" y1="7.765" x2="26.47" y2="7.765"/>
	</g>
	<g>
		<rect x="44.263" y="27.751" fill="#F1F2F2" width="100.737" height="100.737"/>
		<rect x="44.263" y="27.751" fill="#8DC63F" width="100.737" height="9.861"/>
		<rect x="44.263" y="112.072" fill="#6D6E71" width="100.737" height="16.416"/>
		<line fill="none" stroke="#D1D3D4" x1="49.373" y1="40.897" x2="68.808" y2="40.897"/>
		<line fill="none" stroke="#D1D3D4" x1="49.373" y1="43.327" x2="68.808" y2="43.327"/>
		<line fill="none" stroke="#D1D3D4" x1="49.373" y1="45.756" x2="68.808" y2="45.756"/>
		<line fill="none" stroke="#D1D3D4" x1="49.373" y1="48.186" x2="68.808" y2="48.186"/>
		<line fill="none" stroke="#D1D3D4" x1="123.25" y1="75.127" x2="137.439" y2="75.127"/>
		<line fill="none" stroke="#D1D3D4" x1="123.25" y1="77.557" x2="137.439" y2="77.557"/>
		<line fill="none" stroke="#D1D3D4" x1="123.25" y1="79.984" x2="137.439" y2="79.984"/>
		<line fill="none" stroke="#D1D3D4" x1="123.25" y1="82.414" x2="137.439" y2="82.414"/>
		<line fill="none" stroke="#D1D3D4" x1="49.373" y1="50.615" x2="68.808" y2="50.615"/>
		<g>
			<line fill="none" stroke="#D1D3D4" stroke-width="0.5" x1="50.011" y1="97.904" x2="69.446" y2="97.904"/>
			<line fill="none" stroke="#D1D3D4" stroke-width="3" x1="50.011" y1="101.623" x2="69.446" y2="101.623"/>
			<line fill="none" stroke="#D1D3D4" stroke-width="0.5" x1="50.011" y1="104.953" x2="69.446" y2="104.953"/>
			<line fill="none" stroke="#D1D3D4" stroke-width="0.5" x1="50.011" y1="105.775" x2="69.446" y2="105.775"/>
		</g>
		<g>
			<line fill="none" stroke="#D1D3D4" stroke-width="0.5" x1="72.139" y1="97.904" x2="91.573" y2="97.904"/>
			<line fill="none" stroke="#D1D3D4" stroke-width="3" x1="72.139" y1="101.623" x2="91.573" y2="101.623"/>
			<line fill="none" stroke="#D1D3D4" stroke-width="0.5" x1="72.139" y1="104.953" x2="91.573" y2="104.953"/>
			<line fill="none" stroke="#D1D3D4" stroke-width="0.5" x1="72.139" y1="105.775" x2="91.573" y2="105.775"/>
		</g>
		<g>
			<line fill="none" stroke="#D1D3D4" stroke-width="0.5" x1="95.876" y1="97.904" x2="115.312" y2="97.904"/>
			<line fill="none" stroke="#D1D3D4" stroke-width="3" x1="95.876" y1="101.623" x2="115.312" y2="101.623"/>
			<line fill="none" stroke="#D1D3D4" stroke-width="0.5" x1="95.876" y1="104.953" x2="115.312" y2="104.953"/>
			<line fill="none" stroke="#D1D3D4" stroke-width="0.5" x1="95.876" y1="105.775" x2="115.312" y2="105.775"/>
		</g>
		<g>
			<line fill="none" stroke="#D1D3D4" stroke-width="0.5" x1="118.004" y1="97.904" x2="137.439" y2="97.904"/>
			<line fill="none" stroke="#D1D3D4" stroke-width="3" x1="118.004" y1="101.623" x2="137.439" y2="101.623"/>
			<line fill="none" stroke="#D1D3D4" stroke-width="0.5" x1="118.004" y1="104.953" x2="137.439" y2="104.953"/>
			<line fill="none" stroke="#D1D3D4" stroke-width="0.5" x1="118.004" y1="105.775" x2="137.439" y2="105.775"/>
		</g>
		<g>
			<rect x="73.917" y="40.441" fill="#D1D3D4" width="35.313" height="24.454"/>
		</g>
		<g>
			<rect x="49.807" y="72.15" fill="#E6E7E8" width="15.832" height="19.32"/>
		</g>
		<g>
			<rect x="73.94" y="72.15" fill="#E6E7E8" width="15.832" height="19.32"/>
		</g>
		<g>
			<rect x="97.679" y="72.15" fill="#E6E7E8" width="15.831" height="19.32"/>
		</g>
		<rect x="113.61" y="37.612" fill="#00AEEF" width="23.725" height="18.432"/>
		<rect x="129.671" y="31.59" fill="#00AEEF" width="7.664" height="2.28"/>
		<rect x="125.623" y="85.387" fill="#EF4136" width="9.444" height="3.113"/>
		<rect x="63.849" y="107.561" fill="#00AEEF" width="12.988" height="3.113"/>
		<rect x="110.262" y="107.561" fill="#00AEEF" width="12.988" height="3.113"/>
		<rect x="120.819" y="31.59" fill="#F1F2F2" width="7.665" height="2.28"/>
		<rect x="112.516" y="31.59" fill="#F1F2F2" width="7.665" height="2.28"/>
		<line fill="none" stroke="#E6E7E8" stroke-width="0.25" x1="44.263" y1="68.174" x2="145" y2="68.174"/>
		<line fill="none" stroke="#D1D3D4" stroke-width="2" x1="44.263" y1="94.688" x2="145" y2="94.688"/>
		<line fill="none" stroke="#D1D3D4" stroke-width="2" x1="49.373" y1="32.682" x2="60.322" y2="32.682"/>
	</g>
	<g>
		<path fill="none" stroke="#E98025" stroke-width="5" d="M5.903,53.324c0,0-18.122,34.727,36.195,42.155"/>
		<polyline fill="none" stroke="#E98025" stroke-width="5" points="36.927,84.771 45.459,95.436 34.795,103.967 		"/>
	</g>
</g>
</svg>
